<svg width="75" height="75" viewBox="0 0 75 75" fill="none" xmlns="http://www.w3.org/2000/svg">
<g clip-path="url(#clip0_26_133)">
<path d="M27.0132 20.0018C27.4109 19.23 26.5848 19.061 26.2686 18.6736C24.9815 17.0963 23.8311 15.4737 23.7609 13.3683C23.4196 11.9436 23.5749 10.5068 23.6382 9.07249C23.9062 6.75653 25.1957 5.03556 27.0477 3.64224C27.4316 3.38759 28.019 3.15829 27.3639 2.63874C26.6162 2.04557 25.7913 1.57429 24.7567 1.66179C23.283 1.7867 21.5789 3.28924 21.1067 4.87746C20.518 6.8561 20.9583 8.58069 22.3161 9.58963C22.5052 9.73022 22.7269 9.82738 22.9185 9.96616C23.2104 10.1774 23.5799 10.467 23.4052 10.7983C23.1772 11.2309 22.7144 11.1247 22.3229 10.9003C21.5977 10.9323 21.0773 10.5424 20.5831 10.108C18.5477 8.31941 18.5352 4.77608 20.5518 2.35211C22.5566 -0.0573752 25.217 -0.569685 27.637 1.29611C28.8752 2.25013 29.8215 2.40702 31.2382 1.81566C33.6356 0.815182 36.209 0.817595 38.6227 1.64912C40.1252 2.16686 41.1022 2.16746 42.4105 1.12836C44.6752 -0.670458 47.2793 -0.246851 49.2847 1.88928C51.3464 4.08576 51.6439 7.66047 49.9078 9.5329C49.4256 10.0531 48.9033 10.5418 48.1116 10.5871C47.7121 10.715 47.2217 10.9039 46.9768 10.4869C46.772 10.1387 47.2204 9.90582 47.4772 9.67411C49.9009 7.48608 49.8978 4.64876 47.4979 2.48366C46.6399 1.71007 45.6459 1.45904 44.5174 1.61774C43.6424 1.74024 42.8157 2.10772 42.5082 2.8964C42.2302 3.60966 43.1201 3.91378 43.5153 4.37601C43.933 4.86418 44.4579 5.26244 44.8831 5.75243C44.999 5.8888 45.0979 6.03423 45.1887 6.1869C46.3912 8.29286 47.1277 10.4863 46.5522 12.9248C46.348 15.6903 44.87 17.8614 43.0556 19.8763C43.0105 20.0325 42.9272 20.1659 42.8026 20.2751C41.7554 21.059 40.5354 21.5453 39.3699 22.1301C38.8864 22.3413 38.3779 22.4626 37.8543 22.5344C37.1365 22.6858 36.4245 22.8662 35.6817 22.8596C35.2151 22.8789 34.7485 22.8747 34.2826 22.8524C33.4502 22.8071 32.6517 22.538 31.8162 22.509C31.1799 22.4782 30.5718 22.3105 29.9599 22.1614C29.539 22.0727 29.1501 21.9026 28.7649 21.7252C27.3683 21.2617 26.6493 22.6128 25.5183 22.8566C22.1789 25.1297 20.4078 28.3605 19.598 32.1041C19.3531 33.2362 18.9761 34.2167 18.1794 35.0428C17.25 36.0071 16.7114 35.8888 16.3745 34.6059C15.6761 31.9466 16.5379 29.5939 17.9421 27.3292C20.0896 23.8649 23.0833 21.4035 27.0132 20.0018Z" fill="#BD4E01"/>
<path d="M43.055 19.877C48.5087 20.6813 54.0877 25.5691 55.4223 30.7543C55.5782 31.3596 55.7555 32.0909 55.5469 32.6286C54.8173 34.5101 55.6935 36.1067 56.115 37.8633C57.0268 41.6601 55.9258 45.0538 53.0217 47.8416C52.2627 49.9059 48.8099 49.9862 48.3158 50.2776C45.376 50.4158 42.7199 49.8655 40.8442 47.4204C39.8283 47.0608 38.7524 46.7959 38.1317 45.8153C38.6578 44.9621 38.7931 44.0279 38.7317 43.0528C38.887 41.1629 38.8213 39.2422 39.7125 37.4681C40.0256 36.8447 40.1953 36.0657 40.7465 35.6681C43.0731 33.9875 43.0437 31.6794 42.8483 29.2482C42.7832 28.4378 42.5646 27.488 43.4627 26.864C44.9652 27.695 44.9088 29.2198 45.1562 30.5673C45.3203 31.4591 45.5157 32.0155 46.5847 31.537C47.0056 31.4175 47.4365 31.3807 47.8711 31.3747C48.6665 31.441 49.1544 31.3499 48.8068 30.3464C47.8204 27.4989 46.4877 24.8824 44.0646 22.8814C43.5591 22.4645 42.7262 22.1995 42.9278 21.2884C43.9086 20.7459 44.6814 21.3541 45.4274 21.782C49.0561 23.862 50.96 27.1851 52.2658 30.8805C52.6316 31.9153 53.0029 32.812 54.315 33.2483C54.5787 32.1277 54.3037 31.1514 53.8735 30.2058C51.8737 25.808 48.7041 22.5634 43.938 20.9058C43.598 20.7875 43.2541 20.6783 42.9723 20.4442C42.8871 20.35 42.8508 20.2493 42.8608 20.1437C42.8715 20.0351 42.8878 19.9807 42.9109 19.9807L43.055 19.877Z" fill="#CA5D0B"/>
<path d="M27.0132 20.002C25.3573 21.3126 23.1659 21.8171 21.6722 23.3986C18.8921 26.3422 16.2943 29.3436 16.5266 33.6768C16.5598 34.3002 16.4177 35.1251 17.126 35.332C17.6778 35.4938 17.8437 34.6827 18.1782 34.2978C19.5942 32.6685 19.0969 30.4346 20.1648 28.6599C21.6077 26.2619 22.8133 23.7245 25.5746 22.4042C25.7976 23.2562 25.0429 23.6086 24.6089 24.1047C22.891 26.0682 21.7092 28.3009 20.9927 30.7599C20.8424 31.2764 20.3589 32.0838 21.5858 32.1001C21.9979 32.0657 22.3943 31.9709 22.7902 31.8672C23.2849 31.7531 23.7834 31.7326 24.2857 31.7935C24.6903 31.7911 25.1675 32.1532 25.4519 31.5648C25.7387 29.9084 26.0494 28.2641 26.6844 26.6934C26.7552 26.5232 26.8516 26.3693 26.9681 26.2257C28.1969 25.3206 28.1562 26.4779 28.1712 27.0265C28.2151 28.6479 28.5182 30.2476 28.542 31.8611C28.5545 32.7451 28.7656 33.3866 29.5309 33.9357C31.0064 34.9929 32.1062 36.3989 32.7137 38.0541C33.2078 39.4003 34.0727 39.8409 35.4424 39.7123C35.9785 39.6622 36.519 39.6574 37.057 39.6025C39.1607 39.3877 39.2547 39.4897 39.0223 41.6439C38.2413 42.2268 37.3194 42.0337 36.4464 42.0524C34.1253 42.1007 33.7709 42.4235 33.754 44.6357C33.7515 44.9211 33.8034 45.2053 33.8016 45.4926C33.3757 46.8291 32.0179 47.1327 31.0096 47.8254C30.7515 48.0662 30.4935 48.3075 30.2355 48.5483C30.1453 48.8247 30.0376 49.0986 29.8083 49.2948C27.652 51.1394 21.6453 50.4642 19.8228 48.176C19.7251 47.534 19.1245 47.2594 18.7443 46.8291C16.2148 43.9647 15.487 40.7164 16.6081 37.1345C16.8216 36.4514 16.7602 35.9644 16.469 35.364C15.4726 33.3106 15.4807 31.2378 16.5072 29.1879C18.7218 24.7612 21.733 21.1762 27.0132 20.002Z" fill="#CA5D0B"/>
<path d="M44.7835 5.99324C43.9831 5.6511 43.5103 4.94931 42.9134 4.38994C41.4197 2.99059 41.5337 2.32018 43.4276 1.4446C44.508 0.945569 45.6816 0.896691 46.7332 1.42288C48.7248 2.41914 49.5853 4.21373 49.7913 6.24427C49.9705 8.0093 49.1381 9.37485 47.4233 10.1672C47.3388 10.2064 47.2993 10.3349 47.1897 10.4924C47.5273 10.5274 47.8192 10.5576 48.1116 10.5871C46.4933 10.6861 47.0952 12.1603 46.5515 12.9248C46.7069 10.4393 45.6347 8.24463 44.7823 5.99807C45.6635 5.88945 45.79 6.63408 46.1626 7.11441C46.4088 7.43181 46.348 8.09981 47.0732 7.89645C48.1436 6.79037 48.0578 5.633 47.2229 4.4726C46.3762 3.29532 45.3046 2.62068 43.7602 3.21747C43.2485 3.86254 43.9957 4.05986 44.2343 4.42252C44.5524 4.90888 45.2464 5.25766 44.7835 5.99324Z" fill="#E06801"/>
<path d="M22.3223 10.9003C22.5578 10.8738 22.8478 10.9214 23.0169 10.8056C23.345 10.5799 23.0188 10.432 22.8528 10.3138C19.5322 7.95438 19.5391 4.20588 22.8716 1.84165C24.4116 0.748843 27.7115 1.32874 28.4286 2.91334C28.7737 3.67668 27.7447 3.58797 27.3884 3.93313C27.1673 3.70745 26.856 3.64107 26.5792 3.51315C24.9602 2.97851 23.6782 3.3991 22.7269 4.76405C21.6516 6.30702 21.9716 7.53499 23.7189 8.56806C23.8724 8.61332 24.0095 8.68814 24.1285 8.79193C24.1454 10.3277 23.5787 11.8193 23.7622 13.3677C23.1252 12.6303 23.9344 11.1103 22.3223 10.9003Z" fill="#E06802"/>
<path d="M28.0886 17.1886C26.4571 17.2308 25.7469 16.1561 25.3592 14.9052C24.4811 12.0691 24.4648 9.28245 26.2861 6.71004C27.8243 6.28945 29.3956 6.53686 30.9501 6.51996C34.4354 6.48195 37.9219 6.5091 41.4072 6.50729C42.3185 6.50669 43.2128 6.54712 44.0088 7.04615C45.4925 9.5552 45.4493 12.191 44.6457 14.863C44.1491 16.5139 43.0356 17.503 41.1667 17.538C41.2037 15.6685 39.9824 14.2638 39.2334 12.6846C39.5697 12.124 40.6175 12.0516 40.4058 11.1235C40.3388 10.8296 40.1227 10.5925 39.7945 10.5684C38.6415 10.4845 38.7305 11.6527 38.1305 12.133C37.8054 12.3068 37.4547 12.3461 37.0915 12.331C35.3128 11.8199 33.5648 12.092 31.8244 12.5265C31.6509 12.5084 31.4887 12.4535 31.3421 12.3624C31.2181 12.162 31.2025 11.9339 31.1649 11.7082C31.0465 10.9974 30.6776 10.4422 29.8685 10.6921C29.0311 10.9503 29.11 11.5966 29.4889 12.229C29.6687 12.5295 29.8159 12.8397 29.7589 13.2035C28.9835 14.4466 28.8745 15.9497 28.0886 17.1886Z" fill="#E16B06"/>
<path d="M44.0101 7.04626C38.7392 7.05109 33.4684 7.05229 28.1975 7.06617C27.5305 7.06798 26.8811 7.04626 26.2874 6.71075C26.8466 5.5401 27.7228 4.63617 28.8226 3.92171C30.2493 3.54457 31.4881 2.72451 32.9811 2.45055C36.3293 1.83626 39.1952 2.84761 41.8951 4.60539C42.9216 5.15994 43.3925 6.16163 44.0101 7.04626Z" fill="#EA8125"/>
<path d="M39.3486 12.7741C40.6945 14.0998 41.9865 15.4448 41.1673 17.5381C39.8359 20.1111 37.6463 21.0911 34.7091 21.0633C31.6296 21.0338 29.4063 19.8915 28.0886 17.1887C27.9896 15.5691 28.6685 14.2012 29.5816 12.9092C29.9918 12.2533 30.5461 11.9124 31.3659 12.1537C31.3891 12.2141 31.4023 12.2762 31.4054 12.3408C31.4536 12.5134 31.4461 12.6884 31.3622 12.8434C29.757 15.8051 30.0864 16.6788 33.335 18.0649C33.4446 18.1114 33.551 18.1645 33.6588 18.2127C34.4153 18.576 35.1744 18.5724 35.936 18.2242C36.3606 18.0106 36.8178 17.8694 37.2443 17.6648C39.4676 16.5962 39.7613 15.0007 38.0935 13.2707C37.7184 12.8815 37.0132 12.6787 37.1572 11.9413C37.4779 11.9389 37.7992 11.9365 38.1198 11.9341C38.7305 11.9425 39.2503 12.0723 39.3486 12.7741Z" fill="#E08338"/>
<path d="M25.9279 32.1704C25.4494 32.7907 24.9734 32.3436 24.4968 32.1668C23.878 30.5743 24.7204 29.1424 25.0605 27.664C25.2815 26.7027 25.8245 25.8483 26.2197 25.1248C24.2281 26.9755 23.7315 29.7042 22.6824 32.1752C22.4163 32.5699 21.9973 32.4956 21.6046 32.5005C21.3873 32.2808 21.2576 32.0099 21.3165 31.7178C22.1933 27.3695 24.1317 23.6802 28.2883 21.3853C28.4474 21.2978 28.6334 21.3256 28.8075 21.3751C29.1783 21.5054 29.5497 21.6357 29.9204 21.7661C30.0213 21.8922 30.0332 22.0262 29.9574 22.168C29.7319 22.4691 29.477 22.7491 29.2528 23.0526C28.3541 24.1406 27.6802 25.3589 27.0214 26.5863L27.0232 26.5838C26.3506 28.3893 25.4638 30.1567 25.9279 32.1704Z" fill="#E87B1C"/>
<path d="M28.8082 21.3745C24.592 23.9927 22.3217 27.7793 21.6046 32.4999C20.5881 32.7437 19.9894 32.7388 20.3395 31.3709C21.2282 27.8975 23.0344 24.9612 25.5753 22.4033C26.7245 22.2706 27.3069 20.4832 28.8082 21.3745Z" fill="#E16902"/>
<path d="M41.8951 4.6045C41.4379 4.99491 41.1041 4.59363 40.7928 4.39752C37.3908 2.26018 33.8705 2.25294 30.2311 3.76634C29.8096 3.94193 29.3668 4.55622 28.8226 3.92021C33.1615 0.831866 38.4386 1.10763 41.8951 4.6045Z" fill="#F8AD68"/>
<path d="M42.9116 19.9795C42.9347 20.0863 42.9454 20.1943 42.9441 20.3035C42.8878 20.7265 42.5921 20.9987 42.2947 21.2714C41.8713 21.6383 41.307 21.8495 41.0158 22.3624C40.6701 24.7767 40.6701 24.7767 38.6328 24.9608C37.4647 24.9373 36.39 24.6802 35.5539 23.8227C35.2921 23.3164 35.3341 22.8434 35.7268 22.4113C36.4401 22.2973 37.1535 22.1838 37.8674 22.0698C38.3672 22.3745 38.2075 23.1487 38.8732 23.3732C39.5183 22.9526 38.9772 22.2043 39.3567 21.7222C40.5417 21.1417 41.7266 20.5606 42.9116 19.9795Z" fill="#C40F1A"/>
<path d="M29.1507 22.7522C29.1783 22.2761 29.4614 22.0419 29.9317 21.9834C30.4202 22.2767 30.3413 22.9441 30.8361 23.259C31.4611 23.0913 31.2663 22.34 31.7367 22.0697C32.5828 22.1831 33.4283 22.2972 34.2744 22.4106C34.8738 23.2542 34.5287 23.8498 33.7358 24.3301C32.8477 24.688 31.9377 24.9879 30.9933 25.187C30.5881 25.2341 30.1979 25.19 29.8259 25.0186C28.9478 24.4442 28.6222 23.7158 29.1507 22.7522Z" fill="#C8111B"/>
<path d="M24.1273 8.79265C24.0114 8.80049 23.8956 8.80653 23.7791 8.81075C22.529 7.78251 23.0519 6.60583 23.5755 5.51362C24.23 4.14927 25.1951 3.09146 26.9838 3.2562C27.3232 3.36844 27.379 3.63756 27.3871 3.93324C25.6861 5.17027 24.493 6.7241 24.1273 8.79265Z" fill="#DE7E31"/>
<path d="M39.3561 21.7222C39.3793 21.7741 39.4018 21.8266 39.4263 21.8779C39.7651 22.573 39.8935 23.2905 39.42 23.9549C39.3342 24.0755 38.8682 24.0236 38.6152 23.9422C37.6044 23.6175 37.9633 22.7534 37.8668 22.0697C38.3634 21.9545 38.8601 21.838 39.3561 21.7222Z" fill="#E14D4A"/>
<path d="M31.7367 22.0699C31.7373 22.2406 31.7398 22.4114 31.7373 22.5822C31.7304 23.2091 31.8169 23.9526 30.9294 24.0485C30.0288 24.1463 30.2693 23.2725 30.0326 22.8248C29.9079 22.5894 29.9593 22.2672 29.9311 21.9836C29.9261 21.91 29.9223 21.8375 29.9205 21.7651C30.5261 21.8671 31.1311 21.9685 31.7367 22.0699Z" fill="#E45651"/>
<path d="M33.5066 24.0791C34.2331 23.7237 34.3765 23.1197 34.2738 22.4106C34.7579 22.4106 35.242 22.4106 35.7261 22.4112C35.7211 22.8813 35.7161 23.3508 35.7111 23.8209C35.1111 24.9758 34.3289 24.6832 33.5066 24.0791Z" fill="#E05142"/>
<path d="M29.1507 22.7523C29.1019 23.5542 29.3587 24.2457 29.9518 24.816C30.0676 26.6166 30.2987 28.3955 30.957 30.1008C31.1674 30.6463 31.3929 31.1797 31.7574 31.6534C34.0646 34.6519 37.3802 34.2892 38.914 30.8515C39.4651 29.615 39.6192 28.2754 39.8784 26.9648C40.0695 25.9987 39.5772 25.4236 38.7223 25.0453C38.5789 24.9234 38.5282 24.775 38.5808 24.5969C39.9486 24.6935 40.6701 24.2065 40.4346 22.7692C40.3751 22.4071 40.3162 21.9648 40.8022 21.7476C42.6347 22.7951 44.0508 25.3446 43.6813 26.9328C42.9798 28.8234 43.189 30.7676 43.5629 32.6497C43.6788 33.2314 43.6136 33.4993 43.2541 33.7666C40.315 35.9529 39.2071 38.9024 39.3242 42.3775C39.3361 42.7287 39.306 43.0721 38.9791 43.3104C38.4392 42.745 38.5125 42.1724 38.9578 41.5955C39.1444 40.1485 38.7586 39.5734 37.0752 40.0881C36.0919 40.3887 34.9364 40.1491 33.8604 40.1907C33.2053 40.2161 32.901 39.924 32.7168 39.3459C31.9747 37.0197 30.6432 35.0984 28.4794 33.7648C28.1355 33.553 27.8023 33.378 27.9326 32.8247C28.4174 30.7628 27.5005 28.7371 27.7122 26.657C27.8092 25.7018 27.2656 26.6112 27.0226 26.587C27.2744 25.0724 27.8725 23.7371 29.1507 22.7523Z" fill="#E16902"/>
<path d="M52.8332 34.2673C55.649 35.8465 55.6121 38.4835 55.6221 41.2369C54.9902 40.8658 55.4962 40.0995 54.9244 39.8388C54.2599 39.5093 54.2004 38.8154 53.9067 38.2639C52.2195 35.0946 48.555 34.5105 45.753 36.8367C44.6733 37.7334 44.28 39.1636 42.9773 39.8273C40.6231 44.8491 43.9681 48.7768 50.2704 48.3912C47.3331 50.3843 42.6579 49.169 40.945 45.5991C38.7799 41.0867 40.645 35.6039 45.5664 33.2439C45.9033 33.4256 46.2722 33.4413 46.6092 33.3067C48.8939 32.3913 50.9418 32.8433 52.8332 34.2673Z" fill="#E16801"/>
<path d="M42.9767 39.8272C44.0439 37.7085 45.4411 35.9713 47.8993 35.1482C50.5466 34.2618 54.248 36.1143 54.9238 39.8386C55.1123 42.8485 54.3394 45.4584 51.4873 47.1124C49.6805 48.1605 47.6363 48.3506 45.8313 47.4135C43.9819 46.4534 42.8032 44.8205 42.9247 42.5957C42.9761 41.6749 42.9617 40.7504 42.9767 39.8272Z" fill="#E1863D"/>
<path d="M42.2057 21.0037C42.4519 20.7702 42.698 20.5372 42.9441 20.3037C48.3584 21.1871 54.754 27.6293 54.8812 32.3566C54.8962 32.9129 55.1805 33.6841 54.6532 33.9895C53.9906 34.3726 53.7382 33.4548 53.2428 33.2116C52.3579 32.7772 52.1775 32.0482 51.8888 31.1684C50.7107 27.5829 48.8569 24.3636 45.443 22.2534C44.6971 21.7924 43.9243 21.2873 42.9523 21.3585C42.5546 21.5305 42.3529 21.3211 42.2057 21.0037Z" fill="#BB4F05"/>
<path d="M42.2057 21.0034C42.4544 21.1217 42.703 21.2406 42.9523 21.3588C46.0399 23.6863 48.126 26.6352 49.2721 30.2763C49.7206 31.7016 49.3811 32.0202 48.0077 31.7933C46.9386 28.116 46.4996 27.3056 43.7921 24.2275C45.3008 26.8808 46.5083 29.1907 46.5891 31.8585C45.4173 32.7497 44.6858 32.7974 44.7622 31.0384C44.8261 29.5775 44.0808 28.2922 43.6813 26.9327C43.3932 24.8581 41.9302 23.3888 40.8022 21.7468C41.2701 21.4988 41.7379 21.2514 42.2057 21.0034Z" fill="#E67717"/>
<path d="M38.9572 41.5942C38.9641 42.1662 38.9716 42.7377 38.9785 43.3097C39.3705 44.3494 39.3962 45.2836 38.1875 45.8628C36.6443 45.8538 35.1005 45.8441 33.5567 45.8351C32.7626 44.6113 33.4346 43.3948 33.5899 42.1795C33.67 41.5508 34.2149 41.5857 34.6878 41.5845C36.1107 41.5803 37.5342 41.59 38.9572 41.5942Z" fill="#B74A01"/>
<path d="M46.5885 31.858C45.5351 29.1456 44.8693 26.2836 43.1527 23.7944C44.7604 24.0949 45.4587 25.3633 46.1513 26.4374C47.1885 28.0462 48.6045 29.6242 48.0077 31.7935C47.5342 31.8146 47.0613 31.8363 46.5885 31.858Z" fill="#F0913C"/>
<path d="M52.8332 34.2673C50.7201 33.5016 48.6177 32.7606 46.3549 33.8383C45.9422 34.035 45.5338 33.8087 45.5658 33.2445C48.6859 31.6653 50.7853 31.961 52.8332 34.2673Z" fill="#F5A45B"/>
<path d="M17.6208 42.6146C16.1571 40.6535 16.6475 37.1144 18.6354 35.2975C20.3432 33.7853 22.3242 33.1378 24.639 33.5179C24.9427 33.568 25.2145 33.4256 25.4638 33.2627C31.364 34.5468 34.2644 42.3244 30.7565 46.6763C28.837 49.0574 25.6254 49.8642 22.1557 48.1499C25.3986 48.941 27.7735 48.4522 29.2591 45.9474C30.5254 43.8118 30.8906 41.6141 29.1745 39.4792C28.3178 39.5293 28.1794 38.7611 27.7873 38.3116C26.0669 36.342 23.724 35.4912 21.6203 36.1199C19.4577 36.7668 18.2984 38.4154 18.0748 41.1736C18.0322 41.6884 18.0642 42.2194 17.6208 42.6146Z" fill="#E16801"/>
<path d="M17.6208 42.6148C17.5632 40.8129 17.4893 39.0027 18.7832 37.4911C21.366 34.4739 26.0149 34.8788 28.4036 38.3232C28.6679 38.704 28.9178 39.0938 29.1739 39.4794C29.3386 40.5571 29.5798 41.6125 29.6073 42.7222C29.6649 45.0556 28.4324 46.6976 26.4395 47.5279C24.3878 48.3829 22.2428 48.0698 20.3977 46.5648C19.0706 45.4823 18.3604 44.0515 17.6208 42.6148Z" fill="#E2873E"/>
<path d="M22.6824 32.1755C22.8703 28.7933 24.4304 26.0935 27.1685 23.9453C25.6097 26.5032 24.9095 29.2929 24.4968 32.167C23.8918 32.17 23.2874 32.1724 22.6824 32.1755Z" fill="#EF913C"/>
<path d="M25.4632 33.2625C25.3204 33.4326 25.1707 33.7567 25.0367 33.7507C22.7382 33.6505 20.6295 34.2437 18.636 35.2972C20.3257 32.7954 22.6987 32.4195 25.4632 33.2625Z" fill="#FAAF6B"/>
<path d="M25.9279 32.1706C25.0949 30.09 26.0193 28.3298 27.0232 26.5835C26.7339 28.4596 25.8596 30.2294 25.9279 32.1706Z" fill="#E16902"/>
<path d="M43.3468 2.90386C45.0315 2.05062 46.3574 2.64137 47.4302 3.9309C48.7091 5.46843 48.6296 6.71451 47.2593 8.43006C46.7344 8.80901 46.3893 8.51936 46.4244 8.05472C46.5991 5.72006 45.3729 4.25554 43.3662 3.22247C43.2842 3.18023 43.3061 3.02334 43.3468 2.90386Z" fill="#F7AB68"/>
<path d="M43.3468 2.90381C45.6985 3.83429 47.31 5.19925 46.6436 7.96898C46.5559 8.33225 46.9555 8.3944 47.2599 8.4306C46.6987 9.04248 46.4238 8.82525 46.1557 8.15242C45.8413 7.36254 45.6365 6.47972 44.7816 5.99939L44.7829 5.99457C44.6689 5.02727 43.7865 4.61151 43.2003 3.9942C42.7512 3.51991 42.4944 3.16992 43.3468 2.90381Z" fill="#E58B41"/>
<path d="M26.9838 3.2562C24.0728 4.38702 23.0426 6.17256 23.7791 8.81075C22.2359 8.54041 21.4605 7.54476 21.6685 6.10075C22.0399 3.52231 24.3866 2.26657 26.9838 3.2562Z" fill="#F4A662"/>
<path d="M37.1578 11.9411C37.2336 12.0274 37.2944 12.1342 37.3871 12.197C38.6334 13.0345 39.9029 13.9403 39.626 15.6063C39.3611 17.1988 38.0628 17.9368 36.5472 18.3459C36.3794 18.3912 36.2303 18.501 36.0725 18.5806C35.2658 18.9131 34.8086 18.7297 34.813 17.8125C34.8174 16.9496 34.8187 16.0867 34.8093 15.228C34.7366 14.56 35.3591 14.4007 35.7374 14.0597C36.2134 13.6319 36.3487 13.151 35.76 12.7473C35.103 12.2965 34.3809 12.3104 33.7609 12.8275C33.2899 13.2204 33.4496 13.65 33.8448 14.029C34.2112 14.3802 34.8512 14.5208 34.8049 15.1924C34.7955 16.0619 34.793 16.9278 34.8024 17.7938C34.8118 18.7025 34.374 18.9161 33.551 18.5873C33.0531 18.3972 32.5433 18.2312 32.0592 18.0122C29.4019 16.8096 29.1783 14.8388 31.4054 12.34C33.2724 11.5223 35.1825 11.2985 37.1578 11.9411Z" fill="#FDB97A"/>
<path d="M31.3666 12.1535C30.7716 12.4058 30.1766 12.6574 29.5823 12.909C28.8238 12.2658 28.1794 11.5718 28.981 10.5834C29.4294 10.0307 30.0789 9.88344 30.7378 10.2057C31.6083 10.6305 31.9728 11.2605 31.3666 12.1535Z" fill="#362E18"/>
<path d="M39.3486 12.7738C38.9396 12.4938 38.53 12.2144 38.1204 11.9344C38.2388 10.4615 39.0818 9.65288 40.0857 10.0662C40.7578 10.3426 41.1648 10.8434 41.0515 11.5621C40.9093 12.4697 40.2104 12.7521 39.3486 12.7738Z" fill="#383019"/>
<path d="M35.0216 14.7778C35.0115 15.7348 35.0322 16.6931 34.9815 17.6477C34.9389 18.4448 35.4111 18.5939 36.0725 18.5806C35.2339 19.1026 34.3934 19.0911 33.5517 18.5872C34.2168 18.5981 34.6771 18.4352 34.6339 17.6447C34.5819 16.6907 34.6032 15.733 34.5932 14.7772C34.736 14.6571 34.8788 14.6631 35.0216 14.7778Z" fill="#A06D3D"/>
<path d="M38.5801 24.5963C38.5952 24.6748 38.6096 24.7532 38.6234 24.8317C39.5415 26.2907 38.6246 27.3998 37.7866 28.4474C36.9142 29.5378 35.713 29.9976 34.2569 29.6591C31.9734 29.1287 30.4634 26.902 31.0202 24.8709C31.8488 24.6072 32.6774 24.3435 33.5053 24.0792C34.2481 24.0532 35.0385 24.4111 35.7099 23.8203C36.6681 24.0798 37.6238 24.3381 38.5801 24.5963Z" fill="#F0933F"/>
<path d="M31.0215 24.8709C31.1348 26.1761 31.5601 27.3395 32.5709 28.2766C33.5022 29.1401 34.5988 29.6084 35.842 29.2548C37.4478 28.798 38.1461 27.4868 38.5676 26.0446C38.6785 25.6656 38.6096 25.2378 38.6234 24.8323C40.0914 24.6748 40.6425 25.4031 40.3958 26.6896C40.072 28.378 39.9661 30.1376 39.0336 31.6679C37.3226 34.475 34.2569 35.2885 32.0191 32.6026C30.1221 30.3259 29.2334 27.7589 29.9511 24.8166C30.3081 24.8341 30.6651 24.8528 31.0215 24.8709Z" fill="#EA8023"/>
<path d="M44.7403 42.0436C44.7491 38.6783 46.9824 36.3895 50.0938 36.3062C52.4387 36.2434 54.4791 38.1388 54.3614 41.1294C54.2305 44.4555 52.294 46.7721 48.8481 46.7944C46.482 46.8095 44.7334 44.7331 44.7403 42.0436Z" fill="#FEBA7B"/>
<path d="M27.7754 42.4805C27.7817 45.2737 26.2736 46.8378 23.5843 46.8269C20.5637 46.8149 18.3548 44.5116 18.3354 41.3539C18.3197 38.7839 20.0915 36.7509 22.452 36.7841C25.6561 36.8293 28.2 40.0124 27.7754 42.4805Z" fill="#FEBA7B"/>
<path d="M35.0216 14.7781C34.8788 14.7781 34.7354 14.7781 34.5926 14.7781C33.655 14.6303 32.703 14.3871 32.8364 13.2358C32.9617 12.1593 33.9005 11.9372 34.8581 11.9487C35.817 11.9601 36.7771 12.2045 36.8497 13.2816C36.9249 14.3931 35.9804 14.6683 35.0216 14.7781Z" fill="#302C18"/>
<path d="M28.8658 41.4345C29.3236 41.5829 29.6762 41.8641 29.9562 42.2364C31.8569 44.7509 30.9094 48.8379 26.8047 49.8577C21.3535 51.213 15.8891 51.3379 10.4924 49.6713C7.69974 48.809 6.31376 46.6203 6.67951 44.0998C6.83608 43.0191 7.23378 42.0795 8.43688 41.6988C8.87277 41.6457 9.27172 41.7736 9.65062 41.9601C14.0866 44.1421 18.7713 44.2446 23.548 43.4692C24.7461 43.2749 25.7957 42.6619 26.8848 42.1682C27.5236 41.8792 28.0716 41.3391 28.8658 41.4345Z" fill="#FDDC2B"/>
<path d="M31.0509 47.7303C33.1909 49.0132 33.9907 50.8006 33.5705 53.2384C33.4847 53.7345 33.5623 54.2564 33.5642 54.7669C33.4571 55.1254 33.2191 55.4072 32.983 55.692C30.1459 58.0465 26.764 58.7912 23.1258 58.7821C20.9213 58.6916 18.7068 58.9825 16.5141 58.6023C15.502 57.626 16.5586 57.4154 17.1536 57.2766C18.3084 57.0062 19.4978 56.859 20.6908 56.7673C22.5246 56.6261 24.2043 56.0679 25.579 54.8562C26.9099 53.6832 27.0445 52.3285 26.0162 51.1451C25.7594 49.9866 27.0376 50.1911 27.4616 49.6342C28.2132 49.1822 29.0261 48.8183 29.6255 48.1533C29.9994 47.7382 30.4628 47.5173 31.0509 47.7303Z" fill="#EB7004"/>
<path d="M9.68632 35.1543C8.95857 33.2336 9.8836 31.6622 10.8399 30.0981C12.0474 30.2719 12.2535 31.7051 13.3877 31.9718C15.9642 32.6555 18.5546 33.0344 21.2175 32.4714C21.862 32.3351 22.529 32.3079 23.1916 32.3369C24.3834 34.0072 23.6964 35.6768 21.3823 36.7262C25.8583 35.911 27.0376 33.6771 25.0573 31.3937C25.1838 30.9309 25.3811 30.5604 25.9905 30.7299C27.8011 31.9054 27.4955 33.5425 27.0439 35.2116C27.2725 36.2736 26.3919 36.6405 25.7055 37.0267C24.3327 37.7997 22.8008 38.1599 21.2157 38.1871C19.1671 38.2221 17.1166 38.2535 15.0693 38.1611C13.2073 37.7369 11.2552 37.498 9.92431 35.9291C9.74769 35.6992 9.66189 35.4421 9.68632 35.1543Z" fill="#62C5F4"/>
<path d="M33.898 54.8334C34.8136 54.6096 35.1994 55.248 35.5902 55.8291C37.0677 58.025 37.0414 60.3946 36.4245 62.8264C36.4602 63.2138 36.3831 63.5789 36.1927 63.9229C34.9646 66.0137 32.8302 66.9448 30.6357 67.5362C22.3311 69.7749 14.0108 69.8141 5.75198 67.2459C4.07791 66.7252 2.49966 65.9987 1.31535 64.6693C0.856906 64.2602 0.753569 63.7068 0.65211 63.1517C-0.464563 59.7737 -0.408823 56.6642 2.92115 54.367C3.56185 53.9253 3.17543 53.4341 3.14724 52.97C3.01447 50.7748 3.34766 48.8022 5.65428 47.6895C5.76889 47.8258 5.81774 47.9797 5.79269 48.1541C5.35804 49.084 4.72424 49.9113 4.50003 50.9564C4.17561 52.4722 4.43614 53.7575 5.50835 54.9457C5.9192 55.4013 7.01019 55.7856 6.10834 56.7101C5.23967 56.8422 4.7042 56.1567 3.9896 55.9184C2.11575 57.3371 1.89529 61.0668 3.58314 63.1342C4.50065 64.2572 5.70313 64.9982 7.08347 65.5159C9.40762 66.3873 11.8226 66.9267 14.2908 67.0872C19.9556 67.4553 25.6066 67.5446 31.0503 65.5364C34.9608 64.0942 36.4332 61.1224 35.0285 57.3479C34.6577 56.5085 33.7696 55.8822 33.898 54.8334Z" fill="#E97D80"/>
<path d="M12.9098 32.1408C11.842 31.8143 11.5495 30.7595 10.8399 30.0976C10.6734 28.8793 10.4379 27.6404 11.8639 26.8946C12.1714 26.8017 12.4602 26.8765 12.7357 27.0014C16.5655 28.7344 20.3996 28.7139 24.2394 27.0334C24.5162 26.9121 24.8024 26.8306 25.1124 26.8867C26.526 27.9307 26.3312 29.3149 25.9905 30.7306C25.6153 30.8621 25.3573 31.1095 25.2089 31.4656C25.0905 31.7534 24.9152 31.9948 24.6195 32.1378C20.7171 33.087 16.8135 33.341 12.9098 32.1408Z" fill="#6094F2"/>
<path d="M14.7204 23.0552C14.0108 20.1237 15.3004 17.7884 17.1379 15.6336C17.9865 14.6385 18.9347 14.4931 19.8147 15.5932C21.572 17.7908 23.0244 20.0869 21.996 23.0479C22.1814 23.9374 21.4255 24.3006 20.937 24.816C18.7807 26.018 17.3427 25.9329 15.3968 24.4949C15.0142 24.0846 14.6797 23.6507 14.7204 23.0552Z" fill="#FB5D90"/>
<path d="M20.8856 24.4636C21.2557 23.9917 21.6259 23.5192 21.9966 23.0474C25.2822 24.0448 25.4819 24.291 25.1137 26.887C21.924 29.463 15.4288 29.4666 11.8646 26.8948C11.2533 24.4962 11.6078 24.0189 14.7211 23.0552C14.9734 23.4028 15.2258 23.751 15.4782 24.0991C15.4112 24.6428 16.196 25.0157 15.8133 25.6198C15.5847 25.8328 15.4087 26.0096 15.9404 26.0627C16.516 26.12 16.6168 25.551 17.0076 25.3754C18.4099 25.5087 19.8529 25.7978 20.8856 24.4636Z" fill="#BF44AF"/>
<path d="M14.748 37.7546C17.6771 37.7184 20.6332 38.1264 23.5185 37.3618C24.902 36.9955 26.3049 36.5906 27.0439 35.2124C27.7673 35.2806 28.1524 35.7712 28.5075 36.2998C28.6716 36.902 28.9867 37.4511 29.0286 38.1004C29.2027 40.7742 28.4549 41.7759 25.3191 42.9568C24.0797 43.1203 22.8459 43.3182 21.6334 43.6236C21.4461 43.6785 21.2551 43.7123 21.0616 43.7346C20.1291 43.7171 19.127 44.0188 18.2997 43.1837C18.8815 42.3045 19.8898 42.4626 20.7059 42.2345C22.0812 41.8501 23.3313 41.3324 23.9231 39.9541C24.4304 38.7732 24.1285 38.3526 22.7964 38.46C20.6902 38.6308 18.5834 38.5693 16.4772 38.5307C15.8252 38.5192 14.9766 38.7244 14.748 37.7546Z" fill="#7FAD2F"/>
<path d="M31.0509 47.7303C29.8347 48.248 29.0499 49.4072 27.7441 49.791C26.1057 50.7921 24.2588 51.2978 22.3781 51.3792C18.5013 51.547 14.6014 51.7262 10.7911 50.71C8.90033 50.0981 7.05716 49.397 5.63298 47.965C5.63737 47.8733 5.64488 47.7822 5.6549 47.6911C6.23046 47.2023 5.8979 46.6761 5.78643 46.1125C5.38059 44.053 6.26741 42.3043 8.19263 41.2036C8.51516 41.314 8.68614 41.5083 8.58218 41.8553C6.06512 44.0011 6.70269 47.8323 10.0214 48.9896C15.9072 51.0425 21.9321 51.028 27.8224 48.9679C30.5831 48.0024 31.1073 45.8832 29.9568 42.2367C31.3484 43.2486 30.9801 44.7119 31.0396 46.0763C31.0634 46.6284 30.5549 47.1848 31.0509 47.7303Z" fill="#FDE092"/>
<path d="M8.58155 41.8548C8.45191 41.6375 8.32226 41.4203 8.19262 41.2031C6.93441 38.3923 7.4298 36.3847 9.68632 35.1543C9.80845 35.322 9.92995 35.491 10.0514 35.6594C9.98819 36.1916 9.62933 36.6134 9.47338 37.1142C8.8258 39.1936 9.41388 40.9158 11.4731 41.7449C14.582 42.9964 17.86 43.6355 21.2714 43.3175C21.381 43.3313 21.49 43.3295 21.5983 43.312C22.8008 43.0351 24.049 42.9777 25.2321 42.6084C28.5896 41.5561 29.0856 40.6008 28.5075 36.299C29.9117 37.9277 29.0938 39.7005 28.8664 41.4348C25.073 44.4447 20.6025 44.6215 16.0244 44.2244C13.3676 43.9945 10.8093 43.3826 8.58155 41.8548Z" fill="#B5D879"/>
<path d="M33.898 54.8334C34.3821 55.5309 34.8669 56.2285 35.351 56.9261C36.2391 59.6421 36.1332 62.2006 33.7277 64.1793C31.9728 65.622 29.8998 66.4771 27.5299 66.4843C27.7341 65.6601 27.7341 65.6601 29.0681 65.1254C32.0899 63.915 33.8266 61.4862 33.3544 58.8021C33.1452 57.6115 32.988 56.4234 32.8584 55.2268C32.9429 54.8587 33.2673 54.8328 33.5636 54.767C33.6844 54.7459 33.7959 54.7682 33.898 54.8334Z" fill="#DA2D33"/>
<path d="M20.0132 49.8348C21.1524 49.55 21.8294 49.4094 22.4877 49.2109C24.3058 48.6623 25.7237 47.7783 26.0525 45.7345C26.1502 45.1293 26.0613 44.2676 26.8836 43.9242C27.5224 43.6575 28.2257 42.8664 28.8044 43.2906C29.4864 43.7903 29.6605 44.7262 29.4351 45.6615C29.0806 47.1296 28.2238 48.2224 26.8109 48.7541C24.8062 49.509 22.7344 50.1057 20.0132 49.8348Z" fill="#E8B916"/>
<path d="M14.6872 45.1073C15.4789 45.0729 16.4465 45.0451 16.4289 46.0384C16.4133 46.8983 15.5396 47.1366 14.6872 47.1511C13.3695 47.1734 12.0412 47.2277 10.8381 46.6086C10.2174 46.2894 9.79092 45.7161 10.1047 45.0294C10.4654 44.2389 11.1161 44.1303 11.8326 44.6994C11.7719 45.3764 11.8126 46.0094 12.757 45.9955C13.528 45.9847 14.5081 46.3341 14.6872 45.1073Z" fill="#FEE97B"/>
<path d="M14.6872 45.1076C14.892 45.3086 15.2346 45.4884 15.2734 45.7159C15.3599 46.2276 14.8964 46.4364 14.4812 46.4291C13.3871 46.4104 12.1426 46.8793 11.2802 45.9108C10.8331 45.4081 11.2953 44.9604 11.8332 44.6997C12.7846 44.8361 13.7359 44.9719 14.6872 45.1076Z" fill="#FEFAE5"/>
<path d="M5.63298 47.9648C7.34964 48.4422 8.61662 49.8095 10.3815 50.1915C14.614 51.5752 18.9472 51.4653 23.3131 51.0532C24.178 50.9717 25.0504 50.4805 25.9404 50.9699C27.4009 50.775 27.5205 51.6005 27.3502 52.6698C26.8842 55.5982 23.6964 56.9257 20.7253 57.2745C19.1877 57.455 17.5049 57.1544 16.1816 58.2762C15.4901 58.9738 14.5814 58.7016 13.7522 58.7843C11.5057 58.8652 9.3713 58.3444 7.28388 57.6185C6.75341 57.4338 6.08265 57.3313 6.01001 56.5872C6.48223 56.1666 5.96053 55.9953 5.76513 55.7871C3.25496 53.1133 3.2105 50.7696 5.63298 47.9648Z" fill="#FE7A01"/>
<path d="M6.01001 56.5878C8.38427 57.689 10.8688 58.3444 13.5236 58.3076C16.8448 58.5857 20.166 58.5845 23.4872 58.3094C26.9475 58.2297 30.2192 57.6202 32.859 55.2271C33.0281 55.2657 33.3475 55.3182 33.345 55.3387C33.1552 57.0971 34.2049 58.7324 33.8247 60.5276C33.278 63.1084 31.592 64.6393 29.1739 65.5819C28.5727 65.816 27.8806 65.8419 27.3821 66.3096C25.9949 67.4827 24.2419 67.2021 22.6292 67.3173C21.5783 67.3922 20.3696 67.7464 19.3894 66.8696C19.9499 66.1044 20.7948 66.1503 21.5351 66.0025C22.9511 65.7195 24.364 65.4238 25.6673 64.8065C27.436 63.9689 28.6635 62.6945 28.9629 60.7418C29.1226 59.7027 28.7224 59.1566 27.5662 59.3804C25.6147 59.7582 23.63 59.8089 21.6559 59.9646C16.5742 60.3646 11.6046 59.7829 6.73337 58.3715C5.98433 58.1543 5.26222 57.8333 4.68102 57.3131C4.13741 56.8261 3.65516 56.283 4.24513 55.5209C4.83321 55.8775 5.4213 56.2324 6.01001 56.5878Z" fill="#C50912"/>
<path d="M25.9404 50.9699C23.3388 51.2275 20.7403 51.901 18.1337 51.6149C15.529 51.3295 12.7595 51.6831 10.3821 50.1921C16.201 51.347 21.9954 51.487 27.7441 49.792C27.471 50.6507 26.4157 50.3984 25.9404 50.9699Z" fill="#CE5F19"/>
<path d="M23.4872 58.309C20.1666 58.8502 16.8461 58.8786 13.5242 58.3071C14.4092 58.2969 15.2954 58.2866 16.1816 58.2764C18.6166 58.2872 21.0516 58.2981 23.4872 58.309Z" fill="#FA8F2F"/>
<path d="M21.2714 43.3178C17.1492 43.9067 13.1052 43.8524 9.75082 41.0809C8.02227 39.6526 8.30786 37.0367 10.0514 35.6597C11.3259 36.9631 13.1365 37.1519 14.748 37.7548C17.5087 38.3642 20.295 38.1886 23.0576 37.8694C24.8068 37.6673 25.0792 37.8911 24.659 39.5494C24.1386 41.6046 22.5772 42.3517 20.6608 42.7264C20.0301 42.8495 19.3975 42.9642 18.7556 43.3184C19.5942 43.3178 20.4328 43.3178 21.2714 43.3178Z" fill="#87C62F"/>
<path d="M24.85 31.7894C24.9696 31.6814 25.0893 31.5733 25.2089 31.4653C25.8659 31.6934 26.7195 31.8582 26.5967 32.7241C26.3951 34.1409 26.1608 35.6754 24.5118 36.2565C23.1258 36.7447 21.6916 37.2214 20.0821 36.968C22.9048 35.8704 23.4158 35.1788 23.4064 32.5358C23.7709 32.0772 24.4072 32.1068 24.85 31.7894Z" fill="#4AB3EA"/>
<path d="M24.85 31.7891C24.498 32.2694 23.9638 32.4227 23.4064 32.5355C19.8673 33.396 16.3532 33.6518 12.9098 32.1415C13.8493 32.2579 14.8062 32.3032 15.7262 32.5029C18.8533 33.1818 21.8457 32.454 24.85 31.7891Z" fill="#719FCC"/>
<path d="M14.8789 34.6067C14.0747 34.5953 13.2205 34.5084 13.0952 33.5881C13.0244 33.0662 13.6864 33.1145 14.0653 33.1851C14.8801 33.3365 16.087 33.0227 16.3093 34.0286C16.4452 34.6423 15.4532 34.5766 14.8789 34.6067Z" fill="#F7FBFE"/>
<path d="M4.24512 55.5221C4.09544 56.7205 5.02047 57.1272 5.88976 57.5267C8.35921 58.6623 11.0391 59.0437 13.7096 59.3249C18.5502 59.8348 23.3814 59.7117 28.1637 58.7088C29.1432 58.5036 29.5716 58.8488 29.5904 59.8837C29.6317 62.1302 28.3316 64.2108 25.9899 65.2373C25.011 65.6663 23.9751 66.0012 22.9336 66.2619C21.9121 66.5171 20.8505 66.6233 19.8197 66.884C22.3718 67.0379 24.9202 67.2147 27.3821 66.3102C31.5056 65.9095 34.9846 64.0051 35.6028 60.3417C35.8069 59.1294 35.1042 58.08 35.3516 56.9263C37.0971 60.7272 35.6084 64.2718 31.6233 65.8377C28.9879 66.8726 26.2134 67.4989 23.4146 67.6383C17.8356 67.9165 12.2591 67.9219 6.8818 65.9753C1.69989 64.0992 0.866925 59.4842 3.04202 55.7109C3.37897 55.125 3.67583 54.597 4.24512 55.5221Z" fill="#E0393E"/>
<path d="M15.4106 30.1037C14.8213 30.0204 14.0265 30.2268 13.796 29.4405C13.6451 28.9258 14.1524 28.6748 14.5639 28.8479C15.2465 29.1346 16.3413 28.6566 16.598 29.4954C16.7828 30.0982 15.9348 30.0572 15.4106 30.1037Z" fill="#F6F9FD"/>
<path d="M18.6523 17.9301C18.5815 18.2771 18.5558 18.4479 18.512 18.6144C18.2884 19.4568 18.5627 20.6588 17.2876 20.8242C16.5667 20.9177 16.2229 20.2063 16.1653 19.5147C16.0632 18.288 16.3118 16.9948 17.5406 16.5881C18.7631 16.1838 18.1901 17.6115 18.6523 17.9301Z" fill="#FED1E0"/>
<path d="M20.8856 24.4636C20.0113 26.4802 18.2853 25.6318 16.7997 25.5914C16.439 25.8104 16.1077 25.8129 15.8252 25.4665C15.7144 25.0097 14.6885 24.7683 15.4782 24.0991C17.1861 25.5111 18.9974 25.5202 20.8856 24.4636Z" fill="#B43389"/>
<path d="M15.8246 25.4665C16.1496 25.5081 16.4747 25.5498 16.7997 25.5914C17.3784 26.8109 16.3093 26.4398 15.8133 26.4712C15.3129 26.5032 14.5225 26.467 14.5419 25.8798C14.5657 25.131 15.3968 25.6572 15.8246 25.4665Z" fill="#FAF2F8"/>
<path d="M25.2321 42.6092C24.1029 43.2362 22.8684 43.3599 21.5983 43.3128C22.7451 42.7703 23.9651 42.5778 25.2321 42.6092Z" fill="#87C62F"/>
<path d="M14.6954 52.0651C15.5196 51.9324 16.2555 52.2118 16.3651 52.9878C16.469 53.7209 15.6943 53.9665 15.0467 54.1747C12.9693 54.8421 11.0097 54.2948 9.08508 53.6063C8.50451 53.3987 8.12185 52.881 8.22143 52.2172C8.34544 51.3899 8.94166 51.236 9.68945 51.3603C9.3976 52.747 10.2844 53.1259 11.4487 53.2943C13.5944 53.6045 14.2482 53.3637 14.6954 52.0651Z" fill="#FEA24E"/>
<path d="M14.6954 52.0652C15.3599 52.9793 15.1344 53.6244 13.9845 53.7373C12.7533 53.8585 11.5044 53.8953 10.2932 53.4591C9.04939 53.0107 8.64606 52.3928 9.68945 51.3604C10.0721 51.402 10.4942 51.2831 10.8036 51.6186C10.7141 52.4224 11.1932 52.7519 11.9253 52.9003C12.7539 53.0687 13.32 52.7887 13.6382 52.0362C13.9902 52.0458 14.3428 52.0555 14.6954 52.0652Z" fill="#FED4AF"/>
<path d="M13.6382 52.0367C13.9275 52.5195 14.1311 53.0758 13.3996 53.2749C12.2785 53.5797 11.1262 53.4336 10.2769 52.6401C9.79342 52.1882 10.4466 51.8834 10.8036 51.6191C11.7481 51.7579 12.6931 51.8973 13.6382 52.0367Z" fill="#FEFBF9"/>
<path d="M15.4319 38.8008C16.0488 38.761 16.7483 38.7567 16.7296 39.5436C16.7164 40.0794 16.1665 40.4035 15.5979 40.4693C14.4662 40.6008 13.3401 40.5688 12.2698 40.1313C11.6422 39.8743 10.9852 39.4814 11.2364 38.7531C11.5232 37.9216 12.2428 37.9101 12.9674 38.353C13.2981 39.6365 13.9382 39.753 15.4319 38.8008Z" fill="#C0E192"/>
<path d="M15.4319 38.8008C15.8665 39.6908 15.2221 39.8248 14.582 39.832C13.8261 39.8405 12.9462 40.0782 12.4082 39.3384C11.9992 38.776 12.4614 38.516 12.9681 38.353C13.7347 38.7778 14.5883 38.764 15.4319 38.8008Z" fill="#F9FCF6"/>
<path d="M14.339 60.0734C15.1645 59.9563 15.9279 60.2514 16.0031 61.0166C16.0826 61.8252 15.2402 62.4395 14.5745 62.6386C12.0117 63.4043 9.47276 63.1388 7.11603 61.8831C6.28745 61.442 5.7526 60.6684 6.12775 59.6818C6.48599 58.7404 7.40037 58.9818 8.15254 58.9703C8.68113 58.9625 9.25168 58.878 9.68695 59.3071C9.58737 59.4579 9.43393 59.5418 9.27923 59.6329C8.81265 59.9081 7.86382 59.5551 7.88136 60.4059C7.89889 61.2634 8.77633 61.4317 9.44771 61.6025C10.1391 61.7781 10.8493 61.9905 11.5715 61.9778C12.9236 61.9531 14.0822 61.6043 14.339 60.0734Z" fill="#E97074"/>
<path d="M14.339 60.0735C15.0755 61.1874 14.4981 61.7625 13.4246 62.1209C11.6904 62.699 10.0276 62.3249 8.40806 61.7033C7.68157 61.4246 6.92814 61.0408 7.20434 60.0735C7.45924 59.1816 8.26966 59.321 8.9736 59.3089C9.21159 59.3047 9.44958 59.3077 9.68757 59.3071C9.94059 59.4182 10.1936 59.5292 10.4466 59.6402C10.3001 60.0916 9.45021 59.9474 9.54979 60.5629C9.62619 61.0347 10.8669 61.1639 12.1802 60.8652C12.0136 60.1121 10.6746 60.7071 10.7422 59.7096C11.9698 59.569 13.1535 59.8261 14.339 60.0735Z" fill="#F3B9BB"/>
<path d="M10.7422 59.7095C11.0961 60.1506 11.6153 60.0004 12.0769 60.0553C12.556 60.1126 13.1315 60.1247 13.1322 60.7456C13.1328 61.337 12.5297 61.3448 12.1 61.5295C11.5433 61.7684 11.0447 61.5234 10.518 61.486C9.62808 61.4227 8.6304 61.2543 8.68175 60.2568C8.73562 59.2201 9.86356 59.9117 10.4466 59.6401C10.5506 59.6413 10.6489 59.6643 10.7422 59.7095Z" fill="#FDFAFB"/>
<path d="M54.3751 74.9999C53.7307 74.9999 53.0869 74.9999 52.4424 74.9999C52.284 74.9474 52.1199 74.9896 51.9595 74.9758C50.5285 74.9776 49.1362 74.7211 47.7584 74.3778C47.2455 74.2498 46.7376 74.1056 46.2371 73.9385C45.7455 73.7442 45.2376 73.5909 44.7535 73.3791C44.2643 73.1697 43.7821 72.9464 43.3042 72.7135C42.8389 72.4824 42.3886 72.2259 41.9339 71.9773C41.136 71.4765 40.3494 70.9606 39.6123 70.3783C38.5332 69.5232 37.5493 68.5752 36.6355 67.5584C34.8243 65.4501 33.4721 63.0979 32.6104 60.4887C32.1632 59.1334 31.8563 57.7479 31.7223 56.3305C31.6972 56.0625 31.6816 55.7904 31.6903 55.5188C31.6753 55.3408 31.7204 55.1604 31.6653 54.9842C31.6653 54.3325 31.6653 53.6808 31.6653 53.0291C31.7279 52.795 31.7047 52.5524 31.7047 52.3171C31.7054 51.4964 31.8757 50.7011 32.0467 49.9052C32.3492 48.498 32.8152 47.139 33.3876 45.8133C33.4001 45.7843 33.4164 45.7578 33.4327 45.7312C33.4997 45.6329 33.5385 45.5225 33.5836 45.4144C33.8836 44.8635 34.1667 44.3029 34.4798 43.758C34.9051 43.0864 35.3429 42.4226 35.8176 41.7824C36.5027 40.9346 37.2167 40.1121 38.014 39.356C38.7762 38.6331 39.5797 37.9603 40.4371 37.346C41.1323 36.8452 41.8669 36.4028 42.6141 35.9786C44.6288 34.8834 46.7676 34.108 49.0367 33.6754C50.0713 33.478 51.1134 33.3501 52.1731 33.3314C53.0981 33.3145 54.0232 33.3091 54.9463 33.3459C56.0993 33.3917 57.2323 33.5873 58.3533 33.8449C59.3648 34.0978 60.3637 34.3868 61.3357 34.7615C62.6002 35.2491 63.8064 35.8441 64.9544 36.5483C65.7172 37.0274 66.4556 37.5409 67.1577 38.1003C67.6431 38.4949 68.1147 38.9041 68.5712 39.3289C69.1205 39.84 69.6077 40.4072 70.1113 40.9599C70.6555 41.6394 71.1897 42.3255 71.6695 43.0496C71.9707 43.5317 72.2663 44.0169 72.5431 44.5123C73.1845 45.7011 73.7011 46.9387 74.1057 48.2204C74.1458 48.3712 74.194 48.5197 74.2366 48.6699C74.3556 49.1448 74.4884 49.6167 74.5823 50.097C74.6349 50.3396 74.6725 50.5846 74.7258 50.8272C75.1366 53.3893 75.0959 55.9412 74.5354 58.4811C74.4283 58.9143 74.345 59.3536 74.2022 59.7784C74.1082 60.0524 74.0425 60.3348 73.9442 60.6069C73.8915 60.7373 73.849 60.8718 73.8051 61.0052C73.5897 61.6008 73.3479 62.1867 73.0755 62.76C72.887 63.1788 72.6653 63.5818 72.453 63.9892C72.0371 64.7235 71.5824 65.4356 71.0908 66.1247C70.5609 66.8313 70.0029 67.5162 69.4011 68.1673C69.3779 68.1908 69.3541 68.2132 69.3297 68.2355C69.2351 68.3242 69.1386 68.4111 69.0535 68.5094C68.9157 68.7025 68.7284 68.851 68.5637 69.0205C68.3746 69.2251 68.1372 69.3784 67.9399 69.5745C67.9174 69.598 67.8936 69.6209 67.8698 69.6439C66.9585 70.4265 65.9997 71.1488 64.9676 71.7794C64.4772 72.0763 63.9824 72.3653 63.4663 72.6188C63.0248 72.8795 62.5369 73.049 62.0816 73.2825C60.1382 74.1068 58.1128 74.6469 56.0066 74.904C55.5519 74.9595 55.0935 74.9685 54.6357 74.9764C54.548 74.9788 54.4572 74.9516 54.3751 74.9999Z" fill="black"/>
<path d="M46.7357 49.8334C47.7853 49.8781 48.9195 49.8461 50.0531 49.8974C50.2748 49.9076 50.3938 49.9825 50.5103 50.149C51.637 51.7584 52.7656 53.3665 53.9499 54.9366C54.5875 55.782 55.2131 56.6371 55.9734 57.3883C56.0242 57.4384 56.0599 57.4776 56.0191 57.5627C54.957 59.7966 53.9161 62.0402 52.6209 64.1624C52.4787 64.3947 52.3197 64.6198 52.1468 64.8316C52.036 64.9674 52.0353 65.0911 52.0911 65.2383C52.1725 65.4538 52.3128 65.6306 52.4725 65.7941C53.2059 66.5441 54.0827 67.1192 54.9664 67.684C55.8619 68.2561 56.7826 68.7895 57.7214 69.294C57.7978 69.335 57.8767 69.4026 57.9556 69.405C58.2224 69.4128 58.2149 69.5601 58.1786 69.7459C57.9675 70.82 57.4433 71.7686 56.9573 72.7432C56.4983 73.6634 55.691 73.9295 54.7766 74.1141C53.442 74.3839 52.0973 74.5329 50.7345 74.4358C50.0393 74.3863 49.3304 74.3115 48.6784 74.0924C47.3576 73.6489 45.9854 73.3267 44.7666 72.6219C43.5103 71.8953 42.3848 71.0451 41.6515 69.7882C41.5826 69.6705 41.5688 69.5727 41.6145 69.4418C42.0379 68.2319 42.512 67.0414 43.0619 65.8792C43.0944 65.8098 43.0782 65.6818 43.2598 65.7229C44.3558 65.9685 45.4731 65.9799 46.5916 65.9715C48.1047 65.96 49.6085 65.8411 51.1003 65.5943C51.3752 65.5491 51.6445 65.4725 51.9157 65.4079C52.0165 65.3838 52.0892 65.3596 52.0272 65.2202C51.9783 65.1098 51.9677 65.0398 51.8099 65.0844C50.789 65.3753 49.7337 65.4616 48.6797 65.5515C47.6281 65.6414 46.5741 65.6583 45.52 65.639C44.8612 65.6269 44.2055 65.569 43.556 65.4544C43.4157 65.4296 43.2905 65.3783 43.1821 65.2733C42.175 64.2982 41.3095 63.212 40.4909 62.0896C39.7895 61.1278 39.1632 60.1255 38.6603 59.0502C38.3641 58.4172 38.2977 57.8125 38.5131 57.1349C39.1025 55.2842 39.7657 53.4661 40.7521 51.7716C41.0277 51.2985 41.3383 50.8484 41.7454 50.4664C41.8907 50.33 42.0811 50.2498 42.2289 50.1273C42.6316 49.7936 43.1101 49.892 43.5642 49.8678C44.5919 49.8123 45.6221 49.8268 46.7357 49.8334Z" fill="#FEFEFE"/>
<path d="M58.4535 57.4042C57.8341 57.4042 57.2154 57.4042 56.596 57.4036C56.5196 57.4036 56.4676 57.3873 56.3987 57.3233C55.3615 56.3591 54.5705 55.2077 53.7445 54.0853C52.7055 52.6727 51.6996 51.2372 50.68 49.8113C50.6274 49.7376 50.5686 49.6779 50.6224 49.5651C51.6715 47.3662 52.6942 45.1546 53.9856 43.0722C54.1127 42.867 54.2643 42.6757 54.4052 42.4784C54.4278 42.4464 54.4747 42.4169 54.4747 42.3861C54.476 42.0059 54.8073 42.0783 55.0146 42.0548C56.4375 41.8949 57.8648 41.8406 59.2984 41.8882C60.4883 41.9275 61.6733 41.9975 62.8488 42.1851C63.0931 42.2244 63.3348 42.2811 63.5778 42.3257C63.6467 42.3384 63.6931 42.3776 63.7375 42.4229C65.3515 44.0606 66.8377 45.7906 67.9587 47.788C68.1416 48.1138 68.2838 48.4572 68.4303 48.7987C68.5343 49.0407 68.4998 49.276 68.4378 49.518C67.8604 51.764 66.9886 53.8862 65.5938 55.7882C65.3709 56.0923 65.0991 56.3591 64.8623 56.6511C64.5367 57.0536 64.0845 57.1302 63.6104 57.1713C61.895 57.3191 60.1739 57.3438 58.4535 57.4042Z" fill="#FEFEFE"/>
<path d="M69.8745 49.4007C70.7764 49.4031 71.6732 49.4816 72.5695 49.5721C72.6653 49.5817 72.7248 49.6095 72.7836 49.7018C73.5195 50.8519 73.951 52.1101 74.2354 53.4231C74.3669 54.0308 74.4295 54.6463 74.4514 55.2654C74.4709 55.8163 74.3926 56.3624 74.3168 56.9061C74.1195 58.3314 73.7713 59.7241 73.2609 61.0758C72.8838 62.0763 72.3546 62.9965 71.6651 63.8335C71.424 64.1261 71.1271 64.2378 70.7576 64.3192C69.5557 64.5841 68.3508 64.7821 67.1126 64.7121C66.7844 64.6934 66.4581 64.6517 66.1356 64.5854C66.083 64.5745 66.0141 64.6023 66.046 64.4846C66.2026 63.9077 66.17 63.3163 66.1462 62.7286C66.113 61.9164 66.0504 61.1066 65.9208 60.3022C65.788 59.4798 65.6339 58.6621 65.2945 57.8891C65.1911 57.6532 65.0728 57.4245 64.8805 57.2447C64.8028 57.1722 64.8291 57.1391 64.888 57.0805C66.8502 55.1308 67.8428 52.6954 68.6276 50.155C68.6777 49.9933 68.7384 49.8285 68.7497 49.6626C68.766 49.4278 68.8988 49.391 69.1004 49.3977C69.3591 49.4073 69.6165 49.4007 69.8745 49.4007Z" fill="#FEFEFE"/>
<path d="M40.7797 42.6735C40.4133 43.1792 40.4377 43.7584 40.4383 44.3287C40.439 45.6852 40.5511 47.032 40.8949 48.3529C40.9982 48.7494 41.1298 49.1362 41.3396 49.494C41.4517 49.6847 41.5895 49.8531 41.7786 49.9683C40.3932 51.2235 39.7438 52.8877 39.0636 54.5302C38.6227 55.5959 38.252 56.6863 38.0065 57.8117C37.977 57.9456 37.905 57.9462 37.8111 57.9583C37.0601 58.0561 36.3042 58.0766 35.5489 58.0886C35.0422 58.0965 34.5349 58.0754 34.0283 58.0772C33.8604 58.0778 33.7383 58.0205 33.6293 57.9034C33.1928 57.4345 32.9254 56.8746 32.7024 56.2941C32.3335 55.3322 32.0736 54.3377 32.1112 53.3107C32.1882 51.2241 32.5552 49.1748 33.3657 47.2342C33.9124 45.9241 34.7698 44.7746 35.7449 43.7156C35.8558 43.5949 36.013 43.5786 36.1533 43.5418C37.6532 43.1544 39.1764 42.8762 40.7114 42.6554C40.7252 42.6542 40.7408 42.6632 40.7797 42.6735Z" fill="#FEFEFE"/>
<path d="M63.2052 41.9032C62.8563 41.8556 62.5069 41.8085 62.158 41.7608C61.0263 41.6045 59.8865 41.5629 58.7454 41.5478C57.4903 41.5309 56.2302 41.5363 54.9927 41.7409C54.4941 41.823 54.2104 41.6981 53.8729 41.3698C53.1514 40.6686 52.2608 40.1732 51.3884 39.6633C50.5316 39.1625 49.6536 38.6978 48.7592 38.2609C48.6953 38.2302 48.6277 38.1831 48.5626 38.1837C48.3145 38.1867 48.3214 38.0727 48.3728 37.888C48.7066 36.6763 49.2784 35.589 50.1264 34.6319C50.4752 34.2385 50.9537 34.1848 51.4178 34.0919C52.3547 33.9054 53.3054 33.7944 54.2605 33.7793C54.9582 33.7678 55.6546 33.8607 56.3467 33.9579C58.0965 34.2041 59.7694 34.7049 61.4303 35.286C62.8563 35.7851 63.8828 36.7192 64.8323 37.783C64.9732 37.9411 65.1767 38.0944 65.2162 38.2772C65.2563 38.4619 65.0471 38.6417 64.9506 38.8251C64.439 39.793 63.9248 40.7591 63.4068 41.7234C63.3643 41.8013 63.3542 41.931 63.2052 41.9032Z" fill="#FEFEFE"/>
<path d="M58.7974 69.5389C59.155 69.6216 59.4136 69.4369 59.6817 69.3078C61.4497 68.4533 63.1651 67.518 64.6626 66.255C65.0991 65.8869 65.5012 65.4863 65.7993 65.0011C65.8519 64.9154 65.9139 64.8816 66.0141 64.9015C67.6255 65.2238 69.2069 65.0084 70.7776 64.6463C70.9862 64.598 71.0263 64.6403 71.0131 64.8285C70.9843 65.2352 70.8854 65.6027 70.628 65.9485C68.337 69.0242 65.4103 71.3419 61.8129 72.8728C60.6393 73.3719 59.4337 73.781 58.1805 74.0356C57.6838 74.1364 57.179 73.9837 56.6999 73.8226C56.5722 73.7798 56.6843 73.7122 56.7181 73.6663C57.3212 72.8517 57.7984 71.9725 58.1604 71.0348C58.3358 70.5798 58.478 70.1164 58.5318 69.6318C58.56 69.3717 58.751 69.6692 58.7974 69.5389Z" fill="#FEFEFE"/>
<path d="M35.9742 43.2403C35.9322 42.6991 36.0568 42.2411 36.4076 41.8054C39.0461 38.5294 42.3836 36.1971 46.4501 34.8364C47.4791 34.4918 48.5344 34.2408 49.6066 34.0549C49.7306 34.0332 49.8552 34.067 50.0995 34.1937C49.6918 34.5721 49.3554 34.9981 49.0717 35.4621C48.5901 36.2496 48.1987 37.0727 48.0058 37.973C47.9864 38.0647 47.9713 38.1142 47.8611 38.0937C47.5167 38.0303 47.2204 38.1595 46.9229 38.3043C45.0929 39.1949 43.3199 40.1701 41.7892 41.5061C41.5625 41.704 41.3496 41.9164 41.1617 42.1481C41.0784 42.2501 40.987 42.3002 40.8648 42.3153C39.2183 42.5132 37.5988 42.8409 35.9742 43.2403Z" fill="#FEFEFE"/>
<path d="M37.2317 67.4702C38.0152 67.9692 38.7874 68.4791 39.596 68.9341C40.0801 69.2063 40.5667 69.4748 41.1022 69.6474C41.1742 69.6703 41.2281 69.7041 41.2632 69.7729C41.7579 70.7486 42.5264 71.4969 43.4057 72.1516C43.437 72.1745 43.4664 72.1999 43.4802 72.2439C41.0671 71.057 38.9904 69.4567 37.2317 67.4702Z" fill="#FEFEFE"/>
<path d="M32.1745 55.8838C32.3348 56.3002 32.4832 56.722 32.6949 57.1184C32.9191 57.5378 33.1465 57.9566 33.536 58.2625C33.5949 58.309 33.6005 58.3603 33.5986 58.4242C33.5755 59.2069 33.6005 59.9877 33.7151 60.7643C33.8291 61.5343 33.9957 62.2934 34.245 63.0736C33.479 62.1094 32.3586 58.2124 32.1745 55.8838Z" fill="#FEFEFE"/>
<path d="M72.7912 46.1641C73.4982 47.3371 74.4809 51.2534 74.4201 52.6932C74.2304 52.0221 74.0293 51.4127 73.7632 50.8243C73.5521 50.3579 73.3429 49.8896 73.0241 49.4787C72.9621 49.3984 72.9797 49.3176 72.9797 49.2355C72.979 48.3835 73.0141 47.5302 72.8813 46.683C72.8563 46.5237 72.8262 46.365 72.7912 46.1641Z" fill="#FEFEFE"/>
<path d="M68.7566 40.2181C68.2236 39.8543 67.7038 39.4723 67.1571 39.1265C66.7281 38.8556 66.2978 38.5877 65.8224 38.3946C65.7792 38.3771 65.7266 38.3578 65.7022 38.3234C65.3108 37.7779 64.8442 37.2927 64.3926 36.7925C66.0216 37.7278 67.4689 38.8761 68.7566 40.2181Z" fill="#FDFDFD"/>
</g>
<defs>
<clipPath id="clip0_26_133">
<rect width="75" height="75" fill="white"/>
</clipPath>
</defs>
</svg>
