<svg width="60" height="60" viewBox="0 0 60 60" fill="none" xmlns="http://www.w3.org/2000/svg">
<path d="M31.9643 14C32.0233 13.9324 32.0523 13.8506 32.0618 13.7615C32.1503 12.9123 32.3082 12.0747 32.5166 11.2514C32.7905 10.1685 32.941 9.009 33.9272 8.30233C34.0436 8.01576 34.0351 7.99623 33.7932 8.00046C33.1814 8.27331 32.5681 8.54352 32.0293 8.9652C30.5618 9.6022 29.4892 10.7638 28.442 11.9634C27.8947 12.5909 27.5123 13.3456 27 13.9989L31.9643 14Z" fill="#FFD900"/>
<path d="M32.0144 13.9991C31.9457 13.3804 32.1387 12.789 32.2654 12.2013C32.4299 11.4397 32.6093 10.6739 32.943 9.95426C33.1309 9.54923 33.3557 9.19625 33.7997 9.02593C33.8347 9.00767 33.9016 8.99032 33.9072 9.0063C34.0703 9.48713 34.4231 9.2442 34.7199 9.21406C34.7863 9.20721 34.8494 9.21726 34.8989 9.26749C35.0027 9.2684 35.1536 9.26384 35.1648 9.3684C35.2214 9.89216 35.5808 10.2237 35.9201 10.5716C35.9332 11.5698 35.8528 12.5703 35.9907 13.5653C36.0196 13.774 35.9921 13.9406 35.75 14C34.5045 13.9995 33.2594 13.9991 32.0144 13.9991Z" fill="#EEE6CF"/>
<path d="M13.7179 45.2782C12.417 44.6984 11.1671 44.0696 9.9426 43.3936C8.89763 42.8168 7.85989 42.2331 7.11629 41.2969C6.47537 40.4898 6.00888 39.6196 6.00011 38.5829C5.98927 37.2528 6.80563 36.2982 8.21544 36.1044C10.4911 35.7912 12.6022 36.1501 14.3867 37.6263C14.6225 37.821 14.8217 38.0565 15.026 38.2828C15.1169 38.3833 15.1762 38.4586 15.3403 38.3784C16.3801 37.8691 17.4452 37.9715 18.5289 38.2527C19.6672 38.5479 20.7168 39.0204 21.672 39.6551C22.7562 40.3757 23.3605 41.4556 23.8744 42.5643C25.0495 45.0986 25.6455 47.7858 26.1538 50.4925C26.5367 52.5291 26.7735 54.5836 26.9897 56.6406C27.013 56.8611 27.0259 56.9747 26.6899 56.9417C25.6713 56.8412 24.6495 56.9431 23.6304 56.998C23.2836 57.0165 23.0374 56.9058 22.7846 56.695C20.2101 54.5482 17.6495 52.3873 15.2087 50.106C14.3026 49.2591 13.4062 48.3967 12.6616 47.4119C12.5537 47.2692 12.451 47.1191 12.3736 46.9603C11.8824 45.9522 12.3029 45.319 13.4841 45.2792C13.562 45.2758 13.64 45.2782 13.7179 45.2782Z" fill="#9FEE00"/>
<path d="M42 47.8374C42.0303 45.6506 42.1952 42.9753 42.7176 40.3157C43.4099 36.7904 45.4702 34.1642 48.4676 32.1074C49.873 31.1431 51.4028 30.4172 53.1263 30.1102C53.8945 29.9736 54.6657 29.9368 55.4294 30.1589C56.7513 30.5438 57.3132 31.5959 56.8272 32.8237C56.4241 33.8423 55.6463 34.6279 54.9358 35.4522C54.3572 36.1227 53.758 36.7775 53.2391 37.4929C52.701 38.235 52.2666 39.0177 52.0598 39.9065C51.7467 41.2499 50.9684 42.2886 49.6232 42.8406C48.3048 43.3822 47.658 44.333 47.3161 45.5995C46.5454 48.4525 45.9911 51.3442 45.4642 54.2425C45.3762 54.7277 45.2836 55.2124 45.2184 55.7005C45.186 55.9417 45.0722 56.0019 44.8305 55.9961C44.1817 55.9808 43.5308 55.966 42.8835 55.9985C42.5371 56.0162 42.4516 55.8762 42.4278 55.6017C42.3474 54.6862 42.2341 53.7726 42.1775 52.8557C42.084 51.3528 41.9995 49.8489 42 47.8374Z" fill="#679B00"/>
<path d="M36 34.3486C36.1904 34.5149 38.3408 34.2883 39.2262 34.2261C40.1502 34.1609 41.0805 34.1353 42 34C41.9068 35.2743 41.8131 36.549 41.7208 37.8233C41.6256 39.1395 41.5329 40.4557 41.5105 41.7769C41.4968 42.5959 41.7364 43.3799 41.7618 44.1931C41.8301 46.3703 41.6886 48.5357 41.4607 50.6977C41.3098 52.1324 41.1463 53.5656 40.9887 54.9998C40.8613 55.0048 40.7656 54.8897 40.6417 54.8967C40.0169 54.9327 39.4366 54.7693 38.8797 54.5007C38.7201 54.4237 38.5639 54.5032 38.4058 54.5032C38.437 53.3459 38.312 52.1966 38.23 51.0457C38.0885 49.0581 37.9802 47.0615 37.5872 45.1055C36.9044 41.7073 36.4939 38.2711 36.0903 34.8324C36.0722 34.67 36.0307 34.51 36 34.3486Z" fill="#DBDBDB"/>
<path d="M30.0131 34.0874C30.1633 34.0055 30.3287 33.9767 30.4892 34.0201C31.8618 34.3928 33.282 34.3518 34.681 34.4855C35.0723 34.523 35.0134 34.4928 34.9653 35.1761C34.8823 36.3429 34.7822 37.5091 34.7355 38.6773C34.681 40.0348 34.655 41.3893 34.843 42.7487C35.0885 44.5242 34.8966 46.3065 34.7463 48.0825C34.5505 50.3999 34.2049 52.6992 33.8716 55C33.4641 54.7693 33.0243 54.6771 32.5569 54.6766C32.3944 54.6761 32.2398 54.5947 32.1048 54.501C31.8181 54.302 31.5118 54.2488 31.1775 54.3483C31.0842 53.007 30.9909 51.6651 30.8982 50.3238C30.742 48.0737 30.5742 45.8241 30.4323 43.5731C30.2433 40.5757 30.0754 37.5769 30.0008 34.5742C29.9969 34.4118 30.0086 34.2494 30.0131 34.0874Z" fill="#DBDBDB"/>
<path d="M41.7891 26.7778C42.1406 29.2049 41.9856 31.6325 41.8065 34.0611C41.7922 34.2552 41.7034 34.3628 41.554 34.4533C41.3739 34.6514 41.1307 34.6635 40.8854 34.6756C39.1314 34.7626 34.8753 35.0829 34.7706 34.9798C34.7706 34.9798 32.5824 34.9114 31.2713 34.8144C30.5421 34.7606 29.8057 34.6303 29.0873 34.4533C28.9595 32.781 28.9955 31.1071 29.0478 29.4337C29.0699 28.7227 29.1355 28.0132 29.1817 27.3033C29.3347 27.1338 29.5445 27.1605 29.7406 27.1554C30.1259 27.1464 30.5124 27.1424 30.8977 27.1549C31.2246 27.1655 31.3601 27.0378 31.355 26.7135C31.3452 26.0698 31.3493 25.4252 31.3539 24.7816C31.3555 24.573 31.3391 24.3598 31.4484 24.1657C31.5767 23.9957 31.7604 23.9977 31.9513 24.0008C33.5523 24.0264 35.1524 24.0862 36.7534 24.1199C36.9669 24.1244 37.184 24.1043 37.3867 24.1953C37.613 24.3522 37.6186 24.5966 37.6458 24.8314C37.7146 25.4283 37.7715 26.0261 37.8418 26.6229C37.8803 26.9503 38.0158 27.0624 38.3745 27.0307C39.3403 26.9448 40.3045 26.8608 41.2549 26.6597C41.4417 26.6199 41.7891 26.3781 41.7891 26.7778Z" fill="#061F70"/>
<path d="M47.7499 56.9671C46.9129 56.9671 46.9003 56.9636 47.121 56.2064C47.8894 53.5701 48.7671 50.979 50.0686 48.5422C50.9151 46.9574 52.1878 45.8541 53.7301 45.0034C54.8522 44.3844 56.0201 43.9378 57.3302 44.0071C58.2114 44.0538 58.9602 44.395 59.5471 45.0597C60.1246 45.7139 60.1508 46.6449 59.6202 47.5634C58.9627 48.7009 57.9766 49.4988 56.8757 50.1721C55.8594 50.7941 54.7262 51.2006 53.7437 51.8914C51.8759 53.2053 50.1255 54.6479 48.7243 56.4612C48.426 56.8465 48.162 57.0922 47.7499 56.9671Z" fill="#9FEE00"/>
<path d="M38.1808 14.1054C37.8425 14.2786 37.4772 14.1661 37.1254 14.1837C36.7515 14.2023 36.375 14.1822 36 14.1792C36.1056 13.8714 36.0927 13.5626 36.069 13.2407C36.0081 12.4102 36.0426 11.5767 36.0501 10.7442C36.0512 10.6327 36.0727 10.5232 36.1363 10.4248C36.2047 10.339 36.3082 10.2943 36.4116 10.3078C36.9228 10.3741 37.3818 10.1773 37.864 10.0879C38.434 9.98246 39.0304 9.88957 39.5228 10.3269C41.6427 11.5345 43.3052 13.2016 44.8665 14.9675C45.8507 16.0812 46.7509 17.2522 47.5143 18.5085C48.0029 19.3119 48.2443 20.1399 47.649 21C47.35 20.9463 47.4427 20.6962 47.3953 20.5305C47.1157 19.5599 46.2413 19.0854 45.0507 19.3144C44.45 19.4299 43.8186 19.6583 43.2519 19.8788C43.0428 19.9601 42.8451 20.1896 42.6113 20.1123C42.0947 19.7301 41.466 18.3061 41.0819 17.8286C41.0328 17.7673 41.0188 17.691 40.9122 17.7392C39.9699 16.2625 38.8682 14.8761 38.0838 13.4059C38.1145 13.5847 38.3354 13.8182 38.1808 14.1054Z" fill="#FFD900"/>
<path d="M38.0614 23.4241C38.1889 23.3957 38.3154 23.3537 38.4443 23.3414C39.0185 23.2872 39.019 23.2901 39.019 22.7158C39.019 22.5129 39.0205 22.3104 39.019 22.1074C39.0181 21.9763 39.0907 21.989 39.1748 22.0223C39.2648 21.9929 39.3297 22.0521 39.3903 22.0976C40.0767 22.6112 40.8592 22.7525 41.6884 22.7237C41.8996 22.7163 42.1155 22.7021 42.3041 22.8352C42.5431 23.8232 42.8336 24.7971 42.988 25.8072C43.0462 26.1887 42.8894 26.3139 42.5859 26.4068C42.4575 26.4465 42.0785 26.5326 41.991 26.5551C40.9621 26.8167 39.9059 26.8759 38.8574 26.9928C38.5563 27.0261 38.4313 26.9503 38.4034 26.6245C38.3327 25.7989 38.2269 24.9756 38.135 24.1519C37.9686 23.924 37.971 23.6785 38.0614 23.4241Z" fill="#FFD900"/>
<path d="M32 23.9005C32.0005 23.6039 32.001 23.3067 32.0016 23.0101C33.8246 23.0089 35.647 23.0071 37.47 23.0095C37.6231 23.0095 37.7924 22.9535 37.9201 23.1132C38.0125 23.4008 37.9824 23.7034 38 24C36.2533 23.9655 34.5061 23.9256 32.7594 23.9029C32.5066 23.8999 32.3016 23.9005 32 23.9005Z" fill="#031135"/>
<path d="M41.9999 19.7376C41.4243 20.1064 39.6498 20.0902 39.0061 19.6652C39.0067 18.2476 39.0061 16.8296 39.0107 15.412C39.0113 15.274 38.9598 15.1273 39.0776 15C39.3165 15.0869 39.3314 15.2852 39.4057 15.4491C39.7013 16.1045 40.0088 16.7552 40.3998 17.3781C40.6834 17.83 41.0001 18.2592 41.4694 18.6043C41.5849 18.6898 42.0062 19.5909 41.9999 19.7376Z" fill="#FFD900"/>
<path d="M38.9586 23.3709C38.9305 23.8402 38.8316 23.9462 38.3454 23.9854C38.1326 24.0027 32.1786 24.0062 31.9944 23.9874C31.397 24.0235 29.89 23.9705 29.7589 23.8739C28.0127 23.8724 26.2659 23.8709 24.5196 23.8679C24.34 23.8674 24.1406 23.9105 24.0334 23.7029C23.9753 22.7664 24.0089 21.8288 24.0171 20.8923C24.0197 20.591 24.2487 20.3348 24.2936 20.033C24.3339 19.7605 24.4018 19.4835 24.1089 19.2873C24.0013 19.2149 24.0069 19.101 24.0069 18.9885C24.0084 17.4573 24.0069 15.9261 24.0079 14.3949C24.0079 14.3384 24.0156 14.2859 24.0584 14.2438C24.1941 14.1075 24.3701 14.1397 24.5364 14.1392C25.4522 14.1378 31.7047 13.9945 32.3725 14.0238C33.7172 13.9871 35.062 14.0094 36.4063 14.0099C37.094 14.0263 37.7817 14.0079 38.4693 14C38.7943 14.0317 38.9458 14.2245 38.955 14.5233C38.9642 14.8255 39.0127 15.1263 38.9969 15.4296C38.9356 15.6615 38.9698 15.8954 38.9719 16.1298C38.9821 17.4003 38.9805 18.6708 38.9734 19.9414L38.9586 23.3709Z" fill="#679B00"/>
<path d="M42 22.9756C41.387 23.0151 40.775 23.0258 40.1729 22.856C39.7381 22.7333 39.3146 22.4722 39 22.1153C39.0258 22.0844 38.9955 21.1055 39.0213 21.0746C39.5137 20.8693 39.6619 21.1557 40.4649 21.1313C40.5778 21.1278 41.6078 21.395 41.7207 21.3808C41.7706 21.6281 41.9506 22.7287 42 22.9756Z" fill="#061F70"/>
<path d="M44.7972 19.2498C45.6858 19.0974 46.5589 18.719 47.1753 19.3625C47.6703 19.8796 47.8824 20.2426 48 20.9332C47.804 21.4703 46.7634 21.3846 46.2657 21.5339C44.8155 21.9683 43.8071 22.1049 42.2575 21.9191C41.4156 21.8662 40.1012 21.8879 39.5626 21.5471C39.4966 21.5053 39.3065 21.5735 38.8485 21.627C38.5162 21.6339 37.8906 21.3402 37.5491 21.2296C37.4423 21.1952 37.0262 21.1518 37.0868 21.0163C37.1427 20.8919 38.0871 21.2904 38.1628 21.0512C38.1913 20.9613 37.0471 20.6575 37.0203 20.5929C36.9349 20.4262 37.082 20.5231 38.1935 20.6279C38.2595 20.6342 37.0251 20.4146 37.0213 20.3341C37.0138 20.1759 37.0262 20.1849 38.2869 20.3543C38.3433 20.3617 37.0868 20.2198 37.0664 20.0563C37.0278 20.0113 37.228 19.9664 37.3252 19.9727C37.8847 20.0103 38.4635 19.9854 38.9183 20.4024C38.979 20.395 39.0526 20.3924 39.0891 20.4342C39.4665 20.866 41.1761 20.8475 41.5837 20.5522C41.6744 20.504 44.3505 19.3265 44.7972 19.2498Z" fill="#E9938C"/>
<path d="M37.8896 54.0839C38.0638 53.7538 40.5105 54.4971 40.5848 54.5964C40.8802 55.031 40.8756 55.5368 40.7753 55.9958C40.5757 56.9128 40.7132 57.7885 40.8914 58.682C41.115 59.8038 41.0814 59.8216 39.9273 59.9051C38.0557 60.0407 36.1814 59.9902 34.3077 59.9933C34.0475 59.9938 34.0027 59.8868 34.0001 59.6683C33.9945 59.2184 34.185 58.8909 34.6347 58.7116C35.2398 58.4696 35.857 58.2577 36.4672 58.0284C36.6923 57.9439 36.9118 57.843 37.1359 57.7559C37.6187 57.5684 37.8209 57.2271 37.8117 56.7024C37.8 56.034 37.7618 55.3692 37.7104 54.7039C37.693 54.4772 37.6691 54.2434 37.8896 54.0839Z" fill="#593718"/>
<path d="M30.8927 54.0904C31.1241 53.7402 33.5048 54.5022 33.6953 54.7719C33.9471 55.43 33.8051 56.0921 33.6974 56.7477C33.6361 57.1218 33.6545 57.471 33.7546 57.837C33.8935 58.3432 33.9589 58.8662 33.9972 59.3922C34.0181 59.6803 33.9242 59.8143 33.6335 59.8352C33.1371 59.8709 32.6426 59.954 32.1461 59.9616C30.5515 59.9861 28.9569 59.9774 27.3622 59.9999C27.0762 60.0039 26.9919 59.9127 27.0006 59.6415C27.0159 59.1654 27.1988 58.8835 27.706 58.6868C28.4476 58.3987 29.1908 58.1138 29.9427 57.8528C30.5781 57.6321 30.8743 57.2375 30.8263 56.5433C30.7839 55.9346 30.7814 55.3229 30.7185 54.7148C30.6945 54.4854 30.6889 54.2586 30.8927 54.0904Z" fill="#593718"/>
<path d="M14.3252 6.96352C14.0588 6.59211 13.5944 6.54526 13.2011 6.4906C12.2972 6.36419 11.3753 6.35834 10.4603 6.39689C9.97789 6.41739 9.49809 6.49938 9.01724 6.55356C8.96257 6.41934 9.04962 6.31832 9.11543 6.21534C9.75179 5.21776 10.2289 4.15917 10.5867 3.0508C10.7639 2.50174 10.851 1.94194 10.9295 1.37824C10.9481 1.24647 10.93 1.10396 11.0526 1C11.6895 1.53735 12.2755 2.12692 12.9623 2.61399C13.6358 3.09131 14.3507 3.51152 15.1229 3.84535C15.2243 3.88928 15.3161 3.90343 15.4159 3.85658C15.9488 4.08938 16.0677 4.25922 15.9679 4.78144C15.858 5.35734 15.6977 5.92251 15.3979 6.44667C15.0757 7.00647 14.9855 7.05479 14.3252 6.96352Z" fill="#EEE6CF"/>
<path d="M40 9.88604C39.3175 9.64072 38.629 9.62393 37.9545 9.89246C37.5333 10.0603 37.1121 9.98673 36.6866 9.9665C36.2541 9.78831 35.9509 9.50152 35.8328 9.07307C35.7754 8.86378 35.6477 8.70237 35.491 8.55281C35.6649 8.23 35.6391 7.89928 35.5688 7.55524C35.4309 6.88048 35.2893 6.20671 35.131 5.5359C35.0784 5.31279 34.9958 5.10696 34.7688 4.99244C34.3975 4.80586 34.0782 4.56202 33.7847 4.2856C33.5706 4.08372 33.3742 4.02053 33.1917 4.32805C33.0994 4.48403 32.9535 4.60891 32.8215 4.74021C32.704 4.8567 32.616 4.98109 32.6954 5.14645C32.749 5.258 32.6965 5.35179 32.6675 5.45989C32.3724 6.55914 32.7941 7.37606 33.936 7.38198C34.3846 7.38396 34.5236 7.59571 34.2928 8.0602C34.0921 8.0602 32.5355 8.77543 32.2709 8.963C31.8122 8.00343 32.0365 7.03004 32.2151 6.0611C32.2414 5.91943 32.2715 5.79603 32.1856 5.66967C32.1599 5.29946 32.081 4.93617 32.0252 4.56942C31.9238 3.90404 32.1958 3.4751 32.8725 3.25397C33.2239 3.13896 33.5888 3.0353 33.9553 3.00815C34.6915 2.95385 35.3456 3.16907 35.8253 3.7066C36.5261 4.49143 36.9028 5.44063 37.3594 6.34837C37.405 6.43969 37.383 6.53742 37.3857 6.63269C37.5134 7.08681 37.8563 7.40765 38.181 7.74478C38.8351 8.42349 39.56 9.05283 40 9.88604Z" fill="#DD8E1B"/>
<path d="M15.7704 4C16.731 4.20241 17.6648 4.48568 18.5786 4.81325C19.028 4.97446 19.0612 5.36949 18.9388 5.73414C18.6901 6.47374 18.4024 7.20304 18.1308 7.93646C17.9804 8.3418 17.6482 8.50867 17.2051 8.42832C16.8654 8.36703 16.7591 8.48807 16.675 8.75177C16.4989 9.30235 16.297 9.84623 16.0906 10.3886C15.9705 10.7053 15.8367 11.0154 15.353 10.9994C14.7657 10.9798 14.1613 10.6976 14.0475 10.3499C14.0126 10.2433 13.9726 10.0955 14.0258 10.0152C14.2505 9.67678 14.501 9.37136 14.553 8.94336C14.573 8.77752 14.8252 8.62146 14.6983 8.38094C14.6708 8.32944 14.6908 8.21973 14.736 8.18059C15.1466 7.82006 14.7577 7.74692 14.4981 7.62589C14.4735 7.56717 14.4873 7.5131 14.5324 7.4688C15.5079 6.51237 15.9071 5.39319 15.7058 4.10352C15.6978 4.0582 15.7304 4.02524 15.7704 4Z" fill="#C6A6EE"/>
<path d="M9.87995 25.9998C9.44547 26.0067 9.22266 25.8504 9.08953 25.5887C8.93858 25.2922 8.93022 25.0013 9.21486 24.7609C9.43154 24.5777 9.69 24.4296 9.9195 24.2561C10.3852 23.9035 10.3556 23.5954 9.80029 23.3499C9.0121 23.0015 8.31527 22.5987 8.07742 21.822C7.87967 21.1766 8.05068 20.7586 8.70686 20.379C9.03996 20.186 9.39812 20.0301 9.81255 20.0018C10.2164 19.9744 10.701 20.2616 10.7645 20.5563C10.8313 20.8653 10.5896 21.1121 10.1067 21.2291C9.74682 21.3163 9.69892 21.4597 9.99581 21.6634C10.1835 21.7923 10.4158 21.8796 10.6353 21.9733C11.6284 22.3978 12.0863 23.0507 11.9866 23.9114C11.8847 24.7943 11.053 25.7321 10.1679 25.9557C10.051 25.9854 9.92562 25.9933 9.87995 25.9998Z" fill="#FFD900"/>
<path d="M1.43736 23C1.71568 23.0709 2.02561 23.1319 2.11854 23.4832C2.20581 23.8117 2.06052 24.0434 1.76427 24.1914C1.66332 24.2419 1.50624 24.2708 1.52416 24.4112C1.54162 24.5445 1.6704 24.632 1.79777 24.6731C1.99684 24.7374 2.2011 24.7899 2.40583 24.8329C3.48704 25.0598 4.10878 25.9302 3.98424 27.0331C3.90924 27.6983 3.68328 28.2845 3.16532 28.7327C2.79925 29.0495 2.42092 29.0868 2.13553 28.8334C1.79116 28.5285 1.74069 28.1441 2.0025 27.7338C2.12986 27.5343 2.29073 27.3556 2.40866 27.1513C2.63981 26.7528 2.54074 26.5084 2.10722 26.3741C1.869 26.3004 1.62228 26.2531 1.38594 26.1746C0.746277 25.9614 0.31134 25.5227 0.0745303 24.8981C-0.133032 24.3521 0.121704 23.9266 0.484466 23.5465C0.74156 23.278 1.02224 23.043 1.43736 23Z" fill="#FFD900"/>
<path d="M13.9587 21.2991C13.9587 22.0701 13.9591 22.8412 13.9582 23.6122C13.9577 23.9272 13.8259 24.0316 13.501 23.992C12.5819 23.8792 12.5634 23.8966 12.4107 22.9762C12.1899 21.6468 11.9628 20.3149 12.0051 18.9583C12.0265 18.2729 12.1325 18.1675 12.7949 18.0365C13.4685 17.9029 13.8064 18.1295 13.8658 18.8243C13.9358 19.6468 13.9577 20.4732 14 21.2981C13.9859 21.2986 13.9723 21.2991 13.9587 21.2991Z" fill="#FFD900"/>
<path d="M29.6247 23.0114C30.4165 23.0078 31.2082 23.0036 32 23C32 23.3603 31.9984 23.5306 31.9984 23.7739C31.9946 24.7082 31.973 25.6431 31.9962 26.5769C32.0049 26.9325 31.8768 27.0112 31.5347 26.9988C30.8753 26.975 30.2143 26.9926 29.5544 26.9931C28.9378 26.9439 28.9491 26.946 29.0561 26.3585C29.2588 25.2455 29.5004 24.1373 29.6247 23.0114Z" fill="#FFD900"/>
<path d="M37.4956 7C37.0706 6.29719 36.7731 5.53952 36.2976 4.85761C35.8696 4.2432 35.2878 3.86349 34.4594 3.9005C34.0878 3.91705 33.7124 4.02199 33.3575 4.13434C32.8212 4.30416 32.6496 4.62421 32.6987 5.13412C32.731 5.47115 32.7952 5.94274 32.7952 6.35293C32.4438 6.0037 32.1511 5.39931 32.0408 4.94209C31.9296 4.48139 32.0511 4.05596 32.3394 3.66536C32.8854 3.01133 33.6785 2.95428 34.4815 3.02178C35.7128 3.12541 36.6941 3.66624 37.4696 4.51361C37.7887 4.8624 37.9568 5.26258 37.9956 5.70804C38.0215 6.19748 37.9431 6.65513 37.4956 7Z" fill="#6D470F"/>
<path d="M7.57087 6.94277C7.09938 7.06081 7.03311 7.02079 7.00812 6.58764C6.9462 5.52679 7.24821 4.52167 7.58119 3.52668C7.91851 2.51852 8.30581 1.52556 8.91255 0.62379C9.03206 0.446475 9.17492 0.278786 9.32973 0.126802C9.51387 -0.0540587 9.69855 -0.0484859 9.83707 0.189116C10.0467 0.558437 10.0098 0.957141 9.96635 1.34673C9.91583 1.79457 9.76537 2.22823 9.69312 2.67405C9.66922 2.82198 9.58883 2.93749 9.4237 2.98258C9.24499 3.02767 9.06411 2.97903 8.88377 2.98917C8.52417 3.00943 8.24008 3.1452 8.10591 3.4745C7.96142 3.82964 8.06735 4.18883 8.3699 4.42643C8.50787 4.53484 8.67898 4.60475 8.78979 4.74458C8.91853 5.02676 8.66703 5.22232 8.59696 5.4584C8.45845 5.92752 8.12221 6.30647 7.89026 6.73354C7.82617 6.85412 7.71807 6.92758 7.57087 6.94277Z" fill="#5C4881"/>
<path d="M9.63198 2.4027C9.77128 2.4 9.87151 2.37704 9.89207 2.22131C9.9887 1.48177 10.2586 0.75799 10.1445 0C10.4292 0.248912 10.7145 0.497824 10.9992 0.746736C11.0198 1.89632 10.6158 2.96264 10.1347 4.00825C9.83553 4.65776 9.49834 5.29467 9.02853 5.86812C8.68569 5.91223 8.34284 5.95634 8 6C8.4991 5.4081 8.85942 4.75499 9.11591 4.05641C9.10975 3.7841 9.26806 3.55274 9.36624 3.30698C9.48395 3.01215 9.55025 2.70608 9.63198 2.4027Z" fill="#C6A6EE"/>
<path d="M13.9559 25.9999C13.4167 25.9954 13.0027 25.7792 13 25.501C12.9973 25.2147 13.4354 24.9983 14.0135 25C14.5796 25.0018 15.0156 25.2295 14.9996 25.515C14.9835 25.8017 14.5467 26.0048 13.9559 25.9999Z" fill="#FFD900"/>
<path d="M37.9777 5C37.4814 3.19409 35.3448 2.15119 33.8009 2.1825C33.1186 2.19605 32.5 2.36472 32 2.80814C32.2689 2.24371 32.8398 2.11755 33.4232 2.02877C33.9952 1.94187 34.5599 2.07597 35.1277 2.11381C35.7841 2.26427 36.383 2.52452 36.9286 2.88617C37.1498 3.03289 37.3472 3.19596 37.455 3.43098C37.7425 3.92253 38.0922 4.39865 37.9777 5Z" fill="#59390E"/>
<path d="M37.9931 4C37.2565 3.30204 36.4042 2.7924 35.4301 2.47637C35.3767 2.45931 35.0438 2.36279 35 2.31689C35.3695 2.17506 36.0905 1.86316 36.421 2.06737C36.851 2.33337 37.4311 2.28099 37.7496 2.67529C38.0531 3.05075 37.9979 3.54156 37.9931 4Z" fill="#6D470F"/>
<path d="M15.8708 4.10255C16.2917 5.23336 15.6412 7.13759 14.5406 7.99732C14.2434 8.02332 14.0987 7.85735 14.0013 7.63163C13.9875 7.44906 14.085 7.4048 14.2363 7.49719C14.5382 7.68087 14.7235 7.55473 14.8772 7.31518C15.3477 6.58159 15.6263 5.78715 15.7393 4.94236C15.7788 4.64638 15.7429 4.38802 15.3549 4.31167C15.2401 4.28899 15.1899 4.21984 15.2287 4.10919C15.4416 4.00905 15.655 3.92718 15.8708 4.10255Z" fill="#48423F"/>
<path d="M8 38.056C8.17728 37.9455 8.30796 38.0248 8.43509 38.0705C11.3389 39.1186 14.0969 40.4132 16.515 42.3024C17.9008 43.3851 18.8282 44.7734 19.6295 46.2651C21.2589 49.2995 22.6225 52.4419 23.8938 55.6223C23.9414 55.741 24.106 55.9332 23.8953 55.9933C23.718 56.0438 23.7023 55.7963 23.6547 55.6742C22.8149 53.5121 21.8911 51.3822 20.8872 49.2846C20.0696 47.5771 19.2714 45.8514 18.1429 44.3049C16.9019 42.6037 15.119 41.4767 13.2672 40.4522C11.7153 39.5934 10.0782 38.9043 8.40065 38.2987C8.2953 38.2608 8.19146 38.218 8.09117 38.1695C8.05977 38.1541 8.04305 38.1113 8 38.056Z" fill="#414340"/>
<path d="M43 51.4973C43.0811 50.7891 43.1193 50.0926 43.2677 49.406C43.7678 47.0925 44.2766 44.7794 44.6039 42.4353C44.689 41.8256 44.7374 41.2159 44.9261 40.619C45.1611 39.8743 45.6327 39.2956 46.2388 38.8353C47.0836 38.194 47.7922 37.434 48.4489 36.6287C49.4996 35.3398 50.7996 34.3353 52.2046 33.4466C52.9994 32.9439 53.8019 32.45 54.69 32.1065C54.7879 32.0686 54.8949 31.9227 54.9785 32.0533C55.0601 32.1809 54.8893 32.2268 54.7986 32.2775C54.0874 32.6758 53.3573 33.0395 52.6543 33.4555C51.0188 34.424 49.5592 35.5764 48.4081 37.0663C47.8162 37.8323 47.1137 38.4898 46.3444 39.0728C45.5169 39.6998 45.0928 40.5234 44.9689 41.4924C44.7583 43.1342 44.4917 44.7641 44.1537 46.3867C43.8381 47.8998 43.4476 49.4021 43.2804 50.9394C43.1897 51.7714 43.3497 52.6068 43.4665 53.4333C43.5776 54.2185 43.7326 54.9977 43.8682 55.7794C43.881 55.8539 43.9559 55.951 43.8381 55.9899C43.6939 56.0372 43.6821 55.9076 43.6582 55.8199C43.4813 55.1707 43.414 54.5024 43.2809 53.8459C43.1229 53.0637 43.1096 52.2687 43 51.4973Z" fill="#434543"/>
<path d="M29.7757 20.9542C28.881 21.8835 28.4939 20.8983 28.2782 20.6716C28.1858 21.1153 28.448 21.9491 28.3628 22.3392C28.2448 22.8812 27.7371 23.1354 27.196 22.928C27.0121 22.8576 26.9907 22.7043 27.0027 22.5572C27.0748 21.6737 27.1223 20.7869 27.3386 19.9193C27.4942 19.2948 28.1095 19.0349 28.7352 19.3127C28.9891 19.4255 28.9541 19.6358 28.986 19.8296C29.0048 19.9434 28.9833 20.1055 29.1442 20.1199C29.2999 20.1339 29.3234 19.9685 29.3829 19.8653C29.4028 19.8306 29.408 19.7886 29.421 19.7501C29.6535 19.0682 30.0076 18.8883 30.7514 19.0619C30.9457 19.1072 31 19.2186 31 19.386C31.0005 20.3992 30.8668 21.3964 30.5675 22.371C30.4573 22.7308 29.9569 22.9729 29.5694 22.8981C29.3657 22.8591 29.3302 22.7298 29.3307 22.5687C29.3328 22.1559 29.7757 21.4152 29.7757 20.9542Z" fill="#FBF7EA"/>
<path d="M28.9956 17.5686C28.9956 17.8288 29.0068 18.09 28.9934 18.3492C28.9684 18.8229 28.7882 18.9953 28.3636 19C27.9943 19.0041 27.9113 18.7268 27.8845 18.3778C27.8671 18.1482 27.8466 17.9181 27.8136 17.6912C27.781 17.4679 27.6338 17.4216 27.4746 17.4642C27.3055 17.5094 27.3377 17.6751 27.3595 17.8189C27.3702 17.8896 27.4041 17.9576 27.4073 18.0277C27.4188 18.2936 27.5406 18.6078 27.3145 18.801C27.0745 19.0062 26.7792 18.9953 26.4946 18.8919C26.3519 18.84 26.2627 18.7335 26.2381 18.5564C26.1128 17.6579 25.9647 16.7615 26.0075 15.8438C26.0289 15.3868 26.405 14.9781 26.7917 15.0009C27.033 15.0149 27.087 15.2383 27.1129 15.4569C27.1534 15.8002 27.1673 16.1471 27.2047 16.4909C27.2279 16.7028 27.2957 16.907 27.5214 16.8857C27.7619 16.8633 27.8109 16.6592 27.7926 16.4136C27.7712 16.1258 27.7445 15.8381 27.74 15.5499C27.7351 15.2216 27.8604 15.0622 28.1709 15.0627C28.7829 15.0638 28.7838 15.0451 28.8716 15.755C28.947 16.3575 29.0055 16.9599 28.9956 17.5686Z" fill="#FBF6EA"/>
<path d="M40.5107 19.1993C40.1237 18.6292 39.7128 18.01 39.3883 17.2965C39.0819 16.6224 38.8325 15.9259 38.5982 15.2232C38.5835 14.9951 38.5485 14.766 38.5596 14.5393C38.5729 14.2657 38.5094 14.061 38.2365 13.9659C38.1597 13.6525 38.0828 13.3387 38 13C38.1321 13.0183 38.1436 13.1134 38.1795 13.1808C38.8329 14.4044 39.5669 15.5769 40.3289 16.732C40.4509 16.9166 40.6713 17.1073 40.7229 17.3232C40.998 17.9064 41.0408 19.3511 40.9695 19.9929C40.9152 20.0814 40.5899 19.3206 40.5107 19.1993Z" fill="#061F70"/>
<path d="M32.0372 17.7267C32.0737 16.9758 32.1169 16.2866 32.2843 15.6167C32.39 15.1932 32.969 14.8828 33.3394 15.0427C33.5605 15.1387 33.4878 15.346 33.4678 15.518C33.3876 16.2022 33.2482 16.876 33.1976 17.5663C33.1735 17.8932 33.2472 18.0261 33.5585 17.9699C33.7174 17.9407 33.9204 17.8993 33.9775 18.1436C34.0277 18.3564 33.9986 18.5698 33.8427 18.7418C33.5119 19.1068 32.4311 19.0803 32.1214 18.6911C31.8697 18.3724 32.0973 18.0046 32.0372 17.7267Z" fill="#FBF6EB"/>
<path d="M32.0316 21.1803C32.0654 20.6428 32.1207 20.1057 32.1256 19.5682C32.1286 19.2281 32.3248 19.1011 32.6679 19.0646C32.7347 19.0572 32.8009 19.0489 32.8671 19.04C33.6527 18.9355 33.7135 18.9987 33.6045 19.6821C33.5666 19.9224 33.4751 20.0357 33.1898 19.9694C32.9027 19.903 32.7799 20.0033 32.7805 20.2525C32.7811 20.4793 32.8154 20.6652 33.1639 20.6266C33.4564 20.5937 33.7309 20.5576 33.7062 20.9646C33.6858 21.3089 33.6713 21.5847 33.1416 21.5126C32.7949 21.4656 32.7648 21.6594 32.7781 21.8913C32.7913 22.1332 32.9213 22.1912 33.1741 22.127C33.2849 22.0987 33.4065 22.0972 33.5233 22.092C33.6924 22.0836 33.9338 21.9728 33.9747 22.2137C34.012 22.432 34.056 22.6917 33.7219 22.8108C33.262 22.9743 32.7817 23.0124 32.2911 22.9968C31.9913 22.9874 32.004 22.7899 32.0009 22.6212C31.9913 22.1416 32.0581 22.3161 32.0581 21.836C32.0696 21.8354 32.0208 21.1809 32.0316 21.1803Z" fill="#FCF6E9"/>
<path d="M30.9652 17.9918C30.8588 17.9918 30.7519 17.9854 30.6468 17.9928C30.1227 18.0296 29.9654 17.803 30.0061 17.4014C30.0743 16.737 30.1322 16.072 30.1762 15.4065C30.1933 15.1489 30.3073 15.0358 30.6277 15.0422C30.9442 15.0486 31.262 15.0049 31.5797 15.0001C31.8937 14.9953 32.0064 15.1382 31.9924 15.399C31.9765 15.6912 31.7574 15.6859 31.5154 15.6699C31.4097 15.663 31.3046 15.6486 31.2002 15.6331C31.0416 15.6091 30.9658 15.6688 30.9556 15.7963C30.9461 15.9216 30.955 16.0427 31.1524 16.0555C31.276 16.0635 31.4002 16.0576 31.5243 16.0624C31.8116 16.0736 32.0128 16.161 31.9548 16.4415C31.8994 16.7087 31.8033 16.9465 31.3753 16.8388C31.3244 16.826 31.2722 16.817 31.2218 16.8036C31.0544 16.7594 30.9066 16.7327 30.89 16.9465C30.876 17.1252 30.9321 17.2196 31.1747 17.226C31.5371 17.2356 32.0567 17.1103 31.995 17.6467C31.937 18.148 31.4129 17.9363 31.0715 17.9971C31.0378 18.003 31.0009 17.9982 30.9652 17.9982C30.9652 17.996 30.9652 17.9939 30.9652 17.9918Z" fill="#FBF5E6"/>
<path d="M34.0496 20.7004C33.9654 20.2661 34.006 19.834 34.0429 19.4014C34.0728 19.0521 34.3115 18.9845 34.5965 19.0027C34.8744 19.0205 35.0129 19.1598 34.9991 19.4633C34.9652 20.2069 34.918 20.9483 34.8076 21.6843C34.7853 21.8338 34.8138 22.0523 34.5546 21.9887C34.3466 21.9375 34.0447 21.9931 34.0487 21.6291C34.0523 21.3198 34.0496 21.0101 34.0496 20.7004Z" fill="#FBF7EA"/>
<path d="M36.1817 15C36.4758 15.0154 36.8418 15.0537 36.9572 15.2915C37.0765 15.5375 36.9493 15.7769 36.5391 15.8705C36.1685 15.9554 36.096 16.0873 36.1078 16.2911C36.1158 16.4329 36.0927 16.5775 36.0557 16.7181C36.0135 16.8792 35.9146 17.023 35.5671 16.9969C35.2499 16.9732 34.9987 16.9073 35 16.6758C35.002 16.2686 35.0765 15.8662 35.1675 15.4625C35.246 15.1094 35.6034 15.0087 36.1817 15Z" fill="#FAF5E8"/>
<path d="M34.5019 22C34.7919 22.0378 34.9911 22.1791 34.9997 22.4945C35.0084 22.8143 34.808 22.9922 34.5248 22.9997C34.2174 23.0079 33.9904 22.8238 34.0003 22.4869C34.009 22.1861 34.2075 22.0246 34.5019 22Z" fill="#F8F3E0"/>
<path d="M59 46.0841C58.9906 46.1991 58.9037 46.2317 58.822 46.2535C58.5842 46.3159 58.3418 46.4248 58.1046 46.4167C57.0688 46.3831 56.2346 46.8682 55.3596 47.2459C54.9626 47.4172 54.5605 47.5771 54.1379 47.6751C53.1021 47.9145 52.3863 48.5085 51.9103 49.3343C51.363 50.2836 50.6483 51.0976 49.7821 51.8249C48.5573 52.8533 47.9703 54.2285 47.3833 55.5976C47.3173 55.7519 47.3262 56.0623 47.0832 55.989C46.8842 55.9289 47.0974 55.688 47.1529 55.5422C47.7912 53.8627 48.6563 52.3114 50.1937 51.1335C50.7587 50.7005 51.1305 50.126 51.4746 49.5415C52.0951 48.4867 52.9241 47.6779 54.2808 47.3897C54.992 47.2388 55.624 46.88 56.277 46.5862C56.7514 46.3727 57.24 46.2109 57.783 46.2232C58.1082 46.2303 58.4187 46.1574 58.7172 46.0419C58.8272 45.9998 58.9366 45.9582 59 46.0841Z" fill="#464141"/>
<path d="M35.7544 8.86033C35.614 8.89537 35.3808 8.93506 35.2453 8.98453C34.9539 9.0907 34.6602 8.61655 34.6166 8.58821C34.6771 8.47483 34.6491 7.6796 34.1312 7.6528C33.4392 7.72805 33.0719 7.16629 33.0806 6.45661C33.085 6.11389 32.979 5.67479 33.0095 5.47688C32.9064 4.68217 33.6768 4.63682 33.7155 4.10856C33.7267 3.95652 33.8859 3.98075 34.002 4.0797C34.4289 4.44252 34.8296 4.83421 35.2903 5.15993C35.645 5.4104 35.5637 5.94124 35.6595 6.34787C35.7955 6.92664 35.8623 7.52344 35.9692 8.10994C36.0229 8.4068 36.036 8.6784 35.7544 8.86033Z" fill="#E9938C"/>
<path d="M7.9975 23.7956C8.00561 23.1813 7.89636 22.613 7.61619 22.0873C7.27221 21.4416 6.75948 20.965 5.93468 21.002C5.08878 21.04 4.50736 21.4872 4.18988 22.217C3.69229 23.3615 4.21097 24.9548 5.29863 25.6613C6.33221 26.3329 7.44691 25.9763 7.83362 24.852C7.95477 24.499 8.01318 24.1389 7.9975 23.7956ZM6.11424 24.2701C5.76431 24.261 5.4398 23.867 5.43385 23.4446C5.42844 23.0633 5.67669 22.772 6.01418 22.7644C6.37169 22.7563 6.63292 23.1129 6.63238 23.6072C6.6313 24.025 6.43335 24.2782 6.11424 24.2701Z" fill="#FFD900"/>
<path d="M8.93282 3.03215C8.9733 3.11729 9.01742 3.2035 8.99299 3.31595C8.869 3.8873 8.78549 4.4806 8.56669 5C8.29173 4.85168 8.05907 4.64231 8.01093 4.16735C7.97045 3.76896 8.03974 3.43215 8.26365 3.17941C8.46823 2.94808 8.70052 2.99199 8.93282 3.03215Z" fill="#FCF5E8"/>
<path d="M34 5.04428C34.3975 4.93428 34.6933 5.05259 35 5.14597C34.9854 5.17873 34.9707 5.21149 34.9568 5.24425C34.6384 5.17726 34.3192 5.11077 34 5.04428Z" fill="#8B6445"/>
<path d="M34 5.04428C33.6025 4.93428 33.3067 5.05259 33 5.14597C33.0146 5.17873 33.0293 5.21149 33.0432 5.24424C33.3616 5.17775 33.6808 5.11126 34 5.04428Z" fill="#8B6445"/>
<path d="M35 6.13071C34.6547 6.11543 34.3342 6.0617 34 6.12824C34.3436 5.93157 34.6837 5.98431 35 6.13071Z" fill="#744B2E"/>
<path d="M34 6.13071C33.6547 6.11543 33.3342 6.0617 33 6.12824C33.3444 5.93157 33.6846 5.98431 34 6.13071Z" fill="#744B2E"/>
<path d="M34 7.13071C33.6547 7.11543 33.3342 7.0617 33 7.12824C33.3444 6.93157 33.6846 6.98431 34 7.13071Z" fill="#744B2E"/>
<path d="M29 14C29.1808 12.9365 29.5457 11.6515 30 11C29.8374 11.9948 29.7145 13.0315 29.7269 14C29.4311 14 29.5581 14 29 14Z" fill="#061F70"/>
<path d="M37 15.3196C37 15.4145 36.264 15.4787 36.0787 15.4787C35.8934 15.4787 36.0934 15.2671 36.0934 15.1722C36.0934 15.0774 36.2432 15 36.4277 15C36.6121 15 37 15.2248 37 15.3196Z" fill="#679B00"/>
<path d="M23.5 21C23.7761 21 24 20.5523 24 20C24 19.4477 23.7761 19 23.5 19C23.2239 19 23 19.4477 23 20C23 20.5523 23.2239 21 23.5 21Z" fill="#E9938C"/>
</svg>
