<svg width="80" height="80" viewBox="0 0 80 80" fill="none" xmlns="http://www.w3.org/2000/svg">
<path d="M51.9957 52.5154C51.9995 49.4748 52.9707 46.7927 55.0208 44.526C55.3003 44.2172 55.6101 43.9362 55.9467 43.6844C56.1035 43.5671 56.1509 43.581 56.2251 43.758C56.5307 44.4898 56.8491 45.2162 57.1669 45.9431C57.2325 46.0935 57.2187 46.2007 57.1035 46.3372C55.5355 48.2076 54.6832 50.3698 54.8475 52.8055C55.0283 55.4812 56.2117 57.701 58.3744 59.3468C59.8784 60.4914 61.5856 61.1292 63.4715 61.1015C66.7883 61.053 69.3899 59.6503 71.1936 56.8194C72.0912 55.4103 72.4992 53.8706 72.4517 52.2242C72.3968 50.3234 71.8208 48.5778 70.6688 47.0434C69.1317 44.9959 67.0768 43.8588 64.5451 43.5442C62.8613 43.3351 61.2837 43.6807 59.7733 44.4055C59.3136 44.6258 59.312 44.6375 59.1392 44.1842C58.8997 43.5559 58.6773 42.9207 58.432 42.2946C58.3525 42.0924 58.4144 41.9938 58.5931 41.918C60.0235 41.3084 61.4805 40.8178 63.0624 40.7975C64.6464 40.7772 66.2133 40.8668 67.7141 41.4279C70.44 42.4471 72.5515 44.2082 73.9792 46.7463C75.1435 48.8167 75.6448 51.0663 75.4464 53.4284C75.2891 55.3058 74.6363 57.0391 73.5845 58.6167C71.7371 61.3879 69.1851 63.125 65.9243 63.7682C63.9232 64.1628 61.9429 63.9804 59.9915 63.3612C58.0133 62.734 56.3435 61.654 54.9749 60.1068C53.3653 58.2871 52.3664 56.1714 52.0043 53.7676C51.9429 53.3591 51.9957 52.9335 51.9957 52.5154Z" fill="#6C6A68"/>
<path d="M16.3819 63.8016C14.4939 63.839 12.784 63.536 11.1595 62.8166C9.6528 62.1494 8.42666 61.1056 7.34346 59.887C6.36693 58.7888 5.58506 57.5584 5.15146 56.151C4.088 52.7008 4.36746 49.3707 6.2016 46.2262C7.78613 43.5094 10.1653 41.759 13.1595 40.9414C16.3717 40.064 19.4517 40.5563 22.328 42.2635C22.6453 42.4518 22.6533 42.5755 22.3344 42.7408C22.2752 42.7718 22.2229 42.816 22.1675 42.8539C21.5445 43.2795 21.288 43.2758 20.6933 42.8326C20.2069 42.4699 19.5195 42.6603 19.304 43.2272C19.216 43.4587 19.1749 43.6987 19.3989 43.8971C19.4523 43.944 19.5499 43.9979 19.4672 44.0907C19.4133 44.151 19.3435 44.1115 19.2805 44.0875C19.0923 44.015 18.9035 43.9424 18.7147 43.872C16.7035 43.1211 14.7227 43.2955 12.7808 44.1094C10.0843 45.239 8.40426 47.3008 7.78613 50.1019C7.08053 53.2992 7.78186 56.2048 10.2005 58.5488C11.4197 59.7302 12.9227 60.3616 14.6005 60.56C16.0528 60.7312 17.4965 60.7019 18.9285 60.3414C20.8752 59.8512 22.3275 58.7174 23.3541 57.0171C23.5045 56.768 23.6677 56.6758 23.9605 56.6592C24.8757 56.6075 25.7915 56.6032 26.7072 56.5776C27.0656 56.5675 27.0859 56.6779 26.9584 56.9723C26.1925 58.7403 24.984 60.159 23.536 61.4016C22.1488 62.5926 20.5253 63.2598 18.7552 63.6022C17.936 63.7611 17.1056 63.8582 16.3819 63.8016Z" fill="#6C6A68"/>
<path d="M21.0891 48.8157C21.9189 47.9639 22.9131 47.5693 24.0304 47.365C25.3664 47.1207 26.6848 46.7789 28.0123 46.4861C29.9589 46.0573 31.9253 45.7463 33.9029 45.5005C34.7349 45.397 35.5664 45.3442 36.3947 45.5346C37.7781 45.8519 38.7451 46.6909 39.3621 47.9447C40.3781 50.0087 40.2037 51.9821 38.8651 53.8487C38.6283 54.1794 38.3269 54.4482 37.9584 54.6391C37.7691 54.7373 37.664 54.709 37.6 54.4999C37.5493 54.333 37.4917 54.1639 37.4101 54.0109C37.1573 53.5357 37.1248 53.1885 37.5136 52.6631C38.7856 50.9463 38.2229 47.8674 35.2528 47.2039C33.0507 46.7122 30.8821 48.4301 30.9413 50.6109C30.9904 52.4183 32.3029 53.7826 34.2304 53.8973C34.9328 53.9389 35.2923 54.1831 35.5035 54.8327C35.6965 55.4269 35.7152 55.3426 35.1403 55.5517C34.1296 55.9197 33.0864 55.7703 32.0635 55.8338C28.3899 56.0621 24.7109 56.197 21.0288 56.093C19.2107 56.0418 17.3909 56.0162 15.5771 55.8573C15.336 55.8359 15.0955 55.8007 14.8581 55.7533C13.5216 55.485 12.8219 54.6567 12.7104 53.2909C12.5525 51.3559 13.6347 50.1933 15.1659 49.3266C15.8539 48.9373 16.6235 48.7533 17.4176 48.6877C16.6736 49.2269 15.8912 49.6967 15.1424 50.2194C14.4571 50.6978 14.0757 51.2525 14.32 52.1287C14.4203 52.4887 14.4368 52.8743 14.5685 53.229C14.8832 54.0775 15.6069 54.2706 16.3915 54.3021C17.3397 54.3399 18.2629 54.1101 19.1941 53.9682C19.3275 53.9479 19.4603 53.9266 19.5925 53.9026C20.2128 53.7906 20.2128 53.7901 20.4539 54.3277C20.64 54.7426 21.0197 54.9042 21.5787 54.8071C22.0112 54.7319 22.3723 54.3954 22.3531 53.9522C22.3328 53.4823 22.5691 53.4109 22.9435 53.3447C24.2288 53.1175 25.512 52.8733 26.7707 52.5229C27.2235 52.397 27.6528 52.1959 27.6981 51.6402C27.7499 51.0018 27.2661 50.6482 26.4848 50.725C25.5051 50.8215 24.5403 51.0098 23.5781 51.2082C23.3717 51.2509 23.2555 51.261 23.2101 51.0109C23.0064 49.8877 22.3296 49.197 21.2379 48.8957C21.1893 48.8813 21.1461 48.8466 21.0891 48.8157Z" fill="#D56042"/>
<path d="M75.8085 50.64C75.0864 45.9872 71.4763 41.8534 66.9056 40.7147C64.0187 39.9958 61.1824 40.2027 58.4464 41.423C58.2229 41.5227 58.1168 41.5355 58.0149 41.264C57.6832 40.383 57.3024 39.52 57.0224 38.6192C56.9973 38.5382 56.9392 38.4704 56.9941 38.3579C57.1899 37.9531 57.0656 37.192 56.6976 37.0459C56.3056 36.8896 56.2523 36.5814 56.1365 36.2864C55.9195 35.736 55.7461 35.168 55.5195 34.6214C55.416 34.3696 55.4549 34.2406 55.6832 34.104C56.3675 33.6944 56.9829 33.1883 57.5973 32.6838C60.3819 30.3995 61.7285 27.4939 61.3707 23.872C61.1755 21.903 60.168 20.543 58.2603 19.8955C57.4747 19.6288 56.6683 19.4784 55.8448 19.4443C55.5397 19.432 55.424 19.3632 55.4432 19.0347C55.4699 18.5664 55.4224 17.9974 54.9461 17.8438C54.1355 17.5808 53.4779 17.0795 52.7493 16.6912C52.6448 16.6363 52.5184 16.6208 52.4011 16.5915C51.9669 16.4838 51.5243 16.4443 51.0789 16.4272C50.9317 16.4214 50.7979 16.423 50.7056 16.2587C50.3365 15.6043 49.6992 15.4576 49.0619 15.6086C48.4949 15.7424 47.9525 15.7168 47.3947 15.6918C47.2464 15.6854 47.0976 15.6875 46.9499 15.6982C46.4187 15.7355 45.9979 15.9883 45.8203 16.4822C45.6891 16.8496 45.4629 16.9232 45.1344 16.952C44.8203 16.9787 44.5483 17.0768 44.2485 16.7926C43.5861 16.1659 42.7216 16.3968 42.4085 17.2507C42.1419 17.9771 42.1632 18.7115 42.4896 19.415C43.0251 20.5654 44.4485 20.6896 45.1941 19.6571C45.2645 19.559 45.3344 19.512 45.4507 19.4976C46.4539 19.3728 47.4555 19.2427 48.4587 19.1152C48.5792 19.0998 48.6864 19.0918 48.7712 19.2262C48.9429 19.4966 49.2075 19.6672 49.4992 19.7808C49.7259 19.8688 49.7317 20.0027 49.6539 20.192C49.5051 20.5558 49.2117 20.7574 48.8715 20.9104C48.5509 21.0555 48.2389 21.2134 48.0059 21.4896C47.5685 22.007 47.7141 22.9019 48.2949 23.2112C48.584 23.3648 48.896 23.3894 49.1867 23.2283C49.4496 23.0827 49.3915 22.8176 49.3707 22.575C49.3445 22.272 49.4491 22.0208 49.6859 21.8267C50.2859 21.3344 50.9509 21.1936 51.6827 21.4752C51.872 21.5483 52.056 21.6518 52.2581 21.6502C52.5221 21.6491 52.5499 21.784 52.5563 22.0038C52.5861 23.0454 52.4763 24.0784 52.4155 25.1147C52.3984 25.4048 52.2267 25.5083 51.9941 25.335C51.7221 25.1323 51.4891 25.2102 51.2485 25.3536C51.0037 25.4987 50.8752 25.6987 50.9893 25.9974C51.0101 26.0523 51.0155 26.1494 50.9819 26.1851C50.7227 26.4678 50.8112 26.7691 50.9477 27.0518C51.04 27.2427 50.9285 27.2859 50.8085 27.3504C50.5477 27.4907 50.2773 27.6187 50.0763 27.8459C49.7264 28.2443 49.9243 29.0896 50.408 29.135C50.7184 29.1643 50.8192 29.3238 50.9216 29.5424C51.0368 29.7862 51.1408 30.0342 51.2555 30.2784C51.3403 30.4598 51.3872 30.6139 51.1771 30.7643C51.024 30.8736 50.9909 31.0598 51.0805 31.239C51.2011 31.4763 51.2571 31.6886 51.0021 31.8918C50.9083 31.967 50.9424 32.1147 50.9835 32.2368C51.0784 32.5227 51.2443 32.7414 51.5429 32.8256C51.6917 32.8678 51.7259 32.9568 51.7168 33.0944C51.7072 33.2427 51.6048 33.2539 51.4949 33.2752C51.3104 33.3115 51.1259 33.3515 50.9445 33.4006C47.6053 34.3072 44.304 35.3462 40.9845 36.3222C38.2336 37.1302 35.4848 37.9483 32.7339 38.7568C32.3499 38.8704 31.8699 39.1382 31.5936 39.0048C31.2795 38.8534 31.2656 38.2811 31.0965 37.9019C31.0453 37.7862 31.0373 37.6944 31.0917 37.5659C31.3547 36.935 31.0827 36.3803 30.4384 36.2048C30.3712 36.1862 30.3008 36.1862 30.2837 36.1062C30.128 35.3782 29.4245 34.7968 29.712 33.9472C29.7419 33.8582 29.6933 33.735 29.6608 33.6336C29.592 33.416 29.5248 33.1947 29.4293 32.9883C29.3355 32.7872 29.3904 32.6902 29.5744 32.576C30.2699 32.1462 30.8949 31.6358 31.232 30.8603C31.3003 30.703 31.3973 30.7131 31.5205 30.7286C31.9749 30.7867 32.4288 30.8475 32.8843 30.9003C33.3765 30.9563 33.872 31.0971 34.3573 30.8662C35.0336 30.5446 35.6368 30.1158 36.1653 29.5899C36.52 29.2379 36.5056 28.9371 36.1264 28.6272C35.2213 27.887 34.2107 27.4224 33.0048 27.551C32.5637 27.5979 32.1189 27.648 31.6859 27.7446C29.3925 28.2582 27.1221 28.3056 24.8688 27.5238C24.1707 27.2816 23.4592 27.0582 22.7131 26.9984C21.36 26.8891 20.4603 27.5888 20.2368 28.9216C20.1941 29.1744 20.1573 29.4283 20.1429 29.6838C20.0896 30.6038 20.4773 31.0587 21.4027 31.0838C22.2053 31.1056 22.7771 31.3899 22.9995 32.2086C23.2432 33.1067 23.8811 33.4582 24.76 33.423C25.0667 33.4107 25.1573 33.528 25.2384 33.8054C25.5147 34.7504 26.2304 35.2539 27.0715 35.2016C27.3371 35.1846 27.6123 34.8736 27.8341 35.1083C28.0149 35.3003 28.0624 35.6176 28.1669 35.8806C28.2064 35.9808 28.2384 36.0838 28.2779 36.184C28.536 36.8432 28.536 36.8422 27.8869 37.0966C27.8245 37.1211 27.7616 37.1478 27.7056 37.184C27.4256 37.3648 27.2293 37.5899 27.3371 37.9531C27.4405 38.3046 27.7307 38.4859 28.1147 38.4512C28.744 38.3952 29.0587 38.6214 29.2501 39.2944C27.8283 39.0027 26.8389 39.0011 25.5269 40.4587C25.4848 40.5056 25.4267 40.5371 25.3755 40.576C25.1867 40.3078 24.8053 40.4187 24.5941 40.1462C24.2645 39.7232 23.6907 39.7467 23.28 40.152C22.9659 40.4619 23.0219 40.7456 23.4773 41.1568C23.7557 41.4096 23.7355 41.6928 23.4629 41.9307C23.2347 42.1307 23.0368 42.1616 22.7947 41.9664C22.6811 41.8742 22.5387 41.8192 22.4101 41.7462C19.0821 39.8539 15.5813 39.5163 12.0091 40.8326C4.28374 43.6806 2.4368 52.4208 5.38187 57.8763C9.12053 64.7995 16.8048 65.4699 21.6917 63.1654C24.4587 61.8608 26.3307 59.672 27.5429 56.8923C27.6133 56.7312 27.6149 56.5318 27.896 56.535C29.84 56.56 31.7739 56.3376 33.7157 56.2832C34.2656 56.2678 34.2656 56.272 34.2704 56.8192C34.2768 57.6064 34.6187 57.9915 35.3952 58.0662C35.6219 58.088 35.856 58.0912 36.0811 58.0614C36.8016 57.9648 37.5173 57.832 38.2389 57.7462C38.7749 57.6822 39.3168 57.6614 39.8251 57.4619C40.4 57.2368 40.6347 56.8651 40.5909 56.2774C40.5472 55.6763 40.1989 55.2646 39.6304 55.1286C39.1509 55.0134 38.6715 55.064 38.1883 55.1243C38.2005 55.0102 38.2912 54.9926 38.3552 54.9504C39.0736 54.4752 39.5909 53.8347 39.9333 53.0486C40.5989 51.5216 40.6656 49.9691 40.0928 48.4048C39.9744 48.0827 40.0299 47.9126 40.2992 47.7094C43.1504 45.5568 45.9883 43.3878 48.8363 41.232C50.4128 40.0384 52.0005 38.8619 53.5925 37.671C53.6629 37.8539 53.6053 38.0176 53.5696 38.1851C53.4677 38.6614 53.7493 39.1494 54.2197 39.2646C54.3803 39.3035 54.3856 39.4128 54.4432 39.5115C54.9099 40.3206 55.1339 41.2352 55.5493 42.0614C55.8864 42.7312 55.76 43.1238 55.2149 43.6475C52.0373 46.7019 50.7888 50.4518 51.7088 54.7606C53.1995 61.743 60.1712 65.8507 67.0768 64.0022C72.1963 62.6326 76.8069 57.0646 75.8085 50.64ZM68.9339 48.1051C67.7248 49.2608 66.4683 50.3611 65.1712 51.4155C65.0928 51.4784 65.0304 51.5686 64.8992 51.4635C64.7664 51.3568 64.8053 51.2742 64.8667 51.1584C65.7061 49.5643 66.5435 47.968 67.4005 46.3371C68.0064 46.711 68.5051 47.176 68.9477 47.7094C69.0763 47.8635 69.088 47.9574 68.9339 48.1051ZM69.2885 48.4912C69.4277 48.3691 69.4859 48.4352 69.5664 48.5488C69.9136 49.0374 70.1403 49.5803 70.3184 50.1488C70.4091 50.4363 70.1419 50.3803 70.0299 50.4171C68.6645 50.8672 67.2939 51.3014 65.9237 51.7387C65.7765 51.7867 65.6267 51.8294 65.3781 51.9056C66.7355 50.7211 68.0149 49.6096 69.2885 48.4912ZM66.8075 46.2822C66.0368 47.7926 65.2811 49.3099 64.5152 50.8224C64.4757 50.8987 64.456 51.0822 64.3056 50.9819C64.1787 50.8976 63.9429 50.8646 64.0171 50.624C64.2736 48.9334 64.5509 47.2598 64.8901 45.5958C64.9248 45.4251 64.9749 45.3504 65.1851 45.407C65.6933 45.5446 66.1941 45.6934 66.6709 45.9206C66.8416 46.0022 66.9141 46.0742 66.8075 46.2822ZM64.3621 45.5787C64.0789 47.1787 63.8117 48.7819 63.5355 50.4091C63.3509 50.3344 63.3557 50.1846 63.3248 50.0619C62.9557 48.5904 62.5925 47.1168 62.2197 45.6454C62.1717 45.4566 62.1664 45.3568 62.4059 45.3216C62.9669 45.2384 63.5259 45.2016 64.0933 45.24C64.3424 45.256 64.4064 45.3243 64.3621 45.5787ZM63.1589 54.4907C63.2187 54.3504 63.2843 54.32 63.4341 54.3579C63.6096 54.4043 63.704 54.464 63.7205 54.6699C63.7904 55.5403 63.8811 56.4102 63.9653 57.2806C64.0181 57.8288 64.0576 58.3792 64.1312 58.9259C64.1701 59.2123 64.0907 59.3184 63.8011 59.2806C63.656 59.2619 63.5056 59.2774 63.3088 59.2774C62.7024 59.3056 62.0811 59.1243 61.4544 58.9712C61.2672 58.9259 61.2517 58.8576 61.3216 58.6982C61.9376 57.2971 62.5499 55.895 63.1589 54.4907ZM64.3136 54.3723C64.504 54.3515 64.6885 54.1734 64.8779 54.4438C65.7093 55.6331 66.5637 56.8075 67.4069 57.9899C67.4571 58.0603 67.608 58.1398 67.4384 58.2411C66.624 58.727 65.7616 59.088 64.8165 59.232C64.6245 59.2635 64.6368 59.1195 64.624 59.0027C64.4837 57.6923 64.3456 56.3824 64.2069 55.072C64.1941 54.9515 64.1824 54.831 64.1728 54.7099C64.1621 54.5739 64.0731 54.399 64.3136 54.3723ZM65.2699 54.2176C65.1888 54.1056 65.1296 54.0048 65.2944 53.9328C65.4448 53.8667 65.4645 53.5435 65.7333 53.711C66.9664 54.4816 68.2005 55.2518 69.4357 56.0198C69.5344 56.0806 69.5653 56.1307 69.4885 56.239C69.0795 56.8144 68.5947 57.3174 68.0603 57.7744C68.0304 57.7995 67.9979 57.823 67.9541 57.8571C67.8981 57.799 67.8368 57.7472 67.7904 57.6838C66.9493 56.5286 66.112 55.3718 65.2699 54.2176ZM65.9024 53.2374C65.8256 53.1894 65.7184 53.1531 65.7573 53.0283C65.7936 52.9131 65.8933 52.9888 65.9435 52.9707C67.4309 53.1787 68.8981 53.3878 70.3664 53.5878C70.5488 53.6128 70.5488 53.711 70.5179 53.8406C70.3803 54.4187 70.1712 54.9712 69.9227 55.5104C69.8459 55.6763 69.76 55.639 69.6416 55.5654C68.3963 54.7878 67.1483 54.0128 65.9024 53.2374ZM70.4181 53.0646C68.9131 52.8598 67.4048 52.6704 65.8981 52.4774C65.8133 52.4667 65.7387 52.4496 65.7093 52.3558C65.7472 52.271 65.8331 52.264 65.9077 52.2422C67.3237 51.8219 68.7445 51.4144 70.1547 50.9766C70.4672 50.8795 70.552 50.9627 70.592 51.2512C70.664 51.7728 70.6955 52.295 70.6651 52.8203C70.656 52.9819 70.6512 53.096 70.4181 53.0646ZM60.6768 45.9056C61.6021 45.4544 61.6 45.4555 61.8597 46.4459C62.1515 47.5611 62.4485 48.6752 62.7568 49.8427C62.6768 49.8086 62.6523 49.7974 62.6272 49.7883C61.2853 49.3024 60.7947 48.1307 60.3056 46.943C60.0128 46.2304 59.9888 46.24 60.6768 45.9056ZM62 53.6507C62.2453 53.5366 62.7723 53.8699 62.7739 54.1478C62.7445 54.2134 62.7125 54.287 62.68 54.3606C62.0843 55.7264 61.488 57.0918 60.8923 58.4576C60.8299 58.6016 60.8155 58.7659 60.5701 58.6219C59.848 58.1974 59.1589 57.7376 58.5909 57.1126C58.4555 56.9638 58.3936 56.8688 58.5755 56.695C59.3627 55.9419 60.1301 55.1686 60.9147 54.4123C61.2347 54.1046 61.5936 53.8406 62 53.6507ZM60.6437 54.0203C59.8347 54.792 59.0309 55.5675 58.2293 56.3456C58.1232 56.4486 58.0635 56.4347 57.9776 56.3206C57.5557 55.7552 57.2235 55.1467 57.0341 54.463C56.9963 54.3259 56.9968 54.2368 57.1563 54.1867C58.1691 53.8678 59.1808 53.543 60.1931 53.2208C60.2181 53.2118 60.2448 53.2064 60.2992 53.1915C60.5333 53.2667 60.5323 53.5371 60.6619 53.7072C60.7451 53.8171 60.7595 53.9094 60.6437 54.0203ZM59.9216 52.7254C58.9781 53.0363 58.0341 53.344 57.0933 53.6608C56.9077 53.7232 56.8197 53.6811 56.7968 53.4843C56.7541 53.1104 56.6795 52.7392 56.6917 52.4016C56.6907 51.6176 56.6907 51.6187 57.4075 51.6752C58.064 51.728 58.7211 51.7782 59.3776 51.831C59.6869 51.856 60.0635 52.2747 60.0731 52.583C60.0768 52.7067 59.9925 52.7019 59.9216 52.7254ZM57.0219 51.0283C56.8736 51.0144 56.8048 50.9872 56.8299 50.816C56.9216 50.208 57.1771 49.6603 57.4272 49.1099C57.5003 48.9494 57.5963 49.0454 57.6896 49.0774C58.3344 49.2982 58.8597 49.6379 59.0832 50.3382C59.1797 50.6411 59.3515 50.9195 59.5211 51.2768C58.6267 51.1867 57.8251 51.1019 57.0219 51.0283ZM58.0704 48.0864C58.1845 48.3275 58.2939 48.5568 58.4405 48.8662C57.6069 48.5478 57.6069 48.5478 58.0704 48.0864ZM52.3776 19.415C51.9669 19.2139 51.7243 18.9179 51.5728 18.512C52.2491 18.4918 52.3947 18.6502 52.3776 19.415ZM38.4629 45.7056C38.3413 45.7867 38.2507 45.8294 38.1035 45.7467C36.9237 45.0838 35.6517 44.8752 34.3163 45.0128C34.1333 45.032 34.0181 45 33.9472 44.808C33.5424 43.711 33.128 42.6176 32.696 41.4694C34.2288 41.6336 35.6491 41.3243 37.0613 40.9568C37.3221 40.8886 37.5803 40.8299 37.8533 40.8198C38.0251 40.8139 38.2123 40.784 38.3627 40.7072C39.952 39.887 41.7136 39.5606 43.3797 38.9616C44.3675 38.6059 45.3733 38.3008 46.3691 37.9707C46.5237 37.919 46.6624 37.8939 46.8357 37.935C47.1952 38.0192 47.5611 37.9099 47.8309 37.6971C48.3979 37.2491 49.0715 37.0656 49.7227 36.8208C50.4619 36.543 51.2112 36.2896 52.0064 36.007C51.9157 36.2432 51.7381 36.3211 51.5973 36.4214C50.0416 37.5366 48.4011 38.5248 46.8597 39.663C44.7893 41.192 42.7824 42.8064 40.6587 44.2624C39.936 44.7574 39.1925 45.2214 38.4629 45.7056ZM18.5125 46.2262C18.5563 46.0742 18.6203 46.0422 18.7685 46.1232C19.0341 46.2688 19.3312 46.2987 19.6293 46.2998C19.7563 46.3008 19.8635 46.3355 19.9669 46.4059C20.3947 46.6982 20.3979 46.7606 19.9765 47.0587C19.5605 47.3536 19.1387 47.6416 18.7237 47.9403C18.5627 48.056 18.3877 48.1014 18.208 48.1014C18.0379 48.144 17.9568 48.1072 18.0107 47.9264C18.1781 47.36 18.3472 46.7942 18.5125 46.2262ZM24.2933 43.0982C24.8352 42.6592 24.8373 42.6576 25.1653 43.0688C25.2283 43.1488 25.3904 43.2528 25.2048 43.3504C25.0576 43.4288 24.9584 43.7286 24.7147 43.4928C24.5819 43.3648 24.4448 43.24 24.2933 43.0982ZM18.0048 45.7435C18.1675 45.8 18.088 45.9227 18.0624 46.0134C17.8747 46.6731 17.6768 47.3302 17.4885 47.9883C17.4464 48.1355 17.3584 48.2022 17.2123 48.2395C16.1733 48.511 16.1728 48.5131 16.0187 47.464C15.9307 46.8646 15.8731 46.2598 15.752 45.6672C15.6789 45.3067 15.7851 45.2091 16.1205 45.2512C16.2395 45.2656 16.3627 45.2539 16.5301 45.2539C17.1109 45.0443 17.5003 45.5686 18.0048 45.7435ZM26.3648 44.9824C26.5163 44.8843 26.6144 44.784 26.8053 44.9579C27.1957 45.3142 28.0613 45.048 28.232 44.5419C28.2539 44.4795 28.2555 44.4107 28.2683 44.336C28.2448 44.2502 28.2453 44.1403 28.192 44.072C27.8736 43.671 28.1355 43.4843 28.448 43.2832C28.992 42.9334 29.5243 42.5664 30.0587 42.2022C30.2587 42.0651 30.3867 42.0736 30.4789 42.327C30.8197 43.263 31.1696 44.1958 31.5243 45.1264C31.5792 45.2704 31.5835 45.3328 31.4069 45.3675C29.9792 45.6459 28.5525 45.9328 27.1264 46.2224C26.9605 46.2555 26.8869 46.183 26.8107 46.0534C26.6672 45.8096 26.5104 45.5739 26.3509 45.3414C26.2619 45.2123 26.1712 45.1083 26.3648 44.9824ZM13.3157 49.9659C13.0763 49.943 12.8597 49.6272 12.6421 49.4299C12.1136 48.952 11.5941 48.4624 11.0597 47.991C10.8859 47.8374 10.8459 47.7366 11.0176 47.543C11.4315 47.0763 11.8843 46.6614 12.4101 46.327C12.4773 46.2843 12.5488 46.2459 12.6075 46.2118C12.7493 46.2086 12.7595 46.3243 12.8011 46.3979C13.2827 47.2678 13.7584 48.1403 14.2427 49.0091C14.3147 49.1376 14.3211 49.2219 14.1829 49.3008C14.1019 49.3462 14.0299 49.4091 13.9568 49.4694C13.7408 49.647 13.5115 49.9846 13.3157 49.9659ZM12.7632 50.2784C12.8272 50.3366 12.904 50.3936 12.9104 50.3936C12.8709 50.8624 12.5248 51.1014 12.1936 50.992C11.4011 50.7312 10.6128 50.456 9.81547 50.2096C9.58933 50.1398 9.55254 50.0614 9.62774 49.8454C9.8016 49.3472 10.0139 48.8715 10.296 48.424C10.4101 48.2427 10.504 48.2267 10.6677 48.376C11.3616 49.016 12.0656 49.6432 12.7632 50.2784ZM9.66294 50.7088C10.4709 50.9654 11.28 51.2198 12.0928 51.4603C12.2885 51.5184 12.3792 51.5915 12.2725 51.7931C12.2661 51.8054 12.2629 51.8182 12.2597 51.832C12.1819 52.1792 12.2133 52.663 11.9968 52.8368C11.7659 53.0214 11.3003 52.9131 10.9376 52.9323C10.8565 52.9371 10.7755 52.9435 10.6949 52.9494C10.3312 52.967 9.968 52.9771 9.6048 53.007C9.3856 53.0246 9.28427 52.9504 9.2672 52.727C9.22027 52.104 9.25654 51.4891 9.35947 50.8736C9.39413 50.6651 9.4896 50.6539 9.66294 50.7088ZM9.61654 53.5707C10.2757 53.5456 10.9339 53.4816 11.6213 53.4304C11.784 53.4651 12.0512 53.3088 12.1584 53.4976C12.3003 53.7478 12.3424 54.0555 12.4144 54.3424C12.4379 54.4347 12.3472 54.4779 12.28 54.5222C11.7099 54.9046 11.1344 55.28 10.5723 55.6736C10.3675 55.816 10.2565 55.7862 10.1269 55.5798C9.79574 55.0486 9.5616 54.4811 9.4144 53.8747C9.3712 53.6992 9.3536 53.5814 9.61654 53.5707ZM10.8288 56.264C11.3632 55.8784 11.8896 55.4816 12.4149 55.0843C12.5536 54.9798 12.6459 54.9419 12.7536 55.1339C12.8789 55.3574 13.0661 55.5478 13.2875 55.6758C13.5083 55.8038 13.5328 55.9355 13.4347 56.1584C13.1845 56.7227 12.9547 57.296 12.7147 57.8656C12.6805 57.9456 12.6549 58.0379 12.5643 58.0763C12.4997 58.0374 12.4533 58.0107 12.408 57.983C11.792 57.6091 11.2704 57.1286 10.8053 56.5803C10.6992 56.455 10.672 56.3766 10.8288 56.264ZM13.3008 58.1408C13.5413 57.5286 13.7803 56.9147 14.0043 56.2971C14.0624 56.1376 14.1275 56.1398 14.2688 56.1782C14.5536 56.2534 14.8443 56.3184 15.1376 56.3483C15.3536 56.3712 15.4016 56.4667 15.3952 56.6603C15.384 56.9824 15.392 57.3056 15.392 57.6288H15.4747C15.4747 57.9371 15.4656 58.2475 15.4789 58.5558C15.4864 58.7339 15.4581 58.8256 15.2464 58.8198C14.6373 58.8027 14.0437 58.7179 13.4688 58.503C13.2741 58.4299 13.2267 58.3312 13.3008 58.1408ZM15.3771 48.7035C14.7851 48.9894 14.7829 48.9926 14.4741 48.4283C14.0741 47.696 13.6912 46.9536 13.2757 46.2299C13.1333 45.983 13.1947 45.8928 13.4256 45.7894C13.8971 45.5787 14.3909 45.455 14.8923 45.3483C15.1109 45.3014 15.2235 45.3328 15.256 45.6064C15.3637 46.5168 15.5072 47.4219 15.6421 48.3659C15.7205 48.5723 15.5381 48.6256 15.3771 48.7035ZM18.1387 58.3563C18.2235 58.5659 18.1493 58.6347 17.9557 58.672C17.4133 58.7782 16.864 58.8187 16.3136 58.847C16.1211 58.8566 16.0592 58.7824 16.0512 58.5926C16.0229 57.9616 15.9915 57.3302 15.9312 56.7008C15.9051 56.4294 15.992 56.3723 16.2363 56.4107C16.3803 56.4342 16.5317 56.4155 16.6789 56.4155C17.4715 56.4576 17.4699 56.4576 17.7307 57.2187C17.8624 57.6 17.9877 57.983 18.1387 58.3563ZM18.0592 56.5035C18.4987 56.5035 18.8747 56.5067 19.2496 56.5024C19.5579 56.4982 19.6725 56.7632 19.8405 56.9371C20.4949 57.6166 20.4891 57.6219 19.6432 58.0576C18.7872 58.4998 18.7867 58.4998 18.4544 57.5968C18.3253 57.247 18.2 56.895 18.0592 56.5035ZM20.1947 56.6016H21.4416C20.9323 57.3371 20.9323 57.3371 20.1947 56.6016ZM33.7301 41.0251C34.7749 40.6934 35.7547 40.3862 36.7312 40.0678C36.9909 39.983 36.9685 40.1974 37.0395 40.3179C37.1381 40.4854 36.9952 40.4912 36.9003 40.5179C35.9147 40.7915 34.9237 41.0315 33.8955 41.0742C33.8645 41.0763 33.832 41.0571 33.7301 41.0251ZM39.0389 39.3248C41.3627 38.647 43.6885 37.9723 46.0139 37.3003C46.1328 37.2656 46.304 37.1174 46.3392 37.4187C46.3749 37.6342 46.1637 37.6091 46.0469 37.647C44.2955 38.2171 42.5408 38.7798 40.7851 39.3387C40.2597 39.5062 39.7259 39.647 39.2021 39.8214C38.9488 39.9056 38.8667 39.7792 38.7957 39.5819C38.7035 39.3264 38.9184 39.3606 39.0389 39.3248ZM51.9152 35.631C51.2997 35.8571 50.7904 36.0438 50.2811 36.2326C49.664 36.4608 49.0485 36.6918 48.4315 36.9184C48.3296 36.9558 48.2192 37.047 48.1499 36.848C48.0939 36.6907 48.1781 36.6544 48.2795 36.6187C49.2923 36.264 50.3045 35.9078 51.3211 35.5638C51.4667 35.5142 51.6347 35.5062 51.9152 35.631ZM55.3984 20.1446C55.416 19.9958 55.4139 19.8432 55.6405 19.8582C56.9813 19.9408 58.2987 20.088 59.4171 20.9552C60.4667 21.7691 60.8907 22.8806 60.9733 24.1547C61.1888 27.4838 59.9264 30.1664 57.3925 32.2886C56.7925 32.7915 56.1803 33.2747 55.5195 33.695C55.3163 33.8246 55.2005 33.8795 55.1024 33.5744C54.9339 33.0507 54.7131 32.5435 54.5152 32.0288C54.4528 31.8651 54.4123 31.7019 54.4059 31.5211C54.3888 31.0256 54.1824 30.8027 53.6773 30.6848C53.6293 30.6736 53.5691 30.6566 53.5435 30.6208C53.0624 29.9344 52.4016 29.3536 52.2885 28.4299C52.6117 28.3782 52.92 28.5014 53.2368 28.552C54.1776 28.7024 55.0256 28.152 55.2464 27.224C55.3072 26.9691 55.3792 26.7302 55.5872 26.5542C55.6075 26.5371 55.6235 26.5147 55.64 26.4928C56.0133 25.9867 55.5435 24.7019 54.9264 24.6006C54.6672 24.5579 54.5963 24.4752 54.5509 24.2144C54.4645 23.7142 54.5397 23.264 54.7259 22.8006C55.0693 21.9467 55.2875 21.0576 55.3984 20.1446ZM29.3691 32.1248C29.2133 32.2112 29.1413 32.2214 29.0539 32.0171C28.6784 31.1435 28.6677 31.1472 29.5776 30.9872C29.9323 30.9248 30.288 30.8667 30.7136 30.7947C30.3707 31.4192 29.9147 31.8176 29.3691 32.1248ZM25.1616 32.8406C24.8496 33.1355 23.9259 32.816 23.6565 32.4011C23.5301 32.207 23.4677 31.9888 23.3797 31.6891C24.0544 31.88 24.6731 31.9936 25.3003 32.039C25.6757 32.0667 26.0565 32.095 26.4283 32.0171C26.6208 31.9766 26.6795 32.0886 26.7061 32.2187C26.7451 32.4075 26.5701 32.3467 26.4891 32.3563C26.0069 32.4123 25.5557 32.4672 25.1616 32.8406ZM26.2085 40.3883C26.9333 39.6011 28.1659 39.3254 29.1397 39.7334C29.2432 39.7771 29.3675 39.8032 29.4197 39.9382C29.3589 40.0395 29.3152 40.1398 29.2475 40.2198C28.5771 41.0118 27.6912 41.5398 26.8731 42.151C26.7429 42.248 26.6843 42.1542 26.6133 42.0699C26.4741 41.9062 26.3307 41.7451 26.1888 41.5835C25.6619 40.9824 25.6619 40.9824 26.2085 40.3883Z" fill="#242222"/>
<path d="M16.5979 53.849C16.4272 53.8319 16.1984 53.8186 15.9728 53.7844C15.4592 53.7071 15.1056 53.4372 14.968 52.9188C14.9472 52.841 14.9141 52.7663 14.8912 52.689C14.5285 51.4666 14.6411 51.0874 15.7168 50.4255C20.0747 47.7428 24.1307 44.6319 28.2549 41.618C28.7973 41.2218 29.3451 40.8186 29.7419 40.2596C29.8373 40.1247 29.9323 40.1263 30.0437 40.2159C30.1589 40.3087 30.2805 40.3983 30.376 40.5098C30.7589 40.9578 31.2416 41.2367 31.8123 41.3556C32.0363 41.4026 32.1611 41.5108 32.2416 41.7226C32.6405 42.7668 33.0485 43.8079 33.4592 44.8479C33.5195 45.001 33.536 45.0671 33.3275 45.1103C32.112 45.362 32.1147 45.369 31.6896 44.2292C31.44 43.5604 31.1861 42.8932 30.9328 42.2255C30.6373 41.4452 30.4853 41.3967 29.7627 41.8495C28.5952 42.5807 27.5136 43.4303 26.4357 44.2831C24.5632 45.7647 22.5232 47.0138 20.6437 48.4847C20.1979 48.8335 19.7445 49.1754 19.328 49.5572C18.792 50.049 18.7451 50.4788 19.104 51.1103C19.2373 51.3444 19.408 51.5583 19.5285 51.7978C19.7339 52.2074 20.0448 52.2708 20.4677 52.1972C22.4053 51.8607 24.3472 51.546 26.2875 51.2223C26.5035 51.186 26.7157 51.1892 26.9285 51.2447C27.0773 51.2836 27.2261 51.3268 27.2491 51.506C27.2736 51.6975 27.1973 51.8591 27.0176 51.9364C26.8331 52.0159 26.6395 52.081 26.4437 52.1258C23.3963 52.8287 20.3147 53.3471 17.2224 53.8036C17.0347 53.8314 16.8448 53.8319 16.5979 53.849Z" fill="#FFD900"/>
<path d="M52.8379 33.6319C52.7803 33.4266 52.6267 33.3567 52.4715 33.3194C52.2784 33.273 52.2171 33.1754 52.2171 32.9802C52.2176 32.786 52.3232 32.7279 52.4741 32.6767C52.9461 32.5162 53.4213 32.3604 53.8491 32.098C53.9872 32.0132 54.0528 32.017 54.1104 32.1828C54.3141 32.7684 54.5248 33.3508 54.7429 33.9311C54.7984 34.0788 54.7456 34.1514 54.6299 34.2266C53.9269 34.6842 53.1627 35.0244 52.4101 35.3855C52.3163 35.4308 52.2379 35.4383 52.1589 35.3514C51.8507 35.0132 51.4763 35.0895 51.1093 35.2079C49.328 35.7834 47.5723 36.442 45.7675 36.9423C41.5477 38.1119 37.3381 39.3156 33.2027 40.762C32.1547 41.1284 31.2688 40.9444 30.4917 40.097C30.1051 39.6751 29.6139 39.3615 29.4848 38.7455C29.4405 38.5354 29.4507 38.4266 29.6768 38.3695C30 38.2879 30.3387 37.9247 30.5867 38.0436C30.8571 38.1732 30.8869 38.642 31.0123 38.9663C31.0907 39.17 31.2048 39.3663 31.0277 39.6047C30.9232 39.7455 30.9595 39.9695 31.1493 40.058C31.3365 40.145 31.4069 39.9711 31.4635 39.8335C31.5803 39.5492 31.8293 39.4458 32.0933 39.3786C34.432 38.785 36.7253 38.0346 39.0357 37.3444C42.3525 36.354 45.6667 35.3556 48.9835 34.3647C49.6288 34.1716 50.28 33.9978 50.9296 33.818C51.4325 33.6788 51.9376 33.6692 52.4501 33.7743C52.5941 33.8042 52.7771 33.8324 52.8379 33.6319Z" fill="#FFD900"/>
<path d="M22.6261 27.5196C23.12 27.462 23.6101 27.6839 24.1147 27.8145C25.3243 28.1276 26.5296 28.4668 27.7685 28.6321C28.6389 28.7484 29.5115 28.6028 30.376 28.4641C31.2901 28.3175 32.2011 28.1281 33.1211 28.0465C34.0533 27.9639 34.8859 28.3361 35.6512 28.8471C35.8656 28.99 35.8741 29.1985 35.6901 29.3585C35.2053 29.7809 34.7264 30.2209 34.1045 30.4417C33.608 30.6183 33.1205 30.4625 32.6341 30.3713C31.5429 30.1671 30.4667 30.31 29.3877 30.4855C28.7296 30.5921 28.1003 30.7697 27.5195 31.0967C26.4123 31.7201 25.2544 31.6652 24.0704 31.3895C23.4245 31.2391 22.8101 31.0087 22.2117 30.7313C21.9264 30.5991 21.6224 30.5303 21.3136 30.5324C20.9525 30.5351 20.7483 30.3681 20.6933 30.0305C20.5963 29.4316 20.6779 28.8327 20.9312 28.2983C21.2496 27.6241 21.8981 27.5031 22.6261 27.5196Z" fill="#6C6A68"/>
<path d="M63.4053 60.5808C60.0149 60.5712 57.0235 58.416 55.8725 55.0427C54.8955 52.1798 55.3035 49.4918 57.1627 47.0662C57.2544 46.9467 57.3184 46.7078 57.5312 46.7819C57.7024 46.8411 57.8288 47.4742 57.7184 47.6171C57.2789 48.1883 56.9568 48.8203 56.6955 49.4907C54.7461 54.4896 58.3803 58.8992 61.9477 59.6288C65.6704 60.3899 69.384 58.495 70.736 54.9712C71.3669 53.3264 71.216 51.6678 70.7776 50.0054C69.9568 46.8896 66.7296 44.7435 63.7211 44.752C62.4053 44.7558 61.1792 45.008 60.0592 45.7046C59.84 45.8411 59.7669 45.7696 59.6853 45.5664C59.4773 45.0507 59.4704 45.0534 59.9621 44.8278C63.8608 43.0422 68.0219 44.1451 70.4939 47.632C71.3408 48.8267 71.7323 50.1856 71.9077 51.6288C72.4309 55.9275 69.1307 59.5872 65.4853 60.343C64.7963 60.4859 64.1088 60.5872 63.4053 60.5808Z" fill="#BFAA30"/>
<path d="M39.8171 47.4903C39.6939 47.5095 39.688 47.4087 39.6533 47.3431C39.4699 46.9937 39.2368 46.6759 38.9568 46.4044C38.6955 46.1511 38.7995 46.0455 39.0528 45.8823C40.5029 44.9479 41.9456 44.0039 43.312 42.9452C44.9952 41.6412 46.6496 40.2977 48.4069 39.0919C49.5621 38.2993 50.7909 37.6145 51.8736 36.7164C52.1317 36.502 52.424 36.3132 52.4603 35.9324C52.4731 35.7996 52.5872 35.7676 52.6805 35.7196C53.3867 35.3548 54.0965 34.9969 54.7995 34.6252C54.9595 34.5409 55.0405 34.5607 55.1008 34.7297C55.3584 35.4529 55.6181 36.1756 55.8827 36.8967C55.9301 37.0263 55.9008 37.0903 55.7733 37.1404C55.272 37.3383 54.7707 37.5367 54.2757 37.7495C54.0683 37.8385 54.0517 37.7287 54.0347 37.574C54.0069 37.3196 53.9712 37.0663 53.9328 36.8135C53.9141 36.6892 53.8619 36.5479 53.7307 36.5431C53.5963 36.5377 53.5275 36.6727 53.5211 36.8007C53.5045 37.1185 53.2901 37.3079 53.0811 37.4972C52.0784 38.4044 50.9381 39.1281 49.8544 39.9287C47.1547 41.9223 44.4816 43.9516 41.8304 46.0087C41.2347 46.4711 40.6197 46.9084 40.0133 47.3564C39.9472 47.4049 39.8784 47.4481 39.8171 47.4903Z" fill="#FFD900"/>
<path d="M17.3232 43.9349C17.2288 44.1674 17.1008 44.3605 17.0917 44.5957C17.0827 44.8389 16.8864 44.7616 16.7552 44.76C15.864 44.7509 14.9776 44.7637 14.112 45.0229C10.7979 46.017 8.60321 49.025 8.75147 52.48C8.86561 55.1301 10.0811 57.1813 12.3328 58.5984C13.0309 59.0378 13.8256 59.249 14.6299 59.3146C16.4037 59.4586 18.1595 59.3914 19.8032 58.5674C20.6469 58.1445 21.4075 57.6181 21.9637 56.848C22.2032 56.5162 22.5125 56.6 22.7995 56.6368C23.0368 56.6672 22.8389 56.8346 22.7995 56.9034C22.2528 57.8608 21.5147 58.6309 20.5264 59.1376C18.7952 60.0256 16.9536 60.2533 15.0315 60.0928C12.3397 59.8682 10.3941 58.5077 9.01974 56.2474C8.45761 55.3226 8.16374 54.2981 8.04587 53.2325C7.59041 49.1237 9.90507 45.4842 13.7221 44.1962C14.88 43.8058 16.0789 43.6901 17.3232 43.9349Z" fill="#BFAA30"/>
<path d="M56.5467 39.5544C56.7781 39.5496 56.8832 39.804 56.9824 40.0616C57.6107 41.6962 58.2368 43.3314 58.8651 44.9656C59.3536 46.236 59.9365 47.4658 60.4805 48.7122C60.6043 48.9954 60.6976 49.2765 60.7152 49.5981C60.7424 50.0872 60.9872 50.5229 61.1803 50.9666C61.4277 51.5346 61.6699 52.1048 61.9248 52.669C62.04 52.9245 62.0325 53.0786 61.7424 53.2376C61.2197 53.5229 61.2283 53.5538 60.9515 53.0248C59.6875 50.6114 58.6608 48.0904 57.5872 45.5906C56.8912 43.9698 56.1984 42.3474 55.5893 40.6909C55.3136 39.9421 55.6085 39.5448 56.5467 39.5544Z" fill="#FFD900"/>
<path d="M36.9131 52.5965C36.7712 52.2365 36.6635 51.9064 36.5131 51.597C36.3296 51.2194 36.3669 50.8114 36.2976 50.4189C36.2005 49.8696 35.8048 49.4594 35.2453 49.3293C34.6048 49.1805 33.8731 49.4392 33.5104 49.9426C33.2149 50.3528 33.2059 51.0066 33.496 51.4744C33.6539 51.7288 33.832 51.9858 34.1184 52.0909C34.7013 52.3048 34.6496 52.8749 34.8427 53.3064C34.9109 53.4589 34.7664 53.445 34.6805 53.4429C33.224 53.4029 31.6827 52.7181 31.5205 50.845C31.3707 49.109 32.5621 47.7901 34.2427 47.6818C35.8928 47.5757 36.8661 48.2834 37.3691 49.572C37.784 50.6349 37.6267 51.6482 36.9131 52.5965Z" fill="#797D82"/>
<path d="M49.1552 17.7981C49.1525 18.3576 48.8379 18.6333 48.1461 18.7059C47.2944 18.7955 46.4427 18.8845 45.5947 19.0024C45.3509 19.0365 45.2933 18.9101 45.2821 18.7496C45.256 18.3779 45.1371 18.0371 44.9643 17.7176C44.8437 17.4952 44.9115 17.4008 45.1301 17.3667C45.9093 17.2456 46.6891 17.1256 47.4699 17.0115C47.7344 16.9731 48.0011 16.9357 48.2677 16.9288C48.9488 16.9107 49.1584 17.1235 49.1552 17.7981Z" fill="#525050"/>
<path d="M54.1387 24.277C54.1691 25.0012 54.1333 25.6594 54.0075 26.31C53.9685 26.51 53.9072 26.7063 53.7264 26.83C53.3408 27.0946 52.9099 26.8663 52.8821 26.3543C52.8581 25.9111 52.8907 25.4652 52.9003 25.0204C52.9248 23.8748 52.9573 22.7298 52.9701 21.5842C52.9728 21.3266 52.9947 21.1527 53.3131 21.237C53.3259 21.2402 53.3403 21.2391 53.3536 21.2375C53.5365 21.2146 53.8624 21.1356 53.8779 21.1767C53.9616 21.3938 53.9819 21.6396 53.9979 21.8775C54.0512 22.6978 54.0944 23.5186 54.1387 24.277Z" fill="#A9ACB3"/>
<path d="M36.7275 57.4476C36.3035 57.6353 35.8773 57.5804 35.4693 57.5873C35.0795 57.5943 34.8389 57.3089 34.8245 56.9585C34.7989 56.3431 34.9243 56.1148 35.4133 56.0279C36.1381 55.8999 36.8693 55.8081 37.5979 55.7009C38.1552 55.6188 38.7099 55.5159 39.2784 55.5383C39.7125 55.5559 40.0299 55.8017 40.0848 56.1804C40.1552 56.6657 39.984 56.9383 39.5029 57.0903C39.3243 57.1468 39.1424 57.2023 38.9579 57.2284C38.4933 57.2951 38.4603 57.2609 38.4677 56.8092C38.4736 56.43 38.2373 56.1324 37.8149 55.9857C37.4032 55.8428 36.8048 55.9799 36.5803 56.2679C36.3669 56.5409 36.3915 56.9681 36.6395 57.3153C36.6619 57.3479 36.6827 57.3809 36.7275 57.4476Z" fill="#514F50"/>
<path d="M63.8805 53.9181C63.3893 53.9037 62.9269 53.6637 62.6853 53.1431C62.2091 52.1181 61.7717 51.0749 61.3237 50.0365C61.2773 49.9293 61.2181 49.7837 61.3221 49.6946C61.4341 49.5991 61.5493 49.7149 61.6453 49.7751C62.6971 50.4338 63.7072 51.1506 64.6715 51.9319C64.7029 51.9575 64.7333 51.9842 64.7605 52.0146C65.0624 52.3511 65.3675 52.693 65.1808 53.1959C65.0251 53.6146 64.4939 53.9181 63.8805 53.9181Z" fill="#FFD900"/>
<path d="M36.5163 55.385C36.3024 55.4896 36.2352 55.3376 36.1488 55.1402C35.6555 54.0213 35.2187 52.881 34.8325 51.721C34.7947 51.6074 34.7541 51.4895 34.7451 51.3717C34.7264 51.1285 34.7029 50.8565 35.0176 50.7802C35.3056 50.7103 35.5957 50.7338 35.7536 51.0383C35.8704 51.2639 35.9691 51.5018 36.048 51.7434C36.3813 52.7642 36.7749 53.7621 37.1781 54.7567C37.3963 55.2949 37.3829 55.3136 36.7925 55.3696C36.7125 55.3776 36.6315 55.3792 36.5163 55.385Z" fill="#6A6967"/>
<path d="M49.224 16.0334C50.0923 16.0382 50.4571 16.3657 50.4539 17.0345C50.4533 17.1742 50.4144 17.2873 50.3429 17.4099C50.0181 17.9667 50.2213 18.5203 50.8288 18.675C51.0752 18.7379 51.2165 18.8633 51.3605 19.0542C51.9488 19.835 52.7285 20.1427 53.6976 19.9566C53.8544 19.9262 54.0176 19.9171 54.1776 19.9198C54.304 19.9219 54.4848 19.8526 54.5403 20.0067C54.6096 20.1977 54.4187 20.2905 54.2949 20.3769C53.5163 20.9198 52.7803 20.8115 51.928 20.0761C51.4944 19.7017 51.0277 19.3657 50.576 19.0126C50.2928 18.7913 50.0432 18.8355 49.8725 19.1427C49.7413 19.379 49.6091 19.4259 49.4027 19.2441C49.2133 19.0771 49.1077 18.9534 49.3509 18.7017C50.0432 17.9849 49.6539 16.7294 48.6923 16.5193C48.4352 16.4633 48.4939 16.3497 48.6139 16.219C48.8107 16.0041 49.0747 16.0302 49.224 16.0334Z" fill="#525051"/>
<path d="M44.7813 18.8439C44.7856 19.4434 44.6117 19.6951 44.1995 19.8071C43.7344 19.9335 43.1163 19.6925 42.9232 19.2647C42.68 18.7261 42.6064 18.1586 42.8037 17.5831C43.0299 16.925 43.6907 16.7991 44.1589 17.3431C44.5547 17.8029 44.7504 18.3565 44.7813 18.8439Z" fill="#6C6A68"/>
<path d="M51.4336 16.8435C52.9856 16.8712 53.7653 17.6669 53.7883 19.1944C53.7947 19.6291 53.4944 19.54 53.2773 19.564C53.0517 19.5891 52.7883 19.6317 52.7909 19.2317C52.7941 18.7096 52.6256 18.2669 52.0155 18.1816C51.8155 18.1533 51.8085 18.0179 51.7899 17.8659C51.7467 17.5112 51.5451 17.2824 51.2107 17.1592C51.0971 17.1171 50.8923 17.1379 50.9301 16.9459C50.9664 16.7619 51.1531 16.8691 51.2725 16.8451C51.3243 16.8344 51.3797 16.8435 51.4336 16.8435Z" fill="#A9ABB2"/>
<path d="M55.3179 26.0186C54.8987 26.4868 54.8752 27.1444 54.512 27.6191C54.1413 28.1044 53.5515 28.2415 53.0149 28.0703C52.2587 27.8292 51.6576 28.0751 51.0304 28.4106C50.8571 28.5034 50.6144 28.769 50.4453 28.4623C50.2805 28.1631 50.5573 28.0004 50.7893 27.8948C51.3264 27.6506 51.8763 27.4346 52.4139 27.1919C52.5483 27.1311 52.6421 27.1642 52.7493 27.2276C53.4976 27.6724 54.1653 27.4367 54.4587 26.6255C54.6549 26.0836 54.6768 26.066 55.3179 26.0186Z" fill="#515050"/>
<path d="M20.3979 51.741C20.3157 51.7314 20.2683 51.7394 20.2368 51.7202C19.8181 51.4674 19.6224 51.0461 19.4773 50.6152C19.3659 50.284 19.5904 50.0402 19.8149 49.8072C20.3013 49.3026 20.8368 49.2461 21.4576 49.5336C22.1339 49.8472 22.5429 50.3506 22.6688 51.084C22.6885 51.1976 22.6779 51.3037 22.5333 51.3314C21.8085 51.4706 21.0837 51.6093 20.3979 51.741Z" fill="#7B7C80"/>
<path d="M48.8981 22.4642C48.8688 22.5906 48.9947 22.7789 48.7861 22.8418C48.6096 22.8946 48.4773 22.7816 48.3707 22.6514C48.1216 22.348 48.1349 22.0429 48.4101 21.7448C48.6256 21.5112 48.9088 21.3789 49.1883 21.2472C49.8197 20.9501 50.1557 20.4573 50.2069 19.7629C50.2144 19.6653 50.1525 19.5138 50.2901 19.4813C50.4448 19.4445 50.5584 19.58 50.68 19.6594C50.8123 19.7458 50.7456 19.8306 50.6768 19.9261C50.5365 20.1197 50.6117 20.2941 50.7755 20.4184C50.9333 20.5378 51.1152 20.5293 51.2389 20.3597C51.3419 20.2189 51.4267 20.252 51.5392 20.3336C51.8112 20.5314 52.0864 20.7245 52.3616 20.9186C52.4304 20.9672 52.5003 21.0189 52.4693 21.1122C52.4336 21.2216 52.3355 21.2472 52.2384 21.2205C52.1093 21.1848 51.9845 21.1336 51.8613 21.0808C50.8443 20.644 49.6453 20.981 49.0171 21.8813C48.8949 22.0562 48.8677 22.2514 48.8981 22.4642Z" fill="#8C8E90"/>
<path d="M24.4208 43.8315C24.3152 44.0096 24.232 44.0337 24.168 44.079C23.4784 44.5665 22.7803 45.0416 22.104 45.5467C21.8203 45.759 21.6859 45.5462 21.5355 45.4022C21.4155 45.287 21.5808 45.2529 21.6448 45.2118C21.9024 45.0475 22.1915 44.9254 22.2384 44.5574C22.2491 44.4736 22.3712 44.392 22.4571 44.3318C22.8411 44.0614 23.2293 43.7979 23.6181 43.5344C23.712 43.471 23.7952 43.3563 23.9339 43.4688C24.0917 43.5952 24.2581 43.711 24.4208 43.8315Z" fill="#686868"/>
<path d="M29.8144 36.1852C29.8475 36.302 29.7765 36.3505 29.688 36.4022C29.0832 36.7532 28.9648 36.7116 28.7189 36.0598C28.5813 35.6956 28.4475 35.3292 28.2875 34.975C28.1973 34.7745 28.2453 34.7068 28.4432 34.6332C29.1051 34.3873 29.1035 34.3777 29.3653 35.0209C29.512 35.3814 29.6528 35.7452 29.7952 36.1073C29.8053 36.1318 29.8085 36.159 29.8144 36.1852Z" fill="#AAABB2"/>
<path d="M26.9077 32.7884C27.1392 32.7884 27.2736 32.7884 27.4085 32.7884C28.0581 32.7895 28.1557 32.8983 28.0949 33.5538C28.0288 34.2652 27.4805 34.7884 26.8587 34.734C26.2315 34.6791 25.5563 33.9132 25.5952 33.3063C25.6107 33.0663 25.7595 32.9527 25.9632 32.8786C26.3024 32.7559 26.6555 32.7964 26.9077 32.7884Z" fill="#A8AAAF"/>
<path d="M26.3243 42.5292C26.1963 42.7137 26.0117 42.8257 25.832 42.9393C25.6816 43.0348 25.6096 42.8865 25.536 42.8086C25.1557 42.4086 24.7819 42.0022 24.4112 41.5937C24.3045 41.4758 24.0747 41.3526 24.3056 41.1766C24.5024 41.0268 24.7333 40.7036 24.9968 40.9638C25.4544 41.415 25.8485 41.9302 26.2677 42.4198C26.2928 42.4486 26.304 42.4892 26.3243 42.5292Z" fill="#7A7C80"/>
<path d="M30.2704 36.6692C30.584 36.6607 30.6416 36.8708 30.7184 37.0537C30.7941 37.234 30.7205 37.3844 30.5621 37.4596C30.0784 37.6889 29.5909 37.9119 29.0944 38.1113C28.9088 38.186 28.7408 38.13 28.7643 37.8671C28.7664 37.8404 28.7744 37.8084 28.7637 37.7876C28.4747 37.2367 28.8997 37.1519 29.2597 37.0351C29.6155 36.9199 29.944 36.7252 30.2704 36.6692Z" fill="#7A7C7F"/>
<path d="M23.6256 46.8995C24.2672 46.4621 24.9115 46.028 25.5488 45.5843C25.7061 45.4749 25.7957 45.4968 25.9136 45.6456C26.4747 46.3533 26.4624 46.3875 25.5851 46.5619C24.9429 46.6893 24.3045 46.8349 23.6645 46.9725C23.6512 46.948 23.6384 46.9235 23.6256 46.8995Z" fill="#6B6869"/>
<path d="M20.9691 43.6245C21.2693 43.7456 21.4256 44.073 21.5893 44.3669C21.7269 44.6133 21.4347 44.6554 21.3072 44.769C21.288 44.7861 21.2587 44.7925 21.2357 44.8058C20.4917 45.241 20.4912 45.241 20.0443 44.5285C20.0181 44.4869 19.9888 44.4346 19.9915 44.3893C19.9989 44.2901 20.7989 43.6309 20.9691 43.6245Z" fill="#8C8E92"/>
<path d="M56.6155 37.8074C56.6245 37.9338 56.5312 37.9525 56.4395 37.985C55.7568 38.2309 55.0741 38.4757 54.3952 38.7317C54.2235 38.7962 54.1173 38.7786 54.0432 38.601C53.9621 38.4074 54.0256 38.3061 54.216 38.2373C54.8731 37.9999 55.5248 37.7477 56.1824 37.5119C56.4325 37.4213 56.6256 37.5631 56.6155 37.8074Z" fill="#A8ABAF"/>
<path d="M34.2384 51.5938C33.8336 51.3346 33.7237 50.9954 33.7952 50.6018C33.8709 50.1836 34.2427 49.8764 34.7051 49.8018C35.1552 49.7287 35.4677 49.8679 35.7008 50.2775C35.2944 50.294 34.8752 50.1847 34.5413 50.4562C34.192 50.7394 34.1808 51.1399 34.2384 51.5938Z" fill="#8C8D91"/>
<path d="M28.1984 31.3047C28.2896 31.3074 28.3152 31.3708 28.3387 31.4322C28.44 31.6956 28.5429 31.958 28.6395 32.2231C28.736 32.4887 28.5408 32.5687 28.3744 32.501C28.1013 32.3906 27.8277 32.3543 27.5477 32.3628C27.2635 32.3719 27.1856 32.1858 27.1189 31.9772C27.0368 31.7196 27.2864 31.7426 27.4032 31.678C27.6613 31.5362 27.9365 31.4252 28.1984 31.3047Z" fill="#A8A9AD"/>
<path d="M24.3685 42.3196C24.3499 42.4391 24.264 42.4658 24.2016 42.51C23.544 42.9778 22.8811 43.438 22.2299 43.9143C22.0699 44.0311 21.9909 44.0076 21.8757 43.8615C21.7451 43.6962 21.8763 43.6615 21.9701 43.5938C22.6235 43.1207 23.2757 42.6455 23.9307 42.1746C24.0085 42.1186 24.0885 41.9991 24.2037 42.1218C24.2656 42.1879 24.3205 42.2615 24.3685 42.3196Z" fill="#A9AAAD"/>
<path d="M51.8688 32.3564C51.7221 32.342 51.5856 32.3473 51.5333 32.2119C51.4795 32.0721 51.5947 32.0295 51.6955 31.9868C52.2864 31.7356 52.8763 31.4833 53.4683 31.2348C53.6117 31.1745 53.7829 31.0636 53.8859 31.2721C53.9707 31.4439 53.8224 31.55 53.6981 31.6225C53.1184 31.9617 52.5056 32.2231 51.8688 32.3564Z" fill="#A9AAAE"/>
<path d="M51.6837 28.6579C51.7947 28.627 51.8176 28.7113 51.8517 28.7838C52.0267 29.1603 52.1968 29.5395 52.3792 29.9118C52.5296 30.2185 52.2363 30.1902 52.1088 30.2713C51.984 30.3507 51.8363 30.4691 51.7344 30.2105C51.5829 29.8249 51.4005 29.451 51.2379 29.0697C51.1765 28.9246 51.4576 28.6702 51.6837 28.6579Z" fill="#A8AAAD"/>
<path d="M54.9776 19.6327C54.9456 19.6359 54.9307 19.6418 54.9195 19.638C54.6992 19.5554 54.3451 19.5255 54.2859 19.3778C54.1451 19.0263 54.1456 18.6188 54.0864 18.2343C54.0635 18.0844 54.1419 18.0492 54.2709 18.0508C54.5989 18.0546 54.8021 18.2242 54.8912 18.5271C54.9984 18.8892 54.9995 19.2615 54.9776 19.6327Z" fill="#A8A9AE"/>
<path d="M56.6091 38.9085C56.6437 39.1101 56.5195 39.0989 56.4133 39.1075C55.9765 39.1427 55.5675 39.2696 55.2037 39.5128C55.0363 39.6248 54.9547 39.5672 54.9104 39.4125C54.8731 39.2808 54.6816 39.1107 54.9445 39.0136C55.3856 38.8509 55.8277 38.6888 56.2784 38.5571C56.6133 38.46 56.5083 38.8051 56.6091 38.9085Z" fill="#E4BA4A"/>
<path d="M18.8965 44.4351C18.6059 44.6425 18.4629 44.8404 18.472 45.122C18.4784 45.3348 18.3611 45.3759 18.1856 45.3119C17.9115 45.2121 17.6699 45.0841 17.6608 44.7353C17.6507 44.3657 17.8853 44.1631 18.2453 44.2516C18.4357 44.298 18.624 44.3577 18.8965 44.4351Z" fill="#514F50"/>
<path d="M47.4496 16.1167C47.5445 16.1274 47.7056 16.1343 47.8608 16.1663C47.9339 16.1818 48.0715 16.1615 48.0341 16.321C48.0123 16.4148 47.9947 16.5034 47.8752 16.5226C47.3883 16.601 46.9035 16.6943 46.4149 16.7567C46.1819 16.786 46.2757 16.6239 46.3291 16.5252C46.5643 16.0906 46.9872 16.138 47.4496 16.1167Z" fill="#6A6768"/>
<path d="M53.0864 30.7751C53.0907 30.8908 53.0064 30.9159 52.936 30.9479C52.6085 31.0978 52.2811 31.2471 51.9515 31.3916C51.8176 31.4503 51.6869 31.4583 51.6165 31.2935C51.5467 31.1308 51.5931 31.0066 51.7536 30.9303C52.0549 30.7868 52.3547 30.6396 52.6597 30.5058C52.9355 30.3842 53.0016 30.6044 53.0864 30.7751Z" fill="#797A7C"/>
<path d="M37.4341 57.2504C37.1291 57.2253 36.8896 57.0893 36.8901 56.7987C36.8907 56.4936 37.1616 56.3752 37.4341 56.3731C37.7029 56.3709 37.9765 56.4733 37.9776 56.7859C37.9787 57.1155 37.6923 57.1987 37.4341 57.2504Z" fill="#A8AAAC"/>
<path d="M52.3899 26.2236C52.3909 26.5239 51.8528 27.0353 51.5824 27.0172C51.4091 27.0055 51.3067 26.638 51.4395 26.4465C51.6373 26.1612 51.9563 25.9964 52.2549 25.9015C52.4981 25.8236 52.3131 26.1372 52.3899 26.2236Z" fill="#514E4F"/>
<path d="M19.8613 45.3183C19.9013 45.6345 19.728 45.7231 19.4544 45.7188C19.1691 45.714 19.0459 45.5721 19.0459 45.2921C19.0453 44.9935 19.2011 44.9007 19.4779 44.9044C19.7691 44.9081 19.9035 45.0281 19.8613 45.3183Z" fill="#A5A6AA"/>
<path d="M37.9029 40.3246C37.5552 40.3598 37.4811 40.1753 37.4245 39.995C37.3589 39.7843 37.5637 39.8105 37.6677 39.7582C37.7509 39.7166 37.8437 39.6926 37.9344 39.6665C38.0923 39.6217 38.2587 39.5006 38.3568 39.7683C38.4448 40.0078 38.3867 40.1598 38.1525 40.2457C38.0405 40.2867 37.9248 40.3177 37.9029 40.3246Z" fill="#DFB748"/>
<path d="M28.5381 34.0433C28.5563 33.751 28.5851 33.4603 28.5872 33.1691C28.5883 33.0134 28.6699 32.9462 28.7915 32.9185C28.9211 32.8886 28.9291 33.0171 28.9691 33.0945C28.9936 33.1414 29.0048 33.1953 29.024 33.2454C29.272 33.8833 29.2629 33.8993 28.5381 34.0433Z" fill="#A6A8AB"/>
<path d="M21.3472 45.9167C21.3328 46.0714 20.8427 46.4266 20.7392 46.3749C20.5787 46.2943 20.3883 46.2111 20.3509 46.0106C20.3232 45.8634 20.8 45.5594 20.9877 45.6095C21.1621 45.6559 21.2464 45.8213 21.3472 45.9167Z" fill="#504E4D"/>
<path d="M54.9099 20.5728C54.7803 21.1354 54.6869 21.6805 54.4448 22.2981C54.4171 21.9674 54.424 21.7402 54.3749 21.5258C54.2709 21.0704 54.3787 20.7408 54.9099 20.5728Z" fill="#A5A5AA"/>
<path d="M21.3269 54.2585C21.0496 54.2767 20.9248 54.1199 20.9077 53.8756C20.8885 53.6041 21.1184 53.706 21.2539 53.6703C21.2923 53.6601 21.3344 53.6521 21.3733 53.6575C21.5317 53.6777 21.7973 53.4271 21.8096 53.8228C21.8197 54.1577 21.624 54.2703 21.3269 54.2585Z" fill="#97969F"/>
<path d="M46.9824 37.527C46.9365 37.5318 46.8533 37.4379 46.808 37.2982C46.7541 37.1323 46.8731 37.0891 46.992 37.0502C47.144 37.0001 47.296 36.9489 47.4501 36.9057C47.5408 36.8801 47.6517 36.7713 47.7157 36.9382C47.7659 37.0683 47.7877 37.2065 47.6539 37.3019C47.4891 37.4193 47.3051 37.4982 46.9824 37.527Z" fill="#DDB550"/>
<path d="M51.3317 17.9502C51.3147 18.1716 51.1739 18.2606 50.9808 18.2606C50.7728 18.2606 50.6576 18.1385 50.6667 17.9284C50.6763 17.7038 50.8096 17.578 51.0293 17.5913C51.24 17.6036 51.3109 17.7662 51.3317 17.9502Z" fill="#A6A7A8"/>
<path d="M27.3771 44.6852C27.2272 44.6794 27.0779 44.561 27.1008 44.4879C27.1696 44.2682 27.3717 44.1279 27.5819 44.0623C27.7168 44.0202 27.7931 44.1732 27.7797 44.2996C27.7547 44.5375 27.5472 44.6015 27.3771 44.6852Z" fill="#787979"/>
<path d="M54.5835 25.3612C54.5771 25.1692 54.5696 25.0172 54.7963 25.0252C55.0117 25.0332 55.1083 25.1463 55.1131 25.3532C55.1184 25.6076 54.8848 25.6145 54.7477 25.6369C54.4907 25.6791 54.632 25.4348 54.5835 25.3612Z" fill="#4B4B4B"/>
<path d="M28.0251 38.045C27.8507 38.03 27.7408 37.9308 27.7365 37.7692C27.7323 37.5986 27.8592 37.4983 28.0219 37.5058C28.1909 37.5132 28.3392 37.5996 28.3328 37.7964C28.3264 37.9794 28.1653 38.0103 28.0251 38.045Z" fill="#A2A2A5"/>
<path d="M20.3867 43.2732C20.2752 43.4178 20.1675 43.582 19.9808 43.6327C19.8581 43.6663 19.7643 43.5676 19.7797 43.4439C19.8043 43.2476 19.9579 43.1426 20.1339 43.0988C20.2496 43.07 20.3328 43.1564 20.3867 43.2732Z" fill="#A4A4A4"/>
<path d="M24.2768 40.5342C24.1653 40.6713 24.0539 40.7993 23.8843 40.7961C23.7664 40.794 23.6293 40.7182 23.6517 40.5742C23.6811 40.3865 23.8496 40.3337 24.0155 40.3246C24.1547 40.3166 24.2176 40.4233 24.2768 40.5342Z" fill="#A6A6A6"/>
<path d="M17.0528 52.2825C17.0512 52.7715 16.7419 53.0585 16.2229 53.0537C15.7301 53.0489 15.4208 52.7587 15.4165 52.2958C15.4117 51.8057 15.7616 51.4307 16.2293 51.4249C16.6912 51.419 17.0544 51.7971 17.0528 52.2825Z" fill="#28251F"/>
<path d="M64.7909 52.7921C64.7872 53.3073 64.4725 53.607 63.9472 53.5963C63.4416 53.5857 63.0784 53.1974 63.0853 52.6753C63.0923 52.1697 63.3989 51.8603 63.8859 51.8678C64.4192 51.8758 64.7947 52.2593 64.7909 52.7921Z" fill="#26221E"/>
<path d="M42.9915 18.5688C43.0005 18.4355 42.9808 18.2424 43.1947 18.2621C43.4544 18.2861 43.6 18.4829 43.6219 18.7283C43.6384 18.916 43.496 19.028 43.3099 19.0136C43.0517 18.9944 42.9947 18.8013 42.9915 18.5688Z" fill="#282525"/>
<path d="M20.7872 51.3422C20.3136 51.3454 19.9557 51.0244 19.9563 50.5966C19.9568 50.179 20.4112 49.7609 20.88 49.7465C21.3472 49.7321 21.7856 50.1172 21.7845 50.5406C21.7835 50.9694 21.3248 51.3385 20.7872 51.3422Z" fill="#242426"/>
<path d="M26.9616 34.4845C26.4757 34.4866 26.1541 34.1896 26.1467 33.7314C26.1397 33.3021 26.4704 32.9688 26.9072 32.9634C27.352 32.9581 27.7611 33.308 27.7717 33.7021C27.7829 34.1096 27.3957 34.4829 26.9616 34.4845Z" fill="#232425"/>
<path d="M16.2368 52.6507C15.9867 52.6358 15.8027 52.5361 15.8064 52.2715C15.8096 52.0342 15.9445 51.8459 16.1915 51.8395C16.4256 51.8337 16.6027 51.9739 16.6133 52.2305C16.6235 52.4838 16.4821 52.6241 16.2368 52.6507Z" fill="#969A99"/>
<path d="M63.5963 52.6931C63.6299 52.5086 63.7141 52.3689 63.9296 52.3731C64.1771 52.3785 64.2907 52.5209 64.2805 52.7582C64.2725 52.9523 64.1829 53.1049 63.9675 53.0905C63.7403 53.075 63.6144 52.9289 63.5963 52.6931Z" fill="#A8A7AF"/>
<path d="M21.2437 50.5051C21.2075 50.7307 21.0309 50.7984 20.8416 50.8294C20.6789 50.8555 20.5227 50.7926 20.5184 50.6118C20.5131 50.4054 20.6768 50.3078 20.864 50.2854C21.0309 50.2656 21.1899 50.296 21.2437 50.5051Z" fill="#989799"/>
<path d="M27.2619 33.7164C27.2331 33.9126 27.0944 33.9862 26.9227 33.9873C26.752 33.9884 26.584 33.9212 26.5941 33.7206C26.6032 33.5441 26.736 33.4444 26.9237 33.4438C27.1099 33.4438 27.2213 33.5366 27.2619 33.7164Z" fill="#929296"/>
</svg>
