<svg width="65" height="43" viewBox="0 0 65 43" fill="none" xmlns="http://www.w3.org/2000/svg">
<path d="M64.0595 21.5971C61.4339 22.9388 58.7826 24.2423 56.1441 25.5682C44.8141 31.267 33.4819 36.9687 22.1497 42.6653C21.8944 42.7932 21.6139 42.888 21.3457 43C21.2686 42.937 21.2167 42.8651 21.1883 42.7796C21.1808 42.7572 21.1755 42.7325 21.1701 42.7054C21.1674 42.6695 21.1674 42.6382 21.1674 42.6022C21.1674 42.0112 21.4046 41.5233 21.9094 41.155C21.9736 41.1078 22.0459 41.063 22.1208 41.0201C22.1337 41.0112 22.1492 41.0019 22.1647 40.993C23.3167 40.4244 24.4863 39.8763 24.8524 38.6288C24.8883 38.6088 24.922 38.5906 24.9579 38.5728C25.0119 38.5415 25.066 38.5121 25.1227 38.4827H25.1254C28.6428 36.577 32.2657 34.824 35.8495 33.0219C44.3992 28.7208 52.9254 24.3814 61.5035 20.1228C62.5136 19.6218 62.9724 19.0126 62.9338 17.9767C62.8616 15.8823 62.9285 13.7834 62.9055 11.6867C62.8926 10.507 62.7068 10.4169 61.5062 11.0126C53.6395 14.923 45.8012 18.8781 37.9703 22.8399C36.1123 23.7792 34.2211 24.6648 32.3894 25.6401C31.9049 25.8964 31.3975 26.1769 30.7765 26.0467C30.7508 26.042 30.7278 26.0378 30.7016 26.0308C30.6989 26.0261 30.6941 26.0219 30.6914 26.0173C30.6165 25.916 30.5522 25.824 30.4955 25.7339C30.4773 25.7045 30.4596 25.6779 30.4441 25.6508C30.4441 25.6485 30.4441 25.6485 30.4441 25.6485C30.2407 25.3067 30.1813 25.0415 30.2739 24.7675C30.3097 24.6662 30.3665 24.5654 30.4441 24.4598C30.5421 24.3249 30.6759 24.1835 30.8434 24.0238C30.8921 23.979 30.9441 23.9318 31.0008 23.8823C31.0137 23.8711 31.0292 23.8576 31.0447 23.8441C31.3589 23.599 31.7069 23.3922 32.0238 23.1475C32.0393 23.1386 32.0548 23.1251 32.0703 23.1139C32.1062 23.0915 32.1453 23.0714 32.1838 23.0555C32.2406 23.0261 32.2973 23.0037 32.3567 22.986C32.4317 22.9612 32.5087 22.9412 32.5858 22.923C32.6399 22.9118 32.6913 22.9006 32.7453 22.8917C33.0933 22.7502 33.4771 22.669 33.8095 22.5075H33.8122C33.9101 22.458 34.0001 22.4043 34.0879 22.3366C34.1703 22.2712 34.2474 22.1975 34.317 22.1097C34.3635 21.8739 34.1649 21.7703 33.9872 21.6825C29.7461 19.5523 25.5975 17.2778 21.2456 15.3249C21.2327 15.3184 21.2172 15.3137 21.2044 15.3067C21.1423 15.3044 21.0807 15.3044 21.0186 15.302C20.9721 15.2997 20.9233 15.2974 20.8741 15.2908C20.8302 15.2885 20.7842 15.282 20.7376 15.2708C20.7167 15.2684 20.6991 15.2642 20.6782 15.2596C20.2403 15.2301 20.0187 14.5495 19.4748 14.8529C19.4363 14.873 19.3978 14.8977 19.3565 14.9295C19.3207 14.9589 19.2923 14.9879 19.2688 15.0196C19.0959 15.2535 19.2302 15.5611 19.1039 15.8086C19.091 15.8357 19.0755 15.8627 19.0552 15.887C19.0498 15.8935 19.0477 15.8982 19.0423 15.9029C18.8566 16.0602 18.6328 16.1433 18.3877 16.1863C18.3363 16.1951 18.2795 16.2021 18.2255 16.2087C18.2228 16.2087 18.2228 16.2087 18.2201 16.2063C17.4546 15.9907 16.7357 16.1863 16.0195 16.3702C16.0168 16.3679 16.0142 16.3679 16.012 16.3702C15.9398 16.3903 15.8675 16.4085 15.7958 16.4262C15.7545 16.4351 15.7106 16.4463 15.6694 16.4556C15.5511 16.4309 15.4451 16.3814 15.3525 16.3142C15.3343 16.2736 15.3188 16.2358 15.306 16.1975V16.1951C15.3033 16.1863 15.3006 16.1751 15.2985 16.1657C15.2985 16.1634 15.2985 16.1611 15.2985 16.1611C15.162 15.6372 15.6951 15.4328 16.0923 15.2035C16.2802 15.0957 16.466 14.9902 16.6565 14.8889C16.6592 14.8912 16.6592 14.8889 16.6592 14.8889C16.9295 14.7404 17.2031 14.599 17.4814 14.4598C17.4868 14.4598 17.4916 14.4575 17.4943 14.4533C17.7496 14.3231 18.0124 14.197 18.2726 14.0714C18.4969 13.9636 18.7907 13.8511 18.5584 13.6176C18.5375 13.5952 18.5097 13.5705 18.476 13.5434C18.5793 13.4939 18.6847 13.4421 18.7875 13.3907C17.0248 12.366 15.2781 12.3324 14.0694 13.303C14.2113 13.3637 14.3221 13.4356 14.4045 13.514C14.3762 13.5322 14.3451 13.5523 14.3167 13.5724C14.0668 13.7633 13.8248 13.9902 13.4844 14.0285C13.0283 14.0826 12.8377 13.9407 13.1621 13.5588C14.2777 12.1587 15.852 11.8058 17.9782 12.5117C18.4883 12.6825 18.9599 12.9365 19.4497 13.1522C19.9807 13.3632 20.3645 13.0378 20.7483 12.8445C28.3779 9.00372 35.9919 5.14098 43.6423 1.33425C44.0315 1.14097 44.3457 0.916417 44.4645 0.527528C46.1855 -0.513089 47.3327 -0.0210251 48.0644 2.06488C47.5596 2.49392 47.1576 2.08495 46.7321 1.93229C46.2787 1.77029 45.8402 1.46497 45.3692 1.88981C45.3617 1.90755 45.351 1.92342 45.3462 1.93929C45.2611 2.1279 45.2611 2.2829 45.3151 2.41362C45.4158 2.65638 45.6963 2.81604 45.9746 2.9463C46.003 2.95984 46.034 2.97337 46.0624 2.98691C48.415 4.09242 50.7366 5.24555 52.9656 6.53313C53.6122 6.90848 54.2438 7.26329 55.0189 7.3758C55.0345 7.38468 55.05 7.39401 55.0655 7.40522C55.0912 7.42109 55.1142 7.43649 55.1378 7.45237C55.1506 7.4589 55.1608 7.46591 55.1715 7.47478C55.1817 7.48131 55.1945 7.49065 55.2052 7.49952C55.5018 7.71054 55.7646 7.96451 56.1431 8.06815H56.1457C56.1532 8.07048 56.1586 8.07282 56.1666 8.07282C56.1768 8.07749 56.1896 8.07935 56.2025 8.08169C56.2282 8.08822 56.2592 8.09523 56.2876 8.09989C56.339 8.13351 56.3909 8.16525 56.445 8.1942H56.4477C57.0841 8.57608 57.8084 8.83005 58.432 9.23248C58.7719 9.4505 59.1354 9.55368 59.517 9.45704C59.5711 9.4435 59.6252 9.42576 59.6792 9.40101C59.7306 9.38281 59.7799 9.35853 59.8313 9.33145C60.4859 9.16292 60.419 8.43043 60.9934 8.19887C62.6191 7.81465 64.0082 8.82819 64.0237 10.4664C64.0467 13.0868 64.0264 15.7068 64.0338 18.3273C64.0365 18.7227 63.9718 19.1004 64.3791 19.4622C65.3068 20.2843 65.1906 21.0173 64.0595 21.5971Z" fill="#3C3F40"/>
<path d="M21 43C20.9244 42.9384 20.8735 42.8682 20.8456 42.7847C19.1596 41.9678 17.4615 41.1687 15.7933 40.3235C14.7117 39.7766 14.7999 38.8306 15.9498 38.2353V38.2331H15.9472C13.7939 37.179 11.6479 36.1207 9.4919 35.0712C9.20101 34.9307 8.88019 34.8386 8.57197 34.7223C7.97286 35.0297 7.36377 35.3285 6.77253 35.6509C6.33042 35.8904 5.93608 35.9319 5.57956 35.5479C3.93659 34.7401 2.28628 33.9473 0.658542 33.1172C-0.170554 32.6957 -0.233563 31.8523 0.565078 31.3675C0.941558 31.139 1.04552 30.926 1.04027 30.577C1.02032 28.7197 1.00982 26.8601 0.997216 25C1.79061 27.1607 1.84154 29.3847 0.969388 31.4683C0.582406 32.3947 0.767233 32.6889 1.52019 33.0998C2.83708 33.8178 4.22959 34.4281 5.53388 35.1638C5.65254 35.2628 5.76911 35.3307 5.88778 35.3722C5.92821 35.3878 5.97126 35.3987 6.0117 35.4051C6.28946 35.4621 6.5751 35.3832 6.88595 35.2185C7.28763 35.001 7.68984 34.7752 8.13721 34.6365C8.20809 34.6146 8.27898 34.595 8.35196 34.5772C8.4659 34.5508 8.57932 34.5312 8.70061 34.5179C9.90094 34.6958 10.844 35.3412 11.84 35.8662C13.1669 36.5668 14.6229 37.0937 15.808 37.9872C15.8558 38.0223 15.9068 38.0597 15.9545 38.1012C15.9645 38.1076 15.9771 38.1167 15.9876 38.1254C16.0711 38.3603 15.9398 38.5555 15.8206 38.7466C15.4237 39.3966 15.6768 39.8578 16.3562 40.2154C17.4736 40.8015 18.6639 41.2781 19.7535 41.9039C20.1273 42.1192 20.5799 42.2661 20.8251 42.6109C20.8729 42.6766 20.9134 42.7514 20.9438 42.8326C20.9596 42.8878 20.9795 42.9448 21 43Z" fill="#58A4C5"/>
<path d="M29.9359 34.3706C29.9286 35.0685 29.5012 35.5728 28.867 35.9524C28.2375 36.3321 27.5834 36.6796 26.9035 36.9775C25.7485 37.4823 24.7731 38.107 24.3966 39.2345H24.394C24.3609 39.3323 24.3331 39.4347 24.3079 39.5414C24.2927 41.0963 22.8773 41.4372 21.6924 41.9778C21.5002 42.0208 21.3564 41.9981 21.2424 41.9368C21.1086 41.8593 21.0177 41.7233 20.9416 41.5661C20.9316 41.5458 20.9211 41.5231 20.9112 41.5024C20.9038 41.382 20.9012 41.2592 20.9012 41.1388V41.1364C20.9064 39.9362 21.2603 38.768 21.3485 37.5701C21.3989 36.8906 21.9654 36.7107 22.6426 36.9294C23.3781 37.1659 23.522 36.8406 23.5194 36.2792C23.512 33.8994 23.5141 31.5197 23.5167 29.138C23.5194 28.4038 23.1099 27.9609 22.4883 27.5699C21.7023 27.0746 20.7673 26.7606 20.1331 26.0698C20.1179 26.0471 20.1027 26.0245 20.0901 26.0018C20.0748 25.9744 20.0622 25.947 20.0496 25.9201C20.0271 25.8587 20.0092 25.7926 20.0019 25.727C20.0045 25.6656 20.0118 25.609 20.0271 25.5566C20.0344 25.5226 20.047 25.4905 20.0601 25.4612C20.1105 25.3497 20.1888 25.2567 20.2827 25.1746C20.3583 25.1066 20.4444 25.0471 20.5353 24.9904C20.583 24.9588 20.6313 24.929 20.6817 24.8974C21.3968 23.9927 21.2708 23.0588 20.204 22.5379C16.8151 20.8787 13.6614 18.8696 10.2243 17.2718C8.10641 16.2878 6.04158 15.1966 3.9568 14.1488C3.45123 13.8943 2.91311 13.6101 3.01181 12.9485C4.44243 11.7894 5.87778 11.6302 7.42653 12.8192C8.02293 13.2781 8.74848 13.6171 9.45355 13.942C10.1586 14.265 10.8789 14.9421 11.6675 13.9623C11.8444 13.7394 12.3547 13.6691 12.6634 14.0261C12.6456 14.1625 12.56 14.3509 12.6282 14.426C12.78 14.5964 12.8934 14.4123 12.9742 14.3079C13.1359 14.0988 13.2472 13.8532 13.5528 13.7668C13.6919 13.8282 13.8006 13.9009 13.8814 13.9803C14.4069 14.469 14.0179 15.2438 14.3387 15.7962C14.4222 15.7552 14.503 15.7122 14.5865 15.6711C14.5865 15.6758 14.5891 15.6801 14.5891 15.6848C14.5944 15.7145 14.5965 15.7415 14.5991 15.7712C14.6369 16.0692 14.6091 16.378 14.7582 16.6575C14.7582 16.6575 14.7582 16.6598 14.7582 16.6622C14.7655 16.6759 14.7734 16.6872 14.7807 16.7009C14.8868 16.751 14.9928 16.801 15.0994 16.8487C15.2233 16.8463 15.342 16.8534 15.4585 16.869C15.4611 16.8667 15.4638 16.8667 15.4659 16.869C16.1935 16.9601 16.8004 17.3464 17.4015 17.6897C18.6726 18.4149 19.9992 19.0533 21.286 19.7578C21.3212 19.7762 21.3543 19.7941 21.3894 19.8126V19.8149C21.3994 19.8196 21.4073 19.8239 21.4173 19.8286C21.4398 19.8399 21.4603 19.8489 21.4829 19.8602C21.5637 19.9013 21.6446 19.9466 21.7228 19.992C21.7354 19.9986 21.748 20.0057 21.7606 20.0099C22.693 20.4783 23.7294 20.8079 24.4266 21.5964C24.4318 21.6167 24.4392 21.6351 24.4444 21.6554C24.4822 21.7692 24.5253 21.8712 24.5757 21.9666C24.7599 22.3212 25.0581 22.5597 25.6141 22.7122C26.8778 23.0578 27.9771 23.7736 29.1017 24.4054C29.3999 24.5711 29.5516 24.7897 29.612 25.0509C29.6451 25.1783 29.655 25.3143 29.6498 25.4598C29.6398 25.753 29.6146 26.0486 29.6624 26.3394C29.6776 26.4438 29.7028 26.5462 29.7406 26.6487C29.7558 26.6874 29.7737 26.7261 29.7936 26.7644C29.8141 26.8055 29.8367 26.8461 29.8619 26.8871C30.1002 29.3816 29.9637 31.8776 29.9359 34.3706Z" fill="#E4E4E8"/>
<path d="M21.1845 24.9523C20.9847 25.0037 20.7996 25.0101 20.6204 24.9879C20.3775 24.9569 20.142 24.8675 19.8891 24.7518C18.3629 24.0541 16.9966 23.1249 15.4478 22.4675C15.4352 22.4587 15.4226 22.4475 15.4126 22.4364C15.39 22.4184 15.3669 22.4008 15.3442 22.3809C14.7823 21.9017 14.2939 21.3447 13.5452 21.0595C13.5352 21.0549 13.5247 21.0507 13.5147 21.0461C13.4921 21.0373 13.469 21.0281 13.449 21.0169C13.3733 20.9836 13.2971 20.9456 13.224 20.9054C13.1378 20.8632 13.0521 20.8183 12.9633 20.7804H12.9506C11.8929 20.8716 11.0959 20.2702 10.1743 19.9868C10.1438 19.9669 10.116 19.9465 10.0934 19.922C10.0755 19.9063 10.0602 19.891 10.0476 19.8729C9.9162 19.7169 9.90095 19.5095 9.82472 19.3289C9.79423 19.253 9.75375 19.184 9.69329 19.1238C9.69329 19.1215 9.69066 19.1215 9.68803 19.1192C9.53873 18.9141 9.3011 18.8294 9.06558 18.7358C9.01774 18.7159 8.96938 18.6979 8.92154 18.6757C8.90629 18.6692 8.89367 18.6599 8.87843 18.6534C8.96675 18.5886 9.05297 18.5266 9.14181 18.4641C8.05094 17.896 6.96271 17.3275 5.87499 16.7594C5.80139 16.864 5.74093 16.9645 5.69257 17.0626C5.64473 17.0404 5.59899 17.0159 5.55062 16.9913C4.27523 16.376 4.20951 16.3964 4.23212 17.6798C4.24999 18.8076 4.07283 19.9461 4.40929 21.0628C4.41665 21.0896 4.42453 21.1142 4.43189 21.1406C4.43452 21.147 4.43715 21.1563 4.43925 21.1628C4.18849 22.4688 2.91572 23.6143 1.51888 23.7925C1.30124 23.8193 1.1062 23.7814 1 23.5832C1.00263 23.3962 1.00526 23.211 1.00999 23.024C1.46789 22.6563 1.92632 22.2887 2.59661 22.2642C3.07974 21.8633 3.06502 21.3415 3.06502 20.8179C3.0624 18.5937 3.05504 16.3696 3.07238 14.1454C3.07501 13.7574 2.88996 13.3208 3.32525 13C4.18796 14.1098 5.65577 14.4329 6.87596 15.0482C10.6995 16.9714 14.6398 18.7164 18.2941 20.9007C18.9496 21.2906 19.6431 21.7054 20.3869 21.8947C21.7559 22.2424 21.7917 23.2119 21.9814 24.1411C22.0955 24.687 21.6655 24.8453 21.1845 24.9523Z" fill="#CAD2D8"/>
<path d="M10.801 28.913C10.7759 28.9326 10.7456 28.9504 10.7132 28.9677C10.6954 28.9787 10.6755 28.9896 10.6552 28.9983C10.0613 29.1475 9.60856 28.8532 9.13755 28.6227C7.96967 28.0513 6.8755 27.3704 5.66476 26.8652C5.59157 26.8347 5.51891 26.8036 5.4431 26.7753C5.36992 26.7863 5.24916 26.7708 5.16133 26.7731C5.08344 26.7731 5.03064 26.784 5.05312 26.8324C5.26222 27.2586 5.37776 27.689 5.43579 28.1221C5.51891 28.7327 5.48597 29.3502 5.45095 29.9672C5.41331 30.5865 5.37305 31.2085 5.43317 31.8214C5.50113 32.4891 5.33489 33.1284 6.11487 33.6797C6.64339 34.0553 6.50747 34.5915 6.00143 34.8572C5.87805 34.9229 5.7322 34.9735 5.57118 35C3.93543 34.1918 2.29235 33.3986 0.671751 32.568C-0.153708 32.1463 -0.216441 31.3025 0.578698 30.8174C0.953526 30.5887 1.05704 30.3756 1.05181 30.0265C1.03194 28.1682 1.02149 26.3076 1.00894 24.4465C1.06697 23.9522 0.543149 23.9148 0.238895 23.7063C0.0224664 23.557 -0.0956801 23.3722 0.0977461 23.1527C0.291695 22.9286 0.518056 22.9747 0.737098 23.1395C1.47944 23.6031 2.57674 23.5899 2.98659 24.53C3.13767 24.8727 3.70645 24.3192 4.03318 24.629C4.07082 24.6468 4.10637 24.6665 4.13879 24.6884C4.16126 24.6993 4.18427 24.7148 4.20413 24.7281C4.20675 24.7304 4.20936 24.7326 4.21145 24.7326C4.24177 24.7523 4.26686 24.7723 4.29457 24.792C4.30189 24.7965 4.30712 24.8029 4.31496 24.8075C5.3213 25.451 6.50172 25.838 7.54622 26.4244C7.564 26.4353 7.57916 26.444 7.59641 26.4531C7.59902 26.4554 7.59902 26.4554 7.60164 26.4577C7.6168 26.4664 7.63457 26.4755 7.64921 26.4842C7.67692 26.5106 7.70462 26.5348 7.73233 26.5567C8.04181 26.8004 8.46212 26.8689 8.81918 27.0377C8.86936 27.0619 8.91746 27.0884 8.96242 27.1167C8.97758 27.1254 8.99535 27.1345 9.00999 27.1473C9.04031 27.1646 9.07063 27.1847 9.09782 27.2066C9.10304 27.213 9.11036 27.2198 9.11768 27.2244C9.46741 27.5649 9.99333 27.6219 10.4314 27.8241C10.4366 27.8263 10.444 27.8305 10.4492 27.8327C10.4821 27.8501 10.5145 27.8679 10.5449 27.8875C10.6154 27.9313 10.6808 27.982 10.7388 28.0367C10.7613 28.0564 10.7817 28.0783 10.7994 28.1006C10.8146 28.1161 10.8298 28.1312 10.8423 28.1467C11.0253 28.4361 11.0932 28.7062 10.801 28.913Z" fill="#202527"/>
<path d="M19.3418 28.9172C19.1197 28.9863 18.897 29.073 18.6947 29.1766C18.9978 29.0038 19.3213 28.8656 19.6449 28.7444C20.0898 28.3643 21.0604 28.3297 20.7773 27.4657C20.595 27.3966 20.4333 27.31 20.2515 27.2409C19.1596 26.9474 18.6338 27.8454 17.7845 28.0703C17.6227 28.1394 17.4609 28.2085 17.2992 28.2776C17.5014 28.174 17.7241 28.0528 17.9258 27.915C18.3302 27.5174 19.2604 27.5349 19.2404 26.7746C18.7956 26.5497 18.3507 26.3424 17.9258 26.1355C17.2582 26.6709 16.5507 27.1552 15.7014 27.4316C15.0139 27.7081 14.4477 28.1403 13.6792 28.4338C14.4676 27.95 15.2765 27.6215 16.0249 27.2243C16.4898 26.7921 17.5418 26.7921 17.4 25.9111C17.036 25.7558 16.8338 25.3927 16.3684 25.3927C15.6809 24.8222 14.7712 24.5633 13.9823 24.1315C13.5978 23.9587 13.2139 23.8375 12.8094 24.0795C12.5263 23.3017 11.4543 23.0943 11.0499 22.4206C9.77619 21.4875 8.27979 20.848 6.80334 20.1914C5.93408 19.8112 5.12467 19.984 4.68034 20.8305C4.01275 22.1091 2.92132 22.9386 1.2831 23.1805C1.18226 23.215 1.10084 23.2321 1 23.2496C1.2831 23.5952 6.90472 26.723 8.03713 26.8607C8.05762 26.7746 8.05762 26.6879 8.05762 26.6188C8.30028 26.3594 8.56343 26.135 8.84653 25.9447C8.60387 26.1521 8.40166 26.3769 8.26037 26.6188C8.21993 26.7225 8.13904 26.7916 8.03767 26.8607C8.11855 27.6731 8.98835 27.1547 9.39279 27.4312C9.63544 28.0703 10.2421 28.1569 10.9097 28.1224C11.395 27.9496 11.8399 27.7077 12.2847 27.4482C11.8598 27.7077 11.4759 27.9837 11.1728 28.3643C11.2737 28.6062 11.5163 28.8481 11.1324 29.0554C12.3252 29.6604 13.4781 30.2996 14.6914 30.8695C15.6216 31.3018 16.4504 32.1312 17.7041 31.5437C17.7446 31.5437 17.8859 31.751 17.9872 31.8722C18.0476 31.7685 18.1285 31.6824 18.1285 31.5787C18.2094 30.4899 19.3014 30.5419 20.0698 30.4553C21.0404 30.3341 20.7169 31.0944 20.7778 31.5441C20.9191 32.7016 20.4947 33.8771 21 35V28.5891C20.3119 28.1744 19.8875 28.8135 19.3418 28.9172ZM13.6593 26.7575C13.8814 26.6714 14.0837 26.5156 14.3064 26.4811C13.6593 26.8096 12.9513 27.0856 12.3247 27.4312C12.749 27.1893 13.1945 26.9478 13.6593 26.7575ZM16.8742 30.1097C17.3396 29.9024 17.7845 29.6434 18.2294 29.4185C17.7845 29.6605 17.3601 29.9369 16.8742 30.1097Z" fill="#6B6C6D"/>
<path d="M9 26C8.7 26.2264 8.45 26.4718 8.27533 26.7359C8.22533 26.8491 8.12533 26.9245 8 27C8.02533 26.9059 8.02533 26.8114 8.02533 26.7359C8.32467 26.4527 8.65 26.2077 9 26Z" fill="#6B6C6D"/>
<path d="M43.6895 1C44.501 1.76447 43.5098 1.86487 43.1199 2.06661C39.8032 3.78514 36.4607 5.46444 33.1309 7.16336C28.9588 9.29191 24.7973 11.4363 20.6152 13.5495C20.1371 13.7909 19.5833 14.3845 19 13.6298C22.2886 11.6782 25.8108 10.0732 29.2125 8.28881C33.8093 5.87727 38.4791 3.57406 43.1199 1.22696C43.2995 1.13543 43.4992 1.07472 43.6895 1Z" fill="#FFD900"/>
<path d="M45.0337 1.51114C45.552 0.613654 46.2399 1.11713 46.8255 1.38046C47.2553 1.57327 47.555 2.01264 48.1229 1.94409C48.6812 2.74591 49.6672 2.96486 50.4799 3.41754C52.6252 4.61139 58.8494 7.74567 61 8.93163C60.9296 9.26892 60.3963 9.84735 60.0193 9.99825C58.9384 10.0855 54.6409 6.8832 53.6261 6.80874C51.5032 5.77368 49.4816 4.57441 47.4104 3.4565C46.77 3.11082 45.9621 3.02157 45.4635 2.40319C45.2342 2.11718 44.8908 1.93177 45.0337 1.51114Z" fill="#B7B8BA"/>
<path d="M3 22.0771C2.33333 22.3849 1.66667 22.6922 1 23C1.32771 22.1651 1.98047 21.836 3 22.0771Z" fill="#344E62"/>
<path d="M25.171 39C24.7779 37.999 25.0405 37.2397 26.1881 36.8049C26.2653 36.7757 26.3308 36.7197 26.409 36.697C29.8487 35.6904 31.0977 33.6178 30.4964 30.4439C30.2407 29.092 30.4536 27.6699 30.4536 26.2798C30.5371 26.1258 30.7015 26.1215 30.8594 26.1055C40.9021 20.9504 50.9427 15.791 60.996 10.6523C61.5127 10.388 62.0321 9.75777 62.6699 10.0988C63.2336 10.3998 62.9029 11.0762 62.9103 11.5784C62.9425 13.8041 62.858 16.0331 62.9552 18.256C63.0006 19.3012 62.5885 19.8641 61.5909 20.3733C52.3408 25.0932 43.1213 29.8612 33.8849 34.6032C30.9926 36.0875 28.076 37.535 25.171 39Z" fill="#FFD900"/>
<path d="M22 41.3188C21.188 41.6377 21.3657 42.4774 20.9365 43C20.9033 42.9837 20.8706 42.9678 20.8374 42.9491C19.1444 42.0888 17.4393 41.2472 15.7643 40.3571C14.6781 39.7812 14.7667 38.785 15.9214 38.1581V38.1557H15.9187C15.8681 38.0726 15.8223 37.9871 15.779 37.8968C14.9439 36.1925 15.373 33.4065 16.7639 31.8017C16.7845 31.7114 16.8072 31.6235 16.8377 31.5404C16.871 31.4342 16.9089 31.3348 16.9569 31.2397C17.3043 30.523 17.985 30.1344 18.9262 30.0211C19.4033 29.961 19.7713 30.0278 20.0096 30.2406C20.0856 30.3078 20.1494 30.3885 20.1973 30.488C20.2785 30.6431 20.3218 30.8396 20.3265 31.0754C20.3444 31.8824 20.3492 32.687 20.3318 33.494C20.3218 34.0051 20.3951 34.4859 20.7051 34.923C21.5808 36.5115 21.0784 38.211 21.1696 39.8619C21.1822 40.0723 21.1696 40.2736 21.2049 40.4633C21.2381 40.6252 21.3067 40.7755 21.4564 40.9143C21.5555 40.9907 21.6568 41.0647 21.7559 41.1387C21.8376 41.1987 21.9188 41.2587 22 41.3188Z" fill="#202427"/>
<path d="M22.1002 13.5445C22.5428 12.7211 23.2211 12.9957 23.8537 13.306C27.7485 15.2141 31.6349 17.136 35.5234 19.0539C36.1344 19.3553 36.7117 19.7258 37.36 19.9491C38.451 20.3245 37.9447 20.5804 37.3327 20.8737C36.7443 21.1096 36.2112 20.9883 35.6702 20.7297C31.7759 18.8667 27.8774 17.0107 24.0726 15.0179C23.6089 14.7754 23.1137 14.5801 22.588 14.4455C22.0312 14.3028 21.8728 13.9961 22.1002 13.5445Z" fill="#ABABAD"/>
<path d="M54.9997 11.352C54.8145 11.7411 54.3047 11.7536 53.9791 11.9804C52.7192 12.1316 51.878 11.3724 50.9532 10.8988C48.3466 9.56408 45.6353 8.38504 43.0355 7.04323C41.8577 6.43525 40.7193 5.77347 39.4788 5.25311C39.2374 5.1517 38.9023 5.05653 39.0269 4.71407C39.6524 3.37759 40.502 4.27554 41.2895 4.55173C42.5326 4.48013 43.3811 5.22864 44.3338 5.68185C47.5012 7.18955 50.576 8.83424 53.7671 10.3122C54.2427 10.5323 55.0186 10.6497 54.9997 11.352Z" fill="#AEAEB0"/>
<path d="M36.0609 6.59053C36.4335 5.91307 36.9787 5.86047 37.7016 6.22011C41.2218 7.97288 44.751 9.71216 48.277 11.4568C49.26 11.9432 50.2085 12.4894 51.2329 12.9017C52.3773 13.362 52.1406 13.6623 51.1846 13.9977C49.5838 14.0534 48.4681 13.0995 47.2239 12.5146C43.6729 10.8468 40.1958 9.06392 36.666 7.3606C36.3019 7.18528 35.8306 7.09132 36.0609 6.59053Z" fill="#AFAFB2"/>
<path d="M25.0937 11.6525C25.492 10.7333 26.2507 10.9553 26.9319 11.2933C31.4928 13.5578 36.0332 15.8517 40.5904 18.1216C41.1826 18.4168 41.0931 18.6217 40.5752 18.8604C39.7733 19.1429 39.1247 18.9642 38.3413 18.6144C34.0196 16.6847 29.966 14.3588 25.6706 12.394C25.3234 12.2351 24.7807 12.1877 25.0937 11.6525Z" fill="#AEAFB0"/>
<path d="M30.1042 8.43588C30.6368 7.65807 31.3457 8.10852 31.8571 8.35878C36.3989 10.5817 40.9077 12.8534 45.4405 15.0899C45.8545 15.2941 46.2834 15.3802 45.7539 15.8239C44.4502 16.3402 43.4487 15.6012 42.4701 15.1449C38.5024 13.2948 34.7003 11.1972 30.6831 9.41885C30.1595 9.18708 29.8174 8.96749 30.1042 8.43588Z" fill="#BABABC"/>
<path d="M21.0206 15C22.8775 15.4759 24.3552 16.6195 26.0077 17.4492C28.8533 18.8783 31.6113 20.4555 34.4232 21.9436C34.9064 22.199 35.31 22.3589 34.6675 22.8279C33.7433 23.1822 33.0591 22.9499 32.1339 22.4903C29.5913 21.2266 27.1825 19.7537 24.6239 18.5259C23.5697 18.02 22.598 17.4088 21.6227 16.7917C21.2158 16.2539 20.9172 15.684 21.0206 15Z" fill="#ADADAF"/>
<path d="M30.2536 9C30.185 9.87789 31.25 9.75196 31.7223 10.0396C33.0395 10.8428 34.7379 11.1991 36.0214 12.0307C38.1809 13.4298 40.7092 14.2596 42.911 15.5817C43.787 16.1079 44.8145 16.5832 46 16.5031C45.2729 17.2202 44.3198 16.956 43.4234 16.9368C42.4532 17.0581 41.8942 16.373 41.1778 16.0433C37.699 14.4423 34.3128 12.7003 30.9079 10.9866C30.4924 10.7773 30.1251 10.5383 30.0303 10.0991C30.0458 9.72402 29.8606 9.31919 30.2536 9Z" fill="#676769"/>
<path d="M58 10.5095C57.2112 11.6009 56.4131 10.5326 55.6193 10.5164C55.1997 10.7252 54.8568 10.5206 54.5205 10.3558C50.6284 8.45222 46.7885 6.47315 42.8461 4.64357C42.582 4.52092 42.2901 4.38022 42.4418 4.04328C42.4002 3.73735 41.6606 3.57212 42.1904 3.1514C42.6067 2.93063 43.0153 2.96164 43.419 3.17732C46.9435 5.06151 50.7106 6.59534 54.2181 8.50452C55.4084 9.26634 56.9822 9.51488 58 10.5095Z" fill="#646466"/>
<path d="M57.2872 11C55.8382 10.6947 54.6665 9.93135 53.4557 9.27017C50.8748 8.30328 48.6909 6.74349 46.1099 5.7766C44.6805 5.25109 43.4496 4.35203 42 3.80934C42.2382 3.06314 42.6353 2.75788 43.5486 3.21555C46.6457 4.75905 49.7625 6.26818 52.8797 7.81169C53.118 7.93063 53.2768 8.18479 53.4557 8.37157C55.1033 8.60899 56.2945 9.59262 57.7044 10.2199C58.4583 10.5591 57.5651 10.7793 57.2872 11Z" fill="#B4B4B6"/>
<path d="M24.1697 12C25.1108 12.4875 26.0336 13.0039 26.9963 13.4563C29.3585 14.5664 31.6367 15.8063 33.9735 16.9542C35.4474 17.6782 37.0576 18.2601 38.3742 19.2397C38.8369 19.5837 39.4532 19.407 40 19.4645C39.1612 20.2431 38.3413 20.081 37.3787 19.5608C34.2499 17.8707 30.9245 16.4742 27.8184 14.7342C26.9834 14.2663 26.046 13.7686 25.0634 13.4129C24.5393 13.2231 23.6192 12.8651 24.1697 12Z" fill="#626264"/>
<path d="M39.1725 5C41.3358 6.07045 43.3911 7.32754 45.5565 8.35983C47.8512 9.45355 49.9942 10.7832 52.3521 11.7797C52.8988 12.0105 53.4815 12.2805 54 12.6044C53.6009 13.1131 53.0621 13.0749 52.5681 12.8055C51.1497 12.0315 49.7443 11.2501 48.2722 10.5468C45.4365 9.19152 42.6942 7.68126 39.9273 6.21334C39.4448 5.95689 38.6471 5.78469 39.1725 5Z" fill="#666668"/>
<path d="M22.2452 13C22.2365 13.9946 23.4057 13.6446 23.9614 13.9905C25.4409 14.9104 27.0532 15.7353 28.6954 16.4256C31.2134 17.4834 33.4685 18.9234 36.0573 19.8793C36.6953 20.115 37.2205 20.589 38 20.5802C36.7638 21.4877 35.6975 20.7144 34.7504 20.2192C31.4333 18.4849 28.0286 16.8826 24.6527 15.2359C23.9935 14.9145 23.3431 14.5844 22.6779 14.2717C22.1592 14.0278 21.7014 13.5902 22.2452 13Z" fill="#5F5F61"/>
<path d="M24.7962 20.8622C23.8932 20.4001 22.9901 19.9376 22.0871 19.4755C22.0455 18.9913 21.805 18.4258 22.3629 18.1017C22.8738 17.805 23.3112 18.2301 23.7269 18.4499C26.3255 19.8241 28.9568 21.1479 31.5086 22.5966C31.7559 22.737 32.0538 22.8279 31.9917 23.1775C32.0506 23.7021 31.5696 23.7559 31.2155 23.9204C30.6182 24.0742 30.0919 24.0146 29.5615 23.6578C28.4984 22.9433 27.3212 22.3995 26.124 21.8927C25.5856 21.6643 25.1662 21.2839 24.7962 20.8622Z" fill="#ACACAF"/>
<path d="M36.1761 6C37.4143 6.9657 38.9689 7.46874 40.3289 8.25577C42.2133 9.34723 44.2496 10.202 46.1262 11.3181C47.6526 12.2258 49.3685 12.8796 51 13.6462C50.4111 14.2277 49.4309 13.9808 49.1942 13.6954C48.3753 12.7098 47.0486 12.6847 46.0377 12.0963C43.7408 10.7594 41.3985 9.46278 38.9559 8.35879C38.1963 8.01539 37.599 7.47523 36.7932 7.19633C36.3567 7.04505 35.6756 6.68263 36.1761 6Z" fill="#68686A"/>
<path d="M22.175 17C22.8892 17.4597 23.6918 17.8777 24.4124 18.2312C25.3909 18.7107 26.3608 19.2368 27.3436 19.728C28.3088 20.21 29.3512 20.5941 30.229 21.1827C31.0007 21.7001 32.0757 21.7796 32.6497 22.3528C33.3713 23.0734 34.1265 23.0889 35 23.0792C34.5006 23.536 33.8046 23.6775 33.2215 24C31.1366 23.1369 29.2622 21.9348 27.2674 20.9267C25.7847 20.1775 24.2941 19.4386 22.8583 18.6152C22.2006 18.2379 21.729 17.7744 22.175 17Z" fill="#646366"/>
<path d="M21.7046 16.5141C21.8534 17.4414 22.6387 17.8399 23.5662 18.2609C26.0436 19.3846 28.4518 20.6129 30.8817 21.8071C31.6169 22.1684 32.4185 22.4523 33 23C32.7422 22.9991 32.4845 22.9978 32.2267 22.9969C28.958 21.4369 25.6894 19.877 22.497 18.353C21.9128 18.7084 22.8719 19.341 21.97 19.5378L21.9722 19.5382C21.5706 18.2757 20.4164 17.622 19.0997 17.0739C18.624 16.8758 17.9984 16.7347 18 16.1313C18.1891 15.8761 18.4965 15.8707 18.8071 15.8721C19.4518 15.7278 19.7744 16.245 20.2981 16.369C21.0719 16.5518 20.7112 16.1789 20.6469 15.939C20.5597 15.6955 20.4387 15.4511 20.6561 15.2112C20.7281 15.1406 20.8 15.0705 20.8719 15C21.1504 15.5045 21.4278 16.0095 21.7046 16.5141Z" fill="#2B2B2D"/>
<path d="M30.5258 10C33.9168 11.7042 37.3149 13.3955 40.8056 14.9614C41.9061 15.4552 43.0621 15.9191 44 16.642C43.896 16.7225 43.7915 16.8031 43.687 16.8836C43.0799 17.1861 42.6177 16.8262 42.1431 16.6282C40.1505 15.7977 38.3201 14.7287 36.3231 13.9031C34.8595 12.9422 33.0199 12.5294 31.4997 11.6513C31.0601 11.1953 30.0523 11.2135 30 10.4328C30.1751 10.2883 30.3501 10.1441 30.5258 10Z" fill="#28282A"/>
<path d="M18.3639 16.3805C19.0237 16.76 19.6652 17.1738 20.3471 17.5113C21.4107 18.0378 22.1943 18.7008 21.9576 20C19.9719 18.8807 17.9857 17.7619 16 16.6426C16.7194 15.9772 17.4887 15.7299 18.3639 16.3805Z" fill="#AAAAAD"/>
<path d="M41.7915 4.00034C43.5532 4.90003 45.2573 5.89539 47.0918 6.67475C49.1597 7.55329 51.0828 8.62578 53.0836 9.59116C53.5165 9.80011 54.0087 9.90282 54.4018 10.1655C54.254 10.4953 55.6085 10.4948 54.6608 11C51.5457 9.45583 48.4327 7.9099 45.3154 6.36926C43.8808 5.66044 42.4388 4.96263 41 4.25997C41.1787 3.9902 41.4864 3.99901 41.7915 4.00034Z" fill="#2A2A2C"/>
<path d="M45.1972 2C45.8389 2.35033 46.077 3.14763 47.1296 3.11145C47.4874 3.09909 47.9734 3.67336 48.5344 3.91791C50.3501 4.70926 52.0314 5.7392 53.7648 6.67709C54.1315 7.0952 59.9104 9.17614 60 9.88322C59.9609 9.9194 59.8469 9.96382 59.8073 10C58.5051 9.68401 52.996 7.2477 52.2752 6.73891C51.2371 6.00572 50.0469 5.60273 48.9198 5.08157C47.8671 4.59477 47.1567 3.63764 45.7957 3.51354C45.3696 3.4737 44.6503 2.74189 45.1972 2Z" fill="#676669"/>
<path d="M19 13.0029C18.9235 13.0827 18.8448 13.1601 18.7635 13.2369C18.4269 13.5648 18.0664 13.8596 17.6774 14.1082C17.6747 14.1131 17.6698 14.1151 17.6643 14.1151C17.3988 14.2883 17.1202 14.4381 16.8252 14.5622C16.8252 14.5622 16.8252 14.5646 16.8225 14.5622C16.3466 14.7684 15.8337 14.911 15.271 14.9742C15.1814 14.9859 15.0923 14.9932 15 15C15.0869 14.9577 15.171 14.9134 15.2579 14.8711C16.3991 14.3019 17.5376 13.7307 18.6793 13.1591C18.7848 13.1075 18.8924 13.0535 18.9973 13C18.9973 13.0029 19 13.0029 19 13.0029Z" fill="#6AB3D6"/>
<path d="M39.4675 10.1822C39.6288 10.5148 39.806 10.7697 40 11C39.6611 10.6933 39.3385 10.3867 39 10.0548C39.1772 9.9778 39.3708 9.95191 39.4675 10.1822Z" fill="#636365"/>
<path d="M42.6579 12.4883C43.1116 12.667 43.5463 12.8454 44 13C42.9932 12.6784 41.9868 12.3454 41 12C41.5532 12.1549 42.1447 12.286 42.6579 12.4883Z" fill="#636365"/>
<path d="M45 13.4216C44.6171 13.4038 44.2978 13.1757 44 13C44.3193 13.1401 44.6591 13.2806 45 13.4216Z" fill="#636365"/>
<path d="M25.0298 21C26.0486 21.331 26.9633 21.8946 27.9187 22.2023C29.3597 22.6662 30.3973 23.6996 32 23.8563C31.0789 24.3741 30.8824 25.0356 31.3618 25.8333C31.2829 26.0012 31.1024 26.0008 30.9218 25.9999C31.2069 24.6279 30.4641 23.7723 28.8072 23.3466C27.7164 23.0668 26.9428 22.032 25.5006 22.5517C25.1418 22.681 24.9955 22.3424 25.0001 22.068C25.0058 21.7118 25.0195 21.3557 25.0298 21Z" fill="#6E6D70"/>
<path d="M47.9831 15C47.1842 14.8833 46.7447 14.2011 45.9458 14.1177C45.746 13.8514 45.3668 13.6849 45.2267 13.4022C45.2267 13.4191 45.2065 13.4191 45.2065 13.4191C44.5273 13.6019 44.1081 13.1026 43.6288 12.8865C41.731 12.0543 39.8934 11.1556 38.076 10.2235C37.8363 10.0904 37.5082 10.1503 37.4879 9.93416C37.228 10.0837 37.1172 9.82409 36.7774 9.70781C36.7577 9.70781 36.7177 9.70781 36.6975 9.69094C35.6189 9.39136 34.7001 8.79219 33.6614 8.40917C33.2423 8.24274 32.8428 8.00973 33.0622 7.51042C33.3221 7.17755 33.6417 6.82782 34.1808 7.09411C35.4793 7.75985 36.9771 8.1593 37.9961 9.15791C40.1533 9.89022 42.1107 10.8888 44.0879 11.871C44.6275 12.1373 45.1266 12.4205 45.6459 12.6863C46.7847 12.9526 47.7834 13.4852 48.642 14.068C49.6407 14.7501 48.2622 14.7004 47.9831 15Z" fill="#AFAFB1"/>
<path d="M48 15.5986C47.5437 16.3078 46.8501 15.9025 46.4731 15.6999C43.9751 14.3828 41.4178 13.1841 38.8795 11.9679C38.5227 11.7991 38.336 11.6347 38.0585 11.3479C37.0561 11.0394 36.6992 10.6846 36.0843 10.4486C35.47 10.2118 34.8551 9.8912 34.2207 9.60437C33.5265 9.26665 32.595 8.97937 33.1898 8C33.2886 8.2364 33.3685 8.40526 33.7052 8.54034C34.7563 8.96271 35.7671 9.48594 36.7981 9.95874C36.9371 10.1443 37.1946 10.2289 37.4526 10.3136C37.5716 10.3136 37.6276 10.5094 37.727 10.459C37.7471 10.6787 37.9284 10.6175 38.1663 10.7526C38.2261 10.7864 38.3054 10.8201 38.3646 10.8539C38.7812 11.0736 39.1777 11.2763 39.5938 11.4785C39.8909 11.6302 40.1685 11.7824 40.4661 11.9341C41.4574 12.4241 42.4688 12.8969 43.4797 13.3525C43.5394 13.3863 43.6187 13.4201 43.6779 13.4539C43.7768 13.5047 43.8762 13.5552 43.9751 13.6227C44.2526 13.7916 44.5503 14.0113 44.9072 14.028C45.0658 14.0784 45.2439 14.1464 45.4031 14.1797C45.4031 14.1797 45.4226 14.1797 45.4226 14.1968C45.6605 14.2644 45.8984 14.3319 46.1364 14.3823C46.8501 14.6867 47.623 14.9231 48 15.5986Z" fill="#636365"/>
<path d="M19.4338 13.8865C18.1495 14.5669 16.6472 14.9671 15.628 16C15.6222 15.9975 15.617 15.995 15.6112 15.993V15.9905C15.1982 15.775 14.7736 15.5595 15.139 15.0463C15.2312 15.003 15.3206 14.9577 15.4128 14.9144C16.6245 14.332 17.8334 13.7476 19.0457 13.1628C19.1577 13.11 19.2719 13.0548 19.3833 13H19.3862C20.2552 13.2638 20.1374 13.5152 19.4338 13.8865Z" fill="#FFD900"/>
<path d="M43.5021 17.9578C42.2954 18.1972 41.5713 17.3591 40.7266 16.9318C39.5601 16.3504 38.3534 15.7863 37.1467 15.256C36.8651 15.1361 36.664 14.9655 36.5433 14.7261C36.5031 14.6408 36.3824 14.7603 36.362 14.6577C36.1207 14.8629 35.9196 14.6919 35.638 14.4525C35.3162 14.162 34.8941 14.1962 34.5117 14.0936C33.7271 13.3586 32.6008 13.0845 31.6756 12.5204C31.3136 12.2126 30.5091 12.5204 30.3885 11.888L30.3681 11.8711C29.9455 11.3412 29.1008 11.4776 28.5778 11.0845C28.3569 10.9135 27.9139 10.9135 28.0147 10.52C28.7387 9.37448 29.4225 10.4689 30.1466 10.5373C30.589 10.9819 31.5142 10.9135 31.7153 11.6148C33.4246 12.2304 35.1548 12.846 36.5825 13.8893C38.7749 14.6244 40.6655 15.8556 42.7368 16.7622C43.0789 16.9158 43.36 17.1384 43.7627 17.1552C44.2465 17.5469 43.9043 17.7695 43.5021 17.9578Z" fill="#BFBEC1"/>
<path d="M31.1803 12C31.1803 12.0351 31.1803 12.0701 31.16 12.1052V12.158C31.12 12.2281 31.0603 12.2804 31 12.3332C31 12.2281 31.04 12.1229 31.16 12.0178L31.1803 12Z" fill="#C4C4C4"/>
<path d="M20.9946 17.0062C20.3546 16.6024 19.4544 16.5321 19.0149 15.8819C18.8346 15.4954 18.5552 15.1262 19.0149 14.7397C19.8346 14.9154 20.3152 15.583 21.0549 15.8819C21.3946 16.0575 21.3946 16.3911 21.4949 16.6548C21.6346 17.0943 21.3946 17.2873 20.9946 17.0062Z" fill="#626061"/>
<path d="M21.0549 15.8818C20.3152 15.5829 19.8347 14.9154 19.0149 14.7397C20.0352 13.5629 20.2752 14.8629 20.8347 15.1964C20.8949 15.4251 20.9744 15.6537 21.0549 15.8818Z" fill="#A9A9AA"/>
<path d="M43.0944 18.0781C42.5147 18.6403 42.0144 18.6225 41.1547 18.2538C39.0347 17.3403 36.9744 16.3387 34.9744 15.2673C33.4144 14.4241 31.8144 13.6689 30.3147 12.7727C29.3947 12.2284 28.1947 12.0176 27.5147 11.1214C27.4747 10.8755 27.4347 10.6295 27.6944 10.436C28.4747 10.5766 28.0624 10.592 28.8795 11.0062C29.2683 11.2029 29.7067 11.3172 30.1147 11.6128C30.1749 11.6306 30.2347 11.6658 30.2949 11.7182C30.6347 12.0166 31.1349 12.0344 31.5349 12.2804C32.5552 12.6847 33.5749 13.1063 34.3749 13.8263C34.9152 14.2657 35.3339 14.3468 36.2949 14.6344C38.6747 15.6009 40.8949 16.8306 43.0944 18.0781Z" fill="#8E8E8F"/>
<path d="M17.5611 32.0783C15.9413 33.3141 16.3211 34.9851 16.2875 36.5681C16.2773 37.0843 16.2464 37.601 16.2235 38.1173C16.2208 38.1623 16.2208 38.2077 16.2181 38.2527H16.2155C14.0283 37.17 11.8485 36.0832 9.65867 35.0053C9.3632 34.861 9.03734 34.7663 8.72427 34.6469C8.56 34.6333 8.41387 34.6043 8.28267 34.5588C7.58453 34.3377 7.26613 33.7606 6.92213 33.2082C6.90133 33.1768 6.88107 33.1426 6.86027 33.1113C6.83733 33.0686 6.81387 33.0232 6.79094 32.9806C6.9088 33.0213 7.04267 33.0504 7.18133 33.0799C6.97867 32.2975 6.6448 31.5714 5.97227 30.9961C5.96694 31.1381 5.96213 31.2824 5.9568 31.4248C5.84107 31.213 5.72587 30.9985 5.61013 30.7867C5.5872 30.6354 5.57173 30.4822 5.5616 30.329C5.52053 29.6999 5.57973 29.0642 5.54613 28.435C5.528 27.9886 5.46133 27.5445 5.28427 27.1093C5.2768 27.0891 5.27147 27.0709 5.26613 27.0507C5.22773 26.8633 5.35573 26.6581 5.672 26.645C7.37387 27.5042 9.0736 28.3634 10.776 29.2225H10.7787C10.8608 29.2291 10.9403 29.2361 11.0197 29.2473C12.3755 29.4347 13.3456 30.3365 14.5525 30.7989C15.3637 31.11 16.0469 31.6717 17.048 31.5138C17.1275 31.5002 17.2021 31.5002 17.2661 31.5091C17.5301 31.5461 17.6587 31.7625 17.5611 32.0783Z" fill="#BFAA30"/>
<path d="M8.72425 34.6468C8.11571 34.9626 7.49705 35.2694 6.89651 35.6006C6.44745 35.8466 6.04691 35.8892 5.68478 35.4948C5.81064 35.4404 5.91304 35.38 5.99784 35.3144C6.47518 34.9537 6.31358 34.4754 5.82344 34.2004C5.17118 33.8326 5.17384 33.3909 5.17118 32.8652C5.17118 31.9293 5.17864 30.9914 5.16851 30.053C5.15304 28.8374 5.42024 27.5791 4.38824 26.4473C4.82451 26.8398 5.29171 26.4473 5.67198 26.6436C5.71571 26.8103 5.75145 26.9771 5.77971 27.1443C6.01331 28.4186 5.91038 29.7106 5.97225 30.9961C5.96691 31.138 5.96211 31.2823 5.95678 31.4247C5.94131 31.7583 5.92851 32.0899 5.92584 32.4235C5.91838 33.612 5.92051 33.7001 6.92211 33.2082C6.90131 33.1768 6.88104 33.1426 6.86024 33.1112C6.83731 33.0686 6.81385 33.0231 6.79091 32.9805C6.90878 33.0212 7.04264 33.0503 7.18131 33.0798C7.58931 33.5783 7.95678 34.1034 8.50078 34.4983C8.57278 34.5499 8.64744 34.5995 8.72425 34.6468Z" fill="#3B3F3F"/>
<path d="M21.817 40.9437C21.1114 40.9488 21.1584 40.5164 21.1621 40.0925C21.1717 38.8965 21.1392 37.6996 21.1845 36.505C21.2048 35.9681 21.0506 35.5605 20.5434 35.2626C20.3594 33.1264 20.5146 30.9752 20.1712 28.846C20.1338 28.423 20.1994 28 20.1808 27.5765C20.2325 26.7965 19.6282 25.8708 20.8218 25.3442C24.6736 27.1816 24.6741 27.1816 24.6762 30.9363C24.6773 32.7338 24.6576 34.5318 24.6869 36.3293C24.6992 37.0877 24.6069 37.3927 23.665 36.8811C22.4448 36.2187 22.3386 36.2974 22.353 37.5131C22.3669 38.6829 22.0234 39.8034 21.817 40.9437Z" fill="#B6BEC5"/>
<path d="M20.8224 25.3437C20.3275 26.0544 20.6571 26.8381 20.5659 27.5844C20.4933 27.6631 20.4011 27.7137 20.2891 27.7376C20.0549 27.7498 19.8528 27.6697 19.6555 27.5732C19.3365 27.398 18.9973 27.2546 18.6576 27.1122C18.2288 26.915 17.8016 26.7145 17.3829 26.5004C17.1893 26.41 16.992 26.3261 16.7936 26.2437C16.4325 26.0825 16.1008 25.8783 15.7392 25.7171C14.9477 25.1948 13.9184 24.9432 13.3845 24.1253C13.2149 23.7182 13.2053 23.3073 13.3435 22.8918C13.536 22.4547 13.936 22.2397 14.4224 22.1174C14.8208 22.0284 15.2101 22.0237 15.5744 22.2214C16.9691 22.9841 18.4059 23.6858 19.8293 24.4068C20.1936 24.5914 20.5941 24.7347 20.8085 25.0861C20.8139 25.1732 20.8181 25.2585 20.8224 25.3437Z" fill="#D9DCDF"/>
<path d="M26.56 35.3183C26.56 33.4374 26.6144 31.7847 26.5354 30.1371C26.4992 29.3801 26.9317 29.0699 27.5786 28.7935C28.0672 28.5846 28.5365 28.341 29.2053 28.022C29.2053 29.9605 29.1872 31.7435 29.2149 33.526C29.225 34.1903 28.6005 34.2722 28.1658 34.5233C27.7157 34.7833 27.2266 34.9923 26.56 35.3183Z" fill="#4D5048"/>
<path d="M20.8096 25.0883C18.8453 24.5036 17.1947 23.414 15.4304 22.507C15.2485 22.2189 15.4997 21.5565 15.7845 21.4572C16.1856 21.4473 16.7157 21.9289 17.1899 22.2419C17.7397 22.6049 18.2661 22.9333 19.0256 23.1764C19.5963 23.3592 20.4603 23.741 20.8224 24.1354C21.1579 24.5008 21.4443 24.3397 21.7163 24.5772C21.4837 24.7299 21.0421 24.9355 20.8096 25.0883Z" fill="#86888B"/>
<path d="M27.2549 27.3177C27.3018 27.1017 27.4522 26.9635 27.6874 27.0216C27.9088 27.0764 28.2277 27.0844 28.2325 27.395C28.2357 27.6053 28.0885 27.8011 27.88 27.8002C27.561 27.7983 27.3621 27.5796 27.2549 27.3177Z" fill="#4F5153"/>
<path d="M29.4965 26.8056C29.4154 27.0033 29.2965 27.1663 29.0453 27.1284C28.7776 27.0881 28.5749 26.9316 28.5589 26.6857C28.5429 26.4374 28.7696 26.384 28.9909 26.4271C29.2245 26.4725 29.513 26.4997 29.4965 26.8056Z" fill="#414245"/>
<path d="M26.3477 28.4703C26.1173 28.3387 25.8331 28.2225 25.9019 27.9105C25.9317 27.7756 26.0293 27.6247 26.2347 27.6819C26.4997 27.7559 26.8293 27.8163 26.7781 28.1522C26.7509 28.3312 26.6016 28.4712 26.3477 28.4703Z" fill="#424347"/>
<path d="M11.9643 20.8393C11.9461 20.8595 11.9285 20.8801 11.9157 20.9026C11.9029 20.9115 11.8949 20.9208 11.8928 20.9297C11.4768 21.4348 11.184 22.0189 10.6581 22.4452C10.5989 22.4972 10.5376 22.5422 10.4709 22.5872C9.37492 22.0349 8.20159 21.5725 7.20532 20.9073C6.24799 20.2669 5.42346 20.1858 4.51252 20.7742C4.47679 20.799 4.43786 20.8239 4.39946 20.851C3.74506 20.7133 3.89119 20.2444 3.88852 19.8565C3.87572 18.7425 3.87572 17.6261 3.88319 16.5121C3.89066 15.3803 4.02186 15.3124 5.12586 15.8605C5.41866 16.0071 5.69332 16.1809 5.97546 16.3407C5.90079 16.4465 5.79039 16.5393 5.79039 16.6475C5.79039 18.1213 5.61226 18.066 6.54239 18.0524C7.17919 18.0431 7.68212 18.5551 8.24959 18.8099C8.32426 18.7556 8.40106 18.7017 8.47572 18.6474C8.53972 18.6858 8.60692 18.7219 8.67359 18.7556C8.83786 18.846 8.99946 18.936 9.16159 19.0282C9.20266 19.0531 9.24373 19.0779 9.28746 19.1004C9.35946 19.1411 9.43146 19.1772 9.50559 19.2133C9.71626 19.3126 9.93173 19.4096 10.1168 19.545C10.1397 19.5585 10.1632 19.5763 10.1861 19.5946C10.1861 19.5946 10.1888 19.5946 10.1888 19.597C10.8501 19.9329 11.7253 20.0369 11.9643 20.8393Z" fill="#E0E3E8"/>
<path d="M9.28904 18.0659C9.27624 18.1694 9.25064 18.2622 9.21224 18.3409C9.11197 18.5644 8.92211 18.6927 8.67304 18.756C8.54717 18.7897 8.40371 18.8056 8.24957 18.8103C8.32424 18.756 8.40104 18.7021 8.47571 18.6478C8.65811 18.517 8.84051 18.3882 9.02237 18.2575C9.11197 18.1919 9.19944 18.1287 9.28904 18.0659Z" fill="#70B4D6"/>
<path d="M11.9547 20.9258C11.3029 20.5379 10.6517 20.15 10 19.7621C10.0283 19.5803 10.6725 18.8046 10.8768 18.7783C11.4043 18.7891 12.9381 19.5902 13.3856 20.1523C13.4928 20.7028 13.4496 21.1947 12.7424 21.4284C12.3456 21.4242 11.9365 21.4322 11.9547 20.9258Z" fill="#8D8B87"/>
<path d="M16.1392 21.5737C16.0464 21.7499 15.5232 22.3289 15.4304 22.506C15.2251 22.2821 14.9477 22.2896 14.6624 22.3219C13.2725 21.7602 13.1035 21.3732 13.8245 20.4082C14.6619 20.9235 15.1509 21.0528 16.1392 21.5737Z" fill="#1437AD"/>
<path d="M13.8245 20.4081C13.3867 21.2883 14.1403 21.7662 14.6624 22.3218C14.3045 22.4834 13.9461 22.6455 13.5883 22.8076C12.7547 22.5331 12.5152 22.0046 12.7408 21.2776C13.2352 21.0255 12.9163 20.4142 13.3861 20.1514C13.5317 20.2371 13.6779 20.3228 13.8245 20.4081Z" fill="#574C38"/>
<path d="M10.0848 18.5685C10.0795 18.7264 10.0437 18.8482 9.98185 18.9405C9.87892 19.096 9.70719 19.1705 9.50452 19.2131C9.35839 19.2427 9.19412 19.2558 9.03199 19.2694C8.77279 19.1162 8.51092 18.9625 8.24905 18.8093C8.32372 18.755 8.40052 18.7011 8.47519 18.6468C8.65759 18.5161 8.83999 18.3872 9.02185 18.2565C9.11145 18.191 9.19892 18.1282 9.28905 18.0649C9.62559 18.1469 10.0128 18.1628 10.0848 18.5685Z" fill="#FFD900"/>
<path d="M9.0336 19.2697C9.38347 19.0359 9.73333 18.8026 10.0837 18.5688C11.2224 18.9357 10.1931 19.175 10.3525 19.4538C10.2352 19.5564 10.1173 19.659 10 19.762C9.67787 19.5981 9.35573 19.4341 9.0336 19.2697Z" fill="#4D4C41"/>
<path d="M8.51466 26.0532C8.27466 26.264 8.07466 26.4926 7.93493 26.7386C7.89493 26.844 7.81493 26.9143 7.71466 26.9845C7.73493 26.8969 7.73493 26.8089 7.73493 26.7386C7.97439 26.4748 8.23466 26.2467 8.51466 26.0532Z" fill="#555555"/>
<path d="M10.5525 28.276C11.4107 27.0969 12.8693 26.6673 14.2085 26.1641C14.8576 25.9205 14.416 26.4818 14.4075 26.6963C13.2075 27.3034 12.008 27.9106 10.808 28.5177C10.7232 28.4371 10.6379 28.3566 10.5525 28.276Z" fill="#B1B3B3"/>
<path d="M13.6016 24.2078C13.1829 24.5366 12.7685 24.279 12.3525 24.2003C11.7525 23.6372 10.6517 23.5262 10.4693 22.5869C10.6517 21.8186 10.8037 21.0292 11.9525 20.9238C12.1509 21.1567 12.4517 21.2073 12.7408 21.2785C13.0229 21.7886 13.3056 22.2983 13.5877 22.8085C13.592 23.2751 13.5968 23.7412 13.6016 24.2078Z" fill="#061F70"/>
<path d="M10.9963 25.0726C9.91092 25.6259 8.82612 26.1796 7.74079 26.7328C7.31359 26.3492 7.67999 26.0971 7.98239 25.929C8.80372 25.4727 9.65012 25.0478 10.5072 24.6449C11.0971 24.368 11.0112 24.7714 10.9963 25.0726Z" fill="#C1C2C0"/>
<path d="M6.27679 21.9443C5.31146 23.1844 4.11199 23.621 2.97919 24.1283C2.90932 24.1597 2.69172 24.0852 2.66879 24.0239C2.57972 23.7831 2.71786 23.5807 2.93439 23.4444C3.85759 22.8611 4.82666 22.3552 6.27679 21.9443Z" fill="#BDBDBE"/>
<path d="M4.16693 25.0897C4.55573 23.5986 6.24426 23.6801 7.35946 23.0669C6.66133 24.1828 5.42026 24.6428 4.17066 25.093L4.16693 25.0897Z" fill="#C3C3C4"/>
<path d="M9.26613 23.8711C8.39679 24.7556 7.36266 25.4058 6.02933 25.6339C6.76639 24.5625 8.01333 24.2126 9.26613 23.8711Z" fill="#C6C7C8"/>
<path d="M45.6746 13.9505C45.5146 13.9153 45.3344 13.8447 45.1744 13.7919C45.2741 13.8094 45.3941 13.7919 45.5141 13.7567C45.5141 13.7567 45.5344 13.7567 45.5344 13.7388C45.5744 13.8094 45.6144 13.88 45.6746 13.9505Z" fill="#8E8E90"/>
<path d="M17.4944 26.2466C17.4346 27.3887 16.1941 27.3709 15.4544 27.8455C14.6544 28.2493 13.8544 28.6709 13.0544 29.0752C12.8741 29.1632 12.6544 29.2508 12.4944 29.0752C12.2746 28.8292 12.4944 28.6358 12.6944 28.5308C13.5946 28.0567 14.5146 27.6 15.4346 27.1432C15.7344 26.5459 16.7546 26.7038 16.9744 26.0189C17.2346 25.9477 17.3744 26.0531 17.4944 26.2466Z" fill="#BFC1C0"/>
<path d="M27.3232 32.8765C26.9931 32.0229 27.1893 31.4078 28.1941 31.0935C28.5258 30.9895 28.6341 31.1188 28.6901 31.3877C28.8912 32.3509 28.2917 32.7238 27.3232 32.8765Z" fill="#D5964C"/>
<path d="M19.7947 27.3711C19.0144 27.7402 18.2347 28.1089 17.4747 28.478C16.6747 28.9175 15.8949 29.3564 15.0747 29.7602C14.7749 29.9008 14.3147 30.2873 14.0747 29.9186C13.7749 29.497 14.3947 29.3213 14.7349 29.1456C15.5552 28.6889 16.4149 28.285 17.2549 27.863C17.6149 27.3537 18.4352 27.3889 18.7952 26.897C19.1947 26.9672 19.5147 27.1251 19.7947 27.3711Z" fill="#BFC1C0"/>
<path d="M20.5744 27.5815C20.5546 27.968 20.5546 28.3545 20.5344 28.741C19.8944 28.6885 19.5941 29.321 18.9941 29.3561C17.8944 29.7777 17.0741 30.6912 15.7141 30.7437C16.4944 29.6723 17.7941 29.2329 19.0341 28.7059C19.2341 28.1437 20.3141 28.3545 20.3141 27.5989C20.3946 27.5989 20.4746 27.5815 20.5744 27.5815Z" fill="#BFC1C0"/>
<path d="M9.05066 27.5676C9.28959 26.9239 11.672 25.3686 12.36 25.4197C12.4704 25.4281 12.6299 25.4895 12.6699 25.5658C12.792 25.7959 12.5573 25.8971 12.3888 25.9879C11.3115 26.5716 10.3392 27.3292 9.04959 27.5667L9.05066 27.5676Z" fill="#C1C0C2"/>
</svg>
