<svg width="80" height="80" viewBox="0 0 80 80" fill="none" xmlns="http://www.w3.org/2000/svg">
<path d="M70.8597 32.2164C70.8298 33.7204 70.4368 35.0655 69.1898 36.0377C68.1642 35.658 67.0997 35.4095 66.0522 35.1103C65.624 35.2201 65.3002 35.5727 64.8288 35.6041C64.488 35.6271 64.3616 35.9353 64.2405 36.2111C64.1093 36.5108 64.0176 36.8276 63.8624 37.1156C63.7525 37.3193 63.6336 37.6457 63.3829 37.5577C63.0677 37.4463 63.1818 37.09 63.2832 36.8703C63.7562 35.8463 63.5957 35.0399 62.5589 34.4804C62.4581 34.426 62.4106 34.2975 62.3589 34.1903C62.2682 33.8724 62.1413 33.5785 61.8 33.4548C60.7584 33.0777 59.7706 32.5513 58.6757 32.3284C57.9978 32.6223 58.417 33.3727 58.0629 33.8015C56.8053 34.1647 56.0714 33.3583 55.3242 32.5785C55.4581 31.0351 55.4581 31.0345 53.9189 30.4468C51.2922 29.4441 48.6677 28.4367 46.0384 27.4415C45.5728 27.2655 45.1104 27.0255 44.5845 27.1999C44.1989 27.3748 43.928 27.7668 43.4149 27.7028C42.5306 27.5929 42.2949 27.0063 42.2336 26.2532C41.9888 25.8239 41.5349 25.7268 41.1285 25.5705C38.3168 24.4895 35.5024 23.4159 32.6869 22.3444C31.5317 21.9049 31.5301 21.9103 30.8282 22.8959C30.5146 23.1449 30.3285 22.8937 30.184 22.6889C29.7429 22.0633 29.041 21.8884 28.3989 21.6089C28.2357 21.538 28.0362 21.4687 27.8954 21.602C27.1146 22.3412 26.9397 21.7556 26.7973 20.8756C26.345 21.7567 26.1493 22.5156 25.8261 23.2164C25.6826 23.5268 25.6677 24.0079 25.1178 23.9337C25.5173 22.8468 25.8597 21.7343 26.3365 20.6825C26.6789 19.9273 26.4736 19.6388 25.7402 19.4303C25.0282 19.2276 24.3525 18.9017 23.6533 18.6516C23.2997 18.5252 23.0981 18.3193 23.1402 17.9321C23.2778 16.6756 23.5898 15.4889 24.5162 14.5529C24.9738 14.4164 25.3946 14.5609 25.8144 14.7209C40.4613 20.3113 55.1072 25.9044 69.753 31.4969C70.1781 31.6585 70.56 31.8708 70.8597 32.2164Z" fill="black"/>
<path d="M65.9216 34.7662C65.4731 35.8601 65.024 36.954 64.5755 38.0478C64.168 38.7054 63.9957 39.4606 63.6987 40.1641C63.5701 40.4681 63.472 40.8153 63.0773 40.8244C62.5157 40.8377 62.344 41.2164 62.1792 41.6468C61.5035 43.41 60.8464 45.1801 60.1509 46.9364C59.392 48.9838 58.6752 51.0468 57.7616 53.0334C57.1637 53.827 56.3643 53.9694 55.4539 53.7406C55.0789 53.6462 54.7211 53.498 54.3605 53.3604C43.7632 49.3145 33.1664 45.2676 22.5691 41.2212C22.3472 41.1364 22.1243 41.0542 21.9056 40.9614C20.5216 40.3764 20.1056 39.4777 20.5824 38.0313C20.9077 37.0441 21.3141 36.0868 21.7029 35.1241C22.5819 32.7401 23.5131 30.3748 24.4112 27.9966C24.6208 27.4409 24.8011 26.8857 24.5024 26.2505C24.496 26.1844 24.3131 26.2974 24.4272 26.2649C24.4523 26.2574 24.456 26.2788 24.4709 26.315C24.6512 26.7572 24.3637 27.1113 24.2341 27.4862C24.0016 28.1561 23.7611 28.8254 23.4651 29.4697C23.3296 29.7646 23.2555 30.1844 22.76 30.1001C23.5461 28.0446 24.3317 25.9892 25.1179 23.9337C25.7963 23.1817 25.8699 22.1545 26.3179 21.299C26.4683 21.0121 26.416 20.4361 26.8491 20.5188C27.2421 20.594 27.0997 21.1134 27.1221 21.4585C27.1296 21.5694 27.1781 21.6777 27.2112 21.8009C27.6741 21.7588 27.6384 20.9017 28.0283 21.1465C28.7712 21.6126 29.7904 21.5945 30.3067 22.4377C30.4149 22.6142 30.5136 22.7966 30.6165 22.9758C30.7173 23.1374 30.7355 23.3204 30.6725 23.4878C30.1344 24.9204 29.7237 26.4046 28.9579 27.7438C28.5979 27.9662 28.56 27.6446 28.5003 27.4436C28.1968 26.4164 27.1227 26.4169 26.4304 25.915C26.1776 25.7316 26.0619 26.1993 25.9739 26.4233C25.336 28.0484 24.7291 29.6857 24.0971 31.315C23.5424 32.9049 22.9237 34.4692 22.3125 36.0366C22.0395 36.7273 21.7835 37.4249 21.536 38.1246C21.1301 39.2729 21.3472 39.7198 22.4933 40.195C22.6032 40.2404 22.7147 40.2825 22.8256 40.3246C33.5408 44.4169 44.2555 48.5102 54.9733 52.5961C55.656 52.8564 56.36 53.2468 57.0459 52.587C57.3627 52.3332 57.4997 51.9721 57.6304 51.6068C58.5995 48.8964 59.8096 46.2724 60.5445 43.4777C60.6507 43.0745 60.8485 42.7049 61.0587 42.3444C61.8992 40.9006 61.3392 40.1641 59.7557 39.7241C59.5088 39.6553 59.2117 39.7764 59.0101 39.5284C58.9296 38.5988 59.4837 37.8521 59.7429 37.0217C59.8475 36.6873 60.0091 36.3689 60.1429 36.0441C60.4309 35.3774 61.0496 35.0926 61.6283 34.762C61.9451 34.6233 62.1179 34.2724 62.4693 34.1822C63.9515 35.2894 63.9515 35.2894 63.5067 37.4126C63.6528 37.0297 63.7973 36.6457 63.9461 36.2638C64.1547 35.7289 64.2373 35.0708 65.1157 35.3236C65.5349 35.4436 65.5029 34.7433 65.9216 34.7662Z" fill="#111111"/>
<path d="M21.9562 35.1616C21.5706 36.1899 21.168 37.2128 20.8037 38.2485C20.385 39.4384 20.737 40.2091 21.8949 40.6512C33.0144 44.9003 44.137 49.1424 55.2554 53.3947C56.144 53.7344 56.9322 53.7168 57.5957 52.952C57.9397 52.2416 58.3482 51.6331 59.296 51.8821C58.9973 52.6891 58.7221 53.5056 58.3946 54.3003C58.0144 55.2224 57.2613 55.5584 56.2992 55.2816C56.1002 55.2245 55.9088 55.1387 55.7146 55.0645C44.0074 50.5936 32.3013 46.1205 20.5909 41.6592C20.0218 41.4421 19.5152 41.1744 19.1381 40.6901C18.8149 39.584 19.4448 38.7045 19.833 37.7675C20.2656 37.1989 20.3701 36.4885 20.657 35.8571C20.9157 35.2853 21.3072 34.9893 21.9562 35.1616Z" fill="#565656"/>
<path d="M70.8597 32.2166C70.6341 32.143 70.4053 32.0795 70.184 31.9953C54.9611 26.1819 39.7387 20.3675 24.5168 14.5526C25.0229 14.1643 25.5872 13.8822 26.1739 13.6411C27.0293 13.6262 27.8032 13.9489 28.5717 14.2571C36.8677 17.583 45.1877 20.8475 53.5605 23.975C55.8395 24.8262 58.1712 25.5286 60.4432 26.4075C63.488 27.5851 66.4011 29.0929 69.5419 30.0257C69.8064 30.1041 69.9984 30.2977 70.2229 30.4406C70.4645 31.0214 70.7749 31.5787 70.8597 32.2166Z" fill="#5B5B5B"/>
<path d="M70.2229 30.4394C67.8554 29.8799 65.6602 28.8751 63.4304 27.9295C60.816 26.8207 58.1968 25.6884 55.4298 24.9738C55.1434 24.8996 54.8661 24.7887 54.5893 24.6831C51.177 23.3818 47.7808 22.0351 44.3498 20.7855C38.8298 18.7748 33.481 16.3343 27.9658 14.3124C27.3685 14.0932 26.6586 14.1588 26.1738 13.641C26.5296 13.3258 26.944 13.1146 27.3898 12.9604C28.257 13.1514 29.0725 13.5012 29.897 13.8138C33.6992 15.2554 37.5162 16.6612 41.2858 18.1855C44.8554 19.6287 48.5061 20.8559 52.0693 22.3119C57.2517 24.4303 62.5754 26.1754 67.7669 28.2687C68.4789 28.5557 69.2218 28.7898 69.7898 29.3487C69.9338 29.7119 70.0784 30.0757 70.2229 30.4394Z" fill="#6C6C6C"/>
<path d="M30.9104 11.2489C31.1899 11.0868 31.4283 11.2617 31.6693 11.3534C43.5787 15.8985 55.4869 20.4462 67.3952 24.995C67.4779 25.0265 67.5552 25.0724 67.6352 25.1113C67.4395 25.5161 67.0421 25.459 66.7051 25.4884C65.7499 25.5716 64.8085 25.4441 63.8752 25.2377C56.9157 22.6468 49.9941 19.9598 43.0565 17.3161C40.0875 16.1849 37.1013 15.0985 34.1589 13.9012C32.8752 13.2644 31.9691 12.163 30.9104 11.2489Z" fill="#B8B8B8"/>
<path d="M69.7893 29.3486C69.1648 29.4414 68.7696 28.9411 68.2549 28.748C65.2496 27.62 62.2752 26.4045 59.2458 25.3459C57.6112 24.7747 55.9349 24.2403 54.368 23.5672C51.1178 22.1715 47.7914 20.9918 44.5056 19.7027C39.4282 17.7118 34.3194 15.8003 29.225 13.8515C28.5888 13.6078 27.8341 13.6019 27.3904 12.9598C27.7242 12.7763 27.952 12.4131 28.3738 12.3784C29.8378 13.02 31.32 13.6158 32.8149 14.1816C34.8816 14.9646 37.0368 15.516 39.0106 16.5432C39.4224 16.6862 39.8245 16.8504 40.1973 17.0803C41.3989 17.7235 42.6288 18.3192 43.8725 18.8638C46.8661 20.1752 49.9216 21.3368 53.0293 22.3571C55.0848 23.0323 57.1514 23.6664 59.2501 24.1902C60.3722 24.444 61.5125 24.6152 62.6347 24.8723C62.8938 24.8547 63.1434 24.8947 63.3834 24.9928C65.16 25.6787 66.8069 26.6851 68.681 27.1304C68.8261 27.1651 68.945 27.2568 69.0586 27.3523C69.3082 28.0152 69.68 28.6339 69.7893 29.3486Z" fill="#787878"/>
<path d="M38.921 16.7877C36.0197 15.3546 32.8474 14.632 29.8901 13.3456C29.3312 13.1024 28.7642 12.8805 28.3738 12.3781C29.2069 11.9733 29.9274 11.3162 30.9109 11.249C32.1445 11.6298 32.7317 12.8581 33.8005 13.4544C33.8773 13.497 33.9525 13.5434 34.0288 13.5882C35.0976 14.2581 36.2672 14.7461 37.3317 15.4245C37.6405 15.6938 38.0629 15.7722 38.3744 16.0245C38.6176 16.2218 39.0373 16.3226 38.921 16.7877Z" fill="#878787"/>
<path d="M21.9562 35.1612C21.1248 35.3202 20.6602 35.8226 20.4314 36.638C20.3194 37.037 20.2784 37.5239 19.832 37.7666C20.808 35.2109 21.784 32.6556 22.7605 30.0999C23.361 29.5468 23.4106 28.7324 23.7232 28.0439C24.0266 27.3756 24.2565 26.6743 24.5701 25.8535C24.9205 26.4322 25.1413 26.8615 24.9216 27.4284C23.9248 30.0023 22.9434 32.5826 21.9562 35.1612Z" fill="#303030"/>
<path d="M69.0576 27.3526C68.136 27.344 67.3072 27.1211 66.4933 26.6224C65.4773 26 64.2282 25.831 63.2346 25.1238C63.5477 24.6262 63.8778 25.3024 64.1951 25.1094C65.3418 25.1984 66.4885 25.4491 67.6352 25.1115C68.6501 25.5152 68.8218 26.4544 69.0576 27.3526Z" fill="#999999"/>
<path d="M55.4346 32.645C55.8586 32.8866 56.3242 33.0776 56.6965 33.3826C57.1279 33.7373 57.5647 33.7821 58.0639 33.6584C58.7519 34.0514 58.8207 34.716 58.6074 35.3336C58.0794 36.8605 57.5727 38.4008 56.8383 39.8466C56.4709 40.1554 56.3231 39.86 56.3445 39.589C56.3855 39.068 56.1039 39.0274 55.7087 38.9832C54.9749 38.901 54.3098 38.5304 53.5493 38.4909C53.0586 38.4653 52.9973 38.0312 53.1071 37.6013C53.1551 37.4557 53.225 37.3218 53.3103 37.1944C53.9397 36.0274 54.2762 34.7432 54.7951 33.533C54.9402 33.1922 54.9999 32.781 55.4346 32.645Z" fill="#1E1D1D"/>
<path d="M28.7755 27.8056C29.3893 26.196 30.0032 24.5859 30.6171 22.9763C31.272 21.5843 31.2725 21.5832 32.6939 22.1251C35.7381 23.2856 38.784 24.4435 41.824 25.6158C42.1275 25.7326 42.5707 25.7203 42.5941 26.2168C42.5397 26.627 42.4192 27.0142 42.1963 27.3672C42.0949 27.4131 41.9909 27.4216 41.8827 27.3955C38.5371 26.0958 35.1685 24.8552 31.8347 23.5278C31.2181 23.2824 30.9333 23.3582 30.7195 23.9992C30.3819 25.0115 29.9733 26.0003 29.5861 26.995C29.4469 27.3523 29.3365 27.7288 29.0325 27.9971C28.8117 28.115 28.7285 28.0478 28.7755 27.8056Z" fill="#C08290"/>
<path d="M55.4346 32.6453C54.9189 33.9701 54.408 35.297 53.8826 36.6186C53.7663 36.9109 53.7456 37.2709 53.3994 37.4303C53.1861 37.0021 53.3994 36.6175 53.5386 36.2351C53.9242 35.1759 54.3247 34.1221 54.7434 33.0751C54.9802 32.4826 54.8399 32.1429 54.233 31.9135C51.2639 30.7914 48.2992 29.6575 45.337 28.5178C44.6485 28.2527 44.2927 28.4751 44.0538 29.1295C43.6671 30.1882 43.2613 31.2405 42.8463 32.2885C42.6954 32.6698 42.5893 33.0879 42.1845 33.3093C41.648 32.9135 42 32.4623 42.1546 32.0746C42.6656 30.7935 43.144 29.5007 43.6352 28.2127C43.8272 27.7386 44.153 27.3439 44.4095 26.9077C44.8682 26.5535 45.2629 26.9151 45.6448 27.0586C48.7792 28.2341 51.8949 29.4597 55.0373 30.6127C55.8053 30.8949 56.0357 31.2399 55.6549 31.9717C55.5471 32.1781 55.5061 32.4197 55.4346 32.6453Z" fill="#B72A46"/>
<path d="M56.5888 39.9436C57.1792 38.4311 57.7546 36.9127 58.3664 35.4092C58.6389 34.7404 58.2666 34.2231 58.0634 33.6583C57.8549 33.0397 57.9413 32.4967 58.4714 32.0674C58.7632 32.2076 59.0837 32.2562 59.3914 32.3405C60.0858 32.5309 60.6352 32.8861 60.8976 33.5842C61.089 34.0946 61.4944 34.4514 61.7914 34.885C61.345 35.2413 60.7728 35.4226 60.4053 35.8882C60.3114 35.9341 60.2117 35.9554 60.1072 35.9538C59.897 35.9426 59.7018 35.8637 59.4992 35.8194C58.7642 35.5703 58.5792 36.0972 58.3834 36.6087C57.4122 39.1431 56.4501 41.6807 55.4746 44.213C55.3173 44.6215 55.2096 45.0647 54.8266 45.3485C54.7104 45.4018 54.6128 45.3783 54.5338 45.2775C54.4453 44.3175 55.0192 43.5506 55.2837 42.6935C55.5589 42.0418 55.7477 41.3575 56.033 40.7101C56.1621 40.4157 56.2656 40.0988 56.5888 39.9436Z" fill="#8A694F"/>
<path d="M44.4096 26.9069C44.2197 27.3533 44.0298 27.7997 43.8394 28.2467C43.4176 29.1261 43.1301 30.0584 42.7663 30.9608C42.4463 31.7544 41.512 32.3805 40.7045 32.3283C40.2789 32.3005 40.344 31.9757 40.4282 31.7485C40.9685 30.2856 41.401 28.7784 42.1653 27.4051C42.3082 27.0088 42.4517 26.6131 42.5946 26.2168C42.7648 26.5795 42.2661 27.0957 43.0138 27.3709C43.7114 27.6275 44.0394 27.3421 44.4096 26.9069Z" fill="#161213"/>
<path d="M61.7915 34.885C60.96 34.7453 60.8405 33.958 60.5456 33.3975C60.176 32.6951 59.6651 32.3687 58.9333 32.4604C58.5339 32.5106 58.6117 32.2082 58.472 32.0674C59.8597 32.253 61.0629 32.9708 62.3578 33.4236C62.7829 33.5724 62.5109 33.9148 62.4709 34.181C62.3125 34.4823 62.1467 34.7751 61.7915 34.885Z" fill="#5D422E"/>
<path d="M59.9498 46.8015C60.697 44.8276 61.4448 42.8537 62.192 40.8799C62.313 40.5593 62.3802 40.2596 62.8586 40.5796C63.2906 40.8687 63.4586 40.4591 63.6218 40.122C63.953 39.4367 64.0138 38.6265 64.576 38.0479C63.6432 40.4927 62.7104 42.9375 61.7781 45.3828C61.5274 45.6447 61.5045 46.0121 61.345 46.3161C61.0325 46.9092 60.5952 47.1588 59.9498 46.8015Z" fill="#2A2A2A"/>
<path d="M59.9499 46.8015C61.0613 46.9753 61.2933 46.0169 61.7776 45.3828C60.9504 47.5492 60.1232 49.7151 59.2965 51.8815C58.6096 52.0473 57.992 52.3231 57.5963 52.9513C58.3808 50.9012 59.1653 48.8516 59.9499 46.8015Z" fill="#414141"/>
<path d="M57.3216 52.6605C56.9632 53.3458 56.3888 53.4322 55.7344 53.1943C54.7018 52.8194 53.68 52.4167 52.6538 52.0253C42.6133 48.1927 32.5728 44.3602 22.5338 40.5255C20.8682 39.8893 20.697 39.4839 21.3504 37.7815C21.5845 37.1719 21.8266 36.5655 22.065 35.9575C22.6517 36.5794 23.3792 36.9213 24.2037 37.1298C24.7941 37.2791 24.8357 38.1245 25.4842 38.2551C28.5786 39.5314 31.7248 40.6695 34.8496 41.8615C35.88 42.2546 36.1701 42.0941 36.617 41.0498C36.7562 40.7245 36.8581 40.3789 37.1173 40.1197C37.5035 39.8946 37.5632 40.2231 37.5013 40.4258C37.2747 41.1666 37.6645 41.3671 38.2805 41.4503C38.5114 41.4813 38.7466 41.5682 38.8245 41.8434C38.7232 43.3527 38.7227 43.3549 40.2048 43.9213C42.8011 44.9138 45.4 45.8989 47.9925 46.9005C48.5717 47.1245 49.1258 47.2231 49.6912 46.9015C49.7792 46.8909 49.8565 46.9079 49.8981 47.0002C50.1002 46.5863 50.2805 46.1426 50.8731 46.2178C51.5349 46.3015 52.1088 46.5431 52.4928 47.1261C52.5579 47.2247 52.4608 47.1095 52.5354 47.2018C52.6746 47.4727 52.6597 47.7719 52.6944 48.0642C52.8219 49.1485 53.4245 49.8375 54.3504 49.9703C55.3397 50.1127 56.2581 49.5613 56.6597 48.5746C56.7792 48.2818 56.7882 47.9218 57.1696 47.8002C57.6682 47.6749 58.1717 47.6669 58.6741 47.7437C59.0362 47.7991 59.1941 47.9895 59.0357 48.3687C58.4421 49.7901 58.0186 51.2802 57.3216 52.6605Z" fill="#4E4E4E"/>
<path d="M42.1653 27.405C42.0192 28.6311 41.3616 29.6839 40.9984 30.8364C40.8645 31.2604 40.6848 31.67 40.4826 32.1996C40.9898 32.0034 41.3802 31.7671 41.8714 31.7682C42.3194 31.7687 42.513 31.3202 42.6906 30.9266C43.0901 30.0396 43.2442 29.0476 43.8405 28.246C43.3264 29.622 42.8085 30.9964 42.3024 32.3751C42.1946 32.6684 41.9861 32.957 42.1674 33.2962C43.5573 34.2962 45.2005 34.7314 46.7648 35.333C48.9104 36.158 51.0245 37.0738 53.2533 37.6695C53.2181 37.9618 53.1536 38.3927 53.5744 38.3148C54.6805 38.1106 55.5264 39.1612 56.7125 38.6876C56.5664 39.2295 56.3594 39.5794 56.5898 39.9436C56.2309 40.8871 55.872 41.83 55.513 42.7735C54.9194 42.1276 54.3114 41.5319 53.4058 41.2983C52.864 41.1586 52.5696 41.2679 52.377 41.7804C52.1488 42.3868 51.953 43.0098 51.6592 43.5858C51.5317 43.8354 51.496 44.3506 50.9621 44.0711C50.857 43.6332 51.0709 43.2594 51.2048 42.8711C51.4181 42.2551 51.6992 41.6636 51.833 41.0194C51.9605 40.4066 51.7658 39.965 51.1765 39.733C48.1952 38.5618 45.2037 37.4151 42.1984 36.3068C41.8149 36.1655 41.4389 36.222 41.081 36.4103C40.6549 36.6844 40.2096 36.8492 39.681 36.806C39.1178 36.7602 38.7258 36.5634 38.6293 35.9639C38.5552 35.4311 38.2154 35.1458 37.737 34.9628C34.8325 33.8498 31.9301 32.7292 29.016 31.6407C28.0666 31.286 27.7776 31.4332 27.3434 32.3548C27.2176 32.6226 27.121 32.9063 26.8858 33.1063C25.9696 32.4615 24.9237 32.0274 24.0234 31.3559C23.961 31.3095 23.9456 31.2023 23.9093 31.1223C24.585 29.3447 25.2592 27.5666 25.9386 25.7906C26.0933 25.3858 26.2368 24.8295 26.648 25.6455C26.8485 26.0439 27.264 26.0903 27.616 26.2167C28.3728 26.4887 28.9018 26.9004 28.776 27.805C28.8058 27.8908 28.8352 27.9762 28.865 28.062C29.504 28.7175 30.3082 29.0738 31.152 29.3879C33.5477 30.2807 35.9274 31.2151 38.321 32.1127C39.5424 32.5708 39.888 32.4124 40.3669 31.2151C40.753 30.2492 41.105 29.2695 41.4885 28.302C41.6288 27.9484 41.7232 27.5559 42.105 27.3554L42.1653 27.405Z" fill="#282625"/>
<path d="M57.3216 52.6605C57.817 51.3383 58.3013 50.0119 58.8144 48.6967C59.0144 48.1847 59.0954 47.8546 58.3349 47.9623C57.9061 48.0231 57.4602 47.9602 57.0218 47.9527C56.4944 47.4109 56.4469 46.7127 56.3904 46.0151C56.4016 45.9095 56.4245 45.8087 56.456 45.7079C57.0368 43.9661 57.729 42.2679 58.3829 40.5554C58.5274 40.1762 58.6314 39.7522 59.0677 39.5677C59.7184 39.3682 61.1674 39.7773 61.5013 40.2861C61.9994 41.045 61.7696 41.7831 61.3125 42.4455C60.8394 43.1309 60.7818 43.9383 60.5125 44.6807C59.592 47.2199 58.6048 49.7346 57.6432 52.2589C57.5786 52.4274 57.5066 52.5895 57.3216 52.6605Z" fill="#2B2B2C"/>
<path d="M23.9088 31.123C24.3957 31.5348 24.9941 31.7188 25.5749 31.9385C26.1573 32.1593 26.592 32.5198 26.7504 33.1502C26.9376 33.5769 26.7269 33.954 26.5882 34.3316C26.1045 35.6494 25.5573 36.9449 25.1605 38.2942C25.1338 38.3076 25.0853 38.3342 25.0842 38.3321C24.5322 37.4308 23.6698 37.0996 22.6826 36.8825C22.4218 36.8249 22.2682 36.2788 22.0656 35.9572C22.6794 34.346 23.2944 32.7348 23.9088 31.123Z" fill="#3D3D3D"/>
<path d="M59.0672 39.568C58.2245 41.7307 57.3819 43.8939 56.5397 46.0566C56.1947 45.6752 56.3888 45.0939 56.0389 44.7125C56.0208 44.6165 56.0192 44.5227 56.0309 44.4262C56.8464 42.0336 57.8203 39.7024 58.6923 37.3328C58.9824 36.5451 59.6912 36.2853 60.2661 35.8438C60.3131 35.8576 60.3595 35.8725 60.4059 35.8891C59.9595 37.1152 59.5136 38.3419 59.0672 39.568Z" fill="#7D7E84"/>
<path d="M64.1952 25.109C63.8784 25.3463 63.5515 24.8807 63.2347 25.1234C63.0491 25.1175 62.8629 25.1111 62.6773 25.1052C60.6229 24.5346 58.6 23.869 56.6133 23.093C50.9936 20.8988 45.3504 18.7666 39.7061 16.6354C38.88 16.3234 38.0853 15.9383 37.2741 15.5906C36.1179 15.0434 34.9685 14.485 34.0283 13.5879C44.0843 17.4279 54.1397 21.2684 64.1952 25.109Z" fill="#A1A1A1"/>
<path d="M37.2747 15.5908C41.9563 16.9583 46.4011 18.97 50.9723 20.6388C53.7915 21.6682 56.5829 22.7722 59.3867 23.8436C60.4843 24.2628 61.5808 24.6847 62.6779 25.1055C61.5504 24.8986 60.4107 24.7503 59.3147 24.3924C57.0336 23.8442 54.8592 22.9796 52.6709 22.1567C48.6437 20.6415 44.6368 19.073 40.6197 17.5316C40.4293 17.4586 40.2133 17.4239 40.0837 17.2367C39.696 17.0874 39.3088 16.9375 38.9211 16.7882C38.5445 16.1519 37.7147 16.1391 37.2747 15.5908Z" fill="#999999"/>
<path d="M40.0837 17.2363C46.6197 19.2838 52.8682 22.1041 59.3141 24.3926C58.4949 24.4673 57.7711 24.0609 57.0229 23.8598C53.3343 22.8694 49.7695 21.5041 46.1919 20.1713C44.1599 19.4139 42.3391 18.2289 40.3071 17.4934C40.2143 17.4593 40.1573 17.3243 40.0837 17.2363Z" fill="#878787"/>
<path d="M53.2522 37.6701C52.7728 37.8098 52.3221 37.7079 51.8682 37.5341C48.9632 36.4189 46.0533 35.3154 43.1488 34.1986C42.713 34.0311 42.2346 33.8786 42.1658 33.2967C42.7466 31.7719 43.3504 30.2551 43.8965 28.7181C44.1365 28.0423 44.4432 27.8546 45.1488 28.1314C48.297 29.3671 51.4576 30.5719 54.6277 31.7506C55.2453 31.9799 55.3866 32.2338 55.1344 32.8546C54.521 34.3655 53.9728 35.9031 53.3984 37.4306C53.3504 37.5101 53.3013 37.5901 53.2522 37.6701Z" fill="#FA385E"/>
<path d="M42.105 27.3564C41.5408 28.8588 40.9706 30.3596 40.4144 31.8652C40.1312 32.6322 39.6197 32.8535 38.8682 32.5666C35.7856 31.3895 32.7018 30.2151 29.6213 29.0311C29.1882 28.8647 28.8229 28.6146 28.8645 28.0626C29.4128 26.6519 30.0069 25.2567 30.4906 23.8242C30.7482 23.0604 30.9792 22.8722 31.809 23.2098C34.9157 24.4738 38.0656 25.63 41.1989 26.8284C41.529 26.9543 41.8869 27.037 42.105 27.3564Z" fill="#FCA9BA"/>
<path d="M51.0175 44.1374C51.6874 43.3913 51.8325 42.4041 52.1786 41.5166C52.4293 40.874 52.6949 40.699 53.3391 40.9998C54.2223 41.4121 55.3274 41.5177 55.5119 42.7742C55.2079 43.6265 54.9039 44.4788 54.5999 45.3316C54.5925 45.5278 54.4858 45.6857 54.3338 45.7721C53.6069 46.1854 53.0271 46.7705 52.4405 47.3497C52.2122 47.1225 52.0431 46.8254 51.7253 46.7038C51.0698 46.4526 50.3615 46.0201 50.0485 47.13C50.0437 47.147 50.0101 47.1556 49.9898 47.1684C49.9679 47.0974 49.9461 47.027 49.9242 46.9561C49.8895 45.8617 50.2293 44.9124 51.0175 44.1374Z" fill="#353535"/>
<path d="M52.44 47.3496C52.7387 46.2264 53.8443 45.9667 54.5995 45.3315C54.6368 45.3453 54.6752 45.3533 54.7147 45.3539C55.0288 45.2472 55.3184 45.3219 55.5973 45.4728C55.9408 45.6755 56.2736 45.892 56.5051 46.2296C56.6768 46.804 56.8491 47.3784 57.0208 47.9528C56.8037 49.404 55.8203 50.3309 54.5797 50.2547C53.1515 50.1667 52.4432 49.2056 52.44 47.3496Z" fill="#FBBFC7"/>
<path d="M55.5647 45.6832C55.2815 45.5739 54.9983 45.464 54.7151 45.3547C55.9402 42.1664 57.1823 38.9845 58.3813 35.7867C58.7951 34.6821 59.3082 35.6768 59.7706 35.6571C59.8559 35.8757 59.8282 36.1115 59.6378 36.2181C58.8783 36.6427 58.7343 37.432 58.4597 38.1392C57.7386 39.9957 57.033 41.8587 56.3258 43.7205C56.2005 44.0512 56.025 44.3749 56.1199 44.7504V44.7509C56.201 45.2203 55.9306 45.48 55.5647 45.6832Z" fill="#CACBCE"/>
<path d="M56.1194 44.7501C55.8101 44.4599 55.9717 44.1533 56.0879 43.8482C56.9466 41.5997 57.8362 39.3623 58.6437 37.0957C58.8725 36.4535 59.6309 36.3143 59.7701 35.6567C59.9354 35.7191 60.1002 35.781 60.2655 35.8434C60.1349 36.1831 60.1018 36.5863 59.5503 36.5431C59.289 36.5223 59.2389 36.8231 59.1375 37.0455C57.9946 39.5602 57.1509 42.1917 56.1194 44.7501Z" fill="#A3A1A6"/>
<path d="M51.0176 44.1376C50.6528 45.0773 50.288 46.0165 49.9232 46.9562C49.4378 47.537 48.8928 47.584 48.1882 47.305C45.4565 46.224 42.7045 45.1957 39.96 44.1466C38.1994 43.4736 38.1978 43.4698 38.7248 41.7258C38.6517 41.5258 38.6352 41.3157 38.713 41.1221C39.3738 39.4746 39.7237 37.6901 40.8496 36.2469C41.3269 35.8069 41.8245 35.8485 42.4058 36.0757C45.2752 37.1973 48.1552 38.2917 51.0378 39.3797C52.1264 39.7904 52.4325 39.8805 51.9845 41.4661C51.728 42.3749 51.3445 43.248 51.0176 44.1376Z" fill="#DD9A67"/>
<path d="M25.1605 38.2948C24.8763 37.9556 25.0592 37.6281 25.184 37.298C25.7067 35.9156 26.2283 34.5332 26.7504 33.1508C27.6784 30.6889 27.6725 30.7684 30.1232 31.7182C32.7461 32.7353 35.3717 33.747 38.008 34.7294C38.6683 34.9753 38.9979 35.3396 38.8453 36.0548C38.6693 37.5156 38.2571 38.8862 37.3189 40.0569C37.1067 40.5785 36.8827 41.0958 36.6853 41.6228C36.4165 42.3396 35.9317 42.5828 35.2176 42.3113C32.0853 41.1204 28.9547 39.9257 25.8277 38.7204C25.5861 38.6276 25.3819 38.4388 25.1605 38.2948Z" fill="#A77B4F"/>
<path d="M37.3189 40.0568C37.8277 38.723 38.3365 37.3886 38.8453 36.0547C39.2048 36.6798 40.0976 36.7656 40.8506 36.2467C40.1424 38.0734 39.4341 39.8995 38.7258 41.7256C37.2138 41.6062 37.2058 41.5971 37.3189 40.0568Z" fill="#373735"/>
<path d="M55.5648 45.6832C55.7498 45.3728 55.9344 45.0619 56.1194 44.7515C56.8373 45.0005 56.464 45.6011 56.5397 46.0571C56.5285 46.1147 56.5173 46.1728 56.5056 46.2304C56.1621 46.0997 55.8053 45.9915 55.5648 45.6832Z" fill="#A3A1A6"/>
<path d="M24.4133 27.6595C24.7914 27.7309 25.1765 27.7784 25.5471 27.8776C27.0218 28.2733 27.8085 29.3661 27.8101 31.0813C27.8191 39.3032 27.8165 47.5245 27.8191 55.7464C27.8191 56.132 27.833 56.5176 27.8405 56.9032C27.9343 57.0536 27.9791 57.2125 27.9242 57.3896C27.8853 57.4701 27.8303 57.5373 27.7615 57.5939C27.329 57.7923 26.9845 58.2659 26.4101 58.028C26.3407 57.9517 26.3023 57.8632 26.2911 57.7608C26.3306 52.2339 26.2682 46.7075 26.3242 41.1821C26.3418 39.4573 26.3535 37.7416 26.1189 36.0312C26.0719 35.6883 26.1157 35.316 25.8074 34.9992C25.297 35.5293 25.1301 36.2488 24.7082 36.8179C23.3173 38.6941 22.2479 40.7267 21.8565 43.0701C21.7482 43.7176 21.6661 44.3597 21.6666 45.0163C21.6703 48.9085 21.6746 52.8003 21.6629 56.6925C21.6607 57.3363 21.7375 58.0045 21.3621 58.5949C20.4917 58.8925 19.6213 58.8867 18.7509 58.5992C18.5567 58.4173 18.5567 58.1811 18.5663 57.9405C18.7237 54.0856 18.6287 50.2291 18.6229 46.3736C18.6197 44.3683 19.1317 42.5112 19.9002 40.6931C21.4522 37.0227 22.0394 33.1992 21.7391 29.2259C21.6853 28.5144 21.4223 28.1917 20.7103 28.2643C20.4085 28.1976 20.0133 28.2861 19.9551 27.8131C20.2757 27.5293 20.6687 27.5704 21.0517 27.5667C22.1717 27.6173 23.2981 27.4328 24.4133 27.6595Z" fill="#D9AF8E"/>
<path d="M20.6853 28.0118C20.8634 28.0102 21.0447 28.0273 21.2197 28.0033C21.8613 27.9153 22.1066 28.0838 21.9653 28.8081C21.8549 29.3745 22.1135 29.9643 22.1338 30.5627C22.1989 32.4747 21.7514 34.3179 21.5386 36.1931C21.3018 38.2753 20.3818 40.0801 19.6847 41.9851C19.2282 43.2315 18.8847 44.5089 18.8954 45.8683C18.921 49.2566 18.9039 52.6448 18.9039 56.0331C18.9039 56.8614 18.9498 57.6934 18.7247 58.5051C18.161 58.9819 17.5413 58.6641 16.9493 58.6129C16.1103 58.5403 15.2394 58.5771 14.4981 58.0577C14.1162 57.6081 14.1754 57.0603 14.1743 56.5329C14.1669 53.2779 14.2047 50.0225 14.1551 46.7681C14.1333 45.343 13.9114 43.9329 12.8629 42.8198C12.8602 41.7483 12.8575 40.6763 12.8554 39.6049C13.4815 39.0726 13.7434 39.6081 14.0143 40.0214C14.8442 41.2891 15.1535 42.7409 15.4565 44.1931C15.5471 44.6267 15.5823 45.0806 15.8239 45.4678C16.0591 45.8454 16.3898 46.0881 16.8597 45.9995C17.2917 45.9179 17.345 45.5542 17.4319 45.1963C17.8943 43.2939 18.0757 41.3409 18.4927 39.4299C18.657 38.6779 18.7722 37.9201 19.0479 37.1921C19.7882 35.2374 20.1578 33.2059 20.2357 31.1185C20.2549 30.6059 20.1146 30.1206 20.0357 29.6246C19.9279 28.9531 20.0661 28.3867 20.6853 28.0118Z" fill="#ECCBA9"/>
<path d="M12.8469 34.4331C12.8432 33.1942 12.8426 31.9547 12.8341 30.7158C12.8256 29.4859 13.7573 28.1131 15.0837 27.9744C15.4544 27.9355 15.8144 27.752 16.0746 27.4443C16.3605 27.3888 16.5498 27.6118 16.7909 27.6875C17.3344 27.9088 17.9674 27.3216 18.4736 27.8736C18.6096 28.1179 18.6122 28.3867 18.6208 28.6539C18.728 31.9878 18.5568 35.3062 18.0613 38.6059C17.9216 39.5376 17.3696 40.0166 16.3573 40.12C15.6042 40.1968 15.1557 39.8475 14.8192 38.9312C14.6325 38.4235 14.5541 37.8998 14.5354 37.36C14.504 36.4507 14.2554 35.6155 13.7269 34.8523C13.4901 34.5104 13.2378 34.3707 12.8469 34.4331Z" fill="#FAECDA"/>
<path d="M12.8469 34.4329C12.9989 34.2271 13.1515 34.0217 13.3195 33.7945C14.2229 35.0036 14.9355 36.2308 14.808 37.7844C14.7632 38.3316 15.016 38.8356 15.2315 39.3119C15.4288 39.7487 15.7728 40.0628 16.3739 39.8948C17.0779 39.698 17.7227 39.5684 17.8448 38.6319C18.3109 35.0447 18.4645 31.4463 18.3691 27.834C18.6128 27.5679 18.9376 27.5876 19.2555 27.5796C19.52 27.6031 19.7931 27.6057 19.9744 27.85C20.1733 28.0719 20.4443 27.9769 20.6853 28.0116C20.3675 28.6116 20.1376 29.1663 20.3024 29.9295C20.6544 31.5615 20.5147 33.258 20.0085 34.8132C19.0736 37.6873 18.4667 40.6175 18.0176 43.5913C17.912 44.2911 17.6117 44.9497 17.6405 45.6793C17.6619 46.2164 17.1515 46.2767 16.8149 46.3161C16.2459 46.3828 15.7259 46.1049 15.5579 45.5428C15.2549 44.53 15.0176 43.4943 14.8096 42.4569C14.6059 41.4431 14.0309 40.6121 13.5696 39.7241C13.4005 39.3983 13.1056 39.5753 12.8549 39.6041C12.8523 37.8804 12.8496 36.1567 12.8469 34.4329Z" fill="#EFD3B6"/>
<path d="M12.8629 42.8193C13.3242 42.7692 13.6378 43.0204 13.745 43.4135C14.0149 44.406 14.448 45.3623 14.4464 46.4215C14.4416 49.8983 14.4448 53.3756 14.4442 56.8524C14.4442 57.2375 14.4042 57.6284 14.6208 57.9788C14.4912 58.1324 14.3178 58.1553 14.1328 58.1436C13.6144 58.0071 13.1221 57.8305 12.8714 57.2951C12.8682 52.47 12.8656 47.6449 12.8629 42.8193Z" fill="#DCB596"/>
<path d="M19.2779 27.8179C18.9749 27.8233 18.672 27.8281 18.3691 27.8334C17.7691 27.6521 17.1749 28.267 16.5728 27.8478C16.9387 27.5011 17.0699 27.0835 17.056 26.5758C17.0261 25.483 17.0645 24.3881 17.0373 23.2947C17.0261 22.8387 17.0091 22.3699 16.6613 21.9785C16.2459 22.3987 16.7664 23.1347 16.0709 23.3705C16.0619 22.9006 16.0699 22.4302 16.0405 21.9614C15.9899 21.1646 16.3595 20.8147 17.1413 20.8686C17.6843 20.4345 18.3269 20.6195 18.9307 20.5939C19.5477 20.5678 20.1669 20.5747 20.7835 20.6083C21.3451 20.5737 21.9088 20.5966 22.4715 20.6035C23.0272 20.6099 23.288 20.3849 23.2816 19.8131C23.2773 19.4377 23.2272 19.0307 23.5547 18.7305C23.8139 18.971 23.7035 19.2867 23.7173 19.5726C23.7456 20.1657 23.5392 20.8377 24.3707 21.1075C24.5579 21.1683 24.616 21.4318 24.6155 21.6505C24.6117 23.5219 24.608 25.3929 24.5957 27.2643C24.5952 27.3379 24.5083 27.411 24.4619 27.4841C24.1237 27.1955 24.16 26.7923 24.1579 26.4147C24.1488 24.995 24.1328 23.5753 24.1648 22.1571C24.1616 21.7806 23.912 21.7027 23.5973 21.6121C22.4848 21.2905 21.4299 21.6451 20.3664 21.8537C19.8325 21.9582 19.8581 22.4579 19.8555 22.8627C19.848 24.0158 19.8997 25.1689 19.8624 26.3214C19.8437 26.8809 19.8384 27.4627 19.2779 27.8179Z" fill="#CCCDCF"/>
<path d="M24.44 21.9338C24.4469 23.7839 24.4544 25.634 24.4613 27.4842C24.4453 27.5423 24.4288 27.601 24.4128 27.6591C23.3083 28.0292 22.1744 27.7695 21.0549 27.8186C20.8427 26.969 21.0133 26.1066 20.9701 25.2511C20.9387 24.6287 21.0459 23.9919 20.8976 23.3839C20.5952 22.1434 21.3104 21.4036 22.8283 21.4655C23.3845 21.489 23.9472 21.625 24.44 21.9338Z" fill="#7B7F88"/>
<path d="M27.8432 57.4431C27.8421 57.2633 27.8416 57.0831 27.8405 56.9033C29.1973 57.1375 30.5685 57.2719 31.913 57.5999C32.448 57.7305 32.936 57.8863 33.3397 58.2425C33.6186 58.4889 33.9898 58.7305 33.8602 59.194C33.7327 59.6489 33.3295 59.7855 32.9306 59.9273C29.8117 61.0388 26.577 61.1135 23.321 61.0159C22.6992 60.9972 22.065 60.9327 21.457 61.0255C19.9792 61.25 18.6912 60.4719 17.2896 60.3257C18.0693 59.7892 18.9306 60.0831 19.7616 60.0804C20.4426 60.2212 21.1253 60.3647 21.8426 60.0927C20.8341 59.0772 20.8336 59.0543 21.7776 58.3743C22.0949 58.2713 22.4106 58.2596 22.7242 58.3881C23.0144 58.9903 23.2896 59.6009 23.5546 60.2148C24.3328 60.6388 25.1696 60.4409 25.96 60.3647C27.3359 60.2319 28.705 60.0036 30.0613 59.7151C30.5333 59.6148 31.1034 59.5412 31.1077 58.9609C31.1119 58.3535 30.529 58.1993 30.0325 58.0964C29.4858 57.9828 28.9098 58.0511 28.3717 57.8596C28.1482 57.7791 27.9157 57.7135 27.8432 57.4431Z" fill="#DFDFDF"/>
<path d="M20.8677 20.856C19.6256 20.8602 18.3829 20.8645 17.1413 20.8688C17.1323 20.2197 17.1083 19.5712 17.1179 18.9226C17.1285 18.2058 17.2261 17.473 16.2224 17.3045C15.9851 17.2645 15.8352 17.025 15.9088 16.7514C15.9819 16.4805 16.2107 16.4229 16.4597 16.3968C17.2736 16.3114 18.0384 16.5306 18.8011 16.7642C19.5563 16.9957 20.3104 17.2304 21.0651 17.464C20.8016 18.5829 21.0869 19.7344 20.8677 20.856Z" fill="#DCB595"/>
<path d="M19.9755 60.3018C19.08 60.3098 18.1851 60.3178 17.2896 60.3263C16.4149 60.2314 15.5301 60.1898 14.6672 60.0308C13.0256 59.7274 12.8357 59.4623 12.8485 57.8234C12.8501 57.6474 12.8635 57.4714 12.8715 57.2959C13.2752 57.5252 13.6789 57.7546 14.0827 57.9844C15.6992 58.6708 17.408 58.9967 19.1243 59.3039C19.6395 59.3951 20.2379 59.506 19.9755 60.3018Z" fill="#7E8087"/>
<path d="M20.8677 20.8558C20.5055 19.8201 20.7359 18.7556 20.7274 17.7038C20.7263 17.5502 20.9205 17.5022 21.0655 17.4644C21.9882 17.7038 23.0741 17.6233 23.5546 18.731C23.5013 20.9316 23.5013 20.9316 20.8677 20.8558Z" fill="#CC9E7D"/>
<path d="M16.0709 23.3705C16.352 22.9635 16.1563 22.5027 16.2203 22.0713C16.2517 21.8569 16.1136 21.5182 16.4485 21.4915C16.7013 21.4713 16.9909 21.6227 17.072 21.9129C17.1749 22.2809 17.28 22.6627 17.2869 23.0403C17.3125 24.4067 17.2715 25.7747 17.3104 27.1406C17.3269 27.7193 17.0693 27.8734 16.5728 27.8478C16.4069 27.7134 16.2405 27.579 16.0752 27.4446C16.0736 26.0867 16.0725 24.7283 16.0709 23.3705Z" fill="#ADAFB2"/>
<path d="M22.8298 58.5217C22.4714 58.5244 22.1125 58.5265 21.7541 58.5292C21.6351 58.6103 21.521 58.6193 21.4154 58.5063C21.1066 58.0209 21.4239 57.5292 21.4202 57.0412C21.3887 53.0028 21.313 48.9612 21.4362 44.926C21.5087 42.5409 22.0127 40.2407 23.5189 38.2028C24.3055 37.1383 25.0773 35.9879 25.553 34.7036C25.6074 34.5559 25.6602 34.3212 25.889 34.3548C26.0895 34.3841 26.1397 34.5985 26.1802 34.7623C26.4287 35.7681 26.5381 36.8012 26.5615 37.8284C26.6106 39.9505 26.577 42.0743 26.577 44.1975C26.577 48.4145 26.577 52.6316 26.577 56.8487C26.577 57.2332 26.6175 57.6236 26.4031 57.9756C26.241 58.3756 25.8762 58.3708 25.5354 58.3991C25.2218 58.4247 24.9034 58.4012 24.601 58.5169C24.0106 58.5393 23.4207 58.9548 22.8298 58.5217Z" fill="#CD9C7A"/>
<path d="M24.4399 21.9336C24.2543 22.0114 24.0885 22.1352 23.8645 21.9896C23.3173 21.6349 22.7178 21.6338 22.0975 21.7512C21.233 21.9149 21.0117 22.3122 21.1093 23.1666C21.2858 24.7138 21.3615 26.2717 21.0543 27.8184C20.6943 27.8285 20.3338 27.8386 19.9738 27.8493C19.7418 27.8392 19.5093 27.8285 19.2773 27.8178C19.8917 26.4274 19.5007 24.9608 19.6021 23.532C19.6063 23.4744 19.5871 23.4152 19.5829 23.3565C19.4682 21.7453 19.6463 21.564 21.2255 21.3912C22.1333 21.292 23.0213 21.1794 23.9338 21.3864C24.2885 21.4669 24.4783 21.5565 24.4399 21.9336Z" fill="#989AA1"/>
<path d="M24.6064 58.3246C25.153 57.9417 25.856 58.3593 26.4021 57.9748C26.4533 57.9828 26.505 57.986 26.5568 57.9849C26.7034 58.3774 26.312 58.6169 26.281 58.9689C26.2298 59.546 26.4362 59.7764 26.9754 59.6308C27.3162 59.5385 27.6656 59.4078 27.9056 59.1417C28.217 58.7961 27.7936 58.5636 27.7093 58.2783C27.6213 57.9817 27.5925 57.6996 27.8042 57.4409C27.8042 57.4409 27.8432 57.4431 27.8437 57.4431C28.4218 57.682 29.0186 57.8382 29.6485 57.7956C30.0176 57.7705 30.3712 57.8574 30.6773 58.0158C31.0592 58.2132 31.5338 58.4708 31.4848 58.9604C31.4346 59.4601 31.017 59.8148 30.5226 59.8937C28.2986 60.2495 26.0938 60.7961 23.8138 60.6462C23.6064 60.6324 23.1909 60.8175 23.3642 60.2927C23.6176 60.0292 23.9594 60.098 24.2704 60.0495C25.0186 59.9337 25.1157 59.771 24.8586 59.0686C24.769 58.8228 24.6346 58.5919 24.6064 58.3246Z" fill="#CACACB"/>
<path d="M21.4149 58.5059C21.528 58.5134 21.6411 58.5209 21.7541 58.5289C21.0261 59.1571 21.0304 59.2398 21.8725 59.595C22.1173 59.6985 22.3008 59.8137 22.2533 60.1033C22.2133 60.3459 22.0245 60.4611 21.8021 60.4473C21.1931 60.4094 20.5632 60.6115 19.976 60.3017C19.9243 59.8745 19.7408 59.6563 19.2608 59.5662C17.904 59.3107 16.5179 59.1705 15.2229 58.6329C14.8123 58.4622 14.4053 58.3017 14.0832 57.9833C14.2624 57.9817 14.4421 57.9806 14.6213 57.979C15.9659 58.3369 17.3435 58.4366 18.7248 58.5049C19.6213 58.5054 20.5184 58.5054 21.4149 58.5059Z" fill="#ABAAAD"/>
<path d="M27.8042 57.4409C27.8677 57.7807 27.7183 58.186 28.0394 58.4468C28.6751 58.9625 28.3781 59.2521 27.8159 59.4996C27.2879 59.7321 26.6447 60.2958 26.2005 59.8004C25.7066 59.2489 26.0671 58.5257 26.5573 57.9849C27.0341 57.9444 27.3114 57.4457 27.8042 57.4409Z" fill="#A3A2A5"/>
<path d="M24.6064 58.3247C25.1413 58.6244 25.1898 59.1866 25.3146 59.6927C25.3834 59.9716 25.1525 60.0655 24.9157 60.1636C24.4053 60.3764 23.8821 60.2719 23.3637 60.2927C23.185 59.9668 23.1488 59.5727 22.8362 59.3087C22.552 59.0682 22.68 58.786 22.8293 58.5215C23.4218 58.4559 24.0144 58.3903 24.6064 58.3247Z" fill="#F9F9F8"/>
<path d="M22.7007 62.9805C22.7482 62.9491 22.801 62.9315 22.8581 62.9288C23.1957 63.1139 23.4821 62.9357 23.7823 62.8093C30.9797 59.7784 38.1823 56.7587 45.3861 53.7427C50.8602 51.4509 56.3263 49.14 61.8042 46.8568C62.289 46.6547 62.7711 46.3539 63.3295 46.6515C63.7189 47.0472 63.9541 47.5 63.8613 48.076C63.5631 48.5341 63.0554 48.6611 62.5978 48.8557C58.8858 50.4312 55.1541 51.9603 51.4533 53.5555C50.7541 53.5325 50.0463 53.4995 49.7765 54.3709C49.5642 54.5091 49.3301 54.5293 49.0922 54.5053C49.0085 55.1149 49.6351 55.556 49.4799 56.1763C48.8767 56.3976 48.8842 55.8355 48.7525 55.5512C48.5151 55.0392 48.3034 55.0957 48.0213 55.4829C47.5226 55.3901 47.7359 54.8307 47.4367 54.5859C47.2351 54.7923 47.505 54.9581 47.473 55.14C47.2826 55.428 47.4741 55.9037 47.0207 56.0632C46.6362 55.8632 46.4405 55.2104 45.8629 55.4931C45.3194 55.7592 45.5183 56.2899 45.5429 56.7427C45.5461 56.8003 45.5253 56.8568 45.5007 56.9107C45.5146 57.0936 44.9013 56.6547 45.2341 57.1944C45.3802 57.4312 45.5519 57.7656 45.1898 58.02C44.7082 57.8221 44.6655 57.3288 44.4847 56.9384C44.2634 56.4605 44.1018 56.2125 43.5087 56.6104C42.9978 56.9533 42.2655 56.9469 41.8746 57.5411C41.6906 57.6787 41.4837 57.6856 41.2693 57.6493C40.4154 57.6072 40.4154 57.6072 40.4538 58.5779C40.2133 58.8925 39.9317 58.5395 39.6762 58.6269C38.7199 58.3224 38.7199 58.3224 38.0111 59.3869C37.8138 59.5085 37.6122 59.5059 37.4069 59.4093C36.6415 59.1651 36.3647 59.3848 36.4522 60.1517C36.4821 60.4125 36.7535 60.7075 36.3727 60.9304C36.1674 60.8963 36.0399 60.7576 35.9221 60.6035C35.4991 60.0803 35.041 60.4237 34.6335 60.5901C32.3546 61.5213 30.0895 62.4856 27.8191 63.4371C26.9167 63.8152 26.0197 64.2077 25.1093 64.5677C24.593 64.772 24.1663 65.0531 23.9285 65.5715C23.0693 65.2093 22.5525 64.1187 22.7007 62.9805Z" fill="#424242"/>
<path d="M63.225 46.7292C62.8128 46.6471 62.4746 46.8641 62.1226 47.0113C58.1488 48.6753 54.176 50.3425 50.2032 52.0092C41.696 55.5777 33.1882 59.1457 24.6816 62.7159C24.3536 62.8535 23.985 62.9516 23.721 63.1713C23.2629 63.5527 23.0458 63.3649 22.8581 62.9297C23.041 62.8337 23.2176 62.7228 23.4074 62.6428C36.4592 57.1719 49.512 51.7036 62.5653 46.2359C62.7024 46.1783 62.8432 46.1313 62.9824 46.0796C63.2469 46.2273 63.3754 46.4263 63.225 46.7292Z" fill="#2D2D2D"/>
<path d="M25.1226 68.1613C24.9312 68.2419 24.736 68.3133 24.5424 68.389C24.2234 67.9997 24.3978 67.7805 24.8 67.6381C25.3312 67.5453 25.824 67.3389 26.3173 67.132C38.6373 61.9629 50.9578 56.7949 63.2778 51.6264C63.4421 51.5576 63.6074 51.4915 63.769 51.4163C64.6144 51.0243 64.6661 50.9085 64.3445 50.0627C64.1968 49.6744 64.0234 49.2957 63.8976 48.8989C63.7786 48.628 63.6917 48.3528 63.7978 48.0552C63.6064 47.6131 63.4154 47.1704 63.224 46.7283C63.1429 46.5117 63.0624 46.2947 62.9813 46.0781C63.3152 45.9379 63.649 45.7976 63.9834 45.6573C64.1173 45.7277 64.1626 45.8429 64.1514 45.9864C63.9589 46.2835 63.5125 46.3768 63.7621 46.9789C64.0208 47.6035 64.4058 47.6029 64.8944 47.6104C65.0469 47.7155 65.145 47.8637 65.2304 48.0227C65.5541 48.6883 65.7626 49.4072 66.1994 50.028C66.0565 49.2984 65.6976 48.6429 65.4458 47.9501C65.3909 47.7795 65.3509 47.6067 65.376 47.4264C66.0789 46.3864 65.9109 45.9347 64.745 45.7395C64.6341 45.6461 64.584 45.5331 64.6272 45.3885C64.9632 45.2488 65.2997 45.1091 65.6357 44.9693C66.0202 45.1533 66.1381 45.5315 66.288 45.8813C66.7626 46.9912 67.2181 48.1091 67.7002 49.2157C67.2 48.0504 66.7178 46.8771 66.2288 45.7064C66.1029 45.4045 65.9904 45.0989 66.1066 44.7645C66.4485 44.6205 66.7898 44.4765 67.1317 44.3325C67.2474 44.4125 67.2976 44.5245 67.2944 44.6627C66.6293 45.6227 66.7866 46.0867 67.864 46.3389C68.0122 46.3736 68.1296 46.4584 68.2309 46.5715C68.7312 47.5112 69.2133 48.4563 69.4373 49.508C67.8858 50.18 66.3413 50.8664 64.7829 51.5208L25.1226 68.1613Z" fill="#8A8B8D"/>
<path d="M69.4378 49.51C68.8282 48.9174 68.7375 48.0646 68.3599 47.3553C68.2106 47.0753 68.0799 46.7857 67.9402 46.4998C67.8511 46.3756 67.7711 46.2497 67.8714 46.0934C67.9567 46.0364 68.0501 46.0204 68.1498 46.0433C68.6367 46.3542 69.1173 46.351 69.6442 46.0998C70.3327 45.7718 71.0378 45.47 71.7562 45.215C72.4085 44.9836 72.9509 44.6422 73.3285 44.0566C73.945 45.2481 74.5397 46.4412 73.5301 47.7228C72.2191 48.4412 70.7994 48.9094 69.4378 49.51Z" fill="#C00549"/>
<path d="M24.674 67.7591C24.4879 67.9394 24.4714 68.1554 24.5428 68.3895C24.3706 68.4546 24.1983 68.5202 24.0255 68.5852C23.258 68.5858 22.4911 68.5863 21.7236 68.5868C21.4372 68.4466 21.2922 68.1831 21.2106 67.9052C20.8948 66.829 20.3407 66.0354 19.0948 65.9996C20.2458 64.9324 21.1844 63.6119 22.7007 62.981C22.7306 63.9922 23.4948 64.6988 23.7887 65.6002C23.8644 65.6386 23.9135 65.6988 23.9375 65.7799C23.9727 66.1612 24.2554 66.3868 24.4804 66.6524C24.7578 66.9788 24.9471 67.3314 24.674 67.7591Z" fill="#E1BA9B"/>
<path d="M19.0949 65.999C20.3551 65.7206 20.585 65.8417 21.1295 67.1099C21.3391 67.5974 21.5263 68.0939 21.7237 68.5862C20.153 68.8673 18.5605 68.8545 16.9759 68.9473C16.7903 68.9579 16.6223 68.8758 16.5583 68.6817C16.4597 68.3809 16.6229 68.1702 16.8309 67.9867C17.5845 67.3227 18.3402 66.6614 19.0949 65.999Z" fill="#EC627C"/>
<path d="M68.0207 46.0704C67.9775 46.0922 67.9338 46.1136 67.8901 46.1354C67.2831 45.84 67.1578 45.3072 67.1834 44.6997C67.1663 44.5781 67.1487 44.4565 67.1322 44.3349C68.2991 43.8352 69.4645 43.3312 70.6335 42.8373C71.7242 42.3765 72.0949 42.481 72.9007 43.4522C72.7567 44.2138 72.113 44.4901 71.5189 44.6474C70.2847 44.9738 69.1615 45.5349 68.0207 46.0704Z" fill="#F82F5E"/>
<path d="M68.0208 46.0703C67.8762 45.3823 68.5338 45.6677 68.7866 45.4837C69.4506 45.0021 70.2192 44.7125 71.0469 44.5679C71.7914 44.4383 72.377 43.9813 72.9008 43.4517C73.1125 43.6047 73.2714 43.7951 73.3285 44.0575C73.4165 44.625 73.2032 44.9317 72.6309 45.1343C71.5781 45.5071 70.5408 45.9407 69.537 46.4309C68.8773 46.7535 68.3962 46.7423 68.0208 46.0703Z" fill="#E60E4B"/>
<path d="M66.1077 44.7661C66.7445 46.2354 67.3882 47.7021 68.0106 49.1773C68.113 49.42 68.3962 49.7714 67.9904 49.9437C67.568 50.1224 67.5424 49.652 67.4448 49.4189C66.8272 47.9421 66.2362 46.4541 65.6362 44.9698C65.7936 44.9026 65.9504 44.8344 66.1077 44.7661Z" fill="#202122"/>
<path d="M64.0869 46.0136C64.0527 45.8952 64.0181 45.7763 63.9839 45.6579C64.1983 45.5683 64.4133 45.4787 64.6277 45.3896C64.689 45.4968 64.7498 45.604 64.8111 45.7112C65.3338 46.1219 65.5594 46.6563 65.4805 47.3176C65.5343 47.4995 65.5877 47.6819 65.6415 47.8638C65.4783 48.036 65.2778 48.1198 65.0405 48.1166C64.9477 47.9507 64.8554 47.7848 64.7626 47.619C64.2362 47.2104 64.0122 46.675 64.0869 46.0136Z" fill="#3A3C3B"/>
<path d="M24.674 67.759C24.7007 67.2113 24.4767 66.7612 24.0346 66.4758C23.7172 66.271 23.6447 66.0785 23.8202 65.7665C24.1903 65.239 24.7007 64.9084 25.289 64.662C28.3802 63.3692 31.4671 62.0668 34.561 60.7793C35.081 60.5628 35.6095 60.3345 36.186 60.606C36.281 60.6998 36.3759 60.7937 36.4703 60.8876C36.7679 60.8961 37.01 61.1553 37.3268 61.0764C36.6596 60.9505 36.249 60.5068 36.345 59.9446C36.4452 59.3537 36.8554 59.2006 37.4015 59.318C37.6004 59.2956 37.7988 59.2732 37.9978 59.2508C38.2676 59.358 38.3412 59.6364 38.505 59.8353C38.7476 60.1297 39.018 60.2924 39.4196 60.135C39.8415 59.9692 39.8826 59.6513 39.81 59.2785C39.7604 59.0236 39.6372 58.7756 39.77 58.5121C40.0767 58.0097 40.1546 58.8113 40.4058 58.6241C41.3844 58.3617 41.6314 58.5196 41.4527 59.2961C41.6826 58.7254 41.665 58.6326 41.2308 58.4977C40.9626 58.4145 40.5466 58.5025 40.5311 58.1142C40.514 57.6886 40.89 57.5537 41.2607 57.4913C41.4484 57.4854 41.6362 57.4796 41.8239 57.4732C42.146 57.5345 42.1535 57.8518 42.29 58.0444C42.081 57.6278 42.0954 57.2262 42.5588 56.9964C43.0495 56.7532 43.2522 57.1137 43.4047 57.502C43.2138 57.0134 43.3252 56.6278 43.8372 56.4545C44.2751 56.3062 44.473 56.6033 44.6346 56.9617C44.7908 57.3084 44.8495 57.7062 45.1407 57.9862C45.3924 57.3745 44.7674 56.9729 44.7839 56.3782C45.2084 56.2993 45.1418 56.8689 45.4522 56.9265C45.8116 56.9782 46.0228 57.4982 46.4362 57.2492C46.1887 57.2625 45.8831 57.2545 45.8063 56.9121C45.7338 56.5889 46.0218 56.4662 46.2479 56.3404C46.5034 56.1985 46.7711 56.0817 47.0666 56.046C47.2372 55.7708 46.9194 55.318 47.3909 55.1521C47.9706 55.3276 47.8324 55.9969 48.2143 56.3318C48.0804 56.0476 47.7908 55.8156 47.9903 55.4662C48.0575 55.2113 47.9951 54.9014 48.4068 54.8374C48.8559 54.7681 48.7178 55.174 48.8687 55.3382C49.0975 55.5868 49.0234 56.0513 49.4468 56.1713C49.5572 55.7889 49.297 55.4977 49.2004 55.1665C49.114 54.87 48.8394 54.6022 49.0516 54.2566C49.226 54.4209 49.449 54.3478 49.6506 54.3777C49.9279 54.4774 50.0175 54.7409 50.1594 54.9596C50.337 55.2332 50.5279 55.4876 50.9615 55.3542C50.6127 55.4156 50.4228 55.2732 50.306 55.0012C50.1503 54.127 50.89 54.0497 51.3972 53.8572C54.8415 52.5521 58.1892 51.014 61.6068 49.647C62.4271 49.319 63.1764 48.7964 64.0863 48.7041C65.3108 51.0945 65.3108 51.0945 62.8751 52.1164C50.4751 57.3174 38.0756 62.5206 25.6698 67.7084C25.3759 67.8289 25.0292 68.2753 24.674 67.759Z" fill="#050505"/>
<path d="M64.0863 48.7016C63.6991 49.0258 63.2527 49.2429 62.7903 49.4365C59.4618 50.829 56.1359 52.2285 52.8069 53.6216C52.1898 53.8797 51.5829 54.2056 50.9381 54.3389C50.3322 54.4637 50.3791 54.7304 50.5471 55.1421C49.8943 55.133 49.8922 54.6205 49.9482 54.2205C50.0271 53.6525 50.4666 53.4792 51.0117 53.5746C51.2698 53.3213 51.5839 53.1672 51.9151 53.0285C55.8778 51.3741 59.8383 49.7138 63.7989 48.0552C63.8943 48.2712 63.9903 48.4866 64.0863 48.7016Z" fill="#212121"/>
<path d="M36.1861 60.606C35.0815 60.7596 34.1093 61.2876 33.0997 61.7052C30.9599 62.59 28.8335 63.5057 26.6911 64.383C25.7045 64.7868 24.7423 65.2332 23.8202 65.7665C23.7781 65.7169 23.7679 65.662 23.7893 65.6006C23.7215 64.9894 24.0255 64.7105 24.585 64.4812C28.0645 63.0556 31.5295 61.5958 34.9898 60.1238C35.6026 59.8625 36.0127 59.8828 36.1861 60.606Z" fill="#242424"/>
<path d="M45.1402 57.9846C44.6421 57.8054 44.7109 57.2651 44.4709 56.92C44.3103 56.6891 44.1861 56.4411 43.8538 56.5776C43.5237 56.7131 43.4277 56.9648 43.5706 57.3003C43.7247 57.6619 43.8751 58.0251 43.9253 58.4347C43.4709 58.248 43.4437 57.8032 43.2421 57.4742C43.1087 57.2566 43.0559 56.935 42.6751 57.087C42.3023 57.2358 42.3258 57.5152 42.4373 57.8219C42.5674 58.1803 42.6975 58.5387 42.8277 58.8971C42.2202 58.591 42.1791 57.928 41.8239 57.4731C41.5983 57.0219 42.0831 57.0907 42.2277 56.9072C42.6554 56.3616 43.4794 56.672 43.9226 56.079C44.0485 55.911 44.4581 56.167 44.5775 56.4939C44.7583 56.992 44.9519 57.4875 45.1402 57.9846Z" fill="#979797"/>
<path d="M47.0661 56.0437C46.8949 56.3717 46.5248 56.3727 46.2549 56.5391C46.1194 56.6229 45.8602 56.6239 45.9248 56.8607C45.9877 57.0917 46.2074 57.1642 46.4277 57.0917C46.6997 57.0021 46.9589 56.8746 47.2464 56.7541C46.7989 57.6661 46.1669 57.7162 45.4517 56.9253C45.4389 56.8682 45.4357 56.8063 45.4122 56.7546C45.1413 56.1589 45.0837 55.5519 45.7605 55.2447C46.4858 54.9151 46.8128 55.4741 47.0661 56.0437Z" fill="#888888"/>
<path d="M39.7695 58.5103C39.8378 58.6724 39.9125 58.8319 39.9738 58.9967C40.1754 59.5418 40.1909 60.0431 39.5855 60.3508C38.9413 60.6783 38.5221 60.3652 38.2133 59.8218C38.1141 59.6468 38.0677 59.441 37.9973 59.2495C38.2693 58.0842 38.7146 57.8986 39.7695 58.5103Z" fill="#8A8A8A"/>
<path d="M41.2602 57.4902C41.0501 57.6923 40.8394 57.8939 40.5909 58.1329C41.0426 58.4102 42.096 58.1014 41.7877 59.1643C41.6469 59.6513 41.2282 59.7793 40.617 59.5638C40.8192 59.463 40.9104 59.4118 41.0064 59.3713C41.2149 59.2827 41.5264 59.2683 41.4842 58.9499C41.4325 58.5558 41.0906 58.6971 40.8448 58.6742C40.6981 58.6603 40.5514 58.6406 40.4048 58.6235C40.2336 58.2849 39.9466 57.935 40.3104 57.5739C40.5792 57.3062 40.9152 57.1862 41.2602 57.4902Z" fill="#888888"/>
<path d="M51.0112 53.5755C49.8565 54.1947 49.8053 54.367 50.5466 55.1424C50.9429 55.432 51.2527 54.9584 51.6997 55.0128C51.4767 55.4784 51.0992 55.6187 50.6933 55.5702C50.0192 55.4896 49.849 54.9062 49.6501 54.3755C49.7434 53.9734 49.8197 53.5494 50.2448 53.3558C50.5402 53.2214 50.8768 53.0843 51.0112 53.5755Z" fill="#8D8D8E"/>
<path d="M37.4015 59.3174C37.2186 59.4097 37.0437 59.5292 36.8506 59.5894C36.4287 59.7217 36.441 60.038 36.5135 60.359C36.6037 60.7585 36.9007 60.951 37.2895 60.91C37.5423 60.8833 37.7829 60.7478 38.0426 60.6561C37.6991 61.4204 37.2069 61.487 36.4703 60.887C36.3631 60.558 36.2005 60.2348 36.1626 59.8977C36.1109 59.4406 36.3791 59.1126 36.8149 58.9937C37.0629 58.926 37.4341 58.8028 37.4015 59.3174Z" fill="#8A8A8A"/>
<path d="M47.9898 55.4637C48.1215 55.8675 48.1797 56.3347 48.9893 56.3357C48.4325 56.6755 48.1493 56.6717 47.9311 56.2456C47.7455 55.8829 47.5701 55.5149 47.3903 55.1496C46.7861 54.9021 47.2335 54.4824 47.1429 54.1299C48.0997 54.2216 47.6629 55.0632 47.9898 55.4637Z" fill="#989899"/>
<path d="M49.0517 54.2548C49.2202 54.7252 49.3877 55.1956 49.5567 55.6654C49.6261 55.858 49.7429 56.058 49.4469 56.17C49.1855 55.603 48.8842 55.0505 48.6751 54.4649C48.4917 53.9513 48.7663 54.0441 49.0517 54.2548Z" fill="#858586"/>
<path d="M65.0405 48.1161C65.1695 47.8622 65.3701 47.779 65.6415 47.8633C65.9557 48.5924 66.273 49.3193 66.5818 50.0505C66.681 50.2852 66.7114 50.5188 66.3957 50.6196C66.1295 50.7049 66.0202 50.5134 65.9397 50.3204C65.6351 49.5881 65.3397 48.851 65.0405 48.1161Z" fill="#0A0B0C"/>
<path d="M64.0869 46.0137C64.3119 46.5486 64.5375 47.0835 64.7626 47.6185C64.2431 48.0137 63.8709 48.0195 63.6522 47.2889C63.4847 46.7283 63.0042 46.1241 64.0869 46.0137Z" fill="#CBCCCC"/>
<path d="M65.4805 47.3172C65.2576 46.7817 65.0341 46.2463 64.8112 45.7108C65.5242 45.2217 65.7461 45.6735 66.0128 46.2617C66.305 46.9076 66.121 47.1988 65.4805 47.3172Z" fill="#CDCDCD"/>
<path d="M67.1834 44.6997C67.4191 45.1781 67.6548 45.657 67.89 46.1354C67.9066 46.2565 67.9231 46.3781 67.9402 46.4997C67.1359 46.5952 66.7087 46.24 66.553 45.3952C66.4548 44.8592 67.05 44.9989 67.1834 44.6997Z" fill="#D9C8CE"/>
<path d="M46.1167 56.2513C45.9375 56.2769 45.7093 56.4976 45.6234 56.1659C45.5567 55.9083 45.7183 55.7083 45.9509 55.6214C46.1823 55.535 46.4575 55.5638 46.5397 55.824C46.6447 56.159 46.2767 56.1249 46.1167 56.2513Z" fill="#313131"/>
<path d="M39.5957 59.0284C39.8165 59.518 39.8464 59.9004 39.4037 60.102C39.017 60.2785 38.7189 60.07 38.5584 59.7078C38.3818 59.3105 38.305 58.8636 38.7674 58.6342C39.216 58.4118 39.4426 58.7964 39.5957 59.0284Z" fill="#191919"/>
</svg>
