<svg width="80" height="80" viewBox="0 0 80 80" fill="none" xmlns="http://www.w3.org/2000/svg">
<path d="M38.5371 40.2354C38.5072 40.4082 38.4768 40.5804 38.447 40.7532C40.4795 41.5058 43.3563 44.7159 43.5131 44.6935C43.4086 43.6738 41.2811 40.789 38.5371 40.2354Z" fill="#FBF2FD"/>
<path d="M41.8901 33.6016C41.8549 33.3387 41.9493 33.1979 42.2282 33.1355C42.7152 33.0262 43.193 32.8747 43.6746 32.7403C44.0304 33.3963 44.2053 34.1083 44.3168 34.7067C44.2181 34.3627 44.2096 33.8763 44.1552 33.3952C44.1242 33.1216 44.0517 32.8368 44.232 32.5803C44.2842 32.5456 44.3365 32.511 44.3888 32.4763C45.072 32.1019 45.8453 31.9995 46.5717 31.7552C46.9104 31.6416 47.2693 31.5899 47.5989 31.4438C48.0661 31.3734 48.5061 31.2059 48.952 31.0603C49.3984 31.0198 49.8026 30.823 50.2229 30.6944C50.6624 30.56 51.0517 30.5227 51.4496 30.775C51.5365 30.8299 51.6421 30.8651 51.7898 30.8678C51.6634 30.6587 51.4917 30.5168 51.3472 30.3552C51.1509 30.136 51.0906 29.9062 51.1973 29.6176C51.5866 28.5627 52.0032 27.5179 52.4186 26.4731C52.5664 26.1014 52.6784 25.7142 52.7834 25.5248C52.1872 26.744 51.3989 28.0726 50.7317 29.4646C50.521 29.904 50.0917 30.0176 49.7002 30.1691C49.4885 30.2507 49.4789 30.0427 49.4928 29.8907C49.5322 29.464 49.5733 29.0363 49.648 28.615C50.0176 26.5328 50.3562 24.4464 50.6624 22.3542C50.6976 22.1152 50.7536 21.88 50.8341 21.6528C50.897 21.4752 51.0309 21.3643 51.2138 21.3296C51.4085 21.2923 51.5008 21.4374 51.5941 21.5707C51.8853 21.9872 51.8842 21.9862 52.329 21.7627C53.257 21.2966 53.9712 20.5696 54.68 19.8368C55.0314 19.4731 55.081 19.4582 55.4933 19.7275C56.4117 20.328 57.3669 20.8731 58.241 21.5408C58.5749 21.9259 58.6394 22.4171 58.7114 22.8832C58.9258 24.2646 58.9648 25.6523 58.7168 27.0368C58.7077 27.0864 58.6725 27.1312 58.6496 27.1782C58.3301 28.1499 57.9936 29.1163 57.672 30.0875C57.1792 31.5755 56.6394 33.0475 56.1557 34.5387C56.0293 34.9286 56.0506 35.2539 56.2501 35.6091C56.6437 36.3099 57.0074 37.0272 57.336 37.7622C57.48 38.0838 57.5018 38.4464 57.6917 38.7488C57.7125 38.7963 57.7424 38.8416 57.7536 38.8907C57.9541 39.776 57.9536 39.7766 57.1829 40.2203C57.1333 40.3216 57.0496 40.3862 56.9514 40.4342C55.9253 40.9323 54.8869 41.3995 53.7573 41.6139C52.304 41.8896 51.0661 41.383 49.9477 40.511C49.5802 40.2246 49.6645 39.7558 49.5936 39.3547C49.4288 38.391 49.3317 37.4182 49.2106 36.4486C49.153 35.9851 49.2469 35.8704 49.7072 35.8016C50.5408 35.6774 51.3786 35.5846 52.2117 35.4496C52.7301 35.3659 53.2293 35.2171 53.7402 35.1099C54.0149 35.0518 54.1045 34.8128 54.2026 34.5931C54.5402 33.8342 54.7952 33.0416 55.1168 32.2763C55.8064 30.6358 56.3589 28.9382 57.1514 27.3398C57.1706 27.3014 57.2053 27.2534 57.192 27.2192C56.9504 27.7878 56.6773 28.3574 56.3978 28.9238C55.752 30.2326 55.0848 31.5312 54.3962 32.8182C53.9589 33.6358 53.2789 34.1488 52.4026 34.3862C51.6416 34.592 50.8618 34.7328 50.0826 34.8512C49.5397 34.9339 49.0112 35.087 48.4645 35.1451C47.9994 35.2096 47.5472 35.3574 47.0725 35.359C46.1818 35.6038 45.2736 35.7622 44.361 35.8864C43.8682 35.9536 43.3973 36.1078 42.9104 36.1904C42.3061 36.2928 42.1797 36.2096 42.048 35.624C42.0453 35.0886 41.8965 34.5696 41.8677 34.0374C41.8597 33.8923 41.8293 33.7435 41.8901 33.6016Z" fill="#FFD900"/>
<path d="M25.9797 66.7869C25.8997 66.7816 25.8192 66.7693 25.7397 66.772C25.4619 66.7821 25.3307 66.6978 25.2843 66.3768C24.8565 63.4296 24.4043 60.4861 23.9605 57.5416C23.8971 57.1192 23.8411 56.6952 23.7765 56.2728C23.7637 56.1906 23.7877 56.0685 23.6373 56.0802C23.5173 55.7085 23.512 55.317 23.4709 54.9362C23.3557 53.869 22.8064 52.9693 22.408 52.0115C21.6384 50.1603 20.7712 48.3512 20.0309 46.4877C19.9451 46.2717 19.8219 46.0317 20.0896 45.852C19.7499 45.9133 19.728 45.8882 19.6651 45.349C19.4235 44.6754 19.1024 44.029 18.9493 43.325C18.9131 43.1576 18.9115 42.9832 18.8944 42.8115C19.024 42.6648 19.1408 42.7933 19.2523 42.837C19.6261 42.9826 19.968 43.2002 20.3445 43.34C20.4437 43.3762 20.5381 43.4248 20.6331 43.4712C21.256 43.7768 21.2517 43.7746 21.5461 43.1218C21.6683 42.8509 21.7056 42.5272 21.9947 42.3517C22.1883 42.3203 22.2437 42.4403 22.2869 42.5981C22.4336 43.1379 22.6789 43.6424 22.8581 44.1704C22.8773 44.2045 22.8923 44.2402 22.9051 44.2765C23.2085 45.2562 23.5189 46.2344 23.8037 46.9501C23.6496 46.6056 23.4837 45.9944 23.2736 45.3976C23.2144 45.2296 23.3029 45.1048 23.4117 45.0066C24.04 44.4392 24.4891 43.7549 24.7797 42.9624C24.8277 42.8312 24.9179 42.7325 25.0667 42.7096C25.1744 42.6925 25.2848 42.6888 25.3717 42.7661C25.4752 42.8584 25.4133 42.9693 25.3765 43.0632C25.2416 43.4083 25.0453 43.7229 24.8763 44.0514C25.0672 43.6904 25.2827 43.3416 25.4261 42.956C25.488 42.7896 25.6165 42.6936 25.7952 42.6957C26.2389 42.7016 26.6736 42.6098 27.1136 42.5789C27.24 42.5698 27.3568 42.5699 27.4192 42.7075C27.3691 43.4888 27.6997 44.1954 27.8693 44.932C28.4315 47.3682 29.0293 49.7965 29.4549 52.2626C29.5216 52.6493 29.5056 53.037 29.5061 53.4242C29.5141 57.549 29.3808 61.6722 29.3259 65.7965C29.3237 65.94 29.3472 66.092 29.2587 66.2237C29.2229 66.2776 29.1931 66.3352 29.1525 66.3858C28.1499 66.956 27.1035 67.1768 25.9797 66.7869Z" fill="#DBDBDB"/>
<path d="M55.2896 42.0628C54.5318 42.1658 53.7664 42.2612 53.0064 42.1802C52.1563 42.0895 51.3094 41.9375 50.5798 41.4244C50.328 41.2474 50.0656 41.0842 49.8016 40.9247C49.6555 40.8362 49.472 40.7007 49.3307 40.8644C49.1984 41.018 49.3387 41.1919 49.4331 41.3364C49.5504 41.5162 49.6848 41.6858 49.8443 41.8292C50.0811 42.0426 50.2112 42.3034 50.3094 42.6079C50.5931 43.4879 50.847 44.377 51.1104 45.2618C51.3206 45.9668 51.5686 46.6607 51.7467 47.377C51.9168 48.0607 52.1355 48.7338 52.3707 49.3994C52.4891 49.4202 52.4971 49.5199 52.5232 49.6084C52.6587 50.0698 52.7766 50.538 52.9371 50.9908C53.2262 51.8047 53.3382 52.6756 53.8256 53.4266C55.887 56.6036 57.9328 59.7914 59.9712 62.9834C60.1168 63.2111 60.2582 63.2532 60.4822 63.177C60.8683 63.2031 61.1638 62.97 61.4704 62.8004C61.943 62.5386 62.4198 62.2671 62.7275 61.7924C62.8912 61.6538 62.9003 61.5082 62.823 61.3012C62.4267 60.2356 62.0155 59.1732 61.6779 58.0879C61.3046 56.8863 60.7339 55.7898 60.079 54.7279C59.4603 53.7242 58.7952 52.7519 58.1035 51.7972C58.0006 51.6548 57.928 51.5119 57.9184 51.3236C57.8112 49.25 57.7062 47.1764 57.575 45.1044C57.504 43.9828 57.5003 42.8559 57.3499 41.7391C57.2608 41.5652 57.1099 41.5967 56.9643 41.6292C56.7414 41.6794 56.528 41.762 56.3152 41.8415L55.2896 42.0628Z" fill="#1437AD"/>
<path d="M17.0331 35.4462C16.6811 35.1523 16.2656 34.9603 15.8598 34.7635C14.824 34.26 14.304 33.4094 14.592 32.0963C15.2507 29.0958 15.8496 26.0824 16.4694 23.0734C16.64 22.2446 16.9878 21.4616 17.5547 20.8766C18.111 20.3022 18.8224 19.86 19.52 19.436C20.0054 19.9934 20.3195 20.6606 20.7014 21.2846C21.3494 22.3438 21.9707 23.4184 22.6064 24.4851C22.7606 24.7438 22.9456 24.8696 23.2587 24.8243C23.495 24.7902 23.7392 24.8046 23.9792 24.8211C24.3179 24.844 24.3979 24.9576 24.3216 25.292C24.2566 25.5758 24.0912 25.8382 24.1414 26.1459C24.1035 26.2734 23.9947 26.2894 23.8886 26.3011C22.5862 26.4387 21.6336 27.1043 20.9638 28.2131C20.8875 28.3395 20.8742 28.5699 20.6272 28.5299C20.4704 28.2558 20.5702 27.9795 20.632 27.7091C20.8864 26.6008 21.0902 25.491 21.1078 24.3443C21.1296 22.9582 20.5584 21.9912 19.3776 21.4963C20.9659 22.2595 21.1894 23.2104 21.079 25.0499C20.9846 26.6259 20.5446 28.1246 19.9851 29.5939C19.8043 30.0686 19.6768 30.5646 19.4998 31.0408C19.288 31.611 19.2486 31.6206 18.6491 31.6286C18.3563 31.6323 18.0576 31.5896 17.768 31.7192C17.8139 31.7443 17.8582 31.7368 17.8971 31.7315C18.5211 31.6526 19.0283 31.8542 19.5142 32.2627C20.456 33.0552 21.4528 33.7816 22.415 34.5502C23.3947 35.3278 24.3979 36.0766 25.3627 36.8734C25.4043 36.9075 25.432 36.9539 25.456 37.0019C25.5435 37.2606 25.4134 37.4803 25.3019 37.6867C25.1184 38.0264 24.9302 38.3694 24.6331 38.6307C24.415 38.731 24.2411 38.6163 24.0774 38.5011C23.671 38.2158 23.2 38.0456 22.855 37.7971C23.2603 38.171 23.88 38.4115 24.1595 39.0238C24.1339 39.1363 24.063 39.1987 23.9499 39.2152C23.8539 39.2168 23.7654 39.1848 23.688 39.1336C23.3035 38.8776 22.9142 38.7576 22.4614 38.9832C22.3195 39.0542 22.1206 39.0734 22.0048 38.8803C22.1056 38.692 22.3979 38.772 22.464 38.5048C21.7942 38.0862 21.0576 37.7262 20.3515 37.3139C19.3462 36.7768 18.3467 36.2307 17.3456 35.6872C17.2278 35.6238 17.1008 35.5736 17.0331 35.4462Z" fill="#BF3030"/>
<path d="M47.5633 52.4335C47.5419 53.9989 47.6417 55.5653 47.6902 57.1317C47.7595 59.3535 47.8358 61.5749 47.8982 63.7967C47.9041 64.0111 47.9403 64.1594 48.1691 64.2037C48.2246 64.241 48.2795 64.281 48.3462 64.2938C49.175 64.4522 50.0102 64.5226 50.8539 64.4703C51.0075 64.4607 51.1361 64.3989 51.2454 64.2927C51.3675 64.2623 51.4118 64.1845 51.4166 64.0591C51.4257 63.8319 51.4545 63.6053 51.4699 63.3781C51.6011 61.3999 51.7531 59.4234 51.8529 57.4437C51.9158 56.1893 52.1681 54.9327 51.9467 53.6773C51.8203 52.9605 51.8939 52.2778 52.0214 51.5754C52.1286 50.9855 52.2758 50.3983 52.2929 49.7935C52.1835 49.6858 52.3078 49.5642 52.2731 49.4511C52.0518 48.7301 51.7126 48.0629 51.3339 47.4149C51.2865 47.3338 51.1985 47.2629 51.0987 47.3007C50.9969 47.3391 51.007 47.4506 50.9985 47.5434C50.9569 48.0229 50.9606 48.5039 50.9195 48.9839C50.8353 49.9679 50.8929 50.9813 50.5873 51.9215C50.3867 52.5386 50.3867 53.0015 50.8294 53.337C50.7841 53.2037 50.583 53.0549 50.4582 52.849C50.3755 52.713 50.3105 52.585 50.4107 52.4426C50.6465 52.1082 50.6582 51.7151 50.7126 51.3343C50.8811 50.1429 50.8465 48.9311 51.0155 47.7439C51.1243 46.9791 50.9643 46.3439 50.6011 45.6922C49.9755 44.5695 49.5243 43.361 48.9377 42.2165C48.6758 41.7061 48.3206 41.3343 47.8715 41.0181C47.8678 41.313 47.8641 41.6074 47.8603 41.9023L47.5633 52.4335Z" fill="#1437AD"/>
<path d="M22.8176 57.6751C21.4496 60.3092 20.0752 62.9402 18.7221 65.5823C18.5333 65.9508 18.3008 65.7194 18.0795 65.7258C17.9579 65.7903 17.8448 65.7375 17.736 65.6927C17.0144 65.3956 16.4101 64.9172 15.8107 64.433C15.736 64.3727 15.6976 64.2868 15.6704 64.1967C15.0699 63.7935 15.1925 63.321 15.4256 62.7338C16.6491 59.6548 17.8309 56.5588 19.0192 53.4666C19.2101 52.97 19.144 52.4346 19.1819 51.9178C19.2901 50.4495 19.3627 48.9791 19.4528 47.5098C19.4608 47.378 19.4944 47.2479 19.5157 47.1167C19.72 47.3439 19.6245 47.6522 19.7381 47.9119C20.0427 48.61 20.3776 49.2943 20.6837 49.9914C20.9904 50.689 21.3115 51.3796 21.6139 52.0788C21.7195 52.3231 21.7472 52.5642 21.6224 52.8132C21.5344 52.9892 21.5248 53.1887 21.4683 53.3748C21.4693 53.4303 21.5477 53.3674 21.4955 53.3796C21.4741 53.3844 21.4699 53.3743 21.472 53.3487C21.4768 53.2804 21.5173 53.2234 21.5301 53.1578C21.56 53.0026 21.5632 52.7871 21.7531 52.7818C21.92 52.777 21.9797 52.9828 22.0539 53.1247C22.5173 54.0132 22.6389 54.9807 22.6848 55.9588C22.712 56.5327 22.7968 57.1012 22.8176 57.6751Z" fill="#DBDBDB"/>
<path d="M20.6486 28.5103C21.0192 27.9631 21.3344 27.378 21.8934 26.9743C22.5024 26.5348 23.1558 26.2421 23.9104 26.1909C23.9712 26.1866 24.0299 26.1471 24.0896 26.1236C24.2171 25.9924 24.383 26.0229 24.5392 26.0149C24.5787 26.0133 24.6192 26.0106 24.6587 26.0175C25.8166 26.209 25.6155 26.0943 26.0427 25.2335C26.167 24.9828 26.279 24.7252 26.3904 24.4682C26.5878 24.0148 26.7334 23.962 27.2011 24.1567C27.3862 24.2335 27.5632 24.3274 27.7467 24.4069C28.0656 24.5658 28.376 24.7428 28.7131 24.8639C28.8427 24.9535 29.0246 24.9834 29.071 25.1701C28.9536 25.7018 28.6059 26.1279 28.4043 26.6223C28.2934 26.8943 28.143 27.1498 28.0123 27.4138C27.7787 27.8837 27.7702 27.8975 28.1963 28.186C28.9158 28.673 29.3814 29.3397 29.6288 30.1594C29.8384 30.8543 29.8736 31.5541 29.5776 32.2399C29.4411 32.5567 29.3846 32.9077 29.1776 33.1951C29.1334 33.1893 29.0891 33.1829 29.0454 33.177C28.8864 33.2255 28.7632 33.1274 28.6288 33.0746C28.0198 32.8335 27.44 32.529 26.847 32.2538C26.44 32.065 26.4038 31.9434 26.5307 31.4917C26.6411 31.097 26.816 30.7066 26.6822 30.281C26.575 29.6149 26.0939 29.3306 25.5168 29.1604C25.0032 29.009 24.3862 29.3717 24.0683 29.9962C23.7312 30.6586 23.7355 31.289 24.1862 31.9178C24.3883 32.1999 24.5979 32.473 24.8166 32.7407C25.2576 33.2399 25.6795 33.7551 26.0923 34.2778C26.1926 34.4042 26.2886 34.53 26.3248 34.6916C26.5318 35.137 26.735 35.5829 26.7739 36.0821C26.8112 36.5663 26.7702 37.0314 26.4619 37.4357C26.3419 37.5023 26.2086 37.4991 26.0779 37.5103C25.5334 37.5578 25.5094 37.5402 25.4011 37.0154C24.4048 36.2319 23.4086 35.4479 22.4123 34.6645C21.4464 33.7434 20.5771 32.7413 20.2379 31.4191C20.0054 30.5135 20.0758 29.5925 20.4731 28.7205C20.5131 28.6341 20.5568 28.5519 20.6486 28.5103Z" fill="#9FEE00"/>
<path d="M22.0528 38.8373C22.1579 38.9626 22.3264 38.9418 22.4171 38.8922C22.9691 38.5898 23.4219 38.8277 23.8736 39.1173C23.9067 39.1386 23.9446 39.153 23.9798 39.1706C24.4859 38.8975 24.4939 38.8927 24.8176 39.4026C24.9216 39.5663 25.1638 39.6751 25.0688 39.9359C24.183 40.6271 23.1974 40.8245 22.119 40.5103C21.8646 40.4362 21.7488 40.5418 21.6523 40.7525C21.2998 41.5199 20.9334 42.281 20.583 43.0495C20.5222 43.1823 20.4832 43.3301 20.3382 43.4053C19.8235 43.2879 19.3995 42.9487 18.8934 42.8106C18.1958 42.3919 18.1968 42.3925 18.5504 41.6277C18.6715 41.3658 18.8438 41.1258 18.8939 40.833C19.0379 40.5589 18.9355 40.3797 18.711 40.1861C18.3227 39.8522 17.896 39.5434 17.671 39.0554C17.3451 38.4341 17.0251 37.8149 16.9296 37.1007C16.8539 36.537 16.871 35.9893 17.0336 35.4458C17.9766 35.8463 18.8278 36.4218 19.7456 36.8693C19.9712 36.9791 20.1856 37.1119 20.4054 37.2341C20.6635 38.0677 21.3008 38.5114 22.0528 38.8373Z" fill="#9FEE00"/>
<path d="M26.7744 30.212C26.9584 30.6904 26.7835 31.1432 26.6144 31.5656C26.4736 31.9165 26.5904 32.0333 26.8811 32.1629C27.6085 32.4883 28.3253 32.8371 29.0464 33.1768C29.1611 34.9517 29.2347 36.7277 29.1717 38.5064C29.1525 39.0547 29.0699 39.5949 28.9483 40.1304C28.7979 40.7928 28.4576 41.2707 27.7547 41.4157C27.0416 41.4947 26.3285 41.5688 25.6096 41.5357C25.4896 41.5304 25.3701 41.5213 25.2667 41.4504C25.1227 41.2627 25.2709 41.1587 25.3947 41.0707C25.6091 40.9187 25.8032 40.7469 25.9792 40.5533C26.256 40.3272 26.664 40.324 26.8885 39.996C27.1147 39.6659 27.3536 39.3453 27.5611 39.0019C27.6517 38.852 27.5947 38.7667 27.4901 38.6563C27.1659 38.3117 27.1941 38.2168 27.6379 38.0733C27.7371 38.0413 27.8512 38.0323 27.9152 37.892C27.7296 37.7325 27.4123 37.7837 27.2789 37.5347C27.192 36.4707 26.7707 35.5304 26.2123 34.6408C25.8059 33.9677 25.2459 33.4168 24.7563 32.8099C24.4635 32.3283 24.3835 31.8189 24.5909 31.2872C24.7893 30.7784 25.0816 30.3427 25.5957 30.0936C26.0384 29.8797 26.4331 29.9139 26.7744 30.212Z" fill="#BF3030"/>
<path d="M27.7269 24.4843C27.4672 24.4539 27.2528 24.3051 27.0288 24.1941C26.7883 24.0747 26.6539 24.1312 26.5509 24.3573C26.3403 24.8192 26.0912 25.2677 25.9264 25.7456C25.7904 26.1413 25.5749 26.2779 25.1824 26.1952C24.9872 26.1541 24.7883 26.1296 24.5909 26.0976C24.3237 26.0752 24.2533 25.9163 24.3051 25.6784C24.3568 25.4432 24.4053 25.2069 24.4587 24.9723C24.5131 24.7317 24.4347 24.5904 24.1819 24.6245C23.6699 24.6933 23.3979 24.4368 23.1189 24.0309C22.1115 22.5653 21.0859 21.1115 20.024 19.6848C19.9216 19.5472 19.7269 19.424 19.8475 19.1979C20.1157 18.9829 20.3835 18.7675 20.6517 18.5525C20.8667 18.4475 20.9989 18.5877 21.1456 18.7099C22.4357 19.7808 23.6405 20.9429 24.816 22.1365C25.2464 22.5728 25.6373 23.0448 26.0869 23.5013C25.9317 22.96 25.7531 22.448 25.5355 21.9493C25.4661 21.7899 25.3872 21.6341 25.4336 21.4507C25.4741 21.0976 25.4341 20.744 25.4464 20.3915C25.4517 20.2357 25.4373 20.0747 25.5456 19.9419C25.5787 19.9179 25.624 19.8971 25.6533 19.9259C26.3749 20.6443 27.2272 21.2715 27.3643 22.3973C27.3931 22.6352 27.5541 22.8629 27.5333 23.0923C27.4939 23.5328 27.4565 23.9509 27.784 24.3109C27.8229 24.3536 27.7872 24.4389 27.7269 24.4843Z" fill="#BF3030"/>
<path d="M29.5979 26.0566C30.0475 27.1868 30.5019 28.3153 30.943 29.4486C31.0299 29.6721 31.1531 29.8246 31.3654 29.9489C33.0043 30.9116 34.6262 31.9041 36.2742 32.8508C36.648 33.0657 36.3355 33.2476 36.351 33.4428C36.1392 34.086 35.8507 34.6908 35.456 35.2433C35.3168 35.3558 35.2507 35.6961 34.9792 35.3958C33.68 34.7014 32.479 33.8508 31.239 33.062C30.9803 32.8972 30.7094 32.7489 30.4528 32.5793C30.3072 32.4833 30.1579 32.39 30.1088 32.2044C30.1051 31.5356 30.2 30.8614 30.0603 30.1996C29.8923 29.407 29.4928 28.7254 28.9542 28.1286C28.7142 27.863 28.671 27.6129 28.8534 27.2956C29.0267 26.9942 29.1227 26.6529 29.296 26.3489C29.368 26.2225 29.4224 26.0769 29.5979 26.0566Z" fill="#BF3030"/>
<path d="M30.1445 67.7598C31.8144 68.3304 33.4549 68.979 35.1003 69.6158C35.5115 69.7747 35.5317 70.1208 35.5557 70.4712C35.6005 71.1267 35.5973 71.1267 34.9627 71.1267C33.0848 71.1267 31.2075 71.1262 29.3296 71.1288C29.1381 71.1294 28.9851 71.124 28.8517 70.9294C28.6821 70.6819 28.1157 70.7566 27.9488 71.0296C27.8725 71.1544 27.7696 71.1251 27.6699 71.1262C27.1467 71.1294 26.6235 71.1182 26.1008 71.132C25.8901 71.1379 25.816 71.0664 25.8165 70.8606C25.8181 70.3768 25.8448 69.8974 25.9701 69.4275C26.1264 69.2878 26.3195 69.3144 26.504 69.3139C27.1979 69.3102 27.8917 69.3016 28.5851 69.3171C28.9104 69.3246 29.0923 69.2163 29.2123 68.8974C29.3904 68.4232 29.6272 67.9688 30.1445 67.7598Z" fill="#593718"/>
<path d="M38.52 40.6321C39.2624 40.8945 40.0154 41.1313 40.6922 41.5484C41.8362 42.2535 42.721 43.197 43.3178 44.405C43.3589 44.4882 43.4064 44.5682 43.4762 44.6348C43.1856 43.7522 42.9696 43.1703 40.7909 41.2449C41.1226 41.4103 42.6149 42.7479 42.8096 43.0321C43.624 44.2209 44.073 45.5457 44.0554 46.9847C44.0368 48.478 43.5754 49.8593 42.6629 51.0519C41.624 52.4097 40.2496 53.2529 38.5621 53.5831C36.753 53.9367 35.0848 53.5937 33.5488 52.5921C31.8202 51.4652 30.8597 49.8503 30.5514 47.8263C30.3162 46.2818 30.6346 44.8295 31.4197 43.5116C32.5786 41.5655 34.3162 40.4572 36.585 40.2012C36.9856 40.1559 37.384 40.1367 37.785 40.1372C37.8245 40.2418 37.7669 40.3015 37.6864 40.3511C37.1733 40.4551 36.648 40.3943 36.1296 40.4823C35.3306 40.6177 34.5866 40.8764 33.8864 41.2711C34.9386 40.6684 36.0725 40.3938 37.2842 40.4263C37.4048 40.4295 37.5269 40.4305 37.632 40.5047C37.7546 40.7073 37.6096 40.8305 37.497 40.9639C37.0896 41.1351 36.6528 41.0172 36.2293 41.1015C33.417 41.6594 31.5104 43.6257 31.1744 46.4657C30.9733 48.1628 31.4325 49.7137 32.5509 51.0311C33.9141 52.6369 35.6794 53.3393 37.76 53.2135C40.2661 53.062 42.5754 51.0561 43.1493 48.6065C43.5856 46.7447 43.2405 45.0385 42.1328 43.4945C41.3072 42.3436 40.1802 41.6081 38.8144 41.2359C38.649 41.1905 38.4656 41.1809 38.3445 41.0305C38.329 40.8652 38.2746 40.6828 38.52 40.6321Z" fill="#C6A6EE"/>
<path d="M49.3062 10.2698C49.3222 10.0575 49.4454 9.89166 49.5707 9.73966C49.7446 9.52899 49.8416 9.35992 49.4411 9.24099C51.3558 8.52526 53.1627 8.32792 54.76 10.0175C54.776 9.80579 54.7846 9.69646 54.7958 9.54766C55.1131 9.82872 55.6635 9.98659 55.6326 10.3802C55.6086 10.6826 55.4075 10.8842 55.8432 10.8234C55.9056 10.8149 55.7872 11.0922 55.808 11.1615C55.9291 12.0101 55.7211 12.8074 55.4 13.5775C55.1894 14.0831 54.7286 14.3135 54.2448 14.4965C53.911 14.3722 53.5771 14.4319 53.2438 14.5034C53.0752 14.4751 52.9019 14.4559 52.799 14.2901C52.8267 13.3669 52.2272 12.5823 52.2219 11.6618C52.2198 11.2751 51.8896 11.0757 51.6363 10.8437C51.2838 10.4826 50.9126 10.1434 50.3915 10.0586C50.1403 10.0175 49.8907 10.0634 49.6619 10.1973C49.5558 10.2597 49.4512 10.3797 49.3062 10.2698Z" fill="#6D470F"/>
<path d="M56.1819 42.0201C56.5648 41.9028 56.9126 41.6244 57.3515 41.7391C57.3696 41.2244 57.2518 40.7247 57.1835 40.2196C56.623 40.4692 56.0688 40.7364 55.4998 40.9652C54.2422 41.4703 52.9563 41.8692 51.615 41.3215C50.7056 40.9503 49.6667 40.6543 49.6934 39.3492C49.408 39.186 49.2107 39.4564 48.9675 39.4991C48.8144 39.5785 48.6486 39.6271 48.4923 39.6964C48.2704 39.7951 47.9942 39.8015 47.8582 40.0537C47.8624 40.3748 47.8667 40.6964 47.8704 41.0175C47.9216 41.1087 47.9504 41.2415 48.0283 41.2841C48.6006 41.5983 48.7979 42.1839 49.0592 42.7108C49.6571 43.9172 50.1792 45.1604 50.8006 46.3567C50.9206 46.5881 51.024 46.8255 51 47.1145C50.9046 48.2559 50.8491 49.4004 50.7483 50.5412C50.6966 51.122 50.7019 51.7385 50.4224 52.2548C50.2294 52.6111 50.3115 52.8329 50.5376 53.0623C50.712 53.2393 50.8374 53.4185 50.7451 53.7625C50.9691 53.5444 50.9398 53.3748 50.8315 53.2585C50.4934 52.8943 50.4774 52.5684 50.6347 52.0617C50.8678 51.3113 50.8875 50.4932 50.9286 49.6921C50.9686 48.9156 50.9696 48.1321 51.127 47.2655C51.6374 48.114 51.9974 48.9375 52.2918 49.7929C52.3179 49.6617 52.344 49.5305 52.3707 49.3993C52.352 48.5033 51.944 47.7012 51.7168 46.8596C51.3712 45.5807 50.9472 44.3204 50.575 43.0463C50.4219 42.522 50.2891 41.9743 49.7952 41.6057C49.5787 41.4441 49.376 41.2041 49.3584 40.8793C49.5483 40.8479 49.6539 40.9588 49.7755 41.0351C50.2272 41.3193 50.6496 41.6868 51.1408 41.8617C51.8742 42.1231 52.632 42.3396 53.4406 42.3129C54.1355 42.2895 54.8256 42.2441 55.511 42.138L56.1819 42.0201Z" fill="#061F70"/>
<path d="M35.456 35.2433C35.7019 34.6172 35.992 34.0129 36.3509 33.4428C36.8171 33.6156 37.2464 33.2513 37.7104 33.3468C37.7787 33.3606 37.8043 33.2524 37.7824 33.19C37.6528 32.8182 37.9067 32.8742 38.1173 32.887C38.6091 32.9164 39.1019 32.9393 39.5925 32.983C39.9264 33.0129 40.2683 33.079 40.5072 33.3329C40.8299 33.6758 41.1979 33.7948 41.648 33.6764C41.8555 33.7601 41.8416 33.9489 41.8464 34.1185C41.8565 34.4662 41.8651 34.8156 41.8405 35.1628C41.8277 35.342 41.8512 35.5078 41.9184 35.671C41.8981 35.7201 41.8656 35.7302 41.8203 35.7025C41.5888 35.6609 41.4496 35.7494 41.2848 35.935C40.8677 36.406 40.3211 36.7372 39.7621 37.0038C39.2896 37.2289 38.7723 36.9804 38.2768 36.9398C37.8507 36.9046 37.4555 36.695 37.0181 36.6481C36.6864 36.6124 36.4352 36.3185 36.2741 36.0694C36.0517 35.7238 35.8091 35.4401 35.456 35.2433Z" fill="#E9938C"/>
<path d="M18.0704 67.4904C18.0917 67.5059 18.1216 67.5165 18.1339 67.5379C18.8037 68.6861 19.9029 69.2237 21.0917 69.6493C21.6357 69.844 21.968 70.4755 21.8912 71.0307C21.8683 71.196 21.7696 71.1795 21.6651 71.1795C20.352 71.1805 19.0389 71.18 17.7259 71.1821C17.5941 71.1821 17.5008 71.1181 17.4059 71.0392C16.6656 70.4221 15.9221 69.8083 15.1829 69.1901C15.1067 69.1267 15.0107 69.0829 15.0165 68.9405C15.0315 68.5528 14.8085 68.3571 14.4491 68.4413C14.3365 68.4675 14.2715 68.4365 14.1984 68.3752C14.0757 68.2717 13.9541 68.1667 13.8304 68.0637C13.2501 67.5811 13.2485 67.5805 13.6235 66.9208C13.7221 66.7475 13.8133 66.5677 13.968 66.4333C14.1685 66.4067 14.2875 66.5549 14.4171 66.6595C14.8859 67.036 15.3819 67.3763 15.8475 67.7555C16.0507 67.9213 16.2331 67.9448 16.4693 67.8339C16.8443 67.6579 17.2379 67.5283 17.648 67.4541C17.7925 67.4269 17.9365 67.3933 18.0704 67.4904Z" fill="#593718"/>
<path d="M47.6117 31.5179C47.3904 31.7147 47.0992 31.7141 46.8363 31.7925C46.0656 32.0213 45.2827 32.2101 44.5296 32.4965C44.4763 32.5168 44.4293 32.5264 44.3888 32.4757C45.1152 31.7573 45.2533 30.7776 45.5323 29.8661C46.3568 27.1701 47.1664 24.4693 48.0464 21.7909C48.16 21.4443 48.3573 21.1744 48.6587 20.976C48.9045 20.8139 49.1408 20.6357 49.3984 20.4949C49.8421 20.2517 50.2992 20.0373 50.5013 19.5168C50.5408 19.4144 50.6491 19.3269 50.7712 19.2891C51.0907 19.4997 50.9952 19.7424 50.8261 19.9909C50.712 20.1605 50.8075 20.3264 50.8315 20.4949C50.9104 21.0555 50.6501 21.4363 50.1749 21.4629C49.4571 21.3291 49.4133 21.2277 49.7376 20.7131C49.0064 21.552 48.6635 22.6768 48.448 23.8672C48.2549 24.9323 47.9643 25.9765 47.8293 27.056C47.7184 27.9445 47.5461 28.824 47.5653 29.7253C47.5728 30.0592 47.5872 30.3952 47.5147 30.7253C47.4731 30.9136 47.5429 31.0651 47.6619 31.2032C47.7072 31.3173 47.6981 31.4235 47.6117 31.5179Z" fill="#BFAA30"/>
<path d="M53.2512 14.4575C53.5744 14.2933 53.8987 14.1925 54.2294 14.4394C54.5243 14.6682 54.575 15.0949 54.336 15.4506C54.1707 15.697 53.9558 15.8922 53.6683 15.993C53.4315 16.0847 53.1974 16.1759 52.9403 16.0453C52.72 15.9338 52.6304 16.1189 52.5286 16.2527C52.1131 16.7973 51.624 17.2602 51.04 17.6213C50.927 17.6911 50.8176 17.7701 50.6736 17.7562C50.2336 17.7877 49.8379 18.0229 49.3819 18.0069C48.7926 17.9866 48.5595 17.8255 48.4278 17.2479C48.2768 16.5866 48.3456 15.9146 48.3382 15.2463C48.3366 15.1055 48.3888 14.9546 48.2368 14.8415C47.9296 14.6133 47.8918 14.3914 48.2592 14.1722C48.3574 14.1135 48.4219 13.9983 48.5019 13.9093C48.5056 13.8693 48.5051 13.8234 48.5291 13.7935C48.6864 13.5983 48.7174 13.2538 49.0715 13.2863C49.4038 13.3167 49.4064 13.6165 49.4912 13.8474C49.6502 14.2794 50.4059 14.4655 50.7126 14.1301C50.9126 13.9109 51.1152 13.8485 51.3851 13.9439C51.847 14.1077 52.351 14.1349 52.7888 14.3759C52.8838 14.4885 52.8 14.6383 52.8651 14.7615C53.0278 14.7743 53.0347 14.617 53.112 14.5391C53.1483 14.4943 53.1926 14.4629 53.2512 14.4575Z" fill="#E8938C"/>
<path d="M41.8208 35.7018C41.8469 35.6964 41.8715 35.6868 41.8944 35.673C41.9707 35.6079 42.0496 35.5588 42.1477 35.6351C42.3189 36.1556 42.392 36.1956 42.9685 36.0554C44.1717 35.762 45.4 35.6079 46.6165 35.3887C46.7803 35.3594 46.8864 35.2042 47.0608 35.2356C47.0693 35.4186 46.9675 35.5338 46.8229 35.6228C45.1595 37.0847 43.4907 38.5407 41.8379 40.0143C41.5856 40.2394 41.4229 40.2586 41.2405 39.9759C40.7744 39.4756 40.2597 39.0223 39.8096 38.5071C39.6629 38.3114 39.8555 38.2175 39.9419 38.1055C40.5637 37.3012 41.1936 36.5023 41.8208 35.7018Z" fill="#BFAA30"/>
<path d="M49.6933 39.3493C49.4565 39.4203 49.2203 39.4912 48.9835 39.5627C48.7077 38.8848 48.7781 38.1947 48.8256 37.712C48.6997 38.2373 48.3637 38.9259 48.096 39.64C48.0293 39.8171 47.9803 40.0384 47.7003 39.9685C47.2192 39.8107 47.0501 39.4779 47.1536 38.9925C47.3435 38.9877 47.3557 39.1824 47.4811 39.2853C47.6181 39.2123 47.6485 39.0619 47.7003 38.9365C47.9851 38.2469 48.2992 37.5669 48.5285 36.8571C48.7237 36.2523 48.7061 35.6288 48.504 35.0187C49.3973 34.8939 50.2821 34.7147 51.168 34.552C51.8773 34.4219 52.624 34.3291 53.2539 33.9184C53.7781 33.5765 54.1445 33.0965 54.4283 32.5387C55.3013 30.8235 56.1899 29.1157 57.072 27.4048C57.1435 27.2656 57.1456 27.0896 57.3712 26.9248C57.1435 27.4891 56.9477 27.9701 56.7547 28.4528C56.1115 30.0619 55.4576 31.6667 54.8336 33.2827C54.6219 33.8304 54.4101 34.3765 54.1701 34.9125C54.0885 35.0949 53.9605 35.1776 53.7525 35.2325C52.3963 35.5915 51.0053 35.7355 49.6219 35.9205C49.3147 35.9616 49.2763 36.1024 49.3061 36.3419C49.3989 37.0944 49.4917 37.8469 49.5872 38.5995C49.6187 38.8501 49.6576 39.0997 49.6933 39.3493Z" fill="#BFAA30"/>
<path d="M59.1392 70.6259C59.0096 70.0222 59.3163 69.6723 59.8245 69.4323C60.0539 69.3241 60.2667 69.1779 60.5013 69.0851C60.7995 68.9673 60.9904 68.7758 61.056 68.4617C61.6917 68.3011 61.904 67.8158 62.0187 67.2382C62.0773 66.9411 62.1733 66.651 62.2416 66.3539C62.0667 66.2265 61.8629 66.4633 61.7141 66.2841C61.552 65.8931 61.4005 65.4969 61.2229 65.1129C61.1275 64.9065 61.1659 64.7918 61.3776 64.7273C61.5979 64.507 61.8437 64.5667 62.0789 64.6809C62.5024 64.8862 62.7952 65.2249 63.0027 65.6419C63.1621 66.1033 63.1109 66.5913 63.168 67.0654C63.248 67.7305 63.4107 68.3422 63.8619 68.859C64.0171 69.0366 64.1829 69.2222 64.1899 69.4841C63.9493 70.4494 63.4683 70.835 62.4976 70.8361C61.5637 70.8371 60.6293 70.8414 59.6955 70.8329C59.4928 70.8307 59.2544 70.8825 59.1392 70.6259Z" fill="#2C4081"/>
<path d="M23.792 9.93755C24.7504 10.0112 25.3867 10.5402 25.6358 11.4912C25.7574 11.9541 25.8539 12.4234 25.9622 12.8901C25.6806 13.2074 25.3179 13.2853 24.9152 13.2469C24.8064 13.0106 24.6902 12.9994 24.5483 13.2261C24.4854 13.3264 24.4486 13.4421 24.3648 13.5301C23.8598 13.8341 23.3232 14.0762 22.7936 14.3322C22.6688 14.3925 22.5254 14.4736 22.3835 14.3498C22.2619 14.0522 22.3008 13.7461 22.3627 13.4485C22.4342 13.1061 22.3307 12.8842 22.0043 12.7536C21.8326 12.6848 21.6688 12.5941 21.5083 12.5002C21.3419 12.4032 21.2736 12.2549 21.272 12.0688C21.2464 11.6378 21.5243 11.353 21.7739 11.0634C22.0774 10.7114 22.4438 10.4176 22.7286 10.0474C22.8288 9.91729 22.9643 9.89222 23.1195 9.90715C23.343 9.92902 23.5702 9.87515 23.792 9.93755Z" fill="#E8938C"/>
<path d="M22.8176 57.6749C22.552 57.2323 22.6336 56.7283 22.5973 56.2541C22.5163 55.1875 22.4549 54.1256 21.9515 53.1485C21.8901 53.0296 21.8363 52.9155 21.7285 52.8232C21.5696 53.0285 21.6368 53.3336 21.3936 53.5187C21.3787 53.244 21.4677 53.0061 21.5547 52.7784C21.6443 52.5437 21.6229 52.3277 21.5237 52.1192C20.9344 50.8829 20.4288 49.6088 19.8085 48.3864C19.6107 47.9965 19.4704 47.5725 19.5168 47.1165C19.5445 46.5256 19.5701 45.9347 19.664 45.3496C19.6923 45.3779 19.744 45.4056 19.7445 45.4339C19.7488 45.828 19.9205 45.8968 20.2421 45.7032C20.2672 45.6883 20.3147 45.7096 20.4443 45.7245C19.8357 45.956 20.0539 46.2968 20.2032 46.6408C20.7019 47.7896 21.1883 48.9437 21.6869 50.092C22.2437 51.3747 22.8341 52.6435 23.3573 53.9395C23.5323 54.3725 23.5701 54.8685 23.6219 55.3411C23.648 55.5816 23.8005 55.8323 23.6368 56.0803C23.3637 56.6115 23.0907 57.1432 22.8176 57.6749Z" fill="#7A7A7A"/>
<path d="M48.1141 66.535C48.2496 66.0395 48.1397 65.535 48.1696 65.0353C48.1813 64.8363 48.1787 64.6369 48.1824 64.4374C48.3285 64.367 48.4715 64.4091 48.6064 64.4635C49.3515 64.7643 50.1237 64.935 50.9259 64.9745C51.0325 64.9798 51.1387 64.9926 51.2171 65.0785C51.1941 65.6774 51.2224 66.2838 51.1349 66.8731C51.0384 67.5238 51.2256 68.1089 51.384 68.7105C50.8149 69.1633 49.7851 69.263 49.1797 68.9249C49.0512 68.8529 48.9184 68.7894 48.7973 68.7046C48.6933 68.6267 48.5781 68.5595 48.5205 68.4337C48.4848 68.3457 48.4683 68.2518 48.4757 68.1595C48.5253 67.5798 48.4267 67.0342 48.1141 66.535Z" fill="#E8948C"/>
<path d="M58.2411 21.5403C57.6677 21.407 57.2933 20.9409 56.7968 20.6737C56.2843 20.3974 55.8144 20.0427 55.3253 19.7227C55.1515 19.6091 55.0368 19.591 54.8587 19.7862C54.0363 20.6886 53.1621 21.5307 52.0229 22.047C51.8069 22.1451 51.7472 22.1067 51.6731 21.9286C51.632 21.8299 51.5909 21.7249 51.5232 21.6459C51.4421 21.5521 51.4117 21.3563 51.2459 21.4011C51.0837 21.4449 50.9552 21.5457 50.9029 21.7478C50.7115 22.4849 50.6661 23.2454 50.5227 23.9905C50.3616 24.8251 50.232 25.6673 50.1179 26.5099C49.9728 27.5771 49.7115 28.6262 49.632 29.7025C49.6224 29.8331 49.5173 29.951 49.5931 30.1174C50.0816 29.8998 50.5248 29.7163 50.7941 29.151C51.4368 27.8027 52.1776 26.5009 52.88 25.1809C52.9035 25.1371 52.9381 25.0993 53.0405 24.9595C52.9392 25.5654 52.7115 26.0038 52.5429 26.4577C52.1264 27.5793 51.6832 28.6907 51.2475 29.8054C51.1445 30.0683 51.3504 30.1979 51.4832 30.3467C51.6821 30.5697 51.9115 30.7665 52.0336 31.0625C51.9723 31.0758 51.9387 31.0939 51.9243 31.0843C51.1637 30.5707 50.3904 30.6449 49.5941 31.0017C49.4101 31.0843 49.2144 31.2001 48.9893 31.1558C48.9008 31.0667 48.9301 30.9606 48.9408 30.8539C49.0208 30.0454 49.2075 29.255 49.3488 28.4566C49.4901 27.6577 49.6197 26.8561 49.7664 26.0582C49.8795 25.4438 49.968 24.8246 50.1061 24.2161C50.2832 23.4363 50.336 22.6353 50.5451 21.8603C50.6155 21.599 50.7061 21.3873 50.9195 21.2267C51.0496 21.1291 51.1403 20.9947 51.2363 20.8667C51.4736 20.6817 51.5525 20.9067 51.6128 21.0438C51.7499 21.3553 51.9104 21.3318 52.1717 21.1809C53.176 20.6001 54.1595 19.9958 54.9488 19.1254C55.0117 19.0561 55.0864 18.9958 55.1936 19.0337C56.2667 19.7974 57.3781 20.5179 58.2411 21.5403Z" fill="#BFAA30"/>
<path d="M48.1142 66.5348C48.4384 66.7231 48.5451 67.0388 48.5686 67.3791C48.5931 67.7385 48.5744 68.1012 48.575 68.4623C48.5126 68.6537 48.3334 68.706 48.1787 68.7721C47.8219 68.9241 47.4795 69.1103 47.119 69.2495C46.5531 69.4687 46.1942 69.8601 46.007 70.4308C45.9382 70.6399 45.9078 70.8873 45.6416 70.9689C44.5259 71.0436 43.4096 71.0031 42.2939 70.9908C42.087 70.9887 41.8752 70.9332 41.9739 70.6313C42.0598 69.9391 42.3526 69.4425 43.1035 69.2836C43.5414 69.1908 43.959 69.0015 44.3862 68.8559C44.3984 68.8505 44.4123 68.8372 44.4219 68.8399C45.2923 69.0873 46.0203 68.5892 46.8027 68.3807C46.9819 68.3327 47.1584 68.2692 47.3728 68.1967C47.2587 68.0825 47.08 68.0537 47.04 67.8948C47.2491 67.4991 47.4726 67.1097 47.6614 66.7044C47.7686 66.474 47.8992 66.4223 48.1142 66.5348Z" fill="#2C4081"/>
<path d="M51.6315 10.7629C52.3968 11.0675 52.3366 11.7784 52.4438 12.4083C52.4656 12.5384 52.4736 12.6872 52.543 12.7901C52.855 13.2504 52.8928 13.7576 52.8438 14.2856C52.5819 14.3933 52.3579 14.2301 52.1184 14.18C51.9088 14.1363 51.7072 14.0573 51.4976 14.0157C50.968 13.9107 50.4304 13.8307 50.167 13.2349C50.1419 13.4589 50.039 13.5843 49.8539 13.5469C49.519 13.4792 49.1771 13.4093 48.9115 13.1629C48.9888 12.7187 49.0235 12.268 49.0902 11.8237C49.1472 11.4435 49.4027 11.1283 49.639 10.8227C49.7062 10.5981 49.8619 10.4323 50.0854 10.4296C50.6214 10.4248 51.1718 10.3976 51.6315 10.7629Z" fill="#E9948C"/>
<path d="M26.5254 14.6903C26.5088 15.6588 26.7419 16.6135 26.6875 17.5836C26.6795 17.7239 26.7403 17.8801 26.6075 17.9969C26.1014 18.3191 25.5435 18.1847 25.0048 18.1612C24.4966 18.1388 23.9984 18.0199 23.504 17.9015C22.815 17.7361 22.4342 17.253 22.2064 16.6178C22.511 16.2679 22.3867 15.9233 22.216 15.5601C22.095 15.3031 21.9067 15.054 21.9792 14.7367C22.1136 14.5644 22.2859 14.5138 22.4934 14.5756C22.8214 14.9687 22.8571 15.4839 23.0507 15.9335C23.2288 16.3473 23.872 16.7404 24.3019 16.6545C24.4603 16.6231 24.5104 16.5009 24.5568 16.3751C24.6491 16.1233 24.7867 15.8924 24.8891 15.6465C25.1963 14.9116 25.7846 14.6738 26.5254 14.6903Z" fill="#E6E6E6"/>
<path d="M21.3802 12.0409C21.328 12.3369 21.545 12.4195 21.7514 12.5171C22.5056 12.8745 22.4992 12.8755 22.4346 13.6862C22.417 13.9086 22.4437 14.1347 22.4501 14.3587C22.369 14.6515 22.0586 14.6025 21.8762 14.7454C21.7893 14.7497 21.7109 14.7177 21.6325 14.6867C20.921 14.6803 20.7248 14.0739 20.4176 13.6163C20.2485 13.3646 20.1354 13.0691 19.9584 12.8227C19.5941 12.3171 19.6037 11.7859 19.7696 11.227C19.7664 11.1171 19.7648 10.9737 19.8821 10.9529C20.257 10.8862 20.4096 10.5699 20.6314 10.3315C21.2064 9.71394 22.0021 9.69901 22.7477 9.54541C22.7952 9.74274 22.6352 9.83234 22.529 9.93901C22.1914 10.2803 21.856 10.6222 21.5589 11.0014C21.3088 11.3203 21.2277 11.6579 21.3802 12.0409Z" fill="#E7E6E6"/>
<path d="M25.232 41.3539C25.7744 41.4525 26.3184 41.3965 26.8629 41.3768C27.16 41.3661 27.4635 41.2669 27.7541 41.4162C27.6453 41.8472 27.6144 42.2984 27.4192 42.7069C27.0597 42.6333 26.7003 42.8088 26.3653 42.764C25.6875 42.6738 25.4213 43.0243 25.2 43.5672C25.0837 43.8525 24.9632 44.1784 24.6347 44.3272C24.8869 43.9378 25.1093 43.5346 25.2784 43.1048C25.3147 43.013 25.4405 42.8664 25.2736 42.8029C25.1269 42.7469 24.9525 42.7592 24.8757 42.9613C24.7861 43.1971 24.7056 43.4333 24.5861 43.6616C24.296 44.2152 23.9088 44.6808 23.4533 45.0984C23.376 45.1693 23.28 45.2456 23.3328 45.3704C23.3872 45.4979 23.5072 45.3235 23.5888 45.4264C23.4528 45.5592 23.4096 45.6717 23.5072 45.8947C23.7275 46.3976 23.8635 46.9373 23.9504 47.492C23.7904 47.0754 23.6256 46.6605 23.4715 46.2419C23.2603 45.6669 23.0549 45.0899 22.8544 44.5117C22.8245 44.4264 22.8347 44.3272 22.8267 44.2339C23.0773 44.2461 23.0843 44.4723 23.1531 44.6285C23.2379 44.8221 23.3408 44.9011 23.5013 44.7299C23.9403 44.26 24.3136 43.7416 24.576 43.1506C24.6379 43.0109 24.5936 42.908 24.432 42.8978C23.8693 42.8632 23.3285 42.7245 22.7877 42.5779C22.5408 42.5107 22.424 42.5869 22.5323 42.8637C22.6245 43.0995 22.6843 43.3469 22.7664 43.5864C22.8373 43.7933 22.9483 44.0072 22.8283 44.2365C22.5376 43.7224 22.3472 43.1672 22.1963 42.6013C22.1627 42.4754 22.1195 42.4312 22.0208 42.3976C21.9659 42.0061 22.1211 41.7747 22.4816 41.7192C22.64 41.6952 22.8011 41.6968 22.9595 41.7058C23.6224 41.7448 24.2576 41.6381 24.8645 41.364C24.9792 41.3117 25.1061 41.2317 25.232 41.3539Z" fill="#7A7A7A"/>
<path d="M18.0704 67.4907C17.4976 67.5616 16.9424 67.7008 16.4315 67.9744C16.2293 68.0827 16.0837 68.08 15.8949 67.9275C15.2624 67.4171 14.6112 66.9296 13.9669 66.4331C14.1168 66.2299 14.2763 66.0363 14.4837 65.8875C14.9984 65.5179 15.2747 64.9691 15.5696 64.4347C15.6651 64.3835 15.7232 64.4539 15.768 64.512C16.3221 65.2347 17.0091 65.8075 17.7691 66.2992C17.3515 66.8272 17.8619 67.1206 18.0704 67.4907Z" fill="#E8938C"/>
<path d="M26.5253 14.69C26.4389 14.7262 26.3536 14.7924 26.2667 14.794C25.2416 14.8137 24.9696 15.6137 24.6901 16.3598C24.5456 16.746 24.3893 16.8382 23.9904 16.7326C23.4619 16.5929 23.0117 16.45 22.8912 15.8132C22.8128 15.3982 22.5781 15.0196 22.5237 14.5908C22.5147 14.4724 22.6027 14.4297 22.688 14.3934C23.08 14.227 23.4741 14.066 23.8763 13.923C24.1851 13.8132 24.3765 13.9022 24.5355 14.178C24.7328 14.5204 25.0997 14.6009 25.4464 14.4222C25.5579 14.3646 25.5531 14.283 25.5483 14.1902C25.5376 13.9913 25.5227 13.7934 25.4896 13.5956C25.416 13.1508 25.592 12.9961 26.0539 13.074C26.2768 13.2857 26.4896 13.5092 26.7248 13.706C27.0859 14.0078 27.0981 14.0772 26.7733 14.4281C26.6907 14.5156 26.6075 14.6025 26.5253 14.69Z" fill="#E8928C"/>
<path d="M30.1446 67.7598C29.7126 68.1528 29.3771 68.6104 29.2251 69.1816C29.1696 69.3902 29.0534 69.443 28.8502 69.4408C27.8902 69.4291 26.9302 69.4307 25.9702 69.4275C26.0283 68.8611 26.2022 68.3118 26.2075 67.7379C26.3243 67.6232 26.4747 67.6376 26.6192 67.6307C27.4934 67.5891 28.2166 67.1848 28.8976 66.6814C29.0278 66.5854 29.0971 66.4355 29.1776 66.2979C29.2043 66.2723 29.231 66.2472 29.2571 66.2222C29.2582 66.2488 29.264 66.276 29.2598 66.3016C29.1307 67.0462 29.3744 67.5624 30.1446 67.7598Z" fill="#E8948C"/>
<path d="M48.8224 68.6224C49.4907 69.1787 50.2128 69.1349 50.9638 68.8235C51.0966 68.7685 51.2438 68.7472 51.384 68.7104C51.4192 68.8651 51.4539 69.0197 51.4891 69.1744C51.5926 69.4347 51.4192 69.5013 51.2246 69.5605C50.6427 69.7371 50.0966 69.9845 49.6144 70.3627C49.383 70.5445 49.2438 70.824 48.9707 70.9611C48.0459 71.0277 47.1211 71.0293 46.1974 70.9616C46.0966 70.9285 46.0352 70.8613 46.0603 70.7525C46.1659 70.2917 46.2928 69.8251 46.7227 69.5621C47.3147 69.2 47.9638 68.9445 48.5872 68.6395C48.6576 68.6053 48.7419 68.6011 48.8224 68.6224Z" fill="#2C4081"/>
<path d="M29.5979 26.0564C29.2592 26.5385 29.096 27.1081 28.8197 27.6217C28.7435 27.763 28.8587 27.867 28.9515 27.9689C29.5067 28.5764 29.9424 29.2521 30.1429 30.0633C30.3232 30.7908 30.2475 31.5225 30.1947 32.2548C30.2139 32.6121 30.1013 32.9294 29.8987 33.2185C29.6459 33.6121 29.4149 33.3161 29.1781 33.1956C29.1787 32.7801 29.4075 32.4334 29.5333 32.058C29.8043 31.2489 29.6768 30.4868 29.3605 29.731C29.0613 29.0153 28.5371 28.4958 27.8837 28.107C27.664 27.9764 27.6635 27.8654 27.768 27.6622C28.1952 26.8329 28.6085 25.9966 29.0267 25.163C29.1248 25.0985 29.1936 25.1758 29.2709 25.2132C29.2757 25.2254 29.2779 25.2462 29.2853 25.2484C29.7509 25.3785 29.8 25.6686 29.5979 26.0564Z" fill="#679B00"/>
<path d="M48.5035 35.0186C48.7269 35.0714 48.7072 35.2447 48.7323 35.4228C48.8811 36.4927 48.4608 37.4266 48.0523 38.3647C47.9147 38.681 47.7771 38.9978 47.6379 39.313C47.6032 39.3914 47.64 39.5343 47.5131 39.5306C47.392 39.5268 47.3637 39.3935 47.3253 39.2964C47.2816 39.1866 47.2741 39.0586 47.1536 38.9924C47.1589 38.6463 47.0091 38.3359 46.872 38.041C46.608 37.4735 46.624 36.9082 46.76 36.3263C46.8144 36.0938 46.8336 35.8602 46.8229 35.6228C46.9024 35.4938 46.9819 35.3647 47.0608 35.2356C47.5547 35.2522 48.0208 35.0799 48.5035 35.0186Z" fill="#1437AD"/>
<path d="M55.1915 19.0328C54.5669 19.6669 53.9109 20.2626 53.1413 20.7208C52.7755 20.9384 52.4107 21.157 52.0443 21.3736C51.8373 21.4957 51.6789 21.5048 51.5941 21.2205C51.5499 21.0722 51.4843 20.9176 51.352 20.813C51.0869 20.5816 51.0203 20.252 50.9189 19.9394C50.9253 19.8034 50.9979 19.7117 51.1259 19.6781C52.3035 19.3714 53.3355 18.7949 54.2464 17.9949C54.4224 17.9277 54.4987 18.0482 54.5808 18.1666C54.7824 18.4568 54.9877 18.7442 55.1915 19.0328Z" fill="#FFD900"/>
<path d="M57.6922 38.7484C57.6682 38.781 57.6325 38.8786 57.6186 38.8322C57.2458 37.5676 56.5546 36.4519 55.977 35.2834C55.9066 35.1404 55.9056 35.0124 55.9573 34.861C56.3136 33.8162 56.6592 32.7682 57.0122 31.7223C57.4757 30.3495 57.9424 28.9783 58.4085 27.6066C58.4672 27.4343 58.5296 27.2626 58.5914 27.0914C58.5914 27.0908 58.6192 27.0951 58.6229 27.1026C58.6346 27.1266 58.641 27.1527 58.6496 27.1778C58.4405 28.4428 58.129 29.6855 57.84 30.9335C57.5152 32.3367 57.1866 33.7388 56.8496 35.1394C56.808 35.3127 56.8672 35.4535 56.9093 35.605C57.1968 36.646 57.5077 37.6812 57.6922 38.7484Z" fill="#BFAA30"/>
<path d="M59.1392 70.6259C59.2502 70.7704 59.408 70.7149 59.5478 70.7155C60.5078 70.7192 61.4699 70.6824 62.4272 70.7293C63.2214 70.7683 63.7323 70.4616 64.0059 69.7283C64.0432 69.6285 64.0907 69.5331 64.1334 69.4355C64.1355 69.26 64.2091 69.1069 64.2843 68.9539C64.568 68.3389 64.8342 67.7155 65.1691 67.1256C65.5232 66.4195 65.7947 65.6728 66.2118 64.9971C66.7296 65.3587 66.7254 65.3565 66.4544 65.9016C65.7222 67.3747 64.9824 68.8445 64.2688 70.3272C63.9734 70.9411 63.5446 71.2349 62.8475 71.2136C61.8027 71.1811 60.7563 71.2056 59.7104 71.2051C59.1323 71.204 59.1323 71.2035 59.1392 70.6259Z" fill="#A18FB1"/>
<path d="M37.6955 40.2976C37.7253 40.2437 37.7552 40.1898 37.7851 40.1365C37.904 39.4666 38.4368 39.2645 38.9861 39.1115C39.2987 39.024 39.5381 38.8651 39.7328 38.6187C40.1744 39.1701 40.5605 39.7594 40.9232 40.3648C40.7669 40.6293 40.6779 40.9056 40.7909 41.2453C40.2768 40.9424 39.7669 40.6938 39.2107 40.5578C38.9739 40.4997 38.7365 40.4816 38.52 40.6325C38.3957 40.729 38.4544 40.8992 38.3685 41.0112C38.3776 41.0805 38.4096 41.1499 38.3723 41.2203C38.2827 41.3584 38.1771 41.4864 38.1077 41.6379C38.0693 41.705 38.024 41.7669 37.9701 41.8224C37.8171 41.9771 37.6331 42.0176 37.4256 41.9685C37.184 41.9115 37.024 41.7851 37.1563 41.5227C37.2779 41.2821 37.1099 41.1963 36.9739 41.0805C37.0789 40.8469 37.3312 41.08 37.4613 40.9259C37.4667 40.7776 37.6469 40.6976 37.6149 40.5349C37.5547 40.4261 37.6133 40.3578 37.6955 40.2976Z" fill="#E8948D"/>
<path d="M65.2405 67.1728C64.9413 67.7845 64.6421 68.3958 64.3435 69.0075C63.8149 68.7397 63.5749 68.2528 63.4608 67.7216C63.3131 67.0336 63.272 66.3269 63.2672 65.6213C63.2971 65.4715 63.4139 65.392 63.5381 65.3499C63.9243 65.2187 64.1403 64.9376 64.3051 64.5813C64.3957 64.3851 64.4736 64.1472 64.7419 64.0981C64.8576 64.1547 64.9733 64.2112 65.0896 64.2683C65.1648 64.4453 65.0875 64.6069 65.0368 64.7701C64.8219 65.4571 64.7888 66.1269 65.2011 66.7632C65.2811 66.8869 65.3269 67.0261 65.2405 67.1728Z" fill="#2C4081"/>
<path d="M19.8475 19.1978C20.1824 19.8356 20.664 20.3716 21.0768 20.9551C21.592 21.682 22.112 22.4058 22.6176 23.1391C22.9035 23.554 23.2315 23.9375 23.4784 24.3828C23.6096 24.6196 23.8944 24.5082 24.112 24.513C24.6475 24.5247 24.6501 24.5215 24.5344 25.0607C24.4928 25.2559 24.488 25.4644 24.4144 25.6458C24.3216 25.8751 24.3947 26.0004 24.5904 26.0975C24.4261 26.1556 24.2581 26.1428 24.0891 26.1236C23.8267 26.0031 24.0464 25.841 24.0805 25.7306C24.3344 24.9146 24.3339 24.8452 23.4789 24.9418C22.8155 25.017 22.5824 24.6906 22.3253 24.2058C21.9952 23.5828 21.5941 22.9983 21.2309 22.3924C20.7669 21.6186 20.3008 20.8452 19.8581 20.0591C19.7424 19.8538 19.5285 19.698 19.5189 19.4351C19.6293 19.3562 19.7387 19.2772 19.8475 19.1978Z" fill="#A60000"/>
<path d="M54.2465 17.9953C53.9835 18.4289 53.5638 18.6935 53.1531 18.9511C52.5361 19.3383 51.8577 19.5975 51.1478 19.7644C51.0555 19.7863 51.0091 19.8316 50.9862 19.9153C50.919 19.9964 50.8481 19.9905 50.7745 19.9244C50.951 19.7111 50.8699 19.4999 50.7702 19.2881C50.7702 19.1233 50.7702 18.9585 50.7697 18.7937C50.9185 18.5287 51.2289 18.5447 51.4529 18.4065C52.2123 17.9372 52.7339 17.2417 53.2817 16.5676C53.3894 16.4348 53.4454 16.2556 53.6267 16.1895C53.8694 16.2273 53.8998 16.4327 53.9595 16.614C53.9787 17.0908 54.0961 17.5463 54.2465 17.9953Z" fill="#E8958D"/>
<path d="M64.7414 64.0977C64.6208 64.1511 64.5728 64.2689 64.5302 64.3751C64.2982 64.9505 63.9424 65.3948 63.3195 65.5724C63.2091 65.7441 63.0683 65.7575 62.9046 65.6513C62.752 65.4039 62.583 65.1692 62.36 64.9777C62.0731 64.7308 61.7563 64.6055 61.376 64.7271C61.3222 64.4289 61.0848 64.2279 60.9707 63.9617C61.3238 63.6039 61.8304 63.5612 62.2566 63.3537C62.5766 63.198 62.911 63.062 63.2342 62.9062C63.5147 63.5841 64.0843 63.8967 64.7414 64.0977Z" fill="#E8938B"/>
<path d="M24.7435 22.1716C24.2832 21.7242 23.8213 21.2778 23.3627 20.8292C22.5968 20.0804 21.7856 19.3828 20.9755 18.6836C20.8805 18.6015 20.784 18.5375 20.6523 18.5524C20.7531 18.4303 20.896 18.3231 20.9461 18.1828C21.0389 17.9215 21.2144 17.8367 21.4624 17.8335C21.5269 18.1423 21.7141 18.3252 22.008 18.4474C22.7952 18.7748 23.52 19.2335 24.3045 19.569C24.4251 19.6207 24.5536 19.6682 24.6395 19.7791C24.744 20.1636 24.5483 20.5087 24.4864 20.8692C24.4432 21.1204 24.4267 21.3188 24.6331 21.5215C24.8043 21.69 24.8864 21.9247 24.7435 22.1716Z" fill="#CCE6EC"/>
<path d="M27.7269 24.4843C27.7376 24.2454 27.6208 24.0769 27.4251 23.9595C27.2517 23.8555 27.1947 23.7286 27.3541 23.5777C27.5189 23.4214 27.496 23.2609 27.4314 23.0678C27.2464 22.5185 27.2058 21.9307 26.9072 21.4065C26.7557 21.1403 26.5232 20.9777 26.3461 20.7526C26.1178 20.463 25.7589 20.2854 25.6266 19.9126C25.6154 19.8843 25.6192 19.8593 25.6405 19.8374C26.5157 20.271 27.4026 20.6854 27.8032 21.6822C28.0976 22.4139 28.465 23.1153 28.704 23.8699C28.7994 24.1185 28.8144 24.3814 28.8336 24.6427C28.8416 24.7537 28.8747 24.8881 28.7131 24.9355C28.3504 24.8603 28.0352 24.6801 27.7269 24.4843Z" fill="#A60000"/>
<path d="M46.095 70.8697C47.0843 70.8713 48.0731 70.8724 49.0624 70.874C49.1366 70.8158 49.2182 70.7689 49.3136 70.7652C50.0144 70.7369 50.7152 70.7316 51.4155 70.7689C51.4955 70.7732 51.5686 70.8089 51.6262 70.8692C51.7104 71.2254 51.5387 71.2873 51.2176 71.2862C48.2806 71.2761 45.343 71.2809 42.4059 71.2809C41.9371 71.2809 41.8427 71.1385 41.9734 70.6318C41.9766 70.7897 42 70.899 42.2139 70.8958C43.3958 70.8788 44.5776 70.8772 45.7595 70.8702C45.8715 70.7961 45.9835 70.7689 46.095 70.8697Z" fill="#A490B1"/>
<path d="M53.6539 16.2249C53.2833 16.7262 52.8913 17.2068 52.4731 17.6718C51.9947 18.2046 51.4433 18.5801 50.7697 18.7934C50.7377 18.4473 50.7057 18.1017 50.6742 17.7556C51.4294 17.2718 52.1281 16.7268 52.6198 15.9577C52.687 15.8526 52.7659 15.8041 52.8811 15.8969C53.1099 16.0814 53.3462 16.043 53.5841 15.9161C53.6571 16.0084 53.7142 16.1038 53.6539 16.2249Z" fill="#CE6B6D"/>
<path d="M29.8992 33.2186C29.9344 32.8778 30.0576 32.5642 30.1947 32.2549C30.7798 32.7178 31.4331 33.0762 32.0598 33.4746C33.0016 34.0741 33.9147 34.7189 34.888 35.2687C34.9291 35.2922 34.9494 35.353 34.9792 35.3962C34.487 35.2661 34.0454 35.0127 33.5808 34.8154C32.3499 34.2922 31.1259 33.7519 29.8992 33.2186Z" fill="#A60000"/>
<path d="M63.2352 62.9055C63.2181 63.0938 63.0517 63.1236 62.9248 63.1802C62.2837 63.465 61.64 63.7439 60.9717 63.9615C60.7786 63.7188 60.6208 63.4543 60.4832 63.1775C61.305 62.8351 62.0581 62.3807 62.729 61.793C62.8976 62.1636 63.0666 62.5343 63.2352 62.9055Z" fill="#CF696E"/>
<path d="M21.697 14.6131C21.7525 14.643 21.808 14.6723 21.8634 14.7022C21.9045 14.7427 21.9845 14.7123 22.009 14.7827C22.1525 15.1374 22.2645 15.5086 22.448 15.8414C22.6288 16.1699 22.5802 16.3833 22.2608 16.5529C22.1013 16.6793 21.9381 16.6729 21.7728 16.5651C21.4986 16.4622 21.2352 16.3369 21.0213 16.1342C20.6442 15.7774 20.5936 15.3374 20.7205 14.8585C20.8064 14.6057 20.984 14.5283 21.2378 14.5747C21.3888 14.6019 21.5488 14.5411 21.697 14.6131Z" fill="#E6948C"/>
<path d="M53.6539 16.2251C53.6048 16.1281 53.5525 16.0321 53.5845 15.9169C54.3435 15.5867 54.5616 15.087 54.2293 14.439C55.2117 14.0609 55.5397 13.2454 55.6645 12.2939C55.7141 11.9163 55.76 11.5387 55.8075 11.1611C56.1451 11.7185 56.0944 12.3206 55.9605 12.9099C55.7835 13.6865 55.4512 14.3958 54.9067 14.9963C54.4795 15.4673 54.2336 16.0502 53.9595 16.6139C53.7931 16.5355 53.776 16.3387 53.6539 16.2251Z" fill="#59390E"/>
<path d="M51.6261 70.8693C50.7717 70.8709 49.9168 70.8725 49.0624 70.8741C49.4346 70.1599 50.1285 69.8799 50.8106 69.5871C50.9562 69.5247 51.1098 69.4677 51.265 69.4437C51.4357 69.417 51.4837 69.3215 51.489 69.1743C51.6304 69.7316 51.6378 70.2997 51.6261 70.8693Z" fill="#FFD900"/>
<path d="M65.2405 67.1726C65.2469 66.8276 64.9339 66.6318 64.8496 66.3204C64.6544 65.5972 64.8389 64.9316 65.0896 64.2676C65.5131 64.435 65.864 64.7145 66.2128 64.9972C66.0971 65.5817 65.7419 66.0638 65.5243 66.6052C65.4453 66.8004 65.3355 66.9838 65.2405 67.1726Z" fill="#FFD900"/>
<path d="M24.8363 18.5609C24.8091 18.6958 24.7813 18.8302 24.7541 18.9652C24.6875 19.459 24.6864 19.4601 24.1984 19.3033C23.7163 19.1486 23.2496 18.9561 22.8011 18.7198C22.2715 18.4409 21.7099 17.4249 21.7691 16.8558C21.7749 16.8089 21.7803 16.762 21.7861 16.7145C21.9488 16.5993 22.0272 16.7385 22.1125 16.8302C22.2208 16.947 22.3109 17.0804 22.4069 17.2078C22.8885 17.8473 23.5376 18.1934 24.3184 18.3294C24.5008 18.3609 24.7323 18.3326 24.8363 18.5609Z" fill="#CE6A6E"/>
<path d="M24.8363 18.5608C24.6699 18.5176 24.5062 18.4557 24.3371 18.4333C23.3435 18.3037 22.624 17.7613 22.0731 16.9565C22.0011 16.8509 21.9563 16.7069 21.7862 16.7144C21.7819 16.6642 21.7776 16.6141 21.7728 16.5645C21.9355 16.5602 22.0982 16.5565 22.2608 16.5522C22.5686 17.2082 22.9595 17.7288 23.7648 17.8504C24.4614 17.9554 25.1494 18.1048 25.8576 18.076C26.1083 18.0658 26.3579 18.0242 26.608 17.9965C26.5904 18.3266 26.4502 18.5026 26.095 18.5848C25.6614 18.685 25.2544 18.5586 24.8363 18.5608Z" fill="#CDCACB"/>
<path d="M29.1787 66.2993C29.2197 66.5078 29.1344 66.662 28.968 66.7793C28.1397 67.3628 27.2688 67.8247 26.208 67.7388C26.1051 67.4279 26.2469 67.0583 25.9792 66.7873C26.4901 66.8391 26.9989 66.8977 27.5152 66.8295C28.1035 66.7516 28.6581 66.582 29.1787 66.2993Z" fill="#CD6A6D"/>
<path d="M21.7691 16.8555C21.8517 17.7168 22.6784 18.6933 23.5477 18.9637C23.776 19.0347 24.0069 19.1051 24.2224 19.2069C24.512 19.344 24.6949 19.3056 24.7541 18.9648C24.7595 19.0437 24.7648 19.1232 24.7701 19.2021C24.8379 19.2912 24.8512 19.3899 24.824 19.4965C24.7824 19.616 24.7307 19.7269 24.6005 19.7755C24.3275 19.7499 24.1083 19.5877 23.8725 19.4747C23.1659 19.1365 22.4757 18.7637 21.7637 18.4379C21.4672 18.3024 21.3568 18.1381 21.4629 17.8331C21.6491 17.5339 21.6101 17.1637 21.7691 16.8555Z" fill="#E4958E"/>
<path d="M51.217 65.0783C50.1488 65.1343 49.1621 64.8031 48.1824 64.4373C48.1781 64.3594 48.1738 64.281 48.1696 64.2031C48.9578 64.2223 49.7349 64.4181 50.528 64.3541C50.7674 64.3349 51.0064 64.3125 51.2453 64.2917C51.2362 64.5541 51.2266 64.8165 51.217 65.0783Z" fill="#CC696E"/>
<path d="M21.6971 14.6132C21.3499 14.6079 20.9936 14.5652 20.7211 14.858C20.32 14.2628 19.9941 13.6239 19.6485 12.9967C19.3093 12.3823 19.4469 11.7977 19.7691 11.2271C19.5579 12.3167 20.256 13.0836 20.736 13.9241C20.9461 14.2927 21.2112 14.6142 21.6971 14.6132Z" fill="#CCCBCB"/>
<path d="M61.7136 66.2838C61.9488 66.328 62.2213 66.015 62.3642 66.2182C62.4528 66.3446 62.2709 66.6614 62.2096 66.8923C62.1376 67.1632 62.0698 67.4352 61.9914 67.704C61.8282 68.2635 61.6469 68.407 61.0554 68.4614C61.2746 67.7355 61.4944 67.0096 61.7136 66.2838Z" fill="#FFD900"/>
<path d="M17.769 66.2987C17.1088 66.1008 16.6533 65.6182 16.1914 65.1499C15.9701 64.9254 15.776 64.6736 15.5696 64.4342C15.6026 64.3547 15.6362 64.2758 15.6698 64.1963C16.4144 64.7984 17.1584 65.4011 18.0789 65.7259C17.976 65.9168 17.8725 66.1078 17.769 66.2987Z" fill="#CB6A70"/>
<path d="M52.8443 14.2865C52.3008 14.1495 51.7542 14.0231 51.215 13.8737C50.9056 13.7873 50.5558 13.7569 50.4299 13.3601C50.392 13.2385 50.2406 13.1735 50.0982 13.1676C50.0635 13.1665 50.0086 13.1388 49.999 13.2343C49.9734 13.4929 49.9606 13.4977 49.7504 13.4337C49.4694 13.3495 49.1915 13.254 48.9126 13.1639C48.7291 13.2065 48.456 12.9287 48.4038 13.1292C48.3451 13.3537 48.1718 13.6935 48.503 13.9095C48.6875 13.8401 48.7259 13.6535 48.8128 13.51C48.8694 13.4167 48.8971 13.2924 49.0374 13.3516C49.1478 13.3985 49.3264 13.3783 49.3174 13.5761C49.2939 14.1335 49.6747 14.2636 50.1136 14.3927C50.4267 14.4844 50.6459 14.4871 50.8182 14.1809C50.888 14.0561 50.9782 13.9281 51.167 13.9847C51.6998 14.1441 52.2347 14.2988 52.7691 14.4551C52.8891 14.558 53.0208 14.6049 53.1766 14.5452C53.2016 14.5164 53.2272 14.4871 53.2523 14.4583C53.1152 14.4007 52.9792 14.3436 52.8443 14.2865ZM48.6171 13.6183C48.6011 13.6599 48.5728 13.6972 48.551 13.7351C48.439 13.6796 48.4784 13.6028 48.4891 13.5516C48.5131 13.4396 48.4256 13.2897 48.5792 13.2225C48.6139 13.2071 48.6982 13.238 48.7195 13.2727C48.8054 13.4161 48.663 13.5057 48.6171 13.6183Z" fill="#311513"/>
<path d="M47.7003 39.9685C47.9238 39.9696 47.9318 39.7824 47.9835 39.6384C48.2544 38.8843 48.5995 38.1589 48.8641 37.3931C48.8966 38.1227 48.904 38.8448 48.9835 39.5627C48.6454 39.8107 48.2214 39.8619 47.8587 40.0539C47.8059 40.0256 47.7531 39.9968 47.7003 39.9685Z" fill="#FFD900"/>
<path d="M22.0096 14.7824C21.9611 14.7557 21.9125 14.7291 21.864 14.7019C22.0592 14.5877 22.2544 14.4736 22.4496 14.3589C23.0896 14.064 23.7291 13.7691 24.3685 13.4741C24.5125 13.3061 24.7296 13.2688 24.9136 13.1723C25.3061 13.2373 25.6139 12.9861 25.9627 12.8901C26.0539 12.9211 26.0613 12.9931 26.0533 13.0731C25.5349 13.1472 25.52 13.168 25.6155 13.6811C25.6251 13.7333 25.6347 13.7861 25.64 13.8389C25.7115 14.5173 25.6517 14.5701 24.9584 14.6261C24.6837 14.6485 24.5685 14.5189 24.4859 14.304C24.3653 13.9909 24.1888 13.8901 23.8501 14.0437C23.4155 14.2411 22.9493 14.3675 22.5232 14.5899C22.3371 14.6139 22.1643 14.6747 22.0096 14.7824Z" fill="#6F6D90"/>
<path d="M47.0395 67.895C47.216 67.982 47.3926 68.0689 47.6619 68.2012C46.7782 68.4956 45.9803 68.7628 45.1819 69.0268C44.8854 69.1249 44.6619 68.8646 44.3856 68.8561C45.2704 68.5361 46.1552 68.2156 47.0395 67.895Z" fill="#FFD900"/>
<path d="M21.3803 12.0409C21.1184 11.6452 21.1568 11.3375 21.4816 10.9279C21.7803 10.5503 22.1227 10.2164 22.4587 9.87454C22.5605 9.77054 22.6512 9.65587 22.7472 9.54547C22.808 9.53 22.8683 9.514 22.9291 9.49854C22.9856 10.0585 23.4517 9.78387 23.7301 9.89214C23.7536 9.9012 23.7723 9.922 23.7931 9.93747C23.2288 9.86547 22.7808 10.01 22.4379 10.5156C22.2032 10.8612 21.84 11.1113 21.5883 11.4585C21.456 11.6399 21.3691 11.818 21.3803 12.0409Z" fill="#D0CBC9"/>
<path d="M51.6314 10.7632C51.2405 10.6122 50.8208 10.6 50.4165 10.5141C50.0848 10.4437 49.856 10.6133 49.6394 10.8229C49.5328 10.6357 49.168 10.6042 49.3061 10.2693C49.5541 10.2138 49.7184 9.99142 49.9802 9.95089C50.5568 9.86182 51.2832 10.2096 51.6314 10.7632Z" fill="#59390E"/>
<path d="M17.6704 39.0562C18.1147 39.4663 18.4944 39.942 18.9862 40.3063C19.2571 40.5068 18.9744 40.6652 18.8934 40.8338C18.9003 40.6119 18.8384 40.4722 18.5824 40.413C18.2731 40.3415 17.9819 40.1943 17.6784 40.0913C17.4528 40.0145 17.3931 39.8935 17.4886 39.6663C17.5702 39.4716 17.6112 39.2599 17.6704 39.0562Z" fill="#BF3030"/>
<path d="M40.9232 40.3649C40.5456 40.0508 40.3136 39.6209 40.0688 39.2129C39.9536 39.0215 39.6784 38.9063 39.7328 38.6188C39.7584 38.582 39.784 38.5447 39.8096 38.5073C40.3557 38.9297 40.9029 39.3511 41.2405 39.9761C41.1344 40.1057 41.0288 40.2353 40.9232 40.3649Z" fill="#CC6C6B"/>
<path d="M44.232 32.5796C44.2149 33.3785 44.3846 34.1657 44.3232 34.9828C44.1072 34.2351 43.8907 33.4873 43.6747 32.7401C43.8603 32.6868 44.0464 32.6335 44.232 32.5796Z" fill="#BFAA30"/>
<path d="M24.76 19.5056C24.7632 19.4043 24.7664 19.3029 24.7701 19.2021C25.1392 19.3056 25.3877 19.5744 25.6411 19.8373C25.6341 19.8619 25.6293 19.8869 25.6272 19.9125C25.5211 20.328 25.5973 20.7531 25.5616 21.1723C25.5509 21.2981 25.6123 21.4395 25.4912 21.5451C25.3547 21.5008 25.32 21.3856 25.3077 21.2645C25.2523 20.7184 25.1403 20.192 24.8096 19.7355C24.7616 19.6693 24.7611 19.5856 24.76 19.5056Z" fill="#D5E4F2"/>
<path d="M42.1472 35.6352C42.0635 35.6533 41.9861 35.7125 41.8944 35.6736C41.7179 35.616 41.704 35.5066 41.7104 35.3237C41.7307 34.7749 41.832 34.2186 41.648 33.6762C41.7104 33.592 41.8085 33.6229 41.8901 33.6016C42.0203 34.2741 42.1397 34.9477 42.1472 35.6352Z" fill="#C37073"/>
<path d="M28.7136 24.9347C28.7104 24.5795 28.7072 24.2248 28.704 23.8696C28.9472 24.2947 29.0981 24.7587 29.2709 25.2131C29.1893 25.196 29.1077 25.1795 29.0266 25.163C28.9514 25.0472 28.7546 25.0984 28.7136 24.9347Z" fill="#BF3030"/>
<path d="M50.7745 19.9241C50.8449 19.9214 50.9158 19.9182 50.9862 19.915C51.1078 20.2142 51.2299 20.5134 51.3521 20.8132C51.3297 20.9476 51.2971 21.0969 51.1766 21.1598C50.5638 21.4809 50.6273 22.0926 50.5062 22.635C50.3414 23.3748 50.2417 24.1262 50.0801 24.8676C49.8593 25.8798 49.7249 26.9108 49.5494 27.9332C49.4235 28.6665 49.2913 29.3982 49.1627 30.131C49.103 30.4718 49.0459 30.8132 48.9878 31.1545C48.5334 31.2921 48.1041 31.5241 47.6118 31.5172C47.6107 31.4089 47.6102 31.3012 47.6091 31.1929C47.6539 30.4686 47.8635 29.7769 48.0443 29.082C48.4577 27.4905 48.8539 25.8948 49.2827 24.3076C49.5131 23.4558 49.7489 22.6057 49.9899 21.7572C50.0299 21.6158 50.0747 21.4734 50.2017 21.379C50.6315 21.3305 50.8881 20.8084 50.6881 20.371C50.607 20.194 50.5094 20.0281 50.7745 19.9241Z" fill="#2C4081"/>
<path d="M25.232 41.3539C24.3584 41.7581 23.4459 41.9085 22.4853 41.82C22.0864 41.7832 22.1248 42.1624 22.0208 42.3971C21.7333 42.7363 21.6357 43.1715 21.4459 43.5597C21.3104 43.836 21.1691 43.8696 20.9269 43.7261C20.7344 43.6125 20.5344 43.5117 20.3376 43.4056C20.6997 42.4307 21.2112 41.5229 21.6155 40.5672C21.7696 40.2024 21.992 40.3747 22.216 40.4312C22.8597 40.5928 23.4859 40.596 24.1253 40.3528C24.4645 40.2237 24.7307 39.9688 25.0827 39.8813C25.4128 39.8925 25.9947 40.3219 26.0645 40.6056C25.8469 40.9213 25.4992 41.0931 25.232 41.3539Z" fill="#679B00"/>
<path d="M26.0646 40.6051C25.7872 40.2963 25.4171 40.1123 25.0827 39.8808C24.9382 39.6963 24.7568 39.5294 24.6587 39.323C24.5222 39.0366 24.383 38.9587 24.1323 39.1811C24.0854 39.2227 24.0235 39.2675 23.9803 39.1704C24.0267 39.1219 24.0731 39.0728 24.119 39.0238C24.2128 38.8232 24.4155 38.7358 24.5659 38.5934C24.9323 38.1134 25.3334 37.6515 25.4022 37.0142C25.4987 37.3438 25.6678 37.531 26.0507 37.3982C26.1691 37.3571 26.3147 37.3955 26.448 37.3971C26.7616 37.3582 27.0624 37.3859 27.3366 37.5608C27.528 37.6184 27.7211 37.6718 27.9104 37.7347C27.9942 37.7624 28.1206 37.7726 28.104 37.8952C28.095 37.9619 28.0155 38.02 27.9638 38.0787C27.9472 38.0974 27.9158 38.1011 27.8934 38.1155C27.727 38.2216 27.4262 38.0974 27.3648 38.3054C27.295 38.5416 27.6198 38.5694 27.7344 38.7235C27.7878 38.795 27.8102 38.8579 27.7526 38.939C27.504 39.292 27.2486 39.6414 27.0144 40.0035C26.7867 40.356 26.4038 40.4414 26.0646 40.6051Z" fill="#E8938B"/>
<path d="M20.6486 28.5105C20.4875 29.0294 20.2795 29.5292 20.232 30.086C20.1168 31.4348 20.696 32.5137 21.4896 33.5201C21.7931 33.9046 22.1046 34.2833 22.4123 34.6646C22.0203 34.4838 21.7494 34.142 21.4048 33.8945C20.5734 33.2972 19.791 32.6305 18.9888 31.9921C18.847 31.879 18.6859 31.8348 18.503 31.8385C18.1718 31.8454 17.84 31.8406 17.431 31.8406C17.6438 31.6182 17.8374 31.5313 18.0662 31.5206C18.2267 31.5132 18.3926 31.4913 18.5472 31.5217C19.0406 31.6182 19.2992 31.4092 19.4422 30.9446C19.6912 30.1356 19.9643 29.334 20.2411 28.534C20.4539 27.9196 20.6672 27.3062 20.7846 26.6641C20.9808 25.5889 21.1776 24.51 20.9622 23.4156C20.7915 22.5473 20.2139 21.999 19.456 21.6118C19.2715 21.5174 19.0848 21.4278 18.9238 21.2881C19.3883 21.3558 19.7728 21.6012 20.1296 21.8732C20.8224 22.4017 21.1216 23.1265 21.1414 23.9937C21.167 25.1345 21.0635 26.254 20.7734 27.3617C20.679 27.7292 20.6267 28.1201 20.6486 28.5105Z" fill="#A60000"/>
<path d="M22.0528 38.837C21.1339 38.6813 20.4603 38.0258 20.4053 37.2344C21.1147 37.6168 21.8251 37.997 22.5323 38.3832C22.5979 38.4189 22.6768 38.4834 22.6907 38.5474C22.7115 38.6434 22.6075 38.6536 22.5328 38.6818C22.3749 38.7426 22.2549 38.9149 22.0528 38.837Z" fill="#A60000"/>
<path d="M24.5653 38.5942C24.4768 38.8001 24.336 38.9521 24.1184 39.0241C23.6837 38.4641 23.0741 38.1062 22.5499 37.6348C23.0405 37.7894 23.4837 38.0438 23.9312 38.2913C24.136 38.4049 24.2981 38.6113 24.5653 38.5942Z" fill="#A60000"/>
<path d="M24.0976 37.7599C24.0752 37.8751 24.0133 37.9535 23.8875 37.9412C23.7835 37.9311 23.72 37.858 23.7253 37.7551C23.7317 37.6356 23.8043 37.5593 23.9301 37.5716C24.0341 37.5823 24.0853 37.6564 24.0976 37.7599Z" fill="#BCDDF4"/>
<path d="M22.9584 37.4664C22.8475 37.4461 22.7718 37.3933 22.7622 37.2914C22.7504 37.1645 22.8336 37.0973 22.9493 37.0898C23.0528 37.0829 23.1243 37.1496 23.1323 37.253C23.1419 37.3784 23.0555 37.4349 22.9584 37.4664Z" fill="#BAE1F4"/>
<path d="M26.7744 30.2121C25.7365 29.803 24.6613 30.5769 24.5856 31.7619C24.5621 32.1337 24.7099 32.4601 24.7557 32.811C24.3264 32.3241 23.8992 31.8393 23.7429 31.1795C23.5312 30.2873 24.4517 28.8755 25.3557 29.0291C26.0432 29.1465 26.6208 29.435 26.7744 30.2121Z" fill="#679B00"/>
<path d="M27.336 37.5615C27.0288 37.5674 26.7296 37.5295 26.4475 37.3978C26.7851 36.5727 26.7515 35.7663 26.3301 34.9775C26.2741 34.873 26.2027 34.7711 26.2117 34.6426C26.9259 35.4847 27.3344 36.4447 27.336 37.5615Z" fill="#679B00"/>
<path d="M28.3888 36.3902C28.4203 36.1907 28.4384 35.9736 28.6533 35.9736C28.8747 35.9736 28.88 36.2067 28.9035 36.3704C28.9275 36.5411 28.864 36.7187 28.6768 36.7331C28.4395 36.7512 28.4517 36.5187 28.3888 36.3902Z" fill="#C4E4F4"/>
<path d="M28.7749 39.054C28.768 39.1265 28.7515 39.3148 28.5461 39.3132C28.3168 39.3116 28.3024 39.1095 28.2997 38.934C28.2971 38.7537 28.3349 38.5479 28.5499 38.5633C28.7483 38.5777 28.7883 38.7793 28.7749 39.054Z" fill="#C6E5F5"/>
<path d="M24.76 19.5054C25.1515 19.9896 25.3797 20.5347 25.3973 21.1656C25.4011 21.2926 25.4581 21.4184 25.4907 21.5448C25.7547 22.2616 26.0955 22.9534 26.1595 23.7528C25.6875 23.2259 25.2155 22.6984 24.7435 22.1715C24.6981 21.8798 24.6965 21.5731 24.3691 21.412C24.2267 21.3422 24.3109 21.2078 24.3296 21.0926C24.4011 20.6494 24.5781 20.228 24.6 19.7747C24.6661 19.6926 24.6363 19.5534 24.76 19.5054Z" fill="#5CCCCC"/>
<path d="M38.1861 41.4108C38.1627 41.3564 38.2827 41.0561 38.3685 41.0108C39.7845 41.3196 41.0149 41.9564 41.9424 43.0929C43.5285 45.0369 43.9024 47.214 42.944 49.5249C42.0224 51.7468 40.2747 53.0487 37.8917 53.2929C35.4661 53.5415 33.4469 52.6343 32.0859 50.5783C29.4987 46.6695 31.8448 41.5927 36.4981 40.9532C36.8149 40.9095 37.1408 40.934 37.4619 40.9265C37.3605 41.1377 37.4176 41.238 37.2827 41.342C37.2059 41.4945 36.7787 41.1868 36.6517 41.2023C36.2384 41.2529 35.8347 41.3367 35.4363 41.4641C35.2064 41.5377 35.112 41.6145 35.2459 41.8492C35.3051 41.9527 35.3456 42.0689 35.3813 42.1841C35.4208 42.3105 35.4165 42.4284 35.2821 42.4951C35.1557 42.558 35.0485 42.51 34.9611 42.4092C34.9168 42.358 34.8912 42.2956 34.8608 42.2359C34.6208 41.7713 34.6149 41.7703 34.1899 42.0455C32.4453 43.1745 31.5915 44.8172 31.4747 46.8551C31.4373 47.51 31.5904 48.1596 31.7931 48.7895C31.8725 49.0359 32.0069 49.1175 32.2437 48.9884C32.2672 48.9756 32.2917 48.9639 32.3168 48.9543C32.4875 48.8881 32.6816 48.7532 32.8075 48.9937C32.9483 49.262 32.7056 49.3393 32.536 49.4348C32.1531 49.6497 32.1509 49.6513 32.3979 50.0332C33.5093 51.7511 35.1275 52.6023 37.1328 52.7292C37.7717 52.7697 38.4123 52.6263 39.0331 52.4444C39.2955 52.3676 39.3856 52.2204 39.2544 51.9644C39.224 51.9052 39.2027 51.8407 39.192 51.774C39.1712 51.6439 39.1973 51.5287 39.3237 51.4663C39.4603 51.3985 39.5472 51.4849 39.632 51.5793C39.752 51.7132 39.7243 51.9895 39.9579 51.9975C40.1957 52.006 40.3675 51.814 40.5531 51.6865C42.6069 50.278 43.4469 47.7697 42.8197 45.3724C42.6987 44.9095 42.6928 44.9132 42.2267 45.0503C42.0629 45.0983 41.8656 45.1879 41.7749 44.9607C41.6896 44.7468 41.8619 44.6572 42.0256 44.5724C42.4256 44.3649 42.4304 44.3367 42.1936 43.9425C41.4181 42.6524 40.288 41.8268 38.8587 41.39C38.6821 41.3367 38.3115 41.5788 38.1861 41.4108Z" fill="#5B4883"/>
<path d="M37.6955 40.2976C37.6688 40.3765 37.6422 40.4554 37.6155 40.5344C36.231 40.4757 34.9126 40.7237 33.6811 41.3802C34.8939 40.553 36.2368 40.2117 37.6955 40.2976Z" fill="#FBF2FD"/>
<path d="M37.9387 33.2432C38.3408 33.3152 38.7424 33.3877 39.1445 33.4592C39.3552 33.4965 39.4656 33.6576 39.5397 33.8261C39.7264 34.2517 39.8853 34.6896 40.0677 35.1173C40.1515 35.3141 40.0432 35.3637 39.8933 35.3765C39.5675 35.4048 39.2501 35.4 39.0139 35.1104C38.7749 34.8181 38.5445 34.8426 38.2709 35.1008C37.9531 35.4005 37.5947 35.6576 37.2192 35.961C37.2059 35.8181 37.2896 35.7701 37.3451 35.7157C37.688 35.3829 38.0411 35.0602 38.3749 34.7189C38.5643 34.5248 38.7141 34.5573 38.8811 34.7333C39.0101 34.8693 39.1445 35 39.2805 35.129C39.4144 35.2554 39.5973 35.2666 39.7296 35.1872C39.8992 35.0853 39.768 34.9274 39.7184 34.7957C39.7136 34.7834 39.704 34.7722 39.7008 34.76C39.4752 33.9434 39.0144 33.4128 38.096 33.4245C38.0315 33.4256 37.9664 33.3536 37.9019 33.3157C37.9141 33.2917 37.9264 33.2672 37.9387 33.2432Z" fill="#CA716C"/>
<path d="M50.2021 21.3794C49.9386 22.3149 49.6624 23.2472 49.4144 24.1869C49.0709 25.4893 48.7541 26.7992 48.4165 28.1032C48.176 29.0328 47.92 29.9581 47.7429 30.9026C47.7237 31.004 47.6554 31.0962 47.6096 31.1928C47.2816 31.2056 47.3701 30.9576 47.3861 30.7965C47.5162 29.4744 47.5114 28.1469 47.7493 26.8258C48.025 25.2925 48.3317 23.7709 48.7397 22.2701C48.9493 21.4994 49.4389 20.8792 50.0261 20.3213C49.9376 20.5058 49.8592 20.6962 49.7578 20.8733C49.6064 21.1389 49.5621 21.3277 49.977 21.3042C50.0496 21.3005 50.1264 21.3528 50.2021 21.3794Z" fill="#FFD900"/>
<path d="M49.2426 16.4661C48.8426 16.4565 48.9269 16.1029 48.8655 15.881C48.8069 15.6677 49.0335 15.7354 49.1055 15.7621C49.3114 15.8378 49.6661 15.5642 49.7168 15.9477C49.7536 16.2202 49.6026 16.4714 49.2426 16.4661Z" fill="#FCF6F5"/>
<path d="M52.7685 14.4548C52.9125 14.4462 53.0464 14.4857 53.1754 14.5444C53.144 14.6297 53.1173 14.7177 53.0794 14.8004C53.0197 14.93 52.9077 14.9662 52.784 14.9161C52.6378 14.8564 52.7189 14.7465 52.7434 14.6494C52.76 14.5865 52.7605 14.5198 52.7685 14.4548Z" fill="#B2605B"/>
<path d="M62.905 65.6512C63.0533 65.6779 63.1861 65.6229 63.32 65.5723C63.456 65.9808 63.4362 66.4165 63.4485 66.8299C63.4741 67.6875 63.7525 68.4016 64.3434 69.0075C64.3045 69.1653 64.2336 69.3072 64.1344 69.4357C63.9962 69.2389 63.8746 69.0277 63.7168 68.8485C63.2688 68.3403 63.1386 67.7312 63.0586 67.0805C62.9994 66.6043 63.0474 66.1168 62.905 65.6512Z" fill="#FFD900"/>
<path d="M23.9525 12.816C24.0645 12.3616 24.7392 11.8714 25.1269 11.9098C25.2432 11.9216 25.2421 12.0037 25.2405 12.081C25.2378 12.2618 25.2869 12.4645 25.0234 12.5285C24.6789 12.6128 24.3376 12.712 23.9525 12.816Z" fill="#E9E0DF"/>
<path d="M24.9131 13.1727C24.8325 13.4559 24.5552 13.3844 24.368 13.4746C24.3536 13.3332 24.4133 13.2212 24.5003 13.1151C24.608 12.9834 24.752 12.8842 24.9093 12.9247C25.0843 12.97 24.6773 13.0884 24.9131 13.1727Z" fill="#12090D"/>
<path d="M46.0949 70.8698C45.9835 70.8698 45.8715 70.8704 45.76 70.8704C45.9291 69.6709 46.8219 69.1962 47.8112 68.8112C48.0715 68.7098 48.3205 68.5797 48.5749 68.4629C48.6576 68.5162 48.7403 68.569 48.8224 68.6224C48.3307 68.8629 47.8512 69.1354 47.3435 69.3365C46.7205 69.5829 46.3248 69.9936 46.1755 70.6448C46.1579 70.7216 46.1221 70.7946 46.0949 70.8698Z" fill="#FFD900"/>
<path d="M51.113 13.0383C50.64 13.2127 50.2202 13.0602 49.8032 12.9071C49.6762 12.8607 49.696 12.7311 49.7242 12.6298C49.7653 12.482 49.8842 12.5087 49.984 12.5503C50.3621 12.7092 50.737 12.8751 51.113 13.0383Z" fill="#97463E"/>
<path d="M26.3579 15.7529C26.0123 15.9348 25.6555 16.0084 25.2731 15.8468C25.6405 15.866 25.9936 15.7567 26.3579 15.7529Z" fill="#373637"/>
<path d="M22.8283 44.2365C22.7344 43.7379 22.5504 43.2669 22.3888 42.7885C22.3094 42.5517 22.2694 42.38 22.6523 42.4547C23.2891 42.5789 23.9067 42.8211 24.5718 42.7928C24.7707 42.7843 24.791 42.9315 24.7291 43.0701C24.4219 43.7592 24.0192 44.3869 23.4683 44.9075C23.3195 45.0483 23.1696 45.0776 23.1046 44.8019C23.056 44.5965 22.9888 44.3896 22.8267 44.2344C22.8262 44.2339 22.8283 44.2365 22.8283 44.2365Z" fill="#DBDBDB"/>
<path d="M38.2773 41.1238C40.0933 41.4891 41.5221 42.5334 42.4421 44.1371C42.5835 44.3835 42.5131 44.4608 42.2864 44.5771C42.1195 44.6624 41.7093 44.6352 41.8592 44.9504C41.9835 45.2128 42.2373 44.9313 42.3989 44.8486C42.6677 44.711 42.7536 44.7862 42.8405 45.0475C43.7232 47.704 42.6245 50.6256 40.2144 52.0384C39.9152 52.2139 39.7403 52.2171 39.6544 51.8475C39.6363 51.7707 39.592 51.6998 39.5568 51.6278C39.5125 51.5377 39.4651 51.4678 39.3419 51.5323C39.2336 51.5894 39.224 51.6582 39.2661 51.7617C39.3451 51.9547 39.5701 52.1766 39.4603 52.3377C39.3152 52.5505 38.9925 52.5601 38.736 52.6288C36.2037 53.3062 33.4384 52.1344 32.1536 49.8608C32.0048 49.5974 32.0736 49.5248 32.3077 49.4011C32.4661 49.3174 32.8741 49.3563 32.7232 49.04C32.5872 48.7547 32.3568 49.0699 32.1963 49.1387C31.9376 49.2497 31.84 49.223 31.7355 48.9462C30.7392 46.3121 31.9008 43.1707 34.3813 41.8064C34.6176 41.6763 34.7579 41.6544 34.8405 41.9542C34.8789 42.0939 34.9627 42.2214 35.0213 42.3563C35.0661 42.4598 35.1301 42.5008 35.2411 42.4534C35.352 42.4059 35.3771 42.336 35.3125 42.2331C35.2987 42.2107 35.2896 42.1846 35.28 42.1595C35.0016 41.4673 35.0011 41.4651 35.7371 41.2619C36.1515 41.1478 36.5749 41.0854 37.0048 41.0688C37.1696 41.119 37.5003 40.9979 37.3179 41.3984C37.264 41.5163 37.0944 41.6747 37.2389 41.7888C37.3915 41.9088 37.6075 41.9462 37.8096 41.847C37.8576 41.8235 37.9008 41.792 37.9467 41.7638C38.1328 41.9158 37.9851 42.1147 38.0528 42.2902C38.0789 42.0512 38.1909 41.8166 38.0592 41.5691C38.1307 41.415 38.1547 41.3414 38.2773 41.1238Z" fill="#E7E2FD"/>
<path d="M38.0587 41.5684C38.1781 41.5913 38.2997 41.602 38.2613 41.7844C38.2267 41.9513 38.216 42.123 38.1915 42.2926C38.1739 42.4126 38.1525 42.5566 37.9904 42.5262C37.8219 42.4948 37.8688 42.3374 37.8923 42.2318C37.9269 42.0761 37.9685 41.9241 37.9461 41.763C37.9835 41.6985 38.0213 41.6334 38.0587 41.5684Z" fill="#A881D6"/>
<path d="M50.8241 13.9189C50.655 14.353 50.3979 14.3813 50.0198 14.2346C49.6838 14.1045 49.3723 14.0191 49.487 13.5615C49.8289 13.5829 49.8337 13.5813 49.9419 13.8575C50.0123 14.0362 50.1446 14.1141 50.2689 13.9653C50.4571 13.7402 50.6267 13.7967 50.8241 13.9189Z" fill="#DE968F"/>
<path d="M25.009 13.7135C25.0832 13.6575 25.0816 13.5743 25.0805 13.4954C25.0784 13.3439 25.1936 13.3279 25.2965 13.3114C25.4474 13.2868 25.4266 13.4303 25.4405 13.5018C25.4858 13.7359 25.5088 13.9748 25.5397 14.2116C25.5552 14.329 25.4762 14.3759 25.3866 14.4154C24.9632 14.6026 24.3402 14.1818 24.3765 13.7247C24.3877 13.5855 24.4901 13.6074 24.5834 13.657C24.7274 13.6586 24.8645 13.7146 25.009 13.7135Z" fill="#E29493"/>
<path d="M25.0091 13.7136C24.84 13.9002 24.7051 13.8288 24.5829 13.657C24.6139 13.4384 24.8123 13.4314 24.9445 13.441C25.0661 13.4506 24.984 13.6192 25.0091 13.7136Z" fill="#140A13"/>
<path d="M47.8427 30.9089C47.9376 30.606 47.984 30.2641 48.0682 29.9377C48.2714 29.1516 48.4827 28.3681 48.6667 27.5767C48.7723 27.1217 48.9045 26.6727 49.0277 26.222C49.1728 25.6908 49.3275 25.1623 49.4656 24.6295C49.6501 23.9164 49.8282 23.2023 50.048 22.4977C50.1317 22.2284 50.2821 21.9687 50.2752 21.6711C50.2736 21.5953 50.2672 21.4892 50.3835 21.5015C50.4736 21.5111 50.5146 21.5985 50.4997 21.6849C50.3888 22.3201 50.3493 22.9665 50.1498 23.5873C50.0453 23.9132 50.0416 24.2705 49.9968 24.6033C49.9371 25.046 49.7941 25.4748 49.7722 25.9287C49.7557 26.2753 49.6677 26.6316 49.5866 26.9724C49.4058 27.7308 49.3365 28.5068 49.168 29.2673C49.0523 29.7911 48.9952 30.3303 48.8293 30.8465C48.7456 31.1068 48.1824 31.4044 47.9387 31.294C47.7755 31.2188 47.8949 31.0545 47.8427 30.9089Z" fill="#1437AD"/>
<path d="M32.7275 46.4222C32.5296 46.3896 32.3318 46.3555 32.1334 46.3251C32.0134 46.307 31.8747 46.3107 31.9152 46.1235C31.9526 45.9523 32.0768 46.0382 32.1718 46.0414C32.224 46.043 32.2763 46.0499 32.3392 46.0547C32.2534 45.8856 32.0448 45.9144 31.9014 45.6899C32.6443 45.7288 33.3355 45.5667 34.0176 45.7539C34.9062 45.9976 35.784 46.2792 36.6667 46.5448C36.7744 46.803 36.7312 47.0083 36.4614 47.1352C35.4822 47.0366 34.511 46.8744 33.5414 46.7064C33.2608 46.6574 33.0502 46.3742 32.7275 46.4222Z" fill="#5C4881"/>
<path d="M36.6662 46.4966C36.5952 46.3846 36.5216 46.2737 36.4534 46.1595C35.7179 44.9302 35.6848 44.8214 35.559 43.2305C36.5307 44.0187 37.0726 45.0481 37.3211 46.2486C37.1707 46.5105 36.9307 46.5361 36.6662 46.4966Z" fill="#5B4882"/>
<path d="M32.7275 46.4223C32.8144 46.3721 32.8832 46.2671 33.0091 46.3492C33.6549 46.7705 34.4192 46.7156 35.1323 46.8665C35.5632 46.9577 36.0037 47.0057 36.4395 47.0735C36.5659 47.0975 36.6821 47.1124 36.792 47.2132C37.1861 47.5759 37.2816 47.5711 37.7397 47.2431C37.784 47.2116 37.8267 47.1855 37.8816 47.2175C37.8795 47.4895 37.7621 47.6868 37.4928 47.7567C37.1605 47.8431 36.7984 47.7924 36.6171 47.5247C36.3957 47.1972 36.0944 47.1801 35.7877 47.1385C35.0235 47.0345 34.2496 46.9881 33.5003 46.8025C33.2277 46.7348 32.984 46.5524 32.7275 46.4223Z" fill="#DDC6D4"/>
<path d="M37.8816 47.2176C37.463 47.7147 37.1088 47.7301 36.6907 47.2464C36.6144 47.1579 36.5083 47.1499 36.439 47.0731C36.6848 46.9707 36.5979 46.7243 36.6672 46.5451C36.6566 46.5291 36.656 46.5131 36.6662 46.4965C36.8843 46.4139 37.103 46.3312 37.3211 46.2485C37.8838 46.4507 38.0379 46.7173 37.8816 47.2176Z" fill="#A57CDD"/>
<path d="M42.4293 47.9559C42.2448 47.9255 42.0608 47.8924 41.8752 47.8658C41.7765 47.8519 41.7371 47.7996 41.7435 47.7042C41.752 47.5746 41.8229 47.558 41.936 47.582C42.1189 47.621 42.304 47.6476 42.4891 47.677C42.5941 47.694 42.7216 47.6882 42.6859 47.8535C42.6528 48.0092 42.5355 47.9708 42.4293 47.9559Z" fill="#615A85"/>
<path d="M41.6656 50.2297C41.6027 50.3193 41.5712 50.4574 41.4293 50.3523C41.2379 50.211 41.0517 50.0627 40.8651 49.915C40.7968 49.8611 40.8181 49.8003 40.8667 49.747C40.9077 49.7017 40.944 49.6222 41.0224 49.6787C41.2256 49.8265 41.4251 49.9785 41.6229 50.1337C41.648 50.1534 41.6528 50.1998 41.6656 50.2297Z" fill="#5D5281"/>
<path d="M33.7541 44.173C33.736 44.1991 33.712 44.2466 33.6763 44.2823C33.6171 44.342 33.5568 44.3127 33.5003 44.27C33.3301 44.1415 33.1584 44.0156 32.9899 43.8855C32.8357 43.766 32.9381 43.6775 33.0405 43.613C33.1013 43.5746 33.7445 44.069 33.7541 44.173Z" fill="#59527D"/>
<path d="M40.713 42.7745C40.5226 43.0055 40.3643 43.2391 40.1616 43.4247C40.0773 43.5015 39.9269 43.3751 39.9888 43.2657C40.1125 43.0481 40.2736 42.846 40.448 42.6647C40.5562 42.5527 40.6202 42.6903 40.713 42.7745Z" fill="#574F7F"/>
<path d="M34.0651 51.3753C33.9813 51.3294 33.8373 51.2894 33.92 51.1614C34.0571 50.9486 34.2187 50.7486 34.3925 50.5646C34.4821 50.4697 34.5637 50.5828 34.6117 50.6542C34.648 50.7092 34.1461 51.3668 34.0651 51.3753Z" fill="#595280"/>
<path d="M36.3451 52.0516C36.3643 51.9401 36.3963 51.7705 36.4208 51.5993C36.4341 51.5065 36.4704 51.4521 36.5723 51.4628C36.6944 51.4756 36.7237 51.5417 36.6997 51.6564C36.6645 51.8254 36.6437 51.9977 36.6096 52.1673C36.5904 52.2633 36.6053 52.4046 36.4368 52.37C36.2763 52.3364 36.3397 52.211 36.3451 52.0516Z" fill="#5A5180"/>
<path d="M37.2704 47.295C37.0683 47.2832 36.9243 47.1835 36.9211 46.959C36.9179 46.7446 37.0432 46.5968 37.2539 46.5851C37.4672 46.5739 37.6171 46.7174 37.6181 46.9243C37.6187 47.1158 37.519 47.2827 37.2704 47.295Z" fill="#E7DCFC"/>
</svg>
