<svg width="69" height="60" viewBox="0 0 69 60" fill="none" xmlns="http://www.w3.org/2000/svg">
<path d="M35.1756 20.0599C35.1756 20.0599 36.1142 19.9735 36.9817 20.5033C37.8493 21.0331 38 21.3412 38 21.3412L37.9461 21.7957L36.3529 23L32.3414 22.746C32.3414 22.746 32.0358 21.6397 32.0027 21.6037C31.9695 21.5676 32.2529 20.5611 32.2529 20.5611L34.2879 20L35.1756 20.0599Z" fill="#E8E8E8"/>
<path d="M59 22H69L68.9979 26.9309L62.5608 28L59.0132 23.4026L59 22Z" fill="#FEFEFE"/>
<path d="M29 25.4475L31.2721 25C31.2721 25 32.0078 26.3007 31.9999 26.3425C31.992 26.3842 31.9024 29.2585 31.8697 29.3774C31.837 29.4963 31.1548 31.9925 31.1227 31.9998C31.09 32.0066 29.7093 31.8527 29.6771 31.811C29.6444 31.7688 29 25.4475 29 25.4475Z" fill="#FEFEFE"/>
<path d="M44.8828 33.2058C44.2485 33.6104 43.755 33.6066 43.1065 33.252C41.5453 32.3965 40.0642 31.4369 38.4661 30.3189C38.9296 31.8493 39.3219 33.2246 39.7774 34.5825C39.9071 34.9698 40.4254 35.0758 40.7565 35.3219C40.9669 35.478 41.1968 35.6119 41.5221 35.8229C40.8878 35.9226 40.4734 36.1914 40.2298 36.6524C39.9793 37.1259 40.1475 37.5783 40.4323 38.2026C39.4231 37.5291 38.5753 36.9723 37.7401 36.4014C37.4775 36.2203 37.5197 35.913 37.4665 35.6567C37.1643 34.2101 36.8802 32.7626 36.5327 31.3146C36.3998 32.4013 35.9026 33.4322 36.3508 34.5888C37.1791 36.7223 37.729 38.9323 38.2225 41.1521C38.3169 41.5769 38.202 41.7855 37.777 41.9715C37.0141 42.3062 36.18 42.3877 35.3912 42.6198C34.0551 42.7749 33.1161 42.1362 32.2424 41.2672C31.5507 42.419 30.5062 43.0086 29.0826 42.9999C28.9693 42.9961 28.8543 42.9874 28.742 42.9898C27.3912 43.0211 27.4128 43.0197 27.3474 41.747C27.156 38.0431 26.9441 34.3417 26.739 30.6118C26.4754 30.7418 26.4754 30.9716 26.4052 31.1513C25.4098 33.6923 24.4924 36.2565 23.7716 38.875C23.6498 39.3148 23.4832 39.4646 22.9897 39.2999C22.4224 39.1101 21.5529 39.2276 21.3215 38.8037C21.1301 38.4516 21.5798 37.808 21.7438 37.2936C21.8261 37.0363 21.9067 36.7777 21.9885 36.519C21.8793 36.3316 21.9653 36.1519 22.0269 35.978C22.7514 33.9457 23.5175 31.9259 24.3363 29.9234C24.4702 29.5934 24.7165 29.3112 24.8504 28.9793C24.4386 28.7606 24.059 29.0043 23.6772 29.0669C22.0955 29.3256 20.519 29.6079 18.9452 29.9075C18.3436 30.0212 17.7884 30.0385 17.4536 29.4913C17.1008 28.9128 16.755 28.3073 17.2374 27.6363C17.4425 26.8043 17.9418 26.1299 18.5872 25.5341C19.0928 24.812 19.6005 24.0913 20.1062 23.3678V23.3664C20.3798 23.0417 20.664 23.2166 20.9471 23.3288C20.9651 23.3351 20.984 23.3428 21.002 23.3486C21.0062 23.3524 21.0115 23.3548 21.0157 23.3587C21.3426 23.5884 21.709 23.5884 22.0997 23.5311C23.217 23.3664 24.331 23.1862 25.4509 23.0403C25.6982 23.008 25.9444 22.9555 26.1822 23.0716C26.1986 23.1029 26.2107 23.1313 26.2191 23.1592C26.226 23.1795 26.2312 23.1968 26.2344 23.2142C26.1537 23.3567 25.9882 23.3654 25.8284 23.3876C25.2284 23.4724 24.6321 23.5836 24.0289 23.64C23.5027 23.6901 23.1157 23.8534 22.8489 24.3081C22.5537 24.8139 22.1735 25.2788 21.8303 25.761C21.8619 25.8236 21.8999 25.8684 21.9452 25.9006C21.9299 25.9233 21.9152 25.9469 21.8988 25.9695C21.6884 26.2793 21.4517 26.5914 21.225 27.0052C22.4229 26.8265 23.4974 26.6054 24.5746 26.4108C24.5762 26.4108 24.5762 26.4108 24.5773 26.4108C24.737 26.3819 24.9121 26.3857 25.0723 26.3482C25.1873 26.3631 25.3033 26.3795 25.4182 26.3944C25.8337 26.3992 25.588 25.8149 26.0747 25.8221C27.0374 25.8371 27.9453 25.5061 28.886 25.3626C29.4232 25.2802 29.526 25.4064 29.5355 25.8746C29.5751 27.7273 29.7939 29.5636 30.2368 31.3748C30.2695 31.2351 30.3011 31.0964 30.3327 30.9562C30.3491 31.0424 30.367 31.1272 30.3849 31.2134C30.3918 31.2423 30.3971 31.2708 30.4039 31.2997C30.6443 32.3912 30.9069 33.4784 31.4294 34.4963C31.5291 34.6899 31.5718 35.0146 31.8644 34.991C32.127 34.9698 32.1776 34.6601 32.2662 34.4549C32.7175 33.4081 33.036 32.3252 33.2917 31.2245C33.307 31.1494 33.3217 31.0771 33.337 31.002C33.337 31.002 33.3354 31.0005 33.337 30.9996C33.356 30.8998 33.3739 30.7996 33.3919 30.6999C33.3919 30.6985 33.3919 30.6975 33.3919 30.6975C33.6202 29.4359 33.7599 28.1642 33.9007 26.8925C33.9101 26.8564 33.9223 26.8226 33.9349 26.7913C33.9571 26.7364 33.9829 26.6878 34.014 26.6439C34.1848 26.3978 34.4801 26.3255 34.8318 26.3342C35.6068 26.3539 36.3756 26.3082 37.1327 26.1468C37.2324 26.1482 37.3215 26.1641 37.4032 26.1916C37.3689 26.2114 37.3346 26.2316 37.302 26.2528C37.6262 26.5038 37.9489 26.7562 38.2726 27.0071C38.9001 27.4195 39.5264 27.8318 40.1554 28.2413V28.2427H40.157C40.1433 28.195 40.1296 28.1464 40.1159 28.0992C40.1681 28.1392 40.2198 28.1777 40.272 28.2167C40.4085 28.3593 40.4607 28.5313 40.4934 28.7114C40.5003 28.749 40.5087 28.7866 40.5192 28.8227C40.5314 28.8675 40.5467 28.9113 40.5646 28.9537V28.9552C40.7027 29.3112 40.9832 29.5896 41.259 29.8632C41.6022 30.2028 42.0372 30.1455 42.4569 29.9807C42.8207 29.8396 43.0938 29.591 43.3348 29.3112C43.3469 29.2948 43.3606 29.2774 43.3743 29.2601C43.4044 29.2187 43.436 29.1763 43.4687 29.1363C43.5915 28.9889 43.7381 28.8853 43.9406 29.0987C44.49 29.6758 45.1411 30.2057 45.3309 31.0073C46.3116 32.2178 46.2568 32.3286 44.8828 33.2058Z" fill="#FFD900"/>
<path d="M61.6907 37.0775C62.0331 37.1921 62.0146 37.4406 61.9858 37.6849C61.7364 39.7989 61.4839 41.9125 61.2324 44.0261C61.1518 44.7041 61.0739 45.3826 60.9934 46.0606C60.9531 46.3994 60.9449 46.755 60.4588 46.879C60.2095 47.0381 59.9188 46.9946 59.6412 46.9946C55.4583 46.9969 51.2754 46.9974 47.0925 46.9955C46.1121 46.995 45.9096 46.7564 46.0321 45.9329C46.2367 44.5572 46.3712 43.1745 46.534 41.7946C46.6924 40.4535 46.8873 39.1153 47.0032 37.77C47.0555 37.1627 47.3026 37.0087 48.0201 37.0068C52.3206 36.9961 56.621 37.0012 60.9215 37.0012C61.1834 37.0017 61.4321 37.0719 61.6907 37.0775Z" fill="#999B9F"/>
<path d="M28.7987 55.8046C28.4328 55.9744 28.0401 56 27.635 56C23.5186 55.9976 19.4021 56.0014 15.2868 55.9962C14.1116 55.9948 14.0044 55.8952 14.0044 54.8661C14.0027 52.3265 14.0071 49.7869 14 47.2473C14 46.9385 14.0436 46.636 14.0746 46.3296C14.2129 46.0925 14.4602 46.0664 14.7286 46.0688C15.7339 46.0773 16.7397 46.0811 17.745 46.0858C17.8931 46.2447 17.8409 46.3775 17.69 46.5127C17.2609 46.8977 17.0741 47.7547 17.3088 48.2247C17.4232 48.4533 17.6209 48.5875 17.9089 48.5728C18.2662 48.5543 18.4655 48.3513 18.502 48.0611C18.5613 47.574 18.588 47.0832 18.4611 46.6013C18.4001 46.3652 18.3974 46.1584 18.6278 46.0171C18.6234 46.0318 18.6191 46.0455 18.6152 46.0602C20.482 46.0617 22.3488 46.0617 24.2162 46.0626C24.2091 46.0417 24.2036 46.0209 24.1976 46C24.459 46.129 24.4786 46.3405 24.3866 46.6028C24.2325 47.0396 24.2864 47.4896 24.306 47.9359C24.3245 48.3034 24.5233 48.5633 24.978 48.5903C25.4371 48.6197 25.5896 48.3395 25.6331 48.0137C25.7077 47.4564 26.0443 46.8318 25.1387 46.4984C24.9497 46.4297 24.9355 46.239 25.0864 46.0825C26.1668 46.0778 27.25 46.0948 28.3288 46.0602C28.8472 46.0432 28.9899 46.2523 28.9899 46.6383C28.9882 47.2311 28.9942 47.8249 28.9942 48.4191C28.9942 50.5675 28.997 52.7173 28.9899 54.867C28.991 55.1857 29.0645 55.5243 28.7987 55.8046Z" fill="#CA9765"/>
<path d="M29 42.9521C29.343 42.8658 29.6833 42.7726 30.0286 42.6948C31.0913 42.4554 31.8266 41.8959 32.2844 41C33.0074 41.6204 33.6554 42.2131 34.6532 42.401C34.9996 42.4662 35.3852 42.3832 35.6957 42.5819C36.4669 45.6922 36.9744 48.8373 37.4339 51.9879C37.6152 53.2325 37.7618 54.4807 37.9582 55.7234C38.0232 56.1352 38.0746 56.5087 37.6085 56.7809C36.8541 57.1202 36.0606 56.9815 35.2732 56.914C34.5066 55.9469 34.7136 54.8172 34.5771 53.7591C34.1109 50.146 33.6173 46.5361 33.07 42.9314C33.0029 42.491 32.7707 42.4291 32.3196 42.4427C31.7438 42.4601 31.9704 42.7773 31.985 42.9989C32.225 46.7723 32.333 50.5471 32.1126 54.3238C32.0717 55.0233 32.1668 55.7421 31.8188 56.4136C30.934 56.5312 30.0481 56.5513 29.1623 56.4215C29.4052 56.2177 29.2921 55.9614 29.2871 55.7309C29.1964 51.4706 29.0968 47.2114 29 42.9521Z" fill="#1437AD"/>
<path d="M31.9153 21.835C31.844 21.5029 31.8963 21.0122 32.1472 20.7618C32.0389 20.6376 31.8799 20.5999 31.7251 20.5786C31.4922 20.5486 31.2799 20.4935 31.0839 20.4181C31.4357 20.5409 31.8371 20.581 32.303 20.5061C33.0494 20.3857 33.5876 20.0599 33.9209 19.5586C33.7962 19.7766 33.6785 19.9961 33.6293 20.2383C34.2199 20.2634 34.4639 20.3258 35.037 20.1667C35.2319 20.1126 36.4906 17.958 36.6866 17.0391C37.678 18.0392 38.314 17.9716 39.0894 16.8863C39.4333 16.4048 39.6086 15.8634 39.7607 15.3244C39.9937 14.4959 40.1168 13.6383 39.8458 12.7996C39.5569 11.9072 38.8073 11.7477 38.0927 12.3921C37.8846 12.5816 37.705 12.7957 37.5116 12.9978C37.2734 13.1834 37.3088 13.4329 37.3241 13.6775C37.3447 13.7688 37.3722 13.8529 37.4171 13.9143C37.4171 13.9143 37.4171 13.9143 37.4171 13.9158C37.4308 13.9332 37.443 13.9472 37.4594 13.9598C37.528 14.0163 37.6278 14.0299 37.781 13.9685C38.3467 13.7418 38.4138 14.0623 38.3932 14.4437C38.3631 14.9691 38.1756 15.4641 37.9701 15.949C37.8893 16.1409 37.7921 16.385 37.5206 16.3541C37.2164 16.3188 37.2935 16.0433 37.2602 15.8475C37.2053 15.5163 37.3738 15.1432 37.0806 14.8608C37.0722 14.8531 37.0643 14.8444 37.0547 14.8372C37.041 14.8246 37.0262 14.812 37.0093 14.8009C36.8519 14.7521 36.6913 14.7646 36.5424 14.8183C35.6698 15.1291 34.7523 15.1528 33.8506 15.0653C32.3917 14.9251 32.4483 14.8976 32.2137 13.7543C32.1921 13.6528 32.182 13.5474 32.1482 13.4483C32.0389 13.1438 31.7796 13.0321 31.4595 13.0447C31.1499 13.0573 30.9392 13.2226 30.9033 13.5049C30.8578 13.8534 30.7184 14.1942 30.7897 14.5544C30.8172 14.6071 30.8446 14.6472 30.8705 14.6786C30.8747 14.6849 30.88 14.6912 30.8858 14.696C31.0665 14.8952 31.1816 14.5756 31.3311 14.4741C31.198 15.2365 31.1204 15.9795 31.1462 16.7307C31.1515 16.896 31.2297 17.1382 30.9149 17.1633C30.5325 17.1933 30.2055 16.8046 30.3191 16.4551C30.43 16.1153 30.626 15.8059 30.7712 15.4786C30.8605 15.2795 30.9244 15.075 30.7231 14.9595C30.711 14.9532 30.6973 14.9469 30.6819 14.9406C30.6434 14.9242 30.5985 14.9106 30.5451 14.899C29.9794 14.914 29.4354 15.0745 28.8633 15.0958C27.9427 15.1296 27.0648 14.959 26.18 14.7825C26.1336 14.7937 26.0924 14.8086 26.058 14.8265C26.0469 14.8314 26.0374 14.8367 26.0295 14.8415C25.8351 14.957 25.8446 15.1649 25.8541 15.3718C25.8953 16.2042 25.898 16.2453 25.205 16.5189C25.205 16.5189 25.205 16.5189 25.2034 16.5189C25.187 16.5252 25.1691 16.5315 25.1527 16.5378C25.1305 16.5465 25.1088 16.5552 25.0872 16.5639C24.916 16.9724 25.0037 17.3422 25.29 17.682C25.309 17.6922 25.327 17.7023 25.346 17.7096C25.3692 17.7221 25.3925 17.7308 25.4157 17.7386C25.5927 17.8 25.7744 17.785 25.9608 17.7197C25.9867 17.7033 26.0131 17.6883 26.0364 17.6757C26.0665 17.6593 26.0939 17.6458 26.1198 17.6356C26.0855 17.6255 26.0475 17.6182 26.0063 17.6129C26.0158 17.405 26.1283 17.2068 26.3448 17.2141C26.5693 17.2228 26.5091 17.4659 26.5419 17.6216C26.8598 19.1259 26.6692 18.8117 27.4763 20.0464C27.7039 20.3944 28.9573 21.9307 29.3667 21.9747C30.2044 22.0651 30.3032 23.2915 30.2351 23.8406C30.2229 23.9436 30.2092 24.0901 30.2161 24.194L29.9018 26L30.5768 25.9347L32.051 25.5596L32.1974 22.9579L31.9153 21.835ZM34.2922 18.4864C34.306 18.7909 34.1977 19.0544 34.0619 19.3063C34.1787 19.0641 34.2553 18.7895 34.2922 18.4864ZM29.6747 19.2922C29.7718 19.4174 29.8733 19.5378 29.9773 19.6519C29.8706 19.5393 29.7692 19.4189 29.6747 19.2922Z" fill="#E8938C"/>
<path d="M25.6791 8.76658C25.6029 7.68626 25.203 6.66274 25.0268 5.59879C24.9507 5.13998 25.0185 4.82609 25.47 4.5512C26.7265 3.78525 26.2161 4.03029 27.578 3.43188C28.4101 3.06647 29.5087 2.83395 30.2397 3.14543C30.8299 3.39673 31.7976 3.04144 32.0901 3.57631C32.3112 3.98071 33.3837 3.39962 33.868 3.40251C35.1898 3.4107 39.1289 2.42377 39.5793 3.57631C40.9167 6.99733 38.6534 7.46721 38.4766 8.88983C37.6711 9.15894 37.098 8.93315 36.8207 8.23316C36.7805 8.13206 36.7138 8.05792 36.6158 8.00496C35.6621 7.69203 34.6585 7.84031 33.6824 7.74884C31.8299 7.57553 29.9717 7.78784 28.1171 7.87642C27.6155 7.90049 27.3188 8.10462 27.3423 8.60338C26.8548 9.0511 26.1394 9.12091 25.6791 8.76658Z" fill="#6D470F"/>
<path d="M15.7385 38.9852C15.3246 39.0676 15.2042 39.3007 15.0937 39.6088C14.9202 40.0975 14.519 40.4508 14.0261 40.764C11.6347 42.2836 7.84309 42.4245 5.42292 41.0616C5.60471 40.7691 5.98045 40.77 6.28435 40.6996C7.30436 40.4582 8.35199 40.3113 9.39245 40.1441C7.9536 40.309 6.55952 40.6434 5.15107 40.9216C4.69411 40.6443 4.32169 40.3122 4.14819 39.8502C4.29019 39.5577 4.63112 39.548 4.92176 39.4918C6.33297 39.2219 7.76905 39.0796 9.20624 38.9414C7.71435 39.0156 6.24014 39.1947 4.78141 39.467C4.52779 39.5149 4.27251 39.5946 4.01171 39.4895C3.9885 39.1063 3.96419 38.7217 4.31672 38.4122C4.89413 38.1482 5.51299 38.0492 6.14234 37.993C6.40149 37.9691 6.66119 37.9525 6.9231 37.9345C6.92476 37.9359 6.92752 37.9359 6.92862 37.9345C7.07173 37.9248 7.2165 37.9143 7.36017 37.9023C7.55522 37.8857 7.75137 37.882 7.94753 37.8829H7.95195C8.22822 37.8852 8.50781 37.8963 8.78464 37.8926C8.82166 37.8926 8.86366 37.8949 8.90344 37.8963C9.00953 37.9 9.10954 37.8917 9.12833 37.7733C9.13109 37.759 9.13275 37.7424 9.13109 37.7245V37.7125C9.30017 37.5559 9.50793 37.4629 9.72729 37.3864C9.97097 37.3003 10.2257 37.2349 10.4495 37.1188L10.497 37.0939C10.8191 36.9792 11.1147 36.8143 11.4601 36.7452H11.4971C11.4916 36.7438 11.4783 36.7415 11.5286 36.7333C11.5529 36.7296 11.5761 36.7273 11.6004 36.7273C11.5502 36.7715 11.5015 36.8157 11.4529 36.8599C11.8657 36.841 12.2425 36.9709 12.6293 37.0571C12.9702 37.1321 13.0807 37.0428 12.9746 36.7618C12.8674 36.4813 12.7155 36.2086 12.7381 35.9028C12.6879 35.9327 12.6392 35.9627 12.5906 35.9921C12.5934 35.9673 12.6006 35.9405 12.6105 35.9171C13.1509 35.2611 13.6338 34.5707 14.3113 34C14.7052 35.0368 15.1091 36.0677 15.2942 37.1547C15.3771 37.636 15.8916 38.0018 15.9794 38.5126C16.0181 38.7415 16.0325 38.9281 15.7385 38.9852Z" fill="#E8938C"/>
<path d="M65.8582 24.8188C66.8709 23.9123 68.0362 23.1525 68.992 22C68.992 22.6045 68.992 23.1008 68.992 23.5977C68.992 25.2158 68.9803 26.8339 68.9999 28.452C69.0046 28.8558 68.8785 29.0024 68.4225 29C65.4624 28.9844 62.5022 28.9888 59.542 28.9961C59.1847 28.997 58.9974 28.924 59 28.5445C59.0153 26.4642 59.0101 24.3838 59.0148 22.3035C59.0148 22.247 59.0517 22.1909 59.0876 22.0891C59.8249 23.0292 60.8984 23.6006 61.6831 24.4491C61.8008 24.5762 61.9322 24.6995 62.1391 24.6926C62.2584 24.8539 62.1824 25.018 62.1396 25.1778C61.9322 25.9557 62.2784 26.5358 62.9297 26.9805C63.5429 27.3989 64.2074 27.3819 64.8597 27.0516C65.5531 26.7004 65.7991 26.1193 65.7938 25.4194C65.7922 25.2177 65.6655 25.0029 65.8582 24.8188Z" fill="#DFDFDE"/>
<path d="M38.6608 22.1162C37.9355 22.849 38.1568 23.9223 39.0886 24.2477C39.0971 24.2514 39.1065 24.2537 39.116 24.2573C39.1202 24.2647 39.1244 24.273 39.1281 24.2799C39.2616 24.5257 39.2668 24.7862 39.2316 25.0499C39.2274 25.0573 39.2248 25.0633 39.2206 25.0702L39.219 25.0725C39.219 25.0748 39.2174 25.0784 39.2137 25.0807C39.2095 25.0904 39.2043 25.1001 39.1974 25.1093C39.1959 25.1153 39.1922 25.1189 39.188 25.1235C39.188 25.1153 39.1864 25.107 39.1854 25.0987L39.1743 25.0642C38.9604 25.1714 38.7544 25.292 38.4942 25.304C38.3455 25.3113 38.1274 25.274 38.1237 25.4664C38.1142 25.9318 37.7327 26.1108 37.3753 26.3138C37.3411 26.3326 37.3069 26.352 37.2744 26.3722C36.4224 26.6231 35.5421 26.6778 34.6575 26.6277C34.2938 26.606 34.1125 26.7077 34.0357 27C33.999 26.9581 33.9595 26.9199 33.917 26.8868C33.4986 26.5384 32.8732 26.5301 32.4028 26.2664C32.3644 26.2447 32.3292 26.2222 32.294 26.1982C32.2829 26.1909 32.2735 26.184 32.264 26.1766C31.9545 25.9497 31.9492 23.1702 32.0843 22.5899C32.0869 22.5802 32.0885 22.571 32.0911 22.5613C32.0995 22.0827 32.1074 21.604 32.1142 21.1253C32.7617 21.6565 33.5659 21.8212 34.4147 21.8461C35.6125 21.8806 36.7835 21.882 37.894 21.3076C38.1831 21.1585 38.6503 21.0116 39.0813 21.0011C39.4655 20.9928 39.8076 21.0259 40 21.3674C39.8665 21.697 39.6063 21.9119 39.2285 22.0201C39.2069 22.0187 39.1848 22.0178 39.1617 22.0164C39.107 22.0141 39.0529 22.0104 38.9983 22.0104H38.9972C38.921 22.0118 38.8458 22.0201 38.7765 22.0486C38.7544 22.056 38.7328 22.0665 38.7123 22.0794C38.695 22.0896 38.6771 22.1015 38.6608 22.1162Z" fill="#CBCBCB"/>
<path d="M18 26.0393C17.5555 26.6928 17.111 27.3464 16.6665 28C16.2632 27.7375 15.7822 27.7851 15.3263 27.7734C14.9172 27.7631 14.6103 27.6539 14.3269 27.3882C12.317 25.503 10.2915 23.6303 8.27494 21.751C8.14675 21.6314 7.90184 21.5163 8.04201 21.3185C8.19 21.1095 8.34685 21.3536 8.50578 21.3675C9.09096 21.4201 9.90959 20.8704 10.0331 20.331C10.0597 20.2145 9.92522 20.0302 10.1707 20.0019C10.3447 19.9817 10.4354 20.1255 10.5385 20.2258C11.7615 21.4161 12.985 22.6064 14.2086 23.7967C14.5368 24.1158 14.9193 24.4048 15.1851 24.7591C15.8552 25.6513 16.7906 26.0563 18 26.0393Z" fill="#BFAA30"/>
<path d="M9.99921 14.9264C9.99501 14.9067 9.9908 14.8865 9.98712 14.8654C9.98028 14.8428 9.97503 14.8192 9.96819 14.7956C9.95978 14.7634 9.95189 14.7307 9.94505 14.6985C9.9398 14.6711 9.93401 14.6436 9.92981 14.6162C9.9256 14.5912 9.92455 14.5662 9.92297 14.5412C9.91088 14.3791 9.89563 14.2156 9.85356 14.0559C9.76102 13.8 9.79625 13.5297 9.78836 13.2652C9.78416 13.1618 9.77469 13.0608 9.74735 12.9598C9.73368 12.9122 9.71738 12.8665 9.69529 12.8203C9.69372 12.8141 9.69004 12.8064 9.68688 12.8001C9.66217 12.7915 9.63798 12.7852 9.61747 12.7804C9.60643 12.7766 9.59697 12.7756 9.5875 12.7727C9.5833 12.7727 9.58067 12.7713 9.57646 12.7703C9.15634 12.6929 9.47288 13.207 9.23837 13.2777C9.02436 13.1681 8.86189 12.9997 8.64525 12.9074C8.63421 12.9011 8.62317 12.8963 8.61265 12.8925C8.59635 12.8877 8.57847 12.8824 8.56217 12.8785C8.37972 12.83 8.19253 12.83 8.00429 12.855C7.99588 12.8564 7.98799 12.8574 7.97958 12.8598C7.95749 12.8636 7.93751 12.8675 7.91701 12.8723C7.7845 12.8973 7.65515 12.9295 7.5258 12.9646C7.50004 12.9709 7.47533 12.9786 7.44956 12.9848C7.43431 13.0271 7.41801 13.0695 7.40329 13.1118C7.21084 13.2065 7.10884 13.4297 6.75549 13.4398C6.79072 12.7751 6.95846 12.1475 7.38804 11.6377C7.64569 11.3308 7.76452 11.6814 7.85549 11.8796C7.84707 11.9031 7.83761 11.9258 7.82972 11.9493C7.84497 11.9604 7.85969 11.9705 7.87494 11.9806C7.91175 12.008 7.94855 12.0344 7.98536 12.058C7.9964 12.0667 8.00587 12.0744 8.01691 12.0806C8.03479 12.0931 8.05214 12.1056 8.07002 12.1181C8.2225 12.2292 8.37972 12.3302 8.57164 12.3552C8.5974 12.3577 8.62475 12.3601 8.65367 12.3601C8.67417 12.3601 8.69468 12.3586 8.71624 12.3577C9.5344 12.032 9.70634 11.502 9.19735 10.8686C9.07747 10.7214 8.9355 10.5906 8.78564 10.4685C8.76251 10.4545 8.73937 10.4396 8.71729 10.4237C8.69152 10.4074 8.66681 10.3901 8.6421 10.3727C8.42915 10.2208 8.22776 10.0524 7.94645 10C6.94005 10.1395 6.07562 10.4415 5.76487 11.4655C5.62711 11.9219 5.45517 12.3774 5.22907 12.8011C4.84838 13.5206 4.99613 14.2069 5.28112 14.8976C5.9631 16.5487 6.8738 18.0907 7.93436 19.5648C8.24774 20.0001 8.63369 20.1184 9.07431 19.8765C9.4876 19.6494 9.94032 19.3426 9.44922 18.8049C9.34563 18.689 9.31145 18.5457 9.37402 18.3946C9.54859 17.9767 9.3877 17.5938 9.22154 17.211C9.18894 17.2524 9.15739 17.2894 9.12742 17.3245C9.15739 17.286 9.18316 17.2432 9.20945 17.1999C9.20682 17.0802 9.20524 16.9604 9.20419 16.8421C9.42503 16.5954 9.38033 16.3145 9.32407 16.0326C9.32144 16.0216 9.31724 16.01 9.31303 15.999C9.30619 15.974 9.29778 15.9504 9.28832 15.9278C9.2431 15.8119 9.17948 15.7056 9.07694 15.6185C9.63798 15.6695 10.0197 15.5224 9.99921 14.9264ZM8.40391 15.5623C8.29191 15.5786 8.18149 15.6007 8.07002 15.6219C8.18044 15.6007 8.29191 15.5786 8.40391 15.5623ZM7.98116 14.3988C8.39549 14.3079 8.59635 14.3714 8.75147 14.6735C8.55955 14.4811 8.27456 14.3652 7.98116 14.3988ZM8.6768 15.5397C8.81982 15.5397 8.94286 15.5171 8.97704 15.3564C8.97704 15.354 8.97862 15.3502 8.97862 15.3478C8.99649 15.4175 9.01542 15.4925 9.03593 15.5709C9.03856 15.5834 9.05118 15.5935 9.06327 15.6032C8.86294 15.5334 8.66786 15.531 8.47436 15.5531C8.54009 15.545 8.60845 15.5397 8.6768 15.5397ZM7.6704 14.482C7.52055 14.5383 7.36911 14.6042 7.18613 14.6379C7.36911 14.5768 7.52843 14.5248 7.6704 14.482ZM7.62571 15.6772C7.591 15.6777 7.5563 15.6777 7.5216 15.6758C7.5563 15.6777 7.591 15.6782 7.62571 15.6772ZM8.05477 16.9118C8.04373 16.9893 8.04373 17.0605 8.05477 17.1249C7.96906 17.0277 7.87336 16.9152 7.76452 16.7882C7.83813 16.8743 8.09683 16.6064 8.05477 16.9118ZM8.97494 17.4895C8.8235 17.6304 8.69941 17.6641 8.53746 17.5717C8.72412 17.6179 8.86346 17.5765 8.97494 17.4895Z" fill="#E8938C"/>
<path d="M46.5984 37.5881C46.3065 37.7878 46.0433 38.012 45.8433 38.2905C45.6273 38.5918 45.3209 38.8443 44.9546 38.9298C44.3382 39.074 43.7329 39.2365 43.141 39.4433C42.9336 39.3905 42.8954 39.2351 42.8788 39.1528C42.9356 39.3068 42.9662 39.5481 43.0923 39.7639C43.1079 40.1077 43.3425 40.3727 43.4992 40.6669C43.7293 41.098 43.8152 41.5443 43.3109 41.8586C42.7899 42.1832 42.3398 41.8895 41.9921 41.5739C41.5164 41.1423 41.1757 40.5966 41.0788 40.0029C40.7894 38.2359 41.2596 36.6005 43.1169 35.4638C43.8198 35.0335 44.6055 34.8594 45.453 35.128C45.7268 35.1347 45.9534 35.239 46.1558 35.3944C46.4658 35.6326 46.615 35.9204 46.4161 36.2665C46.2231 36.6027 45.9157 36.6999 45.4907 36.5973C44.7492 36.4187 44.083 36.5745 43.5972 36.9667C43.8178 36.7128 44.2784 36.5257 44.6829 36.5714C45.459 36.6591 46.2216 36.5176 46.9998 36.5745C47.6328 36.6206 48.3663 36.7554 48.9953 36.4066C49.1163 36.8919 46.8732 37.2648 46.5984 37.5881Z" fill="#E8938C"/>
<path d="M44 24.92C43.9192 24.059 43.5646 23.3535 42.6417 22.967C42.3087 22.9038 42.0938 22.6682 41.8273 22.5091C41.4359 22.2785 41.0962 21.9326 40.5549 22.0115C40.2935 22.2098 40.0336 22.4085 39.7722 22.6068C39.7032 22.6151 39.6397 22.6317 39.5799 22.6557H39.5778C39.5103 22.6806 39.4489 22.7157 39.3936 22.7585C39.3788 22.7669 39.367 22.7775 39.3537 22.7885C39.3297 22.8074 39.3072 22.8282 39.2847 22.8494C38.8749 23.5084 38.904 23.9327 39.3947 24.4234C39.6254 24.653 39.8684 24.7102 40.1815 24.5945C40.0076 24.6876 39.8351 24.7895 39.6668 24.897C39.6551 24.9044 39.6443 24.9113 39.6326 24.9187C39.6351 25.1889 39.5983 25.4628 39.7507 25.7151C39.7625 25.7197 39.7732 25.7248 39.785 25.7294C39.7865 25.7308 39.7876 25.7308 39.7891 25.7317C39.8039 25.7377 39.8198 25.7451 39.8357 25.7511C40.4618 25.4914 41.0389 25.1174 41.8467 25.0515C41.0282 25.1949 40.3677 25.4605 39.8541 25.9471C39.8331 25.966 39.8131 25.9853 39.7932 26.0043C39.7958 26.0342 39.7998 26.0651 39.8039 26.0965C39.7697 26.3238 39.8479 26.5185 40.0111 26.6886C40.0086 26.6983 40.006 26.7089 40.0029 26.7186C40.0111 26.7186 40.0188 26.7163 40.027 26.714C40.6041 26.5909 41.0261 26.1361 41.5817 26.1126C41.0389 26.3289 40.3733 26.4677 39.9886 26.9976C39.9845 27.0022 39.982 27.0073 39.9779 27.0119C39.9963 27.0202 40.0152 27.0285 40.0336 27.0368C39.9211 27.5967 40.4102 27.9827 40.5376 28.4743V28.4757C40.5324 28.4803 40.5283 28.4863 40.5268 28.4913C40.5309 28.489 40.536 28.4877 40.5401 28.4853C40.9115 28.3368 41.2563 28.1722 41.3428 27.8429C41.3745 28.1551 41.4528 28.4471 41.7117 28.6763C42.1005 29.0231 41.9997 29.5327 42.2662 29.9081C42.2678 29.9104 42.2703 29.914 42.2729 29.9164C42.2846 29.9343 42.2979 29.9509 42.3128 29.968C43.1139 30.0911 43.426 29.8735 43.6076 29.0604C43.8107 27.7761 43.9458 26.4894 43.8834 25.1894C43.8777 25.1018 43.9586 25.01 44 24.92ZM40.6685 24.3233C41.1105 24.0125 40.7841 23.7994 40.5135 23.5126C41.1279 24.0687 41.1279 24.0687 41.7869 24.0507C41.3479 24.1024 40.9126 24.2421 40.4905 24.4404C40.5478 24.4058 40.6061 24.3666 40.6685 24.3233Z" fill="#E8938C"/>
<path d="M25 29C24.5087 30.22 24.013 31.4391 23.5267 32.6611C23.0002 33.9846 22.4832 35.3109 21.9623 36.6364C20.1958 37.3642 18.4316 38.0964 16.6607 38.8155C16.3446 38.9438 16.0066 39.1223 15.6446 38.8799C16.2209 38.3354 15.94 37.2661 15 36.6256C16.6697 35.9388 18.2973 35.2563 19.9396 34.6012C20.4191 34.4099 20.7694 34.1397 21.076 33.7665C22.3819 32.1772 23.5989 30.5308 25 29Z" fill="#BFAA30"/>
<path d="M51.9996 28.1397C52.0233 29.3027 51.1038 29.9839 49.9936 29.5997C49.7168 29.504 49.5368 29.5163 49.3045 29.6949C48.8734 30.0255 48.3633 30.0966 47.8625 29.8631C47.2407 29.5727 46.3721 29.6343 46.1255 28.7854C46.0859 28.6489 45.9732 28.4978 46.0058 28.3818C46.3257 27.2283 46.2589 25.9858 46.9021 24.9057C47.4616 23.9659 48.1863 23.2383 49.3366 23C49.83 23.1028 50.3554 23.0213 50.8285 23.2553C51.0964 23.388 51.3579 23.5197 51.5482 23.7518C51.9694 24.2653 51.7672 24.8195 51.0949 24.9526C50.7163 25.0275 50.3243 25.0279 49.9521 24.9242C49.4988 24.7977 49.3262 24.9242 49.3579 25.3823C49.3846 25.7674 49.3742 26.1539 49.2704 26.5391C49.0939 27.1956 48.7123 27.6906 48.1532 27.9895C48.2402 27.901 48.4226 27.8351 48.5684 27.7153C48.9945 27.3652 49.2022 27.431 49.3366 27.9697C49.4251 28.3245 49.5418 28.6826 49.4469 29.0743C49.4043 29.1184 49.607 29.0578 49.5215 29.0511C49.4735 29.0473 49.4963 29.0364 49.5185 28.9881C49.6085 28.7925 49.7766 28.793 49.9496 28.8219C50.7019 28.9474 51.3446 28.792 51.8206 28.1786C51.8567 28.1321 51.9343 28.1312 51.9996 28.1397Z" fill="#E8938C"/>
<path d="M48.3376 11.4925C49.2683 12.2304 49.2148 13.2266 48.1987 13.8629C48.0394 13.9626 47.936 14.059 47.932 14.2469C47.9045 15.667 46.4638 16.2663 45.0875 15.89C43.6063 15.4848 42.8874 14.3068 42.3399 13.0445C41.9432 12.1306 41.8268 11.1837 42.3578 10.2589C42.75 9.78422 43.1881 9.35991 43.7881 9.13361C44.2292 8.96677 44.6873 8.89341 45.035 9.29663C45.3852 9.70272 45.1244 10.0772 44.8886 10.4286C44.7243 10.6736 44.5065 10.8817 44.2577 11.0452C43.9215 11.2662 43.855 11.4187 44.2717 11.6464C44.7238 11.8933 45.056 12.285 45.3707 12.6825C45.7599 13.1739 45.8648 13.7214 45.7719 14.268C45.8133 14.1899 45.8043 14.0508 45.8058 13.9137C45.8133 13.2036 45.9082 13.1403 46.5752 13.4074C46.8804 13.5297 47.1806 13.6615 47.4574 13.8375C47.314 13.3969 47.7931 13.3177 47.9569 13.056C48.1613 12.7304 48.3471 12.4125 48.2657 12.0127C48.2297 11.8334 48.1593 11.6464 48.3376 11.4925Z" fill="#E8938C"/>
<path d="M13.383 34.1171C13.0237 34.8721 12.4542 35.4912 11.9008 36.1215C11.8534 36.153 11.8076 36.1846 11.7618 36.2156C11.428 36.4495 11.1177 36.7076 10.8288 36.9895C10.7814 37.0361 10.7356 37.0827 10.6898 37.1293C10.4196 37.2515 10.1484 37.3748 9.87712 37.4966C9.59651 37.5242 9.33047 37.5999 9.06444 37.6839C8.70001 37.7998 8.33818 37.9294 7.94095 37.9633C5.37327 38.1875 3.27519 37.3835 1.61859 35.5625C0.608595 34.4539 0.138999 33.1327 0.0119691 31.7047C-0.0515461 30.9915 0.148371 30.2981 0.360261 29.6135C0.439916 29.3544 0.599224 29.1166 0.601827 28.8372C1.995 26.4403 4.71001 24.6523 8.10703 25.0574C10.8965 25.3898 13.2684 27.4631 13.8624 30.1846C14.1576 31.5339 13.9686 32.8512 13.383 34.1171Z" fill="#9B6A37"/>
<path d="M44.3395 25C44.0348 24.2097 43.7094 23.4323 43 22.8923C43.4016 22.7097 43.5177 22.3887 43.5621 21.9672C43.7634 20.07 44.0005 18.1768 44.2235 16.2822C44.2361 16.1747 44.2402 16.0667 44.4178 16C44.5177 16.7614 45.1322 16.7659 45.6963 16.8072C46.1327 16.8391 46.6397 16.958 46.7795 16.33C47.0509 16.4081 47.005 16.5962 46.9818 16.76C46.6503 19.0951 46.3138 21.4297 45.9808 23.7648C45.945 24.0156 45.832 24.1893 45.5918 24.3102C45.166 24.5232 44.7563 24.7681 44.3395 25Z" fill="#BFAA30"/>
<path d="M24.1067 43.2623C23.7807 43.4138 23.9328 43.7081 23.8182 43.9246C23.8182 43.9269 23.8165 43.9283 23.8165 43.9306C23.7718 43.8754 23.722 43.8226 23.6672 43.7707C23.2802 45.0336 23.2802 45.029 22.1026 44.9882C21.8504 44.9799 21.6268 44.9498 21.4629 44.7792C21.2035 44.509 20.8305 44.4413 20.4508 44.3885C20.0521 44.332 19.6517 44.2814 19.2849 44.1239C19.2749 44.1563 19.2648 44.1901 19.253 44.2226C19.2441 44.2152 19.234 44.2082 19.2256 44.2008C18.9472 43.9209 18.9282 43.6261 19.1591 43.3197C19.1591 43.0588 19.2038 42.7932 19.1518 42.5411C18.9662 41.6675 19.4566 41.16 20.3669 40.8045C20.8501 40.6159 21.4165 40.4991 21.6966 40.0342C21.7721 39.9068 23.2467 40.164 23.2959 40.3346C23.4424 40.837 24.015 41.0149 24.3544 41.3658C25.2608 42.3066 25.2435 42.6167 24.1067 43.2623Z" fill="#E8938C"/>
<path d="M9.00218 16.9807C9.00164 16.7008 9.00109 16.4205 9 16.1407C9.29981 15.8618 9.69664 15.9308 10.0624 15.9294C12.3895 15.9207 14.7165 15.9279 17.0436 15.9241C18.0542 15.9227 18.0896 15.8925 18.0907 15.0328C18.094 12.0164 18.0945 8.99952 18.0902 5.98311C18.0891 5.05734 18.0438 5.03003 16.964 5.01518C16.5219 5.00895 16.0673 5.07843 15.6476 4.88532C15.4164 4.73725 15.4186 4.375 15.0076 4.38123C14.7171 4.38554 14.3949 4.40375 14.2074 4.11912C14.4189 3.94039 14.6658 4.01418 14.8849 4.01993C16.2117 4.05251 17.5418 3.92793 18.8658 4.08557C19.049 4.28395 18.9841 4.52019 18.9841 4.74205C18.9874 8.58168 18.9749 12.4218 18.9999 16.2614C19.0038 16.8316 18.8162 17.0061 18.161 16.9998C15.109 16.9692 12.0553 16.9826 9.00218 16.9807Z" fill="#575B62"/>
<path d="M52.221 22.5321C53.4306 22.025 54.7054 21.9085 56.0141 22.0644C56.6474 22.1398 57.0425 22.5746 56.9963 23.0661C56.9435 23.6262 56.4508 24.0437 55.7318 24.061C54.805 24.0834 53.8884 24.163 52.9749 24.297C52.7471 24.3303 52.5756 24.3646 52.6793 24.6211C53.0119 25.445 53.0837 26.2955 53.0031 27.161C52.5094 27.6109 52.0517 28.1079 51.2131 27.9794C50.9647 27.9415 50.7343 27.8944 50.5495 27.7462C50.3812 27.6113 50.2432 27.439 50.3155 27.2273C50.3884 27.0133 50.6147 27.0257 50.8154 27.0298C51.5215 27.0439 52.0681 26.7614 52.3976 26.4587C52.1805 26.6942 51.715 26.9063 51.1885 27.0074C50.6984 27.1016 50.1729 26.8656 50.0215 26.5149C49.927 26.2964 50.1631 25.4885 50.3622 25.3577C50.5316 25.2462 50.6979 25.2772 50.8472 25.3874C50.9996 25.4999 51.1438 25.5671 51.3337 25.3637C51.0443 25.3179 50.7671 25.2914 50.529 25.1625C50.1431 24.9535 50.1908 24.6198 50.277 24.3189C50.3607 24.0286 50.644 24.1219 50.8877 24.1589C51.2598 24.2156 51.6391 24.1927 52.0132 24.1772C52.336 24.1635 52.6152 24.0428 52.7553 23.7593C52.902 23.4607 52.7558 23.2326 52.5248 23.0177C52.3781 22.8823 52.1523 22.7767 52.221 22.5321Z" fill="#E8938C"/>
<path d="M38 42.245C38.1809 42.0328 38.4494 42.1311 38.6749 42.1303C40.83 42.1216 42.9852 42.1264 45.1409 42.1234C45.4017 42.1229 45.68 42.176 45.9023 42C46.0801 42.4568 45.9889 42.9081 45.8376 43.3515C45.7354 43.6509 45.4317 43.7147 45.0979 43.7277C44.564 43.7484 44.0281 43.6953 43.5025 43.76C44.055 44.2742 44.8813 44.4485 45.4825 44.895C45.6333 45.0503 45.6613 45.2267 45.6297 45.42C45.5343 46.0114 45.2591 46.1477 44.6522 45.8419C42.5519 44.7846 40.4926 43.672 38.3929 42.6143C38.212 42.5233 38.098 42.3926 38 42.245Z" fill="#AFB0B3"/>
<path d="M38.0392 42.4999C40.2532 43.696 42.4641 44.8977 44.6877 46.0814C44.9215 46.2061 45.2362 46.542 45.4389 46.3454C45.6775 46.1144 45.8221 45.7171 45.5429 45.366C45.5476 45.2684 45.5186 45.1726 45.527 45.075C45.6009 44.2038 45.6009 44.191 44.6275 44.2066C44.1576 44.2139 43.6957 44.1424 43.228 44.1539C42.9862 43.8541 43.3225 43.9288 43.4466 43.9261C44.0389 43.9128 44.6354 43.8862 45.224 43.9293C45.7551 43.9678 45.9193 43.7235 45.9467 43.3523C45.9742 42.9788 45.9742 42.6044 46.0871 42.2401C46.2592 40.6649 46.4319 39.0898 46.604 37.5152C46.5924 37.0527 46.9049 36.9982 47.3562 37C51.5626 37.0175 55.7695 37.0184 59.9759 37.0225C60.2256 37.023 60.4747 37.0087 60.7239 37.0014C60.8158 37.0582 60.9076 37.1146 61 37.1714C60.7572 37.3383 60.4726 37.2599 60.2087 37.2603C56.0646 37.2658 51.92 37.2773 47.7765 37.2512C47.1218 37.2471 46.9714 37.4918 46.9181 37.9721C46.708 39.8662 46.4519 41.7566 46.2561 43.652C46.1716 44.4737 46.1114 45.2964 45.9678 46.1121C45.8718 46.6579 46.1901 46.7739 46.7586 46.772C51.1075 46.7597 55.457 46.7688 59.8059 46.7716C59.7605 47.0869 59.4733 46.9838 59.2748 46.9842C54.8119 46.9897 50.3495 46.9865 45.8865 46.9916C45.526 46.992 45.2224 46.8848 44.9284 46.7253C42.7671 45.5526 40.6085 44.3761 38.4394 43.2144C38.1073 43.0361 37.912 42.8487 38.0392 42.4999Z" fill="#7C7E83"/>
<path d="M38 12.7832C37.9874 13.0327 37.9749 13.2816 37.9618 13.531C37.91 13.9009 38.057 14.3317 37.5734 14.5703C36.4916 15.0072 35.3485 15.0427 34.1981 14.9529C32.833 14.8466 32.6865 14.721 32.5761 13.4895C32.5399 13.0875 32.3499 12.9486 31.959 12.9538C31.7674 12.9561 31.6318 13.0256 31.6135 13.2438C31.5811 13.6241 31.5078 14.0011 31.4518 14.3794C31.411 14.5193 31.4042 14.6789 31.2016 14.7229C29.6827 15.1154 28.1759 15.1013 26.6826 14.6142C26.1467 14.3686 26.2137 13.8532 26.0394 13.4451C26.0022 13.1767 25.9326 12.9037 26.1655 12.6713C26.1728 12.506 26.1796 12.3401 26.187 12.1748C26.209 11.3448 26.2513 11.308 27.4661 11.0619C28.4109 10.9679 29.3587 11.008 30.305 11.0269C30.9944 11.0411 31.6109 11.1989 31.8056 11.9202C31.8428 12.0586 31.927 12.1951 32.1233 12.188C32.329 12.1805 32.3688 12.0199 32.4002 11.8862C32.553 11.2409 33.0895 11.0604 33.7102 11.0368C34.701 10.999 35.6939 10.9688 36.6847 11.06C36.8166 11.0812 36.9427 11.1223 37.0752 11.1445C37.8205 11.2673 37.9309 11.3944 37.9906 12.1724C37.9932 12.376 37.9963 12.5796 38 12.7832Z" fill="#020201"/>
<path d="M44.1445 9.03119C43.929 8.00861 44.0111 6.97701 44.037 5.94992C44.05 5.43187 44.6111 5.01518 45.1679 5.00032C45.6577 4.9868 46.1864 5.4071 46.2604 5.90983C46.397 6.83691 46.3139 7.76805 46.1843 8.68657C46.0482 9.6524 46.0158 9.67898 47.0365 10.1317C47.2611 10.2313 47.4674 10.3605 47.6823 10.4759C48.1738 11.0966 48.0825 12.1796 47.495 12.6994C47.017 13.1224 46.5272 13.0981 46.0876 12.6319C46.0006 12.54 45.9569 12.4264 45.8597 12.339C45.52 12.0332 45.5405 11.7895 46.0449 11.6399C46.1832 11.5989 46.3058 11.5525 46.3295 11.3057C46.1211 11.4525 45.972 11.5741 45.823 11.6714C45.3683 11.9697 45.082 11.703 44.8018 11.4782C44.4745 11.2156 44.7607 11.0259 44.9681 10.8453C45.2413 10.6074 45.5335 10.388 45.7004 10.0745C46.0093 9.49338 45.689 9.08029 44.9292 9.04876C44.6678 9.03795 44.3946 9.26499 44.1445 9.03119Z" fill="#E8938C"/>
<path d="M25.7124 23.4091C25.6989 23.4104 25.687 23.4104 25.6735 23.4113C24.2965 23.48 22.9541 23.7618 21.593 23.9256C21.1806 23.9745 20.6957 24.1665 20.4683 23.6393C20.4766 23.6159 20.4843 23.5926 20.4926 23.5693C20.5812 23.305 20.6646 23.0384 20.9371 22.8674C20.9387 22.8652 20.9397 22.8638 20.9423 22.8638C20.9667 22.8477 20.9921 22.8338 21.02 22.8194C22.2116 22.6004 23.4261 22.4923 24.6249 22.2993C24.9016 22.2549 25.2321 22.2607 25.2269 21.8968C25.2187 21.8187 25.2026 21.742 25.1839 21.6666V21.6653C25.1798 21.6469 25.1757 21.6303 25.172 21.6127C25.1373 21.4709 25.1021 21.33 25.1078 21.1846C25.1104 21.1402 25.1104 21.0962 25.1093 21.0532C25.1067 21.0078 25.1026 20.9625 25.0959 20.9172C25.0757 20.7682 25.0352 20.6215 25.0016 20.4738C25 20.468 24.999 20.4635 24.9974 20.4577C24.9891 20.4182 24.9824 20.3787 24.9746 20.3392C24.7638 19.2151 24.5488 18.0919 24.3565 16.9656C24.2788 16.5128 24.084 16.3324 23.5193 16.4199C22.7199 16.542 21.9163 16.647 21.1133 16.7596C21.1014 16.7609 21.0879 16.7618 21.0755 16.7641C21.0434 16.7699 21.0123 16.7744 20.9801 16.7793C20.9009 16.7874 20.8201 16.791 20.7398 16.7932C20.6657 16.7968 20.5931 16.8004 20.5206 16.8063C20.4372 16.8143 20.3553 16.826 20.2745 16.8493C20.2408 16.8588 20.2072 16.8677 20.175 16.8763C20.1481 16.8843 20.1211 16.8915 20.0958 16.8983C20.089 16.8996 20.0838 16.9005 20.0781 16.9018C19.8056 16.9602 19.8916 17.1496 19.8953 17.3093C19.9004 17.4816 19.9206 17.6629 19.7046 17.7343H19.7025C19.6771 17.7423 19.6502 17.7495 19.6181 17.754C18.8684 17.6261 19.1155 17.071 19 16.6707C19.0347 15.9213 19.1466 15.8285 19.9942 15.7118C21.0061 15.5731 22.0122 15.4116 23.0214 15.259C23.4162 15.0099 23.8597 14.9669 24.3275 15.0203C24.3301 15.0216 24.3317 15.0216 24.3343 15.0216C24.3586 15.0333 24.3814 15.0449 24.4027 15.0575C24.9964 15.3797 24.9658 15.8836 24.8648 16.4064V16.4078C24.8674 16.4194 24.8689 16.4311 24.8715 16.4428C24.9306 16.7802 24.9897 17.1163 25.0487 17.4529C25.0783 17.4866 25.1052 17.5216 25.1295 17.5575C25.4103 17.9577 25.3715 18.4289 25.472 18.8678C25.5191 19.0724 25.5471 19.2784 25.5792 19.4857C25.5969 19.5988 25.6155 19.7114 25.6409 19.8232C25.6155 19.8954 25.586 19.9663 25.5549 20.0372C25.5792 20.9401 25.8507 21.8129 25.9782 22.7032C26.0186 22.9823 26.0372 23.2403 25.7124 23.4091Z" fill="#010101"/>
<path d="M29.103 57.1482C29.9143 56.973 30.726 56.9326 31.5388 57.1395C32.0863 57.6673 32.172 58.7651 31.6569 59.3245C31.3521 59.6555 30.901 59.4568 30.5239 59.4481C30.1785 59.4399 30.3705 59.1079 30.3279 58.9199C30.2909 58.7585 30.391 58.5776 30.2432 58.3855C28.496 60.3585 26.2613 60.1041 24 59.7715C25.6122 58.7038 27.2712 57.7582 29.103 57.1482Z" fill="#593718"/>
<path d="M35.3107 57.1345C36.0782 56.874 36.8847 57.0933 37.6657 57C39.6579 57.5856 41.3809 58.535 43 59.7024C41.9424 60.1648 39.2256 60.1714 38.0269 59.1206C37.7668 58.8922 37.5687 58.6525 37.063 59.032C36.4592 59.4849 35.6877 59.1836 35.3146 58.5322C35.0449 58.0603 34.7695 57.6022 35.3107 57.1345Z" fill="#593718"/>
<path d="M21.9461 23.2744C21.828 23.5385 21.8311 23.863 21.4563 24C21.186 23.9829 20.9235 23.8224 20.6442 23.9657C20.1466 23.6462 19.7051 23.3082 20.0763 22.7015C19.3765 22.2963 19.5571 21.7063 19.5855 21.1281C19.5918 21.0032 19.2747 20.8955 19.2484 20.6661C19.1765 20.0315 19.545 19.67 20.3708 19.652C20.1954 19.3523 19.8264 19.3126 19.5676 19.1553C18.8537 18.7222 18.7818 18.0484 19.5319 17.672C19.9104 17.4823 19.923 17.2695 19.9697 17C20.1498 17.3858 20.1576 17.8555 20.6841 18.07C21.4637 18.3143 21.5975 18.6816 21.1487 19.341C20.65 19.643 20.8101 19.8787 21.2521 20.0847C21.6295 20.3366 21.829 20.6381 21.565 21.0393C21.4332 21.2394 21.513 21.3557 21.713 21.4679C21.9172 21.5828 22.0558 21.7807 21.9781 21.9668C21.7928 22.4076 21.8232 22.8363 21.9461 23.2744Z" fill="#E8938C"/>
<path d="M14.2971 46C14.545 46.2024 14.4325 46.4659 14.433 46.7003C14.4417 49.4175 14.4553 52.1352 14.4243 54.8524C14.4183 55.3947 14.5831 55.5498 15.2085 55.5469C19.8057 55.525 24.4028 55.536 29 55.5369C28.7955 55.8902 28.4687 55.9981 28.0216 55.9966C23.6154 55.9857 19.2085 55.9818 14.8023 56C14.1894 56.0024 13.9947 55.8381 14.0001 55.2944C14.0268 52.4555 14.0126 49.6166 14.0126 46.7776C14.0126 46.4917 13.9653 46.1924 14.2971 46Z" fill="#9F6D3C"/>
<path d="M49.7409 6.56127C49.7444 6.08705 49.5825 5.65802 49.327 5.23802C48.6427 4.11358 49.0656 2.8325 50.2848 2.26576C51.4861 1.7072 52.9548 2.05533 53.6495 3.06401C54.3598 4.09507 53.9633 5.37271 52.7068 6.04488C52.261 6.28328 51.8626 6.55137 51.6111 6.9576C50.9113 7.09444 50.3107 6.88358 49.7409 6.56127Z" fill="#FECD07"/>
<path d="M0.796478 29C1.01397 29.1955 0.817143 29.3786 0.753599 29.548C-0.642816 33.2618 2.2988 37.0408 6.38678 37.4653C7.44017 37.5745 8.40727 37.4649 9.39246 37.2101C9.58361 37.1606 9.79025 36.9706 10 37.1909C9.59807 37.43 9.13002 37.5342 8.69038 37.6957C8.41244 38.0138 8.00121 37.9027 7.6463 37.9311C6.95041 37.9867 6.24885 38.0514 5.55193 37.9353C5.31842 37.8963 5.072 37.86 4.89635 37.6884C3.80835 37.2735 2.76375 36.8095 1.92167 36.0334C-0.126716 34.1434 -0.595803 31.2842 0.796478 29Z" fill="#765029"/>
<path d="M19 4.57273C17.5036 4.57273 16.0067 4.57273 14.3949 4.57273C14.9234 4.82559 15.8989 4.36549 15.7721 5.25398C16.0557 5.65631 15.7781 5.89309 15.3344 5.92915C14.0835 6.03039 12.8239 6.01344 11.5709 5.93915C11.094 5.91091 10.9144 5.62893 10.9324 5.26485C11.1245 4.57838 11.1321 4.57534 11.8496 4.61791C11.2388 4.62791 10.0875 4.80734 8.92646 4.73696C8.6053 4.71741 8.26128 4.77302 8 4.55752C8.18399 4.3846 8.43547 4.45412 8.65811 4.45238C9.73535 4.44543 10.8126 4.44717 11.8898 4.45021C12.3079 4.45151 12.696 4.46976 13.027 4.16345C13.2899 3.92058 13.7215 3.96273 13.967 4.19517C14.2632 4.47541 14.6115 4.44847 14.9806 4.44847C16.1047 4.44847 17.2287 4.44456 18.3528 4.45195C18.5749 4.45325 18.8302 4.37982 19 4.57273Z" fill="#999B9F"/>
<path d="M8.16339 4C9.77559 4 11.3878 4 13 4C12.48 4.26176 11.5196 3.83227 11.5131 4.8046C11.044 5.11008 10.4977 4.98504 9.98114 5.00181C9.10096 5.03028 9.02952 5.07043 9.02366 5.82218C9.01195 7.23925 9.02659 8.65582 9.01546 10.0729C9.01312 10.3926 9.07812 10.7352 8.77477 11C8.45385 10.8907 8.20438 10.7027 8 10.4663C8.00703 8.5379 8.00996 6.60899 8.02635 4.68058C8.02811 4.45287 7.9145 4.19518 8.16339 4Z" fill="#585C63"/>
<path d="M24.9997 46.5575C25.0053 46.8454 24.9393 47.1222 24.9126 47.4044C24.8691 47.8722 24.6166 48.0255 24.203 47.9966C23.7842 47.9677 23.5425 47.726 23.5606 47.3031C23.583 46.7499 23.4063 46.1714 23.7239 45.6449C23.7471 45.6067 23.6756 45.5076 23.648 45.4374C23.6424 45.4178 23.6381 45.3983 23.6334 45.3787C23.486 44.7909 23.4615 44.1609 23.115 43.6446C23.0806 43.5917 23.0422 43.541 23 43.4913C23.125 43.338 22.944 42.9577 23.3387 43.0039C23.6717 43.2043 23.7644 43.549 23.8648 43.8978C24.0156 44.4186 24.0836 44.9673 24.3374 45.4556C24.3452 45.5844 24.3172 45.7817 24.4818 45.7782C25.0699 45.7617 24.9919 46.1754 24.9997 46.5575Z" fill="#9A6634"/>
<path d="M18.5245 45.365C18.5203 45.3789 18.5162 45.392 18.5126 45.4059C18.5394 45.9882 18.6773 46.5632 18.6329 47.1527C18.59 47.7291 18.3505 48.0044 17.8083 47.9999C17.2729 47.9954 17.0168 47.721 17.0075 47.1351C17.0034 46.8831 17.0117 46.6312 17.005 46.3792C16.9957 46.062 16.9487 45.7443 17.5084 45.7551C17.7092 45.7596 17.6757 45.5616 17.6875 45.4307C18.0329 44.8813 18.0944 44.2531 18.3236 43.67C18.4321 43.391 18.5229 43.1134 18.8833 43C18.8942 43.2637 18.874 43.5296 19 43.7807C18.9907 43.8122 18.9814 43.845 18.9706 43.8765C18.8229 44.3719 18.6742 44.8691 18.5245 45.365Z" fill="#9A6633"/>
<path d="M43.2721 9.11492C43.3145 9.11587 43.3589 9.12634 43.3988 9.11682C43.9245 8.98973 44.4866 8.84265 44.8202 9.41003C45.1552 9.97931 44.7734 10.4224 44.4073 10.8375C44.3521 10.8999 44.2772 10.9479 44.2304 11.0146C44.1072 11.1902 43.7535 11.2754 43.8742 11.5282C43.9594 11.7071 44.2373 11.9261 44.4093 11.9113C44.6714 11.8885 44.9754 11.7495 45.0774 11.4372C45.1074 11.3454 45.0714 11.2307 45.2153 11.1559C45.4991 11.3401 45.4991 11.6286 45.4459 11.9042C45.3804 12.244 45.1424 11.9494 44.9892 11.9884C44.8561 12.0222 44.6867 12.1084 44.7473 12.2122C44.9512 12.563 45.1197 12.9871 45.5223 13.1479C45.8972 13.2979 46.1628 13.0075 46.3475 12.7248C46.7811 12.0622 46.6579 11.3501 46.4998 10.6414C46.5811 10.6757 46.6624 10.7099 46.7432 10.7437C47.3235 11.58 47.0171 12.3807 46.6293 13.177C47.2083 13.2498 47.566 12.8181 47.5891 12.0841C47.5955 11.8866 47.3585 11.5943 47.7566 11.491C47.8034 11.5286 47.8507 11.5662 47.8975 11.6034C48.1404 12.4387 47.9685 13.147 47.1984 13.6558C46.818 13.9071 47.3546 13.9476 47.2748 14.1718C46.852 13.9823 46.4165 13.8134 46.0071 13.5977C45.5632 13.3636 45.4375 13.5049 45.471 13.9414C45.4966 14.2741 45.439 14.5921 45.1035 15C45.6947 13.1213 44.4743 12.3292 43.2165 11.5106C43.5333 11.2378 43.8698 10.9893 44.1521 10.6928C44.461 10.3687 44.8847 10.0002 44.5408 9.52093C44.1925 9.03495 43.7003 9.33387 43.2643 9.46381C42.7292 9.62279 42.441 10.0993 42 10.3787C42.2281 9.7732 42.7947 9.48618 43.2721 9.11492Z" fill="#9E6463"/>
<path d="M52.1382 23.2656C52.286 23.3913 52.4366 23.5153 52.5816 23.6437C52.8263 23.86 53.081 24.0802 52.9293 24.4058C52.7624 24.7652 52.4198 24.9636 51.9462 24.9903C51.5862 25.0109 51.219 24.9672 50.8624 25.0019C50.6233 25.0256 50.3177 24.7629 50.166 25.0412C50.0702 25.2178 50.0215 25.5094 50.2421 25.6356C50.5069 25.7867 50.817 26.0164 51.2134 25.8104C51.2901 25.7707 51.3746 25.7408 51.4995 25.6882C51.6081 26.0868 51.2666 26.2327 50.9805 26.3754C50.5718 26.5796 50.6956 26.2175 50.5707 26.1123C50.4643 26.0226 50.2427 25.9843 50.1951 26.0882C50.0355 26.4378 49.6672 26.7932 49.9101 27.1709C50.1273 27.508 50.5853 27.59 51.0482 27.4959C51.7682 27.3497 52.3465 27.025 52.8212 26.4908C52.674 27.1874 51.7839 27.7184 50.817 27.7711C50.6009 27.7827 50.2449 27.6395 50.1917 27.8825C50.1335 28.1496 50.4347 28.3423 50.7521 28.4083C51.336 28.5291 51.8953 28.5001 52.3666 28.134C52.548 27.9931 52.6729 27.7737 52.9903 27.7795C53.0009 27.8103 53.0026 27.842 52.9964 27.8736C52.4646 28.5951 51.6657 28.8738 50.6715 28.6495C50.2029 28.5434 50.3042 28.8154 50.1654 29C49.9308 28.5612 49.9247 28.118 49.8021 27.6979C49.7159 27.4036 49.5916 27.2012 49.2047 27.52C48.8823 27.7853 48.4809 27.9138 48 27.9066C49.6397 27.409 49.9174 26.3392 49.8082 25.1518C49.7573 24.6011 50.0148 24.527 50.5584 24.6751C51.0068 24.7968 51.4642 24.7745 51.9177 24.7446C52.1836 24.7273 52.4444 24.6309 52.5463 24.4102C52.6572 24.1703 52.5475 23.9701 52.3207 23.7882C51.8398 23.4029 51.2498 23.2183 50.5914 23.1407C50.3854 23.1166 50.1508 23.1933 49.9807 23.0359C50.7303 22.9333 51.4407 23.0631 52.1382 23.2656Z" fill="#9E6463"/>
<path d="M24.791 14.8573C24.2602 14.905 23.7301 14.9523 23.1994 15C23.1632 14.464 22.9569 13.9405 23.0081 13.396C23.0356 13.1017 23.1088 12.8226 23.2751 12.5595C23.6758 11.925 24.4209 11.822 25.1617 12.2924C25.4223 12.4583 25.6699 12.6344 25.9237 12.8061C25.9374 13.0745 25.9518 13.3425 25.9656 13.6105C26.0725 13.85 25.9212 13.866 25.6399 13.8232C24.9591 13.7207 24.8597 13.7849 24.8954 14.2651C24.9091 14.4676 25.066 14.6816 24.791 14.8573Z" fill="#E8938C"/>
<path d="M46.0646 31C45.6222 30.5245 45.1761 30.051 44.7394 29.5727C44.502 29.3124 44.3536 29.4111 44.221 29.6344C44.0438 29.4521 43.8389 29.2706 44.1985 29.0757C44.6309 29.137 44.817 28.8422 45.0969 28.6919C45.5111 28.4702 45.9 28.2209 46.3771 28C45.6505 28.577 46.2995 28.9352 46.6491 29.3339C47.0009 29.7359 47.4349 29.7838 48 29.4172C47.9512 29.7782 47.621 29.8334 47.437 29.98C46.9956 30.332 46.3136 30.4912 46.0646 31Z" fill="#BFAA30"/>
<path d="M65.9014 24.2112C66.2061 25.5027 65.7986 26.4363 64.7616 26.8413C64.0001 27.139 63.3097 27.0184 62.7154 26.4753C62.0931 25.9066 61.8195 25.2219 62.1263 24.3873C62.1642 24.2841 62.2047 24.1815 62.2436 24.0783C63.3731 22.5939 64.802 22.6457 65.9014 24.2112Z" fill="#9C9EA2"/>
<path d="M38.4432 12C38.3071 11.4035 37.8513 11.1045 37.1034 11.0781C36.9634 10.2944 36.9855 9.50841 37.053 8.72104C37.0745 8.47206 37.0184 8.21172 37.2491 8C37.2701 8.00954 37.3053 8.0159 37.3109 8.02953C37.6925 8.98001 37.692 8.98001 39 9.04952C38.8792 10.0413 38.7721 11.0341 38.4432 12Z" fill="#59390E"/>
<path d="M37.9693 20.6068C36.6367 21.1308 34.3603 21.1311 33.0247 20.6075C32.9022 20.3393 33.2598 20.2553 33.554 20.196C34.8476 19.935 36.1577 19.934 37.4507 20.197C37.7396 20.256 38.1096 20.3355 37.9693 20.6068Z" fill="#653715"/>
<path d="M50.6277 7C51.4186 7.13779 52.2088 7.27557 52.999 7.41381C53.0186 7.86904 52.7476 8.27519 52.5594 8.6926C52.4444 8.94655 50.9341 9.12171 50.8545 8.89567C50.7225 8.52059 49.9007 8.62551 50.01 8.2896C50.1515 7.85463 50.1894 7.37103 50.6277 7Z" fill="#A5A6A9"/>
<path d="M26.8308 11.1308C26.1131 11.1603 25.6639 11.4286 25.5557 12C25.2559 11.0513 25.1269 10.0829 25 9.1141C25.5766 9.28205 26.1159 9.11709 26.66 9C27.0109 9.44444 27.0659 9.92863 26.9352 10.4244C26.8731 10.6594 26.7902 10.888 26.8308 11.1308Z" fill="#59390E"/>
<path d="M43.978 29.3589C43.9852 29.5877 43.9923 29.816 44 30.0448C43.9499 30.1141 43.9075 30.1909 43.8483 30.2517C43.3823 30.7322 42.8244 31.1869 42.1419 30.9217C41.517 30.6784 41.1471 30.0892 41 29.4172C41.4792 29.5538 41.8869 29.8803 42.4029 29.9192C43.1795 30.0737 43.3971 29.4691 43.7154 29C43.8028 29.1196 43.8907 29.2393 43.978 29.3589Z" fill="#FCFCFC"/>
<path d="M32.8257 21C31.5249 20.9577 30.6787 20.204 30.1012 19.033C30.0335 18.8955 29.918 18.7082 30.0898 18.6104C30.2744 18.5056 30.3312 18.7288 30.3964 18.8627C30.6981 19.4825 31.0874 20.0194 31.6738 20.3621C32.7401 20.9857 34.1146 20.4304 34.5282 19.1985C34.6562 18.8182 34.7328 18.4189 34.8404 18C35.1903 18.558 34.9563 19.4297 34.2226 20.4272C33.7576 20.6181 33.2917 20.8091 32.8257 21Z" fill="#C24358"/>
<path d="M49 36.666C48.9792 36.9853 48.8062 37.152 48.5143 37.1121C48.0358 37.0471 47.4026 37.2461 47.1314 37.1192C46.4358 36.7939 45.7984 37.1509 45.1387 36.9984C44.267 36.7967 43.5184 37.1772 43 38C43.0156 37.4369 43.3984 37.1624 43.7912 36.9558C44.2525 36.713 44.7636 36.5703 45.2847 36.7327C45.6951 36.8606 46.0457 36.8787 46.2322 36.3894C46.4192 35.8995 46.0977 35.6502 45.7829 35.4091C45.6395 35.2998 45.4852 35.2052 45.3361 35.104C45.401 34.9909 45.5055 34.9958 45.6109 35.0034C46.293 35.1139 46.6904 35.496 46.6992 36.2565C46.7023 36.4987 46.8083 36.6928 47.0571 36.6458C47.3455 36.5917 47.3314 36.3303 47.3049 36.0881C47.2675 35.7426 46.8888 35.5256 46.9808 35.1319C47.0623 35.1352 47.1444 35.1385 47.226 35.1418C47.5496 35.2522 47.7434 35.4928 47.8592 35.8219C48.174 36.7174 48.1766 36.7169 48.9974 36.6638L49 36.666Z" fill="#9E6463"/>
<path d="M48.9825 10.8197C48.6815 11.0491 49.0006 11.2769 49 11.5062C48.9961 12.349 48.2539 13.0689 47.4006 12.9947C47.1244 12.9707 46.8163 12.9305 47.1361 12.652C48.0537 11.8532 47.9277 10.9399 47.645 10C48.2682 10.0862 48.4924 10.593 48.9825 10.8197Z" fill="#E8938C"/>
<path d="M37.8471 20.9988C37.0517 20.2205 33.9298 20.2213 33.1491 21C32.8644 20.6937 33.0039 20.4595 33.4269 20.3261C34.8051 19.8905 36.1967 19.8921 37.5754 20.3261C38.0006 20.4599 38.1351 20.6941 37.8471 20.9988Z" fill="#CAC9C8"/>
<path d="M4 39.6683C5.78488 39.268 7.61708 39.0831 9.47322 39.0133C9.67104 39.0057 10.004 38.9435 9.99996 39.1737C9.9954 39.4 9.66191 39.3171 9.46296 39.3311C7.66668 39.4593 5.8721 39.5921 4.14024 40C3.96067 39.92 4.01311 39.7863 4 39.6683Z" fill="#9E6463"/>
<path d="M50 36.7313C49.2264 37.2373 48.78 37.0327 48.6211 36.0828C48.546 35.6353 48.2581 35.3376 48 35.0146C49.4821 34.9098 50.0041 35.3579 50 36.7313Z" fill="#E8938C"/>
<path d="M47.4386 35.242C47.5926 35.6065 47.9784 35.8459 47.9975 36.283C48.0133 36.6366 47.9642 37.0235 47.5369 36.9989C47.2564 36.9825 46.847 36.9284 46.96 36.3475C47.0926 35.6639 46.4885 35.3983 46 35.1136C46.4988 34.9355 46.9802 34.9584 47.4386 35.242Z" fill="#E8938C"/>
<path d="M5 40.8723C6.13402 40.418 7.40034 40.3004 8.63459 40.1079C9.07216 40.0398 9.52176 39.9027 10 40.1096C8.46793 40.5224 6.80813 40.5783 5.28236 41C5.18843 40.9577 5.09393 40.915 5 40.8723Z" fill="#9E6463"/>
<path d="M4.75301 37.0114C5.26863 36.9307 5.72197 37.3033 6.22738 37.3272C6.99928 37.364 7.75026 37.2 8.50174 37.0218C8.60027 37.229 8.85757 37.0689 9 37.5086C7.27803 37.3982 5.62855 37.5777 4 38C4.08475 37.4679 4.58301 37.4395 4.75301 37.0114Z" fill="#9E6463"/>
<path d="M48.5125 0C48.6185 0.0168439 48.6984 0.0113944 48.7157 0.035174C49.1483 0.619756 49.5765 1.20632 49.9949 1.79734C50.0172 1.82905 49.9626 1.92119 49.9118 1.95488C49.7854 2.0396 49.6621 1.99451 49.5679 1.90633C49.0684 1.43569 48.523 0.989826 48.0904 0.482528C47.7601 0.0951184 48.435 0.191228 48.5125 0Z" fill="#FDE06E"/>
<path d="M47.7015 4.0084C47.8772 3.9807 47.9564 4.02337 47.9915 4.1087C48.0201 4.17794 47.9737 4.22697 47.8955 4.26365C47.4083 4.4912 46.9225 4.72137 46.4358 4.95005C46.2981 5.0148 46.1772 5.03838 46.0999 4.88418C46.032 4.74944 45.9017 4.58252 46.1252 4.5028C46.6574 4.31268 47.2106 4.1596 47.7015 4.0084Z" fill="#FDE06E"/>
<path d="M57.6048 2C57.8563 2.02104 57.8805 2.17469 57.9586 2.28586C58.0697 2.44427 57.9367 2.50422 57.8019 2.5463C57.3157 2.69836 56.8286 2.84764 56.3373 2.987C56.2531 3.01082 56.136 3.0005 56.056 2.96754C55.9742 2.9338 55.9886 2.83216 56.0565 2.79643C56.5799 2.5205 57.1098 2.2529 57.6048 2Z" fill="#FDDF6D"/>
<path d="M57.9982 5.54361C57.9128 5.86717 57.8931 6.11968 57.5262 5.94048C57.1029 5.73367 56.6571 5.57212 56.2236 5.38432C56.1011 5.33137 55.9408 5.27571 56.0221 5.09334C56.0859 4.95034 56.2154 5.00736 56.3297 5.0336C56.7898 5.13814 57.2507 5.24041 57.7117 5.34223C57.8761 5.37843 58.0175 5.43138 57.9982 5.54361Z" fill="#FDDF6C"/>
<path d="M47.5936 2.97966C47.1513 2.90975 46.7237 2.85305 46.3002 2.76993C46.1411 2.73855 45.9332 2.72644 46.0207 2.3846C46.0955 2.0923 46.1849 1.91394 46.4744 2.0422C46.86 2.21285 47.2539 2.35652 47.6423 2.51781C47.796 2.58166 48.0522 2.57506 47.9906 2.86791C47.9423 3.09691 47.7207 2.95268 47.5936 2.97966Z" fill="#FDDF6C"/>
<path d="M55.2696 6C55.3345 6.03637 55.4369 6.07519 55.5037 6.13515C55.9579 6.5416 56.3993 6.9564 56.8555 7.36138C57.1451 7.61842 56.9552 7.78306 56.6736 7.93148C56.3351 8.11038 56.2254 7.90101 56.1017 7.73637C55.7686 7.29454 55.4369 6.85221 55.1118 6.40743C55.0041 6.25901 54.869 6.09485 55.2696 6Z" fill="#FDDF6D"/>
<path d="M58 27.0579C56.6703 27.2791 55.3472 27.4852 54 28C54.4438 27.4009 57.0441 26.8103 58 27.0579Z" fill="#659FD4"/>
<path d="M58 25C56.6627 25.3204 55.3056 25.5552 54 26C55.2249 25.2472 56.5846 25.0108 58 25Z" fill="#5F9CD2"/>
<path d="M58 26C56.6658 26.3454 55.3006 26.5439 54 27C55.2145 26.2138 56.6038 26.0787 58 26Z" fill="#5E9BD2"/>
<path d="M43.3578 39C42.9106 38.7062 42.9421 38.3621 43.1305 38C43.3423 38.2224 43.1684 38.5115 43.409 38.725C43.392 38.8164 43.3749 38.9082 43.3578 39Z" fill="#9E6463"/>
<path d="M26.9751 17.5221C26.7131 18.2672 26.595 19.0268 26.1672 19.7527C26.1205 19.8362 26.0662 19.9181 26.009 20C25.9871 19.7848 26.0062 19.5722 26.0538 19.3628C26.1481 18.9381 26.3406 18.5197 26.4711 18.0987C26.5826 17.7383 26.5921 17.4008 26.3454 17.0674C26.3282 17.0461 26.3111 17.0228 26.2911 17C26.3654 17.0052 26.434 17.0135 26.4959 17.0244C26.9141 17.0933 27.0647 17.2758 26.9751 17.5221Z" fill="#FEFEFE"/>
<path d="M25.6144 26.8954C25.7425 26.9182 25.8719 26.9432 26 26.966C25.6861 27.002 25.3734 27.0078 25.0625 26.9909C25.0607 26.9909 25.0607 26.9909 25.0595 26.9909C24.2225 26.9469 23.3966 26.7507 22.5655 26.6192C22.3627 26.5891 22.1752 26.5142 22.0764 26.3181C22.0323 26.2358 22.0065 26.1315 22 26C22.0353 26.0955 22.0776 26.1638 22.1281 26.213C22.2898 26.3732 22.5196 26.3313 22.7195 26.3673C23.6846 26.5465 24.6492 26.7199 25.6144 26.8954Z" fill="#FEFEFE"/>
<path d="M33 32.1412C32.7114 33.3186 32.4307 34.4979 31.8668 35.5927C31.7869 35.75 31.736 35.987 31.5327 35.9992C31.2774 36.0161 31.2392 35.7471 31.1491 35.5791C30.5636 34.4941 30.275 33.3172 30.0286 32.1299C30.059 31.9938 30.0884 31.8586 30.1178 31.722C30.4289 30.2244 30.6361 28.7052 31.0986 27.2381C31.1838 26.9677 30.9423 26.8461 30.8355 26.6612C30.664 26.3593 29.837 25.9837 30.0286 25.6171C30.2638 25.1669 30.617 25.0659 31.2025 25.0002C31.2353 24.9965 31.6434 25.0448 31.6767 25.0434C31.8839 25.4269 31.7527 25.6401 31.7566 26.0382C31.759 26.3537 31.8085 26.6358 32.0157 26.8856C32.0285 26.9344 32.0412 26.9818 32.0525 27.0306C32.4322 28.4963 32.8275 29.961 32.9598 31.4703C32.9598 31.4703 32.9598 31.4717 32.9598 31.4727C32.9784 31.6943 32.9922 31.9168 33 32.1412Z" fill="#F06668"/>
<path d="M33.3191 31C32.8567 29.5772 32.6824 28.1092 32.1619 26.6949C32.08 26.4729 31.8482 26.2331 32.152 26C32.658 26.0978 33.0984 26.3506 33.6381 26.3702C34.0773 26.3859 33.9024 26.6802 34 26.8503C33.9332 28.2495 33.6567 29.6276 33.3191 31Z" fill="#FDFDFD"/>
<path d="M29.9121 26.1078C29.5114 26.5308 29.1267 26.967 28.7062 27.3734C28.3072 27.7588 28.4073 27.9642 28.9376 28.1237C29.2564 28.2194 29.7961 28.193 29.8115 28.5165C29.8236 28.7848 29.3223 28.9224 28.9997 29.038C28.476 29.2263 28.366 29.4864 28.5886 29.9655C29.4735 31.8692 30.3221 33.785 31.695 35.4716C31.8247 35.6312 31.9264 35.8083 32 36C31.2481 35.5707 30.9112 34.8657 30.5166 34.2168C29.695 32.8664 28.9827 31.4686 28.3435 30.0396C28.1017 29.499 28.1028 29.1507 28.7469 28.897C28.9404 28.8209 29.2954 28.797 29.241 28.5374C29.1976 28.3306 28.8739 28.312 28.6529 28.2437C27.8373 27.992 27.828 27.9725 28.3913 27.4051C28.8519 26.9411 29.1762 26.3674 29.7571 26C29.8082 26.0361 29.8599 26.0717 29.9121 26.1078Z" fill="#363940"/>
<path d="M42 29.9298C41.9925 29.9323 41.9832 29.9347 41.9763 29.9362C41.3994 30.1064 40.9818 29.9147 40.6111 29.6138V29.6123C40.5433 29.5566 40.4761 29.4984 40.4101 29.4362C40.3273 29.2548 40.245 29.0723 40.1622 28.8908H40.1639C40.1489 28.8424 40.1338 28.793 40.1187 28.745L40.117 28.7436C40.084 28.6345 40.0492 28.5269 40.0151 28.4178C40.0104 28.4202 40.0046 28.4217 40 28.4241C40.0017 28.4192 40.0058 28.4129 40.0122 28.4075V28.406C40.0197 28.1673 40.2479 28.1169 40.446 28.0303C40.8306 27.863 40.9626 27.6473 40.5526 27.391C40.446 27.324 40.3226 27.2883 40.4217 27.164C40.5479 27.0065 40.7518 26.9943 40.9551 27.0016C41.1352 27.008 41.2493 27.1043 41.1972 27.2462C40.9626 27.888 41.265 28.3625 41.7544 28.837C42.0527 29.1266 41.9728 29.5541 42 29.9298Z" fill="#9E6463"/>
<path d="M26 26.4226C24.3673 26.6111 22.7358 26.7996 21 27C21.2222 26.5848 21.7234 26.3236 22.0107 26C22.0458 26.0418 22.0881 26.0717 22.1385 26.0933C22.2997 26.1634 22.5289 26.1451 22.7282 26.1608C23.6908 26.2393 24.6528 26.3152 25.6154 26.3918C25.7432 26.4017 25.8722 26.4127 26 26.4226Z" fill="#BFAA30"/>
<path d="M35.8751 28.0908C35.4338 28.2505 35.1191 28.3644 34.8072 28.4774C34.8511 28.682 35.0276 28.7409 35.1542 28.7988C36.2944 29.3199 36.0746 29.3696 35.6887 30.2057C34.7952 32.1434 33.9142 34.0943 32.4632 35.7807C32.3695 35.8898 32.33 36.0626 32 35.9769C32.5997 35.3098 33.1018 34.6241 33.547 33.9048C34.3791 32.5598 34.9695 31.1217 35.6498 29.7182C35.8257 29.3559 35.4974 29.277 35.2573 29.1017C34.9591 28.884 34.2815 28.8285 34.3928 28.493C34.515 28.1244 35.1454 28.0747 35.6081 28.0007C35.6465 27.9948 35.6925 28.0279 35.8751 28.0908Z" fill="#36383F"/>
<path d="M40.0971 25.202C40.0928 25.252 40.072 25.3025 40.0443 25.3549C40.04 25.3233 40.0357 25.2912 40.0331 25.2605C40.0219 25.1822 40.0139 25.1038 40.0027 25.0269V25.0255C40.0027 25.017 40.0011 25.0085 40 25L40.0123 25.0109C40.0805 25.0698 40.1024 25.1345 40.0971 25.202Z" fill="#7A7C81"/>
<path d="M39.7419 26.6282C39.7376 26.6329 39.7349 26.6381 39.7323 26.6428C39.7184 26.6367 39.7061 26.6305 39.6923 26.6258V26.6244C39.72 26.5327 39.7461 26.4392 39.7723 26.3476C39.7749 26.3377 39.7776 26.3268 39.7808 26.3169C39.7877 26.3254 39.7931 26.3339 39.7973 26.3424C39.8667 26.4534 39.8 26.5403 39.7419 26.6282Z" fill="#7A7C81"/>
<path d="M32.3712 36.2213C32.7042 36.2879 33.0068 36.4777 33.0057 36.8866C33.0046 37.2425 32.3797 37.6953 31.9288 37.6674C31.5456 37.6438 31.2826 37.4356 31.2575 37.0962C31.2239 36.6387 31.7618 36.202 32.3712 36.2213Z" fill="#303239"/>
<path d="M39.8043 26.6759C39.7851 26.667 39.7653 26.6581 39.7461 26.6492C39.7419 26.6467 39.7365 26.6452 39.7323 26.6442C39.7184 26.6378 39.7061 26.6313 39.6923 26.6264V26.6249C39.7104 26.6234 39.728 26.6234 39.7419 26.6288C39.7472 26.6303 39.7531 26.6313 39.7573 26.6338C39.7765 26.6427 39.792 26.6566 39.8043 26.6759Z" fill="#FBFBFB"/>
<path d="M40.3323 28.1566C40.3283 28.159 40.3233 28.1605 40.3193 28.1629C40.3208 28.1581 40.3243 28.1518 40.3298 28.1465C40.3308 28.1503 40.3308 28.1528 40.3323 28.1566Z" fill="#FBFBFB"/>
<path d="M21.6914 55.3014C21.4764 55.0601 21.5452 54.8335 21.5447 54.6296C21.5383 53.0616 21.5233 51.4932 21.5521 49.9257C21.5607 49.4574 21.4294 49.2879 20.8648 49.2988C19.139 49.3309 17.4121 49.3125 15.6858 49.3082C15.4494 49.3077 15.1959 49.3597 14.9419 49.2171C15.4574 49.0136 27.8939 48.9909 28.5621 49.1916C28.3187 49.3691 28.0626 49.3073 27.8331 49.3077C26.0374 49.3134 24.2417 49.3233 22.4465 49.3025C21.9662 49.2969 21.8104 49.4267 21.8168 49.8563C21.8414 51.4446 21.8286 53.0333 21.8238 54.6215C21.8227 54.8279 21.8819 55.0516 21.6914 55.3014Z" fill="#9F6B38"/>
<path d="M37.5897 14.6272C37.7221 14.2807 37.8539 13.9346 37.9857 13.5885C38.0695 13.8421 38.1693 13.6948 38.3037 13.614C38.7867 13.3251 39.0685 13.4393 39.0994 13.9625C39.1448 14.7325 38.863 15.4412 38.474 16.1158C38.3672 16.3014 38.1794 16.4421 37.911 16.3821C37.6378 16.3212 37.5796 16.1234 37.5796 15.9071C37.5801 15.4803 37.5865 15.054 37.5897 14.6272Z" fill="#9E6463"/>
<path d="M24.9914 14.9012C24.9562 14.6 24.8745 14.2964 24.8953 13.9981C24.9353 13.4339 25.1862 13.3295 25.7123 13.6449C25.881 13.7459 25.9359 13.7285 25.9936 13.5807C26.1435 13.9494 26.2332 14.3394 26.4856 14.6713C26.239 15.0075 26.5277 15.3332 26.5123 15.6675C26.4824 16.3143 26.2177 16.4838 25.5309 16.26C25.2721 15.8318 25.5693 15.2303 24.9914 14.9012Z" fill="#9E6463"/>
<path d="M31.093 14.7803C31.1784 14.6655 31.2632 14.5513 31.3481 14.437C31.7221 14.42 31.5402 14.0197 31.8609 13.9092C31.9633 14.3879 31.8705 14.8492 31.8075 15.3166C31.7616 15.657 31.8145 16.0078 31.776 16.3496C31.7435 16.6352 31.9703 17.088 31.6282 17.1697C31.2691 17.2552 30.8881 16.9176 30.5321 16.7405C30.3133 16.6319 30.4158 16.4676 30.4964 16.3161C30.6901 15.9492 30.8843 15.5824 31.0636 15.2099C31.1271 15.0758 31.3123 14.9346 31.093 14.7803Z" fill="#9E6463"/>
<path d="M26.7833 17.8226C26.6366 18.501 26.5704 19.1927 26.3308 19.8537C26.3046 19.9297 26.2742 20.0043 26.2422 20.0789C25.9711 19.2159 25.8686 18.3268 25.7331 17.4416C25.7288 17.4147 25.7246 17.3864 25.7208 17.3594C25.9476 17.3557 26.1734 17.3519 26.4002 17.3472C26.4418 17.3519 26.4802 17.3594 26.5149 17.3694C26.7492 17.4322 26.8335 17.5983 26.7833 17.8226Z" fill="#9E6463"/>
<path d="M32.3178 21.833C32.3301 22.8297 30.3631 22.148 30.2606 21.7344C31.2884 21.8066 31.0995 22.2509 32.3178 21.833Z" fill="#9E6463"/>
<path d="M27.2189 11.2729C26.958 11.2464 26.8336 11.1029 26.9644 10.9079C27.403 10.2526 27.077 9.58266 27.0529 8.91838C26.7968 8.17242 26.8283 8.10821 27.6165 8.03644C30.7089 7.75364 33.8009 7.78291 36.8912 8.07469C36.8837 8.603 36.9109 9.13461 36.8565 9.65915C36.8138 10.0699 36.7423 10.4566 37.0059 10.839C37.1521 11.0515 37.1431 11.2682 36.753 11.2729C35.6985 11.2025 34.644 11.2176 33.5879 11.2634C32.8835 11.2941 32.47 11.5444 32.47 12.2148C32.47 12.3328 32.5441 12.6307 32.2544 12.5127C32.0067 12.4117 31.5041 12.6959 31.5115 12.2016C31.5243 11.4098 30.9464 11.2847 30.2463 11.2559C29.2366 11.2143 28.228 11.204 27.2189 11.2729Z" fill="#E8938C"/>
<path d="M13.3126 39.0501C12.3579 38.84 12.0543 38.4812 12.0601 37.6738C12.3542 38.1568 12.7427 38.5732 13.3126 39.0501Z" fill="#9E6463"/>
<path d="M39.1388 22.373C38.7492 22.9443 38.7764 23.4915 39.3165 23.9688C39.8207 24.4145 40.1495 23.8692 40.4665 23.7044C40.801 23.5307 40.3539 23.3753 40.2327 23.2243C40.1703 23.1464 40.0459 23.1091 39.96 23.0425C39.8757 22.9773 39.7722 22.8909 39.896 22.7979C39.9456 22.7606 40.0753 22.7663 40.1447 22.7965C40.5364 22.9665 40.7045 23.415 41.1661 23.4825C41.5583 23.5396 41.9735 23.4145 42.354 23.5269C42.3785 23.6775 42.3049 23.7233 42.2072 23.7223C41.3246 23.7148 40.5534 24.0103 39.8298 24.4192C39.6809 24.5032 39.5502 24.5391 39.3864 24.5047C38.7369 24.8569 38.7577 24.279 38.5832 24.0288C38.1899 23.4641 38.3922 22.5312 38.9525 22.1577C39.0945 22.1757 39.1553 22.2484 39.1388 22.373Z" fill="#9E6463"/>
<path d="M35.2725 24.245C35.4839 24.0608 35.6973 23.8786 35.9054 23.6921C35.9983 23.609 36.1077 23.5986 36.2208 23.6303C36.3638 23.6704 36.3446 23.7879 36.3409 23.8838C36.3249 24.287 36.0821 24.5783 35.7037 24.7681C35.3787 24.931 35.0265 25.0575 34.7058 24.7402C34.7704 24.4636 34.9545 24.2941 35.2725 24.245Z" fill="#6A3F1F"/>
<path d="M34.4092 24.462C34.4071 23.4597 35.0896 22.9479 35.9898 23.293C35.7609 23.624 35.2897 23.7415 35.0949 24.0947C34.9519 24.3421 34.835 24.6282 34.4092 24.462Z" fill="#693E1E"/>
<path d="M34.4092 24.462C34.7512 24.5055 34.842 24.1816 35.0949 24.0947C35.1541 24.1448 35.2134 24.1943 35.2726 24.2444C35.0837 24.4096 34.8948 24.5744 34.7059 24.7397C34.6072 24.6471 34.5079 24.5546 34.4092 24.462Z" fill="#BCB5B0"/>
<path d="M39.1388 22.3726C39.0769 22.3009 39.015 22.2292 38.9525 22.1575C39.1372 21.9688 39.3303 21.9632 39.531 22.1377C39.4531 22.2844 39.3357 22.3806 39.1388 22.3726Z" fill="#F8F1EC"/>
<path d="M8.67091 10.7708C8.67518 9.04468 8.69599 7.31858 8.67304 5.59248C8.66717 5.15671 8.7627 4.96644 9.30754 5.0061C9.92337 5.05095 10.5461 5.01601 11.1662 5.01554C11.1539 5.47114 11.3701 5.65622 11.9171 5.6378C12.9721 5.60145 14.0308 5.609 15.0869 5.6345C15.6083 5.64677 15.811 5.47256 15.7342 5.02593C16.3783 5.02262 17.0251 5.05048 17.666 5.00657C18.1948 4.97069 18.3234 5.13688 18.3202 5.58729C18.2994 8.53903 18.3096 11.4908 18.3096 14.4425C18.3096 14.8495 18.2813 15.2588 18.3176 15.6634C18.3539 16.0723 18.1794 16.1757 17.7316 16.1729C14.9012 16.1559 12.0707 16.1639 9.24031 16.1634C9.09355 16.0662 9.10369 15.9236 9.09889 15.7848L9.09942 15.7843C9.41161 15.5742 10.061 15.6611 9.92337 15.0539C10.2233 14.7862 10.608 14.8906 10.9592 14.8811C11.7863 14.8589 11.7868 14.8679 11.8098 14.1413C11.813 14.0407 11.8141 13.9402 11.8285 13.8406C11.797 13.6578 12.2746 13.3982 11.7201 13.2948C11.4587 13.0672 11.1251 13.1522 10.8162 13.1309C10.4165 13.104 9.99541 13.2117 9.62666 12.986C9.39666 13.2041 9.61652 13.4964 9.44949 13.7589C9.15866 13.6149 8.85715 13.4902 8.67198 13.2221C8.46706 12.9723 8.45265 12.7249 8.68318 12.4808C9.5162 12.1074 9.60745 11.741 9.01831 11.139C8.89931 11.0182 8.78618 10.8935 8.67091 10.7708Z" fill="#FEFEFE"/>
<path d="M9.79752 14.8077C9.78791 14.6415 9.77777 14.4757 9.76817 14.3096C9.59206 13.0254 9.5926 13.0159 10.9854 13.0353C11.249 13.0391 11.5943 12.8696 11.7752 13.2076C11.9129 13.6358 11.5826 13.827 11.2485 14.0178C10.9166 14.2076 10.6439 14.1297 10.4752 13.9413C10.8088 14.2515 10.8114 14.2562 11.415 13.988C11.6535 13.8818 11.8051 13.8955 11.8488 14.1575C11.836 14.9011 11.8222 14.9266 11.0062 14.9153C10.6028 14.9101 10.1796 15.0168 9.79752 14.8077Z" fill="#FBFCFB"/>
<path d="M7.90199 12.4134C7.89506 12.5408 7.86037 12.6593 7.80914 12.7722C7.74137 12.9181 7.64584 13.0536 7.53645 13.1862C7.49642 13.2353 7.4548 13.283 7.41211 13.3307C7.42759 13.2892 7.44413 13.2476 7.45907 13.2061C7.58768 12.8671 7.71629 12.5276 7.84543 12.19C7.85397 12.1669 7.86357 12.1447 7.87158 12.1216C7.88011 12.1546 7.88705 12.1877 7.89079 12.2207C7.90199 12.2873 7.9052 12.351 7.90199 12.4134Z" fill="#FDFAF8"/>
<path d="M9.09789 15.7849C8.49274 15.842 7.88705 15.8986 7.17571 15.9657C7.58127 15.715 7.98257 15.766 8.32144 15.6498C8.51355 15.5842 8.98262 15.8571 8.85721 15.3675C8.76222 14.9959 8.66403 14.562 8.03327 14.6966C7.59942 14.7891 7.22213 15.0649 6.54761 15.0323C7.28564 14.6546 7.90946 14.2613 8.56051 14.4931C9.08508 14.6796 9.08615 15.2929 9.09895 15.7844C9.09789 15.7844 9.09789 15.7849 9.09789 15.7849Z" fill="#9E6463"/>
<path d="M9.79763 14.8075C10.1189 14.8047 10.4396 14.8066 10.7603 14.7986C11.7646 14.775 11.7209 14.9983 11.6963 13.9638C11.7075 13.8189 11.7614 13.7051 11.9519 13.6919C12.0395 15.0427 12.0395 15.0422 10.5405 15.045C10.3345 15.0455 10.1285 15.0502 9.9225 15.0535C9.81897 14.9964 9.79176 14.9086 9.79763 14.8075Z" fill="#9EA0A3"/>
<path d="M9.2585 17.3536C9.25424 17.6241 9.16618 17.83 8.80864 17.8644C8.45644 17.8984 8.17734 17.8238 7.99751 17.5307C7.86516 17.3149 7.89718 17 7.39929 16.9537C7.88064 16.7993 8.22377 16.686 8.64161 16.8267C8.54662 17.0453 7.8769 17.0354 8.30062 17.448C8.68591 17.8229 8.94739 17.491 9.24516 17.3418C9.24516 17.3423 9.2585 17.3536 9.2585 17.3536Z" fill="#9E6463"/>
<path d="M8.6827 12.4809C8.67896 12.7279 8.67523 12.9748 8.67149 13.2222C8.44683 13.2118 8.2227 13.2014 7.99857 13.1905C7.73922 12.8374 7.70827 12.5041 8.1085 12.209C8.29954 12.2996 8.49112 12.3903 8.6827 12.4809Z" fill="#5C5E63"/>
<path d="M11.7485 13.4549C11.7165 13.2854 11.7517 13.0711 11.4337 13.0966C11.3664 13.1018 11.2976 13.0975 11.2298 13.0961C9.80445 13.0579 9.80445 13.0579 9.76763 14.3095C9.48427 13.8879 9.72387 13.4228 9.62622 12.9856C10.2591 12.9729 10.8926 12.9672 11.5249 12.9441C11.8291 12.9332 11.9401 13.0432 11.8851 13.3005C11.9348 13.4181 11.8627 13.4512 11.7485 13.4549Z" fill="#73767B"/>
<path d="M8.03487 12.3182C7.90733 12.5632 7.98898 12.8262 7.99752 13.0835C8.00018 13.1189 8.00018 13.1543 7.99752 13.1902C7.81768 13.2846 7.6293 13.354 7.41211 13.3309C7.42759 13.2894 7.44413 13.2478 7.45907 13.2063C7.58768 12.8673 7.71629 12.5278 7.84543 12.1902C7.85397 12.1671 7.86357 12.1449 7.87158 12.1218C7.9655 12.1194 8.05835 12.118 8.10798 12.2087C8.0781 12.2445 8.05462 12.2814 8.03487 12.3182Z" fill="#9E6463"/>
<path d="M43.8551 37.5386C44.3172 37.734 44.3642 38.1051 44.4106 38.4781C44.0627 38.2397 43.9912 37.8757 43.8551 37.5386Z" fill="#9E6463"/>
<path d="M42.0835 24.5497C41.2142 24.8962 40.2654 25.0969 39.5647 25.7116C39.5604 25.6799 39.5561 25.6478 39.5535 25.6171C39.5423 25.5388 39.5343 25.4604 39.5231 25.3834V25.382C39.5231 25.3735 39.5215 25.365 39.5204 25.3565C39.5289 25.349 39.5369 25.3428 39.5455 25.3358C39.5481 25.3334 39.5524 25.331 39.5551 25.3296L39.5567 25.3273C40.2654 24.7517 41.1064 24.502 42.0835 24.5497Z" fill="#9E6463"/>
<path d="M41.9522 25.6164C41.2297 25.963 40.4121 26.1589 39.8043 26.6731C39.7851 26.6646 39.7654 26.6561 39.7462 26.6476C39.7419 26.6452 39.7366 26.6438 39.7323 26.6428C39.7184 26.6367 39.7061 26.6306 39.6923 26.6258V26.6244C39.72 26.5328 39.7462 26.4394 39.7723 26.3478C39.775 26.3379 39.7776 26.327 39.7808 26.3171C40.4009 25.8539 41.0883 25.5503 41.9522 25.6164Z" fill="#9E6463"/>
<path d="M13.9296 31.0603C13.9466 34.2326 11.1247 36.7858 7.58295 36.8028C3.91202 36.8203 0.952972 34.2378 0.951905 31.0145C0.950304 27.8716 3.80316 25.3457 7.3727 25.3287C11.0735 25.3112 13.912 27.7923 13.9296 31.0603Z" fill="#FEFEFE"/>
<path d="M43.5371 44.1713C44.3306 43.9088 45.1492 44.0986 45.9561 44.0712C46.1797 44.0636 46.1722 44.2539 46.16 44.3913C46.1274 44.7463 46.153 45.116 45.8777 45.4196C45.0975 45.0036 44.3173 44.5872 43.5371 44.1713Z" fill="#343434"/>
<path d="M29.0567 14.7841C28.9142 14.7841 28.8224 14.786 28.7306 14.7836C26.9301 14.7449 26.238 13.8644 26.7668 12.3134C26.8677 12.0169 27.0454 11.8781 27.3859 11.8371C28.395 11.7148 29.3998 11.7138 30.4105 11.8304C30.8038 11.8758 30.9719 12.0542 31.0253 12.3734C31.1283 12.9848 31.0936 13.5901 30.9324 14.1906C30.8545 14.481 30.6453 14.6368 30.3091 14.6797C29.8764 14.734 29.4473 14.8133 29.0567 14.7841Z" fill="#E8938C"/>
<path d="M34.9022 14.8092C33.1636 14.7785 32.885 14.5249 32.9069 12.9716C32.9208 11.957 33.0537 11.8206 34.2021 11.7663C35.0047 11.7285 35.8078 11.7219 36.6088 11.8371C36.9535 11.8867 37.1296 12.0293 37.2171 12.3244C37.3127 12.6454 37.3233 12.9674 37.3132 13.2917C37.2833 14.2591 36.9951 14.558 35.9273 14.7147C35.589 14.7638 35.2443 14.7785 34.9022 14.8092Z" fill="#E8938C"/>
<path d="M21.5003 23.1096C21.4971 23.0897 21.5008 23.0657 21.4901 23.0501C21.3727 22.8806 21.2804 22.1795 21.3519 21.9552C21.4501 21.6479 21.4005 21.3854 21.0419 21.2442C20.7911 21.1455 20.7511 21.035 20.9138 20.8353C21.2303 20.4458 21.0894 20.12 20.6998 19.8434C20.4912 19.5677 20.3674 19.2816 20.5584 18.9558C21.0568 18.3963 20.7089 18.0115 20.2163 17.6574C20.3487 17.4421 20.2553 17.2325 20.1961 17.021C20.1171 16.7387 20.2313 16.5999 20.5717 16.6367C22.487 18.3694 24.414 20.0927 26.0939 22.0147C26.1424 22.2281 26.3719 22.476 25.8772 22.5416C24.4188 22.7342 22.9763 23.0232 21.5003 23.1096Z" fill="#346698"/>
<path d="M21.5424 16.5138C22.5622 16.2636 23.6204 16.2041 24.6552 16.0285C24.9401 15.9798 25.0794 16.0804 25.1216 16.3358C25.3521 17.7418 25.5917 19.1464 25.8281 20.5519C25.311 20.5566 25.0928 20.1733 24.8201 19.8999C23.875 18.9538 22.8925 18.0388 21.9234 17.1129C21.7468 16.9439 21.4581 16.8174 21.5424 16.5138Z" fill="#5A84AB"/>
<path d="M26.0939 22.0147C24.7646 20.7579 23.4353 19.5016 22.106 18.2448C21.7303 17.8893 21.353 17.5357 20.9811 17.1773C20.8141 17.0163 20.5766 16.895 20.5718 16.6367C20.6091 16.6169 20.6486 16.6108 20.6913 16.6188C21.0857 16.4899 21.3568 16.6721 21.5894 16.9139C22.8857 18.2576 24.303 19.504 25.6216 20.8297C25.7615 20.9699 25.8506 21.1323 25.96 21.2863C26.0043 21.5289 26.0491 21.7716 26.0939 22.0147Z" fill="#5883AA"/>
<path d="M25.9599 21.2866C24.9476 20.5232 24.1274 19.5954 23.233 18.7343C22.5852 18.1106 21.8434 17.5591 21.2975 16.8528C21.1545 16.6678 20.9256 16.6324 20.6913 16.6196C20.957 16.4695 21.2543 16.5205 21.5424 16.5143C22.9801 17.8528 24.3062 19.2843 25.8281 20.5524C25.9679 20.7833 25.9738 21.0335 25.9599 21.2866Z" fill="#346698"/>
<path d="M23.8824 22.9963C24.2501 22.9779 24.51 23.0208 24.4572 23.3348C24.3857 23.7602 23.9342 23.645 23.638 23.7073C23.3803 23.7616 23.178 23.595 23.2202 23.3542C23.2853 22.9769 23.662 23.0199 23.8824 22.9963Z" fill="#50535A"/>
<path d="M21.5825 15.9643C22.1002 15.5554 22.6071 15.7002 23.0266 15.5554C23.1274 15.5204 23.2758 15.5539 23.2726 15.6879C23.271 15.7464 23.1754 15.8492 23.1162 15.8525C22.6583 15.8785 22.2106 16.0752 21.5825 15.9643Z" fill="#474A50"/>
<path d="M20.5578 18.9556C20.5888 19.2535 20.7638 19.5335 20.6993 19.8432C19.8865 19.4442 19.8785 19.3946 20.5578 18.9556Z" fill="#222122"/>
<path d="M52.1176 2.05961C53.3439 2.06717 54.2164 2.86365 54.2052 3.96418C54.1945 4.9802 53.2468 5.83758 52.1224 5.84891C50.9473 5.86025 49.9136 4.94904 49.9222 3.90988C49.9302 2.89339 50.9286 2.05253 52.1176 2.05961Z" fill="#F9F29B"/>
<path d="M11.8376 4.77441C11.9913 4.79564 12.0932 4.87442 12.0799 5.01263C12.0671 5.14848 11.955 5.22962 11.7997 5.20556C11.6866 5.18811 11.5985 5.11405 11.5927 4.99801C11.5857 4.85178 11.6706 4.77772 11.8376 4.77441Z" fill="#EAEAEB"/>
<path d="M15.1314 5.2141C14.9787 5.17258 14.8896 5.08815 14.9088 4.94946C14.9238 4.84003 15.0044 4.7688 15.1388 4.77587C15.2968 4.78436 15.395 4.86927 15.395 5.00324C15.3955 5.14617 15.2803 5.20843 15.1314 5.2141Z" fill="#E9E9EA"/>
<path d="M64.9768 25.9323C65.4763 26.029 65.1433 26.2033 65.0062 26.3161C64.4325 26.7873 63.7687 26.7844 63.0787 26.5621C62.482 26.3699 62.235 25.9563 62.2259 25.4252C62.2152 24.8024 62.6768 24.2208 63.3215 24.0012C64.0163 23.7642 64.8658 23.8558 65.1753 24.2557C65.6327 24.8473 65.4117 25.4106 64.9854 25.9408C64.4229 26.3576 63.7857 26.122 63.2254 26.0087C62.736 25.9101 62.8129 24.9913 63.3065 24.6509C63.6507 24.4139 64.0445 24.4535 64.4288 24.5277C64.6657 24.5735 64.6508 24.7533 64.6129 24.9233C64.5755 25.0923 64.4517 25.2609 64.5851 25.446C65.098 25.0583 65.0259 24.5107 64.4544 24.3195C63.6075 24.0362 62.5893 24.7264 62.6923 25.5215C62.7462 25.9346 63.021 26.1919 63.4874 26.2453C64.0221 26.3071 64.5456 26.2797 64.9768 25.9323Z" fill="#EEEEEF"/>
<path d="M29.0269 9.86424C29.8711 9.8836 30.3423 10.2098 30.7036 10.6914C30.766 10.775 30.8279 10.8751 30.7201 10.9643C30.6006 11.0634 30.4741 11.0498 30.3567 10.9506C30.1753 10.7967 30.012 10.6192 29.8076 10.495C29.3337 10.2065 28.87 10.1782 28.4724 10.6211C28.3662 10.7396 28.2824 10.9596 28.0567 10.8113C27.8171 10.6536 27.9985 10.4808 28.1207 10.3411C28.3876 10.0351 28.7291 9.84819 29.0269 9.86424Z" fill="#38373D"/>
<path d="M35.4908 10.5573C35.5009 10.7046 35.4641 10.7981 35.3419 10.8415C35.2048 10.8897 35.1466 10.7905 35.0628 10.7216C34.3509 10.1366 33.9993 10.1494 33.2778 10.7731C33.1406 10.8916 33.0184 11.1527 32.7964 10.9827C32.5552 10.7976 32.8146 10.6121 32.9464 10.4648C33.5777 9.75988 34.6167 9.65978 35.2325 10.24C35.3403 10.3425 35.4193 10.4685 35.4908 10.5573Z" fill="#38373C"/>
<path d="M11.9412 10.4C11.9759 11.7418 11.9748 11.7144 10.4433 11.7532C9.80931 11.7692 9.56543 11.6606 9.59105 11.0379C9.64868 9.64463 9.60706 9.64132 11.2411 9.65029C11.5634 9.65218 11.9695 9.5417 11.9946 10.0228C12.0149 10.2296 11.9183 10.3198 11.6808 10.2711C11.3072 9.83537 10.7832 9.94207 10.2837 9.97701C10.0633 9.99259 9.9726 10.1238 9.97313 10.3146C9.97313 10.4369 9.971 10.5591 9.971 10.6814C9.9726 11.3816 10.5703 11.713 11.279 11.4076C11.6312 11.256 11.4812 10.9406 11.5703 10.7027C11.6296 10.5398 11.7107 10.3977 11.9412 10.4Z" fill="#7F8387"/>
<path d="M13.3708 6.88184C14.6383 6.88184 15.9057 6.88184 17.1736 6.88184C17.1741 6.91786 17.1741 6.95388 17.1747 6.9899C15.911 6.9899 14.6473 6.9899 13.3837 6.9899C13.3794 6.95388 13.3751 6.91786 13.3708 6.88184Z" fill="#888A8F"/>
<path d="M17.188 14.5063C15.9328 14.5063 14.6777 14.5063 13.4226 14.5063C13.421 14.4712 13.4194 14.436 13.4172 14.4009C14.6718 14.4009 15.9264 14.4009 17.1816 14.4009C17.1837 14.436 17.1858 14.4712 17.188 14.5063Z" fill="#9B9CA1"/>
<path d="M11.7485 13.4552C11.7938 13.4037 11.8397 13.3523 11.8856 13.3008C12.0425 13.2512 12.1994 13.2012 12.3798 13.144C12.3558 13.4268 12.0596 13.501 11.9518 13.6922C11.8664 13.7828 11.7816 13.8735 11.6962 13.9641C10.845 14.584 10.8445 14.5845 10.1177 13.8159C10.0488 13.7432 9.94104 13.6856 9.99493 13.4523C10.6038 14.0468 11.2138 14.2172 11.7485 13.4552Z" fill="#4BA35A"/>
<path d="M11.995 6.73343C12.1087 6.69094 12.2224 6.64845 12.336 6.60596C12.3595 6.62579 12.383 6.64562 12.4065 6.66592C12.2587 6.81275 12.1108 6.95911 11.963 7.10594C11.9246 7.30282 11.8029 7.4539 11.6306 7.57712C11.384 7.76267 11.2762 8.19703 10.8504 8.06294C10.4357 7.93216 10.155 7.60687 9.94479 7.25844C9.89036 7.16826 9.85834 7.05401 9.94959 6.97422C10.0681 6.87129 10.2292 6.90481 10.3258 6.98885C10.781 7.38308 11.1866 7.24616 11.5841 6.91992C11.7133 6.84391 11.8296 6.74571 11.995 6.73343Z" fill="#48A157"/>
<path d="M11.5912 7.43084C11.7155 7.32225 11.8393 7.21366 11.9631 7.10554C11.9162 8.46102 11.9156 8.43316 10.3462 8.47046C9.73624 8.4851 9.53079 8.33685 9.60016 7.80146C9.65673 7.36238 9.62685 6.9148 9.63538 6.471C9.77146 6.44031 9.83764 6.51302 9.89047 6.60556C9.96411 6.85909 9.91341 7.12065 9.92782 7.37701C9.95771 7.90013 10.1173 8.16783 10.7934 8.17633C11.4508 8.18435 11.54 7.85717 11.5912 7.43084Z" fill="#7F8387"/>
<path d="M11.9411 10.3998C11.8632 10.4891 11.7858 10.5788 11.7079 10.668C11.622 10.7624 11.5777 10.8805 11.4897 10.9735C11.058 11.4262 10.7581 11.431 10.3258 10.9862C10.1924 10.8488 10.0675 10.7039 9.9752 10.5415C9.92663 10.4565 9.86046 10.3578 9.96186 10.2667C10.0344 10.2015 10.1566 10.1963 10.2153 10.2426C10.7159 10.6387 11.2148 10.4093 11.7159 10.2544C11.8477 10.2133 11.9438 10.1387 11.9961 10.0226C12.1087 9.96688 12.2213 9.91117 12.3921 9.82666C12.3483 10.1288 12.0783 10.2251 11.9411 10.3998Z" fill="#47A156"/>
<path d="M9.79387 6.61521C9.74104 6.56705 9.68821 6.5189 9.63538 6.47074C10.3136 6.20635 11.0228 6.39709 11.7166 6.37018C11.9514 6.36073 11.961 6.57555 11.9951 6.73371C11.9012 6.80878 11.8078 6.88385 11.7139 6.95892C11.3596 6.78518 10.9743 6.76487 10.5799 6.76912C10.3078 6.77243 10.0249 6.79037 9.79387 6.61521Z" fill="#9DA0A3"/>
<path d="M17.172 10.2493C15.9259 10.2493 14.6804 10.2493 13.4343 10.2493C13.4343 10.2266 13.4343 10.2034 13.4343 10.1807C14.6804 10.1807 15.9259 10.1807 17.172 10.1807C17.172 10.2034 17.172 10.2261 17.172 10.2493Z" fill="#6D7177"/>
<path d="M17.1341 11.2194C15.9035 11.2194 14.6735 11.2194 13.4429 11.2194C13.4429 11.194 13.4429 11.169 13.4424 11.1436C14.6804 11.1436 15.9185 11.1436 17.1565 11.1436C17.1491 11.169 17.1416 11.1944 17.1341 11.2194Z" fill="#707379"/>
<path d="M13.4413 7.85352C14.682 7.85352 15.9233 7.85352 17.164 7.85352C17.164 7.8747 17.1645 7.89542 17.1645 7.91661C15.9238 7.91661 14.6825 7.91661 13.4418 7.91661C13.4418 7.89589 13.4418 7.8747 13.4413 7.85352Z" fill="#65686E"/>
<path d="M13.4583 13.4604C14.6883 13.4604 15.9184 13.4604 17.1479 13.4604C17.1484 13.4859 17.1484 13.5113 17.149 13.5368C15.9178 13.5368 14.6862 13.5368 13.4551 13.5368C13.4561 13.5109 13.4572 13.4859 13.4583 13.4604Z" fill="#71747A"/>
<path d="M7.82792 30.6237C8.5857 29.9192 9.3392 29.2111 10.1055 28.5132C10.2496 28.382 10.415 28.1006 10.6546 28.3055C10.9038 28.5189 10.5676 28.6544 10.4289 28.7814C9.48649 29.6454 8.53127 30.4981 7.58565 31.3592C7.44904 31.4839 7.31403 31.5939 7.11071 31.5254C6.9282 31.4641 6.9298 31.3087 6.9298 31.1633C6.93034 30.2672 6.9266 29.3711 6.93301 28.475C6.93461 28.2186 7.00612 27.9325 7.35245 27.9458C7.71159 27.9594 7.62087 28.272 7.62407 28.4802C7.63421 29.1492 7.62781 29.8182 7.62781 30.4872C7.69451 30.533 7.76122 30.5783 7.82792 30.6237Z" fill="#5D6067"/>
<path d="M2.2683 31.1187C2.21814 31.3142 2.10821 31.4572 1.8558 31.4374C1.64661 31.4209 1.518 31.2944 1.52067 31.1187C1.52387 30.9072 1.68023 30.7944 1.9241 30.8071C2.13916 30.818 2.23735 30.9422 2.2683 31.1187Z" fill="#6E7177"/>
<path d="M12.4102 33.5347C12.4044 33.7033 12.3046 33.8416 12.0922 33.8558C11.8398 33.8723 11.7117 33.7307 11.7128 33.5144C11.7138 33.3251 11.8339 33.1906 12.0511 33.2052C12.2411 33.2175 12.4001 33.3133 12.4102 33.5347Z" fill="#A7A9AC"/>
<path d="M10.1182 35.6097C9.82846 35.5993 9.71586 35.4657 9.71693 35.2938C9.71746 35.1206 9.83379 34.9832 10.0611 34.9879C10.3034 34.9931 10.4566 35.1083 10.4373 35.3278C10.4208 35.5167 10.2564 35.5918 10.1182 35.6097Z" fill="#A8A9AD"/>
<path d="M10.0195 26.6523C10.2607 26.6575 10.4102 26.7387 10.4374 26.9276C10.4651 27.1207 10.3328 27.2434 10.1316 27.2628C9.892 27.2859 9.73031 27.1504 9.70523 26.9512C9.68068 26.7567 9.85305 26.6783 10.0195 26.6523Z" fill="#A6A8AB"/>
<path d="M7.34921 25.9668C7.568 26.0145 7.7281 26.115 7.70568 26.336C7.68701 26.5239 7.53118 26.6316 7.3396 26.6282C7.10427 26.6245 6.97139 26.4838 6.9906 26.268C7.00715 26.0811 7.14909 25.9932 7.34921 25.9668Z" fill="#6E7177"/>
<path d="M4.59768 35.5981C4.38849 35.5726 4.26042 35.4711 4.26789 35.2803C4.27589 35.0853 4.42425 34.9971 4.6297 34.9928C4.85756 34.9881 4.95896 35.1071 4.94561 35.2997C4.93334 35.4881 4.81647 35.5919 4.59768 35.5981Z" fill="#A0A2A6"/>
<path d="M7.70248 35.9477C7.6822 36.1394 7.55466 36.2385 7.34601 36.2409C7.13682 36.2432 6.99487 36.1521 6.99647 35.9534C6.99861 35.7395 7.12348 35.6082 7.37536 35.6238C7.58828 35.637 7.68807 35.764 7.70248 35.9477Z" fill="#63666D"/>
<path d="M2.98617 28.7064C2.96375 28.8981 2.83942 28.9987 2.62863 29.0043C2.40503 29.0109 2.28816 28.9019 2.2967 28.7069C2.30524 28.5227 2.4173 28.3943 2.63503 28.3991C2.84369 28.4042 2.96055 28.5232 2.98617 28.7064Z" fill="#A0A2A6"/>
<path d="M12.0085 29.0055C11.7892 28.9842 11.6926 28.8685 11.7235 28.6764C11.7529 28.4927 11.8746 28.3775 12.0928 28.4016C12.3036 28.4247 12.4125 28.5522 12.3954 28.7392C12.3778 28.9389 12.2182 29.0017 12.0085 29.0055Z" fill="#9FA1A5"/>
<path d="M4.58964 27.2677C4.37725 27.2237 4.25291 27.1189 4.26999 26.9296C4.2876 26.7342 4.43969 26.6548 4.64621 26.661C4.87354 26.6681 4.968 26.7894 4.94452 26.9811C4.92104 27.169 4.79189 27.2601 4.58964 27.2677Z" fill="#A1A3A6"/>
<path d="M13.1328 31.1005C13.121 31.2813 13.0351 31.4173 12.8163 31.4286C12.5714 31.4414 12.4262 31.321 12.4284 31.1047C12.43 30.9154 12.5687 30.813 12.78 30.8106C12.993 30.8078 13.1168 30.9064 13.1328 31.1005Z" fill="#61656B"/>
<path d="M2.98714 33.5061C2.93858 33.7167 2.81371 33.8422 2.62053 33.8451C2.36705 33.8493 2.27206 33.6822 2.29608 33.4811C2.31689 33.3068 2.43002 33.1765 2.65362 33.2091C2.85213 33.2379 2.94499 33.372 2.98714 33.5061Z" fill="#A6A7AB"/>
<path d="M30.4062 13.3127C30.3993 13.9657 30.0754 14.3136 29.4825 14.3046C28.8853 14.2957 28.4611 13.8372 28.4638 13.2032C28.4664 12.5587 28.8949 12.0875 29.4675 12.0993C30.0503 12.1116 30.4142 12.5819 30.4062 13.3127Z" fill="#FDFBFB"/>
<path d="M35.4918 13.2207C35.4828 13.7782 34.9486 14.3202 34.4235 14.3042C33.869 14.2877 33.4448 13.8462 33.4597 13.3004C33.4795 12.5663 33.8963 12.0861 34.503 12.0989C35.0553 12.1102 35.5015 12.6163 35.4918 13.2207Z" fill="#FBFAFA"/>
<path d="M64.9767 25.9327C64.4762 26.4789 63.578 26.6239 62.9633 26.2575C62.4558 25.9549 62.3384 25.3439 62.6794 24.7793C63.0183 24.2179 63.9356 23.9351 64.5946 24.1787C65.053 24.3482 65.1736 24.6594 65.1368 25.0668C65.1107 25.3586 64.9746 25.5706 64.6757 25.6957C64.5685 25.7405 64.4409 25.7698 64.3678 25.6612C64.2077 25.4223 64.3107 25.1919 64.426 24.9658C64.4634 24.8931 64.4927 24.817 64.5269 24.7401C63.4676 24.5423 63.0823 24.7283 63.0529 25.4596C63.0391 25.808 63.1293 26.0932 63.6528 25.928C64.0967 25.7877 64.5359 26.2377 64.9837 25.9402C64.9847 25.9407 64.9767 25.9327 64.9767 25.9327Z" fill="#9B9DA1"/>
<path d="M63.3924 25.8312C63.2723 25.4233 63.2627 25.1192 63.6197 24.9011C63.7574 24.817 63.9217 24.8784 63.9527 25.0007C64.0477 25.3694 63.7969 25.5904 63.3924 25.8312Z" fill="#A0A2A5"/>
<path d="M11.7148 10.2546C11.1593 10.8689 10.583 10.7905 9.98902 10.138C9.96874 10.2055 9.94846 10.2731 9.92872 10.3406C10.1891 10.604 10.4549 10.8642 10.7089 11.1328C10.8797 11.3136 11.0067 11.239 11.1556 11.1083C11.3311 10.9539 11.5232 10.8146 11.7084 10.6682C11.7127 10.8717 11.7202 11.0757 11.7212 11.2792C11.7218 11.4033 11.7143 11.5563 11.5382 11.561C11.0099 11.5742 10.4805 11.5709 9.95166 11.5563C9.82146 11.5525 9.78944 11.4307 9.78784 11.3226C9.78623 11.2206 9.78517 11.1186 9.7841 11.0171C9.76862 9.75702 10.02 9.58422 11.4352 9.80518C11.8055 9.86278 11.6972 10.0691 11.7148 10.2546Z" fill="#F8F9F8"/>
<path d="M9.79389 6.61475C10.2902 6.60625 10.787 6.61003 11.2822 6.58548C11.6035 6.5699 11.746 6.67518 11.7145 6.95846C11.1643 7.66287 10.5906 7.49904 10.0047 6.91455C10.5437 8.0486 10.8548 8.13406 11.5917 7.43059C11.8863 8.19213 11.8201 8.28939 11.0015 8.29175C9.77788 8.29552 9.77788 8.29552 9.78642 7.21907C9.78802 7.01795 9.79122 6.81635 9.79389 6.61475Z" fill="#FAFBFA"/>
<path d="M30.0008 13.1148C29.9832 13.4075 29.9485 13.7144 29.5733 13.7258C29.2051 13.7371 29.1998 13.4108 29.1934 13.1842C29.1864 12.9307 29.1966 12.5889 29.5717 12.5653C29.9767 12.5402 29.9565 12.883 30.0008 13.1148Z" fill="#111111"/>
<path d="M33.9529 13.066C33.9956 12.8253 34.0223 12.5127 34.3894 12.5717C34.7565 12.6307 34.7224 12.9674 34.7128 13.2247C34.7048 13.439 34.701 13.7459 34.3681 13.7232C33.947 13.6949 33.962 13.3531 33.9529 13.066Z" fill="#050505"/>
</svg>
