<svg width="69" height="52" viewBox="0 0 69 52" fill="none" xmlns="http://www.w3.org/2000/svg">
<path d="M63.9109 30.6417C65.1112 31.2577 66.0498 32.0839 66.5988 33.2233C67.3447 35.0548 67.6637 36.9061 67.0911 38.8363C66.8749 39.5652 67.2436 40.2945 67.4389 40.9871C67.7996 42.2671 67.8312 43.5988 68.3074 44.8543C68.3775 46.0571 68.8051 47.2106 68.9426 48.4021C69.0036 48.9302 69.0759 49.4738 68.8104 49.9877L68.826 49.9656C68.0961 51.5823 67.3453 52.4042 64.5525 51.0739C63.2062 50.3437 62.2108 49.3054 61.2877 48.2037C60.9447 47.3798 60.1811 46.8894 59.4277 46.3905C58.0112 45.2549 57.154 43.6223 55.3383 42.8422C54.6951 42.1326 53.9936 41.7038 52.8516 42.0461C52.0848 42.276 51.1794 42.2897 50.4249 42.0428C49.5831 41.7672 48.9399 41.9158 48.2753 42.3183C47.5331 42.9231 46.2777 43.0162 45.9968 44.0812C44.9126 45.5253 43.6283 46.8222 42.2306 48.0358C40.9683 48.941 39.7985 49.9271 38.8074 51.0683C37.9373 51.8399 36.8596 52.305 35.7321 51.7694C34.3927 51.1332 33.8212 49.9492 34.0486 48.633C34.5458 45.7566 35.1264 42.8906 35.7369 40.0312C35.8648 39.4321 35.8456 38.9031 35.7402 38.3022C35.4458 36.6291 35.349 34.9386 36.4866 33.417C36.6595 33.4682 36.774 33.5698 36.8307 33.7217C36.165 35.6807 36.6515 37.6735 36.5557 39.6446C36.4417 41.9972 35.6791 44.3121 35.228 46.6472C35.0183 47.7335 34.4853 48.8173 34.9048 49.9557C34.9803 50.133 35.2066 49.8664 35.0397 49.976C34.9926 50.007 34.9546 49.9745 34.93 49.8782C34.5313 48.2996 35.2591 46.8302 35.5309 45.3217C35.8632 43.4779 36.2458 41.6403 36.6365 39.8045C36.7446 39.2976 36.7349 38.8081 36.5953 38.3153C35.845 35.6694 36.7012 33.4654 38.946 31.6278C41.193 29.7883 44.8794 29.4361 47.4705 30.9403C48.6151 31.6047 49.7586 31.5911 51.0536 31.7162C53.3594 31.9391 55.0911 31.0861 57.0395 30.4259C59.1516 29.7107 61.3461 30.0601 63.4577 30.6873C63.6102 30.6869 63.7616 30.6732 63.9109 30.6417Z" fill="#848484"/>
<path d="M38.013 27.7845C37.7179 27.6726 37.465 27.5214 37.3574 27.2335C37.2044 26.3443 36.2101 25.6973 36.5417 24.8139C36.6499 24.9224 36.5619 25.1124 36.3516 25.2893C35.9965 24.7998 35.7714 24.3123 36.3756 23.8355C37.0334 23.9968 37.4655 24.1631 37.5661 24.9699C37.754 26.48 39.1236 27.3944 40.7282 27.3876C42.713 27.3794 44.0925 26.4751 44.2837 24.8338C44.3935 23.8922 44.9425 23.0785 45.0065 22.1495C45.1261 21.8757 45.3359 21.6843 45.6533 21.5903C46.0532 21.7105 46.3471 21.4633 46.6766 21.3519C48.8504 20.6186 50.4315 21.0136 52.0508 22.7039L52.0393 22.6937C53.4067 25.2263 52.9609 27.8979 52.8047 30.5473C52.7888 30.8187 52.6266 31.0164 52.331 30.9989C51.9278 30.9747 51.8737 30.6772 51.8727 30.3791C51.8666 28.9272 51.8666 27.4754 51.8727 26.0235C51.8748 25.4579 51.9093 24.8919 51.4214 24.4393C51.5689 23.7923 51.01 23.3848 50.7478 22.8769C49.7841 21.7211 48.4314 21.8539 47.1437 22.1485C45.9866 22.4131 45.5506 23.3111 45.3703 24.2983C44.724 27.833 42.2563 29.0964 38.4784 27.8262C38.3249 27.7739 38.1719 27.7622 38.013 27.7845Z" fill="#ADADAD"/>
<path d="M50.458 24.626C51.4405 24.7177 51.0681 25.3462 51.0798 25.7535C51.1252 27.3394 51.0983 28.9265 51.4159 30.5047C51.6831 27.9932 52.0713 25.4794 51.0921 23C52.2606 23.8512 52.0886 25.0387 52.236 26.1238C52.3469 26.9433 52.3127 27.785 52.2326 28.61C52.1312 29.6531 52.204 30.6411 52.9983 31.5189C53.0224 31.7943 52.7838 31.8887 52.5228 31.9686C51.7206 31.9564 50.9006 32.1154 50.1253 31.816C49.9797 31.6968 49.9612 31.5654 50.0687 31.4227C51.175 29.1934 50.7264 26.9063 50.458 24.626Z" fill="#575757"/>
<path d="M38 27.3781C38.3429 26.8437 38.6976 27.3337 38.9611 27.4204C41.1964 28.1565 44.7717 27.1886 44.7274 24.5419C44.695 22.5963 46.4829 21.6871 48.7712 22.0964C49.3616 22.2021 49.9423 22.3692 50 23.0059C47.2865 21.6647 45.6355 22.3342 45.1573 24.9706C44.6703 27.651 41.201 28.8183 38 27.3781Z" fill="#5E5E5E"/>
<path d="M43.9033 22C44.4291 24.8084 42.7642 26.9728 40.0567 26.9997C38.4028 27.0163 37.2287 26.2838 36.9475 24.8067C36.8264 24.1702 36.3997 23.9215 36 23.562C36.8525 23.3847 37.1351 23.6567 37.2572 24.4678C37.4803 25.9476 38.6264 26.7134 40.1673 26.6496C41.9747 26.5747 42.8572 25.8157 43.0503 24.1787C43.1434 23.3928 43.3875 22.6535 43.9033 22Z" fill="#5F5F5F"/>
<path d="M67.7693 44.9052C67.1818 42.5997 66.1411 40.352 66.7786 37.9027C67.0453 36.8774 66.6921 35.8703 66.3131 34.8856C66.2085 34.6145 65.707 34.3226 66.2441 34C67.0551 35.1895 67.43 36.5 67.1509 37.8368C66.6395 40.2839 67.7364 42.5521 68 44.9088C67.9197 45.0347 67.8429 45.0272 67.7693 44.9052Z" fill="#4E4E4E"/>
<path d="M49.9728 31.897C49.9817 32.0303 49.9911 32.1636 50 32.2968C49.4117 33.4585 48.6254 32.9473 48.0308 32.4219C46.2842 30.8785 44.2398 30.895 42.1526 30.9778C41.1646 31.0167 40.4023 31.7719 39.4378 31.8652C39.2654 31.8317 39.1196 31.7473 39 31.6123C42.0475 29.4744 45.2043 29.4443 48.2053 31.6315C48.8203 32.0796 49.3224 32.2453 49.9728 31.897Z" fill="#808080"/>
<path d="M53 31.5238C53.0989 31.4643 53.1977 31.4051 53.296 31.3455C53.8934 31.5149 54.3064 31.3126 54.7953 31.0785C57.7541 29.6612 61.0471 29.6476 64 30.9975C63.9288 31.0537 63.8576 31.1099 63.7858 31.1665C62.539 31.0156 61.3915 30.6284 60.066 30.6184C58.2005 30.6044 56.5285 30.84 55.0005 31.6133C54.3733 31.9306 53.5905 32.336 53 31.5238Z" fill="#828282"/>
<path d="M51 23C49.305 21.3763 47.4082 21.0135 45.2669 22.1015C45.2321 22.1191 45.0912 21.9351 45 21.8452C47.5342 20.3773 50.0357 20.8587 51 23Z" fill="#626262"/>
<path d="M48 42.4995C48.4817 42.097 49.0759 41.8946 49.756 42.0552C50.8418 42.3116 51.8828 42.2747 52.9878 42.0728C53.8986 41.9065 54.7313 42.1522 55 43C54.1371 42.4864 53.2508 42.2014 52.1202 42.509C50.9287 42.8333 49.6789 42.0519 48.4609 42.5413C48.2921 42.6257 48.139 42.6118 48 42.4995Z" fill="#4D4D4D"/>
<path d="M39 51C39.6598 49.6654 40.6616 48.6671 42 48C41.0724 49.0709 40.1218 50.1199 39 51Z" fill="#4E4E4E"/>
<path d="M68.0002 45C68.0735 45.0036 68.1467 45.0054 68.22 45.004C68.4496 46.168 68.6664 47.3343 68.9152 48.4951C69.0342 49.0509 69.106 49.5761 68.5755 50C68.7372 48.2995 67.9864 46.6866 68.0002 45Z" fill="#474747"/>
<path d="M64 51.1407C64.0957 51.1363 64.1988 51.1078 64.286 51.1315C66.6061 51.7645 66.6056 51.765 68 50C67.6474 52.1594 66.0361 52.6186 64 51.1407Z" fill="#525252"/>
<path d="M38.5331 31C38.6889 31.0213 38.8442 31.0426 39 31.0638C38.3269 32.2661 37.3478 33.2036 36.2052 34C36.1485 33.9272 36.08 33.8669 36 33.8183C36.5163 32.6116 37.4065 31.7098 38.5331 31Z" fill="#727272"/>
<path d="M48.4587 42C48.6393 42.0176 48.8194 42.0358 49 42.0534C48.079 42.7895 46.7471 43.071 46 44C45.9994 42.6107 47.5352 42.5749 48.4587 42Z" fill="#4B4B4B"/>
<path d="M36 25.4389C36.0286 25.2926 36.0577 25.1463 36.0863 25C35.9678 25.7669 37.293 26.1767 36.94 27C36.4843 26.5292 36.07 26.0444 36 25.4389Z" fill="#616161"/>
<path d="M59 47C60.2123 47.2235 60.7578 47.9886 61 49C60.3331 48.333 59.6669 47.6665 59 47Z" fill="#4A4A4A"/>
<path d="M36.2241 33.6652C36.9722 32.6055 37.9292 31.7105 39.0569 30.9497C42.1603 29.6181 45.1652 29.5915 48.0117 31.4812C48.5871 31.863 49.1209 31.8177 49.6679 31.462C50.4786 31.4569 51.2894 31.4519 52.1001 31.4469C52.6502 31.7765 53.1888 31.8694 53.7752 31.4794C56.6523 29.5677 59.6735 29.6213 62.7843 31.0042C62.8506 31.0706 62.9538 31.1287 62.9765 31.2052C63.0844 31.5659 62.7927 31.3993 62.6769 31.3439C61.8578 30.9502 60.9623 30.7634 60.0536 30.649C57.8884 30.3766 55.8605 30.7099 54.1153 31.9028C53.4899 32.3299 52.9261 32.4837 52.1685 32.2361C51.7479 32.0987 51.1925 31.944 50.8245 32.0722C49.0225 32.698 47.7216 31.9431 46.2234 31.1933C41.7165 28.9378 35.8198 32.1596 36.3336 36.8115C36.6526 39.6996 35.8314 42.3373 35.426 45.0762C35.1865 46.6949 34.6342 48.2756 34.5716 50C33.9225 49.3234 33.9372 48.6166 34.0809 47.9121C34.5884 45.425 35.0917 42.937 35.6587 40.46C35.8624 39.5696 35.8808 38.7365 35.6439 37.8374C35.2696 36.4142 35.6929 35.0212 36.2241 33.6652Z" fill="#F8F7F8"/>
<path d="M47.2304 35.5356C47.4039 35.708 47.5779 35.8799 47.7514 36.0524C48.3225 36.9478 47.8614 37.5152 46.8607 37.5188C45.6377 37.5237 45.1183 37.7845 45.1198 38.9532C45.1214 40.0522 44.4523 40.2432 43.0757 39.7251C42.9844 39.5722 43.0594 39.7913 42.9778 39.6336C42.3427 38.4058 41.5154 37.721 40.1505 37.2939L40.1611 37.3108C39.8111 35.584 39.9146 35.3729 41.6666 35.3916C42.9372 35.4049 42.6623 34.705 42.6597 34.1029C42.6572 33.5141 42.8119 33.0551 43.5905 33.0253C44.2545 33 45.0397 32.844 45.095 33.7758C44.7957 35.3027 46.0435 35.3907 47.2304 35.5356Z" fill="#BBBBBB"/>
<path d="M43.0881 39.4619C44.7053 39.7621 44.8605 39.7012 44.8384 38.3251C44.8242 37.4519 45.1876 37.1215 46.1634 37.2288C47.2311 37.3463 47.8219 37.0265 47.5911 36C47.9589 36.2623 48.0493 36.4688 47.9771 36.8013C47.8784 37.2569 47.5312 37.6733 47.0685 37.6354C45.6929 37.523 45.4307 38.1199 45.2126 39.152C45.0064 40.1291 44.0305 40.1777 43.0817 39.7225C43.0076 39.6629 42.984 39.6046 43.0105 39.5471C43.037 39.4905 43.0626 39.4619 43.0881 39.4619Z" fill="#565656"/>
<path d="M59.4452 38.0051C60.2247 37.9708 60.977 38.0949 60.9995 38.8627C61.0214 39.6114 60.3735 39.9866 59.4984 39.9996C58.6223 40.0126 58.0381 39.7007 58.0016 38.8956C57.9614 38.0094 58.708 38.0142 59.4452 38.0051Z" fill="#4E4E4E"/>
<path d="M60.4269 33.3145C60.9018 33.7385 61.2861 34.2868 60.7124 34.7128C60.1181 35.1538 59.2181 35.0042 58.4864 34.81C57.8054 34.6298 58.0134 34.0871 58.093 33.7039C58.2486 32.9548 59.5077 32.7658 60.4349 33.3208C60.0814 33.6567 59.401 33.5046 59.0434 33.8786C59.7983 34.0442 59.7983 34.0442 60.4269 33.3145Z" fill="#494949"/>
<path d="M44.7818 34.2355C44.7982 33.2988 44.0632 33.318 43.314 33.3536C42.4738 33.3936 42.3308 33.909 42.4184 34.4702C42.5988 35.6229 42.1821 36.1284 40.7516 36.0069C38.827 35.8433 39.4998 37.1472 39.4071 38C38.6065 36.3601 38.9503 35.6808 40.7635 35.7158C42.1713 35.743 42.065 35.0276 42.0017 34.2578C41.9305 33.3887 42.5004 32.9954 43.3519 33.0082C44.062 33.0186 45.1352 32.8086 44.9853 33.9984C45.0328 34.1525 44.965 34.2316 44.7818 34.2355Z" fill="#424242"/>
<path d="M57.9747 36.6204C58.0703 37.4189 57.947 38.0102 56.6794 37.9999C55.3828 37.9895 54.9847 37.4938 55.0004 36.451C55.0149 35.476 55.4035 34.9967 56.602 35C57.9521 35.0027 58.0282 35.728 57.9747 36.6204Z" fill="#474747"/>
<path d="M43 40.6921C42.9979 40.7947 42.9954 40.8974 42.9933 41C42.5518 39.4734 41.6282 38.4051 40 38.0066C40.0995 38.0051 40.1996 37.9955 40.2986 38.0026C42.4657 38.156 42.4631 38.1565 42.8179 40.294C42.8406 40.4324 42.9376 40.5597 43 40.6921Z" fill="#515151"/>
<path d="M45.1308 34.2299C45.2057 34.1529 45.2806 34.0765 45.3549 34C45.555 35.1894 46.3173 35.8733 47.9855 35.7428C47.9893 35.7815 48.0109 35.8264 47.993 35.858C47.9707 35.8981 47.9162 35.9273 47.8753 35.9612C47.6381 35.9531 47.3929 35.9101 47.165 35.9421C45.3035 36.2016 44.7047 35.5818 45.1308 34.2299Z" fill="#383838"/>
<path d="M64 37.5859C63.4269 38.0923 62.6692 38.1786 62.2943 37.5953C61.9011 36.9837 61.9053 36.0203 62.2865 35.4092C62.6514 34.8244 63.4127 34.8991 63.9796 35.426C63.9313 35.4781 63.8836 35.5308 63.8364 35.584C62.5203 36.402 62.5235 36.6204 63.8658 37.4206C63.9109 37.4748 63.9554 37.5301 64 37.5859Z" fill="#454545"/>
<path d="M63.362 36C64.2053 36.6584 64.2136 37.325 63.3809 38L63.3004 37.9196C62.8974 37.3153 62.911 36.7052 63.2747 36.0902L63.362 36Z" fill="#454545"/>
<path d="M59.9945 39C60.3521 39.0998 60.9474 38.7987 60.9968 39.3961C61.0446 39.9759 60.5517 40.0088 60.0259 39.9986C59.5196 39.9889 58.9819 39.9828 59.0005 39.4123C59.019 38.819 59.6225 39.082 59.9945 39Z" fill="#BFBFBF"/>
<path d="M60.9789 33.017C60.8823 33.4332 61.4128 34.1032 60.0073 33.9866C59.5658 33.95 58.9975 34.1055 59 33.5874C59.002 33.144 59.3289 32.9759 59.9816 33.0027C60.3161 33.0163 60.652 33.0163 60.9874 33.0225C60.9874 33.0221 60.9789 33.017 60.9789 33.017Z" fill="#BCBCBC"/>
<path d="M57.9988 37.0508C57.9858 37.5179 58.1375 38.0326 57.1118 37.9984C56.1558 37.9667 55.9943 37.5551 56.0002 36.9582C56.0054 36.4074 56.2085 36.0483 57.0363 36.0042C58.172 35.9433 57.9682 36.5496 57.9988 37.0508Z" fill="#BFBFBF"/>
<path d="M63.7824 36.099C64.0762 36.7049 64.0573 37.3143 63.817 37.9261C62.8316 38.0512 61.9987 38.1553 62 37.0159C62.002 35.9091 62.7255 35.8999 63.7824 36.099Z" fill="#BABABA"/>
<path d="M18.3096 20.7651C17.8812 20.3958 18.0382 19.9213 18.0377 19.4892C18.0277 13.525 18.0678 7.56041 18.0003 1.59669C17.9861 0.333322 18.4603 -0.0050214 19.8545 5.60698e-05C30.9635 0.0402142 42.073 0.0332904 53.1824 0.00328717C54.4412 5.60556e-05 55.0135 0.237774 54.9998 1.49145C54.9323 7.58949 54.9713 13.6884 54.9571 19.7874C54.956 20.2051 55.17 20.7055 54.5867 21C54.4533 20.868 54.3548 20.7184 54.2895 20.5518C54.0645 16.7169 54.2405 12.8788 54.1941 9.0421C54.1693 6.98896 54.1909 4.93535 54.1888 2.88221C54.1883 2.34723 54.2294 1.80625 53.8764 1.32804C53.4269 0.799065 52.7651 0.935695 52.1723 0.935233C41.7157 0.925078 31.2591 0.925078 20.803 0.932002C19.1606 0.932925 19.0647 1.01786 19.0615 2.4617C19.0494 7.89413 19.0599 13.327 19.0536 18.7595C19.0531 19.252 19.0879 19.7486 18.9298 20.2328C18.8207 20.4973 18.6279 20.6875 18.3096 20.7651Z" fill="#C9C8C7"/>
<path d="M53.9999 20.7252C54.001 20.8083 53.9905 20.8905 53.9691 20.9717C49.8266 20.9826 45.6836 21.0199 41.5416 20.9844C40.5677 20.9759 40.1785 21.1941 40.2799 22.1164C40.3791 23.0212 40.3342 23.9387 40.353 24.8506C40.2804 24.8945 40.2083 24.9389 40.1357 24.9828C39.8567 25.0315 39.6195 24.9842 39.4659 24.7448C39.0391 23.7956 39.3489 22.7907 39.1937 21.8236C38.9095 21.1464 38.2533 21.4175 37.7491 21.3929C35.8808 21.3032 34.0032 21.5181 32.1364 21.2687C31.9865 21.1993 31.8444 21.1186 31.7091 21.0279C27.6543 21.0199 23.5996 21.0222 19.5449 20.9906C19.0308 20.9868 18.4258 21.2343 18 20.7309C18.1102 20.6284 18.22 20.5259 18.3302 20.4234C18.5637 20.2388 18.8364 20.1321 19.141 20.0872C19.7936 19.9691 20.4555 20.0083 21.1133 20.0083C31.0571 20.0041 41.0009 20.0041 50.9441 20.0088C51.7523 20.0093 52.5705 19.9422 53.362 20.1708C53.6635 20.2728 53.8484 20.4834 53.9999 20.7252Z" fill="#6B757C"/>
<path d="M47.9588 25.096C48.0901 27.9997 48.0901 28.0042 45.0257 27.9997C38.71 27.9901 32.3948 27.9756 26.0791 27.963C25.9499 27.7912 25.979 27.648 26.1659 27.5325C26.4083 27.3893 26.6794 27.3361 26.9562 27.2989C33.0433 27.1984 39.1313 27.2898 45.2194 27.2421C45.9849 27.2361 46.9605 27.4677 47.1045 26.2927C47.1685 25.8772 47.2553 25.4683 47.5253 25.1202C47.6603 24.9684 47.8053 24.9604 47.9588 25.096Z" fill="#393C39"/>
<path d="M25.4112 27.765C25.4019 27.8463 25.4151 27.9246 25.4514 28C24.6727 27.137 25.122 26.16 25.1956 25.2457C25.2314 24.799 25.8874 24.9363 26.2878 24.9329C27.8341 24.9189 29.3827 24.8831 30.9263 24.9441C31.9238 24.9837 32.2516 24.6574 32.1823 23.8089C32.1064 22.8763 32.1405 21.9365 32.1262 21C32.2532 21.001 32.3802 21.0019 32.5073 21.0029C33.2958 22.3653 32.9686 23.7639 32.6838 25.1631C32.5705 25.2917 32.4281 25.3864 32.2593 25.4512C30.7338 25.7872 29.177 25.6344 27.6417 25.5982C26.4176 25.5692 25.6713 25.7727 25.8006 27.0133C25.8308 27.3 25.6103 27.5412 25.4112 27.765Z" fill="#ACADAC"/>
<path d="M48 25.4437C47.9151 25.4288 47.8296 25.4169 47.7436 25.4092C45.5967 26.3033 43.4179 26.0174 41.2353 25.626C41.0422 25.4943 40.9681 25.3055 41.0125 25.0601L41.1585 25.0392C42.9781 25.0452 44.7983 25.0243 46.6174 25.0756C47.0788 25.0887 47.6722 24.7384 48 25.4437Z" fill="#ABAEAA"/>
<path d="M19.6005 21C19.4098 20.9986 19.2196 20.9972 19.0289 20.9958C19.0273 14.7969 19.0491 8.59803 19.0002 2.39959C18.9922 1.38124 19.2462 1.01018 20.5239 1.01573C31.5116 1.06246 42.4992 1.04025 53.4874 1.05922C54.024 1.06015 54.7939 0.742291 55 1.57001C54.9256 1.6297 54.8507 1.68938 54.7769 1.74999C53.9491 2.10857 53.056 2.004 52.1852 2.00447C42.3133 2.01279 32.4413 2.00724 22.5694 2.01094C20.1573 2.01187 20.1356 2.03176 20.1334 4.09853C20.1276 9.04914 20.1382 13.9997 20.1249 18.9504C20.1228 19.6601 20.2402 20.4073 19.6005 21Z" fill="#F8FDFE"/>
<path d="M54.9246 21C54.8037 20.9043 54.6822 20.8086 54.5614 20.7128C53.951 20.1883 54.0126 19.5342 54.0108 18.9036C53.9969 13.5448 53.9957 8.18545 54.0114 2.82663C54.0132 2.19554 53.9649 1.541 54.6103 1.03284L54.5795 1C55.0594 1.17126 54.9977 1.51378 54.9971 1.82581C54.9754 8.21783 54.9494 14.6089 54.9246 21Z" fill="#4F555F"/>
<path d="M54 1.02532C53.9858 7.68371 53.9717 14.3421 53.9575 21C42.3065 20.9971 30.656 20.9948 19.005 20.9919C19.0145 14.8441 19.0622 8.69573 19.0003 2.54836C18.9882 1.33584 19.3157 0.993891 20.6803 1.00008C31.787 1.05104 42.8938 1.02675 54 1.02532Z" fill="#8EA2B0"/>
<path d="M40 21.3295C39.9955 22.4001 39.9914 23.4707 39.9869 24.5413C39.6822 24.9073 39.2328 24.9667 38.7949 24.9393C37.0108 24.8275 35.1853 25.3044 33.4395 24.6313C33.2438 24.4119 33.2014 24.1368 33.1515 23.8757C32.7071 21.5526 33.153 21.0122 35.6716 21.0762C37.1137 21.1128 38.5932 20.7566 40 21.3295Z" fill="#848484"/>
<path d="M39.8611 21.5623C37.9806 21.5548 36.0974 21.6011 34.2218 21.5203C33.0789 21.4707 32.7569 21.8577 32.8608 22.7714C32.9378 23.4458 32.8958 24.1301 32.9066 24.8096C32.617 25.07 32.3128 25.0457 32 24.8433C32.0108 23.5758 32.0215 22.3083 32.0323 21.0407C34.4328 21.0333 36.8334 21.0164 39.2339 21.0277C39.5661 21.03 40.3069 20.8122 39.8611 21.5623Z" fill="#FDFDFD"/>
<path d="M32 25.0627C32.2849 25.0472 32.5702 25.0317 32.8551 25.0162C35.0374 25.011 37.2193 25.0058 39.4016 25C39.5819 25.0181 39.7626 25.0362 39.9429 25.0543C39.9982 25.1649 40.0135 25.2839 39.9881 25.4114C39.7119 25.8253 39.3321 25.9572 38.936 25.9663C36.9801 26.0116 35.0242 26.0109 33.0683 25.9663C32.6718 25.9572 32.2925 25.8253 32.0152 25.4126C32.0102 25.2962 32.0051 25.1792 32 25.0627Z" fill="#454744"/>
<path d="M46.7066 26.4118C47.2455 27.8805 47.1645 27.9833 45.4125 27.9851C39.0375 27.9919 32.6619 27.9955 26.2869 28C25.6806 26.5657 25.9937 26.0354 27.6255 26.0241C33.5191 25.9838 39.4133 26.0046 45.3074 26.0118C45.8207 26.0128 46.3293 26.0453 46.7066 26.4118Z" fill="#5D605C"/>
<path d="M47.6343 25.6782C40.9763 25.6575 34.3183 25.6342 27.6603 25.618C26.0422 25.6142 27.0739 26.563 26.6742 26.9992C26.4542 26.9996 26.2342 27 26.0143 27C25.9547 25.0041 25.9547 25.0049 28.7188 25.0053C30.1196 25.0056 31.5204 25.0026 32.9217 25.0011C35.7298 25.0008 38.5379 25.0004 41.3459 25C43.5552 25.0041 45.7651 25.0087 47.9744 25.0128C48.0195 25.2747 48.0533 25.5333 47.6343 25.6782Z" fill="#E4E6E3"/>
<path d="M36.4379 17.9714C31.7906 17.9714 27.1428 17.945 22.4955 17.991C21.4125 18.0015 20.9863 17.7902 21.0003 16.7539C21.0611 12.2852 21.0637 7.8151 21.0009 3.34636C20.9858 2.25774 21.4322 1.99913 22.5896 2.00323C31.9351 2.03465 41.2806 2.03465 50.626 2.00004C51.6993 1.99595 52.0033 2.28187 51.9934 3.20522C51.9472 7.71857 51.9399 12.2324 51.9996 16.7453C52.0132 17.7583 51.6431 18.011 50.5315 17.9996C45.8343 17.95 41.1356 17.9787 36.4379 17.9787C36.4379 17.9764 36.4379 17.9737 36.4379 17.9714Z" fill="#475763"/>
<path d="M51.9529 3.39808C51.9628 7.94166 51.9544 12.4852 51.9998 17.0284C52.0072 17.7809 51.7477 18.0031 50.8851 18C41.4066 17.9645 31.928 17.9609 22.4494 17.9486C21.9962 17.4669 22.003 16.8911 22.003 16.3144C22.0035 12.5657 21.9931 8.81647 22.0082 5.06773C22.0156 3.27856 22.3361 3.0068 24.4037 3.00498C32.9681 2.99817 41.5329 2.99953 50.0972 3.00589C50.7457 3.0068 51.4323 2.91818 51.9529 3.39808Z" fill="#B7DEFA"/>
<path d="M51.9623 3.768C42.4766 3.768 32.991 3.79316 23.5058 3.74047C22.1352 3.73288 21.7459 4.05518 21.7673 5.2827C21.8469 9.84291 21.7935 14.405 21.7897 18.9662C20.9189 19.1461 21.0021 18.5703 21.0021 18.1336C20.9995 13.3868 21.0411 8.63961 21.0016 3.89332C20.992 2.76549 21.826 3.03605 22.4759 3.03416C27.9718 3.01897 33.4683 3.02799 38.9643 3.02893C42.9049 3.02941 46.846 3.01849 50.786 3.03985C51.3029 3.0427 52.194 2.73843 51.9623 3.768Z" fill="#E0EDF3"/>
<path d="M10.0708 45.4259C9.12326 44.6438 8.19337 43.8501 7.71852 42.7526C6.5726 40.2135 5.78975 37.6231 6.05016 34.8506C6.26512 32.5612 6.83141 30.3896 8.45431 28.5156C8.85964 28.0475 9.26176 27.5677 9.93231 27.3501C10.0131 27.338 10.0938 27.3278 10.1745 27.3161C10.3403 27.3203 10.4938 27.3623 10.6344 27.4386C11.337 28.326 12.445 29.0466 12.221 30.3234C10.0312 33.2445 9.58794 36.3216 11.1344 39.5744C11.221 39.6769 11.2959 39.7868 11.3633 39.8995C11.6916 40.5708 12.1322 41.1856 12.6434 41.7637C13.1487 42.2742 13.6845 42.7554 14.3198 43.1476C20.0328 46.4386 26.1908 45.3388 29.9377 40.3523C31.5841 37.686 31.9991 34.9694 30.3927 32.1685C30.3136 32.053 30.2457 31.9319 30.1799 31.8098C27.5234 26.6906 19.7318 24.94 14.8957 28.1947C14.6545 28.3833 14.3834 28.4984 14.0481 28.4522C13.5883 28.333 13.2204 28.0843 12.8685 27.8122C12.4498 27.1806 11.4734 26.8084 11.6777 25.8833C13.83 23.8631 16.6608 23.2496 19.6489 23.0447C23.3273 22.7927 26.7229 23.6167 29.8639 25.2778L29.8617 25.3369C31.8675 26.3137 32.9776 27.999 34.2556 29.553C35.3566 31.6556 36.094 33.8216 35.9903 36.1712C35.9529 37.0255 35.5021 37.8295 35.6588 38.6954C35.0315 40.7841 33.9519 42.6772 32.4135 44.3713L32.4177 44.3657C31.7841 45.0565 31.0713 45.6714 30.189 46.1242C28.9217 47.1163 27.3795 47.6902 25.8539 48.292C21.9531 49.3657 18.1281 49.2265 14.3567 47.8174C12.7685 47.2235 11.5247 46.1875 10.0708 45.4259Z" fill="#FB413B"/>
<path d="M30 24.9917C29.2187 25.2834 28.7276 24.6797 28.1255 24.456C22.3658 22.3178 16.8188 22.0654 11.7061 25.9381C11.3705 26.0581 11.0619 26.0234 11.0079 25.6573C10.9297 25.1291 11.4498 24.9729 11.806 24.7249C12.0979 24.5875 12.3898 24.4496 12.6817 24.3122C15.602 22.3015 18.9475 21.7777 22.47 22.0788C24.3963 22.2434 26.2255 22.856 27.9965 23.5801C28.6613 24.0543 29.6293 24.1649 30 24.9917Z" fill="#FAE9E5"/>
<path d="M0.711083 23.262C-0.358939 22.3779 -0.200173 20.8461 1.0446 20.0445C1.09642 19.9607 1.17801 19.8483 1.25298 19.8611C3.19512 20.1926 3.69568 19.2543 3.65929 17.8363C3.97297 17.6558 4.28664 17.4758 4.60087 17.2953C5.9107 16.5298 6.53143 17.4077 6.99726 18.1702C7.65713 19.2505 8.07224 20.4308 7.98955 21.6887C7.31479 21.6768 7.28337 21.6863 7.11192 21.2657C6.81093 20.5275 6.56561 19.7692 6.0419 19.1176C5.84179 18.8685 5.65931 18.4827 5.19404 18.6546C4.85611 18.7794 4.90958 19.1152 4.92281 19.3891C4.93604 19.6649 4.99613 19.9383 4.99172 20.215C4.97298 21.3777 4.68466 21.5706 3.35389 21.3134C3.19843 21.2834 3.04903 21.2257 2.89082 21.2081C2.42389 21.1562 1.8208 20.979 1.58981 21.4248C1.31418 21.9578 1.95476 22.2131 2.34671 22.4951C2.67582 22.7323 3.10141 22.8328 3.47572 23.0057C3.87705 23.191 4.4195 23.2967 4.31807 23.8616C3.51762 24.2165 2.82908 23.7968 2.1036 23.6258C1.63612 23.5158 1.28882 23.0595 0.711083 23.262Z" fill="#F8F5E0"/>
<path d="M9.97852 27.5055C5.7257 31.111 4.71213 36.926 7.49336 41.7788C7.68086 42.1052 8.04891 42.4284 8.0431 42.7493C8.03207 43.36 7.61178 42.6406 7.41209 42.8139C7.41151 42.8139 7.3999 42.7865 7.3999 42.7865C5.15564 39.6677 4.41433 36.3631 5.47841 32.8362C5.86909 31.4175 6.55641 30.0898 7.42195 28.8174C7.63965 28.6126 7.85734 28.4078 8.07503 28.2026C8.35541 27.7646 8.74552 27.3843 9.2552 27.1284C9.69929 26.906 10.0981 26.9371 9.97852 27.5055Z" fill="#FAE6E6"/>
<path d="M10 45.0118C10.4117 44.9508 10.7152 45.1354 11.0125 45.3462C15.4257 48.4783 20.3794 49.1654 25.7786 47.8629C26.0295 47.8023 26.3097 47.8343 26.5761 47.8232C26.7402 47.7098 26.8817 47.7287 27 47.8794C21.5384 50.1209 14.3988 48.9163 10 45.0118Z" fill="#8E3E39"/>
<path d="M7.02904 21.9785C7.07455 20.7176 6.7481 19.5285 6.13497 18.4141C5.70181 17.627 5.1028 17.037 4 17.4091C4.88203 16.7131 5.68663 16.8982 6.39289 18.0179C7.33717 19.5145 7.59142 21.2131 7.61653 22.8741C7.63589 24.1239 8.50955 24.6715 9.23725 25.4008C9.89014 26.0558 10.1873 24.8224 10.7889 25.1275C10.9919 25.5362 9.21737 25.8085 10.6926 26.306C11.0348 26.9171 11.9268 27.1572 12 27.9501C11.0149 28.1993 10.566 27.457 9.95344 27.0145C8.99085 26.0953 8.0204 25.1834 6.96103 24.3524C6.8679 24.23 6.80303 24.0974 6.75857 23.9543C6.66021 23.2737 6.50327 22.5859 7.02904 21.9785Z" fill="#7B6E60"/>
<path d="M27 23.4218C25.5366 23.1213 24.0885 22.7676 22.6065 22.5302C18.8071 21.921 15.3211 22.6579 12 24C12.8979 22.8863 14.5167 22.7398 15.9738 22.4483C19.8071 21.6821 23.5283 21.8305 27 23.4218Z" fill="#7C7B79"/>
<path d="M6.04277 32.0937C5.19731 35.2765 5.51244 38.3535 7.67989 41.2612C7.85219 41.4928 8.11351 41.7066 7.94634 42C5.31773 39.5876 4.75088 36.7907 5.08779 33.8583C5.15504 33.2733 5.0769 32.6146 5.63157 32.0841C5.77376 31.966 5.91083 31.9751 6.04277 32.0937Z" fill="#868485"/>
<path d="M35.3651 38.9283C35.9581 35.5533 35.559 32.3215 34.0147 29.2552C33.9626 29.0235 34.0492 28.9522 34.2655 29.0306C36.0363 32.1451 36.3684 35.4658 35.6363 38.9382C35.5428 39.0238 35.4525 39.0205 35.3651 38.9283Z" fill="#893634"/>
<path d="M1 23.2747C1.01532 22.9351 1.28252 22.9601 1.52761 23.085C2.54594 23.6049 3.72653 23.7319 4.86174 23.9704C5.97822 23.6004 7.09584 23.5861 8.21572 23.9606C8.29968 24.0192 8.38308 24.0773 8.46704 24.1359C9.0979 24.6778 10.2796 24.9449 9.9398 25.9712C9.78549 26.0204 9.64083 26.0066 9.50637 25.9292C8.57824 24.7601 7.15881 24.3892 5.5011 24.3516C3.88425 24.3158 2.40128 23.8921 1 23.2747Z" fill="#816F56"/>
<path d="M34 28.7824C33.9116 28.8551 33.8228 28.9278 33.734 29C32.4891 27.6822 31.2443 26.3644 30 25.0466C30.9028 24.8089 31.2473 25.5375 31.7206 25.9585C32.6426 26.7776 33.4521 27.695 34 28.7824Z" fill="#95716D"/>
<path d="M34.7215 39C34.8141 39.0051 34.9068 39.0081 35 39.0089C34.4658 40.8946 33.7043 42.6714 32 44C32.9307 42.3435 34.0913 40.7862 34.7215 39Z" fill="#893E3A"/>
<path d="M26.451 48C26.301 47.9845 26.1505 47.9686 26 47.9527C27.4964 47.3238 28.9927 46.6952 30.4891 46.0666C30.6843 45.9631 30.8548 45.9802 31 46.1179C29.6753 46.9677 28.1996 47.6419 26.451 48Z" fill="#83342F"/>
<path d="M5.35204 33C5.23488 32.9967 5.11716 32.9934 5 32.99C5.294 31.5201 5.87873 30.1596 7 29C6.45031 30.3335 5.90118 31.6665 5.35204 33Z" fill="#737270"/>
<path d="M3.76667 18C3.82384 18.6279 3.58468 19.2621 4 20C2.9057 19.8687 1.96422 19.5796 1 19.828C1.02217 19.7559 1.01283 19.6344 1.07 19.6178C3.08186 19.0392 3.08303 19.0404 3.76667 18Z" fill="#676867"/>
<path d="M8.69812 26.1041C8.83849 26.0785 8.97931 26.0524 9.11968 26.0268C9.24374 25.9787 9.35966 25.9966 9.46924 26.0707C9.7545 26.4611 10.234 26.7925 9.86725 27.3848C9.74409 27.361 9.62093 27.3372 9.49776 27.313C9.36147 27.0411 9.25597 26.7184 8.88649 27.1074C8.59987 27.4091 8.44093 27.8398 8.01304 28C7.85366 27.2246 9.21794 27.0118 8.69812 26.1041Z" fill="#715C52"/>
<path d="M30.4175 46C30.2782 45.9765 30.1393 45.953 30 45.9301C30.7173 45.3578 31.1593 44.3989 32 44C31.7627 44.9773 31.0425 45.4378 30.4175 46Z" fill="#893E3A"/>
<path d="M14.0837 27.8909C14.317 27.9608 14.5481 28.0251 14.6849 27.7605C18.5043 25.188 24.5625 25.4715 28.1214 28.3705C29.2497 29.2896 30.2696 30.2683 30.9057 31.5097L30.8986 31.5002C32.524 34.4125 32.3011 37.269 30.5546 40.0797C27.0971 45.126 20.1816 46.4922 14.5753 43.2363C13.7217 42.7817 13.1259 42.0876 12.4244 41.4912C12.057 40.8911 11.5632 40.3562 11.2116 39.7475L11.2187 39.7589C9.35556 36.3055 9.57523 33.0161 12.2478 29.92C13.4034 29.55 13.3821 30.6548 13.9965 30.9658C14.2619 31.2299 14.4892 31.5139 14.62 31.8499C14.7356 32.1949 14.7203 32.5398 14.6222 32.8848C13.924 34.4035 13.9877 35.8925 14.8615 37.3475C15.2267 38.0828 15.9163 38.5794 16.5818 39.0935C19.3367 40.7262 22.139 40.5665 24.4856 38.6394C26.7227 36.8031 26.9532 34.3653 25.1294 31.8055C25.0356 31.7048 24.9517 31.5976 24.8699 31.4903C22.8482 29.5897 20.3555 29.0572 18.301 30.0934C18.1735 30.2626 18.0263 30.4143 17.8263 30.523C16.3196 30.4965 14.5285 29.2358 14.0837 27.8909Z" fill="#FDFDFD"/>
<path d="M13.057 28.1997C14.1737 29.1943 15.1331 30.3677 16.754 30.7878C16.7743 30.4541 17.0361 30.5236 17.2682 30.5409C17.5853 30.6618 17.7698 30.8919 17.9088 31.1598C18.3796 33.0865 16.9745 34.3756 14.924 33.9014C14.7286 33.8006 14.563 33.6671 14.4198 33.5126C13.9657 33.0524 13.7483 32.434 13.1929 32.0391C13.0533 31.8361 12.9143 31.6331 12.7748 31.4296C11.8431 30.0186 10.7003 28.7369 9.66833 27.3876L9.66363 27.3815C9.73521 26.8261 9.06532 26.5703 9 26.0709C9.64272 25.782 9.80576 26.4629 10.2541 26.5656C10.8796 26.9442 11.3755 27.5019 12.1567 27.6667C12.5919 27.662 12.8652 27.8762 13.057 28.1997Z" fill="#F16F25"/>
<path d="M14.4935 42.9087C20.2299 46.0206 25.5017 44.3508 28.3261 41.5965C28.8311 41.1039 29.2422 40.5376 29.6969 40.0057C29.935 39.9833 30.0918 40.0181 29.9402 40.2692C26.8242 45.2719 19.1423 46.5521 14 42.9256C14.161 42.8387 14.3257 42.8332 14.4935 42.9087Z" fill="#923E3A"/>
<path d="M30 32C28.8504 30.6825 27.9197 29.1971 26.3222 28.2343C22.2401 25.7743 18.1397 25.9521 14 28.0807C14.0048 27.8214 14.1296 27.6198 14.3662 27.4855C19.6258 24.4963 26.8889 26.1191 29.9242 31.4467C30.0129 31.6009 29.978 31.8143 30 32Z" fill="#883C39"/>
<path d="M12 30.0949C9.33169 32.8039 8.79362 35.7652 10.2138 38.968C10.3619 39.3016 10.7084 39.6045 10.5609 40C9.53247 39.621 9.50737 38.7917 9.34883 38.1274C8.64977 35.2048 8.8126 32.389 11.6107 30.0321C11.7613 29.9754 11.8923 29.9924 12 30.0949Z" fill="#823533"/>
<path d="M30.2648 41C30.1764 40.9075 30.0879 40.815 30 40.7226C31.864 37.8908 31.6123 34.9637 30.553 32C32.4702 34.1959 32.1905 36.5971 31.3806 39.0059C31.1478 39.6976 30.9297 40.4538 30.2648 41Z" fill="#963F3F"/>
<path d="M11.8074 29.7224C11.7004 29.7021 11.5934 29.6818 11.4859 29.661C11.3117 28.6236 10.1691 28.0393 10 27C11.2345 28.1861 12.3974 29.4176 13 31C12.362 30.763 12.3943 30.0005 11.8074 29.7224Z" fill="#872D14"/>
<path d="M14 42.9793C13.8456 42.9864 13.6907 42.9929 13.5363 43C12.9507 42.5897 12.4484 42.0875 12.0947 41.4201C11.9571 41.2636 11.9694 41.1239 12.1322 41C12.7548 41.6598 13.3774 42.3196 14 42.9793Z" fill="#7C2B27"/>
<path d="M12 41.626C11.9895 41.7508 11.9785 41.8752 11.9679 42C11.527 41.4083 10.9987 40.8723 11 40C11.4987 40.4083 11.7139 41.046 12 41.626Z" fill="#823533"/>
<path d="M7.83159 23.8686C6.75556 24.0751 5.67845 24.0067 4.60242 23.8784C3.97897 23.0441 2.64909 23.2022 1.92956 22.5014C1.53158 22.1135 0.751444 21.8508 1.07791 21.1871C1.42567 20.4807 2.23146 20.7244 2.89803 20.7067C3.50729 20.6905 4.08324 21.4643 4.60624 20.9528C5.00368 20.564 4.67394 19.9138 4.61116 19.3781C4.54783 18.8331 4.51398 18.1955 5.27118 18.0253C5.96506 17.8695 6.30462 18.4685 6.53774 18.8828C7.05855 19.8078 7.45435 20.7844 7.90092 21.7391C7.94951 22.4502 8.1313 23.165 7.83159 23.8686Z" fill="#FBCA49"/>
<path d="M11 25.9896C10.4307 26.0757 10.2024 25.601 9.70184 25.5727C9.63258 25.5515 9.56385 25.5306 9.49513 25.5102C8.99675 25.0068 8.49838 24.5034 8 24C9.36688 24.3709 10.0427 25.2927 11 25.9896Z" fill="#F8DABD"/>
<path d="M18.4811 31.0783C18.3695 30.9664 18.2584 30.8541 18.1467 30.7422C18.9148 29.5462 20.218 30.1739 21.3145 30.0976C22.6966 30.2675 23.7207 30.9981 24.8033 31.6391L24.7464 31.6708C27.1016 34.611 25.939 37.8758 22.9167 39.3326C21.029 40.2424 19.1488 40.1283 17.2209 39.5501C16.7341 39.4039 16.295 39.1556 15.8286 38.9635C15.199 38.5953 14.6966 38.137 14.3869 37.5446C14.3682 37.4376 14.3784 37.3329 14.4197 37.229C14.1567 36.3228 13.8642 35.4192 14.0687 34.4764C14.1878 33.9245 14.3832 33.4012 15.0654 33.1315C15.2183 33.1217 15.3531 33.1583 15.4701 33.2398C15.5334 33.2782 15.5903 33.3223 15.6407 33.3722C15.7111 33.5479 15.8774 33.6602 16.0621 33.7266C17.0223 34.0716 17.9889 34.8339 18.3813 35.5708C19.0726 36.2144 19.8723 36.4244 20.679 35.7834C21.526 35.1107 21.2313 34.3797 20.6098 33.6976C20.4182 33.4837 20.1541 33.3834 19.8476 33.3183C19.107 33.1614 18.4532 32.9657 18.889 32.1223C19.0957 31.7202 18.604 31.4318 18.4811 31.0783Z" fill="#F8413B"/>
<path d="M16 39.6824C17.3136 39.8425 18.4296 40.5841 19.8473 40.554C23.7752 40.4709 26.3838 37.2197 25.2016 33.778C24.9953 33.1769 24.4879 32.6739 24.5253 32C26.567 34.0024 26.4793 37.0991 24.3206 39.2386C22.1327 41.4073 18.6199 41.5947 16 39.6824Z" fill="#8C3A36"/>
<path d="M24 31C22.8761 30.8079 22.08 30.0019 20.9365 29.8459C20.103 29.3367 19.1709 29.5289 18.2727 29.6197C17.8443 29.6628 17.4365 29.8438 17 29.665C17.5176 28.8056 18.5015 29.0287 19.3263 29.0197C21.2695 28.9994 22.8992 29.5797 24 31Z" fill="#967A7A"/>
<path d="M17 30.4206C18.2987 30.046 19.5989 29.7437 20.918 30.3267C20.951 30.3416 20.9728 30.3842 21 30.4139C20.9078 30.4878 20.8161 30.5617 20.7243 30.6356C19.6663 30.5664 18.5918 30.3313 17.6037 30.9779C17.4353 30.9846 17.2669 30.9913 17.1005 31C17.0679 30.8086 17.034 30.6146 17 30.4206Z" fill="#F8D7D7"/>
<path d="M13.7503 37.9884C12.8842 36.3898 12.7407 34.7309 13.4624 33C13.5147 33.0492 13.567 33.099 13.6192 33.1482C13.8279 33.5567 13.6731 33.9376 13.5847 34.3432C13.3052 35.6241 13.7724 36.7949 14 38C13.9172 37.9961 13.8339 37.9923 13.7503 37.9884Z" fill="#7E6D65"/>
<path d="M16 33C15.7762 32.9972 15.5524 32.9944 15.3294 32.9913C14.9566 33.0094 14.6322 32.937 14.3119 32.8568C14.2385 32.8258 14.1643 32.7952 14.0895 32.7649C14.1664 32.5068 14.2825 32.2476 14 32C15.1084 32.1139 15.5 32.5838 16 33Z" fill="#7E6D65"/>
<path d="M18.6548 31C19.1078 32.12 19.64 33.1807 21 33.6173C20.5154 33.7434 19.8959 33.731 20.2149 34.5036C20.3699 34.8786 20.1597 35.3604 19.6741 35.1308C18.4651 34.5588 18.6924 35.5642 18.3939 36C18.3212 35.9439 18.2008 35.8983 18.1832 35.8302C17.9108 34.7875 17.5918 33.794 16.1299 33.714C16.0793 33.7112 16.0431 33.4876 16 33.3666C16.7108 33.8502 17.2903 33.6716 17.9228 33.1659C18.6844 32.5567 19.0757 31.9125 18.6548 31Z" fill="#5A2C29"/>
<path d="M18.2912 35.4294C18.2791 35.3145 18.2837 35.197 18.2521 35.0845C18.1568 34.7458 17.7575 34.3284 18.2159 34.0879C18.6795 33.8448 19.0414 34.3473 19.5003 34.4344C19.706 34.4737 19.8933 34.5625 20.1 34.6328C20.4677 34.0359 19.154 33.6124 19.7445 33.1227C20.1414 32.7937 20.7572 33.2205 21.2747 33.3105C22.195 34.0326 22.2478 34.9331 21.3856 35.5321C20.5475 36.1143 19.2735 36.2318 18.2912 35.4294Z" fill="#F9F5F5"/>
<path d="M14.2854 33.2102C14.6223 32.8021 14.7907 33.057 14.939 33.3926C14.2517 34.8984 14.413 36.391 14.9969 37.8793C15.0099 37.9123 14.978 38.0005 14.9709 38C14.894 37.9948 14.8181 37.9769 14.7427 37.9647C13.8956 36.4546 13.8169 34.8616 14.2854 33.2102Z" fill="#F9DFDE"/>
</svg>
