<svg width="80" height="80" viewBox="0 0 80 80" fill="none" xmlns="http://www.w3.org/2000/svg">
<path d="M29.8125 15.0572C35.7712 11.798 41.7299 8.53827 47.6891 5.28076C48.0715 5.07188 48.4408 4.73532 48.8023 5.3558C51.3256 9.68795 54.2282 13.8179 56.5337 18.266C56.3446 18.9307 55.8737 19.3894 55.1719 19.437C53.2779 19.5669 51.369 19.8295 49.4987 19.2482C48.6418 17.8617 49.243 16.329 49.0081 14.8814C48.9546 14.3634 49.1913 13.9787 49.6343 13.6835C50.2242 13.291 50.1059 12.8139 49.7978 12.3227C48.4991 11.1277 46.7864 10.5627 45.2825 9.6829C45.0172 9.52779 44.6658 9.49755 44.3964 9.64595C42.8306 10.5072 41.0329 11.028 39.8132 12.3961C39.6092 13.0832 39.9904 13.6471 40.2509 14.2368C40.1034 18.4077 42.8663 21.3477 45.1427 24.4904C45.3734 24.557 45.6012 24.6281 45.8284 24.7043C48.4295 24.8801 51.0312 24.7765 53.6311 24.7693C54.9251 24.7659 56.0479 25.0067 56.9363 25.9503C57.5976 26.6531 58.4718 26.8401 59.4334 26.8133C60.3522 26.7875 61.2745 26.7819 62.1213 27.2075C63.8608 29.9991 65.5794 32.803 67.3551 35.5739C67.7868 36.2476 67.628 36.5589 66.9406 36.8776C66.3096 37.1704 65.7316 37.5647 65.1304 37.9141C65.0519 38.1146 64.9633 38.3095 64.7926 38.4601C59.9478 41.0159 55.2445 43.807 50.3081 46.211C50.0369 46.3432 49.7586 46.4664 49.4547 46.5252C47.8895 46.2838 47.475 44.9107 46.8482 43.9173C41.6549 35.6831 36.6852 27.3257 31.5686 19.0483C31.0019 18.1316 30.5261 17.169 29.9326 16.2657C29.6924 15.8994 29.4783 15.4923 29.8125 15.0572Z" fill="#5A423C"/>
<path d="M15.7323 37.6812C16.6189 38.0799 16.1045 48.7574 16.2312 48.8195C16.6094 49.1415 17.3926 49.1561 17.1892 49.9255C15.9481 50.9212 15.4242 52.3677 14.5905 53.6181C14.2093 54.1899 14.4698 54.648 15.071 54.9117C16.786 55.6644 18.2686 56.818 20.0532 57.4513C21.9865 57.6305 23.9305 57.3494 25.8584 57.5986C28.7884 58.1967 31.0529 60.0285 33.5417 61.4032C38.2081 63.9809 42.9845 66.3777 47.5957 69.0455C48.8605 69.7775 50.2937 69.2774 51.6412 69.4219C52.4119 69.5047 53.3028 69.1486 53.8867 69.946C53.8719 70.2658 53.656 70.4735 53.3961 70.6203C51.5425 71.6675 49.7139 72.7589 47.7021 73.5334C46.9332 73.6538 46.3236 73.2959 45.698 72.9566C37.7674 68.6547 29.8761 64.2884 21.9318 60.0089C15.5866 56.5906 9.27289 53.1226 2.9384 49.6881C2.00773 49.1835 1.05327 48.721 0.0322094 48.3922C-0.0540187 47.9846 0.0179374 47.6553 0.463945 47.4475C1.4404 46.9934 15.1578 38.1006 15.7323 37.6812Z" fill="#D1E2DE"/>
<path d="M64.8075 38.2024C64.9157 38.1066 65.0233 38.0103 65.1316 37.9146C65.1357 40.6989 65.2214 43.4865 65.1078 46.2664C65.0572 47.5079 65.5342 48.1457 66.6343 48.727C70.7632 50.9093 74.8349 53.1868 78.9424 55.405C79.6643 55.7947 80.2388 56.1823 79.9004 57.0749C79.0173 56.7064 78.3168 57.1701 77.6222 57.5515C70.6829 61.3634 63.6603 65.0398 56.7353 68.8752C55.9046 69.3355 55.1107 69.914 54.048 69.779C52.4317 69.4845 50.8005 69.7241 49.18 69.6424C48.5246 69.424 48.8701 69.0734 49.0896 68.8001C49.4618 68.3376 50.0405 68.1281 50.556 67.8476C56.8198 64.4882 63.0686 61.1007 69.3021 57.6892C71.4697 56.5031 71.494 56.4298 71.0896 53.9943C69.6672 52.4062 67.5793 51.802 65.6388 50.7072C65.4717 51.6855 65.7114 52.6291 65.4866 53.52C65.3397 54.1019 65.0578 54.6613 64.5327 53.6852C64.1985 49.604 64.4471 45.5204 64.396 41.4403C64.3823 40.3561 64.1367 39.2205 64.8075 38.2024Z" fill="#A495A2"/>
<path d="M29.8125 15.0571C30.8568 17.4578 32.4107 19.5998 33.7362 21.8566C35.3121 24.5401 36.847 27.2668 38.5733 29.8444C40.4959 32.715 41.9802 35.8112 44.0485 38.6101C45.1849 40.1484 45.9943 41.9583 47.0754 43.5683C47.748 44.5696 48.1791 45.8229 49.5005 46.3448C49.516 46.9306 49.0575 46.8544 48.6679 46.8751C47.5048 46.2098 46.1453 45.8033 45.3378 44.6609C44.9821 42.7771 43.6649 41.3267 42.7931 39.6758C42.6671 39.4383 42.5481 39.197 42.4226 38.9595C42.0361 38.1313 41.5217 37.3736 40.9728 36.6344C40.6713 36.1971 40.3514 35.7715 40.041 35.3397C39.5367 34.2679 38.9438 33.3097 37.6694 32.8444C37.02 32.6075 36.7821 32.1208 37.6254 31.7132C36.6864 31.2019 36.9421 30.0292 36.191 29.4132C36.0364 29.2867 35.9026 29.1411 35.7968 28.9742C35.5393 28.2098 35.4388 27.3855 34.8423 26.7493C33.1154 24.114 31.7131 21.2989 29.8238 18.7559C29.3766 18.1433 28.8866 18.4031 28.3639 18.6652C25.67 20.0142 23.173 21.6774 20.4731 23.0197C19.1696 23.6682 17.966 24.5166 16.5845 25.0044C15.2691 25.4692 14.5751 26.6088 13.4631 27.2735C12.4842 26.7701 11.5054 26.2666 10.2191 25.6053C16.8944 22.0106 23.3537 18.5336 29.8125 15.0571Z" fill="#735952"/>
<path d="M0.0316919 48.3928C0.518138 47.9213 0.961767 48.2248 1.40302 48.4651C10.5301 53.4351 19.6543 58.409 28.7825 63.3767C34.6467 66.5687 40.5149 69.7534 46.3826 72.9392C46.7834 73.1565 47.1997 73.3413 47.6832 73.3016C47.8955 73.9226 47.7854 74.4888 47.3555 75C44.5528 73.8324 41.9986 72.2381 39.3446 70.8185C33.3086 67.589 27.3095 64.2973 21.2973 61.0286C14.5323 57.3506 7.77201 53.6647 1.00161 49.9955C0.317137 49.6248 -0.125303 49.1852 0.0316919 48.3928Z" fill="#9EAEAA"/>
<path d="M49.5231 19.1375C50.9949 19.133 52.4703 19.0658 53.9368 19.1453C54.9775 19.2019 55.8207 18.9588 56.5343 18.2661C58.6139 21.1266 60.3635 24.1696 62.1219 27.2082C60.8701 27.216 59.6165 27.1953 58.3665 27.2412C57.4495 27.2748 56.9988 26.6504 56.51 26.1324C55.8481 25.4307 55.1089 25.1575 54.1021 25.1849C51.7103 25.2493 49.315 25.2135 46.9214 25.2C46.4326 25.1972 45.8878 25.354 45.4924 24.9088C45.553 24.0078 46.382 23.7754 47.0302 23.5223C48.524 22.9387 49.3268 22.0467 49.1151 20.4551C49.0545 19.9982 49.0723 19.4891 49.5231 19.1375Z" fill="#482B2B"/>
<path d="M15.6223 48.6733C15.6485 44.1362 15.6741 39.5996 15.7002 35.0625C17.7769 35.4416 19.5401 36.3404 20.9358 37.8569C21.1481 40.1971 21.047 42.5402 21.0012 44.8815C20.9798 45.9674 20.4428 46.8723 19.3926 47.3119C18.2038 47.8097 17.3088 49.0843 15.733 48.6234L15.6223 48.6733Z" fill="#9D6C87"/>
<path d="M30.1265 18.557C32.0063 21.1409 33.4983 23.9375 35.1343 26.6552C33.8896 27.1575 33.1891 26.1097 32.243 25.7614C30.563 24.9432 28.9425 24.0215 27.262 23.2067C25.4559 23.1294 24.2356 24.353 22.7924 25.0457C22.0413 25.4058 21.3437 25.9098 20.5861 26.2968C19.4425 26.8187 18.3156 27.3624 17.2773 28.0624C16.7939 28.3884 16.2919 28.7944 15.6206 28.422C15.0306 28.2652 14.5388 27.965 14.1446 27.5226C13.9703 26.9559 14.4383 26.7442 14.8142 26.5359C19.6067 23.8826 24.4396 21.296 29.2559 18.6819C29.5205 18.5385 29.8084 18.4226 30.1265 18.557Z" fill="#D99C73"/>
<path d="M20.598 37.6818C18.965 36.8087 17.3326 35.9351 15.6996 35.0627C15.2905 34.2742 13.7241 34.4511 13.8294 33.1536C14.5305 33.1077 14.8909 33.8038 15.6015 33.6531C15.6437 33.0607 15.6866 32.457 15.73 31.8533C16.7207 31.4893 17.6175 32.5079 18.6159 32.0258C18.9983 32.2347 18.883 32.7174 19.2023 32.9638C21.3306 34.389 23.7557 35.3449 25.8924 36.7449C26.9949 37.4673 28.4626 37.8375 28.8819 39.2845C29.0347 40.0119 29.0805 40.7382 28.8491 41.459C28.4644 42.0906 27.9494 41.777 27.5385 41.5491C26.9271 41.2103 26.2944 40.9281 25.623 40.5719C26.1517 41.0037 26.9706 40.937 27.1394 41.7059C27.0146 41.9904 26.7761 42.1416 26.471 42.2178C25.5612 42.3225 24.9522 41.6712 24.1851 41.4142C23.7082 41.175 23.2966 40.8799 23.1813 40.3412C23.299 39.7034 23.1075 39.252 22.426 38.9614C21.7303 38.6634 21.1166 38.2233 20.598 37.6818Z" fill="#A77053"/>
<path d="M54.4589 69.5105C57.6809 68.1564 60.6001 66.2893 63.6651 64.6698C68.6533 62.0345 73.6164 59.3566 78.5671 56.6585C79.298 56.2598 79.7095 56.2088 79.9004 57.0757C79.6631 57.4072 79.6411 57.8009 79.1553 58.0596C71.1158 62.3419 63.1008 66.6657 55.0804 70.9805C54.2312 71.0258 54.1324 70.5162 54.177 69.8996C54.2371 69.7479 54.3311 69.618 54.4589 69.5105Z" fill="#46444B"/>
<path d="M18.7521 32.169C17.6127 33.1848 16.7397 31.9394 15.7306 31.8526C15.6937 30.7085 15.6574 29.565 15.6206 28.4214C17.0704 28.0446 18.1057 26.9666 19.4515 26.4021C19.8279 26.2442 20.1591 26.0476 20.5837 26.0784C21.4639 27.6811 21.0315 29.3583 20.9025 31.0187C20.463 31.8598 19.7946 32.3258 18.7521 32.169Z" fill="#9F6C87"/>
<path d="M30.1265 18.5571C25.1027 21.3044 20.0788 24.0523 15.0544 26.798C14.7041 26.9895 14.2992 27.1155 14.144 27.5226C13.8865 27.512 13.6189 27.526 13.4613 27.2734C13.9888 26 15.0954 25.3459 16.3217 24.7361C19.6358 23.0869 22.9214 21.3918 26.0613 19.4435C26.9075 18.9183 27.8965 18.4977 28.7986 17.9976C29.5883 17.5592 29.8922 17.9355 30.1265 18.5571Z" fill="#A86855"/>
<path d="M12.9618 47.4769C12.9534 47.7636 12.9802 48.0565 12.9296 48.3365C12.7768 49.1854 13.4643 50.3558 12.3944 50.8274C11.0701 51.412 9.56258 51.5744 8.11097 51.0306C7.42293 50.773 6.767 50.4404 6.0968 50.1414C6.23596 49.8233 6.45777 49.559 6.70635 49.3114C7.46277 48.6865 8.30603 48.2262 9.31876 48.0817C9.63513 48.0621 9.93544 48.1047 10.1965 48.2889C10.2911 48.3987 10.3226 48.561 10.4159 48.6484C10.5111 48.7374 10.4683 48.5767 10.4724 48.5482C10.5105 48.3029 10.5997 48.0246 10.8173 47.9417C12.599 47.2624 12.1423 45.8159 12.1696 44.5313C12.3284 44.1959 12.5526 44.0659 12.8999 44.3235C12.9207 45.3752 12.9415 46.4258 12.9618 47.4769Z" fill="#A0929C"/>
<path d="M6.75868 49.4865C6.72062 49.8685 6.56481 50.1445 6.0968 50.1417L6.00165 50.0297C5.76973 48.1504 5.58241 46.2693 5.67577 44.3726C5.70848 43.7101 5.66923 43.0387 6.03198 42.4322C6.83955 41.7362 7.50857 40.7562 8.87394 41.1722C8.90189 41.7322 8.92984 42.2922 8.95779 42.8522C9.04818 42.9642 9.09516 43.0902 9.09397 43.2319C9.00656 43.7376 8.55698 44.0187 8.27986 44.4073C7.81482 45.5341 8.13417 46.6199 8.46956 47.7052C8.29057 48.6314 7.06553 48.6673 6.75868 49.4865Z" fill="#6F822C"/>
<path d="M54.4012 69.7673C54.4006 70.2842 54.4815 70.7607 55.0809 70.9797C52.5411 72.3791 50.1047 73.9567 47.3555 74.9999C47.3936 74.4215 47.2431 73.8111 47.6832 73.3015C49.7128 72.2072 51.743 71.113 53.7727 70.0193C53.9457 69.8547 54.1039 69.657 54.4012 69.7673Z" fill="#596C69"/>
<path d="M8.94411 43.1641C10.3945 42.5895 11.5357 43.1966 12.6216 44.0164C12.7144 44.1189 12.8077 44.2214 12.9005 44.3238C12.6983 44.3877 12.4961 44.4515 12.2945 44.5154C11.9954 45.3934 11.1563 45.5323 10.3785 45.7585C9.25632 45.5883 7.96468 45.623 7.99442 44.0377C8.36787 43.8014 8.77523 43.5975 8.94411 43.1641Z" fill="#D4EFA4"/>
<path d="M8.87453 41.1723C7.91413 41.2523 7.28377 41.9826 6.42982 42.2715C5.25414 42.6423 4.52982 41.8863 3.73117 41.3139C3.70976 41.2473 3.68836 41.1801 3.66754 41.1129C5.71561 39.3836 6.75808 39.3954 8.87453 41.1723Z" fill="#D8F1A9"/>
<path d="M3.68836 47.4721C3.16207 47.0806 3.47606 46.5262 3.37734 46.0519C3.55932 44.41 3.0913 42.7345 3.66636 41.1133L3.7508 41.2085C4.36034 43.3012 4.5108 45.3911 3.68836 47.4721Z" fill="#D8F1A9"/>
<path d="M48.5645 46.6413C48.9034 46.6183 49.2757 46.6889 49.4999 46.345C54.6403 43.694 59.5577 40.6711 64.8069 38.2026C64.8479 43.5198 64.8889 48.837 64.9306 54.1542C64.9597 54.7568 64.4417 54.9729 64.0219 55.2003C59.3816 57.7147 54.7265 60.2044 50.0916 62.7261C49.5534 63.019 48.9986 63.2738 48.3635 62.9372C47.9674 62.5967 48.0358 62.1487 48.0459 61.7198C48.1476 57.3809 48.0536 53.0415 48.0988 48.7026C48.1066 47.9942 47.9692 47.2393 48.5645 46.6413Z" fill="#7F566F"/>
<path d="M49.5231 19.1373C49.9168 21.5862 49.2727 23.4661 46.4629 24.2249C46.0995 24.3229 45.8141 24.6746 45.4924 24.9086C45.2759 24.8986 45.0588 24.889 44.8424 24.879C44.0402 22.3382 44.4588 19.755 44.5361 17.1846C45.6434 15.6121 47.1259 14.6047 49.1859 14.4775C49.871 15.994 49.3114 17.59 49.5231 19.1373Z" fill="#884835"/>
<path d="M44.8679 16.8297C44.8596 19.5132 44.8513 22.1962 44.8424 24.8797C42.8966 22.591 41.5372 19.959 40.1242 17.383C39.6657 16.548 40.0279 15.3138 40.0148 14.2621C41.1155 13.9989 41.7298 14.9056 42.5844 15.2304C43.2831 15.4958 43.9004 15.9393 44.5534 16.3061C44.7341 16.44 44.8555 16.6057 44.8679 16.8297Z" fill="#DA9D76"/>
<path d="M39.3779 12.1571C40.7998 10.7863 42.7212 10.1714 44.4118 9.20708C44.6366 9.07884 44.8822 8.99316 45.129 9.15276C46.7489 10.2005 48.7298 10.7185 50.0892 12.1493C48.6091 13.528 46.8126 14.405 44.8775 15.0652C42.83 14.4571 41.0507 13.3959 39.3779 12.1571Z" fill="#977B73"/>
<path d="M44.928 14.8334C46.6484 13.9391 48.3688 13.0442 50.0892 12.1499C51.36 13.4665 49.9013 13.8439 49.1865 14.4778C47.6165 15.049 46.2827 16.0049 44.8685 16.8292C44.7728 16.7251 44.6777 16.6209 44.5819 16.5168C44.3791 15.898 44.0628 15.2579 44.928 14.8334Z" fill="#492B27"/>
<path d="M44.928 14.8335C44.375 15.3145 45.0874 16.0268 44.5819 16.5168C42.9293 15.9988 41.605 14.8911 40.0148 14.2617C39.2114 13.7191 39.3303 12.9289 39.3779 12.1572C41.3915 12.7491 42.9578 14.1626 44.928 14.8335Z" fill="#745951"/>
<path d="M28.5411 41.6493C28.5429 40.7981 28.5453 39.9464 28.547 39.0952C28.0321 37.983 28.2218 36.765 27.9553 35.6159C27.7097 33.3406 27.9036 31.0569 27.8263 28.7783C27.8091 28.2766 27.9898 27.7115 27.4314 27.3363C27.2221 27.2058 27.0247 27.0597 26.8219 26.9208C26.6572 26.806 26.471 26.722 26.3069 26.6078C25.4583 26.0153 24.9522 25.2296 25.2287 24.239C25.5017 23.2618 26.4116 23.0148 27.3761 22.9487C29.0918 23.6616 30.7123 24.5352 32.2786 25.5018C32.7288 25.9677 32.7722 26.5478 32.7716 27.1297C32.7591 36.3814 32.8489 45.6337 32.7294 54.8826C32.6919 55.4578 32.7407 56.039 32.6717 56.6142C32.5213 57.8652 31.8737 58.2185 30.673 57.6143C29.5009 57.0241 28.3859 56.3319 27.2691 55.6493C26.6631 55.2791 25.9667 55.087 25.3376 54.7667C24.5585 54.2067 23.7534 53.6798 22.894 53.2301C21.468 52.492 20.0783 51.694 18.6338 50.9839C18.0694 50.7067 17.4052 50.4659 17.2256 49.7654C16.8188 49.5033 16.4127 49.2418 16.0059 48.9797C16.9538 48.3665 18.0373 48.5485 19.081 48.5278C20.2394 48.5043 21.399 48.5463 22.5539 48.4471C22.7234 48.4331 22.8935 48.4387 23.0623 48.4555C24.1227 48.7103 25.3917 48.3027 26.2183 49.3191C26.4443 49.5851 26.6197 49.9087 27.0425 49.9535C27.9042 49.9625 27.8221 49.3734 27.8281 48.8526C27.8483 47.0936 27.8168 45.3347 27.8453 43.5757C27.8578 42.8735 27.7799 42.1214 28.5411 41.6493Z" fill="#F9F1F7"/>
<path d="M25.2311 54.4263C27.1888 54.7931 28.6059 56.1096 30.2865 56.9631C30.7943 57.2207 31.2237 57.8669 31.9028 57.5505C32.6128 57.2195 32.1662 56.5201 32.2798 55.9937C32.3298 55.7619 32.3096 55.5166 32.3215 55.2775C32.4446 55.1789 32.5831 55.1061 32.7359 55.0563C33.1421 54.9779 33.5269 54.9997 33.8528 55.2775C33.8831 55.81 33.5631 55.7943 33.5049 55.777C36.3177 56.9558 39.1834 58.7276 42.1289 60.3634C42.7325 60.6983 43.0714 61.307 43.056 61.9498C43.0161 63.6382 44.1644 64.1764 45.6274 64.4614C45.867 64.4542 46.1043 64.4603 46.3433 64.4738C47.66 64.5253 49.0247 64.3573 50.1582 65.2225C50.229 65.633 49.8823 65.7937 49.6194 65.9953C48.1155 67.1483 47.9751 67.8024 48.8844 69.4874C50.7428 69.4947 52.6011 69.5025 54.4601 69.5098C54.4464 69.5966 54.4274 69.6829 54.4024 69.7674C54.1931 69.8514 53.9838 69.9354 53.7744 70.0189C52.7498 69.5664 51.6479 69.7428 50.6149 69.8335C48.7809 69.9942 47.3067 69.3838 45.7808 68.5304C40.4911 65.5697 35.126 62.7277 29.8274 59.781C28.6131 59.1056 27.46 58.3412 26.1237 57.8831C25.4886 56.8079 24.7114 55.7652 25.2311 54.4263Z" fill="#C6D4D1"/>
<path d="M17.2268 49.7661C19.1714 50.8273 21.1166 51.8891 23.0612 52.9503C23.0481 53.0169 23.0344 53.083 23.0219 53.1502C21.9979 54.5989 21.3283 56.266 19.9914 57.5232C19.8773 57.605 19.753 57.6694 19.618 57.7153C17.8791 56.807 16.1391 55.9015 14.4032 54.9887C13.9097 54.7288 13.5546 54.3447 13.9019 53.8171C14.6863 52.626 15.5421 51.4791 16.148 50.1872C16.333 49.7924 16.8182 49.802 17.2268 49.7661Z" fill="#C78E67"/>
<path d="M23.0154 48.6755C21.3128 49.1644 19.5656 48.7998 17.8435 48.9124C17.2327 48.9522 16.619 48.9583 16.0071 48.9802C15.9155 48.8615 15.8239 48.7427 15.733 48.6235C17.2524 48.2858 18.4387 47.3343 19.7577 46.6388C20.5272 46.2328 20.6105 45.3995 20.604 44.5943C20.5843 42.2899 20.598 39.9855 20.5992 37.6816C21.5209 38.1235 22.4445 38.562 23.3633 39.0083C24.175 39.4025 23.6725 39.8248 23.3835 40.2397C23.6059 42.4724 23.5428 44.7113 23.5327 46.9485C23.5286 47.5572 23.5964 48.209 23.0154 48.6755Z" fill="#BB93AB"/>
<path d="M3.68837 47.4722C3.70918 45.384 3.7294 43.2958 3.75081 41.2075C4.69099 41.4573 5.43077 42.1539 6.42924 42.2715C5.93387 43.5371 6.26689 44.8503 6.18304 46.1394C6.0986 47.4358 6.06173 48.735 6.00285 50.0314C6.05102 48.5194 4.63747 48.1823 3.68837 47.4722Z" fill="#B6DD74"/>
<path d="M25.2311 54.4263C25.2853 55.6342 26.1576 56.6551 26.1226 57.8837C23.955 57.8109 21.7767 58.12 19.6186 57.7152C19.64 57.6687 19.665 57.6233 19.6941 57.5807C20.1187 57.3271 20.5498 57.0661 20.9929 56.8606C22.2161 56.2933 22.8619 55.4707 22.674 54.1452C22.6193 53.7593 22.8173 53.4037 22.9571 53.0481C22.9571 53.0481 23.0618 52.9507 23.0612 52.9507C23.8277 53.3852 24.7762 53.5846 25.2311 54.4263Z" fill="#A08F9B"/>
<path d="M50.0845 65.3956C48.822 64.8367 47.4703 64.8888 46.1269 64.8804C46.6383 63.6943 47.9549 63.505 48.9207 62.8823C54.2811 60.0117 59.7206 57.2706 64.9306 54.1547C65.5181 52.8594 64.9758 51.4897 65.2785 50.0527C67.3289 51.1671 69.3657 52.272 71.3911 53.3937C71.4334 53.4172 71.3471 53.6451 71.321 53.7778C71.2353 54.4241 70.6264 54.5579 70.1566 54.8183C64.0671 58.1912 57.9253 61.4789 51.7936 64.7824C51.3493 65.0215 50.9741 65.3648 50.4865 65.5361C50.3265 65.5546 50.1915 65.5104 50.0845 65.3956Z" fill="#B8A3B4"/>
<path d="M50.3747 65.405C52.5322 63.6819 55.1279 62.6291 57.5328 61.2879C62.1005 58.7399 66.7217 56.2765 71.321 53.7783C72.1951 55.6616 71.8413 56.7144 69.9984 57.7101C63.5813 61.1776 57.1635 64.6445 50.7463 68.1115C49.4392 67.3527 50.1802 66.3458 50.3747 65.405Z" fill="#5C535D"/>
<path d="M50.3747 65.405C50.8778 66.2606 49.9721 67.2877 50.7463 68.1109C50.1534 68.6037 49.2454 68.7185 48.8838 69.4879C48.2457 69.5921 48.0584 69.3445 47.9436 68.7353C47.6154 66.987 48.3742 65.942 50.0851 65.396C50.1808 65.41 50.2777 65.4128 50.3747 65.405Z" fill="#778282"/>
<path d="M32.57 55.2827L32.4452 55.2866L32.3209 55.2776C32.3072 45.3522 32.2935 35.4268 32.2792 25.502C33.3134 25.7047 34.0187 26.6292 35.1337 26.6555C35.9716 27.2424 35.9853 28.1003 35.9912 28.9605C36.7405 30.4182 36.4128 31.9951 36.3962 33.4942C36.3783 35.0958 36.8154 36.1666 38.455 36.7333C38.8623 36.8738 39.3095 37.0838 39.4278 37.5744C39.1049 38.1837 38.537 38.4351 37.8609 38.5292C37.6272 38.5382 37.3994 38.5023 37.1806 38.4284C36.9165 38.3802 36.4806 38.07 36.4396 38.5135C36.3213 39.7982 36.2422 41.0962 36.505 42.3786C36.5704 42.6978 36.9106 42.7841 37.1889 42.9028C37.8157 43.1492 38.5002 43.3166 38.8344 43.964C38.9277 44.3549 38.7844 44.6718 38.49 44.9412C38.2444 45.0364 38.0048 44.9686 37.7556 44.9356C37.3138 44.8773 36.769 44.3101 36.4491 44.9641C36.1821 45.509 36.4485 46.0707 36.907 46.5103C37.5725 47.147 38.6381 47.3083 39.1192 48.1617C38.9581 48.4372 39.1876 48.7368 39.0651 49.0174C38.7862 49.2509 38.4478 49.336 38.0892 49.3724C37.6658 49.3797 37.3298 49.0835 36.9141 49.0768C36.1351 49.3002 36.4247 49.9212 36.3831 50.3939C36.2874 51.4741 36.5389 52.5734 36.1857 53.6419C35.0998 54.4203 33.8956 54.9702 32.57 55.2827Z" fill="#9D6D86"/>
<path d="M45.5096 64.8731C43.9284 64.3954 42.3477 63.9743 42.6665 61.843C42.7711 61.1441 42.1342 60.6955 41.4515 60.3366C38.6607 58.8699 35.9044 57.3456 33.069 55.8062C33.3681 55.632 33.6072 55.4926 33.8468 55.3537C35.0421 54.521 36.3938 55.0082 37.6789 54.9483C39.0389 55.2809 40.0594 56.3007 41.4349 56.6048C41.8 56.8125 42.1265 56.8904 42.2764 56.3707C42.3453 51.3217 42.2692 46.2817 42.3215 41.2418C42.3281 40.595 42.0165 39.7662 43.0066 39.415C43.9224 41.1152 45.5393 42.509 45.5619 44.5995C45.8789 45.2155 46.0091 45.8623 46.0085 46.5489C46.0062 52.0195 46.0115 57.4907 46.0014 62.9613C46.0008 63.6311 46.0252 64.3165 45.5096 64.8731Z" fill="#F9F1F7"/>
<path d="M45.5096 64.8728C45.5275 58.1148 45.5447 51.3567 45.5625 44.5986C46.385 45.512 47.7658 45.6968 48.5651 46.6409C48.48 51.8691 48.7928 57.1006 48.3974 62.3248C48.3664 62.7297 48.6073 62.812 48.9207 62.8815C48.3022 63.9348 46.9915 64.1308 46.1269 64.8801C45.9211 64.8773 45.7154 64.8751 45.5096 64.8728Z" fill="#9C6C87"/>
<path d="M39.3333 37.6691C36.2499 36.8089 35.6606 34.6596 35.9555 31.994C36.0661 30.9928 35.9853 29.9719 35.9918 28.96C36.6573 29.2937 37.2947 29.5104 37.1419 30.5347C37.0753 30.9804 37.9263 31.5483 38.358 32.0573C38.0601 32.5546 37.6182 31.7936 37.2281 32.3312C38.8308 32.801 40.0255 33.6572 40.2973 35.2963C40.0332 35.4431 39.9197 35.5943 40.0237 35.6486C40.4626 35.8793 40.7748 36.2646 41.2101 36.4975C41.8851 37.1959 42.4024 37.981 42.695 38.8899C42.3549 39.5098 41.762 39.1351 41.2809 39.2102C40.5417 38.798 39.4754 38.7499 39.3333 37.6691Z" fill="#9E604D"/>
<path d="M41.4278 39.0642C41.8095 38.7433 42.3317 39.3319 42.6944 38.8906C42.7985 39.0653 42.9026 39.2395 43.0066 39.4142C42.541 39.8577 42.7551 40.4161 42.7533 40.9201C42.7366 45.9063 42.7521 50.8925 42.7289 55.8787C42.7265 56.3542 43.0316 56.9567 42.3447 57.2871C41.7245 56.3682 42.07 55.3428 41.9844 54.3656C41.8815 53.1907 42.1782 51.9963 41.7869 50.8382C41.0608 49.9909 39.787 49.8145 39.1073 48.9084C38.9896 48.6934 38.8017 48.4896 38.9771 48.2252C40.1165 47.9128 40.8248 48.8888 41.9707 49.0927C42.0902 48.0136 41.982 46.9428 41.9915 45.8766C41.9124 43.9508 42.1063 42.0227 41.8738 40.1036C41.7102 39.7637 41.3356 39.5021 41.4278 39.0642Z" fill="#DFD5D3"/>
<path d="M41.2095 36.499C40.2241 36.2722 39.3833 35.8544 38.7779 34.9735C39.4754 34.7047 39.8138 35.2552 40.2961 35.2978C40.7819 35.5755 40.9883 36.0426 41.2095 36.499Z" fill="#D19975"/>
<path d="M27.3767 22.9488C26.7178 23.5866 25.2847 23.5569 25.5606 25.0129C25.7313 25.9106 26.5067 26.1542 27.0616 26.6515C27.0384 26.8425 26.9331 26.9909 26.7928 27.1236C26.6393 27.2518 26.4681 27.3409 26.2558 27.3453C26.1172 27.3274 25.987 27.2871 25.8609 27.2305C25.4024 26.9993 25.0866 26.6683 24.9231 26.1884C24.7714 25.7426 24.3677 25.4514 23.9062 25.5287C23.2764 25.634 23.5417 26.194 23.4929 26.5843C23.415 28.4849 23.7438 30.3956 23.2901 32.2823C22.0954 32.8518 21.4109 32.606 20.5742 31.3096C20.5778 29.5663 20.5808 27.823 20.5837 26.0797C22.3475 24.6585 24.4307 23.735 26.4681 22.741C26.8171 22.5702 27.1549 22.5669 27.3767 22.9488Z" fill="#BC8DA4"/>
<path d="M28.3502 35.5745C28.8468 36.727 28.4995 37.9209 28.5471 39.0952C27.3648 37.6723 25.5808 37.0468 24.0323 36.1194C22.548 35.2307 20.9822 34.4629 19.4461 33.6515C19.1286 33.4841 18.8288 33.3205 18.7402 32.956C19.568 32.5847 20.1794 33.2248 20.8942 33.3743C21.5483 33.5115 22.206 33.4874 22.8631 33.5081C23.0855 33.5076 23.3091 33.5115 23.5304 33.5227C24.2243 33.4129 24.8345 32.6827 25.6248 33.2589C25.8294 33.311 26.0209 33.3894 26.1874 33.5165C26.5198 33.8828 26.4312 34.3677 26.5935 34.7765C26.6667 34.8527 26.7553 34.9109 26.8611 34.9417C27.0847 34.9759 27.3072 34.9216 27.5313 34.9345C27.9637 34.9686 28.0208 35.4261 28.3502 35.5745Z" fill="#C78D6A"/>
<path d="M28.5411 41.6494C27.9637 43.9986 28.2925 46.3837 28.3151 48.7463C28.3288 50.1581 27.8982 50.6833 26.4347 50.3731C27.1597 48.5268 26.8546 46.6037 26.9087 44.7076C26.9373 43.7058 26.8451 42.7006 27.0175 41.7032C26.3913 41.0547 25.2365 41.034 24.6376 39.8306C26.1285 40.525 27.3345 41.0872 28.5411 41.6494Z" fill="#C5A4B1"/>
<path d="M23.0154 48.6756C23.0237 46.3494 23.0195 44.0226 23.0516 41.6964C23.0582 41.2025 22.8423 40.6363 23.3823 40.2393C23.6755 40.5478 23.968 40.8564 24.2606 41.1649C24.8791 42.1018 24.0787 43.2061 24.6614 44.148C24.6275 45.5626 25.0551 47.0158 24.2755 48.3704C23.9211 48.6583 23.5488 48.8907 23.0487 48.6975L23.0154 48.6756Z" fill="#4F3031"/>
<path d="M27.0181 41.7031C27.6271 42.6254 27.2483 43.6418 27.2982 44.6106C27.372 46.0409 27.2863 47.4778 27.3375 48.9092C27.3625 49.617 27.1234 50.0958 26.4354 50.3725C25.8835 50.2487 26.2129 49.8063 26.0904 49.5269C25.9543 49.2816 25.8603 49.0273 25.8918 48.7434C25.9067 48.6062 25.9376 48.4718 25.9769 48.3397C26.0988 47.4397 26.1148 46.5443 25.8561 45.6584C25.7812 45.2782 25.7883 44.9002 25.8775 44.5238C26.2248 43.7264 25.7063 42.7414 26.4841 42.038C26.6619 41.9266 26.8397 41.8151 27.0181 41.7031Z" fill="#503336"/>
<path d="M23.098 33.8549C21.4977 34.1915 20.1223 33.562 18.7402 32.9567C18.5291 32.6907 18.5814 32.4292 18.7515 32.1688C19.3593 31.882 19.9664 31.5953 20.5742 31.3086C21.374 31.7247 22.0169 32.4437 23.0344 32.4398C23.5006 32.8939 23.4727 33.3671 23.098 33.8549Z" fill="#995E50"/>
<path d="M26.4841 42.0386C26.2605 42.8887 26.7065 43.8077 26.185 44.6269C26.1261 44.5889 26.0667 44.5508 26.0072 44.5133C25.5725 44.049 26.0256 43.2807 25.4 42.8652C24.7934 43.1402 25.2621 43.7791 24.8773 44.1056C24.6549 44.1941 24.4509 44.1896 24.285 43.9992C23.6439 43.059 24.2374 42.1098 24.2612 41.165C25.1259 41.1757 25.6135 42.0386 26.4841 42.0386Z" fill="#515C5A"/>
<path d="M10.4516 45.4766C11.0653 45.1563 11.6796 44.8359 12.2933 44.5156C13.0563 46.1783 12.8351 47.2199 11.3068 47.9714C10.4855 48.3757 10.9969 49.2381 10.3154 49.7068C9.95091 49.2605 10.1507 48.7974 10.1329 48.3723C9.55307 47.3403 9.35266 46.3451 10.4516 45.4766Z" fill="#6F7C2B"/>
<path d="M10.4516 45.4763C9.85694 46.3941 10.319 47.4145 10.1329 48.3721C9.84029 48.3614 9.54831 48.3508 9.25572 48.3401C8.90605 48.2265 8.53735 48.1419 8.32922 47.8093C7.35989 46.6198 7.35573 45.3537 7.99322 44.0371C8.35955 45.2036 9.43532 45.2949 10.4516 45.4763Z" fill="#B4DD74"/>
<path d="M8.33041 47.8091C8.74133 47.8287 9.07137 47.972 9.25632 48.34C8.42437 48.7219 7.59122 49.1044 6.75867 49.4868C6.48631 48.266 7.83742 48.3937 8.33041 47.8091Z" fill="#D2DBCD"/>
<path d="M53.2089 50.4074C53.9207 49.298 55.6072 49.298 56.2269 48.0078C56.3981 47.6505 56.8263 47.8795 56.7442 48.3987C56.4344 50.362 56.6592 52.3416 56.5653 54.3111C56.529 55.0677 56.2519 55.6674 55.3521 55.9519C54.4952 56.2229 53.7037 56.6771 52.8836 57.0512C52.4073 54.828 52.3591 52.6065 52.9139 50.3872C53.0115 50.3911 53.1084 50.3995 53.2053 50.4118C53.9106 51.403 53.6097 52.5258 53.5681 53.5764C53.5259 54.6348 53.8339 55.1153 54.9876 54.968C55.6132 54.6706 55.6364 54.6712 55.6471 54.0955C55.6691 52.9016 55.65 51.7077 55.656 50.5132C55.6453 51.6511 55.6792 52.7896 55.637 53.9264C55.6215 54.347 55.8659 54.9462 55.0732 55.0436C54.3001 54.1773 54.6147 53.1357 54.6474 52.1814C54.6831 51.1298 54.4649 50.4443 53.2089 50.4074Z" fill="#56566B"/>
<path d="M59.0284 46.9154C59.2234 46.9104 59.4185 46.9048 59.613 46.8998C60.0227 48.4913 59.5826 50.1069 59.8062 51.8009C60.2285 51.7477 60.5722 51.2162 61.0723 51.4548C61.705 52.161 61.7473 51.4212 61.7693 51.1356C61.8525 50.0386 61.7907 48.9359 61.8055 47.835C61.7942 48.8049 61.8341 49.7759 61.7847 50.7442C61.7532 51.3635 61.7157 51.3618 60.9926 51.3249C60.5288 49.6594 60.681 47.9822 60.8618 46.305C61.0985 45.7389 62.129 45.7641 62.0244 44.9258C62.0178 44.8726 62.2563 44.7387 62.383 44.7359C62.6369 44.7309 62.7148 44.937 62.7077 45.1341C62.6327 47.2912 63.0722 49.4898 62.4995 51.5954C62.0797 53.1393 60.4485 53.3246 59.0183 53.5783C58.2559 51.3562 58.3957 49.1358 59.0284 46.9154Z" fill="#53566B"/>
<path d="M61.2091 51.61C60.4354 51.5204 60.1767 52.3094 59.3234 52.5737C59.4483 50.6143 59.0207 48.7523 59.6136 46.9004C59.9543 46.5616 60.4039 46.4261 60.8618 46.3057C61.5677 47.4464 61.0384 48.6879 61.1829 49.8751C61.2507 50.4329 61.224 51.0007 61.24 51.564L61.2091 51.61Z" fill="#073E53"/>
<path d="M59.0284 46.9155C59.0254 49.1365 59.0219 51.3574 59.0189 53.5784C58.473 53.5678 58.1388 53.2878 58.1507 52.7933C58.1917 51.05 57.895 49.2944 58.3856 47.5646C58.4873 47.2034 58.5961 46.9424 59.0284 46.9155Z" fill="#8B7F97"/>
<path d="M52.9139 50.3862C52.9038 52.6077 52.8937 54.8293 52.8836 57.0502C52.4447 57.0121 52.2711 56.7674 52.2711 56.3726C52.2723 54.5924 52.2705 52.8116 52.2681 51.0313C52.2675 50.6226 52.4876 50.4142 52.9139 50.3862Z" fill="#8E859C"/>
<path d="M46.7121 12.7415C44.6973 14.4959 43.2837 12.8843 41.5651 11.9502C42.5565 11.3986 43.4164 10.9192 44.2763 10.4404C45.0541 11.2395 46.3315 11.5694 46.7121 12.7415Z" fill="#4C352B"/>
<path d="M46.712 12.7418C46.049 11.8351 44.4493 11.8071 44.2762 10.4402C45.1903 9.70714 45.6012 10.7661 46.2357 10.9716C46.7882 11.1503 47.2395 11.6083 47.8283 12.0059C47.4215 12.2742 47.0665 12.5083 46.712 12.7418Z" fill="#735851"/>
<path d="M28.3502 35.5746C28.0428 35.3948 27.7347 35.2145 27.4273 35.0347C27.3202 34.9367 27.1549 34.8684 27.1347 34.7194C26.7957 32.2202 26.8023 29.7203 27.1311 27.2211C27.1508 27.0721 27.3137 27.0015 27.419 26.9019C28.3585 27.0234 28.258 27.6943 28.2646 28.3136C28.2919 30.7334 28.3217 33.1537 28.3502 35.5746Z" fill="#BE9DAB"/>
<path d="M27.4195 26.9011C27.4219 29.6121 27.4243 32.3236 27.4273 35.0345C27.2917 35.2955 27.0621 35.3672 26.7743 35.3241C26.4799 32.5185 26.6191 29.7106 26.7214 26.9028C26.835 26.8188 26.948 26.7354 27.0615 26.6514C27.1811 26.7348 27.3 26.8177 27.4195 26.9011Z" fill="#605759"/>
<path d="M26.0666 48.6745C26.0744 48.9589 26.0821 49.2429 26.0898 49.5273C25.312 48.4818 23.9716 49.2664 23.0481 48.6974C23.365 48.5921 23.682 48.4869 23.9984 48.3816C24.7601 48.0265 25.4381 48.1996 26.0666 48.6745Z" fill="#BB93AB"/>
<path d="M38.1017 55.3446C36.6834 55.3474 35.2651 55.3502 33.8468 55.353C33.421 55.3295 32.9958 55.306 32.57 55.2825C33.7124 54.8563 34.4908 53.654 35.9395 53.8814C36.0114 53.8791 36.0834 53.8774 36.1559 53.8746C36.9332 54.0846 37.5219 54.5998 38.1885 54.9896C38.2546 55.1285 38.2207 55.2455 38.1017 55.3446Z" fill="#B0A0B0"/>
<path d="M22.9571 53.0479C22.9957 53.8526 23.0903 54.6595 23.0582 55.462C23.0231 56.3457 21.3223 57.3783 19.6941 57.5805C20.5296 56.2236 21.6054 55.0034 22.2512 53.5356C22.3469 53.3183 22.7151 53.208 22.9571 53.0479Z" fill="#5E3B3A"/>
<path d="M42.3536 46.077C42.3947 46.9814 42.4012 47.8892 42.4869 48.7897C42.579 49.7618 42.0575 49.7069 41.4182 49.3821C40.616 48.9745 39.875 48.4582 38.9783 48.2258C38.3699 47.8763 37.7675 47.519 37.1544 47.1802C36.2808 46.6975 35.8836 46.0306 35.9436 45.0388C35.9894 44.2783 36.147 43.9244 36.9998 44.3013C37.4606 44.5046 37.9281 44.6944 38.3925 44.8904C39.6437 44.7347 40.2503 46.0334 41.4117 46.0714C41.7245 46.0714 42.0414 45.9118 42.3536 46.077Z" fill="#A9715B"/>
<path d="M37.155 48.7329C37.472 48.8858 37.7883 49.0387 38.1053 49.1915C38.9141 49.1876 39.4284 49.5634 39.6883 50.2735C39.8382 51.7776 39.9476 53.2818 39.6182 54.7798C39.5402 54.9377 39.416 55.0525 39.2477 55.1242C38.289 54.8727 37.4446 54.4639 36.9147 53.6195C36.7506 51.9803 36.3897 50.3317 37.155 48.7329Z" fill="#037182"/>
<path d="M41.5675 46.2833C40.1516 46.542 39.4748 45.3077 38.3925 44.8905C38.5055 44.6447 38.6185 44.3989 38.7321 44.1536C38.7588 44.0035 38.854 43.9156 39.008 43.8809C39.2162 43.8663 39.4273 43.8893 39.5973 43.9979C40.7308 44.7237 40.8664 44.1077 40.8164 43.21C40.798 42.8734 40.7742 42.5307 40.8206 42.1992C41.0085 40.8451 40.443 39.9648 39.03 39.5918C38.6001 39.1651 37.7211 39.0722 37.8686 38.2148C38.3568 38.0334 38.8451 37.8514 39.3333 37.6699C39.8251 38.4097 40.8432 38.4494 41.4284 39.0649C41.6502 39.267 41.8732 39.4692 42.0956 39.6714C41.8369 41.2791 42.0123 42.8975 41.9576 44.5103C41.9362 45.1218 42.0296 45.7569 41.5675 46.2833Z" fill="#8ABBBF"/>
<path d="M39.0514 43.9988C38.945 44.0498 38.8385 44.1007 38.7321 44.1523C38.3217 43.6455 37.6426 43.5363 37.1235 43.1902C36.5336 41.4895 36.3439 39.7972 37.2329 38.125C37.4446 38.1547 37.6563 38.1844 37.868 38.214C38.2771 38.5848 38.6863 38.9555 39.0948 39.3262C39.721 40.8892 39.8483 42.4476 39.0514 43.9988Z" fill="#04717E"/>
<path d="M39.3482 50.1093C38.9337 49.8035 38.5198 49.4977 38.1053 49.1914C38.3729 48.8879 38.7606 48.9641 39.1073 48.9092C40.1284 49.1903 41.0049 49.7145 41.8196 50.3428C42.1253 52.1981 41.9297 54.0623 41.9178 55.9226C41.9154 56.2597 41.7816 56.5806 41.4723 56.8012C40.0963 56.8332 39.1775 55.9282 38.1017 55.3441C38.116 55.2612 38.1237 55.1784 38.1249 55.0944C38.4008 54.7567 38.7208 54.8379 39.0496 55.0092C39.1531 55.0115 39.2536 54.9958 39.3505 54.9616C40.5179 55.292 40.8372 54.9012 40.8515 53.7588C40.8705 52.2966 40.6939 51.0209 39.3482 50.1093Z" fill="#82BDC4"/>
<path d="M37.2329 38.1255C37.1972 39.8139 37.1609 41.5023 37.1241 43.1907C36.4265 43.2231 35.9383 43.096 35.9633 42.2583C36.0096 40.7233 35.9763 39.1867 35.9763 37.6467C36.5793 37.5291 36.9219 37.7923 37.2329 38.1255Z" fill="#223D52"/>
<path d="M37.155 48.7326C37.1723 50.4389 37.1895 52.1458 37.2073 53.8521C36.8065 54.1859 36.3962 54.0565 35.9847 53.8756C35.9847 53.8756 35.9401 53.8818 35.9395 53.8818C35.9514 52.395 36.0126 50.906 35.9579 49.4214C35.9199 48.3972 36.2737 48.2191 37.155 48.7326Z" fill="#203E50"/>
<path d="M41.4723 56.8012C41.4973 55.1644 41.5324 53.528 41.5413 51.8912C41.5443 51.3558 41.5598 50.8328 41.8202 50.3428C42.3281 50.4217 42.4298 50.7493 42.4232 51.1716C42.3917 53.21 42.3703 55.2489 42.3453 57.2873C41.9481 57.294 41.4706 57.429 41.4723 56.8012Z" fill="#656B78"/>
<path d="M41.5675 46.2833C41.5592 44.5311 41.5473 42.7794 41.5437 41.0271C41.5425 40.5125 41.4563 39.9587 42.0956 39.6714C42.7848 40.7645 42.318 41.9573 42.4024 43.1003C42.4756 44.0864 42.3763 45.0843 42.3537 46.0778C42.1093 46.2071 41.8857 46.4054 41.5675 46.2833Z" fill="#5E6572"/>
<path d="M23.098 33.8545C23.0766 33.383 23.0558 32.9109 23.0344 32.4394C23.0499 30.3187 23.0659 28.1985 23.082 26.0778C23.3442 25.5951 23.7528 25.5234 24.2315 25.748C24.6394 25.9395 24.8642 26.2738 24.7126 26.6944C24.1357 28.2898 24.505 29.9323 24.4081 31.5501C24.3599 32.3521 24.3992 33.1652 23.7004 33.7778C23.4994 33.8036 23.299 33.8288 23.098 33.8545Z" fill="#502D2C"/>
<path d="M23.7004 33.7782C24.2832 32.7909 23.8592 31.7185 23.9948 30.6943C24.1726 29.348 23.6243 27.9609 24.3635 26.6326C24.6644 26.0917 24.1988 25.8822 23.082 26.0782C22.9042 25.4712 23.2729 25.0613 23.8039 25.0355C24.4676 25.003 25.3031 25.4124 25.2965 25.9657C25.2876 26.7155 26.0244 26.7026 26.1897 27.1691C26.1469 27.2307 26.1041 27.2917 26.0625 27.3539C25.249 27.6792 24.9986 28.2667 24.9927 29.0815C24.982 30.5688 25.0343 32.0416 25.406 33.4932C24.6995 32.8542 24.3427 34.075 23.7004 33.7782Z" fill="#605759"/>
<path d="M26.7214 26.9028C27.2388 27.3122 27.0657 27.8795 27.0372 28.3739C26.9045 30.6895 27.3987 33.027 26.7737 35.3241C26.6554 35.3196 26.537 35.3157 26.4181 35.3112C25.9519 33.0651 25.9816 30.7926 26.0107 28.5201C26.0167 28.0374 26.0762 27.5709 26.3675 27.1565C26.4853 27.072 26.603 26.9874 26.7214 26.9028Z" fill="#402623"/>
<path d="M26.367 27.1567C26.3842 29.8755 26.4014 32.5938 26.4187 35.312C25.8389 34.8254 26.2546 34.1696 26.091 33.6124C25.3845 31.4978 25.3768 29.3833 26.0934 27.2693L26.1891 27.1707C26.2492 27.164 26.3081 27.1595 26.367 27.1567Z" fill="#605759"/>
<path d="M26.094 27.2683C26.0934 29.3829 26.0928 31.4975 26.0916 33.612C25.8639 33.5728 25.6367 33.5336 25.4077 33.4938C23.8622 31.7019 24.7322 29.6159 24.6834 27.6626C24.6668 26.9637 25.579 27.3115 26.094 27.2683Z" fill="#188B90"/>
<path d="M26.0667 48.6744C25.3774 48.5764 24.6876 48.479 23.9984 48.381C24.5728 46.948 24.1482 45.4578 24.2844 43.999C24.4925 44.027 24.7007 44.055 24.9088 44.0836C25.4202 43.994 25.7652 44.2633 26.0928 44.5697C26.0928 44.5697 26.1832 44.6262 26.1838 44.6268C26.1868 45.0009 26.1892 45.3755 26.1915 45.7496C26.1422 45.7983 26.0934 45.847 26.0447 45.8969C25.6385 46.0884 25.0551 45.996 24.9784 46.6719C24.8755 47.5763 25.6391 47.8373 26.1695 48.2858C26.254 48.4107 26.257 48.5373 26.179 48.6655L26.0667 48.6744Z" fill="#857C78"/>
<path d="M26.179 48.6654C26.1374 48.5775 26.1166 48.4857 26.1178 48.3893C25.5636 47.5303 25.4708 46.6696 26.1083 45.8066C26.1083 45.8066 26.1903 45.7495 26.1909 45.7495C26.5709 46.7228 26.584 47.6949 26.179 48.6654Z" fill="#515C5A"/>
<path d="M26.0934 44.5704C25.6367 44.5419 25.2394 44.3834 24.9088 44.0838C24.8089 43.764 24.6632 43.4493 24.6204 43.1223C24.5675 42.7191 24.6477 42.3366 25.2115 42.2924C25.7479 42.2504 26.1249 42.3965 26.1196 42.9828C26.1148 43.5115 26.1023 44.0412 26.0934 44.5704Z" fill="#24898F"/>
<path d="M53.2089 50.4069C53.4497 50.3353 53.7126 50.3005 53.9279 50.1863C54.761 49.7422 55.1077 49.9052 55.0732 50.8521C55.0227 52.2443 55.0583 53.6393 55.0571 55.0325L55.053 55.042C54.378 54.9564 54.0611 55.6642 53.2047 55.7028C53.2047 53.9344 53.2047 52.1721 53.2047 50.4103C53.2053 50.4109 53.2089 50.4069 53.2089 50.4069Z" fill="#063C4F"/>
<path d="M55.0571 55.0326C55.703 53.7491 55.1927 52.3877 55.3557 51.0717C55.4223 50.5324 55.2088 49.9394 55.9408 49.4785C55.9408 51.1669 55.9682 52.8553 55.9212 54.5426C55.9099 54.9564 55.7315 55.4806 55.0524 55.0421C55.053 55.0427 55.0571 55.0326 55.0571 55.0326Z" fill="#808FA6"/>
<path d="M61.24 51.5639C61.7568 50.4075 61.3732 49.1968 61.4731 48.0146C61.5231 47.421 61.482 46.8201 61.5998 46.2305C62.6696 48.0561 62.1588 51.5913 60.8493 52.3121C60.7125 51.9581 61.1811 51.882 61.2091 51.6093C61.2091 51.6098 61.24 51.5639 61.24 51.5639Z" fill="#7F8BA1"/>
<path d="M35.9841 53.875C36.3914 53.8672 36.7994 53.8599 37.2067 53.8521C37.9471 54.0598 38.5679 54.4367 39.0496 55.0096C38.7416 55.0376 38.4335 55.0656 38.1249 55.0941C37.193 55.028 36.6186 54.4048 35.9841 53.875Z" fill="#55728A"/>
<path d="M39.3482 50.1094C40.7629 50.4846 41.4611 51.2882 41.2036 52.7335C41.1209 53.1983 41.2333 53.6911 41.1828 54.1638C41.1257 54.7025 41.5051 55.4775 40.8896 55.72C40.3419 55.9362 39.8299 55.3022 39.35 54.9629C39.35 53.3445 39.3494 51.7272 39.3482 50.1094Z" fill="#0AAAAC"/>
<path d="M39.0514 43.9992C39.0657 42.4419 39.08 40.8845 39.0948 39.3271C40.6481 39.5411 41.4194 40.3178 41.2155 41.8572C41.1471 42.3724 41.2434 42.9055 41.194 43.4241C41.1429 43.9656 41.5134 44.744 40.9389 44.9882C40.4406 45.1999 39.9024 44.5682 39.4082 44.2635C39.2822 44.1857 39.1698 44.0877 39.0514 43.9992Z" fill="#07ACB0"/>
<path d="M26.1089 45.8067C26.1118 46.6674 26.1154 47.5282 26.1184 48.3889C25.3453 48.1901 24.5853 48.1335 24.5264 47.0214C24.4592 45.7457 24.8416 45.3621 26.1089 45.8067Z" fill="#22858D"/>
</svg>
