<svg width="80" height="80" viewBox="0 0 80 80" fill="none" xmlns="http://www.w3.org/2000/svg">
<path d="M58.1244 45.7003C57.5578 45.4414 57.6423 44.9884 57.6423 44.5648C57.64 40.9775 57.662 37.3908 57.6238 33.804C57.6145 32.9515 58.015 32.4302 58.8905 32.0316C60.6967 31.2089 62.4646 30.3299 64.2539 29.4817C65.6567 28.8169 66.2423 29.0856 66.251 30.4069C66.2741 33.7203 66.284 37.0336 66.2996 40.3469C66.527 41.1513 65.6873 41.3039 65.1428 41.5677C63.3824 42.4217 61.6324 43.2915 59.8616 44.132C59.4241 44.3395 58.923 44.493 58.769 44.9614C58.6249 45.2503 58.7528 45.7052 58.1244 45.7003Z" fill="#59390E"/>
<path d="M58.3622 44.8014C58.3703 44.2791 58.9496 44.2526 59.3199 44.0711C61.2944 43.1031 63.288 42.1629 65.2654 41.1987C65.6891 40.9922 66.2579 40.8834 66.2996 40.3467C67.7139 41.8096 69.9112 42.2881 71.6757 43.3091C72.7833 43.9498 74.2665 44.1558 74.9713 45.2659C72.3811 46.6821 69.7862 48.0911 66.8418 48.972C63.891 47.758 60.9258 46.5622 58.3622 44.8014Z" fill="#FFD900"/>
<path d="M74.469 47.3622C74.4574 49.266 74.4522 51.1704 74.4273 53.0742C74.4233 53.3943 74.5952 53.882 73.9794 53.9017C73.3128 53.9224 73.5234 53.4117 73.52 53.1074C73.4991 51.3201 73.5095 49.5327 73.5095 47.5239C71.5044 48.4819 69.6282 49.3729 67.7596 50.274C67.3019 50.4945 67.4425 50.8888 67.4407 51.2252C67.4321 52.8971 67.4431 54.5689 67.4344 56.2403C67.4321 56.6509 67.5906 57.1115 67.0328 57.3932C66.8707 57.3262 66.7093 57.2598 66.5472 57.1929C66.0172 55.0869 65.843 52.9751 66.3881 50.8498C66.428 50.6928 66.3673 50.5422 66.2562 50.4088C64.1873 49.3763 62.1185 48.3437 59.8106 47.1923C59.8106 49.1914 59.8234 50.961 59.7996 52.73C59.795 53.0689 60.0635 53.6524 59.3286 53.6326C58.6301 53.6138 58.8992 53.0386 58.894 52.6987C58.8679 51.024 58.8691 49.3488 58.8951 47.6741C58.9027 47.1903 58.8749 46.7523 58.3593 46.4418C58.2997 45.3837 59.133 45.9397 59.4987 46.0841C60.7516 46.578 61.9084 47.2269 63.1254 47.7829C64.3407 48.3384 65.5339 48.9286 66.7857 49.4234C67.711 49.5236 68.3418 48.9864 69.0368 48.6528C70.5599 47.9215 72.0784 47.1821 73.6027 46.4519C73.9904 46.2661 74.3903 45.8319 74.9401 46.2425C75.2178 46.7417 74.4383 46.9342 74.469 47.3622Z" fill="#59390E"/>
<path d="M66.8036 49.7229C64.2666 48.8169 61.9999 47.5042 59.5769 46.4278C59.2777 46.295 58.173 45.9537 58.1244 45.7C58.4409 45.4439 58.2378 45.092 58.3622 44.8008C61.1747 46.1308 63.9871 47.4609 66.799 48.7909C67.4176 49.1 67.4205 49.4105 66.8036 49.7229Z" fill="#9E8A2A"/>
<path d="M66.8036 49.7227C67.0501 49.4113 67.0924 49.1003 66.7995 48.7908C69.2891 47.9681 71.4459 46.6308 73.8278 45.6396C74.197 45.4861 74.5327 45.2675 74.9719 45.2651C74.9615 45.5905 74.9505 45.916 74.9401 46.2414C72.5709 47.1324 70.4413 48.3801 68.1485 49.3824C67.7492 49.5576 67.4031 50.0423 66.8036 49.7227Z" fill="#BFAA30"/>
<path d="M37.0517 25.3237C37.0534 22.9818 37.0557 20.6399 37.0575 18.298C37.0725 16.0889 37.0783 13.8794 37.1101 11.6704C37.1165 11.2131 37.0372 10.8511 36.4967 10.608C36.1669 10.4597 35.8746 10.2171 36.2757 9.8753C38.0962 10.3673 39.8317 11.0576 41.3387 12.0049C42.8734 12.9701 44.1349 13.0534 45.7194 12.0853C47.9051 10.75 50.511 9.97302 52.7407 8.67378C53.0069 8.51878 53.3078 8.3941 53.6597 8.48364C54.0746 8.8543 53.7945 9.0844 53.423 9.29669C53.1689 9.44206 52.8067 9.52149 52.9039 9.88204C53.0625 10.3018 52.9838 10.7341 52.9843 11.1596C52.9982 20.9432 52.9965 31.261 53.0272 41.0417C52.8686 41.3344 52.7222 41.3146 52.2477 41.4658C51.7315 41.6304 52.1904 39.7973 52.1886 39.3723C52.1782 37.1892 52.1904 35.0062 52.1823 32.8231C52.1776 31.5374 52.147 31.5369 50.7344 32.1477C48.746 33.008 47.0261 34.2706 44.8444 34.843C44.2651 34.9951 44.5279 35.4394 44.5267 35.7504C44.5157 38.5183 44.5111 41.2858 44.5232 44.0537C44.525 44.4441 44.5562 44.8335 44.4069 45.2119C43.8907 45.6235 43.5406 45.1724 43.1864 45.0097C41.4654 44.2202 39.7878 43.3629 38.054 42.5937C37.2808 42.2509 37.0719 41.8153 37.0754 41.1105C37.0968 35.8486 37.0661 30.5862 37.0517 25.3237Z" fill="#59390E"/>
<path d="M53.6597 8.48404C50.6985 10.2406 47.3415 11.4407 44.2993 13.0827C43.8201 13.3412 43.3461 13.3879 42.8774 13.0976C40.819 11.8214 38.3532 11.1234 36.2756 9.87571C39.3508 8.10423 42.6835 6.69379 45.8994 5.12017C46.2819 4.93291 46.5857 4.9796 46.9364 5.15627C49.1661 6.28077 51.5324 7.21513 53.6597 8.48404Z" fill="#593718"/>
<path d="M52.6169 41.3642C52.3223 41.4783 52.6169 41.3642 51.9091 41.6641C49.5093 42.868 47.0938 44.0508 44.6835 45.2403C44.5944 45.2417 44.5059 45.2446 44.4167 45.2485C44.0608 45.0212 44.1419 44.6925 44.1413 44.3897C44.1378 41.3209 44.1459 38.2516 44.1332 35.1828C44.1314 34.7433 44.209 34.7164 44.8178 34.5628C46.1569 34.2249 47.3426 33.4633 48.5874 32.8688C49.8275 32.2763 51.0631 31.6765 52.5885 30.9404C52.5885 31.5811 52.5885 32.0173 52.5885 32.4539C52.5879 34.8237 52.5792 37.1931 52.5955 39.5629C52.5983 39.9754 52.6169 40.8082 52.6169 41.3642Z" fill="#9E8A2A"/>
<path d="M44.9602 23.8547C44.959 20.9337 44.9816 18.0122 44.9428 15.0912C44.933 14.3403 45.2096 13.869 46.0296 13.5046C47.7107 12.758 49.3403 11.9314 50.9856 11.13C51.5949 10.8329 52.0104 10.7386 52.0087 11.5435C51.9983 17.6194 51.996 23.6954 52.022 29.7714C52.0249 30.4751 51.5319 30.8867 50.9503 31.1751C49.3513 31.9688 47.6858 32.6697 46.0626 33.4308C45.2125 33.8294 44.9388 33.6561 44.9474 32.8517C44.9816 29.8532 44.9619 26.8537 44.9602 23.8547Z" fill="#969096"/>
<path d="M52.0376 31.8804C52.0376 33.8155 51.8217 35.4455 52.085 37.0201C52.1134 38.7434 52.0989 39.9059 52.0989 40.9592C51.3217 41.4666 50.2407 41.9903 48.2101 42.7355C47.2581 43.0002 46.4335 43.5813 45.5481 44.014C44.989 44.2874 44.7159 44.2109 44.7211 43.6106C44.7414 41.0916 44.7321 38.5725 44.735 36.0534C44.735 35.7776 44.7472 35.508 45.0973 35.3511C46.6487 34.655 51.1481 32.5981 52.0376 31.8804Z" fill="#6D470F"/>
<path d="M47.7581 39.6353C48.5654 39.4192 49.5631 39.3095 49.8345 38.3761C49.9282 38.0535 50.1169 37.9934 50.397 38.0343C50.607 38.0651 50.846 38.1628 50.982 38.2952C51.2152 38.5219 51.0422 38.7693 50.8055 38.8902C49.8935 39.3561 48.9716 39.8125 48.0243 40.226C47.5932 40.4142 47.224 40.1437 46.9039 39.9213C46.838 39.8756 46.8235 39.6844 46.8814 39.6267C47.099 39.4072 47.3744 39.4649 47.7581 39.6353Z" fill="#FFD900"/>
<path d="M47.5938 35.6153C48.4011 35.3992 49.3987 35.2894 49.6701 34.356C49.7639 34.0335 49.9526 33.9733 50.2326 34.0143C50.4427 34.0451 50.6817 34.1428 50.8177 34.2752C51.0509 34.5019 50.8779 34.7493 50.6412 34.8702C49.7292 35.3361 48.8073 35.7925 47.86 36.206C47.4289 36.3942 47.0597 36.1237 46.7396 35.9013C46.6737 35.8555 46.6592 35.6644 46.7171 35.6067C46.9347 35.3867 47.2101 35.4449 47.5938 35.6153Z" fill="#FFD900"/>
<path d="M67.4934 55.6599C67.917 54.0357 66.623 53.4715 65.1879 52.7952C57.9843 49.401 50.8368 45.9254 43.6691 42.4792C43.5487 42.4215 43.4191 42.3762 43.2941 42.3252C39.4816 43.9845 35.8011 45.8369 32.076 47.6233C26.7706 50.1673 21.4575 52.7008 16.1694 55.2695C15.611 55.5405 14.9837 55.7528 14.6561 56.2727C14.438 56.9447 14.4171 57.6157 14.6648 58.2848C15.2667 58.8351 15.4044 58.28 15.4281 57.9955C15.5195 56.9014 16.2105 57.1623 16.9258 57.5007C17.9402 57.9806 18.9408 58.4827 19.9362 58.9886C24.6317 61.3767 29.4534 63.579 34.2629 65.8001C34.7965 66.0466 35.2305 66.4481 35.7878 66.6199C37.4654 67.1379 38.5488 67.9615 38.3254 69.5847C38.3966 69.6877 38.4984 69.7604 38.6304 69.8047C39.4903 69.7888 39.3526 69.2189 39.4209 68.7871C39.4787 68.4236 39.5001 68.0265 40.0811 68.0559C43.393 68.2219 45.6679 66.2955 48.3137 65.1772C52.0133 63.6137 55.5456 61.7753 59.1237 60.0279C61.6885 58.7754 64.3864 57.6879 66.8094 56.2298C67.0796 56.0666 67.3157 55.8924 67.4934 55.6599Z" fill="#FFD900"/>
<path d="M67.4934 55.6602C64.9338 57.0369 62.071 57.9708 59.6006 59.4939C58.2684 60.3151 56.6648 60.7912 55.2349 61.5277C51.9994 63.1937 48.6227 64.6692 45.3259 66.2543C43.58 67.0939 41.9046 68.046 39.7148 67.6595C39.0661 67.5449 39.1448 67.9839 39.0667 68.3291C38.9596 68.8023 39.4897 69.468 38.5164 69.7015C39.8422 70.283 40.6286 71.1432 40.668 72.4401C40.6743 72.6471 41.069 72.727 41.3462 72.7737C42.3323 72.8964 43.1824 72.5652 44.0059 72.1893C48.8802 69.9634 53.6458 67.5791 58.4825 65.2983C60.5554 64.3206 62.6486 63.3699 64.6728 62.3248C65.5039 61.8959 66.0895 61.7573 66.4234 62.6994C66.9986 60.3757 67.5241 58.0473 67.4934 55.6602Z" fill="#BFAA30"/>
<path d="M35.1565 39.2752C34.3839 38.0087 33.6108 36.7427 32.8382 35.4762C32.5888 35.1079 32.4621 34.6949 32.1067 34.3613C31.0558 33.374 30.6345 33.3032 29.23 33.9088C26.994 34.873 24.8453 35.9696 22.6144 36.9415C22.0889 37.1706 21.5155 37.393 21.2718 37.9105C21.9472 38.9229 23.0646 39.6507 23.7266 40.6939C25.1016 42.8615 26.4228 45.0325 26.9338 47.477C26.9743 47.6695 27.0617 47.8491 27.2295 47.9944C27.7353 48.2038 28.1299 47.9482 28.5362 47.7701C30.895 46.7361 33.1646 45.5673 35.5216 44.5314C36.7213 44.0043 37.028 43.289 36.7236 42.2203C36.4163 41.1459 36.0731 40.1123 35.1565 39.2752Z" fill="#1437AD"/>
<path d="M21.4014 37.9135C24.233 36.583 27.0709 35.2611 29.8909 33.9142C30.5494 33.5999 31.0245 33.726 31.4748 34.1674C31.9233 34.6074 32.3833 35.0402 32.8376 35.4758C32.8486 34.6969 32.8683 33.9181 32.8694 33.1397C32.8723 30.7236 32.212 30.4165 29.6582 31.6407C23.9436 34.3802 18.2307 37.1212 12.5155 39.8592C10.894 40.6362 9.29682 41.4516 7.63654 42.167C5.81249 42.9531 4.9809 44.1295 5.03704 45.8375C5.09317 47.5488 5.01794 49.263 5 50.9757C5.01968 52.3212 5.04051 53.6671 5.05787 55.0126C5.06366 55.4732 5.01678 55.9397 5.32175 56.3595C6.15971 56.203 5.95832 55.6143 6.0023 55.1613C6.12441 53.903 5.87152 52.637 6.09779 51.382C6.50403 50.4857 7.48376 50.1088 8.36049 49.624C9.08386 49.224 9.9519 49.017 10.563 48.4711C11.0711 47.7924 10.486 47.2243 10.3061 46.6077C10.0127 45.5997 9.13768 44.6206 10.0213 43.5375C12.5543 42.1626 15.2695 41.0579 17.8997 39.8289C18.4894 39.5536 18.9564 39.6985 19.4037 40.0552C20.0849 40.5977 20.5594 41.2605 21.0386 41.9239C21.299 42.2849 21.527 42.6792 22.0432 42.8544C22.1867 42.8558 22.3111 42.8154 22.4216 42.7398C22.8794 42.2979 22.542 41.8748 22.3788 41.4468C21.9379 40.292 21.2926 39.1752 21.4014 37.9135Z" fill="#59390E"/>
<path d="M6.51327 57.0825C6.0914 58.6687 6.80898 59.6261 8.55143 60.4522C18.4929 65.1654 28.3637 69.9811 38.2588 74.7621C39.1859 74.8704 40.1025 75.1819 41.0504 74.8536C41.3045 74.171 41.1922 73.5009 40.9532 72.8352C39.5649 72.2233 38.0053 72.0062 36.6107 71.3256C27.8469 67.049 19.053 62.8148 10.2354 58.6143C9.04101 58.0458 7.97505 57.2168 6.51327 57.0825Z" fill="#59390E"/>
<path d="M10.3576 48.3735C8.84427 49.2197 6.9392 49.5937 5.85878 50.9609C5.62093 52.5119 5.68633 52.6587 7.22797 53.3764C8.88825 54.149 10.5161 54.9683 12.1938 55.7154C12.6394 55.9138 13.078 56.1819 13.6127 55.8902C16.9321 54.0816 20.4442 52.5432 23.8556 50.8636C29.3596 48.1539 34.9359 45.5478 40.4665 42.8761C40.8392 42.6961 41.3942 42.6171 41.3352 42.0905C39.2756 41.1523 37.216 40.2136 35.1564 39.2754C35.5841 40.4153 36.3132 41.4738 36.4753 42.6874C36.5384 43.1582 36.6877 43.6434 36.0511 43.9231C33.0928 45.2233 30.3145 46.7984 27.23 47.9046C25.3759 46.8518 24.557 45.1776 23.5055 43.6386C23.2116 43.2078 23.0999 42.5266 22.1612 42.7278L22.174 42.7586C21.8134 43.216 22.2226 43.5727 22.4222 43.9404C23.0362 45.0717 23.5941 46.2227 23.9581 47.4247C24.3516 48.7249 24.1224 49.1754 22.7266 49.7824C20.2151 50.8752 17.8928 52.2567 15.251 53.1425C13.9455 52.8801 13.5479 51.8798 12.8865 51.1077C12.3164 50.4424 11.9941 49.6558 11.4982 48.953C11.2551 48.6069 11.0699 48.1106 10.3576 48.3735Z" fill="#7A7A7A"/>
<path d="M40.7611 72.7695C40.8328 73.4665 40.5817 74.1944 41.0499 74.8534C42.1401 74.9511 43.0597 74.5501 43.9509 74.1246C50.8848 70.8156 57.8112 67.4955 64.7405 64.1798C65.4807 63.8255 66.1815 63.4437 66.4222 62.6986C66.5252 62.2798 66.8788 61.5837 66.8296 60.9849C64.2133 62.2297 61.1549 63.6965 58.6254 64.9033C53.7603 67.2245 48.8964 69.5481 44.0325 71.8712C43.2992 72.2217 42.5574 72.55 41.6801 72.5572C41.3988 72.7016 41.0053 72.5124 40.7611 72.7695Z" fill="#6D470F"/>
<path d="M41.3346 42.0903C36.698 44.3297 32.0638 46.5734 27.4233 48.8074C22.8608 51.004 18.2909 53.1899 13.729 55.3874C13.6225 55.4384 13.5751 55.5737 13.4998 55.67C13.8071 56.1514 14.2736 56.3006 14.8922 56.1302C18.1404 54.6143 21.4014 53.1167 24.6334 51.5773C27.9395 50.0022 31.2114 48.3776 34.5094 46.7914C37.1737 45.5105 39.8554 44.255 42.5284 42.9861C42.8583 42.8297 43.1378 42.6261 43.2929 42.3262C42.6968 41.9242 42.0782 41.6479 41.3346 42.0903Z" fill="#9E8A2A"/>
<path d="M14.8928 56.1305C14.4287 55.9769 13.964 55.8233 13.4999 55.6703C13.3251 55.8595 13.1324 55.8498 12.8958 55.7367C10.9502 54.8091 9.02023 53.856 7.04282 52.9774C6.00869 52.5177 5.72976 51.8457 5.85881 50.9609C5.33509 52.3584 5.80441 53.7919 5.62849 55.2004C5.57988 55.5904 5.91494 56.0655 5.32236 56.3601C5.51564 56.8333 6.12327 56.8342 6.51331 57.0826C12.8124 60.1355 19.1092 63.1918 25.4112 66.2404C29.2497 68.0971 33.1108 69.9225 36.9331 71.8027C38.1333 72.3929 39.3647 72.7756 40.7611 72.7693C41.0736 72.7169 41.4243 72.7794 41.6807 72.557C40.9602 72.5542 40.6668 72.2369 40.7773 71.666C41.0221 70.3971 40.4932 69.7352 38.8451 69.8945C38.7461 69.9042 38.6269 69.7694 38.5169 69.7015C36.8318 68.565 34.8498 67.8347 32.9991 66.9259C27.4737 64.2128 21.854 61.636 16.3089 58.9514C15.8622 58.7352 15.3986 58.5687 14.9085 58.4459C14.9027 57.6743 14.898 56.9021 14.8928 56.1305Z" fill="#9E8A2A"/>
<path d="M14.9078 58.4457C17.0542 59.8258 19.5004 60.7987 21.8273 61.9299C26.8139 64.3546 31.8411 66.722 36.8572 69.1044C37.3798 69.3528 37.8867 69.6507 38.5163 69.7018C38.5169 69.4678 38.4585 69.2209 38.5285 69.0018C38.9289 67.744 38.0059 67.2881 36.8537 66.7572C32.2444 64.6338 27.7277 62.3713 23.1091 60.2634C20.8418 59.2284 18.788 57.9123 16.4483 56.976C15.31 56.5206 15.045 56.7652 15.1625 57.6981C15.1955 57.9614 15.2261 58.2517 14.9078 58.4457Z" fill="#BFAA30"/>
<path d="M22.1612 42.7274C22.8447 42.7553 22.8956 43.2684 23.1155 43.6247C23.8232 44.7684 24.535 45.9131 25.4725 46.9361C25.9008 47.403 26.2839 48.0389 27.2294 47.9046C27.1635 45.3259 25.6496 43.1664 24.3036 40.9636C23.5866 39.791 22.7544 38.6761 21.4014 37.9141C20.6583 38.73 21.3377 39.4964 21.4998 40.2892C21.6688 41.1133 22.612 41.7911 22.1612 42.7274Z" fill="#061F70"/>
<path d="M15.137 53.5105C17.8077 52.6672 20.1237 51.2683 22.6375 50.1775C24.6902 49.2864 24.9268 48.6996 24.1363 46.8309C23.5536 45.4527 22.8331 44.1145 22.174 42.7585C21.2238 41.8511 20.7157 40.6938 19.7151 39.8057C19.0959 39.2559 18.5386 39.1727 17.7556 39.5467C15.1249 40.8036 12.4704 42.0258 9.82462 43.2615C9.48203 43.6413 9.79394 43.9224 10.0538 44.1872C12.7401 46.9219 14.3477 50.0615 15.137 53.5105Z" fill="#1437AD"/>
<path d="M15.137 53.5108C15.7088 52.4691 15.0219 51.5376 14.6359 50.6413C13.552 48.1227 12.2777 45.6677 9.99068 43.6926C9.87783 43.5953 9.87784 43.4076 9.8246 43.2622C8.86512 43.6261 9.18745 44.3265 9.32229 44.8806C9.51384 45.6696 9.90793 46.4234 10.1955 47.1975C10.3367 47.5778 10.7748 47.9378 10.357 48.374C10.9704 48.3903 11.0294 48.8366 11.2285 49.1639C11.9189 50.2995 12.6556 51.411 13.5387 52.4532C13.9501 52.937 14.4478 53.3216 15.137 53.5108Z" fill="#061F70"/>
</svg>
