<svg width="65" height="61" viewBox="0 0 65 61" fill="none" xmlns="http://www.w3.org/2000/svg">
<path d="M59.8041 27.9468C61.1855 28.6892 62.8262 29.0919 64 30.1051C63.1266 31.3192 61.5077 31.7332 60.1656 32.3982C53.542 35.6804 46.7593 38.7428 40.1387 42.0302C39.3137 42.44 38.5065 42.8927 37.5121 43C34.7823 42.1564 32.373 40.8104 29.8594 39.6398C21.2572 35.6336 12.7692 31.4629 4.15321 27.4732C2.69463 26.7979 0.98411 26.3291 0 25.0691C3.64184 23.1324 7.33845 21.2727 11.2697 19.7476C11.3614 19.8355 11.4144 19.9376 11.4323 20.052C11.5136 20.5596 11.4698 21.0686 11.4553 21.5775C11.3227 22.2033 11.6957 22.6532 12.2198 23.0511C13.2921 23.7288 14.5437 24.1598 15.672 24.7581C16.2266 25.0521 16.7639 25.046 17.3364 24.7695C18.9131 24.0072 20.4605 23.2047 22.0615 22.4769C22.7348 22.1707 23.0312 21.6773 23.0502 21.0548C23.0635 20.6271 22.9291 20.1115 23.7783 20.1134C24.7751 20.389 25.7108 21.3417 26.8275 20.2954C28.0572 19.9995 28.8874 18.8828 30.3806 19.1285C30.6175 19.8894 29.7435 20.1531 29.3699 20.6409C29.2004 20.862 28.9589 21.0823 29.2252 21.3417C29.4311 21.5421 29.7625 21.5128 29.9465 21.3644C31.3041 20.2684 33.1421 20.5577 34.7592 20.2094C36.6796 19.966 38.5792 19.6564 40.45 19.2216C41.2127 19.0444 42.0169 18.775 42.7358 19.3417C43.5966 19.957 44.6043 20.3838 45.6034 20.8223C45.8813 20.9391 46.1563 21.0596 46.4025 21.2198C46.5858 21.3573 46.7173 21.5194 46.7553 21.725C46.3823 22.8758 45.0638 22.786 44.059 23.1088C42.04 23.0445 40.439 23.6905 39.237 25.0171C39.0427 25.2317 38.8207 25.4505 39.0761 25.7152C39.2174 25.8617 39.5425 25.9127 39.6578 25.8045C40.9429 24.5937 42.944 25.0691 44.4562 24.4084C46.2065 24.6504 47.7948 23.9949 49.4661 23.8025C50.347 23.7009 51.285 23.3937 51.8477 24.3021C51.485 25.3314 50.1988 25.433 49.3369 25.9557C48.7085 26.3366 47.8536 26.4982 47.6691 27.2544C47.6299 27.564 47.6137 27.8759 47.5013 28.1755C47.348 28.5073 47.0119 28.7322 46.6314 28.5985C45.2512 28.1126 44.2169 28.737 43.2345 29.3182C41.863 30.1302 39.9778 30.322 39.0456 31.651C38.8236 32.0882 38.9701 32.5225 39.0663 32.9573C39.0819 33.4091 38.9891 33.8547 38.9539 34.3046C38.9038 34.6444 38.1116 35.023 39.0404 35.308C40.2799 36.333 41.8763 36.8931 43.389 37.5599C44.037 37.8454 44.6343 37.6922 45.2195 37.3997C46.5535 36.7319 47.932 36.126 49.2689 35.4611C50.0288 35.083 50.6987 34.6969 50.769 33.8675C50.8186 33.2838 51.2515 32.9563 51.9889 33.178C52.7574 33.4086 53.3374 33.1345 53.9508 32.8386C54.8334 32.4128 55.6867 31.9445 56.5895 31.548C58.0896 30.8887 59.6329 30.2852 59.1065 28.4869C59.0178 28.184 59.298 27.8896 59.8041 27.9468Z" fill="#98A9AE"/>
<path d="M64.9906 30.4711C64.9906 36.3163 65.0117 42.1782 64.9906 48.0234C64.9906 48.1752 64.8417 48.3265 64.7566 48.4783C58.6262 51.3252 52.4964 54.1717 46.3871 57.0186C43.7902 58.2314 41.1722 59.4274 38.5753 60.6068C38.0856 60.8259 37.6176 61.2807 37 60.7586C37.4258 55.3682 37.0639 49.9778 37.1918 44.5708C37.2129 43.8634 37 43.0884 37.7237 42.4822C46.7061 38.3213 55.6886 34.1609 64.671 30C64.7777 30.1508 64.8845 30.3193 64.9906 30.4711Z" fill="#6D7E85"/>
<path d="M34.2814 48.4776C34.2044 51.3017 34.4088 54.1421 34.099 56.947C33.8582 59.1284 34.7648 60.3863 37.2687 61C38.1822 60.6702 37.9807 60.0031 37.9819 59.4132C37.9894 53.7988 37.9865 48.1843 37.9865 42.5694C32.8925 40.2075 27.791 37.8554 22.7057 35.4809C15.2405 31.9954 7.78676 28.4944 0.328432 25C0.0453363 25.3574 0.132755 25.7597 0.129281 26.1466C0.0823878 31.3344 0.0395463 36.5222 0.000179204 41.7101C-0.0160308 43.8245 1.06599 44.8026 3.85005 45.2054C4.30393 44.2432 4.28309 43.2332 4.28714 42.2288C4.30219 38.5576 4.27093 34.8864 4.30509 31.3433L34.4782 45.458L34.2814 48.4776Z" fill="#586972"/>
<path d="M4.2861 45C3.62006 44.2143 4.32804 43.4262 4.31047 42.6354C4.23055 39.0366 4.27079 35.4359 4.2861 31.8357C4.28723 31.5623 4.07353 31.1943 4.48335 31.0256C4.78661 30.9011 5.32794 31.271 5.32794 31.271L19 38.0794C19 38.0794 9.26858 42.8302 4.2861 45Z" fill="#6D7E85"/>
<path d="M11.2703 18.8831C10.7435 18.4563 11.0646 18.2376 11.5687 18.0106C13.4994 17.1404 15.4546 16.2988 17.32 15.3473C18.0794 14.9598 18.5252 15.3778 19.1085 15.4832C21.453 15.4943 23.1756 16.6863 25.4274 17.6171C24.2829 16.5254 22.8878 16.2119 21.7595 15.6011C21.1348 15.2631 20.4034 15.0305 20.1686 14.38C22.1978 12.9461 24.7188 12.1411 27.0021 11.0328C27.1664 10.9533 27.5417 11.0309 27.7416 11.1322C29.4602 11.9992 31.3961 12.5831 32.955 13.6563C33.029 13.7766 33.0115 13.8871 32.9037 13.9897C31.1205 14.8044 29.3879 15.689 27.5557 16.4408C26.9321 16.6965 26.336 17.0424 26.5574 17.8816C27.4018 17.6633 28.0627 17.2107 28.8302 16.9526C29.1933 16.8306 29.6257 16.7506 29.8734 17.0377C30.1548 17.3637 29.7574 17.5907 29.4905 17.7886C28.4858 18.5345 27.2253 18.9635 26.0609 19.5147C25.8319 19.5827 25.5964 19.603 25.354 19.5822C24.861 19.5105 24.4548 19.321 24.1314 19.0186C23.7351 18.4868 23.2234 18.3292 22.4985 18.6464C20.8807 19.3543 19.3836 20.2411 17.6644 20.7927C16.9191 21.0318 17.51 21.9945 16.4878 22C15.7436 21.1007 14.5396 20.6864 13.4289 20.1731C12.6457 19.8106 11.7505 19.5646 11.2703 18.8831Z" fill="#59390E"/>
<path d="M44.2714 22.9064C45.0321 22.2988 46.5653 22.6889 46.9233 21.5608C47.9033 20.9351 49.1572 20.8619 50.2712 20.5141C51.5775 20.1058 51.9696 19.523 51.8467 18.3939C51.6404 16.4917 51.6756 14.5676 51.8273 12.6591C51.9849 10.6803 53.1776 9.88953 55.572 10.0123C57.0206 11.1523 56.8618 12.6349 56.8806 14.0751C56.8877 14.6018 56.8395 15.129 56.8166 15.6557C56.953 17.2739 57.1499 18.8859 56.8172 20.5117C56.6102 21.5228 56.3298 22.5048 55.846 23.4483C54.6614 23.8294 53.5386 24.3675 52.2212 24.4384C51.8073 23.7352 51.0619 23.8675 50.4023 24.0416C49.0208 24.407 47.5211 24.3752 46.1914 24.8957C45.5171 25.1597 45.0744 24.8895 44.7123 24.4546C43.9392 24.0559 43.8005 23.5378 44.2714 22.9064Z" fill="#A60000"/>
<path d="M39.2812 34.2357C38.5813 33.7732 39.4296 33.2949 39.2591 32.8269C40.3667 32.6415 41.1172 33.2879 41.998 33.6266C42.6979 33.8951 43.2597 34.4281 44.1245 34.3585C44.5931 33.4645 45.4863 32.9722 46.4751 32.5079C47.6225 31.9684 48.7461 31.3906 49.9072 30.8703C50.7703 30.4836 51.5544 30.4644 51.8739 31.4374C52.0354 31.7713 51.4572 32.3823 52.4164 32.4098C52.7979 31.903 52.9844 31.2617 53.8919 31.0927C53.4063 30.8563 52.8457 30.8423 52.5039 30.4976C52.2719 30.0795 52.0667 29.6596 52.3652 29.2042C52.616 28.8567 52.8832 29.5368 53.4461 29.0548C55.099 27.639 57.2841 26.7562 59.5056 26.0056C59.5835 25.9795 59.7012 26.0505 59.7956 26.0902C60.1999 26.6871 59.8582 27.3336 59.9787 27.9496C59.0707 28.3593 59.8349 28.9628 59.7831 29.4565C59.7092 30.1646 59.5852 30.6489 58.7232 31.0118C57.0755 31.7055 55.5061 32.5233 53.8987 33.2814C53.4603 33.4883 53.06 33.8386 52.4704 33.4981C51.5879 32.9885 51.2468 33.2982 51.344 34.0726C51.427 34.7354 51.0915 35.1096 50.37 35.3833C49.6519 35.6561 49.0037 36.0512 48.3071 36.3656C47.0164 36.9475 45.6796 38.2017 44.4566 37.9723C42.5785 37.6201 40.9211 36.4692 39.1755 35.65C39.1089 35.6187 39.0527 35.501 39.0714 35.4407C39.0908 35.38 39.2102 35.3408 39.2852 35.2922C40.8659 35.273 41.8325 36.409 43.4638 36.7607C42.7383 36.0349 41.7916 35.8639 41.0791 35.4272C40.4622 35.0484 39.5803 34.9353 39.2812 34.2357Z" fill="#6D470F"/>
<path d="M45.5235 21C44.5067 20.7815 43.6999 20.2304 42.8749 19.7071C42.1396 18.5662 41.9503 17.3554 42.2749 16.079C42.1676 13.4576 41.7051 10.8318 42.2905 8.21635C42.5015 7.27293 42.6566 6.23051 44.0929 6.04575C44.3548 5.97094 44.5985 5.97185 44.7981 6.17121C45.3649 6.91801 45.3389 7.76472 45.3306 8.6096C45.3514 11.8413 45.4426 15.0662 45.8798 18.2824C46.0011 19.172 46.1883 20.1519 45.5235 21Z" fill="#BF3030"/>
<path d="M55 10.4046C54.8287 10.4977 54.6694 10.6481 54.485 10.6749C52.4798 10.9618 51.7787 11.5095 51.8038 13.175C51.8379 15.3901 51.4749 17.6199 52.0433 19.8206C52.1662 20.2957 51.9472 20.608 51.4373 20.7713C49.8691 21.2736 48.4073 22.0763 46.6273 21.9942C46.5232 21.8929 46.4191 21.7912 46.315 21.69C45.672 20.4982 46.1852 19.3159 46.3536 18.1318C46.9904 17.1548 47.952 16.3656 48.6132 15.3982C49.139 14.6294 49.831 13.9156 49.394 12.9277C49.279 12.6679 49.3405 12.3523 49.6472 12.2114C51.1608 11.5153 50.9975 10.2003 51.3514 9.07052C51.4811 8.65559 51.2399 8.02387 52.1395 8C53.2189 8.69617 54.2586 9.42577 55 10.4046Z" fill="#BF3030"/>
<path d="M60 26.6418C57.9694 27.6848 55.855 28.6327 53.9555 29.8253C53.3337 30.2159 53.1255 29.8249 52.7342 29.8561C50.7912 29.7037 49.3617 28.7558 48.0221 27.6687C47.8803 27.0774 48.4513 26.9372 48.8761 26.7261C50.0321 26.1503 51.2009 25.5926 52.3647 25.0273C53.3811 24.6708 54.1151 23.4658 55.5184 24.2731C56.2384 24.2508 56.7095 24.5903 57.0952 25.0538C57.9894 25.6811 59.1851 25.9112 60 26.6418Z" fill="#59390E"/>
<path d="M45.0475 2.96247C44.7244 1.75904 46.0903 0.38565 47.8939 0.0994895C51.5397 -0.479262 53.8751 1.53948 52.6888 4.27293C52.4288 4.87143 51.9999 5.42538 51.649 6C50.6565 4.98994 49.0909 4.79151 47.7114 4.33999C46.7035 4.00928 45.6058 3.80855 45.0475 2.96247Z" fill="#CCCBCB"/>
<path d="M45.0828 3C46.4779 4.05451 48.7089 3.83531 50.071 4.95298C50.1325 5.00342 50.4005 4.95581 50.5271 4.89641C52.078 4.17188 51.7863 4.95251 51.6286 5.67798C51.6 5.8095 51.7949 5.96978 51.8868 6.11685C51.6298 6.53827 51.424 6.95876 51.916 7.36981C51.871 7.63992 52.1846 7.93407 51.8253 8.18532C51.0928 8.7081 50.3286 9.19929 49.5102 9.63815C49.0542 9.88281 48.6005 10.1524 47.9983 9.89648C47.7152 9.72065 47.4935 9.46845 47.583 9.21343C48.1444 7.61965 47.0557 6.76172 45.3763 6.14749C45.1772 6.11874 45.2844 5.81752 45.0859 5.78876C45.0579 5.16087 44.9093 4.01585 45.0828 3Z" fill="#E8928C"/>
<path d="M42.317 16C42.9947 17.0562 42.4315 18.2397 43 19.3072C42.7025 18.9508 42.4262 18.8406 41.7285 18.9804C39.4339 19.439 37.1423 19.9584 34.7196 20C34.2444 19.7671 34.0614 19.4261 34 19.0394C34.2432 17.8343 34.9032 17.4725 37.3695 17.1901C39.0183 16.7934 40.6677 16.3967 42.317 16Z" fill="#A60000"/>
<path d="M51.5365 7.6085C51.4382 7.38723 51.0873 7.1315 51.6552 7C52.1033 7.29454 52.5514 7.58909 53 7.88363C52.3168 8.87207 52.2208 10.0527 52.1702 11.0804C52.1149 12.2115 50.2144 12.1023 50.6276 12.8399C51.2101 13.8788 50.5636 14.4737 50.0509 15.1521C49.2845 16.1667 48.6887 17.3061 47.4166 18C46.8533 17.5628 46.9872 17.0106 47.1006 16.4865C47.6709 13.8526 48.6956 11.3643 50.5583 9.15254C50.9633 8.67264 51.2909 8.15876 51.5365 7.6085Z" fill="#A60000"/>
<path d="M57.7064 25C57.1374 24.7327 56.5684 24.4658 56 24.1985C56.9701 21.5207 56.8934 18.7351 57.3096 16C57.3404 16.1692 57.3712 16.3388 57.402 16.5079C59.3579 18.7541 59.2902 21.1844 58.4125 23.6886C57.6273 23.9341 57.5663 24.4323 57.7064 25Z" fill="#939394"/>
<path d="M38 17.7915C37.5548 18.3076 36.8038 18.3585 36.171 18.5439C35.2852 18.8035 34.8471 19.2252 34.94 20C34.0472 19.5153 32.9022 19.6417 32 19.1759C32.8187 18.1246 32.9292 16.9712 32.8434 15.7553C32.8075 15.2478 32.8304 14.6716 33.2997 14.2281C33.3186 14.1414 33.3633 14.0649 33.435 14C33.3686 15.6895 34.8265 16.3218 36.3738 16.9247C36.9526 17.1504 37.4601 17.499 38 17.7915Z" fill="#9CA9AA"/>
<path d="M57.8648 23C57.857 22.0732 57.8839 21.1449 57.833 20.22C57.773 19.125 58.2034 17.9285 57.0924 17.0225C56.9107 16.8742 57.0543 16.3502 57.0475 16C58.5126 16.4776 59.1165 17.4599 58.9816 18.9511C58.9064 19.7855 58.9206 20.6346 58.9792 21.4714C59.0383 22.3134 58.7374 22.8332 57.8648 23Z" fill="#B3B3B3"/>
<path d="M29.8725 43L33 44.2323C33 44.2323 30.6902 45.0326 29.4408 44.999C28.8641 44.9834 28.3202 44.9118 28.0762 44.5234C27.7822 44.0555 28.406 43.8975 28.8038 43.6659C29.1712 43.4523 29.8725 43 29.8725 43Z" fill="#593718"/>
<path d="M20.131 15C21.8038 15.8697 23.4692 16.7499 25.1532 17.6034C25.6938 17.8773 26.2369 18.2384 25.8916 18.7449C25.4798 19.3496 25.0033 18.7114 24.64 18.5439C22.8054 17.6978 21.0374 16.741 19 16.2523C19.9705 16.2161 20.1024 15.6414 20.131 15Z" fill="#DED0CA"/>
<path d="M11.1512 19C12.5089 19.5893 13.8525 20.1997 15.2307 20.7582C15.8143 20.9947 15.9973 21.3395 16 21.801C15.8127 21.9587 15.5449 22.0523 15.3187 21.9688C13.8342 21.4191 12.2103 21.0326 11.1911 19.9122C11.1641 19.8435 11.1555 19.7731 11.1657 19.7018C11.0065 19.47 10.8969 19.2373 11.1512 19Z" fill="#E0D1C8"/>
<path d="M35 45L34.8248 47C34.8248 47 32.0088 46.5892 33.3732 45.9321C33.8383 45.7086 35 45 35 45Z" fill="#593718"/>
<path d="M51.9522 31.6114C51.6228 30.8882 51.0948 30.6985 50.2262 31.1313C48.7259 31.8788 47.2601 32.6996 45.6595 33.2779C44.594 33.6626 44.9955 34.5779 44.2629 35C43.8901 34.0894 42.9061 33.7056 41.9731 33.2484C40.9803 32.7623 39.7366 32.5374 39.1388 31.6123C38.7051 31 39.3879 30.8616 39.8146 30.6601C41.5488 29.8393 43.4002 29.1502 45.0095 28.1985C46.0756 27.5679 46.7953 28.6809 47.6733 28.2424C49.7093 28.572 51.4593 29.311 52.8583 30.5512C52.5922 31.2473 60.0963 27.8465 59.9991 28.5145C53.2932 31.0547 53.0177 31.7699 52.9058 32.9455C52.5102 32.536 52.0882 32.1387 51.9522 31.6114Z" fill="#59390E"/>
<path d="M11.3184 19.8419C13.0067 20.5063 14.4487 21.5621 16.3618 21.8703C16.5102 20.7688 17.4806 20.3406 18.6231 19.927C19.8664 19.4771 21.0316 18.8743 22.1775 18.2729C23.1943 17.7388 23.7016 18.0203 24 18.8417C23.6795 19.2051 23.9247 19.6328 23.7928 20.0175C23.743 20.06 23.6931 20.1026 23.6427 20.1451C23.5114 20.2044 23.2572 20.2845 23.2668 20.3198C23.6773 21.8708 22.4164 22.4917 20.9614 23.0253C20.5317 23.1828 20.1501 23.4217 19.7305 23.5991C18.575 24.0884 17.433 25.2189 16.2944 24.9627C14.7114 24.6066 13.1601 23.8367 11.884 22.875C13.27 22.4655 14.0728 23.5851 15.3654 23.7399C14.1175 22.737 12.3013 22.5039 11.324 21.3657C10.635 20.8593 11.2482 20.3501 11.3184 19.8419Z" fill="#6D470F"/>
<path d="M51.7573 8C52.4698 8.86446 51.4261 9.26557 51.0223 9.81077C49.0979 12.4099 47.7031 15.1454 47.6498 18.2505C47.5256 19.4988 47.4014 20.7467 47.2773 21.995C47.0174 22.0218 46.8195 21.9395 46.6768 21.761C46.8393 19.7037 46.3902 17.6771 46.168 15.6428C45.9104 13.2854 46.0235 10.9337 46.0317 8.57822C46.6124 8.21779 46.8526 8.67299 47.1769 8.90945C47.5633 9.19186 47.684 9.67387 48.2096 9.85433C49.7587 9.71312 50.4073 8.39968 51.7573 8Z" fill="#CCE6EC"/>
<path d="M32.9658 14C32.9686 15.1456 32.9084 16.295 32.9965 17.4362C33.0589 18.2436 32.2797 18.4127 31.7935 18.8171C31.6424 19.2639 31.2533 19.3944 30.7478 19.3701C29.6408 19.8346 28.5332 20.2985 27.4262 20.7629C27.0155 20.7896 26.5957 21.2507 26.2027 20.8106C25.8557 20.4219 25.9914 20.0108 26.3299 19.644C27.3336 18.6685 29.0432 18.4861 30.0321 17.281C28.5837 17.421 27.7414 18.457 26.4787 18.6828C26.0278 17.583 26.3827 16.7622 27.6107 16.3602C29.5067 15.74 30.9437 14.4049 32.9658 14Z" fill="#6D470F"/>
<path d="M44.5742 23.0973C44.7162 23.5336 44.8581 23.9704 45 24.4067C44.8723 24.9753 44.3279 25.2162 43.6342 25.0332C42.6027 24.7614 41.9244 25.0429 41.2477 25.5315C40.9974 25.7124 40.646 25.8343 40.315 25.9453C39.8405 26.1045 39.5203 25.887 39.2149 25.6666C38.8811 25.4261 38.968 25.2134 39.258 24.9846C40.6829 23.8614 42.0356 22.6437 44.5742 23.0973Z" fill="#E8928C"/>
<path d="M30.8259 19.4896C31.1712 19.3298 31.5166 19.1705 31.8625 19.0103C32.845 19.1197 34.1234 18.6458 34.5977 19.7554C34.7318 20.0576 34.8659 20.3597 35 20.6619C34.5341 20.8522 34.0411 20.9748 33.5036 20.9092C32.4963 20.7862 31.7092 21.0479 30.956 21.535C30.5115 21.8223 29.9678 22.3284 29.2664 21.6968C28.6016 21.0982 29.343 20.8134 29.7357 20.4501C30.0878 20.124 30.4619 19.8095 30.8259 19.4896Z" fill="#E8928C"/>
<path d="M39.325 32C40.5917 32.5713 41.8425 33.1659 43.1314 33.7049C43.8392 34.001 44.139 34.3881 43.9395 35C42.3904 34.362 40.8408 33.7244 39.2917 33.0864C39.0347 32.7192 38.775 32.3519 39.325 32Z" fill="#DED3C9"/>
<path d="M52.8505 30C51.2337 29.3292 49.6168 28.6579 48 27.9871C48.006 27.6582 48.0121 27.3293 48.0181 27C49.5609 27.6276 51.1038 28.2553 52.6466 28.8829C53.083 29.2183 53.0704 29.599 52.8505 30Z" fill="#E2D6CB"/>
<path d="M11.3313 22C12.628 22.6011 13.9168 23.2143 15.2258 23.7987C15.8453 24.0752 16.1834 24.4111 15.8968 25C14.4272 24.7127 13.4148 23.6578 11.8848 23.5011C11.347 23.0851 10.5394 22.7335 11.3313 22Z" fill="#E4D3CC"/>
<path d="M39.4226 34C40.69 34.5832 41.9466 35.1824 43.2292 35.7425C43.824 36.0026 44.2375 36.2783 43.8477 37C42.3585 36.32 40.8919 35.6505 39.4259 34.9809C38.953 34.6552 38.7716 34.3283 39.4226 34Z" fill="#E0D7D1"/>
<path d="M25.9249 20C25.9634 20.7063 25.6469 21.7071 27 21.323C25.8714 22.5384 24.9229 21.9172 24 21.0234C24.0435 20.9721 24.0869 20.9203 24.1299 20.8679C24.6047 20.7006 24.9859 20.4004 25.3108 20.0197C25.5153 20.0135 25.7204 20.0068 25.9249 20Z" fill="#59390E"/>
<path d="M25.8832 19.3441C26.2694 20.0821 25.6664 20.1314 24.5396 19.8164C24.1528 19.5088 23.4332 19.176 24.7913 19C25.1559 19.1145 25.5193 19.2293 25.8832 19.3441Z" fill="#E4D1C1"/>
<path d="M52.2437 32C52.7877 32.2043 53.0606 32.5268 52.9887 33C52.0028 32.9888 51.7537 32.6555 52.2437 32Z" fill="#D8BDB0"/>
<path d="M47.9127 9.99307C46.5683 10.1084 46.5591 8.74792 45.44 8.61445C45.5955 7.71176 45.0922 6.87683 45 6C48.0919 6.5411 48.2829 6.77389 47.7975 9.30143C47.7553 9.5218 47.8706 9.76183 47.9127 9.99307Z" fill="#E6E6E6"/>
</svg>
