<svg width="70" height="52" viewBox="0 0 70 52" fill="none" xmlns="http://www.w3.org/2000/svg">
<path d="M56.384 51.9965C54.7782 50.0305 53.4052 47.9216 51.4869 46.1483C51.2649 45.9432 51.0473 45.7246 50.885 45.4838C50.5818 45.0336 50.2868 44.6844 49.5528 44.7049C48.9968 44.7206 48.6302 44.299 48.5182 43.8504C48.2861 42.916 47.7389 42.1312 47.1339 41.3517C46.7489 40.8556 46.4219 40.3002 46.942 39.7026C47.0584 39.5693 46.9074 39.5175 46.837 39.45C46.1301 38.7677 45.4376 38.074 44.5652 37.5332C43.6985 36.9961 42.9199 36.3731 42.2639 35.6455C42.0198 35.3751 41.7412 35.2682 41.3248 35.2693C36.3277 35.2822 31.3307 35.2763 26.3336 35.2752C26.0896 35.2752 25.8562 35.2617 25.6443 35.4236C23.8071 36.8255 22.212 38.385 21.212 40.3433C21.1063 40.5501 21.0963 40.7374 21.1862 40.9387C20.8384 41.3134 20.5025 41.3744 19.8987 41.1552C19.0025 40.8302 18.2232 40.345 17.5043 39.7944C16.5483 39.0624 15.4193 38.5626 14.3431 37.9909C13.7381 37.6692 13.184 37.8263 12.6997 38.1642C11.933 38.6991 11.126 39.1731 10.2191 39.5094C9.75112 39.6832 9.57815 40.1274 9.13977 40.3191C8.88819 40.1776 9.03914 40.0103 9.10958 39.8575C9.21147 39.6362 9.40645 39.4689 9.64419 39.3647C10.7568 38.8778 11.7977 38.2986 12.8009 37.6622C13.1135 37.4641 13.4909 37.3378 13.8991 37.4311C14.128 37.4835 14.2368 37.3658 14.3658 37.2535C15.0117 36.6905 15.6551 36.1254 16.308 35.5688C16.4942 35.4101 16.6036 35.3168 16.2728 35.1732C15.9401 35.0285 16.03 34.716 16.03 34.4596C16.0269 30.3312 16.0275 26.2034 16.0275 22.075C16.0275 20.1253 16.0275 18.175 16.0306 16.2252C16.0313 15.9683 15.9577 15.6876 16.2671 15.504C16.4156 15.4161 16.3099 15.3351 16.2772 15.2374C14.7186 10.5671 13.1808 5.89188 11.5952 1.22804C11.3801 0.595396 11.6248 0.276915 12.216 0.0194323C12.3254 0.0437232 12.4349 0.0685541 12.5336 0.118215C12.7928 0.190548 13.0594 0.166797 13.3236 0.166797C16.7697 0.167877 20.2164 0.169496 23.663 0.166257C28.1934 0.169496 32.7238 0.167336 37.2536 0.166257C42.6884 0.171655 48.1239 0.164637 53.5593 0.173814C53.8266 0.174354 54.1348 0.0701729 54.3581 0.297427C54.3914 0.254244 54.4191 0.207821 54.4361 0.15708C54.465 0.0750309 54.5436 0.0367062 54.6241 0C55.4575 0.29149 55.6135 0.599714 55.2764 1.28634C53.1228 5.67003 50.9699 10.0537 48.8157 14.4369C48.639 14.7958 48.3113 15.1489 48.9465 15.4533C49.1447 15.5483 49.0698 15.8096 49.0729 16.0007C49.173 21.8548 49.2799 27.7083 49.3579 33.563C49.3648 34.0801 49.522 34.452 49.9893 34.7813C50.7328 35.3049 51.446 35.8582 52.2253 36.3461C52.5291 36.5367 52.7467 36.5416 53.0335 36.3483C53.4876 36.0417 54.0021 35.822 54.5663 35.7038C55.3072 35.5489 55.9519 35.6757 56.4211 36.2296C57.0016 36.914 57.6947 37.511 58.3627 38.1302C59.074 38.7898 59.8307 39.4565 59.2338 40.4945C59.1174 40.6969 59.43 40.7687 59.5646 40.8756C61.9842 42.7978 64.6812 44.4388 67.1108 46.3524C67.9398 47.0055 68.8279 47.6031 69.6795 48.2357C69.8135 48.335 70.0934 48.3815 69.9688 48.6303C69.8952 48.6314 69.8223 48.6325 69.7487 48.6335C68.9115 48.341 68.3323 47.7504 67.6612 47.2733C65.5347 45.7618 63.5371 44.1187 61.3106 42.7066C60.6036 42.258 59.9879 41.7117 59.3413 41.2C59.064 40.9803 58.8551 40.9571 58.4803 41.0672C57.3538 41.3981 56.5733 42.1441 55.6349 42.6979C54.3128 43.4785 52.9234 44.1468 51.4083 44.604C50.9705 44.7362 50.9089 44.876 51.1825 45.194C51.8995 46.0279 52.7932 46.734 53.4599 47.6074C54.4807 48.945 55.5688 50.2443 56.601 51.5754C56.6777 51.6748 56.7871 51.7703 56.7154 51.909C56.6462 52.0467 56.5009 51.9835 56.384 51.9965Z" fill="#5D3A36"/>
<path d="M56.9773 51.9846C56.2099 51.0459 55.4299 50.1146 54.6789 49.1669C53.7789 48.0312 52.8795 46.8977 51.7532 45.9074C51.5288 45.7099 51.3666 45.4625 51.1649 45.2448C50.9242 44.9851 50.9141 44.8542 51.3572 44.726C53.4847 44.1097 55.4306 43.2077 57.0999 41.9183C57.6649 41.4819 58.4172 41.375 59.0332 41.0392C59.2374 40.928 59.3355 41.0807 59.4474 41.161C62.967 43.6904 66.4829 46.2229 70 48.755C67.9574 49.6415 65.7884 50.2466 63.5955 50.7921C62.3398 51.1044 61.0821 51.4514 59.7956 51.6222C58.8597 51.7457 57.9521 52.0746 56.9773 51.9846Z" fill="#FFD900"/>
<path d="M12.8973 51.9683C12.2484 52.0776 11.6299 51.875 11.0083 51.8051C9.11552 51.5922 7.21769 51.3617 5.3597 51.0058C4.31498 50.8059 3.25128 50.637 2.2249 50.3619C1.49068 50.1656 0.750146 49.9848 0.0121363 49.7973C-0.0713404 49.4513 0.296082 49.2886 0.494656 49.0835C2.90915 46.595 5.39891 44.1578 7.93736 41.7537C8.95868 40.7866 9.02319 40.784 10.2715 41.5522C11.9651 42.594 13.5954 43.7051 15.3946 44.6292C15.7791 44.8265 16.1617 45.0265 16.5911 45.1493C17.0382 45.2772 17.104 45.4937 16.8599 45.8066C16.0732 46.8131 15.351 47.8512 14.6439 48.896C14.0261 49.8087 13.4152 50.7245 12.9093 51.6839C12.8606 51.7756 12.8037 51.8709 12.8973 51.9683Z" fill="#FFD900"/>
<path d="M12.9972 52C12.5061 51.9713 12.8275 51.7349 12.8922 51.6112C13.6109 50.2257 14.4284 48.8854 15.2933 47.5683C15.851 46.7195 16.4192 45.8762 16.9912 45.0181C15.1776 44.3935 13.752 43.2912 12.248 42.2972C11.3733 41.7185 10.5097 41.1265 9.62871 40.5554C9.41172 40.4152 9.18541 40.271 8.90128 40.5527C5.91699 43.5038 3.06388 46.5511 0.328894 49.6856C0.218226 49.6618 0.0789595 49.7325 0 49.6066C2.827 46.4611 5.67016 43.3271 8.72969 40.3539C8.79559 40.2904 8.83538 40.2053 8.88698 40.1308C9.19847 39.8723 9.49566 40.0562 9.77046 40.1777C10.1696 40.3533 10.4954 40.63 10.8516 40.8647C12.5701 41.9946 14.2021 43.2305 16.0518 44.2002C16.6698 44.5244 17.3468 44.6928 18.0283 44.8596C18.4156 44.9546 18.6811 44.8226 18.7619 44.4879C18.9459 43.7264 19.4253 43.1162 19.9401 42.5109C20.2721 42.1205 20.4549 41.666 20.5177 41.1706C20.5662 40.7868 20.5904 40.789 20.9995 40.7808C21.015 41.6456 20.6725 42.3983 20.0594 43.0527C19.6385 43.5022 19.3339 43.9854 19.1983 44.568C19.0373 45.2616 18.6991 45.4505 17.9313 45.2307C17.4264 45.086 17.1951 45.2119 16.9371 45.5929C15.6564 47.4822 14.4086 49.3857 13.3299 51.3738C13.2434 51.5334 13.1782 51.7023 13.1023 51.8664C13.0681 51.9105 13.0327 51.9553 12.9972 52Z" fill="#5F3C2B"/>
<path d="M21 41.643C20.7162 41.5583 20.7113 41.7423 20.7052 41.9129C20.6796 42.647 20.3306 43.2563 19.8458 43.8074C19.4128 44.2998 19.0814 44.8289 18.9669 45.4676C18.8829 45.9391 18.6155 46.0746 18.0746 45.9634C16.4746 45.6347 15.1839 44.7956 13.9134 43.9124C12.6928 43.0637 11.4856 42.1986 10.265 41.3499C9.93554 41.1206 9.59568 40.8778 9.13339 40.9778C9.08893 40.9021 9.04446 40.8264 9 40.7508C9.26008 40.1177 9.82043 39.7914 10.4539 39.5548C11.1671 39.2888 11.7366 38.8269 12.3268 38.3966C13.0016 37.9042 13.6424 37.863 14.3903 38.3141C15.5037 38.9855 16.6402 39.6169 17.6434 40.4357C18.2086 40.897 18.8293 41.2974 19.5565 41.5283C19.9518 41.6537 20.3288 41.691 20.665 41.4001C20.7332 41.534 20.9671 41.4696 21 41.643Z" fill="#FFD900"/>
<path d="M55 0.0945844C54.9534 0.132087 54.9069 0.170126 54.8597 0.207629C54.639 0.347462 54.3808 0.302457 54.1365 0.302457C40.3865 0.304601 26.6365 0.304601 12.8858 0.302457C12.6409 0.302457 12.3845 0.34639 12.1575 0.220487C12.1052 0.185127 12.0529 0.149767 12 0.114407C12.1913 -0.0372126 12.4305 0.0126136 12.653 0.0126136C26.5485 0.00993477 40.4439 0.00939887 54.3387 0.0110061C54.5619 0.0110061 54.8004 -0.0447125 55 0.0945844Z" fill="#4D2928"/>
<path d="M20.8043 30.5938C19.566 31.742 18.1653 32.755 16.8495 33.8392C16.663 33.9933 16.4543 34.0358 16.2335 33.9703C15.9202 33.877 16.0128 33.6321 16.0128 33.4386C16.0096 28.6922 16.0109 23.9458 16.0109 19.1994C16.0109 18.0213 16.0229 16.8433 16.0039 15.6652C15.9976 15.2887 16.1638 15.1477 16.618 15.1524C17.692 15.1645 18.7667 15.1582 19.8407 15.1383C20.1991 15.1315 20.4034 15.1923 20.3368 15.5262C20.2537 15.9462 20.496 16.0296 20.9686 16.0269C28.5089 15.9829 36.0493 15.9493 43.5896 15.9305C44.1485 15.9289 44.4701 15.8539 44.3515 15.3244C44.281 15.0119 44.5323 15.0156 44.8006 15.0161C45.8956 15.0187 46.9912 15.0287 48.0855 15.0009C48.5847 14.9883 48.7605 15.1037 48.7668 15.542C48.8264 19.8265 48.9197 24.111 48.9882 28.3955C49.0123 29.8934 48.992 31.3918 48.992 32.9521C47.4695 31.5412 45.7528 30.2693 45.7173 28.1638C45.6989 27.0711 45.5003 25.9869 45.1793 24.9252C45.0994 24.6599 45.1584 24.5797 45.4731 24.6017C45.5961 24.6101 45.7211 24.6022 45.8448 24.6017C46.7006 24.597 46.7146 24.5965 46.6936 23.8871C46.686 23.6229 46.8706 23.2753 46.384 23.1458C45.8087 22.9932 44.9319 23.1625 44.6947 23.4404C44.1047 23.0294 44.6484 22.546 44.6008 22.0856C44.5361 21.4623 44.5456 21.413 43.7748 21.4287C43.3999 21.4361 43.0269 21.3574 42.6456 21.5692C42.3658 21.7249 42.2421 21.2919 41.8488 21.2971C42.3969 21.0706 42.6938 20.4037 42.4121 19.9387C42.1159 19.4495 41.4929 19.7531 41.0171 19.7022C40.6517 19.6634 40.5242 19.8385 40.5096 20.1369C40.4652 21.0538 40.4646 21.0743 41.0996 21.2075C41.0565 21.4665 40.6359 21.3585 40.568 21.5703C40.5115 21.7475 40.5103 21.9368 40.4849 22.1229C40.4411 22.1171 40.3758 22.1119 40.3758 22.1077C40.398 21.3983 39.8524 21.3495 39.2034 21.4114C38.8063 21.4492 38.4244 21.3852 38.0539 21.2678C37.9778 21.2117 37.9442 21.1393 37.9385 21.057C37.9588 20.8546 38.0019 20.6538 38.0013 20.4488C38.0006 19.8354 37.9385 19.7814 37.1962 19.7793C36.3969 19.7772 36.3277 19.837 36.3499 20.5143C36.355 20.6674 36.3601 20.8205 36.4242 20.9673C36.4527 21.0685 36.4902 21.1702 36.4185 21.2699C36.2478 21.3181 36.1159 21.4764 35.8894 21.306C35.6103 21.0958 35.9852 21.1157 36.0099 21.0135C36.1 20.6407 36.0638 20.2679 36.0245 19.8973C36.0112 19.7699 35.8545 19.7117 35.6991 19.7027C35.5348 19.6938 35.3692 19.6902 35.2042 19.6896C34.0934 19.686 33.8403 19.9712 34.1118 20.8782C34.2197 21.2384 34.5864 21.1299 35.085 21.2546C34.1296 21.3627 34.1194 21.802 34.0839 22.3263C34.0262 23.1741 35 22.6954 35.3686 23.0367C34.9606 23.238 34.4849 22.9707 34.2178 23.2522C33.9729 23.5096 34.0655 23.8588 34.122 24.1466C34.2996 25.0505 35.2429 24.3244 35.734 24.6756C35.7631 24.7983 35.6287 24.8251 35.4701 24.8251C34.2723 24.8272 33.0752 24.8277 31.8775 24.8293C31.6631 24.8298 31.4335 24.7695 31.6384 24.5813C31.8636 24.3747 31.7836 24.132 31.9035 23.8661C32.0913 24.1304 31.8686 24.5881 32.4561 24.5739C32.8272 24.565 33.2097 24.6154 33.5682 24.5582C34.2412 24.4502 33.8955 23.981 33.9342 23.6727C33.9856 23.2585 33.9412 23.2548 32.4263 23.0524C32.5202 22.7452 32.8221 22.8689 33.0315 22.8595C33.499 22.8391 34.0021 22.9549 33.964 22.2959C33.9126 21.4104 33.957 21.4088 33.0162 21.3894C32.9553 21.3883 32.8944 21.3742 32.8335 21.3663C32.6965 21.3102 32.614 21.2421 32.7555 21.1246C32.9027 21.0528 33.0702 21.0386 33.2326 21.0407C33.6253 21.0465 33.7712 20.8903 33.7889 20.5736C33.8289 19.8632 33.2129 19.5187 32.3939 19.8123C32.2214 19.8742 32.156 19.9869 32.1497 20.1363C32.1383 20.3911 32.104 20.648 32.1947 20.896C32.2588 21.0722 32.2785 21.229 32.0888 21.3606C31.9682 21.4319 31.8357 21.4838 31.6872 21.479C31.3808 21.4691 31.1924 21.3841 31.3814 21.0989C31.4208 21.0392 31.4791 20.9883 31.5172 20.928C31.7697 20.5275 31.7075 19.9969 31.3941 19.8553C30.9424 19.6514 30.2789 19.8207 29.9744 20.2202C29.9293 20.2795 29.8798 20.3303 29.7136 20.3749C29.6064 19.7746 29.0811 19.7473 28.4874 19.7872C28.1816 19.8076 27.9253 19.8611 27.9424 20.1463C27.9608 20.4551 27.7064 20.8567 28.2767 21.0224C28.4468 21.0717 28.7011 21.0496 28.7265 21.229C28.7563 21.4423 28.4886 21.467 28.3066 21.5372C27.9107 21.6898 27.5212 21.9347 27.1145 21.553C27.0911 21.531 27.0359 21.5315 26.9953 21.5346C26.0171 21.6117 25.0395 21.5682 24.0612 21.5372C23.7986 21.5289 23.7257 21.6872 23.6977 21.877C23.6762 22.0254 23.6616 22.2178 23.425 22.2277C23.1794 22.2382 23.1756 22.0432 23.1249 21.8985C22.9974 21.533 22.6916 21.4507 21.9805 21.5268C21.5415 21.5739 21.6233 21.8282 21.5954 22.0584C21.5465 22.4626 21.6658 22.7263 22.2501 22.6954C22.4188 22.6865 22.665 22.7048 22.6554 22.9172C22.6478 23.0834 22.4715 23.1767 22.2837 23.2218C21.9811 23.2941 21.669 23.2643 21.36 23.2664C20.6584 23.2705 19.9561 23.2847 19.2551 23.2622C18.7787 23.247 18.5884 23.3759 18.6131 23.7854C18.6461 24.3328 18.6893 24.4093 19.2856 24.4187C20.0697 24.4308 20.8538 24.4187 21.6379 24.4235C22.4962 24.4282 22.5996 24.5068 22.5914 25.223C22.5749 26.6538 22.0693 28.0086 21.6189 29.3701C21.5319 29.6323 21.4628 29.9002 21.3334 30.1524C21.2274 30.3553 21.1094 30.5503 20.8043 30.5938Z" fill="#999B9F"/>
<path d="M20.4653 31.7394C20.5824 31.6041 20.6988 31.4688 20.8159 31.3335C20.9866 31.3089 21.0339 31.196 21.07 31.0741C21.5085 29.5802 22.0834 28.112 22.2011 26.5566C22.2261 26.2245 22.2491 25.903 22.1737 25.5736C21.9215 24.4696 22.4272 23.6433 23.4699 23.0212C23.6399 22.9196 23.8299 22.8543 24.0361 22.8495C24.4228 22.8404 24.7997 22.7993 25.1709 22.6966C25.4119 22.6302 25.6667 22.6276 25.8068 22.8602C25.9401 23.0806 25.8205 23.2689 25.6461 23.4272C25.3746 23.6743 24.9934 23.7716 24.6608 23.9353C24.0971 24.2118 23.7639 24.9392 23.9651 25.4618C24.0093 25.5768 24.0479 25.7169 24.2192 25.7191C24.3518 25.7207 24.4123 25.6035 24.4683 25.5115C24.8252 24.9248 25.2382 24.3669 25.6411 23.8032C25.9183 23.4154 26.3076 23.1528 26.8252 23.0405C26.923 23.0191 27.032 22.9971 27.1142 23.0629C27.2338 23.1587 27.1435 23.2517 27.0874 23.3411C26.5997 24.1081 26.4783 24.9761 26.2198 25.5859C26.3313 25.1681 26.5841 24.5654 26.7797 23.9487C26.8987 23.5743 27.1422 23.2635 27.5091 23.0121C28.0329 22.6532 28.3985 22.1585 28.8868 21.7648C29.245 21.476 29.6243 21.215 30.0821 21.0599C30.6358 20.8722 31.0082 21.1412 30.9167 21.652C30.8631 21.9536 30.6707 22.2013 30.4639 22.4393C30.3667 22.5511 30.2608 22.6618 30.1319 22.7436C28.7081 23.6465 28.4739 25.0237 28.1132 26.4438C28.3343 26.2801 28.3674 26.1181 28.4371 25.9763C28.5156 25.8159 28.5785 25.6501 28.637 25.4832C28.8046 25.0061 29.0948 24.6012 29.5184 24.2541C30.0322 23.8326 30.4327 23.3245 30.8725 22.8479C31.1204 22.5794 31.3969 22.3714 31.7532 22.2323C31.8852 22.1943 31.993 22.0804 32.1555 22.1344C32.1954 22.197 32.2353 22.2601 32.2745 22.3227C32.2377 22.3371 32.1786 22.343 32.1674 22.3665C30.9883 24.8189 30.2826 27.3953 29.4823 29.9466C29.4193 30.1472 29.3857 30.3552 29.3496 30.5611C29.3421 30.6028 29.3845 30.651 29.4088 30.7082C29.4754 30.6841 29.5682 30.6724 29.5751 30.6456C29.8254 29.5877 30.3642 28.5982 30.566 27.5279C30.6626 27.0134 32.0422 26.1523 32.6476 26.2042C32.9247 26.2277 33.1178 26.3304 32.9173 26.5668C31.7731 27.9141 31.4654 29.6176 30.3119 30.9708C29.4424 31.9903 28.5355 32.9466 27.3316 33.6933C25.0357 35.1165 22.9112 36.6965 21.3553 38.7664C20.9143 39.3531 20.5045 39.9586 20.2579 40.6234C20.1021 41.0433 19.8455 41.0604 19.4513 40.9235C18.8814 40.7251 18.3656 40.4459 17.9047 40.1041C16.7805 39.2708 15.5796 38.5327 14.2754 37.9245C13.9023 37.7502 13.9372 37.6341 14.2075 37.4084C16.2112 35.7311 18.2049 34.0447 20.1999 32.3593C20.3588 32.2251 20.5213 32.0892 20.6465 31.933C20.7904 31.7544 20.6241 31.7384 20.4653 31.7394Z" fill="#E9948C"/>
<path d="M52.9565 37.5411C51.491 38.3815 50.0001 39.1833 48.4072 39.8279C47.8542 40.0519 47.4156 40.134 46.9324 39.5904C46.041 38.5881 44.9337 37.7629 43.8147 36.9443C42.2861 35.8267 41.099 34.3863 39.5221 33.2986C38.6839 32.7203 37.8828 32.099 37.0842 31.4782C36.4514 30.9863 36.0196 30.3759 35.8247 29.6442C35.7746 29.455 35.7331 29.2572 35.6366 29.0854C35.1585 28.2309 35.1114 27.4183 35.7387 26.579C35.9546 26.2904 35.9478 25.8729 36.0808 25.3712C36.2058 25.936 36.3035 26.366 36.3963 26.797C36.4897 27.2313 36.5534 27.6716 36.6753 28.0999C36.7934 28.5158 36.7978 28.9957 37.3248 29.242C36.7928 28.0662 36.7607 26.803 36.4247 25.5974C36.2317 24.9059 35.9614 24.2482 35.5636 23.6247C35.3589 23.3035 35.2141 22.9502 35.0719 22.6023C34.9989 22.4229 34.9339 22.1854 35.13 22.0549C35.331 21.9212 35.5581 22.0604 35.7412 22.1674C36.5652 22.6485 37.1918 23.2785 37.6044 24.0737C37.9632 24.7652 38.3233 25.456 38.713 26.1339C38.8503 26.3719 39.1324 26.8247 39.2778 26.7149C39.5784 26.4877 39.0798 26.2822 38.9685 26.0463C38.7309 25.5408 38.4315 25.0581 38.1754 24.5586C37.7288 23.6883 37.2537 22.8371 36.3208 22.2289C36.8974 22.0783 38.7136 22.8665 39.378 23.5117C40.1469 24.2585 40.3276 25.3261 41.1645 26.0311C40.3869 24.4754 39.7665 22.8061 37.511 22.2392C37.6929 22.149 37.7313 22.1164 37.7486 22.1234C39.1708 22.6936 40.7965 22.9768 41.6174 24.3705C41.8728 24.8043 42.2799 25.169 42.6189 25.5653C42.6894 25.6474 42.7544 25.7751 42.8911 25.7322C43.0463 25.6832 43.0587 25.5338 43.0321 25.4131C42.8676 24.6646 42.7203 23.9107 41.986 23.3829C41.6254 23.1236 41.3167 22.8186 41.1546 22.4218C41.1064 22.3044 41.0519 22.1789 41.18 22.0772C41.3111 21.9728 41.4646 22.0316 41.5691 22.1017C42.6869 22.8523 43.9829 23.416 44.3702 24.8081C44.7543 26.1893 45.1106 27.5689 45.1521 28.986C45.1929 30.3715 45.8004 31.5152 46.7753 32.5545C48.3336 34.2151 50.0824 35.693 52.1207 36.8976C52.404 37.065 52.6713 37.2536 52.9459 37.4324C52.9917 37.4536 53.0084 37.4765 52.996 37.502C52.9837 37.5281 52.9707 37.5411 52.9565 37.5411Z" fill="#E9948C"/>
<path d="M53.4107 36.6251C53.775 36.2566 54.2702 36.1086 54.7827 36.022C55.2495 35.9432 55.6601 36.0754 55.959 36.4276C56.6845 37.2834 57.4971 38.0682 58.3165 38.8486C58.5215 39.0438 58.6833 39.2868 58.8179 39.5299C59.1729 40.1707 59.0161 40.6996 58.2838 40.9764C57.3217 41.3392 56.5277 41.8962 55.7114 42.4645C54.0924 43.5914 52.3289 44.5039 50.3209 44.9428C49.4904 45.1245 48.9569 44.8786 48.763 44.1292C48.5259 43.215 48.0819 42.4195 47.4676 41.6813C47.3132 41.4957 47.2206 41.2639 47.1181 41.0461C47.0137 40.8233 46.9285 40.5505 47.0897 40.3637C47.2274 40.2045 47.4361 40.4385 47.6232 40.4666C48.0171 40.5257 48.387 40.4526 48.7396 40.3125C50.5691 39.5867 52.2462 38.6145 53.9115 37.626C54.1825 37.4651 54.3968 37.2384 54.5678 36.9891C54.6815 36.8237 54.8321 36.633 54.6722 36.435C54.5086 36.2319 54.2721 36.3123 54.0646 36.3781C53.8423 36.4496 53.6287 36.5424 53.4107 36.6251Z" fill="#FFD900"/>
<path d="M34.0048 1.11956C41.1113 1.11956 48.2172 1.11901 55.3237 1.1201C56.0888 1.1201 56.1258 1.17385 55.8234 1.78863C53.5811 6.35422 51.3318 10.9171 49.1093 15.4898C48.9447 15.8287 48.7098 15.8326 48.3901 15.8342C42.2395 15.8622 36.0895 15.8923 29.9388 15.923C25.825 15.9433 21.7105 15.9543 17.5974 15.9998C16.9975 16.0064 16.7959 15.8326 16.6389 15.3516C15.1579 10.8019 13.6405 6.26044 12.1346 1.71678C11.8985 1.00384 11.8998 1.00055 12.7478 1.00055C19.8333 1 26.9194 1 34.0048 1C34.0048 1.04003 34.0048 1.07952 34.0048 1.11956Z" fill="#999B9F"/>
<path d="M27 33.9995C28.2639 33.1277 29.5023 32.2965 30.4032 31.1636C31.1227 30.2589 31.8713 29.3663 32.3026 28.3289C32.4197 28.0474 32.5979 27.986 32.9101 28.0025C33.2692 28.0211 33.6302 28.0068 33.9906 28.0068C35.0261 28.0079 35.1035 27.9931 35.3227 28.8139C35.6714 30.1207 36.4812 31.1395 37.7392 31.9185C38.0709 32.1243 37.9909 32.3865 37.9929 32.6416C38.0039 34 37.9994 34 36.3908 34C33.2607 33.9995 30.13 33.9995 27 33.9995Z" fill="#EBE7E4"/>
<path d="M32.4802 16.975C28.8547 16.975 25.2291 16.9784 21.6036 16.9669C21.3864 16.9662 21.0502 17.1498 21.0054 16.6591C20.9655 16.2258 21.1486 16.1617 21.499 16.161C24.4964 16.159 27.4945 16.1407 30.4919 16.1198C34.8059 16.0901 39.1193 16.0523 43.4333 16.0273C43.6388 16.026 43.9382 15.8714 43.9905 16.3122C44.0459 16.7725 43.8573 16.8528 43.4763 16.8528C41.4512 16.8542 39.4262 16.89 37.4012 16.9021C35.7608 16.9116 34.1199 16.9041 32.4796 16.9041C32.4802 16.9284 32.4802 16.9521 32.4802 16.975Z" fill="#D8D0CB"/>
<path d="M37.8502 33C38.9415 33.6929 39.9192 34.3138 41 35C35.9127 35 30.9823 35 26 35C26.2711 34.7173 26.583 34.5819 27.066 34.5837C30.3999 34.5952 33.7338 34.5908 37.0677 34.5903C37.8279 34.5903 37.8465 34.5757 37.8496 34.0351C37.8508 33.7324 37.8502 33.4296 37.8502 33Z" fill="#999B9F"/>
<path d="M12.0007 0.0211112C14.0197 0.0135328 16.0382 0 18.0573 0C30.0294 0.00108264 42.0015 0.00487258 53.9743 0.0081205C53.985 0.0362691 53.9937 0.0655003 54 0.0947316C53.795 0.214905 53.5643 0.154276 53.3468 0.154276C47.8494 0.158065 42.3513 0.157524 36.8539 0.157524C32.5431 0.157524 28.2322 0.156983 23.9214 0.159148C23.6995 0.159148 23.4738 0.12721 23.2557 0.191627C19.6018 0.19271 15.9473 0.193793 12.2934 0.194334C12.1536 0.193793 11.9881 0.217069 12.0007 0.0211112Z" fill="#C7D3E1"/>
<path d="M33 27.9999C33.08 27.6877 33.2561 27.4449 33.4003 27.1925C33.474 27.0636 33.5958 27.0191 33.7646 27.0278C33.8655 27.0328 33.9679 27.0228 34.0682 27.0299C34.3818 27.0524 34.8579 26.9147 34.9692 27.0919C35.0988 27.2985 34.7743 27.6033 34.8177 27.896C34.8328 27.9982 34.6896 27.9995 34.5888 27.9995C34.0698 28.0003 33.5514 27.9999 33 27.9999Z" fill="#FAF9F5"/>
<path d="M37.0521 0.0292307C42.3749 0.0243588 47.6977 0.020028 53.0205 0.0146148C53.2992 0.0140735 53.578 0.00487188 53.8568 0C53.9207 0.0292313 54.0331 0.0373507 53.9907 0.126668C53.9766 0.1559 53.8544 0.152111 53.7813 0.152111C48.203 0.136954 42.6242 0.120714 37.0459 0.104474C37.0035 0.0849866 36.9906 0.0671233 37.0066 0.051425C37.0213 0.0368094 37.0361 0.0292307 37.0521 0.0292307Z" fill="#C7D3E1"/>
<path d="M37 0.0186358C36.9955 0.0438486 36.9929 0.0690615 36.9935 0.0948224C33.8844 0.0975629 30.7752 0.101948 27.6654 0.1014C26.1105 0.1014 24.5556 0.0920822 23 0.0866012C23.1195 -0.0142502 23.2718 0.0104146 23.4158 0.0104146C27.8604 0.00602971 32.3049 0.00274053 36.7495 0C36.8334 0 36.9167 0.0120585 37 0.0186358Z" fill="#DBC1C2"/>
<path d="M32.4928 24.9656C32.0759 25.0933 32.016 24.8549 32.0008 24.4298C31.9821 23.891 32.2873 24.0467 32.5371 24.0102C32.8959 23.9576 33 24.1063 33 24.5124C32.9996 24.9531 32.8387 25.0487 32.4928 24.9656Z" fill="#E4DAD3"/>
<path d="M34.514 21.0286C34.8936 20.9249 34.983 21.1049 34.999 21.538C35.0199 22.11 34.7047 21.9544 34.4428 21.991C34.1081 22.0383 34.0129 21.902 34.0009 21.5096C33.9853 21.0256 34.1703 20.9498 34.514 21.0286Z" fill="#E1D9D4"/>
<path d="M45.5038 24.0248C45.8648 23.9374 45.9817 24.0771 45.9988 24.5048C46.0195 25.0284 45.7691 24.9695 45.4651 24.9959C45.0893 25.0284 45.0128 24.8689 45.0007 24.4707C44.9863 23.9862 45.2012 23.9644 45.5038 24.0248Z" fill="#E6D7D3"/>
<path d="M34.4465 24.9778C34.1083 25.0652 33.9898 24.895 34.0007 24.4588C34.0098 24.0972 34.0851 23.976 34.4193 24.0038C34.8629 24.0402 35.0022 24.1598 35 24.6294C34.9986 24.9814 34.9986 24.9814 34.4465 24.9778Z" fill="#E5DDD5"/>
<path d="M34.0295 26.9959C33.8509 25.9096 34.5142 25.971 35.1741 26.0237C35.2814 26.0325 35.3947 26.0035 35.496 26.0291C35.6814 26.0771 36.0453 25.8582 35.9953 26.2838C35.958 26.6034 35.96 27.0196 35.4381 26.9993C34.9668 26.9817 34.4948 26.9959 34.0295 26.9959Z" fill="#EFE5DD"/>
<path d="M41.4957 21.966C41.1684 22.0389 40.9918 21.9929 41.0003 21.5344C41.0079 21.1246 41.0871 20.9638 41.4588 21.0067C41.7434 21.0398 42.0167 20.9313 41.9992 21.49C41.9839 21.982 41.8198 22.0585 41.4957 21.966Z" fill="#ECE6E3"/>
<path d="M33 22.9696C33.0817 22.7052 33.1795 22.4472 33.2366 22.1828C33.2883 21.9437 33.488 22.0144 33.6515 22.0017C33.8482 21.987 33.9213 22.0666 33.9533 22.2366C34.0897 22.9649 33.9711 23.0652 33 22.9696Z" fill="#E6DDD4"/>
<path d="M43.9491 23C43.6418 22.7503 43.3756 22.5356 43.1118 22.3173C43.0528 22.2685 42.982 22.2151 43.0042 22.1185C43.0287 22.0127 43.1189 22.0337 43.1911 22.0245C43.2062 22.0224 43.2217 22.024 43.2369 22.0224C44.0151 21.9454 44.0741 22.0209 43.9491 23Z" fill="#F0E4DD"/>
<path d="M53.0124 37C53.0098 36.9655 53.0066 36.9314 53.0039 36.8969C53.0322 36.8794 53.0872 36.8505 53.0851 36.8464C52.7598 36.1418 53.4499 36.2412 53.7655 36.0479C53.8035 36.0247 53.8585 36.0278 54 36C53.788 36.5057 53.4435 36.7897 53.0124 37Z" fill="#F3D3B7"/>
<path d="M35 22.9731C34.6084 22.9624 34.1854 23.0924 34.099 22.8612C34.0018 22.6013 33.9086 22.295 34.1707 22.0591C34.3326 21.9136 34.5289 22.0676 34.5946 22.1901C34.7242 22.4351 34.8489 22.6812 35 22.9731Z" fill="#EEE0DD"/>
<path d="M41.0649 22C41.4154 22.3983 41.5965 22.7303 42 22.9987C41.0756 23.0182 40.8755 22.8256 41.0649 22Z" fill="#EAD6CE"/>
<path d="M32 26.0277C31.5752 26.3222 31.2993 26.6175 31.0035 27C30.9856 25.9638 30.9984 25.9514 32 26.0277Z" fill="#FDECE4"/>
<path d="M37.9796 22.1017C37.9862 22.1681 37.9934 22.2346 38 22.3005C37.3748 22.3632 36.7489 22.3648 36.1237 22.3021C36.0822 22.2351 36.0415 22.1681 36 22.1017C36.6594 21.9238 37.3195 22.016 37.9796 22.1017Z" fill="#999B9F"/>
<path d="M43 24.2594C42.6227 24.3226 42.2931 24.3628 42.0468 24.1683C41.9575 24.0981 41.9992 24.0322 42.1451 24.0129C42.5453 23.9615 42.7974 24.0676 43 24.2594Z" fill="#D6BDB7"/>
<path d="M42.0783 24C42.2949 24.3845 42.2267 24.6847 42.1926 25C41.9596 24.6664 41.9596 24.6664 42.0783 24Z" fill="#CEBAB2"/>
<path d="M39 22.0621C39.3513 22.0449 39.745 21.8938 39.9875 22.1371C40.0212 22.1713 39.9798 22.2726 39.9452 22.2769C39.5534 22.3278 39.2984 22.1676 39 22.0621Z" fill="#EAD0CB"/>
<path d="M32 21.8008C31.7926 21.8699 31.544 21.879 31.4036 22.0498C30.4385 23.2203 28.9573 24.0899 28.5506 25.5913C28.4918 25.8076 28.4703 26.2477 28.1161 26.1701C27.7221 26.0834 28.0187 25.7064 28.0744 25.489C28.2401 24.8443 28.4677 24.2098 28.6992 23.5785C28.9022 23.0238 29.388 22.6409 29.8819 22.2656C30.281 21.963 30.6775 21.6541 30.83 21.1941C30.9059 20.9644 30.9141 20.7283 30.6775 20.5692C30.4537 20.4188 30.2399 20.5821 30.0571 20.672C29.486 20.9537 28.9611 21.2894 28.5392 21.728C28.4741 21.7954 28.4184 21.8741 28.3381 21.9256C26.9707 22.8058 26.6292 24.1225 26.251 25.4248C26.22 25.5318 26.2478 25.6786 26.0632 25.7219C25.8734 25.2657 26.5862 23.2037 27.1858 22.5403C26.5312 22.6441 26.0663 22.9092 25.7501 23.3472C25.3213 23.941 24.9153 24.5471 24.4953 25.1452C24.4074 25.27 24.396 25.4858 24.1462 25.4526C23.9381 25.4253 23.8856 25.247 23.8186 25.1013C23.4941 24.3988 23.8825 23.5592 24.6724 23.2283C25.0025 23.0902 25.3542 22.9761 25.6015 22.7266C25.7267 22.6002 25.8165 22.4615 25.7153 22.2977C25.6053 22.1199 25.4187 22.2067 25.2795 22.2468C24.8659 22.3668 24.446 22.4133 24.0102 22.4364C23.4638 22.4653 22.4322 23.2926 22.3348 23.7563C22.2849 23.9946 22.2381 24.2441 22.2672 24.4818C22.4784 26.2199 21.9883 27.8745 21.4589 29.5258C21.3242 29.9456 21.1964 30.3675 21.0541 30.7852C20.9681 31.0385 20.8517 31.0995 20.7322 30.7943C21.2704 29.0648 21.9794 27.3674 22.0129 25.5468C22.0205 25.1522 21.9206 25.0007 21.4121 25.0232C20.5298 25.0622 19.6437 25.0424 18.7589 25.0301C18.0576 25.0199 18.0512 24.9562 18.0025 24.1777C17.9715 23.6743 18.2252 23.5308 18.7533 23.5362C19.6994 23.5453 20.6456 23.5421 21.5917 23.533C21.7903 23.5308 22.0698 23.6283 22.1242 23.329C20.853 23.1475 20.8264 23.1389 20.9687 22.1654C21.0718 21.4586 21.7416 21.8683 22.1495 21.7938C22.9926 21.6396 22.8724 22.1842 22.8781 22.6034C23.1045 22.6243 23.0805 22.4878 23.066 22.401C22.9825 21.9015 23.2563 21.729 23.8085 21.7981C24.1993 21.8474 24.6256 21.6739 24.9829 21.9657C25.1297 22.0857 25.1992 21.8608 25.3207 21.8361C25.8057 21.7371 26.2997 21.7874 26.788 21.8072C27.0118 21.8163 27.0492 22.0268 27.1579 22.3523C27.2952 21.6894 27.9359 21.9073 28.278 21.623C27.0473 21.4983 27.3515 21.4661 27.2996 20.528C27.2813 20.1955 27.4432 20.0632 27.8347 20.044C29.097 19.9813 29.1565 19.9995 29.3203 20.7893C29.4569 20.4263 29.3608 19.9444 30.0084 20.0397C30.4499 20.1045 31.112 19.8025 31.291 20.2533C31.4801 20.7304 31.6319 21.3596 30.8597 21.7098C31.1493 21.9181 31.3486 21.7124 31.5699 21.6712C31.7375 21.6589 31.9545 21.5234 32 21.8008Z" fill="#613B39"/>
<path d="M20.9923 21.54C20.9923 21.8672 20.9732 22.1955 20.9975 22.5211C21.025 22.8876 20.8293 23.0103 20.4085 22.9986C19.8081 22.9816 19.2057 22.9816 18.6052 22.9991C18.1896 23.0114 17.9913 22.8945 18.0003 22.5285C18.0169 21.8402 18.0105 21.1512 18.0009 20.4623C17.9965 20.133 18.1742 19.9938 18.5656 20.0002C19.1871 20.0098 19.8093 20.0124 20.4309 20.0007C20.8676 19.9928 21.0192 20.1612 20.9968 20.5075C20.9751 20.8506 20.9923 21.1959 20.9923 21.54Z" fill="#63423F"/>
<path d="M21.2264 18.8933C21.375 18.7824 21.2933 18.7187 21.1645 18.6398C20.9902 18.5332 20.9622 18.3755 21.0439 18.223C21.1278 18.0661 21.3092 18.0093 21.5191 18.0076C21.7131 18.0063 21.9066 18.0059 22.1001 18.0007C22.3248 17.9946 22.5243 18.0267 22.6345 18.2039C22.7557 18.3989 22.6663 18.5514 22.4728 18.6814C22.5962 18.7512 22.7211 18.8223 22.8461 18.8938C23.0522 19.178 23.0445 19.4653 22.8636 19.7548C22.5852 20.0438 21.7055 20.0863 21.2215 19.8345C21.0176 19.5203 21.0143 19.2066 21.2264 18.8933Z" fill="#654642"/>
<path d="M46.9999 23.0236C47.0019 23.9476 46.9631 23.995 46.2092 23.9991C45.002 24.0054 45.002 24.0054 45.0001 22.9373C44.9982 22.0174 45.0162 22 45.9477 22C46.998 21.9993 46.998 21.9993 46.9999 23.0236Z" fill="#6D4C4C"/>
<path d="M32.4733 22C32.3714 21.8447 32.1982 21.8888 32.0522 21.8555C32.0373 21.4585 32.0349 21.0609 32.0044 20.6651C31.9684 20.1943 32.1491 19.9532 32.659 20.0076C32.6987 20.0118 32.7391 20.0082 32.7795 20.0076C33.9693 20.0003 34.1184 20.1792 33.9345 21.3437C33.8929 21.6072 33.7501 21.7196 33.4973 21.7323C33.2371 21.7456 32.9763 21.7516 32.7155 21.7613C32.4913 21.7033 32.6403 22.003 32.4733 22Z" fill="#6A4947"/>
<path d="M37.8637 20.9581C37.29 21.026 36.7164 21.0005 36.1428 20.9581C35.9006 20.7061 36.0384 20.4364 36.0448 20.1746C36.0473 20.0745 36.2073 20.0088 36.3856 20.0059C36.7948 19.9991 37.2053 19.9962 37.6132 20.0084C37.808 20.0141 37.9826 20.0842 37.9699 20.208C37.9459 20.4579 38.1065 20.7179 37.8637 20.9581Z" fill="#6A4847"/>
<path d="M20.9306 19.7243C20.7794 19.9921 20.5238 19.9683 20.274 19.967C19.8595 19.965 19.4438 19.9883 19.0312 19.9618C18.7173 19.9418 18.265 20.1438 18.1222 19.7805C17.9441 19.3281 17.9761 18.8035 18.119 18.3162C18.1497 18.2117 18.2657 18.1788 18.3778 18.1859C18.8256 17.96 19.2734 17.9168 19.7211 18.1865C20.1228 18.1956 20.5507 18.0103 20.9088 18.3485C21.0433 18.8047 21.01 19.2642 20.9306 19.7243Z" fill="#5D3D3B"/>
<path d="M31.0606 21C29.9988 20.9993 29.9988 20.9993 30.0001 20.0231C30.0014 19.0029 30.0014 19.0029 31.198 19.0001C31.9941 18.9986 32.0018 19.0086 31.9999 20.0409C31.9986 21.0007 31.9986 21.0007 31.0606 21Z" fill="#6F4E4E"/>
<path d="M27.0186 20C28.0006 20.0007 28.0006 20.0007 28 20.9006C27.9987 21.9879 27.998 21.9565 26.8107 21.9984C26.2047 22.0201 25.9758 21.8236 26.002 21.1559C26.0458 20.0007 26.0164 19.9993 27.0186 20Z" fill="#684744"/>
<path d="M23.1578 20.2671C23.6571 19.8236 24.2135 20.0557 24.7497 20.1018C24.8933 20.1142 24.9189 20.3063 24.9392 20.4716C25.1096 21.8524 24.9797 22.0273 23.7917 21.997C23.5606 21.9915 23.324 22.0107 23.1626 21.7601C22.9671 21.2629 22.9272 20.7657 23.1578 20.2671Z" fill="#624341"/>
<path d="M45.9547 20.9973C44.9915 20.9851 44.9915 20.9851 45.0019 19.7814C45.0084 18.9894 45.0084 18.9894 46.2331 19.003C47.0074 19.0115 47.0074 19.0115 46.9983 20.2259C46.9931 21.0101 46.9931 21.0101 45.9547 20.9973Z" fill="#613F3F"/>
<path d="M45.9546 21.9825C45.6885 21.9131 45.2513 22.1788 45.1013 21.7409C44.943 21.2767 44.9973 20.7474 45.0815 20.2521C45.1166 20.0444 45.3042 20.0048 45.4791 20.0033C45.6859 20.0019 45.892 20.0012 46.0988 20.0005C46.9949 19.9963 46.9949 19.9963 46.9994 20.9784C47.0045 21.9782 47.0045 21.9782 45.9546 21.9825Z" fill="#60403E"/>
<path d="M36.9661 20.9991C35.9971 20.9926 35.9971 20.9926 36.0003 19.9179C36.0029 18.9923 36.0029 18.9923 37.2322 19.0016C38.0044 19.0073 38.0044 19.0073 37.9992 20.1434C37.996 21.0026 37.9921 21.0055 36.9661 20.9991Z" fill="#5F3F3C"/>
<path d="M32.935 20.9889C32.673 20.9155 32.2382 21.1834 32.0985 20.7145C31.957 20.2392 31.9787 19.714 32.0954 19.2181C32.1374 19.0399 32.3006 19.0064 32.4511 19.0029C32.6162 18.9986 32.7813 19.0007 32.9465 19C34.0029 18.9993 34.0029 18.9993 33.9997 20.076C33.9971 20.9896 33.9971 20.9896 32.935 20.9889Z" fill="#654241"/>
<path d="M43.0251 20.9989C42.1939 20.9932 41.7634 20.1484 42.134 19.2514C42.2136 19.0586 42.3517 18.9993 42.5256 19.0029C42.7254 19.0072 42.9246 19 43.1244 19C43.9975 18.9993 44 19.0029 44 19.9856C43.9994 21.0061 43.9994 21.0061 43.0251 20.9989Z" fill="#634240"/>
<path d="M35.0628 20C34.1654 20.0004 33.768 19.6294 34.1376 19.1399C34.2006 19.0564 34.2939 19.0066 34.4497 19.003C34.6091 18.9991 34.7692 19.0001 34.9293 19.0001C36.0053 19.0016 36.0053 19.0019 35.9992 19.5811C35.9948 19.9993 35.9948 19.9993 35.0628 20Z" fill="#5D3F3C"/>
<path d="M29.6326 19.0521C30.2414 19.4523 29.9111 20.1113 29.9062 20.6388C29.902 21.118 29.4722 20.9809 29.1974 20.9844C28.0955 20.9984 27.8085 20.5493 28.1153 19.2983C28.1383 19.206 28.2449 19.1409 28.3125 19.0633C28.7525 18.966 29.1925 18.9961 29.6326 19.0521Z" fill="#60403F"/>
<path d="M43.0398 21.9997C42.1925 21.9969 41.7731 21.1986 42.1246 20.2616C42.2005 20.0593 42.338 20.0029 42.5101 20.0029C42.75 20.0022 42.9899 20 43.2304 20C43.9778 19.9993 44.0006 20.0272 44 20.9005C43.9981 22.0026 43.9981 22.0026 43.0398 21.9997Z" fill="#654040"/>
<path d="M25.1573 18.2392C25.2012 18.192 25.2458 18.1448 25.2897 18.0975C25.778 18.0962 26.2652 17.8867 26.7547 18.0859C27.1748 18.6041 26.9334 19.2016 26.9084 19.7711C26.9066 19.819 26.8303 19.8991 26.7858 19.9019C26.2335 19.9381 25.6622 20.1804 25.1494 19.7342C24.9269 19.2352 24.9726 18.7368 25.1573 18.2392Z" fill="#644443"/>
<path d="M40.9396 20.9961C40.6437 20.9196 40.2467 21.1586 40.1095 20.7692C39.9386 20.2855 39.9974 19.7366 40.0862 19.2203C40.1156 19.0487 40.2761 19.004 40.4232 19.0012C40.5616 18.999 40.7001 19.0005 40.8391 19.0005C41.8818 18.9969 42.1942 19.47 41.8879 20.6267C41.7207 21.2571 41.2434 20.8607 40.9396 20.9961Z" fill="#5E433F"/>
<path d="M24.8787 20.7089C24.3241 21.1682 23.7369 20.9839 23.1509 20.8297C22.9542 20.29 22.953 19.7469 23.1284 19.201C23.6913 18.8868 24.5848 18.9504 24.8893 19.3259C25.0345 19.7888 25.0428 20.2502 24.8787 20.7089Z" fill="#5A3B38"/>
<path d="M22.8884 21.6543C22.6516 21.9334 21.3922 22.1432 21.1934 21.878C20.8674 21.4424 21.0497 20.8877 21.0607 20.3897C21.0698 19.9839 21.4057 19.9998 21.6552 20.0359C22.0657 20.0947 22.5367 19.7997 22.8786 20.2845C23.0425 20.7395 23.0352 21.1965 22.8884 21.6543Z" fill="#5C3938"/>
<path d="M38.9951 21.9998C38.0022 22.0019 38.0022 22.0019 38.0002 21.1581C37.9982 20.0016 37.9982 20.0016 38.8978 20.0002C40 19.998 40 19.998 40 21.156C40.0006 21.997 40.0006 21.997 38.9951 21.9998Z" fill="#613F3B"/>
<path d="M39.0394 19.0001C40.0024 19.0015 40.0024 19.0015 39.9997 20.1583C39.9978 20.991 39.9978 20.971 38.8109 20.9988C38.2801 21.011 37.9701 20.9396 38.0023 20.219C38.0555 19.0001 38.0167 18.9987 39.0394 19.0001Z" fill="#5D3D39"/>
<path d="M25.0873 18C25.2461 18.0126 25.4407 18 25.6142 18.0465C26.0239 18.157 26.1276 18.5635 25.8267 18.8102C25.547 19.0395 24.5412 19.0679 24.2294 18.8578C24.0489 18.7364 23.9605 18.5766 24.0169 18.3912C24.0713 18.2128 24.2096 18.0689 24.4388 18.0388C24.643 18.0131 24.8517 18.0131 25.0873 18Z" fill="#725452"/>
<path d="M20.6263 19C20.1728 19 19.7193 18.9994 19.2657 18.9994C19.1269 18.71 18.7797 18.4276 19.2041 18.1151C19.4299 17.9487 20.6341 17.9668 20.8242 18.1431C21.2044 18.4958 20.8878 18.7462 20.6263 19Z" fill="#6E4D4A"/>
<path d="M37.9876 17.9942C37.8178 17.9948 37.6467 18.0083 37.4788 17.9919C37.1871 17.9637 37.0199 17.8089 37.0016 17.5438C36.9812 17.2471 37.1602 17.0676 37.4716 17.0324C37.7857 16.9972 38.1076 16.9943 38.4242 17.0066C38.7618 17.0195 39.0077 17.1837 38.9998 17.4992C38.9913 17.8347 38.7553 18.0071 38.3691 17.9942C38.2426 17.9907 38.1148 17.9942 37.9876 17.9942Z" fill="#654745"/>
<path d="M26.2891 18.9266C25.9842 18.7886 25.9496 18.5569 26.0515 18.3042C26.1416 18.0814 26.3629 18.0123 26.6103 18.0077C26.8421 18.0036 27.0738 18.0106 27.305 18.0012C27.5792 17.9901 27.8227 18.0515 27.9382 18.2855C28.0623 18.5359 28.0042 18.7646 27.7215 18.9172C27.2442 18.9477 26.7677 19.0816 26.2891 18.9266Z" fill="#624541"/>
<path d="M45.9928 17.9917C45.8229 17.9917 45.651 18.0062 45.483 17.9882C45.1939 17.9578 45.0193 17.805 45.0015 17.5436C44.9818 17.2543 45.153 17.0653 45.4685 17.0303C45.7834 16.9953 46.1061 16.9941 46.423 17.0093C46.7556 17.025 46.9967 17.1697 47 17.4964C47.0033 17.819 46.7806 17.9689 46.4388 17.9946C46.2912 18.0057 46.1411 17.9963 45.9922 17.9963C45.9928 17.9946 45.9928 17.9928 45.9928 17.9917Z" fill="#634546"/>
<path d="M32.907 17.9949C32.7595 17.9949 32.6107 18.0082 32.4659 17.9919C32.1735 17.9593 32.0073 17.7832 32.0002 17.5202C31.9937 17.2583 32.1483 17.0563 32.4374 17.0261C32.7705 16.9917 33.1094 17.0008 33.4457 17.002C33.8047 17.0032 34.0006 17.1998 34 17.5153C33.9994 17.8085 33.7943 17.9768 33.4748 17.9931C33.2866 18.0027 33.0965 17.9949 32.907 17.9949Z" fill="#705251"/>
<path d="M30.0394 18C30.2299 18.0076 30.4231 18 30.6098 18.0276C30.8526 18.0635 30.9661 18.2385 30.9942 18.4342C31.0223 18.6322 30.9511 18.8642 30.7273 18.9042C30.3239 18.9764 29.9003 19.0182 29.4918 18.9923C29.1694 18.9717 28.9586 18.745 29.0069 18.4271C29.0506 18.1381 29.2764 18.0117 29.5936 18.0129C29.7418 18.0135 29.8906 18.0129 30.0387 18.0129C30.0387 18.0088 30.0394 18.0047 30.0394 18Z" fill="#60433F"/>
<path d="M34.9773 17.9943C34.8063 17.9943 34.6327 18.0089 34.4637 17.9913C34.1644 17.9596 33.998 17.7837 34 17.5122C34.002 17.2498 34.1421 17.0489 34.4505 17.0239C34.7484 17.0002 35.049 17.0038 35.3489 17.0002C35.7152 16.9947 35.9954 17.1128 36 17.4951C36.0039 17.875 35.7369 18.0041 35.3633 17.9992C35.2351 17.9974 35.1062 17.9992 34.978 17.9992C34.9773 17.9968 34.9773 17.9955 34.9773 17.9943Z" fill="#5E403E"/>
<path d="M42.9997 17.9963C42.8306 17.9963 42.6601 18.006 42.4917 17.9939C42.1574 17.9709 41.9942 17.7735 42.0002 17.489C42.0054 17.2335 42.162 17.038 42.4614 17.015C42.7562 16.9926 43.0543 17.0077 43.3504 17.0005C43.7195 16.9914 43.9926 17.1173 43.9998 17.4836C44.0084 17.8904 43.705 18.0042 43.3175 17.9963C43.2115 17.9945 43.1056 17.9969 42.9997 17.9963Z" fill="#5F403D"/>
<path d="M40.051 17.0103C40.2198 17.0103 40.3913 16.9928 40.5562 17.014C40.8501 17.0526 41.0039 17.2413 40.9999 17.4994C40.996 17.7551 40.8481 17.951 40.5458 17.9734C40.231 17.9964 39.9136 17.9988 39.5975 18C39.2546 18.0012 39.0137 17.8507 39.0006 17.5242C38.9856 17.1621 39.2375 17.0079 39.6086 17.0013C39.7565 16.9988 39.9044 17.0007 40.0517 17.0007C40.051 17.0043 40.051 17.0073 40.051 17.0103Z" fill="#603F3F"/>
<path d="M27.0835 18.0087C27.5972 18.006 28.1102 18.0032 28.6239 18C29.033 18.2809 29.5782 17.9599 30 18.1846C29.4877 18.1878 28.9761 18.1905 28.4639 18.1938C28.2084 18.0498 27.9481 18.0747 27.6863 18.1819C27.1242 18.1851 26.5621 18.1878 26 18.1911C26.3088 17.9497 26.7656 18.2246 27.0835 18.0087Z" fill="#999B9F"/>
<path d="M23.233 19.0013C23.2413 19.3343 23.2488 19.6674 23.257 20C23.1781 19.9503 23.0992 19.9003 23.0202 19.8506C23.0133 19.5672 23.0063 19.2834 23 19C23.0771 19.0004 23.1554 19.0009 23.233 19.0013Z" fill="#999B9F"/>
<path d="M23.0101 20.9142C23.0069 20.6102 23.0038 20.3058 23 20.0018C23.072 20.0014 23.1434 20.0005 23.2154 20C23.2173 20.3335 23.2185 20.6665 23.2204 21C23.1497 20.9714 23.0796 20.9428 23.0101 20.9142Z" fill="#999B9F"/>
<path d="M25 19.9936C25.0038 19.6914 25.0076 19.3887 25.0114 19.0865C25.0796 19.0577 25.1478 19.0288 25.216 19C25.2135 19.3333 25.2109 19.6667 25.2084 20C25.1396 19.9982 25.0695 19.9959 25 19.9936Z" fill="#999B9F"/>
<path d="M21.0227 19.9968C21.0152 19.6699 21.0076 19.3425 21 19.0157C21.0448 19.0106 21.0903 19.0055 21.1352 19C21.1339 19.3333 21.132 19.6667 21.1307 20L21.0771 19.9959L21.0227 19.9968Z" fill="#999B9F"/>
<path d="M33.0672 1.10963C39.6386 1.10963 46.2094 1.10963 52.7808 1.10963C52.9667 1.10963 53.1533 1.10746 53.3386 1.11506C53.9687 1.14057 54.1419 1.36689 53.8868 1.86838C52.6932 4.21246 51.4901 6.55328 50.2927 8.89628C49.3422 10.7557 48.3846 12.6124 47.4537 14.4789C47.2697 14.8485 46.9474 14.8382 46.5939 14.8403C43.9701 14.8572 41.3462 14.8778 38.7217 14.8908C31.6547 14.925 24.5877 14.9472 17.5214 14.9999C16.8297 15.0053 16.5594 14.8013 16.3716 14.2471C14.9705 10.112 13.5294 5.98667 12.1017 1.85807C11.8637 1.16988 12.0154 1 12.8568 1C19.5938 1 26.3302 1 33.0672 1C33.0672 1.03636 33.0672 1.07273 33.0672 1.10963Z" fill="#5C3A37"/>
<path d="M21.1036 24.0066C21.5889 24.0066 22.075 24.0222 22.5583 24.0014C22.9158 23.9863 23.0708 24.0913 22.9695 24.3465C22.8778 24.5784 23.2843 25.0082 22.5399 24.9999C21.5482 24.989 20.555 24.9827 19.5632 24.9957C19.0092 25.003 19.0092 24.7551 19.0004 24.438C18.9909 24.0991 19.1622 23.9895 19.5823 24.004C20.0887 24.0212 20.5965 24.0082 21.1036 24.0082C21.1036 24.0076 21.1036 24.0071 21.1036 24.0066Z" fill="#EBE4E3"/>
<path d="M22.4779 22.9767C22.1714 23.0386 21.9991 22.9966 22 22.5425C22.0005 22.0905 22.1176 21.9724 22.4945 22.0051C22.788 22.0307 23.0083 21.9847 22.9998 22.4802C22.9912 22.9603 22.8225 23.0518 22.4779 22.9767Z" fill="#EAE3DC"/>
<path d="M28.385 21.9808C28.0963 22.0593 28.0279 21.8938 28.0038 21.5462C27.9678 21.0251 28.1921 20.9712 28.5441 21.0099C28.7634 21.034 29.0206 20.9105 28.9987 21.3791C28.9773 21.8478 28.7894 22.0122 28.385 21.9808Z" fill="#EDE8E1"/>
<path d="M24.0101 24.6629C24.2472 24.4742 23.853 24.0249 24.6663 24.0005C25.0659 23.9883 25.0002 24.1908 24.9895 24.3333C24.9673 24.63 24.8617 24.9294 24.289 24.9956C23.9826 25.0312 23.9853 24.843 24.0101 24.6629Z" fill="#E7D8D0"/>
<path d="M30.1759 23C29.9771 23.0021 29.9712 22.8333 30.0391 22.7241C30.2205 22.4325 30.5018 22.2219 30.7853 22.0254C30.8456 21.9836 31.0063 21.9758 30.9998 22.1419C30.9949 22.2501 30.3014 22.9901 30.1759 23Z" fill="#EBDBD5"/>
<path d="M26.1286 23C26.313 22.6942 25.6481 22.2412 26.2771 22.073C26.5022 22.0129 26.9469 21.8735 26.994 22.2743C27.0666 22.8885 26.4655 22.7822 26.1286 23Z" fill="#E0D6C9"/>
<path d="M31 23.3626C30.8576 23.6502 30.6393 23.8825 30.359 23.9857C30.1372 24.0669 29.9692 23.7818 30.0048 23.6502C30.0723 23.3968 30.1408 23.0515 30.4841 23.0012C30.6284 22.9809 30.8229 23.2319 31 23.3626Z" fill="#EEE3D9"/>
<path d="M25 22.1421C24.7291 22.1796 24.4576 22.2128 24.1882 22.2583C24.1106 22.2717 24.0295 22.321 24.0051 22.1989C23.9787 22.0681 24.0578 22.0055 24.1643 22.0033C24.441 21.9974 24.7178 22.0012 24.9946 22.0012C24.9961 22.0483 24.998 22.0949 25 22.1421Z" fill="#CBB3AE"/>
<path d="M26 23C25.7739 23.4294 25.6397 23.684 25.4733 24C25.2786 23.8361 25.2418 23.5714 25 23.5042C25.2755 23.2546 25.5369 23.1361 26 23Z" fill="#E9D5CF"/>
<path d="M29 25C29.0897 24.6667 29.1794 24.3333 29.269 24C29.4351 24.4407 29.1718 24.7 29 25Z" fill="#AE8A86"/>
<path d="M21 22.5022C20.9994 23.999 20.9994 24.0041 19.7299 23.9984C18.8848 23.9946 19.0211 24.097 19.0099 23.1501C19.0034 22.5937 19.028 22.0361 19.0018 21.4809C18.9826 21.0841 19.1136 20.9608 19.422 21.0104C19.5241 21.0269 19.6294 21.0148 19.7336 21.0155C21.0005 21.0199 21.0005 21.0199 21 22.5022Z" fill="#EBE6E3"/>
<path d="M22.4734 19.9752C22.1497 20.0519 22.0046 19.9646 22.0001 19.5176C21.9956 19.0537 22.1461 18.9801 22.4842 19.0039C22.7713 19.0241 22.9986 18.9626 23 19.4827C23.0013 20.0101 22.7943 20.035 22.4734 19.9752Z" fill="#EEE5E1"/>
<path d="M22.5091 18.4045C22.4164 18.404 22.3231 18.4051 22.2304 18.404C22.1106 18.4024 22.0087 18.3557 22.0005 18.2085C21.9918 18.0528 22.0947 18.0093 22.215 18.0066C22.37 18.0034 22.525 17.9975 22.6796 18.0012C22.8139 18.0044 22.993 17.9695 22.9998 18.1902C23.0066 18.4061 22.837 18.4024 22.695 18.4051C22.6332 18.4056 22.5709 18.4045 22.5091 18.4045Z" fill="#E8D8D1"/>
<path d="M45.4505 22.9747C45.091 23.072 45.0197 22.8843 45.0015 22.4835C44.9777 21.9568 45.2397 22.0298 45.5335 22.0044C45.8906 21.9732 45.9824 22.1043 45.9988 22.512C46.0202 23.0413 45.7591 23.0006 45.4505 22.9747Z" fill="#EEEBE0"/>
<path d="M32.4977 21.9759C32.1725 22.0466 32.0028 21.9801 32 21.4994C31.9969 21.0107 32.1825 21.0017 32.4977 21.0001C32.8166 20.9985 33.0031 21.0155 33 21.501C32.9968 21.9786 32.823 22.0477 32.4977 21.9759Z" fill="#F1E8E2"/>
<path d="M36.4893 21.0422C36.8429 20.955 36.9785 21.047 36.9983 21.4868C37.0232 22.0303 36.771 21.9927 36.4584 21.9991C36.1725 22.0054 35.9955 21.9906 36.0001 21.5529C36.0052 21.094 36.1172 20.909 36.4893 21.0422Z" fill="#F0E9E4"/>
<path d="M19.9796 20C19.8783 20 19.7771 20 19.6759 20C19.081 19.999 18.8957 19.7431 19.0538 19.1749C19.1055 18.9886 19.2313 19.0026 19.3633 19.0016C19.6842 18.999 20.0052 19.001 20.3256 19C20.9236 18.9985 21.1036 19.2424 20.9455 19.8199C20.9048 19.9678 20.8182 19.999 20.6888 19.9984C20.4524 19.9969 20.216 19.9979 19.9796 19.9979C19.9796 19.999 19.9796 19.9995 19.9796 20Z" fill="#ECE3DF"/>
<path d="M30.5303 19.0251C30.8565 18.9434 30.9928 19.052 30.9997 19.4838C31.0076 19.9493 30.8352 19.9978 30.4978 19.9999C30.1572 20.0021 30.0052 19.9467 30.0001 19.4854C29.9941 18.9756 30.2216 18.9866 30.5303 19.0251Z" fill="#EDE7DE"/>
<path d="M26.4874 21.9732C26.155 22.0551 26.0196 21.962 26.0014 21.5159C25.9787 20.9598 26.2391 21.0263 26.5428 21.0034C26.8852 20.9773 26.987 21.097 26.9993 21.5138C27.0147 22.0381 26.7838 22.0306 26.4874 21.9732Z" fill="#EEE3E0"/>
<path d="M24.4496 21.972C24.1005 22.0748 24.0199 21.8916 24.0014 21.4677C23.978 20.9273 24.2518 21.037 24.5208 21.0072C24.8698 20.9686 24.9888 21.0777 24.9996 21.5214C25.0122 22.0576 24.7514 21.9861 24.4496 21.972Z" fill="#EEE7DF"/>
<path d="M45.4643 19.9777C45.147 20.0534 44.9986 19.9464 45 19.5052C45.0014 19.0853 45.12 19.0086 45.4762 19.0005C45.8855 18.9909 45.9876 19.1231 45.9995 19.5703C46.0124 20.071 45.7523 19.9812 45.4643 19.9777Z" fill="#E1D9D3"/>
<path d="M45.4925 21.0317C45.8782 20.9327 45.9935 21.0902 45.9998 21.5402C46.0062 21.9969 45.8231 22.0169 45.5257 21.9938C45.262 21.9733 44.9705 22.098 45.0024 21.5495C45.0275 21.1266 45.0912 20.9152 45.4925 21.0317Z" fill="#E8E1DB"/>
<path d="M36.5372 19.0323C36.9756 18.8979 36.9738 19.2022 36.9976 19.5888C37.0295 20.1007 36.7366 19.9573 36.4981 19.9899C36.128 20.0405 36.0023 19.9067 36 19.4645C35.9973 18.9796 36.2215 18.9902 36.5372 19.0323Z" fill="#E5D9D3"/>
<path d="M32.4593 19.9695C32.058 20.089 32.0295 19.8444 32.0032 19.4671C31.9643 18.9027 32.2842 19.044 32.5561 19.0079C32.9126 18.9606 32.9795 19.1249 32.9981 19.5017C33.0239 20.0183 32.785 20.0259 32.4593 19.9695Z" fill="#E7E0DD"/>
<path d="M43.4374 19.9905C43.2362 20.0065 42.9768 20.0596 43.0017 19.538C43.0206 19.1377 43.0893 18.9731 43.4658 19.0035C43.7718 19.0283 44.0417 18.9716 43.9946 19.5019C43.9517 19.9843 43.9861 19.9884 43.4374 19.9905Z" fill="#EAE0DA"/>
<path d="M34.479 19.9714C34.1121 20.0732 34.0208 19.9015 34.0016 19.4876C33.977 18.9552 34.2419 19.0185 34.5412 19.0023C34.8629 18.9846 34.994 19.0611 34.9998 19.4805C35.0065 19.9633 34.8289 20.0484 34.479 19.9714Z" fill="#E4DBD3"/>
<path d="M28.5097 19.0303C28.8768 18.9298 28.9826 19.0775 28.9989 19.501C29.0185 20.0215 28.7652 19.9676 28.4593 19.9956C28.0726 20.0311 28.0177 19.8524 28.0013 19.4644C27.9804 18.9663 28.2101 18.9729 28.5097 19.0303Z" fill="#E9E2DA"/>
<path d="M43.5133 21.0276C43.8515 20.9378 43.9728 21.0603 43.9975 21.4938C44.0312 22.0829 43.7199 21.9519 43.4257 21.9922C43.0368 22.0457 43.0238 21.8198 43.0027 21.476C42.9726 20.9899 43.2007 20.9725 43.5133 21.0276Z" fill="#EBE1DE"/>
<path d="M26.4671 19.9728C26.1177 20.0693 26.0185 19.9101 26.0012 19.4799C25.978 18.9077 26.2833 19.045 26.5585 19.008C26.9206 18.9589 26.9779 19.1374 26.9979 19.5159C27.0252 20.0323 26.7764 20.0077 26.4671 19.9728Z" fill="#EDE4DD"/>
<path d="M41.479 19.9721C41.1041 20.0744 41.0099 19.8921 41.0004 19.4801C40.991 19.0559 41.1374 18.9846 41.4579 19.0025C41.7565 19.0188 42.0079 18.952 41.9998 19.4862C41.9922 19.9721 41.8198 20.0439 41.479 19.9721Z" fill="#EDDED9"/>
<path d="M24.4441 19.9766C24.0963 20.0701 24.0224 19.879 24.0018 19.4755C23.9736 18.918 24.2735 19.0466 24.5515 19.0084C24.9463 18.9541 24.9763 19.166 24.9978 19.5416C25.0282 20.0783 24.7391 19.9802 24.4441 19.9766Z" fill="#ECE3DB"/>
<path d="M22.5007 20.9742C22.161 21.0541 21.9987 20.9639 22 20.4847C22.0009 20.0156 22.1811 20.0039 22.4922 20.0003C22.8267 19.9967 23.0086 20.0218 22.9997 20.5175C22.9912 20.987 22.8209 21.0367 22.5007 20.9742Z" fill="#EDE2DC"/>
<path d="M39.4529 21.985C39.194 22.0281 38.9867 22.0076 39.0007 21.5149C39.0124 21.0914 39.1177 20.977 39.4733 21.0037C39.7796 21.0268 40.0507 20.9667 39.9919 21.5051C39.94 21.9773 39.9806 21.9835 39.4529 21.985Z" fill="#ECE3DF"/>
<path d="M39.4861 19.9743C39.1502 20.0561 38.9991 19.9539 39 19.5035C39.0009 19.0679 39.138 18.9947 39.4802 19.0003C39.8206 19.0059 40.0013 19.0313 40 19.5193C39.9991 20.0043 39.8035 20.0277 39.4861 19.9743Z" fill="#E8E0DC"/>
<path d="M24.4509 18.3818C24.3345 18.371 24.216 18.3737 24.1057 18.3436C24.0587 18.3308 24 18.248 24 18.197C24 18.1439 24.0557 18.0563 24.1016 18.0445C24.2119 18.015 24.3355 17.9956 24.4453 18.0182C24.644 18.0595 25.0065 17.8635 24.9999 18.2126C24.9943 18.5015 24.6404 18.313 24.4509 18.3818Z" fill="#F5E9E7"/>
<path d="M19.4824 18.002C19.5924 18.002 19.7024 17.9966 19.8114 18.0036C19.9141 18.01 19.9965 18.0675 19.9999 18.1894C20.0033 18.3113 19.9228 18.3822 19.8221 18.3892C19.65 18.4015 19.477 18.3994 19.3045 18.3945C19.1659 18.3908 18.9876 18.4069 19.0007 18.1797C19.0113 18.0025 19.1645 18.0014 19.2934 18.002C19.3569 18.002 19.4198 18.002 19.4824 18.002Z" fill="#EADDD9"/>
<path d="M37.4605 18.4296C37.342 18.4172 37.232 18.4194 37.1291 18.3904C37.0538 18.3694 36.9746 18.2776 37.0078 18.1976C37.1424 17.8732 37.4126 18.0547 37.6226 18.0187C37.7491 17.9972 37.915 17.9607 37.9862 18.1508C38.0307 18.2701 37.962 18.3598 37.8624 18.3818C37.7273 18.4124 37.588 18.4156 37.4605 18.4296Z" fill="#E8DAD1"/>
<path d="M27.5586 18.3835C27.4142 18.3835 27.3041 18.3894 27.1944 18.3819C27.0926 18.3744 27.0035 18.3207 27.0001 18.1998C26.9962 18.0742 27.0907 18.0253 27.1891 18.014C27.2982 18.0017 27.4113 17.9925 27.5185 18.0097C27.6898 18.0377 27.9839 17.905 27.9991 18.1639C28.0192 18.5162 27.6922 18.3212 27.5586 18.3835Z" fill="#F0E5DC"/>
<path d="M45.442 18.0034C45.6111 18.0034 45.7204 17.9975 45.8292 18.0055C45.9098 18.0114 45.9856 18.0506 45.9977 18.1511C46.0128 18.2714 45.9521 18.3546 45.8496 18.3755C45.7432 18.3976 45.6291 18.4169 45.5246 18.397C45.3337 18.3616 44.9966 18.5415 45 18.1795C45.0029 17.8471 45.3386 18.0968 45.442 18.0034Z" fill="#E6D6D6"/>
<path d="M32.4712 18.4083C32.3753 18.4077 32.2789 18.4169 32.184 18.4056C32.0842 18.3938 31.9715 18.3347 32.0065 18.2155C32.1059 17.8798 32.3797 18.0468 32.5794 18.0211C32.7262 18.0017 32.9234 17.9443 32.9902 18.1682C33.0317 18.3078 32.9363 18.3959 32.8058 18.4067C32.6956 18.4163 32.5834 18.4088 32.4712 18.4083Z" fill="#EBDBD4"/>
<path d="M29.5447 18.4202C29.4253 18.4202 29.3313 18.4213 29.2373 18.4197C29.1179 18.4175 29.0088 18.3762 29.0005 18.2296C28.9917 18.0787 29.1028 18.0287 29.2178 18.0147C29.3108 18.0035 29.4083 17.9917 29.4989 18.0099C29.6792 18.0454 29.99 17.8842 29.9998 18.2043C30.01 18.5432 29.6904 18.3606 29.5447 18.4202Z" fill="#E9D6CF"/>
<path d="M35.5011 18.4287C35.3842 18.4228 35.2736 18.4255 35.1654 18.4094C35.0626 18.3944 34.9895 18.3262 35.0012 18.201C35.0095 18.1081 35.067 18.0421 35.1527 18.0313C35.2614 18.0179 35.3749 17.9975 35.4801 18.019C35.6682 18.0571 36.0043 17.86 36 18.23C35.9961 18.5388 35.6745 18.3783 35.5011 18.4287Z" fill="#EAD8D2"/>
<path d="M42.513 18.4178C42.3954 18.4178 42.3008 18.4248 42.2071 18.4162C42.0861 18.4049 41.9909 18.3442 42.0007 18.1917C42.0085 18.0682 42.0953 18.0209 42.1968 18.0139C42.2905 18.0075 42.3891 17.993 42.4789 18.015C42.6662 18.0612 43.0048 17.8587 42.9999 18.2255C42.9956 18.5236 42.674 18.3791 42.513 18.4178Z" fill="#E7D9D1"/>
<path d="M40.5564 18.4155C40.4011 18.4155 40.2907 18.4214 40.1813 18.4139C40.0753 18.4063 40.0025 18.336 40.0001 18.2189C39.9972 18.1008 40.069 18.0293 40.1745 18.0191C40.2839 18.0089 40.3972 17.9944 40.5037 18.0148C40.6825 18.0492 40.9956 17.8768 41 18.2082C41.0044 18.5379 40.6873 18.3709 40.5564 18.4155Z" fill="#E6D8D6"/>
<path d="M33.5121 1.10609C40.0214 1.10609 46.53 1.10139 53.0392 1.11132C54.0204 1.11288 54.2611 0.932607 53.7105 1.96724C51.6608 5.82098 49.6281 9.681 47.6123 13.5473C47.447 13.865 47.2107 13.8676 46.8958 13.8692C39.9164 13.899 32.937 13.9324 25.9576 13.9632C23.358 13.9747 20.7583 13.9685 18.1593 13.9998C17.6514 14.0061 17.4559 13.8634 17.3183 13.4705C15.9386 9.53991 14.5357 5.61458 13.1378 1.6882C12.8958 1.00838 12.9021 0.999493 13.7412 1.00002C20.3315 1.00054 26.9218 1.00002 33.5121 1.00002C33.5115 1.03555 33.5121 1.07108 33.5121 1.10609Z" fill="#C7D3E1"/>
<path d="M29 12.047C28.925 12.2121 28.7939 12.2013 28.6764 12.2067C25.5899 12.3465 22.5002 12.3047 19.4112 12.3074C19.2637 12.3074 19.0364 12.3712 19.0039 12.181C18.967 11.9645 19.2013 12.0026 19.3487 12.0026C22.5421 12.0036 25.7354 12.009 28.9288 12.0144C28.9463 12.0133 28.9644 12.0294 29 12.047Z" fill="#F7F4F1"/>
<path d="M32.0434 11.0139C33.2126 11.0139 34.3818 11.0096 35.551 11.0187C35.71 11.0198 35.9956 10.9282 35.9999 11.1409C36.0049 11.3745 35.7094 11.3246 35.5212 11.3246C33.163 11.3284 30.8041 11.3295 28.4458 11.3252C28.2832 11.3246 28.0019 11.3996 28 11.1859C27.9975 10.9217 28.303 11.0246 28.4756 11.023C29.6647 11.0134 30.8544 11.0182 32.0434 11.0182C32.0434 11.0166 32.0434 11.015 32.0434 11.0139Z" fill="#F5F2EF"/>
<path d="M45 11.0728C44.868 11.293 44.6663 11.3058 44.4696 11.3058C42.1018 11.3085 39.7341 11.309 37.3664 11.3064C37.2196 11.3064 36.9982 11.3508 37 11.144C37.0012 10.979 37.1955 11.001 37.33 11.001C39.8383 11.0015 42.3461 11.0047 44.8544 11.009C44.8877 11.0095 44.9223 11.0379 45 11.0728Z" fill="#F5F5F2"/>
<path d="M23 9.09118C25.9992 8.85277 28.9989 9.1619 31.9987 9.12172C31.9994 9.17155 31.9994 9.22191 32 9.27173C29.0053 9.27173 26.0099 9.27173 23.0152 9.27173C23.0101 9.21119 23.0051 9.15119 23 9.09118Z" fill="#F7F7F1"/>
<path d="M31 12.2364C31.0804 12.0661 31.228 12.103 31.3427 12.102C34.0415 12.0661 36.741 12.0328 39.4405 12.0007C39.5683 11.9991 39.7008 11.998 39.8227 12.0237C39.8913 12.0382 39.9413 12.1095 40 12.155C39.9407 12.2 39.8893 12.2697 39.8201 12.2847C39.6982 12.3104 39.5657 12.3082 39.4378 12.3082C36.7772 12.3109 34.1167 12.3125 31.4554 12.3131C31.3084 12.3125 31.1529 12.3382 31 12.2364Z" fill="#F9F7F2"/>
<path d="M45.4666 3.31776C44.4484 3.31776 43.4302 3.32151 42.4119 3.31401C42.2546 3.31293 41.9916 3.38687 42.0002 3.14524C42.007 2.9529 42.2417 3.00702 42.388 3.00702C44.4644 3.00327 46.5408 3.00327 48.6178 3.00648C48.7646 3.00648 48.9994 2.95719 49 3.15114C49.0006 3.38955 48.7394 3.31293 48.5821 3.31401C47.543 3.32097 46.5045 3.31776 45.4666 3.31776Z" fill="#F7F3EE"/>
<path d="M37.5292 7.3186C36.503 7.3186 35.4769 7.32181 34.4514 7.31538C34.2866 7.31431 34.0197 7.38878 34.0011 7.17609C33.9801 6.9366 34.2575 7.01108 34.4142 7.01054C36.4659 7.00465 38.5182 7.00572 40.5705 7.00893C40.7383 7.00947 41.0108 6.96071 40.9997 7.17073C40.9898 7.36682 40.7191 7.31646 40.5476 7.31699C39.5406 7.32074 38.5349 7.3186 37.5292 7.3186Z" fill="#F7F3EE"/>
<path d="M21.5474 7.01372C22.5502 7.01319 23.553 7.0089 24.5558 7.01801C24.7147 7.01962 24.9987 6.92532 25 7.15302C25.0013 7.34268 24.7342 7.32393 24.552 7.32446C22.9762 7.32607 21.4003 7.32554 19.8239 7.32554C19.3325 7.32554 18.8412 7.32768 18.3504 7.32286C18.216 7.32125 18.02 7.35875 18.0017 7.19267C17.9779 6.97301 18.2066 7.01801 18.3536 7.01747C19.4186 7.01158 20.483 7.01426 21.5474 7.01372Z" fill="#F5F1EC"/>
<path d="M20.485 3.31502C19.4617 3.31502 18.4383 3.31824 17.4149 3.31181C17.2524 3.31074 16.982 3.37235 17.0009 3.13715C17.0148 2.96678 17.2562 3.00375 17.4131 3.00321C19.4799 3.00107 21.5475 3.00053 23.6143 3.00375C23.7668 3.00375 23.9987 2.96196 24 3.15751C24.0013 3.3536 23.7694 3.31234 23.6162 3.31288C22.5727 3.31663 21.5286 3.31502 20.485 3.31502Z" fill="#F6F2EC"/>
<path d="M19 11.1439C19.5231 11.0972 20.0461 11.0158 20.5704 11.0099C22.1817 10.9922 23.7929 11.0035 25.4041 11.004C25.5247 11.004 25.6471 11.0008 25.7658 11.0153C25.887 11.0297 26.0131 11.071 25.9989 11.2033C25.9865 11.3217 25.8567 11.3008 25.7627 11.3105C25.7034 11.3169 25.6422 11.3132 25.5816 11.3132C23.5072 11.3137 21.4323 11.3142 19.358 11.3126C19.2417 11.3126 19.1261 11.2885 19.0099 11.2756C19.0068 11.2317 19.0031 11.1878 19 11.1439Z" fill="#F8F5F0"/>
<path d="M32.9825 5.32338C32.151 5.32338 31.3195 5.33142 30.4886 5.31695C30.3156 5.31427 29.9869 5.43642 30.0004 5.17176C30.0107 4.96335 30.3265 5.01425 30.5257 5.01318C31.3156 5.00889 32.1055 5.01157 32.8954 5.01157C33.7686 5.01157 34.6411 5.00568 35.5143 5.01585C35.6943 5.018 36.0057 4.92103 35.9999 5.18248C35.9954 5.39678 35.7065 5.31749 35.5393 5.31909C34.6873 5.32767 33.8346 5.32284 32.9825 5.32338Z" fill="#F7F4F0"/>
<path d="M39.9897 5.33492C39.1609 5.33492 38.3315 5.34296 37.5028 5.32849C37.3246 5.32528 36.9891 5.4469 37.0003 5.18491C37.0088 4.97597 37.3324 5.02633 37.5362 5.02526C38.344 5.02044 39.1517 5.02204 39.9595 5.02151C40.7673 5.02097 41.5757 5.01026 42.3822 5.02901C42.5997 5.03436 42.998 4.89239 43 5.19188C43.0013 5.43832 42.6207 5.32582 42.413 5.32903C41.6059 5.34296 40.7974 5.33492 39.9897 5.33492Z" fill="#F6F3ED"/>
<path d="M29.5146 3.00971C30.2181 3.00971 30.9217 3.00649 31.6252 3.01239C31.7759 3.01346 32.0044 2.96738 31.9999 3.17633C31.9961 3.34134 31.7976 3.31884 31.659 3.31884C30.2315 3.32099 28.804 3.32045 27.3765 3.31831C27.2106 3.31831 26.9878 3.31027 27.0005 3.13615C27.0152 2.93792 27.2591 3.01507 27.4046 3.01346C28.1075 3.00489 28.8111 3.00971 29.5146 3.00971Z" fill="#F7F4F1"/>
<path d="M45 12.1551C44.853 12.1899 44.7827 12.2204 44.7113 12.222C43.2884 12.2574 41.8654 12.2928 40.4418 12.3185C40.2846 12.3211 40.0139 12.3999 40.0007 12.1899C39.9839 11.9156 40.2822 12.0195 40.4466 12.0184C41.815 12.0093 43.1833 12.0115 44.5517 12.0131C44.6795 12.0131 44.8206 11.9863 45 12.1551Z" fill="#FCF8F3"/>
<path d="M47 7.01387C46.9015 7.31764 46.6977 7.32622 46.4904 7.32622C45.4671 7.32675 44.4438 7.3289 43.4205 7.32461C43.2464 7.32407 42.979 7.36158 43.0013 7.12477C43.0196 6.93458 43.2785 7.01869 43.4296 7.01762C44.6093 7.01065 45.7895 7.01387 47 7.01387Z" fill="#F7F3EE"/>
<path d="M34.9541 13.3119C34.4065 13.3119 33.859 13.3135 33.3121 13.3108C33.1781 13.3103 33 13.3226 33 13.1565C33 12.9899 33.1787 13.0028 33.3121 13.0022C34.4458 13.0001 35.5801 12.9985 36.7137 13.0022C36.8447 13.0028 37.0204 13.0076 36.9981 13.1785C36.9824 13.3001 36.8308 13.3082 36.7131 13.3087C36.1264 13.3108 35.5402 13.3098 34.9535 13.3098C34.9541 13.3108 34.9541 13.3114 34.9541 13.3119Z" fill="#F4F2EF"/>
<path d="M46.0454 5.00061C46.5983 5.00061 47.1511 4.99847 47.7033 5.00222C47.8422 5.00329 48.0208 4.99472 47.998 5.17741C47.9816 5.31242 47.8314 5.31081 47.7103 5.31081C46.5642 5.31242 45.4175 5.31242 44.2714 5.31081C44.1458 5.31081 44.0032 5.29635 44 5.16134C43.9975 5.02686 44.1376 5.00543 44.2645 5.0049C44.8583 5.00275 45.4516 5.00382 46.0454 5.00382C46.0454 5.00329 46.0454 5.00168 46.0454 5.00061Z" fill="#F7F3ED"/>
<path d="M26.9952 5.10807C24.997 5.10807 22.9989 5.10807 21 5.10807C21 5.07223 21.0007 5.03584 21.0007 5C23.0002 5 24.9998 5 27 5C26.9986 5.03638 26.9973 5.07223 26.9952 5.10807Z" fill="#FEFCF6"/>
<path d="M19.9683 9.30825C19.4316 9.30825 18.8941 9.31093 18.3573 9.30665C18.2 9.30558 17.9937 9.32165 18.0001 9.14431C18.0045 9.00984 18.174 9.00019 18.3154 9.00019C19.4366 8.99966 20.5571 9.00019 21.6782 9.00234C21.8182 9.00287 21.9877 9.00662 21.9993 9.14217C22.0137 9.32379 21.8059 9.30772 21.6501 9.30879C21.0895 9.31308 20.5289 9.3104 19.9691 9.3104C19.9683 9.30986 19.9683 9.30879 19.9683 9.30825Z" fill="#F6F2F0"/>
<path d="M26.9795 7.00321C27.5335 7.00375 28.0874 7.00161 28.6406 7.00482C28.8025 7.00589 29.0035 7.01232 29 7.17037C28.9971 7.28877 28.8203 7.31235 28.677 7.31288C27.5691 7.31395 26.462 7.31449 25.3541 7.31074C25.1908 7.3102 24.9891 7.2802 25.0005 7.13019C25.0133 6.95607 25.2414 7.0075 25.3869 7.00589C25.918 6.99893 26.4491 7.00268 26.9795 7.00321Z" fill="#F7F4EE"/>
<path d="M20 13C21.6665 13 23.3335 13 25 13C25 13.0364 24.9994 13.0729 24.9994 13.1093C23.3355 13.1093 21.6716 13.1093 20.0084 13.1093C20.0058 13.0729 20.0032 13.0364 20 13Z" fill="#FEFBF7"/>
<path d="M44 9.09373C42.3347 9.09373 40.6693 9.09373 39.004 9.09373C39.0026 9.06248 39.0013 9.03124 39 9C40.666 9 42.332 9 43.998 9C43.9987 9.03124 43.9993 9.06248 44 9.09373Z" fill="#FEFCF6"/>
<path d="M38.4822 3.00342C38.8883 3.00342 39.2937 3.00127 39.6997 3.00449C39.8343 3.00556 40.0035 3.00985 39.9999 3.1695C39.9976 3.2879 39.8492 3.31255 39.7296 3.31255C38.9181 3.31416 38.1067 3.31523 37.2952 3.31201C37.157 3.31148 36.9914 3.27826 37.0003 3.12985C37.0111 2.95466 37.2019 3.00824 37.3233 3.0061C37.709 2.99859 38.0953 3.00342 38.4822 3.00342Z" fill="#F6F2ED"/>
<path d="M30.5043 13.3102C30.0937 13.3097 29.6831 13.3108 29.2731 13.3086C29.1474 13.3081 29.0059 13.2952 29.0002 13.1602C28.9945 13.0236 29.1341 13.0027 29.2604 13.0022C30.0607 12.9995 30.8616 13 31.6619 13C31.8142 13 31.9907 13.0317 31.9995 13.1677C32.011 13.3451 31.8066 13.3065 31.6746 13.3086C31.2843 13.3145 30.894 13.3108 30.5043 13.3102Z" fill="#F5F3ED"/>
<path d="M31.5629 7.00048C31.9521 7.00048 32.3413 6.99887 32.7306 7.00155C32.8504 7.00262 33.0031 6.99726 33 7.14085C32.998 7.22871 32.8878 7.29675 32.7832 7.29782C31.923 7.30479 31.0634 7.30586 30.2033 7.30479C30.0923 7.30479 29.9928 7.25603 30.0004 7.1537C30.0106 7.01977 30.1462 7.00369 30.2723 7.00316C30.7028 7.00101 31.1325 7.00208 31.5629 7.00208C31.5629 7.00155 31.5629 7.00101 31.5629 7.00048Z" fill="#F7F3EE"/>
<path d="M40.9986 13.1088C39.9995 13.1088 38.9998 13.1088 38 13.1088C38 13.0723 38.0007 13.0359 38.0007 13C39.0005 13 40.0002 13 41 13C41 13.0359 40.9993 13.0723 40.9986 13.1088Z" fill="#FCFAF4"/>
<path d="M20 5.17833C19.0165 5.17833 18.0331 5.17833 17 5.17833C17.4096 4.96072 19.2745 4.92121 20 5.17833Z" fill="#FEFCF7"/>
<path d="M37.9993 9.10878C36.9998 9.10878 35.9995 9.10878 35 9.10878C35 9.07234 35 9.03644 35.0007 9C36.0002 9 36.9998 9 38 9C37.9993 9.03644 37.9993 9.07234 37.9993 9.10878Z" fill="#FCFCF8"/>
<path d="M45.9035 9.32335C45.633 9.24406 45.0114 9.48354 45.0001 9.15191C44.9912 8.88188 45.6048 9.06458 45.9317 9.01529C46.0553 8.99654 46.1965 8.99493 46.3184 9.01582C46.559 9.05708 47.0103 8.89099 46.9998 9.16262C46.9909 9.38924 46.5437 9.30513 46.2748 9.32228C46.1723 9.3287 46.0674 9.32335 45.9035 9.32335Z" fill="#F9F5F2"/>
<path d="M44 13.108C43.3335 13.108 42.6676 13.108 42.0012 13.108C42.0006 13.0718 42.0006 13.0362 42 13C42.6665 13 43.3329 13 43.9988 13C44 13.0362 44 13.0718 44 13.108Z" fill="#FDFBF5"/>
<path d="M32 9C32.6667 9 33.3333 9 33.9994 9C33.9994 9.04331 33.9994 9.08661 34 9.12992C33.3333 9.17972 32.6673 9.17539 32.0006 9.13317C32.0006 9.08878 32.0006 9.04439 32 9Z" fill="#FEFCF9"/>
</svg>
