<svg width="80" height="80" viewBox="0 0 80 80" fill="none" xmlns="http://www.w3.org/2000/svg">
<path d="M42.7168 65.1673L41.5835 67.1673L22.6112 47.2606L23.7995 46.5283L42.7168 65.1673Z" fill="#626F6B"/>
<path d="M21.9472 3.37292C22.2571 3.09025 22.4997 3.24919 22.7355 3.48865C23.2544 4.01612 23.8283 4.49985 24.28 5.07959C24.6549 5.56012 25.2896 5.50945 25.6773 5.93879C25.8539 6.13399 26.0437 5.71052 26.2869 5.76545C26.3109 6.03959 26.1515 6.19212 25.9307 6.30359C25.7995 6.34305 25.6784 6.33292 25.6011 6.19692C27.1285 7.53719 28.4933 9.03799 29.944 10.4508C30.8656 11.3484 31.5104 12.5207 32.6533 13.1927C33.1061 14.1329 34.0123 14.6631 34.6677 15.4204C34.8725 15.6572 35.2224 15.8327 35.0229 16.2444C33.7664 15.8716 32.5216 15.3591 31.888 14.1815C31.4352 13.3393 31.2005 12.4508 30.0581 12.3756C30.0432 12.3745 30.0091 12.3505 30.0043 12.3239C29.7915 11.094 28.4336 11.0684 27.8064 10.2316C27.1653 9.37612 26.3061 8.68439 25.5429 7.92065C24.7797 7.15692 24.0181 6.39105 23.2512 5.63105C22.8827 5.26625 22.5216 4.91799 22.5413 4.32705C22.5552 3.90252 22.0053 3.78092 21.9472 3.37292Z" fill="#C1D5DF"/>
<path d="M21.1888 30.0612C20.8091 30.2852 20.6032 29.9898 20.4213 29.7636C19.4651 28.5727 18.2741 27.6202 17.2016 26.5476C14.9957 24.3418 12.7424 22.1786 10.6389 19.8783C9.95948 19.1354 9.09335 18.6276 8.48215 17.8367C8.31255 17.617 8.03948 17.45 8.24801 17.1156C8.54028 17.0116 8.73815 17.1871 8.92695 17.3588C9.12641 17.5402 9.33655 17.6586 9.61601 17.5722C9.74401 17.569 9.86401 17.594 9.97335 17.6639C10.0459 17.7194 10.1045 17.7855 10.1531 17.8623C11.1819 18.9514 12.2672 19.9828 13.3141 21.0516C13.5435 21.2858 13.8075 21.4943 13.9264 21.817C13.9451 22.1204 13.9941 22.3892 14.2427 22.6292C15.1013 23.458 15.9376 24.3108 16.7797 25.1567C16.968 25.3455 17.1595 25.4895 17.4416 25.4452C17.6165 25.4794 17.744 25.578 17.8277 25.7332C17.8779 26.5322 18.3637 26.9204 19.0107 26.8991C19.6288 27.3978 20.3579 27.7855 20.6859 28.5738C20.6891 28.8751 20.7189 29.1578 20.9643 29.3892C21.1472 29.562 21.2853 29.7802 21.1888 30.0612Z" fill="#C7D8E2"/>
<path d="M9.1675 16.5806C13.3456 12.3939 17.5232 8.20669 21.7014 4.02002C22.0128 4.03442 22.1696 4.20935 22.207 4.50802C22.1387 4.86162 21.8651 5.07122 21.6326 5.30429C17.8667 9.07602 14.0982 12.844 10.3275 16.611C10.1291 16.8094 9.9419 17.0248 9.6715 17.1352C9.24004 17.1902 9.1387 16.9443 9.1675 16.5806Z" fill="#E7AD3F"/>
<path d="M22.1392 4.477C21.9936 4.32447 21.8475 4.17194 21.7019 4.01994C21.4758 3.68714 21.791 3.56074 21.9472 3.37354C22.4 3.70794 23.1648 3.8402 22.7702 4.7202C22.7307 4.8082 22.975 5.04767 23.1158 5.18847C24.9606 7.03914 26.8096 8.88554 28.6614 10.7298C28.8672 10.9346 29.0171 11.173 29.4315 11.0274C29.8598 10.877 30.1003 11.1623 30.0192 11.6274C29.911 12.2455 30.0982 12.4877 30.7499 12.2871C31.087 12.1837 31.9542 12.9437 31.8539 13.333C31.7094 13.8935 32.0502 14.1191 32.3414 14.4173C32.6272 14.7106 32.9163 15.0018 33.2123 15.285C33.3206 15.3885 33.5088 15.5719 33.5659 15.5415C34.3888 15.1021 34.5542 15.9853 35.0224 16.2445C30.56 20.2269 26.5312 24.6498 22.2443 28.8098C21.9878 29.0589 21.711 29.293 21.599 29.653C21.4374 29.6135 21.3606 29.5143 21.3824 29.3453C21.4155 29.1997 21.496 29.0813 21.5915 28.9703C25.407 25.1181 29.2566 21.2999 33.0832 17.4589C33.3355 17.2055 33.624 16.9815 33.7931 16.6578C33.8176 16.5389 33.7974 16.4279 33.7259 16.3282C33.6779 16.2717 33.631 16.2141 33.5824 16.1575C33.5056 16.077 33.4288 15.9965 33.351 15.9165C33.2427 15.8114 33.1355 15.7053 33.0278 15.5997C32.9136 15.4946 32.8059 15.3837 32.695 15.2749C32.5494 15.1383 32.4096 14.9965 32.2694 14.8551C32.119 14.7165 31.9771 14.5693 31.8336 14.4231C31.6784 14.2829 31.5355 14.1309 31.3894 13.9821C31.1739 13.7789 30.9654 13.5687 30.7606 13.3549C30.6038 13.2114 30.4646 13.0503 30.3067 12.9074C30.095 12.6978 29.8843 12.4877 29.679 12.2722C29.5558 12.1543 29.4331 12.0365 29.3174 11.9111C29.1008 11.7053 28.8902 11.4935 28.6832 11.2781C28.5259 11.1319 28.3744 10.9799 28.2278 10.8237C28.008 10.6178 27.7958 10.4039 27.5883 10.1858C27.3728 9.97887 27.1584 9.7698 26.9558 9.55007C26.7776 9.373 26.5952 9.19967 26.4256 9.01354C26.3099 8.89674 26.1883 8.78527 26.079 8.6626C25.9632 8.54847 25.8459 8.43594 25.7344 8.317C25.6139 8.20714 25.5024 8.0882 25.3872 7.97247C25.2347 7.83434 25.0939 7.68394 24.9483 7.53834C24.7366 7.33834 24.5318 7.1314 24.3302 6.9218C24.1824 6.7762 24.0304 6.63487 23.8918 6.48127C23.7462 6.3378 23.599 6.19647 23.4603 6.0466C23.319 5.90634 23.1771 5.7666 23.0411 5.62154C22.9318 5.5122 22.8224 5.40287 22.7168 5.29034C22.6107 5.18314 22.5062 5.0738 22.4032 4.96287C22.3243 4.88127 22.2555 4.7922 22.2006 4.693C22.1744 4.6226 22.1542 4.5506 22.1392 4.477Z" fill="#B2B8B0"/>
<path d="M25.8518 6.22475C25.9968 6.07115 26.1424 5.91808 26.287 5.76448C26.6187 5.71861 26.7926 5.95915 26.9888 6.15541C28.7051 7.87061 30.4086 9.59808 32.143 11.2946C32.5968 11.7389 32.6715 12.0743 32.103 12.4365C31.9179 12.4973 31.7376 12.4834 31.6032 12.3389C29.7712 10.3687 27.8267 8.50901 25.9478 6.58475C25.8496 6.48501 25.847 6.35488 25.8518 6.22475Z" fill="#CB3C3D"/>
<path d="M25.8517 6.22459C26.0437 6.62993 26.3915 6.90353 26.6971 7.21073C28.2352 8.75473 29.7771 10.2945 31.3179 11.8358C31.5531 12.071 31.7723 12.3265 32.1029 12.4363C32.1307 12.8017 32.528 12.8971 32.6528 13.1915C32.0171 13.2774 31.7989 12.7105 31.4667 12.3787C29.4752 10.3931 27.5147 8.3766 25.5429 6.37126C25.3744 6.19953 25.2032 6.031 24.9595 5.78726C25.4421 5.77766 25.5216 6.22513 25.8517 6.22459Z" fill="#5C5A68"/>
<path d="M9.63201 17.6907C9.39202 17.9509 9.17708 17.9264 8.94828 17.6608C8.75362 17.4352 8.54455 17.2144 8.24695 17.1152C8.45655 16.9344 8.54401 16.5285 8.96001 16.7301C9.13761 17.0832 9.62828 17.2165 9.63201 17.6907Z" fill="#90A7B7"/>
<path d="M21.4133 29.4308C21.4752 29.5044 21.5371 29.5786 21.5989 29.6522C21.4619 29.7887 21.3253 29.9252 21.1883 30.0612C21.0896 29.7642 20.8688 29.5567 20.6464 29.3588C20.3883 29.1295 20.3541 28.9135 20.6245 28.6772C21.0853 28.722 21.3253 28.9972 21.4133 29.4308Z" fill="#8EA8B6"/>
<path d="M9.63204 17.691C9.42404 17.3603 8.95951 17.2088 8.96057 16.7315C9.02937 16.6808 9.09871 16.6307 9.16751 16.5806C9.27844 16.7571 9.38937 16.9336 9.50031 17.1102C9.56431 17.1944 9.67577 17.1672 9.75524 17.2168C9.84217 17.2712 9.90617 17.3448 9.94564 17.4398C9.96164 17.5427 9.96751 17.6408 9.83364 17.6712C9.76697 17.6776 9.69977 17.6846 9.63204 17.691Z" fill="#C9AE81"/>
<path d="M9.83417 17.671C9.84643 17.6011 9.8587 17.5307 9.87097 17.4609C9.8459 17.0758 10.1211 16.8593 10.3536 16.6267C14.1195 12.8545 17.888 9.08487 21.6614 5.32007C21.8923 5.08967 22.103 4.80273 22.4944 4.8438C22.599 4.94567 22.703 5.047 22.8075 5.14887C22.8139 5.43473 22.6379 5.62513 22.455 5.80807C18.5104 9.7542 14.5707 13.7057 10.6155 17.6417C10.5424 17.7147 10.455 17.7697 10.3627 17.8166C10.216 17.8785 10.0704 17.9243 9.94243 17.7782L9.8907 17.7227L9.83417 17.671Z" fill="#C86E23"/>
<path d="M9.94238 17.7778C10.0298 17.7826 10.1178 17.7869 10.2053 17.7917C10.3573 17.7906 10.4693 17.8674 10.5664 17.9736C10.7002 18.1672 10.865 18.333 11.0378 18.4914C11.1653 18.6488 11.2693 18.8248 11.416 18.9666C11.56 19.1186 11.7322 19.237 11.8922 19.3704C12.0885 19.5757 12.2458 19.8152 12.4597 20.0045C12.6101 20.1549 12.792 20.2706 12.9408 20.4232C13.0741 20.5869 13.1968 20.7597 13.352 20.9053C13.4298 20.9778 13.505 21.053 13.5824 21.1261C13.7157 21.2493 13.8704 21.3421 14.0266 21.4333C14.2213 21.5565 14.385 21.7117 14.5221 21.8957C14.6901 22.197 14.9317 22.4232 15.2293 22.5938C15.448 22.7586 15.6362 22.9522 15.7861 23.181C15.9328 23.4418 16.1104 23.6733 16.3909 23.805C16.5845 23.9272 16.7445 24.0829 16.8698 24.2744C16.9802 24.4685 17.1376 24.6146 17.3322 24.7229C17.5898 24.8973 17.8059 25.1128 17.976 25.3725C18.1088 25.5949 18.249 25.8125 18.4533 25.9789C18.6176 26.1213 18.8128 26.2274 18.952 26.3997C19.0741 26.5688 19.1888 26.7442 19.3397 26.8909C19.4773 27.0376 19.6314 27.1645 19.793 27.284C19.9578 27.4376 20.1168 27.5986 20.3109 27.7176C20.4138 27.7954 20.4992 27.8898 20.569 27.9976C20.6581 28.1666 20.8021 28.2781 20.9632 28.373C21.0448 28.4274 21.12 28.4893 21.1925 28.5554C21.2448 28.5992 21.2922 28.6466 21.3397 28.6952C21.4144 28.7677 21.4821 28.8456 21.5424 28.9309C21.6026 29.0221 21.6245 29.1234 21.616 29.2312C21.5488 29.2978 21.4816 29.3645 21.4144 29.4306C21.152 29.1794 20.889 28.9282 20.6261 28.677C20.1498 27.9944 19.4522 27.5362 18.88 26.9501C18.3008 26.7976 17.9381 26.4301 17.7872 25.8514C17.6816 25.7469 17.5754 25.6418 17.4693 25.5373C17.3429 25.5181 17.2074 25.5042 17.112 25.4178C16.0186 24.4301 14.9845 23.3826 13.9866 22.2989C13.8992 22.204 13.8805 22.0706 13.8693 21.9421C12.7189 20.7762 11.5653 19.613 10.4213 18.4408C10.232 18.2472 9.95678 18.1032 9.94238 17.7778Z" fill="#C9AE81"/>
<path d="M13.8694 21.9424C15.0694 23.1408 16.2694 24.3392 17.4694 25.5376C17.2203 25.8357 17.0139 25.736 16.7787 25.4965C15.8326 24.5333 14.8768 23.5792 13.9174 22.6293C13.6875 22.4027 13.551 22.1952 13.8694 21.9424Z" fill="#8DA9B8"/>
<path d="M17.7867 25.8521C18.151 26.2185 18.5152 26.5843 18.8795 26.9507C18.4742 27.4078 18.263 26.9678 18.0496 26.7422C17.8251 26.5054 17.3174 26.3091 17.7867 25.8521Z" fill="#8CA8B8"/>
<path d="M9.63096 17.2355C9.51576 17.2686 9.46936 17.2296 9.50082 17.1102C13.7136 12.899 17.9264 8.68776 22.1392 4.47656C22.1787 4.5171 22.2187 4.5571 22.2582 4.59763C22.223 4.94163 21.9446 5.11656 21.7323 5.32936C17.9451 9.12296 14.1547 12.9134 10.3616 16.7011C10.1478 16.9155 9.96589 17.1822 9.63096 17.2355Z" fill="#BA7217"/>
<path d="M17.8843 25.4958C17.6491 25.2595 17.4139 25.0238 17.1787 24.7875C17.12 24.3934 17.4043 24.1801 17.6358 23.9486C21.4075 20.171 25.1819 16.3971 28.9584 12.6249C29.1915 12.3918 29.4054 12.1155 29.7899 12.1337C30.0091 12.3587 30.2278 12.5838 30.447 12.8083C30.5542 13.195 30.3179 13.4387 30.0795 13.6771C26.2598 17.5017 22.4379 21.3251 18.6118 25.1433C18.4123 25.3427 18.208 25.547 17.8843 25.4958Z" fill="#FBB238"/>
<path d="M12.3723 20.1402C12.1253 19.9509 11.8907 19.752 11.8176 19.4272C11.7925 19.0138 12.0875 18.776 12.336 18.5264C16.0651 14.785 19.8011 11.0501 23.5419 7.31995C23.7915 7.07089 24.0277 6.77755 24.4363 6.78129C24.6517 6.99782 24.8672 7.21435 25.0827 7.43089C25.0907 7.84102 24.7957 8.07729 24.5467 8.32742C20.7931 12.0917 17.0336 15.8512 13.2693 19.6048C13.0187 19.8538 12.7824 20.1482 12.3723 20.1402Z" fill="#FBB93D"/>
<path d="M15.0763 22.6914C14.7291 22.5986 14.5003 22.3874 14.4171 22.0306C14.4427 21.6365 14.7104 21.3864 14.9632 21.1336C18.6917 17.3976 22.424 13.6648 26.1611 9.93782C26.4107 9.68875 26.6469 9.39595 27.0533 9.39649C27.2672 9.61302 27.4805 9.82902 27.6944 10.0456C27.7067 10.4546 27.4171 10.6941 27.168 10.9442C23.4411 14.6824 19.7077 18.4136 15.9723 22.1426C15.7189 22.3949 15.4693 22.6626 15.0763 22.6914Z" fill="#D36E31"/>
<path d="M18.8757 26.491C18.7035 26.3683 18.5312 26.2462 18.3584 26.1235C18.1173 25.7688 18.2923 25.4931 18.5339 25.2366C18.8501 24.9006 19.1824 24.58 19.5083 24.2542C22.9872 20.7747 26.4651 17.2947 29.9472 13.8184C30.2139 13.5523 30.4443 13.212 30.8928 13.2339C31.1003 13.4435 31.3083 13.6531 31.5157 13.8627C31.5264 14.2718 31.2368 14.5118 30.9872 14.7619C27.2555 18.5038 23.5189 22.2414 19.7765 25.972C19.5269 26.2211 19.2891 26.516 18.8757 26.491Z" fill="#FBB936"/>
<path d="M16.8048 24.4062C16.6288 24.2323 16.4523 24.0584 16.2763 23.8846C16.031 23.564 16.3062 23.3614 16.4635 23.1544C16.696 22.8488 16.9894 22.5955 17.2614 22.324C20.7382 18.8467 24.2134 15.3672 27.696 11.8958C28.0144 11.5784 28.2854 11.1651 28.8155 11.1587C29.0246 11.3635 29.2336 11.5678 29.4427 11.7726C29.463 12.1539 29.2006 12.3768 28.9654 12.612C25.1915 16.387 21.4176 20.1619 17.6406 23.9336C17.408 24.1656 17.1952 24.4472 16.8048 24.4062Z" fill="#FAB93E"/>
<path d="M15.0763 22.6913C19.2827 18.4759 23.4891 14.2604 27.695 10.0449C27.9126 10.2631 28.1302 10.4807 28.3478 10.6988C28.3611 11.1084 28.072 11.3489 27.8224 11.5991C24.0912 15.3409 20.3552 19.078 16.6123 22.8076C16.3638 23.0556 16.1259 23.3532 15.7088 23.3143C15.4976 23.1068 15.287 22.8993 15.0763 22.6913Z" fill="#FBBA37"/>
<path d="M27.0539 9.39594C22.8416 13.6071 18.6293 17.8189 14.4176 22.0306C14.2448 21.8562 14.0725 21.6813 13.8997 21.5069C13.8533 21.1495 14.0965 20.941 14.3125 20.725C18.1184 16.9138 21.9275 13.1058 25.7376 9.29887C25.9541 9.08234 26.1621 8.84181 26.5141 8.86314C26.6939 9.04074 26.8741 9.21834 27.0539 9.39594Z" fill="#FDC43B"/>
<path d="M15.7083 23.3147C19.9216 19.1094 24.1349 14.9041 28.3477 10.6987C28.5029 10.8518 28.6587 11.0043 28.8149 11.1579C24.7557 15.2139 20.6955 19.2694 16.6384 23.327C16.4811 23.4843 16.2613 23.6107 16.2763 23.8843C15.9227 23.8582 15.7504 23.6513 15.7083 23.3147Z" fill="#CE6826"/>
<path d="M18.8758 26.4906C23.0896 22.281 27.303 18.0719 31.5163 13.8623C31.6656 14.0111 31.815 14.1599 31.9643 14.3087C31.9643 14.7162 31.6694 14.9514 31.4203 15.2015C27.6694 18.9631 23.9131 22.7194 20.1515 26.4703C19.9014 26.7194 19.6662 27.0143 19.2576 27.0106C19.0859 26.8692 18.8432 26.7812 18.8758 26.4906Z" fill="#D26C2C"/>
<path d="M19.2571 27.0105C23.4928 22.7763 27.7285 18.5422 31.9643 14.3086C32.1131 14.4622 32.2619 14.6153 32.4112 14.7683C32.3845 15.1673 32.0933 15.4019 31.8432 15.6526C28.1269 19.3774 24.4069 23.0979 20.6816 26.8142C20.4309 27.0643 20.1957 27.3561 19.7925 27.3705C19.5067 27.4094 19.3893 27.1993 19.2571 27.0105Z" fill="#FCC53C"/>
<path d="M24.4358 6.78154C20.2299 10.9965 16.0235 15.2119 11.8176 19.4274C11.5451 19.4541 11.4459 19.2354 11.3099 19.069C11.2886 18.6573 11.576 18.4146 11.8262 18.1634C15.5808 14.3981 19.3414 10.6381 23.1062 6.88341C23.3568 6.63381 23.5942 6.34047 24.0027 6.34527C24.1472 6.49034 24.2918 6.63594 24.4358 6.78154Z" fill="#CB682B"/>
<path d="M12.3723 20.1405C16.6091 15.9042 20.8459 11.6674 25.0827 7.43115C25.2187 7.57035 25.3552 7.70955 25.4917 7.84822C25.5365 8.23702 25.264 8.45515 25.0304 8.68875C21.2603 12.4632 17.488 16.2354 13.7131 20.005C13.4811 20.237 13.2683 20.5176 12.8789 20.4808C12.6549 20.4493 12.4912 20.3282 12.3723 20.1405Z" fill="#CB7026"/>
<path d="M24.0032 6.34445C19.7718 10.586 15.5408 14.8276 11.3099 19.0687C11.087 18.9498 10.999 18.7386 10.9296 18.514C10.9478 18.1119 11.2395 17.8767 11.4896 17.626C15.2064 13.8996 18.9286 10.1786 22.6544 6.46125C22.9051 6.21111 23.1398 5.91991 23.5382 5.89111C23.6928 6.04258 23.848 6.19351 24.0032 6.34445Z" fill="#FEC542"/>
<path d="M19.792 27.3702C23.9984 23.1697 28.2048 18.9686 32.4107 14.7681C32.5424 14.8998 32.6736 15.0315 32.8053 15.1633C32.8411 15.5494 32.5712 15.7681 32.3376 16.0017C28.5707 19.7723 24.8016 23.5403 21.0325 27.3083C20.7963 27.5446 20.5691 27.7958 20.1957 27.7969C19.9477 27.7627 19.8064 27.6267 19.792 27.3702Z" fill="#C56E2B"/>
<path d="M23.5376 5.89172C19.335 10.0992 15.1318 14.3067 10.9291 18.5147C10.6928 18.4848 10.5462 18.3627 10.5158 18.1184C10.5024 17.7403 10.7563 17.5136 10.9926 17.2773C14.7648 13.504 18.5371 9.73065 22.3115 5.95999C22.5456 5.72639 22.7643 5.45492 23.1531 5.50132C23.2816 5.63092 23.4096 5.76105 23.5376 5.89172Z" fill="#C66D24"/>
<path d="M30.8928 13.2343C26.808 17.3095 22.7248 21.3863 18.6357 25.4572C18.4416 25.6508 18.3067 25.8418 18.3584 26.1239C18.1557 25.9479 17.8875 25.822 17.8843 25.4956C21.9749 21.4151 26.0667 17.3356 30.1531 13.2514C30.2763 13.1287 30.3499 12.9564 30.4464 12.8076C30.6453 12.8978 30.7851 13.0492 30.8928 13.2343Z" fill="#CB6F29"/>
<path d="M12.879 20.4807C17.0832 16.27 21.288 12.0593 25.4918 7.84814C25.6123 7.96868 25.7328 8.08974 25.8539 8.21028C25.8571 8.56014 25.6102 8.76281 25.3942 8.97881C21.527 12.8503 17.6566 16.7185 13.7867 20.5879C13.624 20.7505 13.4758 20.9335 13.2427 21.0055C13.0662 20.8689 12.864 20.75 12.879 20.4807Z" fill="#FEC73F"/>
<path d="M16.8048 24.4061C21.0176 20.1949 25.2299 15.9837 29.4427 11.772C29.5584 11.8925 29.6741 12.0125 29.7899 12.1336C25.7605 16.1634 21.7307 20.1933 17.7024 24.2242C17.5216 24.4056 17.3531 24.5992 17.1792 24.7874C16.9211 24.7906 16.7861 24.6733 16.8048 24.4061Z" fill="#CA6A27"/>
<path d="M26.5142 8.86287C22.3094 13.0773 18.1046 17.2917 13.8998 21.5061C13.6859 21.5365 13.584 21.3887 13.4811 21.2426C13.4656 20.8597 13.7376 20.6437 13.9712 20.4095C17.7627 16.6143 21.5558 12.8213 25.3515 9.03034C25.584 8.79834 25.7926 8.51514 26.176 8.52261C26.2886 8.63674 26.4011 8.74981 26.5142 8.86287Z" fill="#CB6625"/>
<path d="M20.8565 28.438C20.6773 28.3964 20.4832 28.3697 20.5131 28.1094C20.5397 27.7702 20.7803 27.566 20.9973 27.3489C24.7915 23.5532 28.5861 19.758 32.3829 15.9649C32.5989 15.7489 32.8 15.5004 33.1477 15.4961C33.2528 15.6054 33.3579 15.7148 33.4635 15.8241C33.4944 16.1814 33.2437 16.3862 33.0288 16.6017C29.2347 20.4038 25.4363 24.2017 21.6352 27.9964C21.4176 28.2129 21.2064 28.4508 20.8565 28.438Z" fill="#CB7126"/>
<path d="M26.1755 8.52352C21.9435 12.7635 17.712 17.0035 13.4805 21.2435C13.4011 21.1646 13.3216 21.0856 13.2427 21.0062C13.296 20.7374 13.4864 20.564 13.6683 20.3822C17.7307 16.3256 21.7925 12.268 25.8539 8.21045C25.9611 8.31498 26.0683 8.41952 26.1755 8.52352Z" fill="#F29C38"/>
<path d="M33.1478 15.4963C28.9366 19.7011 24.7248 23.9059 20.5136 28.1102C20.408 28.0062 20.3024 27.9022 20.1968 27.7982C24.4 23.587 28.6032 19.3758 32.8064 15.1641C32.9195 15.2745 33.0336 15.3854 33.1478 15.4963Z" fill="#FABE41"/>
<path d="M23.1531 5.50102C19.9174 8.72395 16.6806 11.9458 13.447 15.1709C12.4656 16.149 11.4928 17.1357 10.5158 18.1181C10.4123 18.0093 10.3083 17.9 10.2048 17.7912C13.8267 14.1586 17.4486 10.5261 21.0704 6.89302C21.6502 6.31168 22.2283 5.72928 22.8075 5.14795C22.9227 5.26635 23.0379 5.38368 23.1531 5.50102Z" fill="#FBC44B"/>
<path d="M9.63092 17.2355C13.84 13.0227 18.0491 8.80992 22.2581 4.59766C22.3365 4.67979 22.4155 4.76139 22.4944 4.84352C18.2864 9.04939 14.0784 13.2553 9.87092 17.4611C9.79092 17.3859 9.71092 17.3107 9.63092 17.2355Z" fill="#FEBC5C"/>
<path d="M20.8566 28.4381C25.0592 24.2333 29.2614 20.029 33.4635 15.8242C33.543 15.9016 33.6235 15.9789 33.7035 16.0562C33.7083 16.4402 33.4192 16.6466 33.1883 16.8781C29.4315 20.6429 25.6704 24.4034 21.9067 28.1613C21.6726 28.3949 21.455 28.6653 21.0779 28.6717C21.0038 28.5938 20.9302 28.516 20.8566 28.4381Z" fill="#FEC348"/>
<path d="M21.408 29.0049C21.3403 28.9366 21.2731 28.8678 21.2053 28.7996C21.2149 28.5942 21.3819 28.4956 21.5045 28.3724C25.4693 24.4044 29.4357 20.438 33.4037 16.4732C33.5269 16.35 33.6261 16.1836 33.8304 16.1724C33.8997 16.2374 33.9685 16.3025 34.0379 16.3676C34.0171 16.7174 33.7365 16.8929 33.5243 17.1052C29.7339 20.902 25.9403 24.695 22.1445 28.486C21.9317 28.6982 21.7515 28.9708 21.408 29.0049Z" fill="#F7B953"/>
<path d="M21.408 29.0051C25.6182 24.7923 29.8288 20.5795 34.0384 16.3667C34.3403 16.6574 34.0576 16.8243 33.8896 16.9918C29.8 21.0739 25.7072 25.1528 21.6144 29.2323C21.5462 29.156 21.4768 29.0808 21.408 29.0051Z" fill="#DDAF45"/>
<path d="M33.8309 16.1714C29.6224 20.3805 25.4139 24.5901 21.2053 28.7991C21.1627 28.7565 21.12 28.7143 21.0779 28.6717C25.2864 24.4663 29.4949 20.261 33.7035 16.0557C33.7456 16.0946 33.7883 16.133 33.8309 16.1714Z" fill="#BD6E0F"/>
<path d="M69.3851 32.4541C68.2368 26.485 64.9392 21.6903 59.9067 18.2786C54.8021 14.8178 49.0224 13.7709 43.0368 14.9351C37.0485 16.0994 32.1685 19.4525 28.8384 24.5085C25.5669 29.4759 24.4448 35.1154 25.5963 41.0717C26.7771 47.1906 30.0288 52.0962 35.1269 55.4594C40.0784 58.7277 45.6949 59.9799 51.7061 58.7341C57.6784 57.4557 62.496 54.4157 65.9568 49.3175C69.4475 44.1799 70.5397 38.4621 69.3851 32.4541ZM56.6677 34.6685C56.0091 34.6589 55.3499 34.6685 54.264 34.6685C55.5947 33.6674 56.5275 32.9623 57.5227 32.2125C57.6891 32.5389 57.8325 32.7602 57.9205 33.005C58.5333 34.685 58.5141 34.7042 56.6677 34.6685ZM51.4651 32.7895C50.4181 32.669 49.9419 31.9351 49.9616 30.813C49.9877 29.4269 51.6219 26.8695 52.4176 26.9314C53.0992 26.9869 55.4411 28.9373 55.4347 29.4461C55.4219 30.5751 52.8416 32.8354 51.4651 32.7895ZM40.7344 44.405C41.4811 44.0007 42.1563 43.4658 43.1968 42.7645C42.8869 43.7789 42.5739 44.4247 42.5152 45.0903C42.3552 46.8354 41.6283 46.3133 40.7504 45.6317C40.1861 45.1911 39.8571 44.8807 40.7344 44.405ZM48.2853 27.1831C48.0864 27.9005 47.8256 28.6018 47.4928 29.597C47.1371 28.5698 46.8501 27.8685 46.6645 27.1442C46.56 26.7431 45.9435 26.205 46.5893 25.9175C47.1408 25.6695 47.9168 25.5426 48.4651 25.9341C48.9963 26.3085 48.4027 26.7719 48.2853 27.1831ZM44.7333 32.0333C44.3877 32.5943 43.8885 32.8455 43.3045 32.7837C42.0453 32.7282 39.8341 30.8301 39.6059 29.6167C39.4395 28.733 40.2517 28.397 40.7733 28.0999C41.5333 27.6695 42.1563 26.293 43.3275 27.3725C44.7819 28.7159 45.4149 30.9341 44.7333 32.0333ZM36.9504 33.2855C37.2928 32.2514 37.6517 32.1015 38.4507 32.9202C39.0315 33.5202 39.7717 33.9639 40.7173 34.6882C39.5627 34.6882 38.7568 34.5938 37.9808 34.7079C36.6016 34.9165 36.6112 34.3229 36.9504 33.2855ZM37.3355 37.8061C38.1803 37.4178 39.0773 37.245 39.5371 37.2482C41.0309 37.2386 42.0096 37.4114 42.3584 38.5335C42.704 39.6493 41.9931 40.357 41.1744 40.9602C41.0016 41.0877 40.8256 41.2242 40.6267 41.3026C39.7035 41.6647 38.6368 42.5746 37.8117 41.9255C36.9179 41.2242 36.7909 39.8445 36.5691 38.6802C36.4581 38.0935 36.9541 37.9826 37.3355 37.8061ZM45.2384 46.1501C45.3883 43.7789 46.1776 42.1901 47.5381 42.2263C48.8133 42.2621 49.6645 43.9255 49.7659 46.0882C49.8507 47.8919 48.8235 47.9767 47.9589 47.8722C46.3707 47.8167 45.1083 48.1298 45.2384 46.1501ZM54.9259 44.8845C54.4107 45.6509 53.6768 45.9671 52.92 46.4957C52.5483 45.2919 52.2091 44.1997 51.7749 42.797C52.9691 43.5895 53.9344 44.2285 54.9259 44.8845ZM55.3696 37.2781C56.56 37.4018 57.9397 37.3335 58.3771 38.5565C58.2789 40.4807 57.3168 42.1639 56.5408 42.1021C54.6133 41.9421 52.4603 40.2397 52.5125 38.9218C52.5579 37.7965 53.6603 37.1015 55.3696 37.2781Z" fill="#34322E"/>
<path d="M47.4534 16.4093C36.1712 16.4482 27.0091 25.5192 27.0283 36.6285C27.048 48.2893 36.0635 57.3048 47.688 57.2882C58.8726 57.2717 67.927 48.1389 67.9142 36.8861C67.8982 25.3954 58.8827 16.3704 47.4534 16.4093ZM56.6678 34.6685C56.0091 34.6589 55.3499 34.6685 54.264 34.6685C55.5947 33.6674 56.5275 32.9624 57.5227 32.2125C57.6891 32.5389 57.8326 32.7602 57.9206 33.005C58.5334 34.685 58.5142 34.7042 56.6678 34.6685ZM51.4651 32.7896C50.4182 32.669 49.9419 31.9352 49.9616 30.813C49.9878 29.4269 51.6219 26.8696 52.4176 26.9314C53.0992 26.9869 55.4411 28.9373 55.4347 29.4461C55.4219 30.5752 52.8416 32.8354 51.4651 32.7896ZM44.7334 32.0333C44.3878 32.5944 43.8886 32.8456 43.3046 32.7837C42.0454 32.7282 39.8342 30.8301 39.6059 29.6168C39.4395 28.733 40.2518 28.397 40.7734 28.1C41.5334 27.6696 42.1563 26.293 43.3275 27.3725C44.7819 28.716 45.415 30.9341 44.7334 32.0333ZM40.7344 44.405C41.4811 44.0008 42.1563 43.4658 43.1968 42.7645C42.887 43.7789 42.5739 44.4248 42.5152 45.0904C42.3552 46.8354 41.6283 46.3133 40.7504 45.6317C40.1862 45.1912 39.8571 44.8808 40.7344 44.405ZM48.2854 27.1832C48.0864 27.9005 47.8256 28.6018 47.4928 29.597C47.1371 28.5698 46.8502 27.8685 46.6646 27.1442C46.56 26.7432 45.9435 26.205 46.5894 25.9176C47.1408 25.6696 47.9168 25.5426 48.4651 25.9341C48.9963 26.3085 48.4027 26.772 48.2854 27.1832ZM40.7179 34.6882C39.5632 34.6882 38.7574 34.5938 37.9814 34.708C36.6016 34.9165 36.6112 34.3229 36.9504 33.2861C37.2928 32.252 37.6518 32.1021 38.4507 32.9208C39.0315 33.5202 39.7723 33.964 40.7179 34.6882ZM37.3355 37.8061C38.1803 37.4178 39.0774 37.245 39.5371 37.2482C41.031 37.2386 42.0096 37.4114 42.3584 38.5336C42.704 39.6493 41.9931 40.357 41.1744 40.9602C41.0016 41.0877 40.8256 41.2242 40.6267 41.3026C39.7035 41.6648 38.6368 42.5746 37.8118 41.9256C36.9179 41.2242 36.791 39.8445 36.5691 38.6802C36.4582 38.0936 36.9542 37.9826 37.3355 37.8061ZM45.2384 46.1501C45.3883 43.7789 46.1776 42.1901 47.5382 42.2264C48.8134 42.2621 49.6646 43.9256 49.7659 46.0882C49.8507 47.892 48.8235 47.9768 47.959 47.8722C46.3707 47.8168 45.1083 48.1298 45.2384 46.1501ZM54.9259 44.8845C54.4107 45.6509 53.6768 45.9672 52.92 46.4957C52.5483 45.292 52.2091 44.1997 51.775 42.797C52.9691 43.5896 53.9344 44.2285 54.9259 44.8845ZM55.3696 37.2781C56.56 37.4018 57.9398 37.3336 58.3771 38.5565C58.279 40.4808 57.3168 42.164 56.5408 42.1021C54.6134 41.9421 52.4603 40.2397 52.5126 38.9218C52.5579 37.7965 53.6603 37.1016 55.3696 37.2781Z" fill="#1437AD"/>
<path d="M47.9819 18.7742C37.6357 18.7156 29.4747 26.6319 29.4 36.7988C29.3248 46.6457 37.5381 54.9113 47.408 54.9241C57.392 54.9369 65.5008 46.9033 65.5333 36.962C65.5659 27.0724 57.6139 18.8297 47.9819 18.7742ZM51.4651 32.7897C50.4181 32.6692 49.9419 31.9353 49.9616 30.8132C49.9877 29.427 51.6219 26.8697 52.4176 26.9316C53.0992 26.987 55.4411 28.9374 55.4347 29.4462C55.4219 30.5753 52.8416 32.8356 51.4651 32.7897ZM44.7333 32.0335C44.3877 32.5945 43.8885 32.8457 43.3045 32.7839C42.0453 32.7284 39.8341 30.8302 39.6059 29.6169C39.4395 28.7332 40.2517 28.3972 40.7733 28.1001C41.5333 27.6697 42.1563 26.2932 43.3275 27.3727C44.7819 28.7161 45.4149 30.9342 44.7333 32.0335ZM40.7344 44.4052C41.4811 44.0009 42.1563 43.466 43.1968 42.7647C42.8869 43.779 42.5739 44.4249 42.5152 45.0905C42.3552 46.8356 41.6283 46.3134 40.7504 45.6318C40.1861 45.1913 39.8571 44.8809 40.7344 44.4052ZM56.6677 34.6686C56.0091 34.659 55.3499 34.6686 54.264 34.6686C55.5947 33.6676 56.5275 32.9625 57.5227 32.2126C57.6891 32.539 57.8325 32.7604 57.9205 33.0052C58.5333 34.6852 58.5141 34.7044 56.6677 34.6686ZM48.2853 27.1833C48.0864 27.9006 47.8256 28.602 47.4928 29.5972C47.1371 28.57 46.8501 27.8687 46.6645 27.1444C46.56 26.7433 45.9435 26.2052 46.5893 25.9177C47.1408 25.6697 47.9168 25.5428 48.4651 25.9342C48.9963 26.3086 48.4027 26.7721 48.2853 27.1833ZM40.7179 34.6884C39.5632 34.6884 38.7573 34.594 37.9813 34.7081C36.6016 34.9167 36.6112 34.3231 36.9504 33.2863C37.2928 32.2521 37.6517 32.1023 38.4507 32.9209C39.0315 33.5204 39.7723 33.9641 40.7179 34.6884ZM36.5691 38.6809C36.4581 38.0937 36.9541 37.9828 37.3355 37.8068C38.1803 37.4185 39.0773 37.2457 39.5371 37.2489C41.0309 37.2393 42.0096 37.4121 42.3584 38.5343C42.704 39.65 41.9931 40.3577 41.1744 40.9609C41.0016 41.0884 40.8256 41.2249 40.6267 41.3033C39.7035 41.6655 38.6368 42.5753 37.8117 41.9263C36.9179 41.2249 36.7909 39.8452 36.5691 38.6809ZM45.2384 46.1502C45.3883 43.779 46.1776 42.1903 47.5381 42.2265C48.8133 42.2623 49.6645 43.9257 49.7659 46.0884C49.8507 47.8921 48.8235 47.9769 47.9589 47.8724C46.3707 47.8169 45.1083 48.13 45.2384 46.1502ZM51.7749 42.7972C52.9685 43.5897 53.9344 44.2292 54.9259 44.8846C54.4107 45.651 53.6768 45.9673 52.92 46.4959C52.5483 45.2921 52.2091 44.1993 51.7749 42.7972ZM55.3696 37.2783C56.56 37.402 57.9397 37.3337 58.3771 38.5567C58.2789 40.4809 57.3168 42.1641 56.5408 42.1023C54.6133 41.9423 52.4603 40.2398 52.5125 38.922C52.5579 37.7966 53.6603 37.1017 55.3696 37.2783Z" fill="#333332"/>
<path d="M47.92 23.6473C40.3952 23.5299 34.3867 29.251 34.2597 36.6585C34.136 43.8537 40.0363 49.9497 47.2347 50.0542C54.5995 50.1651 60.5787 44.3721 60.6891 37.0206C60.7973 29.8153 55.0107 23.7582 47.92 23.6473ZM47.9589 47.8723C46.3707 47.8169 45.1083 48.1299 45.2384 46.1502C45.3883 43.779 46.1776 42.1902 47.5381 42.2265C48.8133 42.2622 49.6645 43.9257 49.7659 46.0883C49.8507 47.8915 48.8235 47.9763 47.9589 47.8723ZM40.7504 45.6313C40.1861 45.1907 39.8565 44.8809 40.7339 44.4046C41.4805 44.0003 42.1557 43.4654 43.1963 42.7641C42.8864 43.7785 42.5733 44.4243 42.5147 45.0899C42.3552 46.835 41.6277 46.3129 40.7504 45.6313ZM37.8117 41.9262C36.9179 41.2249 36.7909 39.8451 36.5691 38.6809C36.4581 38.0937 36.9541 37.9827 37.3355 37.8067C38.1803 37.4185 39.0773 37.2457 39.5371 37.2489C41.0309 37.2393 42.0096 37.4121 42.3584 38.5342C42.704 39.6499 41.9931 40.3577 41.1744 40.9609C41.0016 41.0883 40.8256 41.2249 40.6267 41.3033C39.7035 41.6649 38.6368 42.5753 37.8117 41.9262ZM38.4512 32.9203C39.032 33.5203 39.7723 33.9641 40.7179 34.6883C39.5632 34.6883 38.7573 34.5939 37.9813 34.7081C36.6016 34.9166 36.6112 34.323 36.9504 33.2862C37.2933 32.2515 37.6517 32.1017 38.4512 32.9203ZM40.7733 28.0995C41.5333 27.6691 42.1563 26.2926 43.3275 27.3721C44.7824 28.7161 45.4149 30.9337 44.7333 32.0329C44.3877 32.5939 43.8885 32.8451 43.3045 32.7833C42.0453 32.7278 39.8341 30.8297 39.6059 29.6163C39.4395 28.7326 40.2517 28.3966 40.7733 28.0995ZM46.5888 25.9177C47.1403 25.6697 47.9163 25.5427 48.4645 25.9342C48.9963 26.3091 48.4027 26.7726 48.2853 27.1833C48.0864 27.9006 47.8256 28.6019 47.4928 29.5971C47.1371 28.5699 46.8501 27.8686 46.6645 27.1443C46.5595 26.7427 45.9435 26.2046 46.5888 25.9177ZM55.4347 29.4467C55.4219 30.5753 52.8416 32.8355 51.4651 32.7902C50.4181 32.6697 49.9419 31.9358 49.9616 30.8137C49.9877 29.4275 51.6219 26.8702 52.4176 26.9321C53.0992 26.9875 55.4416 28.9379 55.4347 29.4467ZM56.6677 34.6686C56.0091 34.659 55.3499 34.6686 54.264 34.6686C55.5947 33.6675 56.5275 32.9625 57.5227 32.2126C57.6891 32.539 57.8325 32.7603 57.9205 33.0051C58.5333 34.6851 58.5141 34.7043 56.6677 34.6686ZM54.9259 44.8846C54.4107 45.651 53.6768 45.9673 52.92 46.4958C52.5483 45.2921 52.2091 44.1998 51.7749 42.7971C52.9691 43.5897 53.9344 44.2286 54.9259 44.8846ZM52.5125 38.9219C52.5584 37.7966 53.6608 37.1017 55.3696 37.2782C56.56 37.4019 57.9397 37.3337 58.3771 38.5566C58.2789 40.4809 57.3168 42.1641 56.5408 42.1022C54.6128 41.9422 52.4603 40.2398 52.5125 38.9219Z" fill="#BAD4E4"/>
<path d="M50.0821 43.2958C49.5637 42.1348 48.8229 41.0094 47.3717 41.0713C46.0117 41.1332 45.3557 42.2227 44.9125 43.3742C44.6842 43.9742 44.5242 44.6169 44.4394 45.2564C44.0543 48.0942 44.6186 48.7364 47.4469 48.8116C48.1418 48.7332 48.8394 48.6713 49.5343 48.5769C50.0789 48.5017 50.4181 48.1854 50.4607 47.618C50.5615 46.1566 50.7018 44.6692 50.0821 43.2958ZM47.9589 47.8724C46.3706 47.8169 45.1082 48.13 45.2383 46.1502C45.3882 43.779 46.1776 42.1902 47.5381 42.2265C48.8133 42.2622 49.6645 43.9257 49.7658 46.0884C49.8506 47.8916 48.8234 47.9764 47.9589 47.8724Z" fill="#52707E"/>
<path d="M59.0229 37.6206C58.9546 37.5 58.7589 37.4382 58.6117 37.3758C57.4602 36.8963 56.3221 36.3742 55.0368 36.3779C53.6704 36.339 52.3653 36.5768 51.6608 37.875C51.1029 38.899 51.5434 39.9203 52.2677 40.7128C53.5301 42.099 55.1936 42.7544 57.0266 42.9208C58.2368 43.0286 58.328 41.8803 58.5696 41.1432C58.9381 40.0211 59.7306 38.8926 59.0229 37.6206ZM56.5408 42.1022C54.6133 41.9422 52.4602 40.2398 52.5125 38.9219C52.5584 37.7966 53.6608 37.1016 55.3696 37.2782C56.56 37.4019 57.9397 37.3336 58.377 38.5566C58.2789 40.4808 57.3168 42.164 56.5408 42.1022Z" fill="#4F6B7B"/>
<path d="M43.4544 38.227C42.9584 36.8179 41.752 36.371 39.9285 36.3742C38.8976 36.348 37.5734 36.7753 36.3046 37.4243C35.9195 37.6201 35.4859 37.8094 35.6294 38.3736C36.0176 39.9358 36.024 41.9875 37.407 42.7278C38.8326 43.491 40.4891 42.3459 41.8854 41.4979C41.9766 41.4425 42.0581 41.3672 42.1365 41.2926C42.9813 40.4419 43.9307 39.5678 43.4544 38.227ZM41.1744 40.9603C41.0016 41.0878 40.8256 41.2243 40.6267 41.3027C39.7035 41.6649 38.6368 42.5747 37.8118 41.9257C36.9179 41.2243 36.791 39.8446 36.5691 38.6803C36.4582 38.0931 36.9541 37.9822 37.3355 37.8062C38.1803 37.4179 39.0774 37.2451 39.5371 37.2483C41.031 37.2387 42.0096 37.4115 42.3584 38.5337C42.7045 39.6494 41.9931 40.3571 41.1744 40.9603Z" fill="#506A7A"/>
<path d="M56.2112 28.6832C55.1088 27.6459 53.9702 26.6544 52.5483 26.0544C52.1078 25.872 51.831 26.0416 51.5568 26.3381C50.2976 27.7045 49.1398 29.1237 49.1008 30.7675C48.9542 33.1387 50.36 34.2021 52.304 33.576C54.3328 32.9269 55.3766 31.3056 56.3227 29.5803C56.5014 29.2539 56.456 28.9147 56.2112 28.6832ZM51.4651 32.7893C50.4182 32.6688 49.9419 31.9349 49.9616 30.8128C49.9878 29.4267 51.6219 26.8693 52.4176 26.9312C53.0992 26.9867 55.4411 28.9371 55.4347 29.4459C55.4219 30.5749 52.8416 32.8352 51.4651 32.7893Z" fill="#4F6B7A"/>
<path d="M42.7237 25.9626C41.7941 25.9888 38.4837 28.608 38.5323 29.28C38.6432 30.8714 41.9376 33.7877 43.6171 33.7781C45.0165 33.7717 45.936 32.7605 45.9328 31.2341C45.9301 29.3221 43.8624 25.9301 42.7237 25.9626ZM44.7333 32.033C44.3877 32.5941 43.8885 32.8453 43.3045 32.7834C42.0453 32.728 39.8341 30.8298 39.6059 29.6165C39.4395 28.7328 40.2517 28.3968 40.7733 28.0997C41.5333 27.6693 42.1563 26.2928 43.3275 27.3722C44.7819 28.7157 45.4149 30.9338 44.7333 32.033Z" fill="#506A7A"/>
<path d="M47.9169 24.9422C47.7569 24.939 47.5942 24.939 47.4342 24.939V24.9619C47.1078 24.9619 46.7819 24.988 46.4625 24.9587C45.0177 24.835 44.9718 25.3406 45.6438 26.4691C46.4721 27.8584 47.1115 29.3491 47.0038 31.0552C46.9841 31.3816 46.6417 31.9944 47.4081 32.027C48.119 32.0563 47.9462 31.4792 47.9398 31.0974C47.9105 29.5939 48.4289 28.2403 49.0747 26.9288C50.0139 25.0238 49.9974 24.9747 47.9169 24.9422ZM48.2854 27.1832C48.0865 27.9006 47.8257 28.6019 47.4929 29.5971C47.1371 28.5699 46.8502 27.8686 46.6646 27.1443C46.5601 26.7432 45.9435 26.2051 46.5894 25.9176C47.1409 25.6696 47.9169 25.5427 48.4651 25.9342C48.9963 26.3086 48.4027 26.772 48.2854 27.1832Z" fill="#557080"/>
<path d="M44.6155 40.6763C44.0379 40.1841 44.0123 40.7937 43.8491 41.0417C43.1707 42.0529 42.2411 42.767 41.279 43.4945C40.5126 44.0753 38.872 43.9803 39.0347 45.0859C39.1718 46.0123 40.5483 46.5211 41.4582 47.1083C41.7712 47.3073 42.1238 47.4475 42.6358 47.7019C43.0043 45.4315 43.1904 43.2923 44.648 41.599C44.9483 41.2507 45.007 41.0091 44.6155 40.6763ZM42.5152 45.0897C42.3552 46.8347 41.6283 46.3126 40.7504 45.631C40.1862 45.1905 39.8566 44.8806 40.7339 44.4043C41.4806 44.0001 42.1558 43.4651 43.1963 42.7638C42.887 43.7782 42.5739 44.4241 42.5152 45.0897Z" fill="#556D7D"/>
<path d="M55.376 44.3003C53.6214 43.5371 52.0491 42.5195 51.0251 40.8331C50.8032 40.4678 50.6662 40.448 50.3174 40.7483C49.9648 41.055 50.0304 41.2182 50.2747 41.5115C51.736 43.2566 52.023 45.3931 52.287 47.7803C53.6176 47.1638 54.6486 46.4267 55.6107 45.5654C56.2603 44.9851 56.1264 44.6262 55.376 44.3003ZM52.92 46.4955C52.5483 45.2918 52.2091 44.1995 51.775 42.7968C52.9686 43.5894 53.9344 44.2288 54.9259 44.8843C54.4107 45.6507 53.6768 45.967 52.92 46.4955Z" fill="#56717F"/>
<path d="M58.4517 32.1338C58.2949 31.7456 58.0768 31.3834 57.8192 30.8848C56.1653 32.584 54.6096 34.2704 52.2549 34.753C51.7882 34.8474 52.0426 35.1056 52.0885 35.3434C52.2058 35.96 52.545 35.7642 52.9072 35.6042C54.0229 35.112 55.1936 35.0368 56.4005 35.112C57.3626 35.1738 58.6837 36.0544 59.176 35.1802C59.6165 34.4042 58.8597 33.1354 58.4517 32.1338ZM56.6677 34.6682C56.009 34.6586 55.3498 34.6682 54.264 34.6682C55.5946 33.6672 56.5274 32.9621 57.5226 32.2122C57.689 32.5386 57.8325 32.76 57.9205 33.0048C58.5333 34.6848 58.5141 34.704 56.6677 34.6682Z" fill="#526D7C"/>
<path d="M37.2181 30.9048C36.4416 32.0824 36.0571 33.2893 35.7995 34.5741C35.6203 35.4483 35.8384 35.5949 36.68 35.4253C38.4933 35.06 40.3232 34.812 42.1141 35.6115C42.7957 35.9149 42.9099 35.3309 43.1221 34.8483C40.5744 34.46 38.9173 32.7309 37.2181 30.9048ZM37.9813 34.708C36.6016 34.9165 36.6112 34.3229 36.9504 33.2861C37.2928 32.252 37.6517 32.1021 38.4507 32.9208C39.0315 33.5208 39.7717 33.9645 40.7173 34.6888C39.5632 34.6883 38.7579 34.5933 37.9813 34.708Z" fill="#4E6B79"/>
<path d="M45.0245 35.0947C45.6362 35.1923 45.9461 35.5267 45.9168 36.0782C45.888 36.6243 45.5579 36.9897 44.992 36.9545C44.4459 36.9203 44.1136 36.5523 44.1296 35.9998C44.1456 35.4265 44.5674 35.2009 45.0245 35.0947Z" fill="#4B6472"/>
<path d="M50.8602 36.0989C50.7935 36.6573 50.4634 36.9608 49.9002 36.924C49.2896 36.8834 49.1077 36.4434 49.1466 35.909C49.1829 35.412 49.4901 35.109 49.9877 35.1421C50.5365 35.1778 50.8533 35.5074 50.8602 36.0989Z" fill="#43606D"/>
<path d="M49.0438 39.8673C48.4491 39.8012 48.1824 39.4572 48.192 38.9047C48.2006 38.4151 48.4624 38.0961 48.9632 38.0732C49.5371 38.0471 49.8678 38.3847 49.8859 38.9324C49.903 39.478 49.592 39.8119 49.0438 39.8673Z" fill="#415867"/>
<path d="M46.0033 38.0288C46.5889 38.0992 46.8694 38.4784 46.8438 39.0245C46.8209 39.5056 46.4945 39.8469 46.0043 39.856C45.4369 39.8667 45.0614 39.5072 45.0737 38.9488C45.0843 38.4197 45.3894 38.0363 46.0033 38.0288Z" fill="#4D6677"/>
<path d="M47.4091 33.375C47.9723 33.447 48.3483 33.7441 48.3584 34.2854C48.3675 34.7633 48.0368 35.0662 47.5387 35.0758C46.9669 35.087 46.6315 34.7665 46.6197 34.2075C46.6091 33.7025 46.984 33.487 47.4091 33.375Z" fill="#3A5360"/>
<path d="M43.5824 61.5629L40.9168 63.5698L23.6459 46.3752L26.0624 44.5176L43.5824 61.5629Z" fill="#94A9B6"/>
<path d="M27.2464 44.0001C27.7664 43.5201 27.4155 43.5771 28.0352 43.5969C28.0832 43.3334 44.7205 59.1766 44.9205 59.5169C44.5205 59.6369 43.8864 60.0598 43.5264 60.2998L27.2464 44.0001Z" fill="#828A8B"/>
<path d="M26.2267 44.98C26.7467 44.5 26.6267 43.98 27.2464 44.0002C27.2944 43.7368 43.7408 59.9384 43.9408 60.2787C43.5408 60.3986 42.9067 60.8216 42.5467 61.0616L26.2267 44.98Z" fill="#F2F2F2"/>
<path d="M24.1131 37.5889C21.9696 35.4428 19.8688 33.2518 17.6699 31.1644C16.0134 29.5916 13.3046 29.7201 11.6272 31.3089C10.0374 32.815 9.81868 35.4636 11.152 37.2252C11.4331 37.5964 11.6944 38.1142 12.3051 37.6652C12.5638 37.0572 12.0843 36.655 11.8758 36.1862C11.2203 34.7121 11.5531 32.9713 12.6891 32.0694C13.8635 31.1372 15.6758 31.1233 16.9195 32.0369C18.096 32.9009 18.5344 34.4033 18.0134 35.7841C17.4395 37.3046 15.9755 38.215 14.336 38.0342C13.8432 37.9798 13.3702 37.887 12.9792 38.2972C12.0006 38.3249 12.5654 38.7334 12.8246 39.0001C14.3947 40.6145 15.9792 42.2161 17.5584 43.8214C18.0064 44.2305 18.3947 43.9366 18.7003 43.6529C20.4886 41.99 22.215 40.263 23.879 38.4753C24.0976 38.2417 24.2704 37.9457 24.1131 37.5889Z" fill="#89AABF"/>
<path d="M28.0064 40.4201C27.7264 40.3401 27.7462 40.2403 27.6667 40.0398C27.1867 38.4201 27.047 38.3801 25.6667 39.5001C25.4064 39.7001 25.207 39.9801 24.8267 39.9001C24.087 40.3598 23.967 41.3401 23.1867 41.8201C21.3467 42.9401 19.967 44.5801 18.5264 46.1401C18.6262 46.3801 18.6667 46.8398 18.8064 46.8601C19.7264 47.0201 20.5062 47.1203 20.4262 48.4601C20.4059 48.8601 21.3062 48.8803 21.8064 48.5203C22.2267 48.2003 22.6262 47.8403 23.0464 47.5001C23.5467 47.4003 23.8064 46.9998 24.1867 46.7001C24.207 46.7001 24.2267 46.6798 24.2464 46.6601C24.9067 46.1401 25.4464 45.4803 26.1664 45.0201C26.1867 44.9998 26.2064 44.9801 26.2267 44.9801C26.2464 44.9401 26.2667 44.9198 26.2864 44.9001C26.5867 44.5998 26.9062 44.3001 27.2464 43.9998H27.2667C27.727 43.6798 28.2667 43.5198 28.7867 43.2798C29.9867 41.3603 29.9067 40.9801 28.0064 40.4201ZM21.2864 46.1603C20.7067 45.5006 25.7067 41.0003 26.3067 41.7006C26.927 42.3806 21.8667 46.8403 21.2864 46.1603Z" fill="#FFD900"/>
<path d="M24.8267 39.9002C24.087 40.3599 23.967 41.3402 23.1867 41.8202C21.3467 42.9402 19.967 44.5802 18.5264 46.1402C18.4667 45.7999 18.5867 45.4799 18.807 45.2399C20.487 43.1797 22.767 41.7599 24.5467 39.8197C24.6064 39.7599 24.7467 39.8197 24.8267 39.9002Z" fill="#FFD900"/>
<path d="M21.2864 46.16C20.7067 45.5002 25.7067 41 26.3067 41.7002C26.927 42.3802 21.8667 46.84 21.2864 46.16Z" fill="#FFD900"/>
<path d="M50.4081 66.4114C49.9867 66.4327 49.5025 66.9591 49.0806 66.3484C48.6801 66.2434 48.3851 66.4327 48.0907 66.6226C48.0065 66.7068 47.9009 66.7703 47.7958 66.8332H47.7745C47.6059 66.9596 47.4582 67.1282 47.3318 67.2967C47.311 67.3596 47.2689 67.4231 47.2054 67.486C47.2054 67.5074 47.1846 67.5074 47.1846 67.5074C47.1003 67.6551 46.9739 67.8023 46.8683 67.95C46.847 67.9714 46.847 67.9714 46.847 67.9714C46.6363 68.2242 46.4678 68.5191 46.5521 68.9191C46.9947 69.4668 46.6155 70.0359 46.6155 70.5836C46.6998 73.1116 48.4907 74.8599 50.9974 74.7756C53.3782 74.6914 55.1051 72.7954 54.9787 70.4146C54.8529 67.9703 52.8726 66.285 50.4081 66.4114ZM50.8081 72.1836C49.839 72.2044 49.4177 71.5095 49.1857 70.6668C49.4177 69.8242 49.7969 69.0444 50.7446 69.0444C51.7345 69.0236 52.4086 69.6764 52.3878 70.6668C52.367 71.573 51.735 72.1628 50.8081 72.1836Z" fill="#557689"/>
<path d="M16.8699 31.4828C15.416 30.5345 13.9627 30.83 12.5931 31.6092C11.3712 32.3046 10.7392 34.6214 11.3504 35.9702C11.6032 36.5601 11.9824 37.1078 12.2987 37.6556C12.5301 37.8662 12.7621 38.0769 12.9728 38.2876C13.9419 38.0134 14.8267 38.7932 15.9013 38.351C17.5659 37.6769 18.4923 36.5814 18.6613 34.8961C18.8075 33.4422 18.1333 32.2833 16.8699 31.4828ZM15.0789 33.126C16.0059 33.2102 16.4907 33.9686 16.4272 34.8326C16.3851 35.591 15.8581 36.3073 14.9733 36.2444C14.0251 36.2022 13.3723 35.6753 13.288 34.5798C13.52 33.695 14.0677 33.0417 15.0789 33.126Z" fill="#4A6B80"/>
<path d="M26.4064 38.1201C25.8267 38.6599 25.1264 39.0999 24.8267 39.9004C24.087 40.3601 23.967 41.3404 23.1867 41.8204C21.3467 42.9404 19.967 44.5804 18.5264 46.1404C17.9467 46.2807 17.7264 47.5804 16.7462 46.5207C15.8864 45.5404 16.7862 45.2407 17.1664 44.6807C17.3467 44.4204 17.4267 44.1207 17.5664 43.8209C17.8064 43.7409 18.1062 43.7212 18.2864 43.5607C20.2267 41.5809 22.1664 39.5809 24.1062 37.5809C24.4464 37.3207 24.7664 37.0407 25.1062 36.7809C25.5264 36.4807 25.8464 35.6807 26.5062 36.4609C26.9867 37.0401 27.0064 37.5399 26.4064 38.1201Z" fill="#BAD4E2"/>
<path d="M47.9936 60.0747C48.0139 60.9147 48.0704 61.1291 47.5291 61.4133C45.0715 62.7035 41.2885 66.3835 39.2192 66.3403C37.168 66.2981 37.0837 65.6523 38.3835 63.9125C39.3563 64.1627 39.8544 63.8565 40.3189 63.0805C40.3392 63.0603 40.3792 63.0405 40.3989 63.0405V63.0203C40.4389 63 40.4789 62.9803 40.5189 62.9403C41.2187 62.48 41.7792 61.8203 42.3589 61.24C42.3792 61.2203 42.3989 61.2 42.4187 61.1803L42.5387 61.0603C42.7989 60.8 43.0789 60.5403 43.3787 60.3205C43.3989 60.2805 43.4384 60.2603 43.4587 60.2405C43.8187 60.0005 44.1589 59.7605 44.5584 59.6405C46.7387 58.2603 47.4533 58.3147 47.9936 60.0747Z" fill="#FFD900"/>
<path d="M44.6064 57.8596C44.4464 58.1396 44.2267 58.3999 44.0267 58.6596C43.4069 58.6399 42.7664 58.5396 42.2464 59.0196C42.2064 59.0394 42.1664 59.0794 42.1467 59.0996C41.8469 59.3396 41.5867 59.5999 41.3269 59.8799C41.2869 59.9199 41.2469 59.9599 41.2069 59.9999C41.1867 60.0202 41.1669 60.0399 41.1467 60.0596C40.5669 60.6794 39.8864 61.1999 39.2267 61.7396C39.1867 61.7599 39.1264 61.7994 39.0864 61.8394C39.0464 61.8596 39.0261 61.8996 38.9861 61.9194C38.6864 62.1396 38.4261 62.4196 38.0464 62.4596C37.8064 62.5796 37.5664 62.6996 37.3467 62.8196C36.4667 63.3199 35.4864 63.7396 34.7467 62.7796C34.0469 61.8996 34.7067 61.0996 35.3269 60.3994C36.0069 60.1391 36.8869 60.8394 37.4469 59.9791V59.9599C37.4869 59.9199 37.5067 59.9002 37.5467 59.8602C38.1867 59.2804 38.8864 58.7199 39.4667 58.0602L39.4864 58.0399C39.5067 58.0202 39.5467 57.9999 39.5664 57.9599C39.8064 57.7402 40.0667 57.5396 40.3264 57.3402C40.3664 57.3199 40.4064 57.3002 40.4464 57.2602C40.4667 57.2399 40.4864 57.2399 40.5061 57.2202C40.8661 56.9802 41.2064 56.7199 41.6464 56.6202C42.0064 56.4004 42.3467 56.1402 42.7264 55.9402C43.3461 55.6202 44.0261 55.5204 44.5461 56.0602C45.0869 56.5999 44.9269 57.2602 44.6064 57.8596Z" fill="#FFD900"/>
<path d="M38.0667 52.3397C37.5264 52.7599 36.8064 52.4597 36.2667 52.8197C36.2464 52.8197 36.2464 52.8399 36.2267 52.8597C36.1664 52.8799 36.1067 52.8997 36.0667 52.9594C35.7067 53.1397 35.4064 53.3994 35.1264 53.6991C35.0864 53.7194 35.0464 53.7391 35.0267 53.7791C35.0064 53.7989 34.9867 53.8191 34.967 53.8389C34.367 54.4186 33.7867 55.0191 33.1867 55.5989L33.0464 55.7391C33.0262 55.7594 33.0262 55.7594 33.0064 55.7791C32.6667 56.0789 32.2864 56.2794 31.8662 56.3791C30.8064 56.7594 29.7462 57.9391 28.6464 56.6991C27.8864 55.8191 28.6262 54.9791 29.2464 54.2591C29.9862 54.3589 30.7264 54.4591 31.3067 53.8191C31.327 53.7989 31.327 53.7989 31.3467 53.7791C31.3664 53.7589 31.4064 53.7391 31.4267 53.7189V53.6986C32.0267 53.1583 32.7467 52.7786 33.3067 52.1583C33.327 52.1386 33.3664 52.0986 33.3867 52.0783C33.7067 51.7786 34.0064 51.4586 34.3664 51.1983C34.3867 51.1781 34.3867 51.1781 34.4064 51.1583C34.7462 50.9183 35.0864 50.6783 35.4667 50.5183L35.4864 50.4981H35.5067C35.967 50.2181 36.407 49.9381 36.8667 49.6778C37.4667 49.3781 38.047 49.4778 38.447 50.0181C39.087 50.8799 38.5264 51.6197 38.0667 52.3397Z" fill="#FFD900"/>
<path d="M31.927 46.2197C31.3472 46.4395 30.6667 46.1995 30.167 46.64C30.127 46.6597 30.087 46.6997 30.0672 46.72C29.7072 47 29.407 47.3397 29.1072 47.64C29.0875 47.6597 29.0875 47.6597 29.0672 47.68C28.407 48.4 27.5472 48.84 26.887 49.5397C26.8667 49.56 26.847 49.5797 26.8272 49.6C26.5072 49.9003 26.1872 50.2 25.7072 50.28C24.6672 50.6 23.607 51.76 22.527 50.5797C21.687 49.64 22.5067 48.8197 23.1067 48.0795C23.7867 48.0795 24.5067 48.5195 25.127 47.8997L25.1872 47.8395C25.8672 47.2597 26.4672 46.5995 27.1072 45.9797C27.1275 45.9595 27.1675 45.9195 27.1872 45.9195C27.287 46.0395 27.367 46.0997 27.367 46.0997C27.367 46 27.3472 45.8997 27.3072 45.7995C27.3072 45.7797 27.3072 45.7797 27.3072 45.7797C27.5872 45.4997 27.8672 45.2197 28.167 44.9397H28.1872V44.92C28.487 44.6597 29.127 44.44 29.287 44.4L29.327 44.3797C29.327 44.3797 31.1467 42.8795 32.1867 43.7995C33.047 44.5397 32.5067 45.4597 31.927 46.2197Z" fill="#FFD900"/>
<path d="M27.3664 46.1001C27.3664 46.1001 27.2864 46.0398 27.1867 45.9198C27.2267 45.8601 27.2667 45.8201 27.3067 45.7998C27.3467 45.9006 27.3664 46.0003 27.3664 46.1001Z" fill="#FFD900"/>
<path d="M41.3664 54.9603C40.6464 55.2803 39.7867 55.2803 39.2267 55.9603C39.1867 56.0003 39.1467 56.0206 39.1067 56.0601C38.8469 56.2803 38.5467 56.4803 38.3067 56.7203L38.2464 56.7806C38.2267 56.8003 38.2267 56.8003 38.2064 56.8003C37.5461 57.4003 36.9861 58.0606 36.3061 58.6206C36.2661 58.6409 36.2459 58.6803 36.2064 58.7006C35.7861 58.9609 35.3861 59.3006 34.8864 59.4403C34.6064 59.5806 34.3067 59.7203 34.0267 59.8803C33.2069 60.2803 32.3269 60.5801 31.7067 59.7203C31.1264 58.9006 31.5067 58.0803 32.2069 57.4403C32.8869 57.2606 33.7072 57.8003 34.2667 57.0206C34.2869 57.0003 34.2869 57.0003 34.3067 57.0003C34.3467 56.9401 34.4064 56.9006 34.4469 56.8601C35.0667 56.3001 35.6469 55.6403 36.3067 55.1203C36.3467 55.1001 36.4064 55.0601 36.4469 55.0003C36.7669 54.8003 37.0267 54.5203 37.2667 54.2403L37.3867 54.1203C37.7067 53.8601 38.0469 53.6201 38.4667 53.5401C38.7467 53.3801 39.0267 53.2201 39.2864 53.0601C39.9664 52.6601 40.7067 52.3401 41.3467 52.9401C41.9669 53.5401 41.8864 54.2803 41.3664 54.9603Z" fill="#FFD900"/>
<path d="M35.5467 48.1798C35.1664 49.0598 34.2864 49.2001 33.5264 49.5201C33.3664 49.6001 33.2267 49.6801 33.1264 49.7201C33.0464 49.7804 32.9664 49.8401 32.8864 49.9201C32.8662 49.9201 32.8662 49.9201 32.8464 49.9404C32.5462 50.2006 32.2864 50.5004 32.0262 50.7804C32.0059 50.8001 31.9664 50.8401 31.9462 50.8604C31.2459 51.3606 30.6459 51.9601 30.0459 52.5601L29.9056 52.7004C29.8854 52.7206 29.8459 52.7606 29.8256 52.7804C29.5654 53.0204 29.2854 53.2806 28.8854 53.3201C28.4054 53.5398 27.9254 53.7804 27.4454 53.9601C26.8054 54.2204 26.1254 54.1798 25.6454 53.6998C25.1051 53.1798 25.2854 52.5201 25.6054 51.9398C25.7856 51.6198 26.0454 51.3201 26.2656 51.0396C27.0054 52.2198 28.5056 51.0198 28.5056 51.0198L30.5056 49.1196L31.4854 48.1596L32.6256 47.2598L32.6459 47.2396L32.7062 47.1996C33.0262 47.0198 33.3659 46.8193 33.7062 46.6796C34.967 46.1404 35.6064 46.6801 35.5467 48.1798Z" fill="#FFD900"/>
<path d="M32.6267 47.2603L31.4864 48.16L30.5067 49.12L28.5067 51.0203C28.5067 51.0203 27.0064 52.2203 26.2667 51.04C26.9867 51.2603 27.7067 51.4603 28.3269 50.8603C28.3669 50.84 28.3867 50.8 28.4267 50.7605C29.1467 50.2405 29.5867 49.4405 30.3067 48.9205C30.6667 48.6405 30.9867 48.3205 31.3067 47.9808C31.3269 47.9605 31.3664 47.9205 31.3867 47.9008C31.6469 47.6608 31.9067 47.4208 32.3067 47.4405C32.4064 47.3803 32.5264 47.32 32.6267 47.2603Z" fill="#FFD900"/>
<path d="M48.9269 64.5004C49.4869 65.2204 49.6267 65.8204 48.5067 66.1202L48.4864 66.0999C48.4667 66.0999 48.4464 66.0599 48.4464 66.0599C47.9664 65.6999 47.6261 65.1399 47.1861 64.7399C46.7861 64.4002 46.4261 64.1202 45.9664 64.4396C45.9264 64.4599 45.8864 64.4796 45.8464 64.5394C45.8261 64.5394 45.8261 64.5394 45.8064 64.5596C45.1867 65.0999 44.6261 65.6999 44.0464 66.2994C43.9664 66.3794 43.9061 66.4396 43.8267 66.5196L43.8064 66.5394C43.4864 66.8396 43.1664 67.1394 42.7264 67.2796H42.7067C42.1467 67.7799 41.6064 68.2594 41.0464 68.7596C40.7264 69.0396 40.3861 69.5196 39.9664 69.1596C39.4661 68.7399 40.1061 68.4599 40.3264 68.1596C40.5264 67.8599 40.7861 67.5799 41.0261 67.2999C41.2459 66.3799 41.8859 65.6999 42.2864 64.8802C42.3664 64.8002 42.4667 64.7202 42.5867 64.6802C42.6464 64.6204 42.7067 64.6002 42.7664 64.5602C44.0267 63.5399 44.9664 62.0802 46.7664 61.7404C47.3664 61.6204 47.9664 61.0007 47.9467 60.1602C48.4667 60.3202 48.8064 59.1804 49.3067 59.9004C49.7067 60.5202 48.9067 60.7804 48.6064 61.1804C48.2667 61.6407 47.8464 62.0604 47.4667 62.5207C47.5264 63.5004 48.4267 63.8402 48.9269 64.5004Z" fill="#B9D0DC"/>
<path d="M43.6086 66.332C43.207 66.5459 42.888 66.8387 42.7163 67.2712C43.144 67.6787 43.6358 68.0387 43.9867 68.5043C44.7328 69.4942 45.5542 69.6563 46.5526 68.9246C46.8064 68.3502 47.5488 68.076 47.528 67.3336C46.2651 68.0568 45.2747 67.7544 44.4683 66.5736C44.2982 66.324 43.9606 66.1806 43.6086 66.332Z" fill="#536F80"/>
<path d="M47.4721 62.5122C46.6859 63.6034 47.9846 63.7575 48.3249 64.3186C48.6811 64.9053 49.5921 65.3293 48.5345 66.0578C48.3217 66.0493 48.1558 66.1463 48.0081 66.2877C47.8459 66.501 47.6923 66.717 47.8657 66.9981C48.4075 67.0391 48.6865 66.5773 49.0907 66.3565C49.8966 65.3586 49.6998 64.5383 48.7078 63.7799C48.2443 63.4253 47.8806 62.9389 47.4721 62.5122Z" fill="#536F80"/>
<path d="M21.2864 46.16C20.7067 45.5002 25.7067 41 26.3067 41.7002C26.927 42.3802 21.8667 46.84 21.2864 46.16Z" fill="#BBA173"/>
<path d="M47.8657 66.998C47.9803 66.7996 48.095 66.6012 48.2097 66.4033C47.4374 65.5996 46.8801 64.5201 45.599 64.3687C44.8075 64.8935 44.1755 65.5799 43.6091 66.3324C43.8929 66.5761 44.2422 66.774 44.4491 67.0711C45.3857 68.4156 46.3782 68.6935 47.5286 67.3335C47.6406 67.2215 47.7531 67.1095 47.8657 66.998Z" fill="#86ABBF"/>
<path d="M50.7658 68.3284C49.6282 68.3498 48.5541 69.466 48.5328 70.6666C48.5114 71.7834 49.6704 72.8783 50.8501 72.8575C52.0298 72.8362 53.0832 71.7407 53.0618 70.5402C53.041 69.3604 51.9456 68.3071 50.7658 68.3284ZM50.808 72.1834C49.8389 72.2042 49.4176 71.5092 49.1856 70.6666C49.4176 69.8239 49.7968 69.0442 50.7445 69.0442C51.7344 69.0234 52.4085 69.6762 52.3877 70.6666C52.3669 71.5727 51.7349 72.1626 50.808 72.1834Z" fill="#8BA8B8"/>
<path d="M14.8469 32.4308C13.6885 32.4516 12.6139 33.5684 12.6352 34.7482C12.6565 36.033 13.6464 37.0026 14.9104 36.9812C16.048 36.9812 17.2064 35.7802 17.1856 34.6639C17.1648 33.5258 15.9851 32.3887 14.8469 32.4308ZM14.9733 36.2436C14.0251 36.2015 13.3723 35.6746 13.288 34.5791C13.5195 33.6943 14.0672 33.0415 15.0784 33.1252C16.0053 33.2095 16.4901 33.9679 16.4267 34.8319C16.3851 35.5908 15.8581 36.3071 14.9733 36.2436Z" fill="#8BA9BA"/>
<path d="M45.599 64.3683C46.5713 64.9155 46.9995 66.1608 48.2097 66.403C48.3179 66.2878 48.4262 66.1731 48.5345 66.0579C48.4001 64.9299 47.4241 64.4312 46.7201 63.7763C46.0934 63.1944 45.8865 63.988 45.599 64.3683Z" fill="#ECF7FA"/>
</svg>
