<svg width="80" height="80" viewBox="0 0 80 80" fill="none" xmlns="http://www.w3.org/2000/svg">
<path d="M64.2394 12.7378H14.2677V41.3645H64.2394V12.7378Z" fill="url(#paint0_linear_26_441)"/>
<path d="M37.9835 45.0367C30.2187 44.9679 22.4533 44.8917 14.688 44.8431C14.0565 44.8394 13.8933 44.6351 13.8965 44.0298C13.9483 33.6922 13.8149 23.3546 14.0235 13.0175C14.0357 12.3957 14.1024 12.0805 14.8805 12.0815C30.9813 12.0997 47.0811 11.8362 63.1819 11.9599C63.4949 11.9621 63.808 11.9733 64.1211 11.9802C64.3616 12.089 64.8267 12.121 64.2971 12.4949C61.4853 12.6314 58.6736 12.697 55.864 12.4549C55.0501 12.385 54.2368 12.4234 53.4235 12.4191C51.5755 12.4101 49.7259 12.4602 47.8795 12.4026C46.3104 12.3535 44.7589 12.5615 43.1968 12.6005C41.6603 12.6389 40.1376 12.4639 38.6075 12.417C36.5429 12.3541 34.4891 12.7317 32.4213 12.5695C32.3147 12.561 32.2565 12.6207 32.2341 12.7269C31.9888 13.2309 31.5109 13.1615 31.088 13.1754C29.8059 13.217 28.5227 13.1599 27.24 13.1786C24.9931 13.2047 22.7467 13.1893 20.4997 13.1866C20.1269 13.1861 19.7461 13.1957 19.4192 12.9626C19.288 12.4186 19.7232 12.5279 19.9765 12.5253C21.7616 12.5087 23.5493 12.4517 25.3312 12.5503C25.9957 12.5871 26.6715 12.5253 27.2507 12.6399C23.3056 12.3381 19.2768 12.6298 15.2501 12.6074C15.0299 12.6063 14.8069 12.6127 14.6693 12.8298C14.4261 14.1541 14.6672 22.9215 14.5531 24.2655C14.5797 30.4383 14.5371 36.6106 14.5883 42.7829C14.5995 44.1482 14.6277 44.1802 16.0325 44.1823C18.5701 44.1866 21.1083 44.1823 23.6459 44.1845C24.1467 44.185 24.6491 44.1695 25.1456 44.2634C25.784 44.4794 26.4459 44.4074 27.0992 44.4079C29.1317 44.4101 31.1643 44.4207 33.1968 44.401C33.7824 44.3695 34.3669 44.3743 34.9483 44.4677C35.6475 44.6933 36.3707 44.5551 37.0805 44.6117C37.424 44.6394 37.8613 44.5178 37.9835 45.0367Z" fill="#494949"/>
<path d="M64.4998 12.3282C64.3734 12.2119 64.2475 12.0962 64.1211 11.9799C65.016 11.7277 64.9216 12.3549 64.9216 12.8871C64.9211 18.3682 64.9387 23.8493 64.9094 29.3303C64.8928 32.3671 64.7702 35.4039 64.7472 38.4407C64.7334 40.2557 64.7984 42.0717 64.8715 43.8855C64.8982 44.5431 64.7664 44.8343 64.0134 44.8194C61.9174 44.7778 59.8198 44.8231 57.7227 44.8343C57.6822 44.7159 57.7158 44.6247 57.8224 44.5607C58.4912 44.2994 59.1904 44.4679 59.8736 44.4173C61.303 44.4071 62.736 44.4781 64.3259 44.3597C63.5003 43.9341 62.8022 43.6317 62.1392 43.2669C61.7222 43.0375 61.2294 42.7613 61.5771 42.1181C62.1163 41.8722 62.688 42.0093 63.2438 41.9725C64.2566 41.9911 64.2566 41.9911 64.2406 40.5346C64.2395 39.4839 64.24 38.4354 64.2368 37.3869C64.3115 36.3143 64.3798 35.2413 64.1942 34.0605C64.2571 34.7623 64.3691 35.3565 64.3051 35.9511C64.2763 36.2162 64.4235 36.6381 63.8827 36.5661C63.4566 35.7341 63.704 34.8461 63.6646 33.9821C63.648 33.3085 63.6368 32.6349 63.6619 31.9613C63.6758 31.5847 63.752 31.2306 64.0528 30.9661C64.3414 30.6093 64.2331 30.1853 64.232 29.7911C64.2134 24.4173 64.2256 19.0429 64.2251 13.669C64.2251 13.2061 64.1456 12.7202 64.4998 12.3282Z" fill="#7B7C7D"/>
<path d="M59.9648 44.6443C59.2267 44.6619 58.4886 44.679 57.7499 44.6966C56.7483 44.9046 55.7222 44.6246 54.7211 44.8459C53.7808 44.8523 52.8411 44.8587 51.9008 44.8651C51.8464 44.2027 51.4843 43.8113 50.8491 43.6395C50.6432 43.5841 50.4544 43.4683 50.2758 43.3478C49.967 43.1398 49.5867 42.9083 49.6555 42.5073C49.7179 42.1425 50.1478 42.0982 50.4736 42.007C52.0918 41.9734 53.7094 41.8833 55.3243 42.0545C55.6048 42.1537 55.7568 42.4059 55.9579 42.5985C56.8731 43.4769 57.7963 44.295 59.2278 44.0731C59.5339 44.0257 60.1131 43.9531 59.9648 44.6443Z" fill="#2E2F2F"/>
<path d="M37.9835 45.0369C37.3894 44.6865 36.736 44.9201 36.1142 44.8476C35.7307 44.8028 35.3163 44.9702 34.9686 44.6812C35.2288 44.3958 35.5819 44.3996 35.9216 44.3937C39.3152 44.3382 42.7088 44.375 46.103 44.4193C46.951 44.6678 47.8176 44.5777 48.6822 44.582C49.2806 44.5852 49.9307 44.4012 50.4502 44.8924C47.992 45.1441 45.5264 44.9937 43.0646 45.0326C42.4715 45.0422 41.8779 45.0305 41.2848 45.0454C41.0646 45.0513 40.7542 44.9425 40.7691 45.3676C40.7819 45.7468 40.999 45.823 41.3238 45.822C42.7291 45.8166 44.1355 45.7969 45.5403 45.8316C47.0987 45.87 48.664 45.8582 50.1968 46.2204C50.0224 46.7436 49.5552 46.6369 49.1846 46.646C48.1616 46.671 47.1371 46.6166 46.1131 46.6353C45.5835 46.6321 45.0544 46.6321 44.5248 46.6358C40.4448 46.6492 36.3643 46.6785 32.2848 46.6348C31.7798 46.6017 31.263 46.7004 30.7707 46.5089C30.4752 46.3004 30.624 46.1473 30.8358 46.0028C31.0672 45.9921 31.2987 45.9809 31.5307 45.9702C33.3494 45.8172 35.1718 45.95 36.991 45.8961C37.3179 45.8865 37.6715 46.0214 37.9718 45.7756C37.9824 45.5297 38.2208 45.2876 37.9835 45.0369Z" fill="#272828"/>
<path d="M30.8347 46.003C30.7718 46.1267 30.7088 46.251 30.6459 46.3747C30.3606 46.6702 29.9958 46.4947 29.7168 46.5624C31.3446 46.4782 33.0123 46.7486 34.4688 46.6504C34.032 46.6387 33.3734 46.6654 32.7158 46.6424C32.4966 46.635 32.1883 46.7726 32.1099 46.3939C36.2838 46.3992 40.4576 46.404 44.6315 46.4094C43.9088 46.9448 43.0886 46.4776 42.4256 46.6558C44.1344 46.6883 45.9419 46.4691 47.7467 46.6888C47.176 46.5203 46.5259 46.9118 46.0091 46.4056C47.0736 46.3944 48.1382 46.3907 49.2022 46.3672C49.5366 46.3598 49.896 46.4755 50.1963 46.2211C50.455 46.2456 50.6086 46.3822 50.5648 46.6472C50.5291 46.8643 50.3462 46.916 50.1446 46.9352C49.4939 46.9976 48.8443 47.1288 48.1942 47.131C42.4128 47.1459 36.631 47.1294 30.8496 47.1507C30.1211 47.1534 29.4326 46.9235 28.7131 46.9288C28.4784 46.9304 28.2491 46.8771 28.2496 46.5976C28.2502 46.3363 28.4822 46.244 28.7008 46.1976C29.4038 46.0478 30.1099 45.9182 30.8347 46.003Z" fill="#383938"/>
<path d="M50.4501 44.8932C48.9952 44.7055 47.5125 45.0777 46.0683 44.674C46.4859 43.8596 47.2107 44.4116 47.7472 44.2569C47.3328 43.9983 46.8293 43.7908 46.4075 43.4617C45.9589 43.1113 45.6507 42.6916 46.1168 42.1225C46.368 41.9748 46.6464 41.9785 46.9232 41.9695C47.7024 41.9673 48.4816 41.9593 49.2603 41.9737C49.5973 41.9801 49.9568 41.9428 50.2037 42.2601C49.9397 42.4313 49.5339 42.5503 50.0491 42.9257C50.4581 43.2244 50.8971 43.4356 51.3776 43.5865C52.0507 43.7983 52.2816 44.2127 51.9013 44.866C51.4192 44.9689 50.9355 44.9695 50.4501 44.8932Z" fill="#191919"/>
<path d="M37.9711 45.7759C37.8639 45.9631 37.6858 45.9956 37.4922 45.9951C35.5045 45.9871 33.5173 45.9785 31.5295 45.9705C33.2965 45.7039 35.0757 45.8655 36.849 45.8143C37.2229 45.8031 37.5973 45.7887 37.9711 45.7759Z" fill="#383938"/>
<path d="M54.7211 44.8462C55.7168 44.5182 56.7387 44.7139 57.7499 44.6968C57.7392 44.7427 57.7301 44.7886 57.7227 44.8344C56.7221 44.8382 55.7216 44.8424 54.7211 44.8462Z" fill="#515252"/>
<path d="M46.0645 42.2685C45.9994 42.8466 46.2746 43.1944 46.7824 43.4424C47.2757 43.684 47.7376 43.9896 48.3461 44.3442C47.504 44.6685 46.7189 44.2509 46.0688 44.6738C42.369 44.6765 38.6688 44.6786 34.969 44.6813C34.4085 44.676 33.8474 44.6706 33.2869 44.6653C31.6757 44.468 30.0576 44.637 28.4442 44.5784C27.3584 44.5394 26.2688 44.6685 25.1856 44.5064C21.8704 44.5064 18.5552 44.492 15.24 44.517C14.5584 44.5224 14.2464 44.405 14.2512 43.605C14.2917 37.1304 14.2848 30.6557 14.2922 24.181C14.8752 23.9981 14.8197 24.4552 14.8352 24.764C14.9397 26.8568 14.936 28.9512 14.944 31.0461C14.9504 32.693 14.8506 34.3384 15.0992 35.989C15.2848 37.221 15.1594 38.4882 15.145 39.7389C15.1365 40.4904 15.4202 40.8568 16.1888 40.7954C16.2816 40.788 16.3765 40.7987 16.4704 40.7971C21.3178 40.7176 26.1642 40.884 31.0096 40.9459C35.1061 40.9981 39.2026 40.957 43.2976 41.0136C43.7317 41.3757 44.2528 41.3858 44.784 41.4152C45.3338 41.4456 45.3322 41.4749 45.4026 41.9586C45.1317 42.0701 44.8464 42.0397 44.5664 42.0397C35.4453 42.0424 26.3242 42.0413 17.2032 42.0408C16.9845 42.0408 16.7637 42.0616 16.6005 42.005C16.913 42.085 17.2826 42.0408 17.649 42.0408C26.7386 42.0434 35.8282 42.0408 44.9184 42.0504C45.3029 42.0514 45.7418 41.8866 46.0645 42.2685Z" fill="#030303"/>
<path d="M63.6646 26.5427C63.703 24.0718 63.5856 21.6009 63.6491 19.1299C63.6406 17.5203 63.6454 15.9097 63.6395 14.2995C63.6379 13.9315 63.6827 13.5513 63.4518 13.2238C63.184 12.9321 62.8304 12.9672 62.4886 12.9678C54.8982 12.9752 47.3078 12.948 39.7174 12.9827C38.6368 12.9278 28.1723 13.6713 32.1574 12.5091C32.3184 12.1193 32.6534 12.3369 32.8987 12.3219C36.5835 12.099 40.2747 12.4019 43.9547 12.2649C47.3974 12.1369 50.8374 12.1091 54.2742 12.1886C57.6827 12.2675 61.0912 12.2723 64.4998 12.3278C64.5179 16.299 64.5392 20.2697 64.5526 24.2409C64.5595 26.3054 64.5606 28.3694 64.5398 30.4339C64.5382 30.579 64.0944 32.9358 63.8427 31.8041C63.6731 31.0382 63.6619 26.7134 63.6646 26.5427Z" fill="#020303"/>
<path d="M15.032 12.8775C14.7659 12.8807 14.8379 13.0871 14.8166 13.237C14.1824 13.4653 14.488 12.8503 14.3088 12.6706C14.4139 12.3101 14.7126 12.3346 14.9936 12.3303C19.2646 12.2711 23.536 12.2007 27.7995 12.7586C25.5046 12.7586 23.2091 12.7506 20.9142 12.765C20.3883 12.7682 19.8534 12.6882 19.3355 12.8583C17.9008 12.8653 16.4662 12.8717 15.032 12.8775Z" fill="#C5C8C7"/>
<path d="M14.3083 12.6704C14.5296 12.8123 14.3931 13.2757 14.816 13.2368C14.8208 14.368 14.5605 17.9984 14.5653 19.1296C13.9499 18.6592 14.424 15.4283 14.3195 14.8229C14.2 14.1253 14.3024 13.3899 14.3083 12.6704Z" fill="#6F7070"/>
<path d="M25.1846 44.5069C27.6822 44.5037 30.1798 44.5005 32.6768 44.4979C32.895 44.4979 33.1179 44.4824 33.2859 44.6659C30.823 44.6611 28.36 44.6579 25.8971 44.6509C25.6523 44.6499 25.3936 44.6957 25.1846 44.5069Z" fill="#272828"/>
<path d="M59.9648 44.6446C59.6848 43.9667 59.0875 44.3027 58.6763 44.3267C57.072 44.4206 56.3072 43.3011 55.4651 42.2638C55.6288 42.0345 55.8763 41.9864 56.1286 41.9816C57.6902 41.9534 59.2518 41.9534 60.8134 41.9816C61.0656 41.9864 61.3136 42.0345 61.4763 42.2643C62.112 43.331 63.2699 43.5214 64.296 43.9241C64.4027 43.9662 64.599 43.7838 64.647 44.0318C64.6768 44.1865 64.656 44.3507 64.5142 44.4547C64.304 44.6094 64.0566 44.6403 63.8027 44.6403C62.5238 44.6414 61.2443 44.643 59.9648 44.6446Z" fill="#515252"/>
<path d="M61.4768 42.2648C59.473 42.2643 57.4693 42.2643 55.4656 42.2638C53.712 42.2627 51.9578 42.2611 50.2042 42.26C49.0826 42.2392 47.9616 42.2184 46.84 42.1976C46.9616 41.691 47.384 41.8734 47.6826 41.8664C48.8634 41.8387 50.04 41.988 51.224 41.964C51.8538 41.9512 52.4608 41.9048 53.04 41.6467C54.5338 41.4446 56.0352 41.6782 57.5312 41.571C58.9045 41.5331 60.2784 41.571 61.6517 41.5736C62.0778 41.5406 62.5072 41.532 62.9232 41.627C63.2106 41.6926 63.5573 41.7694 63.3626 42.2184C62.7338 42.2339 62.105 42.2494 61.4768 42.2648Z" fill="#BDC0BF"/>
<path d="M63.3622 42.2182C62.9312 41.463 62.1894 42.0694 61.6416 41.8256C61.3494 41.6096 60.9088 41.6203 60.6875 41.1408C61.7563 40.7899 62.879 41.2384 63.9152 40.8848C63.9323 39.4528 63.9494 38.0214 63.9664 36.5894C64.2992 35.7552 64.015 34.8726 64.1942 33.8955C64.6038 35.1062 64.5158 36.2363 64.4736 37.3622C64.3734 37.3888 64.312 37.2934 64.2235 37.2832C64.5259 38.4075 64.0534 39.5894 64.4774 40.7051C64.4864 40.8582 64.5024 41.0118 64.5035 41.1648C64.5131 42.3195 64.512 42.3195 63.3622 42.2182Z" fill="#9C9E9E"/>
<path d="M64.4774 40.7046C63.9835 40.9403 64.1371 40.5169 64.1344 40.3361C64.1195 39.2257 64.127 38.1153 64.127 36.9819C64.407 37.0011 64.3115 37.2945 64.4736 37.3622C64.4747 38.4763 64.4763 39.5905 64.4774 40.7046Z" fill="#D0D4D3"/>
<path d="M32.1098 46.3937C33.0965 46.6844 34.129 46.4284 35.1221 46.7046C33.0672 46.7046 31.0128 46.7046 28.8485 46.7046C29.4448 46.1878 30.096 46.5484 30.6458 46.3745C31.1338 46.3809 31.6218 46.3873 32.1098 46.3937Z" fill="#BBBBBB"/>
<path d="M46.0091 46.4048C46.6485 46.48 47.288 46.5552 48.1493 46.656C45.992 46.7989 44.0603 46.7808 42.1259 46.6187C42.9611 46.5488 43.7963 46.4784 44.6315 46.4085C45.0907 46.4074 45.5499 46.4064 46.0091 46.4048Z" fill="#E7E8E8"/>
<path d="M39.4176 45.7953C39.1408 45.7702 38.7856 45.8246 38.7568 45.4406C38.7258 45.023 39.0826 45.0534 39.3594 45.0635C39.6192 45.0731 39.9749 44.967 40.0026 45.3995C40.0309 45.8395 39.6848 45.7713 39.4176 45.7953Z" fill="#626262"/>
<path d="M53.0395 41.8889C51.7835 42.2297 50.5019 41.9465 49.2363 42.0473C48.4384 42.1108 47.6224 41.8895 46.84 42.1977C46.5819 42.2212 46.3232 42.2452 46.0651 42.2687C36.5051 42.258 26.9446 42.2473 17.3846 42.2367C16.7825 42.2361 16.1808 42.2367 15.576 42.1145C16.095 41.8153 16.6491 41.8697 17.1904 41.8692C26.312 41.8617 35.4342 41.8596 44.5558 41.8543C44.8688 41.8543 45.1819 41.8356 45.495 41.826C45.759 41.5871 46.0544 41.6276 46.3728 41.6953C47.2624 41.8847 48.175 41.6553 49.0678 41.8212C50.1312 41.8207 51.1952 41.8201 52.2587 41.8196C52.5382 41.6244 52.8 41.6265 53.0395 41.8889Z" fill="#9F9F9F"/>
<path d="M63.9152 40.8848C62.9664 41.3274 61.9403 40.9557 60.9424 41.1701C61.1846 41.3941 61.5526 41.4682 61.6422 41.8261C60.2694 41.8261 58.8966 41.8261 57.5238 41.8261C56.8848 41.68 56.2368 41.7957 55.5947 41.7584C55.3568 41.7445 55.0678 41.8117 54.9958 41.4778C54.9131 41.0949 55.2246 41.033 55.4806 40.9365C58.2918 40.9189 61.1035 40.9018 63.9152 40.8848Z" fill="#5A5C5B"/>
<path d="M55.4806 40.936C55.3702 41.1072 55.064 41.167 55.1499 41.4443C55.2352 41.72 55.496 41.64 55.7024 41.6651C56.3078 41.7382 56.9403 41.5104 57.5238 41.8256C56.0288 41.8464 54.5344 41.8672 53.0395 41.8886C52.7792 41.8656 52.519 41.8422 52.2582 41.8193C51.6123 41.5041 50.9254 41.7136 50.2587 41.6742C49.735 41.6432 49.352 41.504 49.2742 40.9243C51.343 40.928 53.4118 40.9318 55.4806 40.936Z" fill="#3A3B3B"/>
<path d="M49.0672 41.8209C47.8763 41.8225 46.6853 41.8241 45.4939 41.8252C45.0453 41.5132 44.5387 41.6972 44.0608 41.6758C43.6549 41.6577 43.4016 41.5633 43.4315 41.1068C45.3776 40.814 47.1573 41.8289 49.0672 41.8209Z" fill="#181818"/>
<path d="M40.2197 43.045C40.2149 43.6727 39.9216 43.9714 39.4325 43.9959C38.9035 44.0221 38.6427 43.6418 38.6405 43.1703C38.6384 42.7431 38.856 42.4109 39.3675 42.3885C39.9104 42.365 40.1312 42.6749 40.2197 43.045Z" fill="#646464"/>
<path d="M63.9376 12.8919C60.1781 12.8941 56.4186 12.8962 52.6586 12.8978C50.0245 12.8957 47.3904 12.8935 44.7562 12.8914C43.3557 12.8898 41.9546 12.8935 40.5541 12.8829C40.2538 12.8807 39.9237 12.9799 39.6725 12.7095C47.5002 12.7063 55.3274 12.7021 63.1552 12.7021C63.4261 12.7026 63.7285 12.6173 63.9376 12.8919Z" fill="#1B1B1B"/>
<path d="M39.5643 42.8814C39.7702 42.8665 40.0806 42.8718 40.0075 43.2201C39.9446 43.5198 39.6928 43.7582 39.327 43.7065C39.047 43.667 38.8832 43.4676 38.903 43.1908C38.9323 42.786 39.2203 42.8121 39.5643 42.8814Z" fill="#030303"/>
<path d="M66.4287 59.4808C66.449 60.1502 66.6986 60.8126 66.0282 61.4147C65.7882 61.6302 65.9301 62.3118 65.9605 62.7763C65.9978 63.3496 65.8661 63.6152 65.201 63.6029C62.7973 63.5597 60.3919 63.579 57.9877 63.5747C57.4202 63.4483 56.6911 63.6664 56.4666 62.8163C56.4175 62.6296 56.1647 62.5955 55.9791 62.5939C54.5109 62.5832 53.0394 62.4158 51.5765 62.6792C50.9535 62.78 50.3317 62.7816 49.7093 62.6782C48.9781 62.4552 48.2266 62.5821 47.4842 62.5496C47.0847 62.532 46.6693 62.6072 46.3183 62.3299C46.2037 61.3315 46.0111 60.3267 46.5359 59.3741C46.7829 59.2104 47.0656 59.2056 47.345 59.2051C50.6405 59.1976 53.9365 59.1928 57.2319 59.2072C57.4501 59.2083 57.6671 59.2259 57.8693 59.3166C58.3898 59.6952 58.2303 60.2648 58.2597 60.7731C58.3141 61.7315 58.4511 61.9016 59.3663 61.7816C60.1674 61.6771 60.9754 61.6365 61.7738 61.5C62.3226 61.4061 62.5946 61.1496 62.6037 60.5789C62.6101 60.1544 62.5487 59.6947 62.9215 59.356C64.1002 59.1309 65.2741 59.0398 66.4287 59.4808Z" fill="#202524"/>
<path d="M59.4752 28.2508C59.3893 28.8705 59.7152 28.959 60.2144 28.823C60.7189 29.0412 60.7109 29.5046 60.7285 29.9398C60.7589 30.6908 60.7402 31.4428 60.7402 32.1942C60.7408 40.5548 60.7418 48.9158 60.7381 57.2764C60.7381 57.806 60.7925 58.343 60.6181 58.8614C60.2133 59.4662 59.7952 59.3628 59.3696 58.886C59.1429 58.4161 59.1818 57.9094 59.1898 57.4134C59.265 52.8545 59.1898 48.295 59.1872 43.7361C59.1872 43.2993 59.1818 42.8609 59.2629 42.4289C59.3269 42.126 59.4165 41.83 59.4154 41.5121C59.4026 38.023 59.4442 34.534 59.3898 31.0476C59.3594 30.9457 59.3344 30.8412 59.3104 30.7377C59.2464 30.4502 59.2538 30.1324 58.9712 29.9361C58.6432 29.7649 58.2917 29.8284 57.9514 29.8278C53.1568 29.8241 48.3621 29.8236 43.5674 29.8284C43.1989 29.8289 42.809 29.7457 42.4869 30.015C42.2202 30.3238 42.2693 30.694 42.2826 31.0577C42.3189 34.2369 42.3013 37.415 42.297 40.5926C42.2469 41.0748 42.2517 41.5569 42.2976 42.039C42.3114 47.2812 42.3045 52.5233 42.3029 57.7654C42.3029 58.1697 42.3216 58.5793 42.1573 58.9649C42.0336 59.2166 41.8032 59.2833 41.552 59.3153C41.3045 59.3356 41.072 59.295 40.873 59.1324C40.7834 58.9521 40.8373 58.7825 40.912 58.6145C41.0224 58.151 40.9797 57.6801 40.9792 57.2124C40.9749 49.111 40.9637 41.0097 41.0026 32.9089C41.009 31.6198 40.8293 30.286 41.265 29.0134C41.44 28.9969 41.6144 28.9809 41.7893 28.9644C41.9578 28.8982 42.128 28.8534 42.3077 28.9217C42.7264 29.086 43.1685 29.0721 43.6037 29.0694C47.1088 29.0486 50.6133 29.1254 54.1173 29.0982C55.368 29.0758 56.6208 29.0833 57.872 29.0993C58.5269 29.1073 58.9914 29.0102 58.8864 28.1836C58.8538 27.926 58.8853 27.6113 59.233 27.4961C59.5397 27.6822 59.288 28.0369 59.4752 28.2508Z" fill="#939798"/>
<path d="M40.2842 32.0255C40.361 32.1354 40.4378 32.2458 40.5146 32.3556C41.1802 32.8719 41.1152 33.5412 40.912 34.2404C40.7568 34.6628 40.5242 35.0362 40.1957 35.3471C40.0485 35.4938 39.873 35.6095 39.7424 35.7743C39.5434 36.3887 39.6394 37.0207 39.6384 37.6415C39.6282 44.2559 39.6341 50.8703 39.6282 57.4847C39.6277 57.9487 39.7088 58.4292 39.465 58.8682C38.8768 59.1946 38.2885 59.6372 37.689 58.8842C37.5061 58.37 37.5632 57.8346 37.5632 57.306C37.5589 51.0596 37.5605 44.8127 37.5605 38.5663C37.5605 37.6607 37.577 36.7562 37.4218 35.8565C37.3589 35.4917 37.3072 35.1018 37.6608 34.8234C37.9877 34.5775 38.3685 34.6703 38.7371 34.6532C39.1765 34.6335 39.7397 34.5589 39.8608 34.1605C40.0133 33.6586 40.001 33.0394 39.4768 32.6298C39.3306 32.5156 39.16 32.4234 39.0581 32.2634C38.905 32.0223 39.0645 31.937 39.2677 31.8831C39.0768 31.7642 38.88 31.8372 38.7504 31.9514C37.9232 32.6783 36.9813 33.3583 37.3706 34.7002C37.1269 35.001 36.9557 34.7823 36.7749 34.6191C36.4043 34.0149 36.3109 33.3076 36.6373 32.7391C37.1301 31.8815 37.04 31.0058 37.0362 30.1103C37.0352 29.8031 36.9546 29.4858 37.1248 29.194C37.9301 29.0938 38.729 28.9162 39.5488 28.9989C39.8741 29.3306 39.7952 29.7572 39.7984 30.1535C39.8048 30.8228 39.9024 31.4586 40.2842 32.0255Z" fill="#8E8E8F"/>
<path d="M59.4753 28.2506C59.3851 28.0666 59.2955 27.8826 59.144 27.5727C59.1318 27.8244 59.1158 27.9567 59.12 28.0879C59.16 29.3519 59.1611 29.3562 57.8123 29.3503C56.6011 29.3455 55.3894 29.33 54.1782 29.3194C53.0272 29.2207 51.8742 29.2783 50.7222 29.2847C50.2102 29.2879 49.8438 29.1295 49.5083 28.7386C48.8795 28.0052 48.1969 27.321 47.4129 26.7428C47.1857 26.5754 46.8374 26.402 47.0912 26.0004C49.5035 25.9967 51.9158 25.9935 54.328 25.9898C55.9254 25.9876 57.4529 26.4383 58.9846 26.7908C59.6107 26.9343 59.4801 27.698 59.4753 28.2506Z" fill="#C0C6C9"/>
<path d="M46.5157 59.5013C46.4304 60.4267 46.7045 61.3765 46.3269 62.2827C46.0523 62.5605 45.6891 62.7429 45.5584 63.1685C45.3787 63.7552 44.7899 63.3643 44.4443 63.5797C41.7029 63.5829 38.9616 63.5883 36.2203 63.5851C35.9915 63.5851 35.5659 63.6523 35.6277 63.3344C35.8656 62.1152 35.0645 61.0997 35.0485 59.9435C35.0475 59.8501 35.0592 59.7573 35.0645 59.664C35.2539 59.3131 35.6 59.2427 35.9413 59.2229C37.1264 59.1541 38.3115 59.2773 39.4987 59.2363C40.2629 59.2096 40.3728 59.8032 40.3957 60.4064C40.4176 60.9787 40.4005 61.5733 41.1739 61.6869C42.1472 61.9952 43.1488 61.7819 44.136 61.8389C44.648 61.8683 44.6805 61.4395 44.7285 61.0571C44.8 60.4875 44.5824 59.8629 45.0427 59.3637C45.5563 59.1765 46.0613 59.072 46.5157 59.5013Z" fill="#242727"/>
<path d="M37.1253 29.1944C37.2747 30.3592 37.6629 31.515 36.8928 32.6494C36.4789 33.2584 36.7147 33.9758 36.9296 34.6366C37.1712 35.4595 37.2411 36.292 37.0987 37.1427C37.0107 37.6696 37.032 38.2046 37.032 38.7363C37.0315 44.9672 37.0357 51.1987 37.0256 57.4296C37.0245 58.0099 37.1451 58.636 36.6437 59.1118C36.2336 59.308 35.9211 59.2099 35.7125 58.8019C35.688 49.4067 35.7099 40.011 35.6987 30.6152C35.6981 30.2744 35.7653 29.9262 35.6315 29.5928C36.016 29.0371 36.5925 29.1976 37.1253 29.1944Z" fill="#CCCCCC"/>
<path d="M60.4304 58.9257C60.433 49.1849 60.4352 39.4441 60.44 29.7038C60.44 29.3876 60.456 29.074 60.2144 28.8228C60.6602 28.8788 61.1066 28.9348 61.5525 28.9908C62.1008 30.0217 61.753 31.1028 61.7328 32.1662C61.5392 32.8777 61.2917 33.5844 61.5344 34.3374C61.6704 34.6932 61.7541 35.058 61.7424 35.4393C61.5061 42.8265 61.705 50.2158 61.6325 57.6041C61.6277 58.0884 61.7594 58.6238 61.2922 59.0041C60.9904 59.1422 60.6992 59.1572 60.4304 58.9257Z" fill="#EEEFF0"/>
<path d="M63.24 29.0145C64.1685 28.9686 65.0629 29.0875 65.8832 29.5638C65.8917 38.9979 65.8848 48.4321 65.8853 57.8662C65.8853 58.1782 65.9147 58.4939 65.8197 58.7995C65.7637 58.9137 65.6741 58.9889 65.5525 59.0251C64.9141 59.0854 64.6571 58.6822 64.5365 58.1526C64.4315 57.6913 64.4437 57.2156 64.5205 56.7526C64.7013 55.6646 64.7285 54.5633 64.6293 53.479C64.5067 52.1334 64.5995 50.8033 64.6187 49.4625C64.6592 46.559 64.7189 43.655 64.5344 40.7462C64.4085 38.7601 64.6773 36.7569 64.6661 34.7595C65.1808 33.7259 65.0581 32.7841 64.2725 31.9243C64.0309 31.6598 63.9253 31.3115 63.9616 30.9665C64.0437 30.1862 63.8587 29.5259 63.24 29.0145Z" fill="#CCCCCC"/>
<path d="M47.0917 26C47.3915 26.6987 48.2325 26.8197 48.6155 27.4283C49.6277 29.0368 51.1168 29.4485 52.9093 29.2016C53.3157 29.1456 53.7781 29.0549 54.1781 29.3189C50.4112 29.3344 46.6448 29.352 42.8779 29.3611C42.5947 29.3616 42.216 29.4885 42.1632 29.0027C42.1819 28.1963 42.2021 27.3904 42.7515 26.7205C43.0395 26.1648 43.6384 26.3125 44.072 26.2373C45.0629 26.0661 46.0832 26.0683 47.0917 26Z" fill="#DEE0E3"/>
<path d="M41.2464 61.9196C40.3563 62.0204 40.0325 61.6513 40.0859 60.7393C40.16 59.4694 40.1029 59.4236 38.8667 59.4812C37.5995 59.5398 36.3141 59.238 35.0656 59.6641C35.0117 59.2481 35.5632 59.2284 35.5888 58.8646C35.6272 58.8988 35.6651 58.9324 35.7035 58.966C36.9488 59.1286 38.1941 59.2694 39.4448 59.0134C39.5776 58.9302 39.7243 58.8897 39.8784 58.87C40.0304 58.8513 40.1829 58.8497 40.3355 58.8593C40.544 58.8737 40.7317 58.9377 40.8789 59.095C41.0784 59.102 41.2784 59.1094 41.4779 59.1164C44.1589 58.9318 46.8437 59.0454 49.5269 59.0113C52.2101 59.031 54.8933 58.9788 57.5765 58.9654C58.7872 58.9596 59.9845 59.3457 61.1984 59.062C61.3051 59.0225 61.4149 58.9916 61.5264 58.9676C62.9333 59.063 64.3451 59.0017 65.7541 59.0566C65.8635 59.0172 65.9643 59.0337 66.0565 59.1052C66.1808 59.231 66.3051 59.3564 66.4293 59.4822C65.2565 59.4897 64.0837 59.4966 62.9109 59.5041C62.5013 59.8022 62.0213 59.799 61.5579 59.766C60.3557 59.6796 59.1221 60.0294 57.9509 59.5116C54.1392 59.5084 50.328 59.5057 46.5163 59.5025C46.0208 59.5041 45.5248 59.5052 45.0293 59.5068C44.6171 59.8049 44.1371 59.7457 43.6773 59.7404C42.9979 59.7324 42.7445 60.0636 42.7365 60.7153C42.7179 62.1302 42.7035 62.1297 41.2464 61.9196Z" fill="#717374"/>
<path d="M63.24 29.014C64.1205 29.1047 64.3157 29.6428 64.1994 30.4268C64.0986 31.1052 64.3013 31.6551 64.7893 32.1986C65.4293 32.9106 65.4261 33.7863 64.945 34.6327C64.7082 34.3138 64.7082 34.3138 64.9221 33.8439C64.5872 34.2956 64.3813 35.0508 63.7504 34.9826C63.1376 34.9164 63.657 34.1116 63.3072 33.7202C63.2794 33.6338 63.2096 33.8402 63.3072 33.7618C63.5514 34.4492 63.4096 35.2028 63.6693 35.8887C63.3098 36.3143 62.865 36.2167 62.4154 36.0972C62.0917 35.9255 62.0293 35.5388 61.7706 35.3132C61.6298 34.437 62.3168 34.2919 62.8901 34.0466C63.0629 34.3959 62.9045 34.7671 62.9744 35.0514C62.9744 34.7287 62.9754 34.3324 62.9706 33.9362C62.969 33.8108 62.9989 33.9671 62.9706 33.8471C62.9642 33.821 62.9093 33.9186 62.8586 33.9431C62.7738 33.9612 62.6997 33.9447 62.6314 33.894C62.3146 33.1602 62.7317 32.8775 63.3482 32.6935C63.6048 32.6167 63.9946 32.517 63.8442 32.1682C63.6746 31.7751 63.24 31.8231 62.9658 32.0487C62.3157 32.5842 61.7637 33.2135 61.5237 34.0551C61.4538 34.174 61.3818 34.2903 61.2122 34.2162C61.1114 33.5026 61.1189 32.806 61.5349 32.174C62.0725 31.5554 61.9253 30.7703 62.0522 30.0514C62.1152 29.694 62.0128 29.2951 62.3162 28.998C62.625 29.0039 62.9322 29.0092 63.24 29.014Z" fill="#898A8C"/>
<path d="M40.7104 34.2927C40.9563 33.6154 40.7925 32.9796 40.5146 32.3556C40.9034 32.2164 40.8645 31.8836 40.8656 31.5716C40.8677 30.945 40.856 30.3183 40.8693 29.6922C40.8752 29.4042 40.7563 29.017 41.2661 29.0127C41.2629 34.2996 41.2592 39.5866 41.2576 44.8735C41.256 49.1956 41.2629 53.5172 41.2474 57.8394C41.2464 58.1775 41.4581 58.6036 41.0123 58.8527C40.5787 58.6095 40.5968 58.1834 40.5962 57.7791C40.5888 50.3226 40.5941 42.866 40.5877 35.4095C40.5861 35.0292 40.7339 34.6719 40.7104 34.2927Z" fill="#C2C4C6"/>
<path d="M66.0555 59.1037C66.0134 59.0915 65.9712 59.0792 65.9296 59.0664C65.7995 59.0819 65.7318 59.012 65.6982 58.8963C65.6982 49.4749 65.696 40.0531 65.7046 30.6317C65.7051 30.2739 65.56 29.8744 65.8838 29.5635C66.1392 29.7805 66.0699 30.0797 66.0699 30.3528C66.0672 39.9368 66.0614 49.5203 66.0555 59.1037Z" fill="#B0B0B0"/>
<path d="M49.72 62.4619C50.3418 62.4619 50.9642 62.4624 51.5861 62.4624C52.4757 62.288 53.3754 62.3808 54.2677 62.4022C54.9781 62.4192 55.2485 63.0422 55.5434 63.5782C52.6592 63.5766 49.7744 63.5755 46.8901 63.5739C46.8213 62.5819 46.9701 62.3851 47.888 62.392C48.4981 62.3968 49.1152 62.2934 49.72 62.4619Z" fill="#5C5D5D"/>
<path d="M35.6315 29.5933C35.927 29.9175 35.7824 30.3133 35.783 30.6727C35.7963 40.077 35.799 49.4813 35.8032 58.8855C35.7638 58.9522 35.7062 58.9794 35.6294 58.9666C35.6086 58.9351 35.5947 58.9005 35.5878 58.8637C35.5792 50.1367 35.568 41.4098 35.5648 32.6829C35.5648 31.653 35.608 30.6231 35.6315 29.5933Z" fill="#929293"/>
<path d="M55.5435 63.578C55.2752 63.3417 54.7473 63.4542 54.7302 62.8553C54.719 62.475 54.3062 62.4814 53.9926 62.4788C53.1904 62.4729 52.3883 62.4675 51.5862 62.4617C53.2054 62.0873 54.8459 62.3721 56.4752 62.3022C56.6384 62.2953 56.8358 62.3892 56.8113 62.5524C56.6635 63.5321 57.5115 63.3337 57.9872 63.5742C57.1728 63.5758 56.3579 63.5769 55.5435 63.578Z" fill="#3F4140"/>
<path d="M49.72 62.4617C49.3174 62.4676 48.9062 62.5279 48.5131 62.4692C47.6064 62.3332 47.0219 62.6036 46.8902 63.5743C46.0752 63.5759 45.2598 63.578 44.4448 63.5796C44.911 63.3897 45.4859 63.3924 45.479 62.602C45.4758 62.2132 46.0054 62.3135 46.327 62.2825C47.455 62.3967 48.6054 62.0857 49.72 62.4617Z" fill="#3F4343"/>
<path d="M62.3173 28.9987C62.4154 29.7961 62.0949 30.5715 62.2293 31.3859C62.2911 31.7582 61.8415 31.9699 61.5354 32.1747C61.5413 31.1134 61.5471 30.0521 61.5525 28.9907C61.8074 28.9934 62.0623 28.9961 62.3173 28.9987Z" fill="#B9BBBD"/>
<path d="M40.2843 32.0254C39.5083 31.7225 39.5942 31.0297 39.5632 30.4003C39.5398 29.9342 39.5531 29.4665 39.5499 28.9998C40.1195 28.8937 40.3392 29.1299 40.3125 29.7043C40.2763 30.4766 40.2912 31.2515 40.2843 32.0254Z" fill="#D0D0D1"/>
<path d="M42.752 26.7212C42.5557 27.4817 42.36 28.2423 42.1637 29.0033C42.0389 28.9905 41.9147 28.9772 41.7904 28.9639C42.0587 28.6529 41.9483 28.2636 42.0197 27.9116C42.1157 27.438 42.0352 26.8241 42.752 26.7212Z" fill="#C2C4C6"/>
<path d="M57.9504 59.5099C59.6038 59.5072 61.2566 59.5051 62.9099 59.5024C62.8992 59.6886 62.8816 59.8747 62.879 60.0608C62.8598 61.5803 62.8662 61.6144 61.4123 61.8496C60.4982 61.9974 59.5638 62.0208 58.639 62.1056C58.1654 62.1488 57.9584 61.9579 57.9718 61.4678C57.9904 60.816 57.96 60.1627 57.9504 59.5099Z" fill="#4D4F50"/>
<path d="M59.5189 42.4014C59.5211 47.8899 59.5232 53.3785 59.5253 58.867C59.4229 59.4131 59.0021 59.1486 58.7195 59.1545C58.4619 59.1598 58.3915 58.9006 58.3477 58.6814C58.2795 58.3374 58.3541 57.9982 58.3909 57.6558C58.6693 55.0451 58.8965 52.4313 58.8475 49.8019C58.8427 49.5358 58.9397 49.2361 58.6571 48.9838C57.624 50.6115 55.6997 51.3507 54.7307 53.0323C53.1205 53.2606 51.5013 53.1395 49.8859 53.1534C49.2325 53.1593 48.5781 53.1433 47.9243 53.1502C47.4992 53.1545 47.1813 53.2851 47.2357 53.8003C47.2603 53.8963 47.2768 53.9939 47.2933 54.0905C47.3536 54.515 47.4747 54.9289 47.5232 55.3555C47.5499 55.5385 47.6133 55.7129 47.6528 55.8926C47.736 56.3529 47.9755 56.7625 48.0859 57.2142C48.1515 57.4622 48.2181 57.7097 48.2427 57.9667C48.256 58.2174 48.2507 58.4675 48.2635 58.7171C48.2789 59.011 48.176 59.1913 47.8395 59.1806C45.8784 59.1161 43.912 59.3097 41.9536 59.075C41.9611 53.7497 41.9685 48.4238 41.9776 43.0985C41.9781 42.723 41.9947 42.3475 42.0032 41.9721C42.1995 41.5337 42.3019 41.0953 42.0059 40.6558C42.0059 37.3955 42.0064 34.1358 42.0064 30.8756C42.3349 30.4558 42.8048 30.443 43.2779 30.4238C43.6325 30.4094 44.0096 30.4836 44.408 30.2212C43.6075 29.754 42.6997 30.3001 42.0165 29.7422C42.2123 29.3593 42.5685 29.5316 42.8485 29.531C48.0917 29.515 53.3349 29.5097 58.5787 29.5161C58.8923 29.5166 59.2779 29.3529 59.5051 29.7481C59.0768 30.1033 58.56 30.0324 58.0651 30.0329C54.3381 30.0382 50.6107 30.034 46.8837 30.0398C46.4843 30.0404 46.0725 29.9678 45.5739 30.1998C46.0224 30.475 46.4443 30.3924 46.8357 30.3865C49.5595 30.3465 52.2827 30.3865 55.0059 30.4009C55.4603 30.4036 55.9573 30.3182 56.304 30.7534C56.0971 31.243 55.4576 30.994 55.2245 31.4142C55.088 31.6761 55.0853 31.9598 55.0853 32.242C55.0827 35.0628 55.0757 37.8841 55.0885 40.7049C55.0933 41.7417 55.1467 41.7774 56.2053 41.8697C56.5835 41.9193 56.9616 41.8489 57.3387 41.859C57.8891 41.7556 57.8875 41.2889 57.8848 40.9081C57.8683 38.5465 58.0224 36.1817 57.8021 33.8238C57.7493 33.2569 57.9643 32.7177 57.9013 32.1545C57.8645 31.8233 57.9611 31.4382 57.4784 31.3476C57.1675 31.3129 56.8475 31.3268 56.5563 31.1817C56.4603 31.1241 56.4016 31.0398 56.3781 30.9305C56.3621 30.6318 56.4256 30.2276 56.7451 30.2969C57.656 30.4932 58.6341 30.1934 59.496 30.6841L59.4949 30.6835C59.6571 30.9779 59.5797 31.298 59.5803 31.6051C59.5867 34.8931 59.5856 38.1811 59.5813 41.4691C59.5808 41.7811 59.6368 42.0979 59.5189 42.4014Z" fill="#1E2324"/>
<path d="M54.7846 52.9205C55.184 51.6843 56.0736 50.8811 57.1702 50.2875C57.7718 49.9621 58.0374 49.4101 58.3158 48.8491C58.4283 48.6219 58.5472 48.3589 58.8539 48.4181C59.2032 48.4853 59.1056 48.8048 59.1088 49.0363C59.1494 52.0347 59.0192 55.0229 58.5878 57.9941C58.5398 58.3259 58.4171 58.7312 58.6939 58.9781C58.9339 59.192 59.2811 59.1595 59.5254 58.8672C59.8134 59.0987 60.1067 59.2485 60.431 58.9259C60.6731 58.9253 60.9147 58.9248 61.1568 58.9237C61.2502 58.9584 61.3616 58.9723 61.3622 59.1093C61.2219 59.2683 61.0326 59.2651 60.8454 59.2651C57.071 59.2624 53.2971 59.2587 49.5227 59.2555C49.4672 59.1632 49.4699 59.0725 49.5286 58.9829C50.056 58.4869 50.6875 58.6603 51.2928 58.728C51.6587 58.7685 52.0171 58.9227 52.3755 58.7184C52.5456 58.5888 52.6603 58.4075 52.8038 58.2539C53.1659 57.9808 53.4891 57.6843 53.4603 57.1723C53.4902 56.9515 53.5574 56.744 53.6763 56.5547C53.727 56.4805 53.791 56.4197 53.8651 56.3701C54.2379 56.1792 54.5174 56.5125 54.8507 56.5461C55.5312 56.4469 56.0214 56.1093 56.1894 55.4187C56.3766 54.6507 55.936 54.0917 55.1574 54.2021C54.5099 54.2939 54.3611 54.0587 54.456 53.4955C54.5072 53.2709 54.6166 53.0789 54.7846 52.9205Z" fill="#363738"/>
<path d="M40.7104 34.2925C41.0005 34.5821 40.8602 34.9474 40.8608 35.2754C40.8693 42.7351 40.8672 50.1943 40.8688 57.6541C40.8688 58.0583 40.8117 58.4717 41.0112 58.853C40.9669 58.933 40.9226 59.0136 40.8784 59.0941C40.6933 59.0786 40.5077 59.0637 40.3221 59.0482C40.0133 58.7575 40.0293 58.3714 40.0293 57.9981C40.0261 50.6152 40.0229 43.2328 40.0288 35.8498C40.0288 35.629 40.088 35.4162 40.0954 35.1976C40.3002 34.8952 40.5056 34.5938 40.7104 34.2925Z" fill="#F5F7F5"/>
<path d="M59.4955 30.6857C58.6416 30.5972 57.776 30.8548 56.9216 30.499C56.4075 30.2846 56.5323 30.787 56.4875 31.0574C55.928 31.4697 55.3643 31.4329 54.7974 31.0734C55.151 30.6425 55.7094 31.0654 56.2187 30.6857C54.1398 30.6857 52.1851 30.6857 50.2304 30.6857C48.7312 30.6857 47.232 30.6878 45.7328 30.6857C45.3883 30.6852 45.0022 30.7332 45.0192 30.1977C45.0363 29.6516 45.4486 29.7545 45.7739 29.754C50.3504 29.7492 54.927 29.7502 59.504 29.7497C59.5014 30.0617 59.4982 30.3737 59.4955 30.6857Z" fill="#2F3435"/>
<path d="M42.0155 29.7438C42.6992 29.7448 43.3829 29.739 44.0667 29.7502C44.3904 29.7555 44.7995 29.651 44.8155 30.1902C44.8336 30.7944 44.3845 30.6803 44.0299 30.6867C43.3499 30.699 42.6635 30.6291 42.0059 30.8766C42.0091 30.499 42.0123 30.1214 42.0155 29.7438Z" fill="#2F3435"/>
<path d="M59.5189 42.4013C59.5109 38.4957 59.5024 34.5907 59.4944 30.6851C59.6704 30.8605 59.6384 31.0861 59.6384 31.3011C59.64 34.7907 59.6421 38.2797 59.6352 41.7693C59.6352 41.9795 59.5595 42.1901 59.5189 42.4013Z" fill="#2F3435"/>
<path d="M49.5248 59.0754C49.5243 59.1356 49.5232 59.1954 49.5222 59.2556C47.016 59.253 44.5099 59.2514 42.0043 59.246C41.8214 59.2455 41.624 59.2754 41.4779 59.1148C41.6368 59.102 41.7952 59.0887 41.9536 59.0759C43.9755 59.0759 45.9974 59.0759 48.1083 59.0759C47.8923 58.6199 47.9819 58.1975 48.0166 57.7757C48.4192 57.6674 48.5051 58.0066 48.6694 58.2349C48.7638 58.4386 48.8422 58.6546 49.0534 58.7767C49.2134 58.8717 49.4064 58.9148 49.5248 59.0754Z" fill="#2F3435"/>
<path d="M42.0054 40.6567C42.6416 41.0967 42.3734 41.5351 42.0027 41.973C42.0038 41.5341 42.0043 41.0951 42.0054 40.6567Z" fill="#2F3435"/>
<path d="M36.5387 59.0697C36.7979 58.7086 36.7339 58.2926 36.7339 57.8894C36.7355 51.2553 36.7264 44.6217 36.7446 37.9876C36.7478 36.8708 36.8646 35.754 36.9291 34.6372C37.0528 34.6388 37.1803 34.8905 37.3008 34.6324C37.6587 34.1774 37.9174 34.2276 38.0768 34.7844C37.8235 34.9316 37.5424 34.9774 37.6432 35.4468C38.055 37.3556 37.8416 39.2985 37.8502 41.227C37.8763 47.1294 37.8603 53.0318 37.8608 58.9342C37.4363 59.1321 36.9963 59.187 36.5387 59.0697Z" fill="#AAAAAC"/>
<path d="M40.0955 35.1973C40.4464 35.4949 40.2917 35.8986 40.2923 36.2533C40.3088 43.8517 40.3141 51.4501 40.3221 59.0479C40.1979 59.0463 40.0741 59.0447 39.9499 59.0431C39.5755 58.7642 39.5573 58.3589 39.5568 57.945C39.5541 51.1023 39.5381 44.2591 39.5819 37.417C39.5861 36.7583 39.4043 36.0485 39.7584 35.4074C39.8709 35.337 39.9835 35.2671 40.0955 35.1973Z" fill="#D0D2D1"/>
<path d="M39.7584 35.4072C39.7552 42.6072 39.7546 49.8078 39.7434 57.0078C39.7424 57.6968 39.7594 58.3768 39.9498 59.043C39.8256 59.0531 39.7008 59.0632 39.5765 59.0734C39.457 59.0707 39.3941 59.0046 39.3712 58.892C39.3637 51.2584 39.3626 43.6254 39.3301 35.9923C39.3285 35.5992 39.4944 35.5123 39.7584 35.4072Z" fill="#B1B3B3"/>
<path d="M38.0773 34.7842C37.8704 34.4695 37.6053 34.4514 37.3013 34.6322C36.5381 33.7431 37.2416 33.0525 37.7493 32.5218C38.2555 31.9922 38.8848 31.0557 39.832 32.0557C39.6347 32.3586 39.3851 31.8999 39.1883 32.1005C39.8411 32.5453 40.6107 34.0845 40.2267 34.3431C39.6475 34.7319 38.9125 35.2573 38.0773 34.7842Z" fill="#D4D8D9"/>
<path d="M39.3717 58.8922C39.44 58.9525 39.5083 59.0133 39.5766 59.0735C38.2843 59.4442 36.9824 59.3221 35.6811 59.1376C35.6565 59.1338 35.6464 59.0261 35.6299 58.9669C35.688 58.9397 35.7456 58.913 35.8038 58.8858C36.0491 58.9472 36.2939 59.0085 36.5392 59.0698C36.9872 59.0954 37.4016 58.7919 37.8619 58.9343C38.3771 59.3567 38.8635 58.7301 39.3717 58.8922Z" fill="#404244"/>
<path d="M41.2463 61.9194C41.4335 61.9135 41.6234 61.8863 41.8085 61.9055C42.4469 61.9717 42.6853 61.7098 42.5114 61.0874C42.4863 60.9973 42.4335 60.913 42.4197 60.8218C42.281 59.9135 42.6218 59.5018 43.5295 59.4911C44.0293 59.4853 44.529 59.4997 45.0293 59.505C45.0229 60.1274 45.0293 60.7503 45.0069 61.3717C44.9861 61.953 44.7999 62.3167 44.0842 62.1482C43.1551 61.9295 42.1669 62.3317 41.2463 61.9194Z" fill="#3F4343"/>
<path d="M61.3616 59.1099C61.2933 59.0481 61.2245 58.9862 61.1562 58.9243C61.5147 58.6326 61.3675 58.2278 61.3675 57.8721C61.376 50.8993 61.377 43.927 61.3712 36.9542C61.3706 36.0406 61.6992 35.1046 61.2128 34.2177C61.2795 34.1686 61.3461 34.1201 61.4123 34.0715C61.8864 34.3494 62.2427 33.8102 62.6875 33.8865C62.7477 33.8838 62.808 33.879 62.8682 33.8721C62.9525 33.9526 62.9488 34.0289 62.8565 34.1003C62.4672 34.3153 62.3594 34.9046 61.8016 34.8955C61.84 35.0033 61.8784 35.1115 61.9163 35.2193C62.0203 35.4518 62.0448 35.6918 62.0443 35.9494C62.0256 43.1894 62.0357 50.4289 62.0267 57.6689C62.0261 58.1035 62.0939 58.5499 61.888 58.9649C61.8219 59.0843 61.7205 59.135 61.5856 59.1169C61.5115 59.1142 61.4368 59.1121 61.3616 59.1099Z" fill="#CBCCCC"/>
<path d="M63.6635 35.8233C62.9947 35.6041 63.3323 35.0436 63.2784 34.6297C63.2293 34.2526 63.2683 33.8644 63.2683 33.2329C63.768 33.8745 63.5013 34.4148 63.7413 34.9108C64.176 34.5396 64.568 34.1593 64.8491 33.6761C65.1616 33.9966 64.5787 34.3449 64.9456 34.6329C64.9413 36.1764 64.9323 37.7204 64.9328 39.2638C64.9344 42.7892 65.0341 46.3182 64.8949 49.8377C64.8453 51.0884 64.856 52.3156 64.9445 53.554C65.048 54.994 64.8219 56.4212 64.7589 57.8548C64.7333 58.4382 64.9445 58.826 65.5531 58.931C64.9029 59.4414 64.2987 59.1454 63.6949 58.826C63.4629 58.3566 63.5232 57.8505 63.5189 57.3556C63.4805 53.2105 63.5899 49.0654 63.4517 44.9214C63.8917 42.7614 63.8032 40.562 63.9269 38.379C63.9925 37.5118 63.8885 36.6612 63.6635 35.8233Z" fill="#B2B2B3"/>
<path d="M63.8187 58.9081C64.3985 58.7828 64.9686 59.4084 65.5531 58.9311C65.6065 58.9401 65.6544 58.9284 65.6976 58.8964C65.775 58.9529 65.8518 59.01 65.9291 59.0665C65.5456 59.4873 65.0475 59.2575 64.6166 59.2505C63.6064 59.2345 62.5824 59.4377 61.5862 59.1161C61.6395 59.1028 61.6918 59.0879 61.744 59.0713C61.9494 58.8665 62.1798 58.7129 62.4838 58.7124C62.9318 58.7561 63.3745 58.8388 63.8187 58.9081Z" fill="#363738"/>
<path d="M62.48 58.8667C62.2346 58.935 61.9893 59.0038 61.7445 59.072C61.7477 51.6768 61.753 44.2822 61.7514 36.887C61.7514 36.3232 61.7818 35.767 61.9168 35.2192C62.2864 35.3414 62.3168 35.6486 62.3242 35.968C62.6464 36.7382 62.1941 37.6006 62.6128 38.3606C62.5365 40.1851 62.6048 42.0048 62.7589 43.823C62.7877 44.1606 62.7642 44.5035 62.7098 44.8416C62.536 46.0235 62.6234 47.2123 62.6186 48.3974C62.6069 51.52 62.6144 54.6432 62.6133 57.7659C62.6133 58.1366 62.6773 58.5184 62.48 58.8667Z" fill="#ACADAD"/>
<path d="M62.5115 38.2419C61.912 38.1496 62.1302 37.6734 62.1376 37.3507C62.1483 36.8883 62.2576 36.4286 62.3243 35.9678C62.7595 35.819 63.2411 36.0974 63.663 35.8232C64.471 36.4766 64.192 37.372 64.1936 38.2046C64.0384 38.3459 63.88 38.4824 63.6966 38.5864C63.4336 38.9171 63.527 39.308 63.5227 39.6744C63.5056 41.1454 63.5382 42.6163 63.5019 44.0872C63.495 44.3603 63.4912 44.7614 63.1568 44.7624C62.823 44.7635 62.8256 44.3619 62.8187 44.0931C62.783 42.6851 62.8134 41.2766 62.7995 39.868C62.7958 39.4638 62.856 39.0536 62.7174 38.6595C62.6582 38.516 62.5995 38.372 62.5115 38.2419Z" fill="#484A49"/>
<path d="M62.688 33.8857C62.2618 33.9406 61.9978 35.1166 61.4122 34.0707C61.4426 33.4206 62.4634 31.8713 63.0138 31.714C63.4938 31.5769 64.0869 31.6361 64.2352 32.1075C64.3658 32.5246 63.9024 32.9193 63.4448 32.9252C62.7232 32.9337 62.5888 33.2899 62.688 33.8857Z" fill="#E6E7E9"/>
<path d="M62.8571 34.0996C62.8608 34.0238 62.8651 33.9475 62.8688 33.8713C62.8832 33.7491 62.8976 33.627 62.9115 33.5054C62.9376 33.5054 62.9637 33.5049 62.9904 33.5049C62.9904 34.2179 62.9904 34.931 62.9904 35.6436C62.9461 35.6446 62.9013 35.6457 62.8571 35.6467C62.8571 35.131 62.8571 34.6153 62.8571 34.0996Z" fill="#E5E7E9"/>
<path d="M44.7963 31.4414C44.7008 31.1896 44.7403 31.0446 45.0566 31.0547C45.6 31.0723 46.144 31.0702 46.688 31.0766C46.847 31.3304 46.8352 31.6131 46.8304 31.8952C46.7808 34.8371 46.8251 37.7795 46.8048 40.7214C46.8016 41.2147 46.8806 41.7336 46.5088 42.1544C45.9376 42.0846 45.328 42.3779 44.7931 41.971C44.6496 38.9251 44.7648 35.8776 44.735 32.8312C44.7307 32.3688 44.6598 31.8995 44.7963 31.4414Z" fill="#5E6464"/>
<path d="M54.7973 31.0736C55.3605 31.0683 55.9243 31.063 56.4875 31.0576L56.48 31.0678C56.7339 31.3398 56.776 31.6806 56.7781 32.0278C56.7931 35.0555 56.8005 38.0832 56.7733 41.111C56.7696 41.5243 56.7109 41.9286 56.2955 42.1622C56.2331 42.1632 56.1707 42.1653 56.1088 42.1659C54.7867 42.176 54.7856 42.176 54.7867 40.8853C54.7893 37.6149 54.7936 34.344 54.7973 31.0736Z" fill="#545857"/>
<path d="M52.4976 42.2035C53.0949 42.1507 52.9392 42.6003 52.9435 42.9064C52.9579 43.9251 52.9488 44.9437 53.0528 45.9661C53.4288 44.7448 53.0571 43.452 53.3568 42.2301C53.4608 42.2291 53.5648 42.2275 53.6688 42.2264C53.6688 43.1907 53.6581 44.1549 53.6736 45.1187C53.6805 45.5437 53.5632 45.916 54.2011 46.2077C54.7483 46.4579 54.3504 47.2067 53.9979 47.54C53.7691 47.756 53.5856 47.9112 53.6496 48.1965C53.8229 48.9731 53.1675 49.5725 53.2379 50.3421C53.2736 50.732 52.7813 50.724 52.5131 50.7736C52.1429 50.8419 52.184 50.4925 52.1723 50.2525C52.1573 49.9395 52.1589 49.6259 52.1536 49.3128C52.7189 49.4253 52.2571 49.9309 52.4613 50.1507C52.4757 49.6541 52.3403 49.1453 52.3451 48.6253C52.3515 47.9176 52.0384 47.5869 51.3083 47.7043C51.0763 47.7416 50.8352 47.6792 50.5312 47.7379C52.288 47.692 52.6053 48.0141 52.1531 49.3128C51.7531 49.2019 52.2069 48.564 51.6992 48.5475C51.0507 48.5261 50.3659 48.4285 49.7637 48.5997C49.3829 48.708 49.4693 49.3709 49.3909 49.7736C49.2997 50.2413 49.3568 50.8077 48.7259 50.748C48.0741 50.6861 48.4757 50.0691 48.3765 49.7091C48.3451 49.5944 48.3728 49.4627 48.3739 49.3389C48.9131 49.3549 48.5739 49.7741 48.6763 49.9912C48.7461 49.3896 48.4299 48.8243 48.56 48.0024C48.3883 48.5624 48.5317 48.9667 48.2453 49.2648C48.024 49.1667 48.0651 48.9656 48.0544 48.7832C48.024 48.2664 48.2485 47.667 47.4491 47.4488C47.2075 47.3832 47.2453 46.9613 47.2661 46.6782C47.5707 46.3896 47.9573 46.4024 48.3307 46.4109C49.8523 46.4472 51.376 46.3427 52.7349 46.4749C52.6955 46.4755 52.5307 46.4045 52.4101 46.2355C52.2021 44.8845 52.0656 43.5379 52.4976 42.2035Z" fill="#707475"/>
<path d="M46.5088 42.1552C46.5104 39.0134 46.5147 35.871 46.5104 32.7291C46.5099 32.1696 46.5387 31.6176 46.6885 31.0768C47.3413 30.9648 47.6341 31.2944 47.6357 31.9019C47.6443 35.0875 47.6405 38.2726 47.6411 41.4582C47.6411 42.3035 47.0304 42.1574 46.5088 42.1552Z" fill="#404546"/>
<path d="M56.2954 42.1619C56.5029 41.8243 56.4853 41.4493 56.4847 41.0744C56.4815 37.7389 56.481 34.4035 56.4799 31.0675C56.7935 31.0669 57.1077 31.0664 57.4213 31.0664C57.8229 31.4403 57.8906 31.9277 57.889 32.4387C57.8815 34.9923 57.9066 37.5459 57.8858 40.0989C57.8799 40.8136 57.8735 41.54 57.4218 42.1597C57.0463 42.1608 56.6709 42.1613 56.2954 42.1619Z" fill="#3F4342"/>
<path d="M48.6128 58.3552C48.4139 58.1622 48.215 57.9691 48.0155 57.776C47.9611 57.5819 47.9067 57.3878 47.8523 57.1931C47.9739 56.3579 48.4528 56.1046 49.1435 56.5856C49.4992 56.8336 49.7094 56.9003 49.9883 56.5275C50.2187 56.2198 50.5904 56.2272 50.9366 56.2171C51.4379 56.2027 51.9398 56.2246 52.4411 56.2038C53.5275 56.159 53.5275 56.1568 53.6496 57.184C53.792 57.8438 53.4022 58.1499 52.8688 58.3606C52.5974 58.528 52.3104 58.4203 52.0288 58.4096C51.1712 58.4715 50.3136 58.5883 49.4571 58.4043C49.175 58.3974 48.888 58.4726 48.6128 58.3552Z" fill="#471E05"/>
<path d="M57.4224 42.1599C57.7515 39.3647 57.5648 36.5577 57.6091 33.7561C57.6235 32.8548 57.6581 31.9508 57.4219 31.066C58 31.0207 58.1824 31.322 58.1808 31.8607C58.1707 34.9636 58.1733 38.0671 58.1787 41.17C58.1787 41.7055 58.0037 42.0815 57.4224 42.1599Z" fill="#2F3435"/>
<path d="M54.7846 52.9202C54.783 53.1101 54.8102 53.3069 54.6507 53.4573C54.496 53.4349 54.3467 53.3917 54.1958 53.3522C53.7947 53.2477 53.8171 53.2536 53.7328 53.628C53.5686 54.3549 52.9627 54.2125 52.4496 54.2472C51.8379 54.164 51.231 53.9544 50.6107 54.1965C50.3131 54.2514 50.0192 54.2653 49.7419 54.1138C49.4294 53.4109 48.7259 53.5234 48.1568 53.3586C47.5302 53.1485 47.3355 53.6626 47.048 54.0205C46.7355 52.9922 46.7979 52.8738 47.7408 52.8765C50.0886 52.884 52.4363 52.9048 54.7846 52.9202Z" fill="#545355"/>
<path d="M53.649 57.1842C53.1424 57.4055 53.3066 57.0642 53.3765 56.8439C53.5189 56.3927 53.4058 56.3234 52.937 56.4013C52.361 56.4967 51.7605 56.4338 51.1717 56.4605C50.7141 56.4813 50.1957 56.2754 49.9952 57.021C49.912 57.3309 49.4405 57.2903 49.1434 56.9853C48.576 56.4023 48.168 56.4759 47.8528 57.1933C47.7877 56.7426 47.3962 56.3906 47.4645 55.9005C47.5381 55.5378 47.512 55.117 48.1232 55.4775C48.4698 55.6818 48.9738 55.5559 49.2997 55.925C49.4469 56.0919 49.6389 55.9874 49.7994 55.8738C50.9013 55.0962 52.1328 55.4903 53.3098 55.5309C53.9738 55.5538 53.8256 56.1634 53.8176 56.6119C53.761 56.8029 53.705 56.9938 53.649 57.1842Z" fill="#7E4220"/>
<path d="M52.6102 46.2699C53.1424 46.2726 53.6907 46.1323 54.199 46.351C54.1979 46.4598 54.1968 46.5686 54.1958 46.6774C51.8859 46.6774 49.5755 46.6774 47.2656 46.6774C47.2832 46.5313 47.2998 46.2571 47.319 46.2566C48.224 46.2481 47.9952 45.5883 48.0016 45.0774C48.0112 44.3046 48.0166 43.5313 48.0016 42.759C47.9942 42.3627 48.0432 42.0678 48.551 42.1958C49.0896 42.8123 48.8374 43.5579 48.8502 44.2443C48.8854 46.1553 48.9168 46.2097 50.8534 46.2075C51.1622 46.207 51.472 46.2225 51.7808 46.1899C52.0742 46.0449 52.3462 46.1169 52.6102 46.2699Z" fill="#DBDEDF"/>
<path d="M51.7179 46.275C50.968 46.2617 50.2149 46.2009 49.4693 46.2489C48.7909 46.2926 48.5216 46.1187 48.5627 45.3822C48.6219 44.3235 48.5605 43.2579 48.5504 42.1955C49.024 42.1097 49.1552 42.3497 49.1467 42.779C49.1307 43.5587 49.1424 44.3385 49.3099 45.1257C49.3099 44.6393 49.2912 44.1518 49.3152 43.6665C49.3387 43.1907 49.1957 42.6894 49.5291 42.0601C49.8597 42.9875 49.6998 43.7806 49.7152 44.5497C49.7462 46.0702 49.7253 46.0697 51.2379 46.0942C51.4251 46.0974 51.6123 46.1198 51.7989 46.1331C51.8405 46.2195 51.8139 46.267 51.7179 46.275Z" fill="#707475"/>
<path d="M53.8171 56.6125C53.704 55.8221 53.2496 55.5763 52.4811 55.692C52.0229 55.7608 51.5456 55.7011 51.0768 55.6995C50.952 55.6989 50.8176 55.7293 50.7035 55.6941C50.0075 55.4808 50.048 56.4312 49.4395 56.4611C48.9275 56.4861 49.0368 55.2029 48.2731 55.9768C48.1765 56.0744 48.0432 55.9208 47.9925 55.8093C47.6949 55.1597 47.6427 55.8883 47.4645 55.9005C47.4139 55.7683 47.3627 55.636 47.312 55.5037C47.52 54.6435 48.2187 54.9309 48.6757 55.0461C49.2048 55.18 49.6459 55.1389 50.1136 54.9347C51.0747 54.8029 52.0384 54.8675 53.0011 54.8787C53.6133 54.8643 54.0581 55.0691 54.1344 55.7517C54.1893 56.0397 54.0576 56.2552 53.8635 56.4467C53.8501 56.5027 53.8352 56.5576 53.8171 56.6125Z" fill="#BD6329"/>
<path d="M49.8901 55.1375C49.6368 55.5834 49.3301 55.5695 48.9018 55.3402C48.3642 55.0522 47.7941 54.9957 47.3109 55.5029C47.2448 55.0735 47.1792 54.6437 47.113 54.2138C47.7269 53.745 48.4192 53.9423 49.0773 54.025C49.4453 54.0709 49.809 54.1162 50.1792 54.1167C50.5136 54.5791 50.0864 54.8261 49.8901 55.1375Z" fill="#F7C592"/>
<path d="M51.7179 46.2752C51.7648 46.2395 51.7915 46.192 51.7995 46.1334L51.807 46.1302C52.0091 44.8726 51.7467 43.5974 51.9483 42.3392C52.0811 42.0907 52.2966 42.176 52.4976 42.2038C52.6022 43.5574 52.383 44.92 52.6096 46.2699C52.3126 46.272 52.0155 46.2736 51.7179 46.2752Z" fill="#D7DADB"/>
<path d="M44.7962 31.4414C44.7952 34.9518 44.7941 38.4617 44.793 41.9715C44.5866 41.7699 44.6341 41.5091 44.6341 41.2627C44.632 38.2243 44.632 35.1859 44.6341 32.1475C44.6346 31.9022 44.5866 31.6409 44.7962 31.4414Z" fill="#2F3435"/>
<path d="M50.2832 54.2069C49.2267 54.4106 48.1696 54.1018 47.1131 54.2138C47.0912 54.1498 47.0699 54.0858 47.048 54.0218C46.8843 53.04 47.4091 52.9002 48.1968 53.0826C48.272 53.5013 48.495 53.7408 48.9462 53.7546C49.224 53.7632 49.5067 53.8 49.7387 53.9866C50.04 53.9936 50.3414 54 50.6432 54.0069C50.6987 54.0864 50.696 54.1658 50.6443 54.2458C50.5152 54.312 50.3931 54.3168 50.2832 54.2069Z" fill="#E9DFD6"/>
<path d="M48.2448 49.264C48.2395 48.7946 48.231 48.3253 48.2299 47.8554C48.2294 47.6704 48.2155 47.4448 48.48 47.4453C48.6651 47.4458 48.7339 47.616 48.7243 47.7813C48.6704 48.697 48.8859 49.6165 48.7216 50.592C48.32 50.1978 48.7488 49.665 48.3739 49.3376C48.335 49.3061 48.2923 49.281 48.2448 49.264Z" fill="#D8DCDD"/>
<path d="M51.9483 42.3389C51.9275 43.6034 52.1952 44.8786 51.807 46.1298C51.9008 44.8679 51.6326 43.5922 51.9483 42.3389Z" fill="#707475"/>
<path d="M52.5306 54.023C52.6858 54.0155 52.8442 54.0246 52.9962 53.9968C53.2208 53.9563 53.521 54.0358 53.5653 53.6667C53.6069 53.3227 53.3973 53.2064 53.0858 53.1376C53.6224 53.2774 54.3034 52.5568 54.6501 53.4576C54.6373 53.6699 54.624 53.8816 54.6058 54.1808C55.3445 53.7595 55.9728 53.7152 56.3466 54.5291C56.673 55.2406 56.2933 56.2304 55.5562 56.6027C55.3141 56.7248 55.0218 56.7478 54.7525 56.8166C54.7962 56.3899 53.7573 56.431 54.3066 55.7851C54.593 55.5894 55.1546 55.648 55.1216 55.1723C55.0917 54.7387 54.5152 55.0208 54.2869 54.7616C53.9866 54.4902 53.6149 54.4736 53.2378 54.4331C52.9594 54.4032 52.5706 54.4928 52.5306 54.023Z" fill="#C4BFC2"/>
<path d="M49.3141 58.194C50.2667 58.1914 51.2197 58.1887 52.1723 58.186C51.9051 58.73 52.4448 58.6756 52.6683 58.8554C52.2875 59.2746 51.832 59.0724 51.4075 58.9844C50.7669 58.8522 50.1413 58.81 49.5248 59.0756C49.3227 59.0596 49.1029 59.1199 48.9408 58.937C49.0795 58.697 49.2341 58.4644 49.3141 58.194Z" fill="#756B6C"/>
<path d="M52.6682 58.8554C52.3487 58.8591 51.9402 59.0922 51.7509 58.7151C51.617 58.4479 51.9887 58.3359 52.1722 58.186C52.4042 58.2447 52.6362 58.3028 52.8682 58.3615C52.8015 58.5258 52.7349 58.6906 52.6682 58.8554Z" fill="#CBC3CA"/>
<path d="M54.3973 55.9064C54.2101 56.3293 55.0693 56.3432 54.7525 56.8168C54.4176 56.7848 54.2565 56.3346 53.8618 56.4466C53.9119 56.2578 53.9616 56.0696 54.0112 55.8808C53.9194 55.6728 53.9269 55.5101 54.1984 55.4658C54.377 55.5618 54.5328 55.6685 54.3973 55.9064Z" fill="#7E4220"/>
<path d="M49.3141 58.1938C49.657 58.6764 49.5098 58.9127 48.9402 58.9373C48.5685 58.8909 48.5712 58.6338 48.6128 58.3549C48.8282 58.2226 49.056 58.1415 49.3141 58.1938Z" fill="#C4BFC2"/>
<path d="M62.8528 38.2378C63.2587 38.4629 63.0704 38.8511 63.0741 39.1605C63.0939 40.9637 63.0837 42.7669 63.2315 44.5706C63.2315 42.7311 63.2181 40.8917 63.2453 39.0527C63.2496 38.7615 62.9765 38.225 63.6635 38.249C63.9483 38.5546 63.9376 38.9418 63.904 39.3071C63.7387 41.1269 63.9755 42.9653 63.6432 44.7759C63.7915 45.3205 63.8245 45.8735 63.8235 46.4383C63.8133 50.5946 63.8187 54.7509 63.8192 58.9077C63.3579 59.3738 62.9259 58.9034 62.4805 58.8661C62.3035 58.5866 62.3051 58.2757 62.3056 57.9599C62.3088 53.8591 62.3072 49.7578 62.3136 45.657C62.3141 45.3567 62.2155 45.0207 62.5152 44.7839C62.8539 44.0346 62.6907 43.2517 62.6416 42.4853C62.5659 41.2991 62.6165 40.1146 62.6101 38.9295C62.608 38.6751 62.68 38.4367 62.8528 38.2378Z" fill="#8A8C8C"/>
<path d="M63.6432 44.7769C63.6501 42.6014 63.6565 40.4254 63.6635 38.2499C63.8405 38.235 64.0176 38.2195 64.1941 38.2046C64.2027 40.2675 64.0416 42.3209 63.8379 44.3721C63.8219 44.5326 63.7877 44.6803 63.6432 44.7769Z" fill="#DDDCDF"/>
<path d="M62.8528 38.2378C62.8602 40.2229 62.8704 42.2079 62.8709 44.193C62.8709 44.4474 62.9744 44.7941 62.5146 44.7845C62.4869 42.9306 62.2314 41.0842 62.3306 39.2261C62.3488 38.8895 62.2858 38.5397 62.512 38.2421C62.625 38.2405 62.7392 38.2394 62.8528 38.2378Z" fill="#E3E5E6"/>
<path d="M52.1531 49.3126C52.0816 48.7766 52.3952 48.0315 51.5621 47.8752C50.9968 47.7691 50.3952 47.855 49.808 47.7707C50.6096 47.3835 51.4827 47.7291 52.2965 47.4731C52.4752 47.4171 52.5109 47.6587 52.512 47.8112C52.5168 48.7147 52.5141 49.6182 52.5141 50.5654C52.112 50.2006 52.6117 49.616 52.1531 49.3126Z" fill="#E6E9EA"/>
<path d="M54.217 55.4785C54.1488 55.6124 54.0805 55.7468 54.0117 55.8806C53.8944 55.423 53.7744 54.9676 53.1312 55.111C52.5856 54.7057 52.0117 54.3916 51.2954 54.4326C51.057 54.4465 50.8064 54.406 50.6421 54.183C50.6442 54.1238 50.6448 54.0646 50.6432 54.0054C51.2757 53.6364 51.9024 53.9558 52.5312 54.0225C52.904 54.343 53.3504 54.1798 53.76 54.1814C54.2181 54.1836 54.4496 54.3414 54.4378 54.8086C54.6042 55.1116 54.464 55.3126 54.217 55.4785Z" fill="#F0C39A"/>
<path d="M49.7387 53.9855C49.3979 53.961 49.0523 53.8868 48.7179 53.9215C47.9189 54.0047 47.9504 53.6218 48.1968 53.082C48.4677 53.1327 48.7461 53.2506 49.008 53.2207C49.6288 53.1503 49.7595 53.4783 49.7387 53.9855Z" fill="#AFA9A8"/>
<path d="M50.6421 54.1826C51.2219 54.2744 51.8235 54.0818 52.3936 54.333C52.7547 54.4919 53.0347 54.7095 53.1312 55.1106C52.0512 55.1197 50.9707 55.1282 49.8901 55.1373C49.8411 54.7512 49.9136 54.4162 50.2827 54.2066C50.4027 54.1986 50.5221 54.1906 50.6421 54.1826Z" fill="#F99240"/>
<path d="M54.217 55.4784C54.2906 55.2555 54.3642 55.032 54.4378 54.8091C54.8448 54.6907 55.4069 54.4027 55.4805 55.0678C55.5525 55.7147 55.0074 55.9408 54.3973 55.9062C54.337 55.7638 54.2768 55.6214 54.217 55.4784Z" fill="#3A3837"/>
<path d="M37.0442 49.4463C39.0789 50.0186 40.0474 51.1119 40.1898 53.4084C40.497 58.346 40.6938 63.2906 40.9552 68.2314C40.9994 69.0719 40.1632 69.1716 39.7882 69.3711C39.2314 69.6676 38.321 69.85 37.7546 69.1044C37.5397 68.8218 37.2944 68.833 37.016 68.833C32.0672 68.8308 27.1184 68.8282 22.169 68.8282C21.8954 68.8282 21.6554 68.825 21.4112 69.0703C20.6885 69.7935 19.5018 69.7108 18.832 68.9476C18.2314 68.1743 18.5872 67.2751 18.496 66.434C18.529 66.153 18.5232 65.8666 18.5861 65.5887C18.7946 64.882 18.6933 64.161 18.68 63.4436C18.7802 60.7407 18.993 58.0436 19.0714 55.3407C19.065 54.897 19.0512 54.4522 19.1109 54.0106C19.2469 53.3962 19.2512 52.737 19.704 52.2276L19.7456 52.2532C19.928 52.1962 20.0405 52.3092 20.12 52.4372C20.4501 52.969 20.7861 52.834 21.1509 52.4746C21.456 52.1743 21.8138 51.9359 22.1568 51.6783C22.3802 51.5423 22.6106 51.4826 22.8597 51.609C23.2389 52.0986 22.8698 52.6564 23.0053 53.169C22.9866 55.2314 22.9941 57.2932 22.9968 59.3546C22.9984 61.169 22.977 62.9839 23.0224 64.7988C23.0522 65.9988 23.0826 66.0436 24.3216 66.0452C27.3573 66.05 30.393 66.0479 33.4288 66.0458C34.1493 66.0452 34.8677 66.0559 35.5824 66.1636C36.065 66.2362 36.4666 66.154 36.5344 65.5599C36.5802 64.6196 36.5013 63.6794 36.552 62.7402C36.537 59.8575 36.5008 56.9748 36.5626 54.0938C36.5493 53.8138 36.5424 53.5327 36.5706 53.2527C36.5733 52.9391 36.5621 52.6244 36.5797 52.3114C36.5813 52.065 36.5786 51.818 36.5877 51.5716C36.5861 51.4303 36.5893 51.289 36.5936 51.1482C36.5952 50.9663 36.6005 50.7839 36.6037 50.602C36.6016 50.4676 36.6064 50.3338 36.6138 50.1994C36.6181 50.0644 36.6362 49.9322 36.6736 49.802C36.7312 49.6138 36.8656 49.5071 37.0442 49.4463Z" fill="#313536"/>
<path d="M18.8042 65.6652C18.7957 65.8908 18.7877 66.1159 18.7791 66.3415C18.0431 65.4279 17.5274 64.4161 17.4239 63.2295C17.3642 62.5425 17.2431 61.8759 16.9055 61.2647C16.9354 61.1484 16.9354 61.0119 16.9994 60.9196C17.5541 60.1223 17.5573 60.1249 16.7375 59.7281C17.1925 59.4535 17.9018 59.5228 18.0106 58.7825C18.0799 58.5809 18.145 58.3793 18.1749 58.1676C18.1925 58.0391 18.2143 57.9116 18.2314 57.7841C18.265 57.4135 18.0005 57.3591 17.7471 57.3911C15.5903 57.6615 13.4074 57.398 11.2565 57.6961C10.1637 57.8476 10.1461 57.9137 10.2143 58.998C10.2287 59.2279 10.0095 59.6033 10.4687 59.6961C11.0405 60.0327 11.537 59.5521 12.0762 59.5532C12.2709 59.5623 12.4533 59.5996 12.5791 59.7676C12.4053 59.8892 12.0831 60.0097 12.0826 60.1329C12.0767 60.9057 11.6431 61.0567 11.0511 60.8401C10.4218 60.6097 9.61701 60.5415 9.73008 59.4796C9.83834 58.4604 9.50554 57.3671 10.3535 56.5073C10.6063 56.4247 10.8533 56.4935 11.089 56.5639C11.5781 56.7095 11.7914 56.4924 11.849 56.0353C11.9738 55.6711 11.9946 55.2487 12.4794 55.0753C12.0602 54.7249 11.577 54.5121 11.6319 53.9276C12.169 53.6055 12.1349 54.2695 12.5663 54.5788C12.2847 51.8001 12.3743 49.2161 12.3722 46.6327C12.3157 46.0513 12.5653 45.4385 12.1909 44.8903C12.2559 44.7041 12.321 44.5185 12.3855 44.3324C12.8133 44.2977 12.9018 44.6604 13.0783 44.9212C13.1999 45.2449 13.1946 45.5831 13.1546 45.9164C13.1061 46.3212 13.3327 46.5388 13.6394 46.7201C14.2021 47.0455 14.1615 47.5991 14.1631 48.1276C14.1701 50.1868 14.1583 52.2455 14.1727 54.3047C14.1749 54.6305 14.0458 54.9985 14.3551 55.27C14.4789 55.3319 14.6138 55.3511 14.7493 55.3585C15.4538 55.2801 16.1615 55.2124 16.7519 54.7511C17.7327 54.2924 18.5093 54.8583 19.3178 55.2604C19.3029 58.0199 19.1045 60.7713 18.9397 63.5239C18.7487 64.2284 18.9887 64.9601 18.8042 65.6652Z" fill="#DEE1E1"/>
<path d="M27.2469 42.265C26.6672 43.3156 25.5456 42.8916 24.6906 43.1924C24.4992 43.2596 24.2629 43.201 24.0474 43.1999C19.8346 43.3594 15.6202 43.2783 11.4064 43.2943C10.6533 43.297 9.91838 43.2196 9.19624 43.009C8.94718 42.8916 8.69544 42.778 8.58984 42.4927C8.64531 41.9983 8.98238 42.2596 9.22184 42.2543C9.45758 42.313 9.68798 42.3924 9.93064 42.4244C11.0005 42.8218 11.9941 42.2074 13.0325 42.1892C13.3136 42.1887 13.5936 42.1546 13.8725 42.1508C14.4378 42.1428 14.752 41.9183 14.7525 41.322C14.753 40.6351 15.1232 40.4015 15.7781 40.473C16.1482 40.5135 16.5296 40.513 16.8997 40.4735C17.624 40.3962 18.1333 40.5354 18.1317 41.4132C18.1306 41.8559 18.4565 41.9695 18.8378 41.9802C19.4618 41.9978 20.0858 41.9727 20.7104 41.9924C21.5066 41.9418 22.3018 42.0026 23.097 41.9823C24.2693 41.9492 25.4421 42.0047 26.6149 41.9471C26.8634 41.9348 27.1957 41.8458 27.2469 42.265Z" fill="#505254"/>
<path d="M12.9526 44.905C12.7638 44.7141 12.575 44.5226 12.3862 44.3317C12.0267 43.7583 11.2816 44.0063 10.8406 43.6063C11.1435 43.1967 11.5872 43.2015 12.024 43.225C14.384 43.3535 16.7435 43.3156 19.1046 43.2484C19.6944 43.2314 20.3595 43.1343 20.8795 43.6005C19.7947 43.8746 18.6816 43.9087 17.5744 43.9919C16.8411 44.0469 16.3574 44.2303 16.535 45.1775C16.6294 45.6794 16.7563 46.2943 16.3376 46.7829C15.92 46.3007 16.1558 45.7167 16.072 45.0879C15.6774 45.1482 15.2187 45.0437 15.1131 45.6341C15.0176 46.169 15.3867 46.3253 15.8123 46.4191C16.0342 46.4677 16.1862 46.6271 16.3371 46.7829C16.3435 49.409 16.3499 52.0351 16.3563 54.6612C15.7024 54.5551 15.8827 54.0052 15.8715 53.6324C15.824 52.0084 15.8544 50.3823 15.8512 48.7572C15.8512 48.6634 15.8624 48.5679 15.8486 48.4762C15.792 48.1028 15.9947 47.4725 15.5046 47.457C14.9654 47.4405 15.1398 48.0772 15.135 48.4399C15.1099 50.3775 15.1302 52.3151 15.119 54.2527C15.1163 54.714 15.1904 55.1999 14.8491 55.5973C14.7147 55.6015 14.5803 55.6058 14.4459 55.61C14.1264 55.2426 14.1808 54.7919 14.1819 54.3599C14.1899 51.5834 14.1552 48.8063 14.1878 46.0298C14.191 45.7807 14.2187 45.5252 14.1504 45.2842C14.0544 44.9444 13.8934 44.6885 13.4902 44.9706C13.2976 45.0591 13.1174 45.0447 12.9526 44.905Z" fill="#A2A5A7"/>
<path d="M20.6709 42.2521C20.2011 42.258 19.7301 42.2441 19.2619 42.274C18.3835 42.33 17.5893 42.3279 17.8261 41.0585C17.88 40.7711 17.7056 40.5876 17.3883 40.586C16.7616 40.5823 16.1349 40.5796 15.5083 40.5695C15.0656 40.562 14.9653 40.8489 15.0229 41.1903C15.1819 42.1327 14.8459 42.5657 13.8597 42.4383C13.5531 42.3983 13.2363 42.4335 12.9243 42.434C12.9013 42.2308 13.0512 42.0911 13.112 41.9188C13.3744 41.1748 13.1813 40.874 12.3787 40.8457C11.5392 40.8164 10.6987 40.8319 9.85919 40.8484C9.45546 40.85 9.47412 41.1444 9.45012 41.4228C9.41972 41.7801 9.48586 42.1657 9.18452 42.4543C8.98986 42.5241 8.77012 42.2015 8.58986 42.4927C8.10452 41.9647 8.30399 41.2953 8.28372 40.6985C8.26506 40.1604 8.80212 40.3833 9.09279 40.3823C13.2907 40.3657 17.4891 40.3663 21.6869 40.3679C23.5979 40.3684 25.5088 40.3812 27.4192 40.3881C27.2997 40.9641 26.8117 40.8367 26.4491 40.8495C25.328 40.8895 24.2048 40.8729 23.0843 40.8623C22.9632 40.8559 22.8411 40.8361 22.7179 40.8404C22.1968 40.8591 21.6587 40.7465 21.1573 40.9012C20.4448 41.1215 21.0763 41.8852 20.6709 42.2521Z" fill="#76787A"/>
<path d="M16.9061 61.2637C17.5685 61.5154 17.5573 62.1634 17.6256 62.677C17.7472 63.5901 17.7024 64.5191 18.4635 65.2253C18.7707 65.5101 18.4085 66.0402 18.7792 66.3405C18.9008 67.2071 18.616 68.0818 18.832 68.9463C18.2613 68.7122 17.6597 68.7799 17.0725 68.8066C16.4933 68.8327 16.3077 68.6109 16.3248 68.0439C16.3861 66.053 16.4181 64.0621 16.8299 62.1005C16.8875 61.8285 16.8821 61.5431 16.9061 61.2637Z" fill="#D1D5D5"/>
<path d="M14.8496 55.5978C14.8448 52.9648 14.8491 50.3317 14.8267 47.6992C14.8224 47.2037 14.9163 46.9674 15.4896 46.9658C16.0779 46.9648 16.1536 47.2378 16.1499 47.7152C16.1339 49.7525 16.1317 51.7904 16.1456 53.8277C16.1477 54.1082 15.9653 54.4677 16.3573 54.6613C16.4747 54.6618 16.5915 54.6618 16.7088 54.6624C16.768 54.7066 16.7904 54.7536 16.776 54.8037C16.7611 54.8554 16.7445 54.881 16.7264 54.881C16.6731 55.2021 16.6411 55.3952 16.16 55.3093C15.7563 55.2368 15.3339 55.672 14.8496 55.5978Z" fill="#5D6063"/>
<path d="M22.7179 51.6378C22.5334 51.7061 22.3494 51.7744 22.1648 51.8426C21.4838 51.6421 20.7147 51.5765 20.4635 50.7226C20.8 50.1178 21.3126 49.752 21.9851 49.6042C22.4214 49.4341 22.7963 49.4224 22.9563 49.9749C22.992 50.7141 23.5243 50.6554 24.0342 50.6549C27.8048 50.6501 31.575 50.6501 35.3456 50.6549C35.8704 50.6554 36.4219 50.5904 36.8086 51.0794C36.8091 51.2058 36.8096 51.3317 36.8102 51.4581C36.4614 51.8106 36.008 51.7733 35.5739 51.7744C31.815 51.7808 28.0555 51.7754 24.2966 51.7829C23.7606 51.785 23.2512 51.6016 22.7179 51.6378Z" fill="#7B7D7E"/>
<path d="M22.9349 40.5935C24.1467 40.5866 25.3584 40.5914 26.5691 40.5631C26.8528 40.5567 27.1963 40.7279 27.4192 40.3882C27.8683 41.0602 27.4965 41.657 27.2464 42.265C25.8688 42.2575 24.4907 42.2501 23.1131 42.2426C22.3141 41.8005 22.2597 41.2975 22.9349 40.5935Z" fill="#D0D0D2"/>
<path d="M20.8795 43.6006C18.3296 43.5931 15.7803 43.5798 13.2304 43.5824C12.4342 43.583 11.6336 43.2752 10.8406 43.6064C10.2683 43.4736 9.68162 43.3814 9.19629 43.0091C13.7899 43.0123 18.383 43.0112 22.9766 43.0251C23.335 43.0262 23.7328 42.8896 24.0475 43.2C23.015 43.5206 21.943 43.528 20.8795 43.6006Z" fill="#8E9091"/>
<path d="M22.7322 49.9813C22.6736 49.4778 22.2688 49.6613 21.9845 49.6048C22.1861 49.4101 22.4469 49.4266 22.6917 49.4266C27.4757 49.4298 32.2597 49.4383 37.0442 49.4458C36.9626 49.5663 36.881 49.6869 36.7994 49.8069C36.4304 50.1386 35.9733 50.0485 35.545 50.0496C31.8229 50.0581 28.1008 50.0655 24.3786 50.0405C23.833 50.0373 23.2666 50.3285 22.7322 49.9813Z" fill="#949596"/>
<path d="M18.3706 58.2388C18.3157 58.4292 18.2613 58.6196 18.2064 58.81C17.7514 59.2388 17.2325 59.2175 16.6896 59.0255C15.8821 59.1423 15.0746 59.2591 14.2672 59.3759C13.4896 59.2799 12.6272 59.658 11.9552 58.9615C11.9034 58.874 11.872 58.7807 11.8565 58.6799C11.8448 58.5178 11.8778 58.3684 11.9749 58.2351C12.0709 58.178 12.1744 58.1476 12.2853 58.1402C13.9621 58.1332 15.6416 58.2671 17.313 58.0116C17.6805 57.9556 18.064 57.953 18.3706 58.2388Z" fill="#7F8181"/>
<path d="M16.7253 54.8804C16.7195 54.8073 16.7136 54.7348 16.7083 54.6617C16.7152 54.5071 16.7221 54.3529 16.7296 54.1983C17.6373 54.2799 17.608 53.2543 18.1957 52.9583C19.0261 52.7535 18.9248 53.6532 19.3488 53.93C19.3392 54.3732 19.3296 54.8164 19.3195 55.2596C18.5931 55.3764 18.0277 54.8148 17.3253 54.7855C17.1008 54.7759 16.9163 54.7871 16.7253 54.8804Z" fill="#939795"/>
<path d="M20.4634 50.7231C20.864 51.3498 21.7184 51.2869 22.1648 51.8431C22.0528 52.1669 21.7205 52.2453 21.4928 52.4389C20.4533 53.3231 20.4501 53.3194 19.7461 52.2517C19.7909 51.6511 20.1088 51.1786 20.4634 50.7231Z" fill="#545958"/>
<path d="M11.6314 53.9268C12.001 54.1518 12.0618 54.7241 12.6202 54.7705C12.7327 54.7801 13.0799 55.2265 12.6357 55.2708C12.0725 55.3273 12.2159 55.7668 12.0351 56.0249C11.7797 55.9892 11.9562 55.3508 11.4778 55.6254C11.3509 54.8894 10.5455 55.5156 10.2703 55.0345C10.2405 54.9822 9.92368 55.234 9.91302 54.8793C9.90715 54.682 9.91515 54.5124 10.1498 54.4441C10.6527 54.2969 11.0815 53.938 11.6314 53.9268Z" fill="#828584"/>
<path d="M11.4779 55.6254C11.591 55.4206 11.7046 55.2153 11.9056 54.8521C11.96 55.3417 11.9974 55.6835 12.0352 56.0248C11.9782 57.0728 11.7211 57.1464 10.3536 56.5054C10.5248 55.9523 11.215 56.0616 11.4779 55.6254Z" fill="#515455"/>
<path d="M19.3483 53.9301C19.1269 53.7946 18.7317 53.905 18.7488 53.4335C18.7605 53.1093 18.488 52.993 18.1952 52.9583C18.5605 52.4309 19.2608 52.5935 19.704 52.2261C19.5856 52.7941 19.4667 53.3621 19.3483 53.9301Z" fill="#C3C5C5"/>
<path d="M11.9962 58.8301C12.657 59.4141 13.5685 58.9527 14.2677 59.3757C13.7338 59.6295 13.1621 59.7213 12.5797 59.7661C12.3957 59.7629 12.2112 59.7597 12.0272 59.7565C11.768 59.4557 11.7264 59.1479 11.9962 58.8301Z" fill="#BFBFC0"/>
<path d="M16.6896 59.0255C17.1674 58.7573 17.7173 58.9983 18.2064 58.8101C18.112 59.7493 17.4768 59.8218 16.7376 59.7274C16.7221 59.4933 16.7056 59.2597 16.6896 59.0255Z" fill="#ABADAE"/>
<path d="M12.191 44.8896C12.9094 45.4016 12.5707 46.024 12.3723 46.6315C12.0331 46.08 12.2438 45.471 12.191 44.8896Z" fill="#A2A5A7"/>
<path d="M36.8213 53.9352C36.9179 56.8771 36.8784 59.8195 36.8245 62.7613C35.1696 61.932 33.4053 61.4957 31.5739 61.3C30.9499 61.1219 30.3931 60.7832 29.7899 60.5533C29.0549 59.5261 29.1701 59.1229 30.3067 58.6867C30.904 58.4573 31.5707 58.3656 32.0437 57.884C31.9504 57.5496 31.6933 57.5821 31.5008 57.5907C29.168 57.6893 26.84 57.38 24.5067 57.5176C24.1611 57.5379 23.8304 57.5843 23.5013 57.6984C23.2512 57.7853 22.9483 57.9384 22.8245 57.5101C22.8277 56.5085 22.8416 55.508 22.8187 54.5091C22.808 54.0467 22.9472 53.804 23.44 53.8067C27.7824 53.828 32.1248 53.7992 36.4672 53.8243C36.5931 53.8237 36.7109 53.8739 36.8213 53.9352Z" fill="#CECED0"/>
<path d="M29.8811 60.4969C30.5414 60.4025 31.0054 60.8692 31.5574 61.0846C32.3248 61.5833 32.5408 62.3534 32.5179 63.1934C32.503 63.7385 32.6886 63.9641 33.2294 64.0633C34.0848 64.2201 34.8939 64.5726 35.7462 64.7641C36.2144 64.8692 36.6176 65.1049 36.823 65.579C37.0102 66.2905 36.7243 66.5465 36.0102 66.4996C31.8816 66.227 27.7472 66.4238 23.6155 66.3886C22.9115 66.3828 22.7035 66.1785 22.7211 65.4782C22.7718 63.4441 22.752 61.4084 22.76 59.3732C22.8736 59.3305 22.9622 59.3609 23.0256 59.4644C23.2267 59.8526 23.1515 60.2761 23.1819 60.6857C23.176 61.3673 23.1904 62.0505 23.1718 62.7326C23.1574 63.2569 23.3579 63.499 23.8944 63.6062C24.7371 63.7748 25.5638 63.6516 26.3974 63.6153C26.9419 63.5918 27.1248 63.2308 27.1707 62.7433C27.2112 62.3145 27.2123 61.8601 27.6587 61.6014C28.1136 61.7652 28.5291 61.9166 28.2656 62.5726C27.9462 63.3689 28.2048 64.019 28.9339 64.4654C29.648 64.9028 30.815 64.7998 31.2731 64.2596C31.727 63.7246 31.7163 62.6004 31.2507 61.9769C30.6934 61.2302 29.8123 60.9881 29.0214 61.3273C28.6784 61.4745 28.328 62.0281 27.9312 61.386C28.4032 60.4905 28.9899 60.2233 29.8811 60.4969Z" fill="#8A8E90"/>
<path d="M36.8235 65.579C35.6795 64.7406 34.2768 64.6505 32.9733 64.2996C32.416 64.1497 32.1141 64.0612 32.2677 63.4164C32.4832 62.514 31.9301 61.8212 31.5579 61.0846C33.0645 60.9966 34.4133 61.7102 35.8571 61.9529C36.2432 62.018 36.5829 62.3918 36.8251 62.7614C36.8245 63.7006 36.824 64.6398 36.8235 65.579Z" fill="#B3B5B7"/>
<path d="M22.9072 59.3899C22.8581 59.3861 22.8096 59.3808 22.7605 59.3744C22.7557 57.2523 22.7509 55.1301 22.7461 53.008C22.8378 52.9227 22.944 52.8651 23.065 52.8325C27.176 52.9184 31.288 52.8491 35.3994 52.8763C35.8906 52.8795 36.4074 52.8043 36.824 53.1781C36.8229 53.4304 36.8224 53.6827 36.8213 53.9355C36.4506 54.1653 36.0373 54.1109 35.6336 54.1109C31.5664 54.1099 27.4992 54.1195 23.4325 54.088C22.9904 54.0848 22.9008 54.2016 22.9072 54.5829C22.9242 55.6149 22.9237 56.6475 22.9301 57.68C23.2816 58.2544 23.3328 58.8251 22.9072 59.3899Z" fill="#A3A4A7"/>
<path d="M36.8239 53.1781C32.7002 53.1765 28.5765 53.1707 24.4522 53.1792C23.9162 53.1803 23.3951 53.1472 22.889 52.9632C22.6719 52.3136 22.9722 52.024 23.5903 51.9563C23.8394 51.9291 24.089 51.9264 24.3391 51.9264C28.0261 51.9243 31.7125 51.9221 35.3994 51.9291C35.8927 51.9301 36.4106 51.8635 36.8229 52.2475C36.8234 52.5584 36.8239 52.8683 36.8239 53.1781Z" fill="#8A8B8D"/>
<path d="M36.8234 52.2481C32.4709 52.2459 28.1184 52.2475 23.7658 52.2358C23.24 52.2342 22.8021 52.263 22.8896 52.9643C22.8405 52.975 22.7925 52.9894 22.7461 53.0081C22.5477 52.5558 23.024 52.0891 22.7178 51.6385C22.8218 51.4726 22.9498 51.3435 23.1642 51.3558C27.7109 51.6139 32.2613 51.4171 36.809 51.4593C36.8138 51.7222 36.8186 51.9851 36.8234 52.2481Z" fill="#56585A"/>
<path d="M22.7322 49.9814C23.4378 49.8166 24.1536 49.8022 24.8752 49.8038C28.8501 49.8118 32.825 49.8076 36.8 49.8076C36.809 49.9276 36.8176 50.0476 36.8267 50.1676C36.4688 50.4481 36.0464 50.3468 35.6496 50.3478C31.8048 50.3553 27.9594 50.3521 24.1141 50.3526C27.9573 50.3537 31.8005 50.35 35.6437 50.358C36.0405 50.359 36.4624 50.2566 36.8208 50.5366C36.8165 50.718 36.8122 50.8993 36.8074 51.0806C36.4677 51.0353 36.1285 50.951 35.7888 50.95C31.7504 50.9398 27.7109 50.8982 23.6741 50.9756C22.7744 50.9932 22.6453 50.6945 22.7322 49.9814Z" fill="#CBCDCE"/>
<path d="M36.8213 50.5364C32.3754 50.5402 27.9295 50.546 23.4837 50.5407C23.313 50.5407 22.9925 50.7882 22.9781 50.4015C22.9669 50.0879 23.2879 50.1615 23.489 50.1594C24.2405 50.1503 24.9919 50.1572 25.7434 50.1578C29.4378 50.161 33.1322 50.1647 36.8266 50.1679C36.8245 50.2906 36.8229 50.4132 36.8213 50.5364Z" fill="#F2F4F6"/>
<path d="M18.8043 65.6648C18.8128 64.9485 18.6181 64.2194 18.9408 63.5234C18.9504 64.2408 18.9941 64.9602 18.8043 65.6648Z" fill="#D1D5D5"/>
<path d="M13.5237 44.8766C13.5392 44.7534 13.0784 44.6238 13.481 44.5326C14.2522 44.3576 14.4736 44.843 14.472 45.5032C14.4645 48.8723 14.4549 52.2408 14.4458 55.6099C13.7482 55.675 13.9146 55.1608 13.9136 54.7886C13.9077 52.4488 13.8885 50.108 13.9328 47.7688C13.9424 47.251 13.7525 46.9923 13.3466 46.7934C13.3664 46.6051 13.5018 46.4974 13.6282 46.3838C13.952 45.9576 13.9157 45.5267 13.6474 45.0931C13.5904 45.0302 13.5504 44.9576 13.5237 44.8766Z" fill="#717475"/>
<path d="M10.5104 59.7694C10.1994 59.8324 10.4325 60.0782 10.3029 60.3284C9.79996 59.5198 9.88583 58.6969 9.92956 57.8873C9.94396 57.6254 10.1354 57.5257 10.3877 57.5246C11.2832 57.5198 12.1312 57.1854 13.065 57.3049C14.6496 57.5081 16.2384 57.186 17.8261 57.0974C18.4597 57.0622 18.728 57.2756 18.4453 57.9182C16.3066 57.8425 14.1712 57.827 12.0544 58.218L11.984 58.2756C11.7472 58.5124 11.4122 58.4254 11.0778 58.5497C11.1648 58.851 11.513 58.947 11.6138 59.2169C11.625 60.1604 11.0624 59.9534 10.5104 59.7694Z" fill="#7F8181"/>
<path d="M12.0544 58.2188C12.04 57.7942 12.3141 57.6961 12.6592 57.702C14.3269 57.7308 15.9914 57.6849 17.6517 57.5073C17.9877 57.4716 18.3568 57.4439 18.4453 57.9191C18.4208 58.0257 18.3957 58.1324 18.3706 58.2391C16.592 58.4556 14.8053 58.4678 13.017 58.4412C12.68 58.4358 12.3296 58.4908 12.0544 58.2188Z" fill="#515454"/>
<path d="M13.6645 46.5607C13.5589 46.6381 13.4528 46.7159 13.3472 46.7933C13.0032 46.6327 12.7307 46.4855 12.9115 45.9847C13.0277 45.6615 12.9461 45.2669 12.9525 44.9042C13.1429 44.8951 13.3333 44.8855 13.5237 44.8765C13.5696 44.901 13.6181 44.9159 13.6699 44.9218C13.9989 45.4695 14.0069 46.0157 13.6645 46.5607Z" fill="#FDFDFD"/>
<path d="M10.5104 59.7695C10.8021 59.5375 11.6154 60.1482 11.4538 59.185C11.3594 58.7482 11.4512 58.6884 11.9957 58.8303C11.9957 58.8303 11.9957 58.8298 11.9957 58.8303C12.0058 59.1391 12.016 59.4479 12.0261 59.7567C11.5205 59.6826 11.0229 60.5775 10.5104 59.7695Z" fill="#FDFDFD"/>
<path d="M9.7648 40.5864C10.6725 40.5784 11.5813 40.5384 12.4869 40.5784C12.832 40.5934 13.4091 40.3267 13.4715 40.9598C13.5248 41.5027 13.7509 42.1864 12.9243 42.4339C11.8752 42.5934 10.8459 43.0766 9.75947 42.6275C9.34134 41.9459 9.33547 41.2659 9.7648 40.5864Z" fill="#E7E7E9"/>
<path d="M22.935 40.5935C22.648 41.1807 22.5152 41.7508 23.1131 42.242C22.2987 42.2452 21.4848 42.2484 20.671 42.2521C20.3664 40.5721 20.3664 40.5711 22.1019 40.5679C22.3798 40.5679 22.6571 40.5849 22.935 40.5935Z" fill="#9B9D9F"/>
<path d="M9.76474 40.5864C9.76314 41.2669 9.761 41.9469 9.7594 42.6274C9.56794 42.5693 9.37647 42.5117 9.185 42.4541C9.185 42.0242 9.19567 41.5944 9.18127 41.165C9.16634 40.748 9.30127 40.5085 9.76474 40.5864Z" fill="#ADAFAE"/>
<path d="M16.3376 46.7822C16.1584 46.7337 15.9766 46.6371 15.7995 46.6457C15.1334 46.6782 14.824 46.5102 14.8086 45.7182C14.791 44.8142 15.2864 44.8814 15.8646 44.8766C15.9984 44.8755 16.1318 44.7779 16.3376 44.6958C16.3376 45.4163 16.3376 46.0995 16.3376 46.7822Z" fill="#606566"/>
<path d="M11.9958 58.8302C11.8544 59.0088 11.4486 58.7827 11.4539 59.1848C11.1686 58.9304 10.479 58.7752 10.6368 58.4638C10.8624 58.02 11.5131 58.292 11.984 58.2755C11.9878 58.4606 11.992 58.6456 11.9958 58.8302Z" fill="#BFBFC0"/>
<path d="M22.9072 59.3896C22.9147 58.8195 22.9222 58.2499 22.9302 57.6797C24.1616 57.108 25.4283 57.1288 26.7616 57.2589C28.2768 57.4072 29.8166 57.3032 31.3456 57.3144C31.6251 57.3165 31.9088 57.3187 32.1814 57.3693C32.3515 57.4013 32.5664 57.4621 32.6075 57.6797C32.6491 57.8973 32.4731 58.0216 32.3254 58.1245C31.8331 58.4669 31.2651 58.6397 30.7019 58.8248C29.3451 59.2701 29.3462 59.2739 29.8811 60.4973C29.1216 60.5501 28.4246 60.7288 27.9878 61.4339C27.9248 61.5165 27.8416 61.5512 27.7382 61.5379C27.2192 61.5811 26.7659 61.3549 26.296 61.1901C25.2048 60.8077 24.0944 60.5405 22.9238 60.6899C22.9184 60.2563 22.9126 59.8227 22.9072 59.3896Z" fill="#BCBDBF"/>
<path d="M22.9237 60.6897C23.5845 59.9964 24.3488 60.431 25.0272 60.5777C25.9883 60.7857 26.9109 61.1692 27.8501 61.4774C27.8731 61.5494 27.8523 61.6017 27.7808 61.6305C27.4064 61.9958 27.4197 62.4657 27.4272 62.9345C27.4378 63.5932 27.1125 63.9052 26.4565 63.8966C25.4811 63.8838 24.5205 63.99 23.5253 63.8284C22.904 63.7276 22.9168 63.5334 22.9195 63.1142C22.9248 62.3068 22.9227 61.4982 22.9237 60.6897Z" fill="#A3A4A7"/>
<path d="M27.7808 61.6307C27.8202 61.587 27.8437 61.5358 27.8501 61.4777C27.8986 61.4718 27.9445 61.4574 27.9877 61.4339C28.2688 61.635 28.4277 61.4062 28.6352 61.2718C29.5472 60.6814 30.5056 60.7929 31.2634 61.5561C31.9088 62.2057 32.0714 63.5806 31.5925 64.3326C31.1221 65.0707 29.6101 65.2185 28.6906 64.6163C27.8592 64.0718 27.585 63.0803 28.0853 62.3673C28.3861 61.939 27.5637 62.0062 27.7808 61.6307Z" fill="#3B3F40"/>
<path d="M13.6646 46.5608C13.6662 46.0147 13.6683 45.468 13.6699 44.9219C14.272 45.3443 14.2694 46.1555 13.6646 46.5608Z" fill="#A2A5A7"/>
<defs>
<linearGradient id="paint0_linear_26_441" x1="54.1262" y1="9.05401" x2="35.1344" y2="32.0352" gradientUnits="userSpaceOnUse">
<stop stop-color="white"/>
<stop offset="1" stop-color="#121212"/>
</linearGradient>
</defs>
</svg>
