<svg width="75" height="16" viewBox="0 0 75 16" fill="none" xmlns="http://www.w3.org/2000/svg">
<path d="M7.59494 0.42407L9.18066 5.56471L9.20785 5.65286H9.30011H14.4491L10.278 8.84501L10.2088 8.89792L10.2345 8.98112L11.8243 14.135L7.6709 10.9565L7.59494 10.8983L7.51897 10.9565L3.36554 14.135L4.95536 8.98112L4.98102 8.89792L4.91188 8.84501L0.740738 5.65286H5.88977H5.98202L6.00921 5.56471L7.59494 0.42407Z" fill="white" stroke="#212529" stroke-width="0.25"/>
<path d="M22.7848 0.42407L24.3705 5.56471L24.3977 5.65286H24.49H29.639L25.4679 8.84501L25.3987 8.89792L25.4244 8.98112L27.0142 14.135L22.8608 10.9565L22.7848 10.8983L22.7088 10.9565L18.5554 14.135L20.1452 8.98112L20.1709 8.89792L20.1018 8.84501L15.9306 5.65286H21.0796H21.1719L21.1991 5.56471L22.7848 0.42407Z" fill="white" stroke="#212529" stroke-width="0.25"/>
<path d="M37.9747 0.42407L39.5604 5.56471L39.5876 5.65286H39.6799H44.8289L40.6577 8.84501L40.5886 8.89792L40.6143 8.98112L42.2041 14.135L38.0507 10.9565L37.9747 10.8983L37.8987 10.9565L33.7453 14.135L35.3351 8.98112L35.3608 8.89792L35.2916 8.84501L31.1205 5.65286H36.2695H36.3618L36.389 5.56471L37.9747 0.42407Z" fill="white" stroke="#212529" stroke-width="0.25"/>
<path d="M53.1646 0.42407L54.7503 5.56471L54.7775 5.65286H54.8697H60.0188L55.8476 8.84501L55.7785 8.89792L55.8041 8.98112L57.394 14.135L53.2405 10.9565L53.1646 10.8983L53.0886 10.9565L48.9352 14.135L50.525 8.98112L50.5507 8.89792L50.4815 8.84501L46.3104 5.65286H51.4594H51.5516L51.5788 5.56471L53.1646 0.42407Z" fill="white" stroke="#212529" stroke-width="0.25"/>
<path d="M67.4051 0.42407L68.9908 5.56471L69.018 5.65286H69.1102H74.2593L70.0881 8.84501L70.019 8.89792L70.0446 8.98112L71.6345 14.135L67.481 10.9565L67.4051 10.8983L67.3291 10.9565L63.1757 14.135L64.7655 8.98112L64.7912 8.89792L64.722 8.84501L60.5509 5.65286H65.6999H65.7921L65.8193 5.56471L67.4051 0.42407Z" fill="white" stroke="#212529" stroke-width="0.25"/>
</svg>
